<svg xmlns="http://www.w3.org/2000/svg" viewBox="0 0 512 512"><!--!Font Awesome Pro 6.5.2 by @fontawesome - https://fontawesome.com License - https://fontawesome.com/license (Commercial License) Copyright 2024 Fonticons, Inc.--><path class="fa-secondary" opacity=".4" d="M69.2 284.3c0 102.2 83.6 185.1 186.8 185.1c103.2 0 186.8-82.9 186.8-185.1c0-102.2-83.6-185.1-186.8-185.1s-186.8 82.9-186.8 185.1zM240.4 202c0-8.5 7-15.4 15.6-15.4c8.6 0 15.6 6.9 15.6 15.4l0 75.9 47.3 46.9c2.9 2.9 4.6 6.8 4.6 10.9s-1.6 8-4.6 10.9c-3.1 3-7 4.5-11 4.5s-8-1.5-11-4.5L245 295.2c-2.9-2.9-4.5-6.8-4.5-10.9l0-82.3z"/><path class="fa-primary" d="M256 186.6c8.6 0 15.6 6.9 15.6 15.4v75.9l47.3 46.9a15.3 15.3 0 0 1 0 21.8 15.7 15.7 0 0 1 -22 0L245 295.2a15.4 15.4 0 0 1 -4.5-10.9V202c0-8.5 7-15.4 15.6-15.4M175.8 49.9c2.2 3.5 2.9 7.7 2 11.7s-3.4 7.4-6.9 9.6l-83 51.4c-7.3 4.5-16.9 2.3-21.5-4.9c-2.2-3.5-2.9-7.7-2-11.7s3.4-7.4 6.9-9.6l83-51.4c7.3-4.5 16.9-2.3 21.5 4.9zm160.4 0c4.6-7.2 14.2-9.4 21.4-4.9l83 51.4c3.5 2.1 6 5.6 6.9 9.6s.2 8.2-2 11.7c-4.6 7.2-14.2 9.4-21.5 4.9l-83-51.4c-3.5-2.1-6-5.6-6.9-9.6s-.2-8.2 2-11.7z"/></svg>