<svg xmlns="http://www.w3.org/2000/svg" viewBox="0 0 512 512"><!--!Font Awesome Pro 6.5.2 by @fontawesome - https://fontawesome.com License - https://fontawesome.com/license (Commercial License) Copyright 2024 Fonticons, Inc.--><path class="fa-secondary" opacity=".4" d="M42.7 88.2l0 146.5 32 0 0-146.5C74.7 71.5 86.5 57.1 103 54s32.8 5.8 39 21.3c1 2.5 2 5.1 3.1 7.6c9.7-4.5 19.4-9.1 29-13.7c-.8-2-1.6-3.9-2.3-5.9c-10.3-25.8-35.2-42.1-62.1-42.1c-4.2 0-8.4 .4-12.7 1.2C65.4 28.5 42.6 56.1 42.7 88.2zM87 456.9c-2.6 5.1-2.3 11.2 .9 16c3 4.5 8 7.2 13.4 7.2c.3 0 .7 0 1 0c5.7-.4 10.8-3.8 13.4-8.9l20.7-41.3-.4-.2c-3.8-2.3-9.6-5.8-14.8-9.1c-5.4-3.4-10.3-6.5-11.9-7.9c-.3 .5-.6 1-.8 1.5L87 456.9zm278-27l20.7 41.3c4 7.9 13.6 11.1 21.5 7.2c5.6-2.8 8.9-8.5 8.9-14.3c0-2.4-.5-4.8-1.7-7.1L393 414.2c-.2-.5-.5-1-.8-1.4c-.1 0-.1 .1-.2 .2c-1.1 .9-2.8 2.1-4.9 3.4c-2.2 1.4-4.7 3.1-7.4 4.7c-5.3 3.3-11 6.7-14.6 8.8z"/><path class="fa-primary" d="M42.7 234.7l-5.3 0c-8.8 0-16 7.2-16 16s7.2 16 16 16l5.3 0 0 7.6c0 8 0 12.7 .3 17.9c3 47.7 28.8 91.8 66.2 120.6c3.3 2.7 19.5 12.5 27.1 17.1c17.2 8.8 35.9 14.3 55.1 16.3c5.2 .5 8.4 .6 13.8 .9l.1 0c15.8 .6 31.2 1 45.4 1s29.6-.4 45.4-1l.1 0c5.4-.2 8.6-.3 13.8-.9c19.2-2 37.9-7.5 55-16.3c7.2-4.3 22.8-13.6 27.1-17.1c37.4-28.8 63.1-72.9 66.2-120.6c.3-5.2 .3-9.9 .3-17.9l0-.8c0-1.3 0-2.6-.1-3.8c-.1-1-.2-2-.3-2.9l5.7 0c8.8 0 16-7.2 16-16s-7.2-16-16-16l-389.3 0zM145 82.9a87.3 87.3 0 0 0 -29.4 37.8 89.2 89.2 0 0 0 -.4 66.3 16 16 0 0 0 21.2 8.8l127.2-54.8a16 16 0 0 0 8.6-20.5 84.8 84.8 0 0 0 -45.5-47.2A82 82 0 0 0 174 69.2z"/></svg>