<?xml version="1.0" encoding="UTF-8" standalone="no" ?>
<!DOCTYPE svg PUBLIC "-//W3C//DTD SVG 1.1//EN" "http://www.w3.org/Graphics/SVG/1.1/DTD/svg11.dtd">
<svg xmlns="http://www.w3.org/2000/svg" xmlns:xlink="http://www.w3.org/1999/xlink" version="1.1" width="1080" height="1080" viewBox="0 0 1080 1080" xml:space="preserve">
<desc>Created with Fabric.js 5.2.4</desc>
<defs>
</defs>
<g transform="matrix(1 0 0 1 540 540)" id="3a4f2316-b647-4c9c-89b8-c49925bb4d28"  >
</g>
<g transform="matrix(1 0 0 1 540 540)" id="a38d2f03-834f-4faf-9e7d-2fbc8ceda29a"  >
<rect style="stroke: none; stroke-width: 1; stroke-dasharray: none; stroke-linecap: butt; stroke-dashoffset: 0; stroke-linejoin: miter; stroke-miterlimit: 4; fill: rgb(255,255,255); fill-rule: nonzero; opacity: 1; visibility: hidden;" vector-effect="non-scaling-stroke"  x="-540" y="-540" rx="0" ry="0" width="1080" height="1080" />
</g>
<g transform="matrix(0 1 -1 0 702.81 540)"  >
<path style="stroke: none; stroke-width: 0; stroke-dasharray: none; stroke-linecap: butt; stroke-dashoffset: 0; stroke-linejoin: miter; stroke-miterlimit: 4; fill: rgb(0,0,0); fill-rule: nonzero; opacity: 0.4;" vector-effect="non-scaling-stroke"  transform=" translate(-255.95, -256)" d="M 69.3 64 C 69.3 55.2 76.5 48 85.3 48 L 426.6 48 C 435.40000000000003 48 442.6 55.2 442.6 64 C 442.6 72.8 435.40000000000003 80 426.6 80 L 85.3 80 C 76.5 80 69.3 72.8 69.3 64 z M 69.3 448 C 69.3 439.2 76.5 432 85.3 432 L 426.6 432 C 435.40000000000003 432 442.6 439.2 442.6 448 C 442.6 456.8 435.40000000000003 464 426.6 464 L 85.3 464 C 76.5 464 69.3 456.8 69.3 448 z" stroke-linecap="round" />
</g>
<g transform="matrix(0 1 -1 0 780.92 518.45)"  >
<path style="stroke: none; stroke-width: 1; stroke-dasharray: none; stroke-linecap: butt; stroke-dashoffset: 0; stroke-linejoin: miter; stroke-miterlimit: 4; fill: rgb(0,0,0); fill-rule: nonzero; opacity: 1;" vector-effect="non-scaling-stroke"  transform=" translate(-256, -255.95)" d="M 267.3 106 C 261.1 99.8 250.9 99.8 244.70000000000002 106 L 180.70000000000002 170 C 174.50000000000003 176.2 174.50000000000003 186.4 180.70000000000002 192.6 C 186.9 198.79999999999998 197.10000000000002 198.79999999999998 203.3 192.6 L 240 156 L 240 356 L 203.3 319.3 C 197.10000000000002 313.1 186.9 313.1 180.70000000000002 319.3 C 174.50000000000003 325.5 174.50000000000003 335.7 180.70000000000002 341.90000000000003 L 244.70000000000002 405.90000000000003 C 250.9 412.1 261.1 412.1 267.3 405.90000000000003 L 331.3 341.90000000000003 C 337.5 335.70000000000005 337.5 325.50000000000006 331.3 319.3 C 325.1 313.09999999999997 314.90000000000003 313.1 308.7 319.3 L 272 356 L 272 156 L 308.7 192.7 C 314.9 198.89999999999998 325.09999999999997 198.89999999999998 331.3 192.7 C 337.50000000000006 186.5 337.5 176.29999999999998 331.3 170.1 L 267.3 106.1 z" stroke-linecap="round" />
</g>
<g transform="matrix(0 1 -1 0 377.19 540)"  >
<path style="stroke: none; stroke-width: 0; stroke-dasharray: none; stroke-linecap: butt; stroke-dashoffset: 0; stroke-linejoin: miter; stroke-miterlimit: 4; fill: rgb(0,0,0); fill-rule: nonzero; opacity: 0.4;" vector-effect="non-scaling-stroke"  transform=" translate(-255.95, -256)" d="M 69.3 64 C 69.3 55.2 76.5 48 85.3 48 L 426.6 48 C 435.40000000000003 48 442.6 55.2 442.6 64 C 442.6 72.8 435.40000000000003 80 426.6 80 L 85.3 80 C 76.5 80 69.3 72.8 69.3 64 z M 69.3 448 C 69.3 439.2 76.5 432 85.3 432 L 426.6 432 C 435.40000000000003 432 442.6 439.2 442.6 448 C 442.6 456.8 435.40000000000003 464 426.6 464 L 85.3 464 C 76.5 464 69.3 456.8 69.3 448 z" stroke-linecap="round" />
</g>
<g transform="matrix(0 1 -1 0 310.74 521.8)"  >
<path style="stroke: none; stroke-width: 1; stroke-dasharray: none; stroke-linecap: butt; stroke-dashoffset: 0; stroke-linejoin: miter; stroke-miterlimit: 4; fill: rgb(0,0,0); fill-rule: nonzero; opacity: 1;" vector-effect="non-scaling-stroke"  transform=" translate(-256, -255.95)" d="M 267.3 106 C 261.1 99.8 250.9 99.8 244.70000000000002 106 L 180.70000000000002 170 C 174.50000000000003 176.2 174.50000000000003 186.4 180.70000000000002 192.6 C 186.9 198.79999999999998 197.10000000000002 198.79999999999998 203.3 192.6 L 240 156 L 240 356 L 203.3 319.3 C 197.10000000000002 313.1 186.9 313.1 180.70000000000002 319.3 C 174.50000000000003 325.5 174.50000000000003 335.7 180.70000000000002 341.90000000000003 L 244.70000000000002 405.90000000000003 C 250.9 412.1 261.1 412.1 267.3 405.90000000000003 L 331.3 341.90000000000003 C 337.5 335.70000000000005 337.5 325.50000000000006 331.3 319.3 C 325.1 313.09999999999997 314.90000000000003 313.1 308.7 319.3 L 272 356 L 272 156 L 308.7 192.7 C 314.9 198.89999999999998 325.09999999999997 198.89999999999998 331.3 192.7 C 337.50000000000006 186.5 337.5 176.29999999999998 331.3 170.1 L 267.3 106.1 z" stroke-linecap="round" />
</g>
</svg>