<svg xmlns="http://www.w3.org/2000/svg" viewBox="0 0 512 512"><!--!Font Awesome Pro 6.6.0 by @fontawesome - https://fontawesome.com License - https://fontawesome.com/license (Commercial License) Copyright 2024 Fonticons, Inc.--><path class="fa-secondary" opacity=".4" d="M42.7 256a213.3 213.3 0 1 0 426.7 0A213.3 213.3 0 1 0 42.7 256zm133.4-6.3c-1.4-5.7 .3-11.7 4.6-15.7l64-64c6.2-6.2 16.4-6.2 22.6 0l64 64c3.3 3.1 5.1 7.3 5.1 11.7c0 1.3-.2 2.6-.5 4c-1.4 5.7-5.9 10.1-11.5 11.5s-11.7-.3-15.7-4.6L256 203.9l-52.7 52.7c-4 4.3-10 6-15.7 4.6s-10.1-5.9-11.5-11.5zm0 85.3c-1.4-5.7 .3-11.7 4.6-15.7l64-64c6.2-6.2 16.4-6.2 22.6 0l64 64c3.3 3.1 5.1 7.3 5.1 11.7c0 1.3-.2 2.6-.5 4c-1.4 5.7-5.9 10.1-11.5 11.5s-11.7-.3-15.7-4.6L256 289.3 203.3 342c-4 4.3-10 6-15.7 4.6s-10.1-5.9-11.5-11.5z"/><path class="fa-primary" d="M180.7 319.4a16 16 0 1 0 22.6 22.6L256 289.3l52.7 52.7a16 16 0 1 0 22.6-22.6l-64-64a16 16 0 0 0 -22.6 0zm0-85.3a16 16 0 1 0 22.6 22.6L256 203.9l52.7 52.7a16 16 0 1 0 22.6-22.6l-64-64a16 16 0 0 0 -22.6 0z"/></svg>