<svg xmlns="http://www.w3.org/2000/svg" viewBox="0 0 512 512"><!--!Font Awesome Pro 6.5.2 by @fontawesome - https://fontawesome.com License - https://fontawesome.com/license (Commercial License) Copyright 2024 Fonticons, Inc.--><path class="fa-secondary" opacity=".4" d="M26.7 330.7l0 42.7c0 8.8 7.1 16 16 16c0-3.2 0-6.6 0-10.2l0-37.1c0-10.9 0-19.8 .3-27.3c-3.4-.1-6.7 .9-9.6 2.9c-4.2 3-6.8 7.9-6.8 13.1zM48 256l0 31.8c.5-1.1 1.1-2.2 1.7-3.2c3.6-5.9 8.4-11 14.1-14.9c4.5-3.1 9.6-5.2 16.1-6.8l0-6.9c0-97.2 78.8-176 176-176s176 78.8 176 176l0 6.9c6.5 1.6 11.7 3.7 16.1 6.8c5.7 4 10.5 9.1 14.1 14.9c.6 1 1.2 2.1 1.7 3.2l0-31.8c0-114.9-93.1-208-208-208S48 141.1 48 256zm421 58.7c.3 7.5 .3 16.4 .3 27.3l0 37.1c0 3.6 0 7 0 10.2c8.8 0 16-7.2 16-16l0-42.7c0-5.2-2.5-10.1-6.8-13.1c-2.8-2-6.2-3-9.6-2.9z"/><path class="fa-primary" d="M170.7 299.7c0-18.1 0-27.2-4.5-33.5a25.3 25.3 0 0 0 -8.7-7.6c-6.9-3.7-16.3-2.9-35-1.1c-31.6 2.9-47.3 4.3-58.6 12.2a50 50 0 0 0 -14.1 14.9c-7.1 11.6-7.1 26.9-7.1 57.4v37.1c0 30.2 0 45.4 7.2 57c2.7 4.4 6.1 8.3 10 11.7c10.6 9 26 11.8 56.8 17.5c21.7 4 32.5 6 40.5 1.8c2.9-1.5 5.5-3.6 7.7-6.1c5.7-6.8 5.7-17.5 5.7-38.7zm170.7 0c0-18.1 0-27.2 4.5-33.5c2.2-3.2 5.2-5.8 8.7-7.6c6.9-3.7 16.3-2.9 35-1.1c31.6 2.9 47.3 4.3 58.6 12.2c5.7 4 10.5 9.1 14.1 14.9c7.1 11.6 7.1 26.9 7.1 57.4v37.1c0 30.2 0 45.4-7.2 57c-2.7 4.4-6.1 8.3-10 11.7c-10.6 9-26 11.8-56.8 17.5c-21.7 4-32.5 6-40.5 1.8a25.5 25.5 0 0 1 -7.7-6.1c-5.7-6.8-5.7-17.5-5.7-38.7z"/></svg>