<svg xmlns="http://www.w3.org/2000/svg" viewBox="0 0 512 512"><!--!Font Awesome Pro 6.5.2 by @fontawesome - https://fontawesome.com License - https://fontawesome.com/license (Commercial License) Copyright 2024 Fonticons, Inc.--><path class="fa-secondary" opacity=".4" d="M42.8 146.2c-.1 1.6-.1 3.4-.1 7.1l0 45.1c0 35.3 30.3 64 67.8 64c12.5 0 22.6 9.6 22.6 21.3l0 105.6 101.7 0c0-63.6 0-127.1 0-190.7c0-6.2 0-9.3-.1-11.9C231.7 132 185.3 88.1 127.3 85.5c-2.8-.1-6-.1-12.6-.1c-4 0-5.9 0-7.6 .1C72.3 87 44.5 113.3 42.8 146.2zM80 149.3c0-8.8 7.2-16 16-16s16 7.2 16 16l0 53.3c0 8.8-7.2 16-16 16s-16-7.2-16-16l0-53.3zm53 272c0 26.5 22.8 48 50.8 48c28.1 0 50.8-21.5 50.8-48l-101.7 0zM298.7 384a85.3 85.3 0 1 0 170.7 0 85.3 85.3 0 1 0 -170.7 0zm49.9 7.5c-2.8-5.2-2.5-11.5 .8-16.4l21.3-32c4.9-7.4 14.8-9.3 22.2-4.4s9.3 14.8 4.4 22.2l-4.8 7.1 12.8 0c5.9 0 11.3 3.2 14.1 8.5s2.5 11.5-.8 16.4l-21.3 32c-3.1 4.8-8.6 7.6-14.4 7.2s-10.9-3.8-13.4-8.9s-2.1-11.3 1.2-16.1l4.8-7.1-12.8 0c-5.9 0-11.3-3.2-14.1-8.5z"/><path class="fa-primary" d="M392.9 338.7a16 16 0 0 1 4.4 22.2l-4.8 7.1h12.8a16 16 0 0 1 13.3 24.9l-21.3 32a16 16 0 1 1 -26.6-17.7l4.8-7.1H362.7a16 16 0 0 1 -13.3-24.9l21.3-32a16 16 0 0 1 22.2-4.4m76.5-183l0-45.1c0-3.7 0-5.6-.1-7.1c-1.7-32.9-29.5-59.2-64.4-60.8c-1.7-.1-3.6-.1-7.6-.1c-6.5 0-9.8 0-12.6 .1c-58 2.7-104.4 46.5-107.3 101.3c-.1 2.6-.1 5.7-.1 11.9l0 179.1c18.4-40 57.6-66.4 101.7-68.3l0-25.7c0-11.8 10.1-21.3 22.6-21.3c37.4 0 67.8-28.7 67.8-64zM432 160c0 8.8-7.2 16-16 16s-16-7.2-16-16l0-53.3c0-8.8 7.2-16 16-16s16 7.2 16 16zM234.7 389.3H133v32H234.7zM96 133.3a16 16 0 0 0 -16 16v53.3a16 16 0 0 0 32 0V149.3a16 16 0 0 0 -16-16"/></svg>