<svg xmlns="http://www.w3.org/2000/svg" viewBox="0 0 512 512"><!--!Font Awesome Pro 6.5.2 by @fontawesome - https://fontawesome.com License - https://fontawesome.com/license (Commercial License) Copyright 2024 Fonticons, Inc.--><path class="fa-secondary" opacity=".4" d="M411.7 64H100.3c-32 0-48.2 38.3-25.9 61.1l166.4 170.2a21.3 21.3 0 0 0 30.5 0l166.4-170.2c22.3-22.8 6-61.1-26-61.1m-171 231.3a21.3 21.3 0 0 0 30.5 0l.7-.7V432h-32V294.5z"/><path class="fa-primary" d="M149.5 448c0-8.8 7.2-16 16-16l181.1 0c8.8 0 16 7.2 16 16s-7.2 16-16 16l-181.1 0c-8.8 0-16-7.2-16-16zm91.3-152.7a21.3 21.3 0 0 0 30.5 0l80.1-81.9H160.6z"/></svg>