<svg xmlns="http://www.w3.org/2000/svg" viewBox="0 0 512 512"><!--!Font Awesome Pro 6.5.2 by @fontawesome - https://fontawesome.com License - https://fontawesome.com/license (Commercial License) Copyright 2024 Fonticons, Inc.--><path class="fa-secondary" opacity=".4" d="M112.8 437.5c3 8.2 12 12.4 20.2 9.7L256 407.9l122.9 39.4c8.3 2.7 17.2-1.6 20.2-9.7c1.3-3.9 1-8.2-1-11.9s-5.2-6.4-9.2-7.6L272 380.6l0-50.3-32 0 0 50.3L122.9 418c-4 1.2-7.3 3.9-9.2 7.6s-2.2 7.9-.9 11.9z"/><path class="fa-primary" d="M61.4 82c-18.8 18-18.8 46.9-18.8 104.9l0 20.5c0 57.9 0 86.9 18.8 104.9c18.7 18 48.9 18 109.2 18l170.7 0c60.3 0 90.5 0 109.2-18c18.8-18 18.8-46.9 18.8-104.9l0-20.5c0-57.9 0-86.9-18.8-104.9c-18.7-18-48.9-18-109.2-18L170.7 64c-60.3 0-90.5 0-109.2 18z"/></svg>