<svg xmlns="http://www.w3.org/2000/svg" viewBox="0 0 512 512"><!--!Font Awesome Pro 6.5.2 by @fontawesome - https://fontawesome.com License - https://fontawesome.com/license (Commercial License) Copyright 2024 Fonticons, Inc.--><path class="fa-secondary" opacity=".4" d="M199.9 308.9c0 .1 0 .3 0 .4s0 .3 0 .4c.1 3.4 1.2 6.8 3.3 10.1s5 6.4 8.6 9.4c24 19.6 80 33.4 129.6 33.4c65.2 0 128-23.9 128-53.3s-62.8-53.3-128-53.3c-38.6 0-81.2 8.4-109.5 21.4c-9.6 4.4-17.5 9.3-23.1 14.6s-8.8 11-8.9 16.9z"/><path class="fa-primary" d="M137.3 53.3A62.6 62.6 0 0 0 74.7 115.9a16 16 0 0 1 -32 0 94.6 94.6 0 1 1 189.2 0v161.5c-19.1 8.8-31.7 19.7-32 31.5v-193A62.6 62.6 0 0 0 137.3 53.3m62.6 256.4c.2 6.9 4.5 13.5 11.9 19.5c24 19.6 80 33.4 129.6 33.4c65.2 0 128-23.9 128-53.3v25.3a134.7 134.7 0 1 1 -269.5 0V309.3z"/></svg>