<svg xmlns="http://www.w3.org/2000/svg" viewBox="0 0 512 512"><!--!Font Awesome Pro 6.5.2 by @fontawesome - https://fontawesome.com License - https://fontawesome.com/license (Commercial License) Copyright 2024 Fonticons, Inc.--><path class="fa-secondary" opacity=".4" d="M64 213.3l0 85.3c0 80.4 0 120.7 25 145.7c25 25 65.2 25 145.7 25l42.7 0 .4 0c80.2 0 120.3 0 145.2-25c25-25 25-65.2 25-145.7l0-85.3c0-80.4 0-120.7-25-145.7c-25-25-65.2-25-145.7-25l-42.7 0-.5 0c-80.1 0-120.2 .1-145.2 25c-25 25-25 65.2-25 145.7zm87.5-31.7c-7.1-19.7 4-41.7 22.8-45.2l10.2-1.9c23.7-4.4 47.6-6.6 71.6-6.6s47.9 2.2 71.6 6.6l10.2 1.9c14.9 2.8 24.9 17.2 24.9 32.8c0 4.1-.7 8.3-2.2 12.4L344.6 226c-2.3 6.4-8.5 10-14.5 8.3c-32.8-9.2-66.9-12.2-100.8-8.9l-16-50c-3.3-10.4-13.6-15.8-22.9-12.1s-14.1 15.1-10.8 25.5l13.7 42.5c-3.8 .9-7.6 1.9-11.4 2.9c-6 1.7-12.2-1.9-14.5-8.3l-15.9-44.3zM154.7 384c0-8.8 7.2-16 16-16l170.7 0c8.8 0 16 7.2 16 16s-7.2 16-16 16l-170.7 0c-8.8 0-16-7.2-16-16z"/><path class="fa-primary" d="M154.7 384a16 16 0 0 1 16-16h170.7a16 16 0 0 1 0 32H170.7a16 16 0 0 1 -16-16m29.8-249.4a390.9 390.9 0 0 1 143.1 0l10.2 1.9c18.8 3.5 29.9 25.5 22.8 45.2L344.6 226c-2.3 6.4-8.5 10-14.5 8.3a275 275 0 0 0 -100.8-8.9l-16-50c-3.3-10.4-13.6-15.8-22.9-12.1s-14.1 15.1-10.8 25.5l13.7 42.5c-3.8 .9-7.6 1.9-11.4 2.9c-6 1.7-12.2-1.9-14.5-8.3l-15.9-44.3c-7.1-19.7 4-41.7 22.8-45.2z"/></svg>