<svg xmlns="http://www.w3.org/2000/svg" viewBox="0 0 512 512"><!--!Font Awesome Pro 6.5.2 by @fontawesome - https://fontawesome.com License - https://fontawesome.com/license (Commercial License) Copyright 2024 Fonticons, Inc.--><path class="fa-secondary" opacity=".4" d="M149.3 170.7l0 85.9c1.6-.1 3.2-.2 4.8-.2c.8 0 1.6-.1 2.5-.1c.7 0 1.4 0 2.1-.1c1.5 0 3-.1 4.5-.1c.6 0 1.2 0 1.8 0c2.1 0 4.2 0 6.4 0c.5 0 1.1 0 1.6 0c2.2 0 4.5 0 6.9 0l1.5 0 149.1 0 1.5 0c2.4 0 4.7 0 7 0c.5 0 1 0 1.6 0c2.2 0 4.4 0 6.5 0c.6 0 1.2 0 1.8 0c1.6 0 3.1 .1 4.6 .1c.7 0 1.3 0 2 .1c.9 0 1.7 .1 2.5 .1c1.6 .1 3.2 .2 4.8 .2l0-85.9c0-39.9 0-59.8-8.6-74.7c-5.6-9.7-13.7-17.8-23.4-23.4C315.8 64 295.9 64 256 64s-59.8 0-74.7 8.6c-9.7 5.6-17.8 13.7-23.4 23.4c-8.6 14.8-8.6 34.8-8.6 74.7z"/><path class="fa-primary" d="M133.3 341.1c-10.7-.4-17.2-1.9-21.6-6.7c-6.3-6.9-5.5-16.5-3.8-35.7c1.2-13.9 3.9-23.2 10-30.2C128.7 256 146.3 256 181.4 256h149.1c35.1 0 52.7 0 63.6 12.5c6.1 7 8.8 16.3 10 30.2c1.6 19.2 2.5 28.8-3.9 35.7c-4.4 4.8-10.9 6.3-21.6 6.7V448a16 16 0 1 1 -32 0V341.3H165.3V448a16 16 0 1 1 -32 0z"/></svg>