<svg xmlns="http://www.w3.org/2000/svg" viewBox="0 0 512 512"><!--!Font Awesome Pro 6.5.2 by @fontawesome - https://fontawesome.com License - https://fontawesome.com/license (Commercial License) Copyright 2024 Fonticons, Inc.--><path class="fa-secondary" opacity=".4" d="M42.7 249.9l0 21.1c0 49.2 0 73.8 8 93.2c10.7 25.9 31.3 46.4 57.2 57.2c14 5.8 30.6 7.4 57.1 7.9c18 .3 27 .5 34.1 4.6c7.1 4.2 11.6 11.7 20.5 26.7l11.5 19.3c5.1 8.6 14 12.9 23 12.9s17.9-4.3 23-12.9l11.5-19.3c8.9-15 13.3-22.5 20.5-26.7c7.1-4.1 16.1-4.3 34.1-4.6c26.5-.4 43.2-2.1 57.1-7.9c25.9-10.7 46.5-31.3 57.2-57.2c4-9.5 6-20.3 7-34.6c.2-3 .4-5.5 .4-7.5c0-3-.4-5.1-1.6-6.9c-2-3.1-5.9-4.3-13.6-6.9c-32.2-10.8-107-38.3-148.7-73.6c-47.1-39.8-89.2-120.7-104.3-151.8c-3-6.2-4.5-9.2-7.1-10.9c-2.1-1.3-4.8-1.5-9.3-1.5c-1 0-2.1 0-3.4 0C133.3 71 113.7 73.4 93.1 86C78.9 94.7 67 106.6 58.2 120.8c-15.6 25.4-15.6 60-15.6 129.1z"/><path class="fa-primary" d="M317.3 5.1c3.4 3.1 5.3 7.5 5.3 12.2s-2 9-5.5 12.1L293.6 51c20.5 .2 40.1 .6 57.9 1.8c15.3 1 29.6 2.4 42 4.7c12.2 2.3 24 5.5 33.3 10.8c17.1 9.5 31.7 23 42.7 39.2c10.2 15.4 14.8 32.8 16.9 53.8c2.1 20.5 2.1 46.2 2.1 78.7l0 .9c0 9.5-8.3 17.2-18.4 17.2c-10.2 0-18.5-7.7-18.5-17.2c0-33.6 0-57.6-1.9-76.3c-1.9-18.4-5.5-29.9-11.6-39c-7.8-11.6-18.2-21.2-30.4-27.9c-4-2.2-10.9-4.6-21.4-6.5C374 89.1 361.5 87.7 349 87c-18.3-1-36.7-1.6-55.1-1.7l23.2 21.3c7.3 6.7 7.3 17.5 .2 24.3c-7.4 6.7-18.6 6.8-26.1 .1L235.9 80.2c-3.5-3.1-5.4-7.5-5.5-12.2c0-4.6 2-9 5.5-12.2L291.2 4.9c7.4-6.7 18.7-6.6 26.1 .1z"/></svg>