<svg xmlns="http://www.w3.org/2000/svg" viewBox="0 0 512 512"><!--!Font Awesome Pro 6.5.2 by @fontawesome - https://fontawesome.com License - https://fontawesome.com/license (Commercial License) Copyright 2024 Fonticons, Inc.--><path class="fa-secondary" opacity=".4" d="M106.7 170.3l0 .4 0 170.7c0 60.3 0 90.5 18.8 109.2c18.7 18.8 48.9 18.8 109.2 18.8l42.7 0c60.3 0 90.5 0 109.2-18.8c18.7-18.7 18.8-48.8 18.8-108.8l0-.4 0-170.7c0-60.3 0-90.5-18.8-109.2c-18.7-18.8-48.9-18.8-109.2-18.8l-42.7 0c-60.3 0-90.5 0-109.2 18.8c-18.7 18.7-18.8 48.8-18.8 108.9zm80 235c0-8.8 7.2-16 16-16l106.7 0c8.8 0 16 7.2 16 16s-7.2 16-16 16l-106.7 0c-8.8 0-16-7.2-16-16z"/><path class="fa-primary" d="M202.7 389.3a16 16 0 0 0 0 32h106.7a16 16 0 0 0 0-32zM35.5 113.7c7.9-3.9 17.5-.8 21.5 7.1L73.5 154c5.3 10.5 5.3 22.9 0 33.4L61.8 210.9c-.8 1.5-.8 3.3 0 4.8l11.8 23.6c5.3 10.5 5.3 22.9 0 33.4L61.8 296.3c-.8 1.5-.8 3.3 0 4.8l11.8 23.6c5.3 10.5 5.3 22.9 0 33.4L57 391.2c-4 7.9-13.6 11.1-21.5 7.2s-11.1-13.6-7.2-21.5l16.6-33.1c.8-1.5 .8-3.3 0-4.8L33.1 315.4c-5.3-10.5-5.3-22.9 0-33.4l11.8-23.6c.8-1.5 .8-3.3 0-4.8L33.1 230c-5.3-10.5-5.3-22.9 0-33.4l11.8-23.6c.8-1.5 .8-3.3 0-4.8L28.4 135.2c-1.9-3.8-2.2-8.2-.9-12.2s4.2-7.4 8-9.3zm441 0c7.9 3.9 11.1 13.6 7.2 21.5l-16.6 33.1c-.8 1.5-.8 3.3 0 4.8l11.8 23.6c5.3 10.5 5.3 22.9 0 33.4l-11.8 23.6c-.8 1.5-.8 3.3 0 4.8l11.8 23.6c5.3 10.5 5.3 22.9 0 33.4l-11.8 23.6c-.8 1.5-.8 3.3 0 4.8l16.6 33.1c3.9 7.9 .6 17.4-7.2 21.3s-17.4 .8-21.4-7.1L438.5 358c-5.3-10.5-5.3-22.9 0-33.4L450.3 301c.8-1.5 .8-3.3 0-4.8l-11.8-23.6c-5.3-10.5-5.3-22.9 0-33.4l11.8-23.6c.8-1.5 .8-3.3 0-4.8l-11.8-23.6c-5.3-10.5-5.3-22.9 0-33.4L455 120.8c1.9-3.8 5.2-6.7 9.3-8s8.4-1 12.2 .9z"/></svg>