<svg xmlns="http://www.w3.org/2000/svg" viewBox="0 0 512 512"><!--!Font Awesome Pro 6.5.2 by @fontawesome - https://fontawesome.com License - https://fontawesome.com/license (Commercial License) Copyright 2024 Fonticons, Inc.--><path class="fa-secondary" opacity=".4" d="M64 213.3l0 85.3c0 80.4 0 120.7 25 145.7c25 25 65.2 25 145.7 25l42.7 0 .4 0c80.2 0 120.3 0 145.2-25c25-25 25-65.2 25-145.7l0-85.3c0-80.4 0-120.7-25-145.7c-25-25-65.2-25-145.7-25l-42.7 0-.5 0c-80.1 0-120.2 .1-145.2 25c-25 25-25 65.2-25 145.7zm69.3 85.8c0-6.1 .5-12.3 1.4-18.6c10-66 71-111.9 137.2-103.2c61.6 8.1 106.7 60.7 106.7 121.5c0 4.5-.2 9-.8 13.6l.4 .3-1.9 9.6c-11.3 58.5-62.6 99.4-120.3 99.4c-6.9 0-13.9-.6-21-1.8c-59.6-10.3-101.8-62-101.8-120.7zM154.7 128c0-8.8 7.2-16 16-16l170.7 0c8.8 0 16 7.2 16 16s-7.2 16-16 16l-170.7 0c-8.8 0-16-7.2-16-16zm11.1 161.6c2.5 1.5 4.9 3.1 7.3 4.7l2.6 1.6c4.8 3.1 9.8 6.3 15.1 9.5c12.4 7.3 25.8 13.7 40.9 16.4c10.2 1.9 16.4 .8 20.8-.8c4.8-1.8 8.6-4.6 14.5-9.2l.5-.4c5.4-4.2 12.8-9.9 22.5-13.5c10.5-3.9 22.6-4.9 37.5-2.3c3.4 .6 6.9 1.2 10.4 1.7l.3 .1c2.9 .4 5.8 .9 8.6 1.4c0-48.4-37.8-88.3-86.1-90.7s-90 33.5-94.8 81.6z"/><path class="fa-primary" d="M154.7 128a16 16 0 0 1 16-16h170.7a16 16 0 0 1 0 32H170.7a16 16 0 0 1 -16-16M377.9 312.5c7.3-66.4-39.8-126.4-106-135.1s-127.2 37.2-137.2 103.2s34.6 127.9 100.4 139.3s128.6-32 141.3-97.6l1.9-9.6zM173.1 294.2c-2.4-1.6-4.9-3.1-7.3-4.7c4.8-48.1 46.5-84 94.8-81.6s86.2 42.3 86.1 90.6l0 .1c-2.8-.5-5.8-1-8.6-1.4l-.3-.1c-3.5-.5-6.9-1.1-10.4-1.7c-14.9-2.7-27-1.6-37.5 2.3c-9.7 3.6-17.1 9.3-22.5 13.5l-.5 .4c-5.9 4.6-9.7 7.4-14.5 9.2c-4.3 1.6-10.5 2.6-20.8 .8c-15-2.7-28.4-9.1-40.9-16.4c-5.3-3.1-10.2-6.3-15.1-9.5z"/></svg>