<svg xmlns="http://www.w3.org/2000/svg" viewBox="0 0 512 512"><!--!Font Awesome Pro 6.5.2 by @fontawesome - https://fontawesome.com License - https://fontawesome.com/license (Commercial License) Copyright 2024 Fonticons, Inc.--><path class="fa-secondary" opacity=".4" d="M48 181.3l0 272 96 0c0-46.2 0-92.4 0-138.7l-53.4 0c-8.8 0-16-7.2-16-16s7.2-16 16-16l53.3 0c0-10.7 0-21.3 .1-32l-53.4 0c-8.8 0-16-7.2-16-16s7.2-16 16-16l53.3 0c0-10.7 0-21.3 .1-32l-53.4 0c-8.8 0-16-7.2-16-16s7.2-16 16-16l53.3 0 0-26.7c0-7.8 0-14.9 .1-21.3c-23.1 .1-67.8 .9-77.2 7.2c-4.7 3.1-8.7 7.1-11.8 11.8C48 136.4 48 151.4 48 181.3zm309.3-74.7c.1 6.2 .1 12.7 .1 19.4l0 28.6 53.3 0c8.8 0 16 7.2 16 16s-7.2 16-16 16l-53.3 0 0 32 53.3 0c8.8 0 16 7.2 16 16s-7.2 16-16 16l-53.3 0 0 32 53.3 0c8.8 0 16 7.2 16 16s-7.2 16-16 16l-53.3 0 0 138.7 95.9 0 0-272c0-30 0-44.9-7.2-55.7c-3.1-4.7-7.1-8.7-11.8-11.8c-9.4-6.3-54-7.1-77.1-7.2z"/><path class="fa-primary" d="M229.3 42.7l42.7 0c40.2 0 60.3 0 72.8 12.5s12.5 32.6 12.5 72.8l0 325.3 106.7 0c8.8 0 16 7.2 16 16s-7.2 16-16 16l-426.7 0c-8.8 0-16-7.2-16-16s7.2-16 16-16l106.7 0L144 128c0-40.2 0-60.3 12.5-72.8s32.6-12.5 72.8-12.5zm21.3 48c-8.8 0-16 7.2-16 16l0 26.7-26.7 0c-8.8 0-16 7.2-16 16s7.2 16 16 16l26.7 0 0 26.7c0 8.8 7.2 16 16 16s16-7.2 16-16l0-26.7 26.7 0c8.8 0 16-7.2 16-16s-7.2-16-16-16l-26.7 0 0-26.7c0-8.8-7.2-16-16-16zM192 256c0 8.8 7.2 16 16 16l85.3 0c8.8 0 16-7.2 16-16s-7.2-16-16-16L208 240c-8.8 0-16 7.2-16 16zm0 64c0 8.8 7.2 16 16 16l85.3 0c8.8 0 16-7.2 16-16s-7.2-16-16-16L208 304c-8.8 0-16 7.2-16 16zm58.7 69.3c-8.8 0-16 7.2-16 16l0 48 32 0 0-48c0-8.8-7.2-16-16-16z"/></svg>