<svg xmlns="http://www.w3.org/2000/svg" viewBox="0 0 512 512"><!--!Font Awesome Pro 6.5.2 by @fontawesome - https://fontawesome.com License - https://fontawesome.com/license (Commercial License) Copyright 2024 Fonticons, Inc.--><path class="fa-secondary" opacity=".4" d="M26.7 298.7c0 8.8 7.2 16 16 16c40.7 0 69.6 0 91.5 3C155.6 320.5 168 326 177 335s14.4 21.4 17.3 42.8c2.9 21.9 3 50.8 3 91.5c0 8.8 7.2 16 16 16s16-7.2 16-16l0-1.2c0-39.2 0-70.3-3.3-94.6c-3.4-25-10.5-45.2-26.4-61.2c-16-16-36.2-23-61.2-26.4c-24.3-3.3-55.4-3.3-94.6-3.3l-1.2 0c-8.8 0-16 7.2-16 16zm256-256l0 1.2c0 39.2 0 70.3 3.3 94.6c3.4 25 10.5 45.2 26.4 61.2c16 16 36.2 23 61.2 26.4c24.3 3.3 55.4 3.3 94.6 3.3l1.2 0c8.8 0 16-7.2 16-16s-7.2-16-16-16c-40.7 0-69.6 0-91.5-3C356.4 191.5 344 186 335 177s-14.4-21.4-17.3-42.8c-2.9-22-3-50.8-3-91.5c0-8.8-7.2-16-16-16s-16 7.2-16 16z"/><path class="fa-primary" d="M213.3 26.7c8.8 0 16 7.2 16 16l0 1.2c0 39.2 0 70.3-3.3 94.6c-3.4 25-10.5 45.2-26.4 61.2c-16 16-36.2 23-61.2 26.4c-24.3 3.3-55.4 3.3-94.6 3.3l-1.2 0c-8.8 0-16-7.2-16-16s7.2-16 16-16c40.7 0 69.6 0 91.5-3C155.6 191.5 168 186 177 177s14.4-21.4 17.3-42.9c2.9-21.9 3-50.8 3-91.5c0-8.8 7.2-16 16-16zm254.8 256l1.2 0c8.8 0 16 7.2 16 16s-7.2 16-16 16c-40.7 0-69.6 0-91.5 3C356.4 320.5 344 326 335 335s-14.4 21.4-17.3 42.9c-2.9 21.9-3 50.8-3 91.5c0 8.8-7.2 16-16 16s-16-7.2-16-16l0-1.2c0-39.2 0-70.3 3.3-94.6c3.4-25 10.5-45.2 26.4-61.2c16-16 36.2-23 61.2-26.4c24.3-3.3 55.4-3.3 94.6-3.3z"/></svg>