<svg xmlns="http://www.w3.org/2000/svg" viewBox="0 0 512 512"><!--!Font Awesome Pro 6.5.2 by @fontawesome - https://fontawesome.com License - https://fontawesome.com/license (Commercial License) Copyright 2024 Fonticons, Inc.--><path class="fa-secondary" opacity=".4" d="M26.6 443.2c0 4 1.5 8 4.4 11c3.9 4.2 9.8 5.9 15.4 4.6c42-9.9 62.3-35.7 78.1-60.4c.9-1.5 2.5-2.4 4.2-2.4c2.1 0 4 1 5.2 2.7C157.6 429 195.4 464 256 464c58.9 0 96.9-27.1 121.7-60.4c1.7-2.3 4.3-3.7 7.1-3.8c2.2-.1 4.2 .9 5.4 2.7c15.5 23.4 35.9 46.8 75.4 56.1c5.6 1.3 11.4-.4 15.4-4.6s5.3-10.1 3.7-15.6s-6.1-9.7-11.7-11c-28.2-6.7-42.7-22.5-56-42.6c-16.1-24.4-49.5-21-64.9-.5c-19.9 26.7-49 47.6-96.1 47.6c-46.3 0-75.8-26-96.9-53.1c-15.6-19.9-47-20.7-61.6 2.2C83.4 403.2 68.9 420.5 39 427.6c-5.6 1.3-10.1 5.5-11.7 11c-.5 1.5-.7 3.1-.7 4.6zm.6-104.3c2 8.6 10.6 13.9 19.2 11.9c42-9.9 62.3-35.7 78.1-60.3c.9-1.5 2.5-2.4 4.2-2.4c2.1 0 4 1 5.2 2.7c23.7 30.4 61.5 65.4 122.1 65.4c58.9 0 96.9-27.1 121.7-60.4c1.7-2.3 4.3-3.7 7.1-3.8c2.2-.1 4.2 .9 5.4 2.7c15.5 23.4 35.9 46.8 75.4 56.1c8.6 2 17.1-3.4 19.2-11.9s-3.3-17.2-11.8-19.2c-28.2-6.7-42.7-22.5-56-42.6c-15.1-22.9-45.5-21.3-61.8-4c-.5 .5-1.1 1.1-1.6 1.7s-1 1.2-1.4 1.8c-19.9 26.7-49 47.6-96.1 47.6c-23.1 0-42.1-6.5-57.9-16.4s-28.4-23.2-39-36.7c-1.9-2.5-4.1-4.6-6.4-6.5s-4.8-3.4-7.4-4.7c-5.3-2.5-11-3.8-16.7-3.8c-6.7 0-13.4 1.8-19.4 5.5c-4.5 2.8-8.5 6.7-11.7 11.7C83.4 295.3 68.9 312.6 39 319.6c-8.6 2.1-13.8 10.7-11.8 19.2z"/><path class="fa-primary" d="M416 117.3a53.3 53.3 0 1 1 -106.7 0 53.3 53.3 0 0 1 106.7 0m-60.9 155.6l-24.4-27.6L192 88.2A30.3 30.3 0 0 0 146.3 128l21.1 24.6c12.9 15.1-7.8 48.3-7.8 48.3l-50.4 60.7c16-10 37.8-6.1 50 9.4c21.1 27.1 50.6 53.1 96.9 53.1c47.1 0 76.2-20.9 96.1-47.6a39.7 39.7 0 0 1 3-3.5"/></svg>