<svg xmlns="http://www.w3.org/2000/svg" viewBox="0 0 512 512"><!--!Font Awesome Pro 6.5.2 by @fontawesome - https://fontawesome.com License - https://fontawesome.com/license (Commercial License) Copyright 2024 Fonticons, Inc.--><path class="fa-secondary" opacity=".4" d="M237.4 74.7l0 32c38.4 0 57.9 .3 70.1 12.5c6.3 6.3 9.4 14.4 10.9 26c.8 5.8 1.2 12.5 1.4 20.2s.2 16.5 .2 26.6l0 261.3 128 0L448 128l0-.3c0-40.1 0-60.1-12.5-72.6C423 42.7 402.9 42.7 362.7 42.7l-42.7 0c-40.2 0-60.4 0-72.8 12.5c-5 5-8 11.2-9.8 19.5z"/><path class="fa-primary" d="M149.3 106.7l85.3 0c40.2 0 60.3 0 72.8 12.5S320 151.8 320 192l0 261.3 149.3 0c8.8 0 16 7.2 16 16s-7.2 16-16 16l-426.7 0c-8.8 0-16-7.2-16-16s7.2-16 16-16l21.3 0L64 192c0-40.2 0-60.3 12.5-72.8s32.6-12.5 72.8-12.5zm-37.3 64c0 8.8 7.2 16 16 16l128 0c8.8 0 16-7.2 16-16s-7.2-16-16-16l-128 0c-8.8 0-16 7.2-16 16zm0 64c0 8.8 7.2 16 16 16l128 0c8.8 0 16-7.2 16-16s-7.2-16-16-16l-128 0c-8.8 0-16 7.2-16 16zm0 64c0 8.8 7.2 16 16 16l128 0c8.8 0 16-7.2 16-16s-7.2-16-16-16l-128 0c-8.8 0-16 7.2-16 16zm80 90.7c-8.8 0-16 7.2-16 16l0 48 32 0 0-48c0-8.8-7.2-16-16-16z"/></svg>