<svg xmlns="http://www.w3.org/2000/svg" viewBox="0 0 512 512"><!--!Font Awesome Pro 6.5.2 by @fontawesome - https://fontawesome.com License - https://fontawesome.com/license (Commercial License) Copyright 2024 Fonticons, Inc.--><path class="fa-secondary" opacity=".4" d="M42.7 245.3l0 138.7c0 35.3 28.7 64 64 64s64-28.7 64-64l0-138.7c0-5.9-4.8-10.7-10.7-10.7l-10.7 0-85.3 0-10.7 0c-5.9 0-10.7 4.8-10.7 10.7zM272 432c0 8.8 7.2 16 16 16l128 0c8.8 0 16-7.2 16-16s-7.2-16-16-16l-48 0 0-75.7c-10.6 1.5-21.4 1.5-32 0l0 75.7-48 0c-8.8 0-16 7.2-16 16z"/><path class="fa-primary" d="M64 234.7h85.3V128a21.3 21.3 0 0 0 -30.9-19.1l-42.7 21.3A21.3 21.3 0 0 0 64 149.3zM234.7 224a117.3 117.3 0 1 1 234.7 0 117.3 117.3 0 0 1 -234.7 0"/></svg>