<svg xmlns="http://www.w3.org/2000/svg" viewBox="0 0 512 512"><!--!Font Awesome Pro 6.5.2 by @fontawesome - https://fontawesome.com License - https://fontawesome.com/license (Commercial License) Copyright 2024 Fonticons, Inc.--><path class="fa-secondary" opacity=".4" d="M42.7 64l0 108.3c-.1 32.4 14.7 63.1 40 83.3c22.2 17.8 44.4 35.5 66.6 53.3l8 6.4c.5 .4 .9 .7 1.4 1c.5 .4 1 .7 1.6 1c1.1 .6 2.2 1.1 3.3 1.5c.1 0 .2 .1 .3 .1c.4 .1 .7 .2 1.1 .3c.1 0 .2 0 .3 .1c.5 .1 1.1 .2 1.6 .4c1.3 .2 2.5 .3 3.7 .3c.3 0 .6 0 .8 0c.2 0 .4 0 .6 0c.2 0 .3 0 .5 0c.5-.1 1.1-.1 1.6-.2c1.3-.2 2.4-.5 3.6-.9c.2-.1 .3-.1 .5-.2c.3-.1 .7-.3 1-.4l.2-.1c.5-.2 1-.5 1.4-.7c1.1-.6 2.1-1.3 3.1-2.1c2.7-2.1 5.4-4.3 8-6.4c22.2-17.8 44.4-35.5 66.6-53.3c25.4-20.2 40.1-50.9 40-83.3l0-108.3c0-11.8-9.6-21.3-21.3-21.3l-42.7 0c-11.8 0-21.3 9.6-21.3 21.3s9.6 21.3 21.3 21.3l21.3 0 0 87c0 19.4-8.8 37.8-24 50l-61.3 49.1-61.3-49.1c-15.2-12.1-24.1-30.5-24-50l0-87 21.3 0c11.8 0 21.3-9.6 21.3-21.3s-9.6-21.3-21.3-21.3L64 42.7c-11.8 0-21.3 9.6-21.3 21.3zM341.3 234.7c0 27.9 17.8 51.6 42.7 60.4l0-.3c6.8 2.5 14 3.9 21.3 3.9c7.3-.1 14.5-1.4 21.3-3.9l0 .3c24.8-8.8 42.6-32.5 42.7-60.3c0-35.3-28.7-64-64-64s-64 28.7-64 64z"/><path class="fa-primary" d="M405.3 298.7a63.3 63.3 0 0 1 -21.3-3.9v35.9a96 96 0 0 1 -192 0v-21.8l-8 6.4a21.3 21.3 0 0 1 -26.7 0l-8-6.4v21.8a138.7 138.7 0 0 0 277.3 0v-35.9a63.3 63.3 0 0 1 -21.3 3.9"/></svg>