<svg xmlns="http://www.w3.org/2000/svg" viewBox="0 0 512 512"><!--!Font Awesome Pro 6.5.2 by @fontawesome - https://fontawesome.com License - https://fontawesome.com/license (Commercial License) Copyright 2024 Fonticons, Inc.--><path class="fa-secondary" opacity=".4" d="M69.3 42.7c0 2.1 .4 4.2 1.3 6.3c0 .1 .1 .1 .1 .2l.3 .8 1.3 3.2c7.1 17.9 13.4 36.1 19 54.5c10.5 34.8 20.7 78.8 20.7 117.9c-.1 12.2-2.3 24.3-6.6 35.8l301.1 0c-4.3-11.5-6.5-23.6-6.6-35.8c0-39.1 10.2-83.1 20.7-117.9c5.6-18.4 11.9-36.6 19-54.5l1.3-3.2 .3-.8c.1-.2 .1-.2 .1-.2c.9-2.1 1.4-4.3 1.4-6.6c0-3.4-1.1-6.7-3.1-9.5c-3-4.1-7.8-6.5-12.9-6.5c-.7 0-1.4 0-2.1 .1c-5.8 .7-10.6 4.5-12.8 9.9c-.1 .2-.1 .3-.1 .3l-.4 .9L410 41.2c-7.5 18.8-14.1 37.9-20 57.3c-10.2 34-20.8 78.5-21.9 120.3l-224.2 0c-1.1-41.8-11.7-86.2-21.9-120.3c-5.9-19.4-12.5-38.5-20-57.3l-1.4-3.5-.4-.9c0-.1-.1-.2-.1-.4c-3.5-8.1-12.9-11.9-21-8.4c-6.1 2.6-9.7 8.5-9.7 14.7z"/><path class="fa-primary" d="M465.8 372.5c-9.5-22.3-21.8-42.7-32.8-60.7c-3.9-6.5-7.7-12.7-11.1-18.5H90c-3.4 5.9-7.1 12-11.1 18.5c-11 18-23.3 38.4-32.8 60.7A242.2 242.2 0 0 0 26.7 469.3a16 16 0 0 0 32 0c0-31.8 6.2-57.5 15.1-79.9c115.1 3.1 159.1 61.2 167 84.9a16 16 0 0 0 30.3 0c7.9-23.7 52-81.8 167-84.9a210.1 210.1 0 0 1 15.1 79.9 16 16 0 0 0 32 0c0-38.7-8.1-70-19.5-96.8"/></svg>