<svg xmlns="http://www.w3.org/2000/svg" viewBox="0 0 512 512"><!--!Font Awesome Pro 6.5.2 by @fontawesome - https://fontawesome.com License - https://fontawesome.com/license (Commercial License) Copyright 2024 Fonticons, Inc.--><path class="fa-secondary" opacity=".4" d="M63.5 247.1c0 23 7.8 54 18.9 98.7c11.6 46.6 17.5 69.8 34.8 83.4c17.4 13.5 41.4 13.5 89.4 13.5l98.8 0 .2 0c47.9 0 71.8 0 89.1-13.5c17.4-13.6 23.2-36.8 34.8-83.4c18.3-73.2 27.4-109.8 8.2-134.4c-3-3.8-6.4-7.1-10.4-9.8c-8.7-6-19.9-9.6-34.5-11.7c-21.3-3.1-49.7-3.1-87.6-3.1l-98.8 0c-37.9 0-66.2 0-87.5 3.1c-14.5 2.1-25.8 5.7-34.5 11.7c-4 2.7-7.4 6-10.4 9.8c-7.5 9.6-10.7 21-10.7 35.8zM154.7 272c0-8.8 7.2-16 16-16s16 7.2 16 16l0 85.3c0 8.8-7.2 16-16 16s-16-7.2-16-16l0-85.3zM176 80c0 2.8 .3 5.6 .9 8.3c.1 .6 .3 1.3 .5 1.9c.2 .7 .4 1.3 .6 2c.5 1.3 1 2.6 1.6 3.9c6 12.6 18.8 21.3 33.7 21.3l85.3 0c14.9 0 27.7-8.7 33.7-21.3c.1-.1 .1-.2 .2-.4c.3-.6 .5-1.2 .8-1.7c.2-.6 .5-1.2 .7-1.8c.2-.7 .4-1.3 .6-2s.4-1.3 .5-2c0-.1 0-.1 0-.2c.1-.4 .1-.7 .2-1.1c.4-2.2 .6-4.5 .6-6.9c0-2.8-.3-5.6-.9-8.2c-.3-1.3-.7-2.6-1.1-3.9c-.5-1.3-1-2.6-1.6-3.9c-6-12.6-18.9-21.4-33.8-21.4l-85.3 0c-14.9 0-27.8 8.7-33.7 21.4c-.6 1.3-1.1 2.6-1.6 3.9c-1.3 3.8-2 7.9-2 12.1zm64 192c0-8.8 7.2-16 16-16s16 7.2 16 16l0 85.3c0 8.8-7.2 16-16 16s-16-7.2-16-16l0-85.3zm85.3 0c0-8.8 7.2-16 16-16s16 7.2 16 16l0 85.3c0 8.8-7.2 16-16 16s-16-7.2-16-16l0-85.3z"/><path class="fa-primary" d="M332.4 96a37.2 37.2 0 0 0 0-32c14.6 .1 25.9 .8 36.1 4.7A69.3 69.3 0 0 1 398.9 92c7.8 10.5 11.5 24 16.6 42.6l1 3.6 10.9 63.2c-8.7-6-19.9-9.6-34.5-11.7l-7.7-44.5c-6.1-22.2-8.3-29.2-12-34.2a37.3 37.3 0 0 0 -16.4-12.5c-4.7-1.8-10.4-2.4-24.5-2.5M179.6 64a37.2 37.2 0 0 0 0 32c-14.1 .1-19.8 .7-24.5 2.5a37.3 37.3 0 0 0 -16.4 12.5c-3.7 5-5.9 12-11.9 34.1l-7.7 44.6c-14.5 2.1-25.8 5.7-34.5 11.7l10.9-63.2 1-3.6c5.1-18.6 8.7-32.1 16.6-42.7a69.3 69.3 0 0 1 30.4-23.2c10.2-4 21.5-4.6 36.1-4.7m7.1 208a16 16 0 0 0 -32 0v85.3a16 16 0 0 0 32 0zm154.7-16a16 16 0 0 1 16 16v85.3a16 16 0 0 1 -32 0V272a16 16 0 0 1 16-16M272 272a16 16 0 0 0 -32 0v85.3a16 16 0 0 0 32 0z"/></svg>