<svg xmlns="http://www.w3.org/2000/svg" viewBox="0 0 512 512"><!--!Font Awesome Pro 6.5.2 by @fontawesome - https://fontawesome.com License - https://fontawesome.com/license (Commercial License) Copyright 2024 Fonticons, Inc.--><path class="fa-secondary" opacity=".4" d="M42.7 256c0-64 28.2-121.5 72.9-160.6c.4 .4 .7 .9 1.1 1.2L138 118c6.3 5.9 16.1 5.7 22.2-.4s6.3-15.9 .4-22.2L141.3 76.1C174.5 54.9 213.8 42.7 256 42.7c64 0 121.5 28.2 160.6 72.9c-.5 .4-.9 .8-1.2 1.1L394 138c-4.3 4-6 10-4.6 15.7s5.9 10.1 11.5 11.5s11.7-.3 15.7-4.6l19.3-19.3c-1.5-2.3-3-4.7-4.6-7c24 34.5 38 76.4 38 121.6c0 18.7-2.4 36.8-6.9 54.1l-2-2.8c-5-6.3-12.1-13.8-20.8-19.7s-18.9-10.3-30.4-10.3c-22.6 0-31 16.7-43 29.2c-2.4 2.5-4.9 4.8-7.6 6.7c-5.6 4-12.4 6.7-21.5 6.7c-7.6 0-14.7-1.9-21.1-4.9c-3.2-1.5-6.3-3.3-9.1-5.2c-1.4-1-2.8-2-4.2-3c-.7-.5-1.3-1.1-2-1.6c-.6-.5-1.3-1.1-1.9-1.6c25-22.5 28.3-60.4 7.7-86.9s-58.3-32.5-86.1-13.8s-36.6 55.8-19.9 85l-.2 .2c-2.1 1.6-4.5 3.3-7 5.1c-2.4 1.7-4.9 3.4-7.6 5.2c-5.6 3.6-11.7 7.2-18.1 10.5C154.8 315.2 140.9 320 128 320c-17.4 0-36.6-8.8-52.3-18.4c-7.8-4.8-14.8-9.7-20.3-13.9c-2.6-2-4.8-3.8-6.7-5.3c-1.9-1.5-3.3-2.8-4.4-3.7c-.2-.2-.4-.3-.5-.5c-.8-7.3-1.2-14.8-1.2-22.4zm18.2-64.4l1.7 30.1c.5 8.8 8 15.6 16.9 15.1s15.6-8 15.1-16.9l-1.7-30.1c-.2-5.8-3.5-11.1-8.6-13.8s-11.4-2.3-16.2 .9s-7.5 8.9-7 14.7zM106 276.3c2.3 5.3 7.3 9 13.1 9.6s11.4-2 14.7-6.7l17.8-24.3c5.2-7.1 3.7-17.1-3.5-22.4c-7.1-5.2-17.1-3.7-22.4 3.5l-17.8 24.3c-3.5 4.6-4.3 10.7-2 16.1zm11.9-102.1l12.5 27.5c3.8 7.8 13.1 11.2 21 7.6s11.5-12.9 8.1-20.9L147 161c-2.2-5.4-7.2-9.1-13-9.8s-11.5 2-14.8 6.7s-3.8 11-1.2 16.3zm61.5-12.9c2.3 8.5 11.1 13.6 19.6 11.3l29.1-7.8c8.2-2.5 13-11.1 10.8-19.4s-10.7-13.4-19.1-11.4l-29.1 7.8c-8.5 2.3-13.6 11.1-11.3 19.6zM218.7 81c-1.4 5.7 .3 11.7 4.6 15.7L244.7 118c4 4.3 10 6 15.7 4.6s10.1-5.9 11.5-11.5s-.3-11.7-4.6-15.7L246 74c-3.1-3.3-7.3-5.1-11.7-5.1c-1.3 0-2.6 .2-4 .5c-5.7 1.4-10.1 5.9-11.5 11.5zm75.9 74.6c2.2 5.3 7.1 8.9 12.8 9.6s11.3-1.7 14.7-6.3l32-42.7c5.3-7.1 3.9-17.1-3.2-22.4s-17.1-3.9-22.4 3.2l-32 42.7c-3.4 4.6-4.2 10.6-1.9 15.9zm44.6 36.7l1.4 30.1c.4 8.8 7.9 15.7 16.7 15.2s15.7-7.9 15.2-16.7l-1.4-30.1c-.6-8.7-8-15.3-16.7-14.9s-15.5 7.7-15.2 16.4zm50.1 53.4c-.3 4.2 1.2 8.4 4 11.6s6.8 5.1 11 5.4s8.4-1.2 11.6-4l35.8-31.5c6.6-5.8 7.3-16 1.4-22.6s-16-7.3-22.6-1.4l-35.8 31.5c-3.2 2.8-5.1 6.8-5.4 11zm32.5-123.8c1.7 2.1 3.4 4.2 5 6.4c-1.6-2.2-3.3-4.3-5-6.4z"/><path class="fa-primary" d="M416.6 115.6a16.2 16.2 0 0 0 -1.2 1.1L394 138a16 16 0 1 0 22.6 22.6l19.3-19.3c-5.8-9.1-12.3-17.7-19.3-25.8m-301-20.2c.4 .4 .7 .9 1.1 1.2L138 118a16 16 0 0 0 22.6-22.6l-19.3-19.3c-9.1 5.8-17.7 12.3-25.8 19.3m107.8 1.2A16 16 0 1 1 246 74l21.3 21.3A16 16 0 1 1 244.7 118zm130.8 19.6a16 16 0 0 0 -25.6-19.2l-32 42.7a16 16 0 1 0 25.6 19.2zm-174.7 45a16 16 0 0 0 19.6 11.3l29.1-7.8a16 16 0 0 0 -8.3-30.9l-29.1 7.8a16 16 0 0 0 -11.3 19.6m193.2 59.6a16 16 0 0 1 -32 1.5l-1.4-30.1a16 16 0 0 1 32-1.5zm20.7 36.4a16 16 0 0 0 22.6 1.4l35.8-31.5a16 16 0 0 0 -21.2-24l-35.8 31.5a16 16 0 0 0 -1.4 22.6m-275.5-83A16 16 0 1 1 147 161l12.5 27.4a16 16 0 0 1 -29.1 13.2zm30.3 58.2a16 16 0 0 1 3.5 22.4l-17.8 24.3a16 16 0 1 1 -25.8-18.9l17.8-24.3a16 16 0 0 1 22.4-3.5M60.9 191.6a16 16 0 1 1 31.9-1.8l1.7 30.1a16 16 0 0 1 -32 1.8zM128 320c25.9 0 55.6-19.4 72.3-32l.2-.2a64 64 0 0 0 98.3 15.8c10 8.8 23.1 16.4 38.4 16.4c18 0 27-10.7 36.1-21.3c9-10.7 18-21.3 36-21.3c23 0 41.1 17.4 51.2 29.9l2 2.8-1 3.9c-11.5-9.8-30.7-9.5-45.8 1.7c-12.8 9.5-19.1 24.1-16.9 36.8l-2.2 2.2-7.1-9.6c-13.1-17.7-41.1-19.3-62.5-3.5c-21.4 15.8-28.1 43.1-14.9 60.8l3.9 5.3-3.9 4c-10.9-3.5-24.5-1.2-35.7 7.2c-17 12.6-19.9 36.1-9.7 50.3a216.3 216.3 0 0 1 -10.5 .3c-110.3 0-201-83.7-212.2-191C51.3 284.8 93.2 320 128 320"/></svg>