<svg xmlns="http://www.w3.org/2000/svg" viewBox="0 0 512 512"><!--!Font Awesome Pro 6.5.2 by @fontawesome - https://fontawesome.com License - https://fontawesome.com/license (Commercial License) Copyright 2024 Fonticons, Inc.--><path class="fa-secondary" opacity=".4" d="M42.7 149.8c0 40.6 27.3 74.7 64 83.5l0-19.9 0-.2c0-40.1 0-60.1 12.5-72.6C131.7 128 151.8 128 192 128l48 0 32 0 48 0 .3 0c40.1 0 60.1 0 72.6 12.5c6.3 6.3 9.4 14.4 10.9 26c.8 5.8 1.2 12.5 1.4 20.2c.1 3.9 .1 8 .2 12.4s0 9.1 0 14.2l0 19.9c36.7-8.9 64-42.9 64-83.5c0-47.4-37.1-85.8-83-85.8L125.7 64c-45.9 0-83 38.4-83 85.8zm64.1 212.9c.4 26.5 2.3 41.5 12.4 51.5c12.5 12.5 32.6 12.5 72.9 12.5l128 0c40.2 0 60.3 0 72.8-12.5c10-10 12-25 12.4-51.5l-298.5 0z"/><path class="fa-primary" d="M240 128H192c-40.2 0-60.3 0-72.8 12.5s-12.5 32.6-12.5 72.8v128c0 7.9 0 14.9 .1 21.3h298.5c.1-6.4 .1-13.5 .1-21.3v-128c0-40.2 0-60.3-12.5-72.8S360.2 128 320 128h-48v106.1l14.5-16.9a16 16 0 1 1 24.3 20.8l-42.7 49.8a16 16 0 0 1 -24.3 0L201.2 238a16 16 0 0 1 24.3-20.8l14.5 16.9z"/></svg>