<svg xmlns="http://www.w3.org/2000/svg" viewBox="0 0 512 512"><!--!Font Awesome Pro 6.5.2 by @fontawesome - https://fontawesome.com License - https://fontawesome.com/license (Commercial License) Copyright 2024 Fonticons, Inc.--><path class="fa-secondary" opacity=".4" d="M89.9 98.9c0 9.8 3.1 19.7 9.3 28c4.4 5.9 3.8 14.1-1.4 19.3l-2.5 2.5c-6.1 6.3-6 16.3 .2 22.4s16.2 6.3 22.4 .2l2.5-2.5c16.4-16.5 18.3-42.5 4.3-61.1c-4.4-5.9-3.8-14.1 1.4-19.3l2.5-2.5c6.2-6.2 6.2-16.4 0-22.6c-6.2-6.2-16.4-6.2-22.6 0l-2.5 2.5c-9.1 9.1-13.7 21-13.7 33.1zM202 31.4c-18 18-18 47.3 0 65.3c5.5 5.5 5.5 14.5 0 20.1c-5.9 6.3-5.7 16.1 .4 22.2s15.9 6.3 22.2 .4c18-18 18-47.3 0-65.3c-5.5-5.5-5.5-14.5 0-20.1c6.2-6.2 6.2-16.4 0-22.6c-3.1-3.1-7.2-4.7-11.3-4.7s-8.2 1.6-11.3 4.7zm91.4 133c1.4 5.7 5.9 10.1 11.5 11.5c1.3 .3 2.6 .5 4 .5c4.4 0 8.6-1.8 11.7-5.1l2.5-2.5c16.4-16.5 18.3-42.5 4.3-61.1c-4.4-5.9-3.8-14.1 1.4-19.3l2.5-2.5c6.2-6.2 6.2-16.4 0-22.6c-6.2-6.2-16.4-6.2-22.6 0l-2.5 2.5c-16.5 16.4-18.3 42.5-4.4 61.1c4.4 5.9 3.8 14.1-1.4 19.3l-2.5 2.5c-4.3 4-6 10-4.6 15.7z"/><path class="fa-primary" d="M48 253.4c-.2 3.8 .3 8.3 1.4 17.5l8.6 73.1A117.7 117.7 0 0 0 174.8 448h77.1a117.7 117.7 0 0 0 107.3-69.3h46.2a80 80 0 1 0 0-160h-48.6a42.6 42.6 0 0 0 -13.2-4.7c-3.7-.6-8.3-.6-17.5-.6H100.6c-9.2 0-13.8 0-17.5 .6A42.7 42.7 0 0 0 48 253.4m330.4-2.8c.1 .9 .2 1.9 .3 2.8c.2 3.8-.3 8.3-1.4 17.5l-8.6 73.1-.3 2.6h36.9a48 48 0 0 0 0-96z"/></svg>