<svg xmlns="http://www.w3.org/2000/svg" viewBox="0 0 512 512"><!--!Font Awesome Pro 6.5.2 by @fontawesome - https://fontawesome.com License - https://fontawesome.com/license (Commercial License) Copyright 2024 Fonticons, Inc.--><path class="fa-secondary" opacity=".4" d="M58.7 170.4l0 .3 0 282.7 277.3 0 0-74.7 0-32 0-176c0-60.3 0-90.5-18.8-109.2c-18.7-18.7-48.8-18.8-108.8-18.8l-.4 0-21.3 0c-60.3 0-90.5 0-109.2 18.8C58.7 80.1 58.7 110.2 58.7 170.4zm69.3 .3c0-20.1 0-30.2 6.3-36.4s16.3-6.3 36.4-6.3l64 0c20.1 0 30.2 0 36.4 6.3s6.3 16.3 6.3 36.4s0 30.2-6.3 36.4s-16.3 6.3-36.4 6.3l-64 0c-20.1 0-30.2 0-36.4-6.3s-6.3-16.3-6.3-36.4zm5.3 192c0-8.8 7.2-16 16-16l106.7 0c8.8 0 16 7.2 16 16s-7.2 16-16 16l-106.7 0c-8.8 0-16-7.2-16-16z"/><path class="fa-primary" d="M58.7 453.3H37.3a16 16 0 0 0 0 32H360a16 16 0 0 0 0-32H336zM170.7 128h64c20.1 0 30.2 0 36.4 6.3s6.3 16.3 6.3 36.4s0 30.2-6.3 36.4s-16.3 6.3-36.4 6.3h-64c-20.1 0-30.2 0-36.4-6.3s-6.3-16.3-6.3-36.4s0-30.2 6.3-36.4s16.3-6.3 36.4-6.3M149.3 346.7a16 16 0 0 0 0 32H256a16 16 0 0 0 0-32zm186.7 32h33.5c8 0 14.5 6.5 14.5 14.5v1.5a48 48 0 1 0 96 0V162.2c0-3.3 0-5.7-.1-7.9a80 80 0 0 0 -26.5-55.1 188.5 188.5 0 0 0 -6.1-5l-26.7-21.3a16 16 0 1 0 -20 25l26.3 21c3.1 2.5 4.1 3.3 5.1 4.2c9.5 8.5 15.2 20.4 15.9 33a130.1 130.1 0 0 1 .1 6.5v8.1h-16a32 32 0 0 0 -32 32v51.6a32 32 0 0 0 21.9 30.4l26.1 8.7v101.3a16 16 0 0 1 -32 0v-1.5a46.5 46.5 0 0 0 -46.5-46.5H336z"/></svg>