<svg xmlns="http://www.w3.org/2000/svg" viewBox="0 0 512 512"><!--!Font Awesome Pro 6.5.2 by @fontawesome - https://fontawesome.com License - https://fontawesome.com/license (Commercial License) Copyright 2024 Fonticons, Inc.--><path class="fa-secondary" opacity=".4" d="M42.7 427.9c.7 11.3 10 20.1 21.3 20.1l384 0 2.5-.1c10.8-1.3 18.8-10.4 18.8-21.2c0-.4 0-.8 0-1.3c-.7-11.3-10-20.1-21.3-20.1l-21.3 0 0-170.7-.1-3.2C424.9 209.2 406.3 192 384 192l-32 0-1.9 .2c-5.1 .9-8.7 5.3-8.7 10.5l0 202.7-21.3 0 0-298.7-.1-3.2C318.2 81.2 299.7 64 277.3 64L128 64l-3.2 .1c-22.3 1.7-39.5 20.2-39.5 42.6l0 298.7-21.3 0-2.5 .1c-11.2 1.3-19.4 11.2-18.8 22.4zM170.7 149.3l64 0 0 42.7-64 0 0-42.7zm0 85.3l64 0 0 42.7-64 0 0-42.7zm0 85.3l64 0 0 42.7-64 0 0-42.7z"/><path class="fa-primary" d="M234.7 149.3l-64 0 0 42.7 64 0 0-42.7zm0 85.3l-64 0 0 42.7 64 0 0-42.7zm0 85.3l-64 0 0 42.7 64 0 0-42.7z"/></svg>