<svg xmlns="http://www.w3.org/2000/svg" viewBox="0 0 512 512"><!--!Font Awesome Pro 6.5.2 by @fontawesome - https://fontawesome.com License - https://fontawesome.com/license (Commercial License) Copyright 2024 Fonticons, Inc.--><path class="fa-secondary" opacity=".4" d="M48 330.7c0 8.8 7.2 16 16 16l8.1 0c33.2 0 65.1-13.2 88.6-36.7c6.2-6.2 6.2-16.4 0-22.6c-3-3-7.1-4.7-11.3-4.7s-8.3 1.7-11.3 4.7c-17.5 17.5-41.2 27.3-65.9 27.3l-8.1 0c-8.8 0-16 7.2-16 16zM251.5 208.3c-1.3 4-1 8.4 .9 12.2s5.2 6.7 9.2 8c24.1 8 50.1 8 74.1 0c6.6-2.3 10.7-8.5 10.7-15.1c0-1.7-.3-3.4-.8-5.1c-2.8-8.3-11.7-12.8-20-10.2c-17.5 5.8-36.4 5.8-53.9 0c-8.4-2.8-17.4 1.7-20.2 10.1z"/><path class="fa-primary" d="M362.7 85.3a42.7 42.7 0 1 1 -85.3 0 42.7 42.7 0 0 1 85.3 0M154.8 115c15.7-9.8 35.3-11.4 52.3-4.1c36.8 15.8 46.1 63.8 17.7 92.1l-7 7c-1.4 1.4-2.8 2.8-4.1 4.2c-9.3 10.7-8.6 26.9 1.7 36.7c.6 .6 1.5 1.3 4.5 3.8l.2 .2c18.5 14.5 29.6 36.4 30.5 59.9c.1 1.5 .1 3.1 .1 5.3l0 21.1c0 8.8-7.2 16-16 16s-16-7.2-16-16l0-20.8c0-2.6 0-3.6 0-4.4c-.5-13-6.2-25.2-15.9-33.9c-1.3-1.1-2.5-2.2-3.8-3.2c-2-1.6-3.9-3.3-5.8-5c-22.5-21.6-24.1-57.1-3.7-80.7c1.4-1.6 3.1-3.3 5.3-5.5l.4-.4 7-7c8.8-8.9 9.6-22.9 1.8-32.7s-21.7-12.2-32.3-5.6l-67.3 42.1c-7.5 4.7-17.4 2.4-22-5.1s-2.4-17.4 5.1-22zm317.6 50a16 16 0 1 0 -6.3-31.4 93.4 93.4 0 0 0 -74.1 77.8l-23.7 158.3L61.9 423.3a23.2 23.2 0 0 0 4 46h349.9A53.6 53.6 0 1 0 406.5 363l-4.9 .9 22.1-147.7a61.4 61.4 0 0 1 48.7-51.2"/></svg>