<svg xmlns="http://www.w3.org/2000/svg" viewBox="0 0 512 512"><!--!Font Awesome Pro 6.5.2 by @fontawesome - https://fontawesome.com License - https://fontawesome.com/license (Commercial License) Copyright 2024 Fonticons, Inc.--><path class="fa-secondary" opacity=".4" d="M48 384a80 80 0 1 0 160 0A80 80 0 1 0 48 384zm128 0a48 48 0 1 1 -96 0 48 48 0 1 1 96 0zm128 0a80 80 0 1 0 160 0 80 80 0 1 0 -160 0zm128 0a48 48 0 1 1 -96 0 48 48 0 1 1 96 0z"/><path class="fa-primary" d="M362.7 85.3a42.7 42.7 0 1 1 -85.3 0 42.7 42.7 0 0 1 85.3 0M259.4 151.8l13.1 13c19.4 19.3 26.2 25.6 34.3 28.9c8.1 3.3 17.3 3.6 44.7 3.6l43.2 0c8.8 0 16 7.2 16 16s-7.2 16-16 16l-46.2 0c-23.1 0-39.2 0-53.9-6c-14.7-6.1-26.1-17.4-42.5-33.7l-2.2-2.1-12.3-12.2c-8.7-8.7-14.1-13.9-18.3-17.1c-1.2-1-2.5-1.8-3.9-2.3c-1.3 .8-2.4 1.8-3.5 3c-3.6 4-7.9 10.1-14.9 20.2l-26.2 37.7c-7.1 10.3-11.5 16.6-13.9 21.5c-.7 1.4-1.3 2.8-1.6 4.4c1.1 1.1 2.3 2.1 3.7 2.8c4.7 2.9 11.6 6 23.1 11l32.3 14.1c13.8 6.1 25.5 11.1 34.5 16.4c9.5 5.6 17.6 12.2 23 22.1c5.4 9.9 6.6 20.2 6.2 31.3c-.4 10.4-2.4 23-4.8 37.8l-1.4 8.6c-.8 5.7-4.6 10.6-10 12.7s-11.5 1.1-16-2.5s-6.6-9.5-5.6-15.2l1.2-7.7c2.6-16 4.2-26.7 4.6-35c.3-7.8-.7-11.7-2.3-14.6c-1.6-2.9-4.3-5.9-11.1-9.8c-7.1-4.2-17-8.5-31.9-15l-31.5-13.7-1-.4c-10.2-4.4-19.3-8.4-26.2-12.7c-7.4-4.6-14.7-11-17.6-21.3c-2.9-10.4-.1-19.6 3.8-27.4c3.6-7.2 9.3-15.4 15.6-24.5l.6-.9 26.2-37.7 .6-.9c6.2-9 11.8-17 17.2-22.8c5.9-6.3 13.4-12.2 24-13.1s19.1 3.4 26 8.6c6.4 4.7 13.3 11.6 21 19.3z"/></svg>