<svg xmlns="http://www.w3.org/2000/svg" viewBox="0 0 512 512"><!--!Font Awesome Pro 6.5.2 by @fontawesome - https://fontawesome.com License - https://fontawesome.com/license (Commercial License) Copyright 2024 Fonticons, Inc.--><path class="fa-secondary" opacity=".4" d="M85.3 167.3l0 252.5c0-1.4 .2-2.8 .6-4.4c.3-1.7 .9-3.3 1.5-4.9c2.7-7.3 3.9-8.5 6.2-10.8c6.9-6.8 16.5-11.9 27.4-14.2c6.2-1.3 14.3-1.5 37.4-1.5l268.2 0c0-72.2 0-144.5 0-216.7c0-34.1 0-57.9-2.4-75.8c-2.3-17.4-6.6-26.6-13.1-33.2c-6.5-6.6-15.7-10.8-32.9-13.2c-17.8-2.4-41.3-2.5-75.1-2.5l-94.2 0c-33.8 0-57.3 0-75.1 2.5c-17.3 2.3-26.4 6.6-32.9 13.2c-6.5 6.6-10.8 15.8-13.1 33.2c-2.4 17.9-2.4 41.7-2.4 75.8zm69.3-18c0-8.8 7.2-16 16-16l170.7 0c8.8 0 16 7.2 16 16s-7.2 16-16 16l-170.7 0c-8.8 0-16-7.2-16-16zm0 74.7c0-8.8 7.2-16 16-16l106.7 0c8.8 0 16 7.2 16 16s-7.2 16-16 16l-106.7 0c-8.8 0-16-7.2-16-16z"/><path class="fa-primary" d="M426.7 384H158.4c-23.1 0-31.2 .1-37.4 1.5c-10.9 2.3-20.5 7.4-27.4 14.2c-2.3 2.3-3.5 3.4-6.2 10.8c-2.7 7.3-2.3 10.4-1.4 16.6l.5 3.2c2.3 13.9 6.6 21.3 13.1 26.5c6.5 5.2 15.7 8.7 33.1 10.5c17.9 1.9 41.5 2 75.4 2h94.5c33.9 0 57.6 0 75.4-2c17.3-1.9 26.5-5.3 33.1-10.5c4.3-3.4 7.6-7.7 10-14.2H170.7a16 16 0 0 1 0-32h255.5c.4-7.7 .5-16.6 .5-26.7m-272-234.7a16 16 0 0 1 16-16h170.7a16 16 0 0 1 0 32H170.7a16 16 0 0 1 -16-16m16 58.7a16 16 0 0 0 0 32h106.7a16 16 0 0 0 0-32z"/></svg>