<svg xmlns="http://www.w3.org/2000/svg" viewBox="0 0 512 512"><!--!Font Awesome Pro 6.5.2 by @fontawesome - https://fontawesome.com License - https://fontawesome.com/license (Commercial License) Copyright 2024 Fonticons, Inc.--><path class="fa-secondary" opacity=".4" d="M85.3 192c.3-7 .7-12.1 1.6-16.6c6.7-33.9 33.2-60.3 67.1-67.1c8.2-1.6 18.1-1.6 38-1.6l128 0c19.8 0 29.7 0 38 1.6c33.9 6.7 60.3 33.2 67.1 67.1c.9 4.6 1.3 9.6 1.6 16.6l0 21.3c-23.6 0-42.7 19.1-42.7 42.7l0 25.6c0 9.4-7.6 17.1-17.1 17.1l-221.9 0c-4.5 0-8.9-1.8-12.1-5s-5-7.5-5-12.1l0-25.6c0-23.6-19.1-42.7-42.7-42.7l0-21.3z"/><path class="fa-primary" d="M393.5 384H118.5a76.2 76.2 0 0 1 -17.2-2v23.3a16 16 0 0 1 -32 0v-39.4A75.7 75.7 0 0 1 42.7 308.1V256a42.7 42.7 0 1 1 85.3 0v25.6a17.1 17.1 0 0 0 17.1 17.1h221.9a17.1 17.1 0 0 0 17.1-17.1V256a42.7 42.7 0 1 1 85.3 0v52.1a75.7 75.7 0 0 1 -26.7 57.7v39.4a16 16 0 0 1 -32 0V382a76.2 76.2 0 0 1 -17.2 2"/></svg>