<svg xmlns="http://www.w3.org/2000/svg" viewBox="0 0 512 512"><!--!Font Awesome Pro 6.5.2 by @fontawesome - https://fontawesome.com License - https://fontawesome.com/license (Commercial License) Copyright 2024 Fonticons, Inc.--><path class="fa-secondary" opacity=".4" d="M128 406.2c0 22.2 17.4 41.1 40 41.8c6 .2 15.5-2.4 34.3-7.6c10.8-3 16.2-4.5 21.5-5.5c21.2-4.3 43-4.3 64.2 0c7.2 1.6 14.4 3.5 21.5 5.5c18.3 5 27.7 7.6 33.8 7.6c.2 0 .4 0 .6 0c22.7-.7 40-19.6 40-41.8c0-2.4-.2-4.8-.6-7.3c-1-6.1-5.4-15-14.1-32.7L350.5 328c-33.8-68.9-50.8-103.3-75.1-111.5c-6.3-2.1-12.9-3.2-19.4-3.2s-13.1 1.1-19.4 3.2c-24.3 8.2-41.3 42.6-75.1 111.5l-18.7 38.2c-8.7 17.8-13.1 26.7-14.1 32.7c-.4 2.4-.6 4.9-.6 7.2z"/><path class="fa-primary" d="M131.1 117.9c8.8 34.8 33.6 58 55.5 51.8c21.9-6.2 32.5-39.5 23.7-74.2c-8.8-34.8-33.6-58-55.5-51.8c-21.9 6.2-32.5 39.5-23.7 74.2m249.8 0c-8.8 34.8-33.6 58-55.5 51.8c-21.9-6.2-32.5-39.5-23.7-74.2c8.8-34.8 33.6-58 55.5-51.8c21.9 6.2 32.5 39.5 23.7 74.2M47 262.3c9.6 25.7 32.2 41.3 50.4 34.9s25.2-32.5 15.6-58.2c-9.6-25.7-32.2-41.3-50.4-34.9s-25.2 32.5-15.6 58.2m418 0c-9.6 25.7-32.2 41.3-50.4 34.9s-25.2-32.5-15.6-58.2c9.6-25.7 32.2-41.3 50.4-34.9s25.2 32.5 15.6 58.2"/></svg>