<svg xmlns="http://www.w3.org/2000/svg" viewBox="0 0 512 512"><!--!Font Awesome Pro 6.5.2 by @fontawesome - https://fontawesome.com License - https://fontawesome.com/license (Commercial License) Copyright 2024 Fonticons, Inc.--><path class="fa-secondary" opacity=".4" d="M42.7 394.7c0-39.4 87-71.6 197.3-74.5l0 63.8c0 8.8 7.2 16 16 16s16-7.2 16-16l0-63.8c110.3 2.9 197.3 35.1 197.3 74.5c0 41.2-95.5 74.7-213.3 74.7s-213.3-33.4-213.3-74.7z"/><path class="fa-primary" d="M256 26.7a16 16 0 0 1 16 16v22.1l106.8 53.4 1.2 .6c15.7 7.8 29 14.5 38.3 21c9.4 6.6 19.3 16.1 19.3 30.9c0 14.8-9.9 24.3-19.3 30.9c-9.3 6.5-22.7 13.2-38.3 21l-108 54V384a16 16 0 0 1 -32 0V42.7a16 16 0 0 1 16-16"/></svg>