<svg xmlns="http://www.w3.org/2000/svg" viewBox="0 0 512 512"><!--!Font Awesome Pro 6.6.0 by @fontawesome - https://fontawesome.com License - https://fontawesome.com/license (Commercial License) Copyright 2024 Fonticons, Inc.--><path class="fa-secondary" opacity=".4" d="M42.7 256c0 39.5 10.7 76.4 29.4 108.1c8.8-4.9 19.1-7.7 30-7.7c3.9 0 7.8 .4 11.5 1.1c-3.2-8.1-4.9-17-4.9-26.2c0-41.6 35.5-75.3 79.2-75.3c10.4 0 20.4 1.9 29.5 5.4c-16-22.6-25.4-50.2-25.4-80.1c0-50.4 26.9-94.5 67.1-118.8c8.4-5.1 6.8-19.9-3.1-19.9C138.2 42.7 42.7 138.2 42.7 256zm204 213.1c3.1 .1 6.2 .2 9.4 .2c117.8 0 213.3-95.5 213.3-213.3c0-9.9-14.8-11.5-19.9-3.1C425.1 293.1 381 320 330.7 320c-25.6 0-49.6-6.9-70.2-19.1c3.2 6.8 5.3 14.2 6.2 21.9c31 10.2 53.3 38.2 53.3 71.2c0 39.7-32.3 72.2-73.4 75.1z"/><path class="fa-primary" d="M240.8 469.3c43.8 0 79.2-33.7 79.2-75.3c0-33-22.3-61-53.3-71.2c-4.4-37.6-38-66.9-78.7-66.9c-43.8 0-79.2 33.7-79.2 75.3c0 9.2 1.7 18 4.9 26.2c-3.7-.7-7.6-1.1-11.5-1.1c-32.8 0-59.4 25.3-59.4 56.5s26.6 56.5 59.4 56.5H240.8z"/></svg>