<svg xmlns="http://www.w3.org/2000/svg" viewBox="0 0 512 512"><!--!Font Awesome Pro 6.6.0 by @fontawesome - https://fontawesome.com License - https://fontawesome.com/license (Commercial License) Copyright 2024 Fonticons, Inc.--><path class="fa-secondary" opacity=".4" d="M42.7 170.3l0 .4 0 85.3c0 60.3 0 90.5 18.7 109.3c10.2 10.2 23.7 14.8 43.5 16.9c1.6-2.1 3.1-3.8 4.1-5c2.5-2.7 5.6-5.8 8.7-8.8L149.6 337l11.8-11.9c7.7-45.3 47.1-79.7 94.6-79.7s86.9 34.5 94.6 79.7L362.4 337l31.9 31.4c3 3 6.2 6.1 8.7 8.8c1.1 1.2 2.6 2.9 4.1 5c19.9-2.1 33.4-6.8 43.5-16.9c18.7-18.7 18.7-48.9 18.7-109.3l0-85.3c0-60.3 0-90.5-18.7-109.3c-18.7-18.7-48.8-18.7-109-18.7l-.3 0-170.7 0c-60.3 0-90.5 0-109.3 18.7C42.7 80.1 42.7 110.2 42.7 170.3zm90.7 32.4c0-8.8 7.2-16 16-16l213.3 0c8.8 0 16 7.2 16 16s-7.2 16-16 16l-213.3 0c-8.8 0-16-7.2-16-16zM176 128c0-8.8 7.2-16 16-16l128 0c8.8 0 16 7.2 16 16s-7.2 16-16 16l-128 0c-8.8 0-16-7.2-16-16z"/><path class="fa-primary" d="M149.3 186.7c-8.8 0-16 7.2-16 16s7.2 16 16 16H362.7c8.8 0 16-7.2 16-16s-7.2-16-16-16H149.3zM176 128c0-8.8 7.2-16 16-16H320c8.8 0 16 7.2 16 16s-7.2 16-16 16H192c-8.8 0-16-7.2-16-16zm16 211.6c0 .6 0 1.2 0 1.8c0 35.3 28.7 64 64 64s64-28.7 64-64c0-.6 0-1.2 0-1.8c-.9-34.5-29.2-62.2-64-62.2c-33.1 0-60.4 25.2-63.7 57.5c-.2 1.6-.3 3.2-.3 4.8zM163.7 368l-23.1 22.7c-6.9 6.8-10.4 10.2-11.6 13.1c-2.7 6.6-.4 13.9 5.5 17.3c2.6 1.5 7.3 2 16.7 2.9c5.3 .5 8 .8 10.2 1.6c5 1.8 8.8 5.6 10.7 10.5c.8 2.2 1.1 4.8 1.6 10c1 9.3 1.4 13.9 3 16.5c3.5 5.9 10.9 8.2 17.6 5.5c2.9-1.2 6.4-4.6 13.3-11.4l23-22.8c-32.3-8.8-57.8-33.9-67-66zm117.5 66l23 22.8c6.9 6.8 10.4 10.2 13.3 11.4c6.7 2.7 14.1 .4 17.6-5.5c1.5-2.6 2-7.2 3-16.5c.5-5.2 .8-7.8 1.6-10c1.8-4.9 5.7-8.7 10.7-10.5c2.2-.8 4.9-1.1 10.2-1.6c9.4-.9 14.1-1.4 16.7-2.9c5.9-3.5 8.3-10.8 5.5-17.3c-1.2-2.9-4.7-6.3-11.6-13.1L348.3 368c-9.2 32.1-34.8 57.2-67 66z"/></svg>