<svg xmlns="http://www.w3.org/2000/svg" viewBox="0 0 512 512"><!--!Font Awesome Pro 6.6.0 by @fontawesome - https://fontawesome.com License - https://fontawesome.com/license (Commercial License) Copyright 2024 Fonticons, Inc.--><path class="fa-secondary" opacity=".4" d="M58.7 274c0 4.8 0 9.4 0 13.9c0 .4 0 .8 0 1.2c0 4.5 .1 8.9 .1 13.1l0 1.1c0 4.3 .1 8.4 .2 12.4l0 .9c.1 4.1 .2 8 .3 11.8c0 .4 0 .8 0 1.2c.1 1.5 .1 3 .2 4.5c0 .4 0 .7 0 1.1c.1 1.5 .1 3 .2 4.4c0 .5 .1 1.1 .1 1.6c.1 1.5 .2 3 .2 4.5c0 .3 0 .6 .1 .8c.1 1.5 .2 2.9 .3 4.4c0 .3 0 .7 .1 1c.1 1.5 .2 2.9 .3 4.3l0 .3c.1 1.6 .3 3.2 .4 4.8c.7 6.6 1.5 12.7 2.5 18.4c3.9 22.1 10.6 36.3 21.4 47.1c12.2 12.2 28.6 19.1 55.9 22.8c27.7 3.7 64.2 3.8 114.9 3.8s87.2 0 114.9-3.8c27.3-3.7 43.7-10.6 55.9-22.8c4.5-4.5 8.1-9.4 11.2-15.1c.6-1 1.1-2.1 1.6-3.2l-60.4-54.3c-22.2-20-55.2-21.9-79.6-4.8l-6.4 4.5c-17 11.9-40 9.9-54.7-4.7L147 257.5c-18.3-18.3-47.6-19.2-67-2.2L58.7 274z"/><path class="fa-primary" d="M298.7 170.7a42.7 42.7 0 1 1 85.3 0 42.7 42.7 0 1 1 -85.3 0zm-43.9-144l2.4 0c49.2 0 87.8 0 117.9 4c30.8 4.1 55.1 12.8 74.2 31.9s27.7 43.4 31.9 74.2c4 30.1 4 68.7 4 117.9l0 1.9c0 40.7 0 74.1-2.2 101.2c-2.2 27.3-6.8 50.1-17 69c-4.5 8.3-10 15.8-16.7 22.6c-19.1 19.1-43.4 27.7-74.2 31.9c-30.1 4-68.7 4-117.9 4l-2.4 0c-49.2 0-87.8 0-117.9-4c-30.8-4.1-55.1-12.8-74.2-31.9c-16.9-16.9-25.7-38-30.3-64.1c-4.6-25.7-5.4-57.6-5.6-97.3c0-10.1 0-20.8 0-32l0-1.2c0-49.2 0-87.8 4-117.9C34.9 106 43.5 81.7 62.6 62.6S106 34.9 136.8 30.7c30.1-4 68.7-4 117.9-4zM141.1 62.4c-27.3 3.7-43.7 10.6-55.9 22.8s-19.1 28.6-22.8 55.9c-3.7 27.7-3.8 64.2-3.8 114.9c0 11.3 0 21.9 0 31.9c.2 40 1.1 69.2 5.1 91.8c3.9 22.1 10.6 36.3 21.4 47.1c12.2 12.2 28.6 19.1 55.9 22.8c27.7 3.7 64.2 3.8 114.9 3.8s87.2 0 114.9-3.8c27.3-3.7 43.7-10.6 55.9-22.8c4.5-4.5 8.1-9.4 11.2-15.1c7.1-13.1 11.2-30.7 13.3-56.4c2.1-25.7 2.1-57.7 2.1-99.3c0-50.7 0-87.2-3.8-114.9c-3.7-27.3-10.6-43.7-22.8-55.9s-28.6-19.1-55.9-22.8c-27.7-3.7-64.2-3.8-114.9-3.8s-87.2 0-114.9 3.8z"/></svg>