<svg xmlns="http://www.w3.org/2000/svg" viewBox="0 0 512 512"><!--!Font Awesome Pro 6.6.0 by @fontawesome - https://fontawesome.com License - https://fontawesome.com/license (Commercial License) Copyright 2024 Fonticons, Inc.--><path class="fa-secondary" opacity=".4" d="M42.7 298.7c0-80.5 0-120.7 25-145.7c14.2-14.2 33.4-20.4 62.2-23c18.7-1.7 41.4-1.9 69.5-2c4.4 0 8.9 0 13.5 0l.5 0 85.3 0c80.5 0 120.7 0 145.7 25c24.9 24.9 25 65.1 25 145.2l0 .5c0 80.5 0 120.7-25 145.7c-24.9 24.9-65.1 25-145.2 25l-.5 0-85.3 0c-80.5 0-120.7 0-145.7-25s-25-65.2-25-145.7zm64-64c0 23.6 19.1 42.7 42.7 42.7l154.7 0 0-32c0-8.8 7.2-16 16-16s16 7.2 16 16l0 32 26.7 0c23.6 0 42.7-19.1 42.7-42.7s-19.1-42.7-42.7-42.7l-213.3 0c-23.6 0-42.7 19.1-42.7 42.7zm5.3 128a48 48 0 1 0 96 0 48 48 0 1 0 -96 0zm64 0a16 16 0 1 1 -32 0 16 16 0 1 1 32 0zm85.3 0c0 8.8 7.2 16 16 16l106.7 0c8.8 0 16-7.2 16-16s-7.2-16-16-16l-106.7 0c-8.8 0-16 7.2-16 16z"/><path class="fa-primary" d="M160 346.7a16 16 0 1 0 0 32 16 16 0 1 0 0-32zm48 16a48 48 0 1 1 -96 0 48 48 0 1 1 96 0zM149.3 192c-23.6 0-42.7 19.1-42.7 42.7s19.1 42.7 42.7 42.7H304v-32c0-8.8 7.2-16 16-16s16 7.2 16 16v32h26.7c23.6 0 42.7-19.1 42.7-42.7s-19.1-42.7-42.7-42.7H149.3zm112 170.7c0-8.8 7.2-16 16-16l106.7 0c8.8 0 16 7.2 16 16s-7.2 16-16 16l-106.7 0c-8.8 0-16-7.2-16-16zm66.4-306c7.7-4.3 10.5-14 6.2-21.8s-14-10.5-21.8-6.2L129.9 130c18.7-1.7 41.4-1.9 69.5-2L327.8 56.7z"/></svg>