<svg xmlns="http://www.w3.org/2000/svg" viewBox="0 0 512 512"><!--!Font Awesome Pro 6.6.0 by @fontawesome - https://fontawesome.com License - https://fontawesome.com/license (Commercial License) Copyright 2024 Fonticons, Inc.--><path class="fa-secondary" opacity=".4" d="M26.7 206.7c0 2.4 .5 4.8 1.7 7.1c3.9 7.9 13.5 11.2 21.4 7.3c67.2-33.2 134.4-66.5 201.6-99.7c9.3-4.6 18.5-9.2 27.8-13.8c.5 1.1 1 2.1 1.6 3.2s1.2 2.3 1.9 3.5c7.2 13.2 19.4 31 39.7 52.8c-17.9 17.9-35.8 35.8-53.7 53.7C210.8 278.5 153.1 336.3 95.4 394c-6.2 6.2-6.2 16.4 0 22.6s16.4 6.2 22.6 0c57.7-57.7 115.5-115.5 173.2-173.2c17.9-17.9 35.8-35.8 53.7-53.8c21.8 20.3 39.6 32.4 52.8 39.7c2.4 1.3 4.6 2.5 6.7 3.5c-4.6 9.3-9.2 18.5-13.7 27.8C357.5 327.8 324.2 395 291 462.2c-3.9 7.9-.7 17.5 7.2 21.4c2.3 1.1 4.7 1.7 7.1 1.7c5.9 0 11.6-3.3 14.4-8.9c41.5-83.9 83-167.9 124.5-251.8c2.2-4.4 4.4-8.9 6.6-13.3c-5.9-.9-11.9-1.7-17.8-2.6c-1.2-.2-2.5-.4-3.7-.5c-.6-.1-1.5-.4-2.8-.8c-2.7-.9-7.1-2.7-13.3-6.1c-12.4-6.8-31.7-20-57-45.4s-38.6-44.7-45.4-57c-3.4-6.2-5.2-10.6-6.1-13.3c-.2-.6-.4-1.1-.5-1.4c-.1-.4-.2-.7-.3-1c0-.1 0-.2-.1-.4c-1.1-7.3-2.1-14.4-3.1-21.6c-4.4 2.2-8.9 4.4-13.3 6.6L35.6 192.3c-5.6 2.8-8.9 8.5-8.9 14.4z"/><path class="fa-primary" d="M444.2 224.6l6.6-13.3-21.6-3.1-.2 0c-.4-.1-1.3-.3-2.6-.8c-2.7-.9-7.1-2.7-13.3-6.1c-12.4-6.8-31.7-20-57-45.4s-38.6-44.7-45.4-57c-3.4-6.2-5.2-10.7-6.1-13.3c-.5-1.3-.7-2.2-.8-2.6l0-.2-3.1-21.6-13.3 6.6c43.8-35.9 108.5-33.4 149.3 7.5c40.8 40.8 43.4 105.5 7.5 149.3zm-53.5 36.1l13.7-27.8c-2.1-1-4.3-2.2-6.7-3.5c-13.2-7.2-30.9-19.4-52.8-39.7l-53.7 53.7c29 21.7 66.2 27.4 99.5 17.2zM268.6 220.8l53.7-53.7c-20.3-21.8-32.5-39.6-39.7-52.8c-1.3-2.4-2.5-4.6-3.5-6.7l-27.8 13.8c-10.2 33.3-4.5 70.5 17.2 99.5z"/></svg>