<svg xmlns="http://www.w3.org/2000/svg" viewBox="0 0 512 512"><!--!Font Awesome Pro 6.6.0 by @fontawesome - https://fontawesome.com License - https://fontawesome.com/license (Commercial License) Copyright 2024 Fonticons, Inc.--><path class="fa-secondary" opacity=".4" d="M26.7 464.5c0 1.2 .1 2.4 .4 3.7c2 8.6 10.6 13.9 19.2 11.9c42-9.9 62.3-35.7 78.1-60.3c1.1-1.7 2.6-2.4 4.2-2.4c1.7 0 3.7 .7 5.2 2.7c23.7 30.4 61.5 65.4 122.1 65.4c58.9 0 96.8-27.1 121.7-60.4c1.9-2.5 4.6-3.7 7.1-3.8c2.4 0 4.2 .9 5.4 2.7c15.5 23.4 35.9 46.8 75.4 56.1c8.6 2 17.2-3.3 19.2-11.9c.3-1.2 .4-2.5 .4-3.7c0-7.3-5-13.8-12.3-15.6c-28.2-6.7-42.7-22.5-56-42.6c-16.1-24.4-49.5-21-64.9-.5c-20 26.7-49 47.6-96.1 47.6c-46.3 0-75.8-26-96.9-53.1c-15.6-19.9-47-20.7-61.6 2.2C83.4 424.6 68.9 441.9 39 448.9c-7.4 1.7-12.3 8.3-12.3 15.6zM93.9 93.8c-6.2 6.2-6.2 16.4 0 22.6l8.4 8.4c6.2 6.2 16.4 6.2 22.6 0s6.2-16.4 0-22.6l-8.4-8.4c-6.2-6.2-16.4-6.2-22.6 0zm293.3 8.4c-6.2 6.2-6.2 16.4 0 22.6s16.4 6.2 22.6 0l8.4-8.4c6.2-6.2 6.2-16.4 0-22.6s-16.4-6.2-22.6 0l-8.4 8.4z"/><path class="fa-primary" d="M256 26.7c8.8 0 16 7.2 16 16L272 64c0 8.8-7.2 16-16 16s-16-7.2-16-16l0-21.3c0-8.8 7.2-16 16-16zM26.7 256c0-8.8 7.2-16 16-16L64 240c8.8 0 16 7.2 16 16s-7.2 16-16 16l-21.3 0c-8.8 0-16-7.2-16-16zM432 256c0-8.8 7.2-16 16-16l21.3 0c8.8 0 16 7.2 16 16s-7.2 16-16 16L448 272c-8.8 0-16-7.2-16-16zm41 86.2c-28.2-6.7-42.7-22.5-56-42.6c-8.7-13.2-22.5-18.3-35.8-16.9c1.8-8.6 2.8-17.6 2.8-26.7c0-70.7-57.3-128-128-128s-128 57.3-128 128c0 7.7 .7 15.3 2 22.6c-12.3-.5-24.7 5-32.5 17.2C83.4 317.9 68.9 335.2 39 342.2c-8.6 2-13.9 10.6-11.9 19.2s10.6 13.9 19.2 11.9c42-9.9 62.3-35.7 78.1-60.3c1.1-1.7 2.6-2.4 4.2-2.4c1.7 0 3.7 .7 5.2 2.7c23.7 30.4 61.5 65.4 122.1 65.4c58.9 0 96.8-27.1 121.7-60.4c1.9-2.5 4.6-3.7 7.1-3.8c2.4 0 4.2 .9 5.4 2.7c15.5 23.4 35.9 46.8 75.4 56.1c8.6 2 17.2-3.3 19.2-11.9s-3.3-17.2-11.9-19.2z"/></svg>