<svg xmlns="http://www.w3.org/2000/svg" viewBox="0 0 512 512"><!--!Font Awesome Pro 6.6.0 by @fontawesome - https://fontawesome.com License - https://fontawesome.com/license (Commercial License) Copyright 2024 Fonticons, Inc.--><path class="fa-secondary" opacity=".4" d="M48 352.5c0 4.1 1.6 8.2 4.7 11.3c6.3 6.3 12.8 11.8 19.5 16.6c7.2 5.2 17.2 3.5 22.3-3.7s3.5-17.2-3.7-22.3c-5.3-3.8-10.5-8.2-15.6-13.3c-6.2-6.2-16.4-6.2-22.6 0c-3.1 3.1-4.7 7.2-4.7 11.3zM107.4 383c-2.2 8.6 3 17.3 11.6 19.4c17.2 4.3 34.6 5.1 51.5 3.1c8.8-1 15-9 14-17.8s-9-15-17.8-14c-13.4 1.6-26.8 1-39.9-2.3c-8.6-2.2-17.3 3-19.4 11.6zm84-155.6c-1.4 4.9-.3 9.9 2.4 13.7c1.5-6.1 3.8-11.8 6.8-17.1c-.9-5 .6-10.3 4.4-14.1c7.2-7.2 15.3-12.6 24-16.3c4.2-1.8 8.8-1.6 12.7 .1c.6-.1 1.2-.3 1.8-.4c.8-5.6-1.4-11.3-6.2-15c-7.1-5.3-17.1-3.9-22.4 3.1c-10.8 14.3-19.1 30-23.6 45.9zM198 383.7c3.6 8.1 13 11.8 21.1 8.2c15.4-6.8 29.8-15.6 42.7-25.7c7-5.5 8.2-15.5 2.7-22.5s-15.5-8.2-22.5-2.7c-10.9 8.6-23.1 16-35.9 21.6c-8.1 3.6-11.8 13-8.2 21.1zm49.4-215.4c5.5 7 15.5 8.2 22.5 2.7c10.9-8.6 23.1-16 35.9-21.6c8.1-3.6 11.8-13 8.2-21.1s-13-11.8-21.1-8.2c-15.4 6.8-29.8 15.6-42.7 25.7c-7 5.5-8.2 15.5-2.7 22.5zm21 150.5c-.8 5.6 1.4 11.3 6.2 15c7.1 5.3 17.1 3.9 22.4-3.1c10.8-14.3 19.1-30 23.6-45.9c1.4-4.9 .3-9.9-2.4-13.7c-1.5 6.1-3.8 11.8-6.8 17.1c.9 5-.6 10.3-4.4 14.1c-7.2 7.2-15.3 12.6-24 16.3c-4.2 1.8-8.8 1.6-12.7-.1c-.6 .1-1.2 .3-1.8 .4zm59.2-194.5c1 8.8 9 15 17.8 14c13.4-1.6 26.8-1 39.9 2.3c8.6 2.2 17.3-3 19.4-11.6s-3-17.3-11.6-19.4c-11.2-2.8-22.6-4.1-33.8-4.1c-5.9 0-11.8 .4-17.7 1.1c-8.8 1-15 9-14 17.8zm89.9 10.9c-5.2 7.2-3.5 17.2 3.7 22.3c5.3 3.8 10.5 8.2 15.6 13.3c6.2 6.2 16.4 6.2 22.6 0s6.2-16.4 0-22.6c-6.3-6.3-12.8-11.8-19.5-16.6c-7.2-5.2-17.2-3.5-22.3 3.7z"/><path class="fa-primary" d="M131.5 72.2c-5.2 7.2-3.5 17.2 3.7 22.3s17.2 3.5 22.3-3.7c3.8-5.3 8.2-10.5 13.3-15.6c6.2-6.2 6.2-16.4 0-22.6s-16.4-6.2-22.6 0c-6.3 6.3-11.8 12.8-16.6 19.5zm-7.2 112.2c-8.8 1-16.7-5.2-17.8-14c-2-16.9-1.3-34.3 3.1-51.5c2.2-8.6 10.9-13.8 19.4-11.6s13.8 10.9 11.6 19.4c-3.3 13.1-3.9 26.5-2.3 39.9c1 8.8-5.2 16.7-14 17.8zm21.5 77.4c5.5 7 15.5 8.2 22.5 2.7s8.2-15.5 2.7-22.5c-8.6-10.9-16-23.1-21.6-35.9c-3.6-8.1-13-11.8-21.1-8.2s-11.8 13-8.2 21.1c6.8 15.4 15.6 29.8 25.7 42.7zM241 318.2c-3.8 2.7-8.8 3.8-13.7 2.4c-16-4.5-31.6-12.8-45.9-23.6c-7.1-5.3-8.5-15.4-3.1-22.4c3.6-4.8 9.4-7 14.9-6.2c-.8-4-1.2-8.1-1.2-12.4c0-11.7 3.1-22.7 8.6-32.1c-.9-5 .6-10.3 4.4-14.1c7.2-7.2 15.3-12.6 24-16.3c4.2-1.8 8.8-1.6 12.7 .1c4.6-1 9.3-1.6 14.2-1.6c5.2 0 10.2 .6 15 1.8c3.8-2.7 8.8-3.8 13.7-2.4c16 4.5 31.6 12.8 45.9 23.6c7.1 5.3 8.5 15.4 3.1 22.4c-3.6 4.8-9.4 7-15 6.2c.8 4 1.2 8.1 1.2 12.4c0 11.7-3.1 22.7-8.6 32.1c.9 5-.6 10.3-4.4 14.1c-7.2 7.2-15.3 12.6-24 16.3c-4.2 1.8-8.8 1.6-12.7-.1c-4.6 1-9.3 1.6-14.2 1.6c-5.2 0-10.2-.6-15-1.8zm102.7-70.8c7-5.5 17-4.2 22.5 2.7c10.1 12.9 18.9 27.4 25.7 42.7c3.6 8.1-.1 17.5-8.2 21.1s-17.5-.1-21.1-8.2c-5.6-12.8-13-25-21.6-35.9c-5.5-7-4.2-17 2.7-22.5zm61.7 94.2c-1-8.8-9-15-17.8-14s-15 9-14 17.8c1.6 13.4 1 26.8-2.3 39.9c-2.2 8.6 3 17.3 11.6 19.4s17.3-3 19.4-11.6c4.3-17.2 5.1-34.6 3.1-51.5zm-28.6 75.9c7.2 5.2 8.8 15.2 3.7 22.3c-4.8 6.7-10.4 13.2-16.6 19.5c-6.2 6.2-16.4 6.2-22.6 0s-6.2-16.4 0-22.6c5.1-5.1 9.5-10.3 13.3-15.6c5.2-7.2 15.2-8.8 22.3-3.7z"/></svg>