<svg xmlns="http://www.w3.org/2000/svg" viewBox="0 0 512 512"><!--!Font Awesome Pro 6.6.0 by @fontawesome - https://fontawesome.com License - https://fontawesome.com/license (Commercial License) Copyright 2024 Fonticons, Inc.--><path class="fa-secondary" opacity=".4" d="M183.3 240l145.4 0c-.7-19.8-2.9-39.2-6.3-57.5c-4.4-23.2-10.7-44.1-18.5-61.3C296 103.9 287.1 91.1 278.3 83c-8.8-8.1-16.4-10.6-22.3-10.6s-13.4 2.5-22.3 10.6c-8.9 8.1-17.8 20.9-25.6 38.2c-7.8 17.2-14.1 38-18.5 61.3c-3.4 18.3-5.6 37.7-6.3 57.5zm0 32c.7 19.8 2.9 39.2 6.3 57.5c4.4 23.2 10.7 44.1 18.5 61.3c7.9 17.3 16.7 30.1 25.6 38.2c8.8 8.1 16.4 10.6 22.3 10.6s13.4-2.5 22.3-10.6c8.9-8.1 17.8-20.9 25.6-38.2c7.8-17.2 14.1-38 18.5-61.3c3.4-18.3 5.6-37.7 6.3-57.5l-145.4 0z"/><path class="fa-primary" d="M43.3 240C51.4 129.7 143.6 42.7 256 42.7c-17.7 0-33.5 7.8-46.5 19.7c-12.9 11.8-23.8 28.3-32.7 47.8c-8.9 19.6-15.8 42.6-20.4 67.5c-3.7 20-6 41-6.8 62.4L43.3 240zm0 32l106.4 0c.8 21.4 3 42.4 6.8 62.4c4.7 24.9 11.6 47.9 20.4 67.5c8.8 19.5 19.7 36 32.7 47.8c13 11.9 28.8 19.7 46.5 19.7c-112.4 0-204.6-87-212.7-197.3zM256 42.7c17.7 0 33.5 7.8 46.5 19.7c12.9 11.8 23.8 28.3 32.7 47.8c8.9 19.6 15.8 42.6 20.5 67.5c3.7 20 6 41 6.8 62.4H468.7C460.6 129.7 368.4 42.7 256 42.7zm99.6 291.7c-4.7 24.9-11.6 47.9-20.5 67.5c-8.8 19.5-19.7 36-32.7 47.8c-13 11.9-28.8 19.7-46.5 19.7c112.4 0 204.6-87 212.7-197.3H362.4c-.8 21.4-3 42.4-6.8 62.4z"/></svg>