<svg xmlns="http://www.w3.org/2000/svg" viewBox="0 0 512 512"><!--!Font Awesome Pro 6.6.0 by @fontawesome - https://fontawesome.com License - https://fontawesome.com/license (Commercial License) Copyright 2024 Fonticons, Inc.--><path class="fa-secondary" opacity=".4" d="M42.7 106.7l0 42.7c16.4 6.8 38 12.6 64 12.6s47.6-5.8 64-12.6l0-42.7c0-35.3-28.7-64-64-64s-64 28.7-64 64zM256 112l42.6 0c8.8 0 16 7.2 16 16s-7.2 16-16 16L256 144l0 32 64 0c8.8 0 16 7.2 16 16s-7.2 16-16 16l-64 0 0 32 42.7 0c8.8 0 16 7.2 16 16s-7.2 16-16 16L256 272l0 32 64 0c8.8 0 16 7.2 16 16s-7.2 16-16 16l-64 0 0 32 42.7 0c8.8 0 16 7.2 16 16s-7.2 16-16 16L256 400c.2 29.8 1.7 46.1 12.5 56.8c12.5 12.5 32.6 12.5 72.8 12.5l42.7 0 .2 0c40.1 0 60.1 0 72.6-12.5c12.5-12.5 12.5-32.6 12.5-72.8l0-256 0-.2c0-40.1 0-60.1-12.5-72.6C444.3 42.7 424.2 42.7 384 42.7l-42.7 0-.3 0c-40 0-60.1 0-72.6 12.5c-10.7 10.7-12.2 27-12.5 56.8z"/><path class="fa-primary" d="M320 176H256v32h64c8.8 0 16-7.2 16-16s-7.2-16-16-16zm-21.3-64L256 112l0 32h42.7c8.8 0 16-7.2 16-16s-7.2-16-16-16zm0 128H256v32h42.7c8.8 0 16-7.2 16-16s-7.2-16-16-16zM320 304l-64 0v32l64 0c8.8 0 16-7.2 16-16s-7.2-16-16-16zm-21.3 64H256l0 32h42.6c8.8 0 16-7.2 16-16s-7.2-16-16-16zm-128-48.4l0-170.2c-16.4 6.8-38 12.6-64 12.6s-47.6-5.8-64-12.6l0 170.2c0 13.3 0 19.9 .8 26.4c1 7.7 2.7 15.3 5.3 22.6c2.2 6.2 5.2 12.1 11.1 24l31.3 62.7c2.9 5.8 8.9 9.5 15.4 9.5s12.5-3.7 15.4-9.5l31.3-62.7c5.9-11.9 8.9-17.8 11.1-24c2.6-7.3 4.4-14.9 5.3-22.6c.8-6.5 .8-13.2 .8-26.4z"/></svg>