<svg xmlns="http://www.w3.org/2000/svg" viewBox="0 0 512 512"><!--!Font Awesome Pro 6.6.0 by @fontawesome - https://fontawesome.com License - https://fontawesome.com/license (Commercial License) Copyright 2024 Fonticons, Inc.--><path class="fa-secondary" opacity=".4" d="M42.7 218.7c-.1 11.6-.1 24-.1 37.3c0 100.6 0 150.9 31.2 182.1c21.6 21.6 52.2 28.2 102.1 30.3c5.3 .3 10.7 .6 16 .9l0-21.3 0-229.3c0-5.3 0-10.7 0-16l16 0 261.3 0c-.2-5.3-.4-10.7-.6-16c-1.6-56.3-7.6-89.7-30.7-112.8C406.8 42.7 356.6 42.7 256 42.7l-.7 0c-100.1 0-150.2 .1-181.4 31.2c-23 23-29.1 56.5-30.7 112.8c0 5.3 0 10.7 0 16c-.2 5.3-.3 10.7-.5 16zM149.3 128a21.3 21.3 0 1 1 -42.7 0 21.3 21.3 0 1 1 42.7 0zm64 0a21.3 21.3 0 1 1 -42.7 0 21.3 21.3 0 1 1 42.7 0zm64 0a21.3 21.3 0 1 1 -42.7 0 21.3 21.3 0 1 1 42.7 0z"/><path class="fa-primary" d="M234.7 128a21.3 21.3 0 1 1 42.7 0 21.3 21.3 0 1 1 -42.7 0zm-64 0a21.3 21.3 0 1 1 42.7 0 21.3 21.3 0 1 1 -42.7 0zm-64 0a21.3 21.3 0 1 1 42.7 0 21.3 21.3 0 1 1 -42.7 0zM469.3 256c0 100.6 0 150.9-31.2 182.1s-81.5 31.2-182.1 31.2c-17.5 0-49.4 0-64-.2V448l0-229.3v-16l277.3 0-.1 16c.1 11.6 .1 24 .1 37.3z"/></svg>