<svg xmlns="http://www.w3.org/2000/svg" viewBox="0 0 512 512"><!--!Font Awesome Pro 6.6.0 by @fontawesome - https://fontawesome.com License - https://fontawesome.com/license (Commercial License) Copyright 2024 Fonticons, Inc.--><path class="fa-secondary" opacity=".4" d="M42.7 234.7l0 5.3 426.7 0 0-5.3c0-80.5 0-120.7-25-145.7C419.4 64 379.3 64 299.1 64l-.5 0-85.3 0C132.9 64 92.7 64 67.7 89s-25 65.2-25 145.7zm0 37.3l0 5.3c0 80.5 0 120.7 25 145.7c24.9 24.9 65.1 25 145.2 25l.5 0 83 0c-12-18.4-19-40.4-19-64c0-6.4 .5-12.7 1.5-18.9c-4.1-2.9-6.8-7.7-6.8-13.1c0-8.7 6.9-15.8 15.6-16c13.6-30.4 39.9-53.9 72-64L42.7 272zM112 138.7c0-8.8 7.2-16 16-16s16 7.2 16 16l0 42.7c0 8.8-7.2 16-16 16s-16-7.2-16-16l0-42.7zm0 192c0-8.8 7.2-16 16-16s16 7.2 16 16l0 42.7c0 8.8-7.2 16-16 16s-16-7.2-16-16l0-42.7zm64-192c0-8.8 7.2-16 16-16s16 7.2 16 16l0 42.7c0 8.8-7.2 16-16 16s-16-7.2-16-16l0-42.7zm0 192c0-8.8 7.2-16 16-16s16 7.2 16 16l0 42.7c0 8.8-7.2 16-16 16s-16-7.2-16-16l0-42.7zM272 160c0-8.8 7.2-16 16-16l96 0c8.8 0 16 7.2 16 16s-7.2 16-16 16l-96 0c-8.8 0-16-7.2-16-16zm35.8 202.9c-5.7 6.7-5 16.8 1.8 22.6l12.5 10.7c6 5.1 14.8 5.1 20.8 0l12.5-10.7c6.7-5.7 7.5-15.8 1.7-22.6c-1.4-1.7-3.1-3-5-3.9c6.7-12.8 22-23 42.6-23c17.8 0 32.5 8.1 40.2 18.9c5.1 7.2 15.1 8.9 22.3 3.7s8.9-15.1 3.7-22.3c-14.2-19.9-39-32.3-66.3-32.3c-35.2 0-68 21.5-76.3 53.4c-4 .4-7.8 2.2-10.6 5.5z"/><path class="fa-primary" d="M446.5 371.8c6-5.1 14.8-5.1 20.8 0l12.5 10.7c6.7 5.7 7.5 15.8 1.7 22.6c-2.8 3.3-6.6 5.1-10.6 5.5c-8.3 31.9-41 53.4-76.3 53.4c-27.2 0-52.1-12.4-66.3-32.3c-5.1-7.2-3.5-17.2 3.7-22.3s17.2-3.5 22.3 3.7c7.7 10.8 22.4 18.9 40.2 18.9c20.6 0 36-10.3 42.6-23c-1.8-.9-3.5-2.2-5-3.9c-5.7-6.7-5-16.8 1.8-22.6l12.5-10.7zM112 373.3c0 8.8 7.2 16 16 16s16-7.2 16-16V330.7c0-8.8-7.2-16-16-16s-16 7.2-16 16v42.7zm64 0c0 8.8 7.2 16 16 16s16-7.2 16-16V330.7c0-8.8-7.2-16-16-16s-16 7.2-16 16v42.7zm0-192c0 8.8 7.2 16 16 16s16-7.2 16-16V138.7c0-8.8-7.2-16-16-16s-16 7.2-16 16v42.7zm-48 16c-8.8 0-16-7.2-16-16V138.7c0-8.8 7.2-16 16-16s16 7.2 16 16v42.7c0 8.8-7.2 16-16 16zM288 144c-8.8 0-16 7.2-16 16s7.2 16 16 16h96c8.8 0 16-7.2 16-16s-7.2-16-16-16H288zM429.7 272l39.6 0 0-32L42.7 240l0 32 316.9 0c11.1-3.5 22.9-5.3 35.1-5.3s24 1.9 35.1 5.3z"/></svg>