<svg xmlns="http://www.w3.org/2000/svg" viewBox="0 0 512 512"><!--!Font Awesome Pro 6.6.0 by @fontawesome - https://fontawesome.com License - https://fontawesome.com/license (Commercial License) Copyright 2024 Fonticons, Inc.--><path class="fa-secondary" opacity=".4" d="M66 321.7c1.1 17.1 2.6 34.2 4.5 51.3c5.3 46 41.5 82.5 87.6 88.2l21.7 2.7c10.6 1.3 15.8 2 21.1 2.5c18.3 1.9 36.7 2.9 55.1 2.9s36.8-1 55.1-2.9c5.3-.6 10.6-1.2 21.1-2.5l19.3-2.4c47.4-5.9 84.6-43.5 89.9-90.9l.4-3.3c1.7-15.4 3.1-30.7 4.1-46.1c-9.8 7.3-24 16.1-44.4 24C369.6 357.8 323.2 368 256 368c-109.6 0-164.1-27.6-190-46.3z"/><path class="fa-primary" d="M201.8 333.4C218 335 235.9 336 256 336c20.1 0 38.1-1 54.2-2.6c-4.6-9.1-9.9-15.3-16-19.7c-8.6-6.1-20.6-9.7-38.2-9.7s-29.5 3.6-38.2 9.7c-6.1 4.3-11.4 10.5-16 19.6zM70.8 142c5.1-44.9 39-81.2 83.6-89.5l4.6-.9c64.1-12 129.8-12 193.9 0l6.9 1.3c43.2 8.1 76.1 43.2 81.3 86.8c5.4 45.6 7.6 91.6 6.7 137.4l-10.6 9.8c-6.3 5.8-19.9 17.9-47.3 28.6c-12.4 4.9-27.8 9.5-46.8 13.1c-6.8-17.2-16.5-31.2-30.3-41C297 276.4 277.8 272 256 272s-41 4.4-56.7 15.6c-13.8 9.8-23.5 23.7-30.3 40.9c-59.5-11.4-85.1-32.8-94.5-40.9l-10.3-9c-.9-44.6 1.2-89.3 6.3-133.7l.3-2.9zm110.2-35.8c6.7-5.8 7.5-15.9 1.7-22.6S166.9 76.2 160.2 82c-10 8.6-16.2 21.3-16.2 33.5c0 21.6 16.4 36.5 35.3 45.1c19.4 8.9 45.9 13.5 76.7 13.5s57.3-4.7 76.7-13.5c18.9-8.6 35.3-23.5 35.3-45.1c0-13.3-7.4-24-16.2-31.6c-6.7-5.8-16.8-5-22.6 1.7s-5 16.8 1.7 22.6c4.8 4.1 5.1 6.7 5.1 7.3c0 3-2.2 9.4-16.6 16c-13.8 6.3-35.4 10.7-63.4 10.7s-49.6-4.3-63.4-10.7c-14.4-6.6-16.6-13-16.6-16c0-.7 .2-2.2 1.2-4.1c.9-1.9 2.3-3.7 3.9-5.1z"/></svg>