<svg xmlns="http://www.w3.org/2000/svg" viewBox="0 0 512 512"><!--!Font Awesome Pro 6.6.0 by @fontawesome - https://fontawesome.com License - https://fontawesome.com/license (Commercial License) Copyright 2024 Fonticons, Inc.--><path class="fa-secondary" opacity=".4" d="M64 132.4l0 110.9c0 115.3 90.4 171.2 147.2 195c15.4 6.4 23.1 9.7 44.8 9.7s29.4-3.2 44.8-9.7c56.7-23.8 147.2-79.7 147.2-195l0-110.9c0-46 0-69-15.1-81.6c-7.1-5.9-15.9-8.2-28-8.2c-13.7 0-31.7 3-56.2 7l-22.5 3.7c-35 5.7-52.5 8.6-70.1 8.6s-35.2-2.9-70.1-8.6l-22.5-3.7c-46.1-7.6-69.2-11.4-84.3 1.2S64 86.4 64 132.4zm58.7 47.9c0-2.4 .5-4.8 1.7-7c9.8-19.3 33.4-29.7 57-29.7s47.2 10.4 57 29.7c3.9 7.8 .7 17.2-7.2 21.1s-17.5 .7-21.5-7c-2.6-5.2-12.5-12.3-28.4-12.3s-25.7 7.1-28.4 12.3c-4 7.8-13.6 10.9-21.5 7c-5.6-2.8-8.9-8.3-8.9-14.1zm47.1 136.9c-6.1-6.3-5.6-16.5 .8-22.5l.4-.4c.3-.3 .8-.6 1.3-1.1c1-.8 2.5-1.9 4.3-3.2c3.7-2.5 9-5.6 16-8.6c14.1-6.1 35-11.8 63.4-11.8s49.2 5.7 63.4 11.8c7 3 12.3 6.2 16 8.6c1.8 1.2 3.3 2.3 4.3 3.2c.5 .4 .9 .8 1.3 1.1l.4 .4c.1 0 .1 .1 .3 .3c6.4 6 6.6 16 .6 22.3c-6 6.2-16 6.5-22.5 .6l-.2-.2c-.4-.3-1.1-.9-2.2-1.6c-2.1-1.5-5.7-3.6-10.8-5.8c-10.1-4.4-26.6-9.2-50.5-9.2s-40.4 4.8-50.5 9.2c-5.1 2.2-8.7 4.3-10.8 5.8c-.8 .5-1.4 .9-1.8 1.3c-.2 .1-.3 .2-.4 .3c-.1 .1-.1 .1-.3 .3c-3.1 2.8-7 4.2-10.9 4.2c-4.2 0-8.4-1.6-11.6-4.9zM273.7 173.3c9.8-19.3 33.4-29.7 57-29.7s47.2 10.4 57 29.7c1.1 2.3 1.7 4.7 1.7 7c0 5.8-3.2 11.3-8.9 14.1c-7.9 3.9-17.5 .7-21.5-7c-2.6-5.2-12.5-12.3-28.4-12.3s-25.7 7.1-28.4 12.3c-4 7.8-13.6 10.9-21.5 7s-11.1-13.3-7.2-21.1z"/><path class="fa-primary" d="M153 187.4c2.6-5.2 12.5-12.3 28.4-12.3s25.7 7.1 28.4 12.3c3.9 7.8 13.6 10.9 21.5 7s11.1-13.3 7.2-21.1c-9.8-19.3-33.4-29.7-57-29.7s-47.2 10.4-57 29.7c-3.9 7.8-.7 17.2 7.2 21.1s17.5 .7 21.5-7zm177.7-12.3c-15.9 0-25.7 7.1-28.4 12.3c-4 7.8-13.6 10.9-21.5 7s-11.1-13.3-7.2-21.1c9.8-19.3 33.4-29.7 57-29.7s47.2 10.4 57 29.7c3.9 7.8 .7 17.2-7.2 21.1s-17.5 .7-21.5-7c-2.6-5.2-12.5-12.3-28.4-12.3zM170.6 294.7c-6.4 6-6.9 16.2-.8 22.5c6 6.2 16.1 6.5 22.5 .7l.1-.1 .2-.2c.1-.1 .3-.2 .4-.3c.4-.3 1-.7 1.8-1.3c2.1-1.5 5.7-3.6 10.8-5.8c10.1-4.4 26.6-9.2 50.5-9.2s40.4 4.8 50.5 9.2c5.1 2.2 8.7 4.3 10.8 5.8c1.1 .7 1.8 1.3 2.2 1.6l.2 .2 .1 .1c6.4 5.8 16.4 5.5 22.4-.7c6.1-6.3 5.8-16.3-.6-22.3l0 0 0 0-.1-.1-.2-.1-.4-.4c-.3-.3-.8-.6-1.3-1.1c-1-.8-2.5-1.9-4.3-3.2c-3.7-2.5-9-5.6-16-8.6c-14.1-6.1-35-11.8-63.4-11.8s-49.2 5.7-63.4 11.8c-7 3-12.3 6.2-16 8.6c-1.8 1.2-3.3 2.3-4.3 3.2c-.5 .4-.9 .8-1.3 1.1l-.4 .4z"/></svg>