<svg xmlns="http://www.w3.org/2000/svg" viewBox="0 0 512 512"><!--!Font Awesome Pro 6.6.0 by @fontawesome - https://fontawesome.com License - https://fontawesome.com/license (Commercial License) Copyright 2024 Fonticons, Inc.--><path class="fa-secondary" opacity=".4" d="M45.8 278.6C56.9 225 96.6 181 149.3 161c19.8-7.5 41.4-11.6 64-11.6s44.2 4.1 64 11.6c59.9 22.7 102.9 76.4 106.4 139.8c-12.7-6.7-34.1-13.1-57.1-16.7c-65.5-10.5-100 42.4-166 35.3c-47.2-5.1-84-28.1-114.9-40.7zM149.3 69.3c.5 0 1 0 1.5 0c.3 0 .5 0 .8 0c2.1 0 4.5 0 6.5 0c3 .1 7 .4 11 1.6c4.3 1.3 9.3 4 13 9.3c3.5 5.1 4.5 10.8 4.5 15.8s-1 10.7-4.5 15.8c-3.7 5.3-8.7 7.9-13 9.3c-4 1.2-8 1.5-11 1.6c-2 .1-4.5 0-6.5 0c-.8 0-1.6 0-2.3 0l0-53.3zm128 21.3l28.2 0c19 0 37.8 4.4 54.9 13l19.2 9.6c-2.4 1.4-4.7 3.1-6.7 4.9c-1 .9-1.9 1.9-2.8 3c-.4 .5-.9 1.1-1.3 1.6s-.8 1.1-1.2 1.7c-3.2 5-4.8 10.5-4.9 16.2L346 132.2c-12.6-6.3-26.5-9.6-40.5-9.6l-28.2 0 0-16 0-16z"/><path class="fa-primary" d="M277.3 161V106.7c0-30.2 0-45.3-9.4-54.6s-24.5-9.4-54.6-9.4s-45.3 0-54.6 9.4c-4.3 4.3-6.6 9.7-7.9 17.3l.8 0c2.1 0 4.5 0 6.5 0c3 .1 7 .4 11 1.6c4.3 1.3 9.3 4 13 9.3c3.5 5.1 4.5 10.8 4.5 15.8s-1 10.7-4.5 15.8c-3.7 5.3-8.7 7.9-13 9.3c-4 1.2-8 1.5-11 1.6c-2 .1-4.5 0-6.5 0c-.8 0-1.6 0-2.3 0V161c19.8-7.5 41.4-11.6 64-11.6s44.2 4.1 64 11.6zM45.8 278.6c-2.1 9.9-3.1 20.2-3.1 30.6c0 40.8 16.4 78.1 43.3 106.4c9.6 10.1 14.4 15.1 34.5 23.8s34 8.6 61.8 8.6h62.2c27.8 0 41.6 0 61.8-8.6s24.9-13.7 34.5-23.8c26.9-28.3 43.3-65.5 43.3-106.4c0-2.8-.1-5.6-.2-8.4c-12.7-6.7-34.1-13.1-57.1-16.7c-65.5-10.5-100 42.4-166 35.3c-47.2-5.1-84-28.1-114.9-40.7zM438.4 114.7c26.7 13.8 38.4 40.5 26.1 59.6s-44 23.4-70.8 9.6s-38.4-40.5-26.1-59.6s44-23.4 70.8-9.6z"/></svg>