<svg xmlns="http://www.w3.org/2000/svg" viewBox="0 0 512 512"><!--!Font Awesome Pro 6.6.0 by @fontawesome - https://fontawesome.com License - https://fontawesome.com/license (Commercial License) Copyright 2024 Fonticons, Inc.--><path class="fa-secondary" opacity=".4" d="M106.9 102.2c0 2 0 4.1 .1 6.4c.1 4 .3 8.4 .5 13.2c1.9 47.5 8 101 28.2 143.3c19.2 40.4 51.2 70.6 104.3 75.6c5.1 .5 10.5 .7 16 .7s10.9-.3 16-.7c53.1-5 85.1-35.2 104.3-75.6c20.1-42.3 26.3-95.8 28.2-143.3c.1-2.4 .2-4.7 .3-7c.1-2.1 .1-4.1 .2-6c.1-2.4 .1-4.5 .1-6.5c0-14.8-1.7-24.4-9.1-33.4c-10.1-12.5-22.3-14.5-46.6-18.6c-24-4-55.3-7.4-93.4-7.4s-69.4 3.4-93.4 7.4c-24.3 4.1-36.4 6.1-46.6 18.6c-7.3 9-9.1 18.6-9.1 33.4zm75.3 351.2l147.5 0L323.4 416c-2-10-10.7-17.1-20.9-17.1l-30.5 0-32 0-30.5 0c-10.2 0-18.9 7.2-20.9 17.1l-6.3 37.3zM197.3 224c0-26.5 21.5-48 48-48c5.6 0 11 1 16 2.7l0-72.1c0-8.8 7.2-16 16-16s16 7.2 16 16c0 14.7 11.9 26.7 26.7 26.7c8.8 0 16 7.2 16 16s-7.2 16-16 16c-9.6 0-18.7-2.3-26.7-6.4l0 65.1c0 26.5-21.5 48-48 48s-48-21.5-48-48zm32 0a16 16 0 1 0 32 0 16 16 0 1 0 -32 0z"/><path class="fa-primary" d="M376.3 265l60.1-33.4c16.1-8.9 24.1-13.4 28.5-20.9s4.4-16.7 4.4-35.1l0-1.5c0-22.3 0-33.4-6-41.8s-16.6-11.9-37.7-18.9l-20.2-6.7-.4 1.8c-.1 4-.3 8.4-.5 13.3c-1.9 47.5-8 101-28.2 143.3zM107.5 121.7c1.9 47.5 8 101 28.2 143.3L75.6 231.6c-16.1-8.9-24.1-13.4-28.5-20.9s-4.4-16.7-4.4-35.1l0-1.5c0-22.3 0-33.4 6-41.8s16.6-11.9 37.7-18.9l20.2-6.7 .4 1.8c.1 4 .3 8.4 .5 13.2zM112 469.3c0-8.8 7.2-16 16-16l256 0c8.8 0 16 7.2 16 16s-7.2 16-16 16l-256 0c-8.8 0-16-7.2-16-16zm144-128c-5.5 0-10.9-.2-16-.7v58.3h32V340.6c-5.1 .5-10.5 .7-16 .7zM277.3 90.7c8.8 0 16 7.2 16 16c0 14.7 11.9 26.7 26.7 26.7c8.8 0 16 7.2 16 16s-7.2 16-16 16c-9.6 0-18.7-2.3-26.7-6.4l0 65.1c0 26.5-21.5 48-48 48s-48-21.5-48-48s21.5-48 48-48c5.6 0 11 1 16 2.7l0-72.1c0-8.8 7.2-16 16-16zM245.3 208a16 16 0 1 0 0 32 16 16 0 1 0 0-32z"/></svg>