<svg xmlns="http://www.w3.org/2000/svg" viewBox="0 0 512 512"><!--!Font Awesome Pro 6.6.0 by @fontawesome - https://fontawesome.com License - https://fontawesome.com/license (Commercial License) Copyright 2024 Fonticons, Inc.--><path class="fa-secondary" opacity=".4" d="M165 373.3c0-29.3 22.3-52.8 38.2-67.8c4.1-3.9 10.5-3.8 14 .6c6.6 8.1 13.1 18.4 19.7 26.7c3.9 4.9 11 4.4 14.4-.8c21-32.4 25.9-73.8 27-104.7c.3-9.3 11.3-13.9 17.5-7c13.7 15.2 29.3 35 41.5 56.3c6.1 10.6 11.3 21.6 15.1 32.5c1.9 5.5 3.3 10.9 4.3 16.3c.5 2.7 .9 5.4 1.2 8c.2 1.7 .3 3.3 .4 6l0-.3c0 1.4 0 1.8 0 2.2c0 .1 0 .2 0 .3c0 1.1 0 2.2-.1 3.3l0 .3c0 1-.1 2.1-.2 3.2c0 .2 0 .3 0 .5c-.1 1-.2 2.1-.3 3.2l0 .4c-.1 1-.2 2.1-.4 3.2l0 .4c-.3 2.4-.7 4.8-1.1 7.2c-.5 2.4-1 4.8-1.6 7.3c-2.3 9.7-5.6 19.3-9.5 28.6s-8.4 18.1-13 26.4c-2.3 4.1-4.7 8-7.2 12c-1.1 1.8-2.3 3.6-3.4 5.3l-.3 .5c-.9 1.4-1.9 2.8-2.8 4.1c-.2 .3-.4 .5-.5 .8c-4.4 6.4-1.4 14.6 4.8 16c-10.5 .5-21 .7-31.1 .7c-60.7 0-111.7-8-120.5-17.8c8.1 1.8 14.6-8.1 10.3-16.4c-.1-.3-.3-.5-.4-.8c-8.5-16.6-15.9-37-15.9-56.6z"/><path class="fa-primary" d="M426.7 320c0 90.8-55.9 130.6-99 144c-1.8 .6-3.5 .6-5 .2c-6.2-1.5-9.2-9.7-4.8-16c18.8-27 40.5-68.2 40.5-106.9c0-41.6-35.1-90.7-62.5-121c-6.3-6.9-17.2-2.3-17.5 7c-1.1 30.9-6 72.3-27 104.7c-3.4 5.2-10.6 5.6-14.4 .8c-6.6-8.3-13.1-18.6-19.7-26.7c-3.5-4.4-9.9-4.4-14-.6c-15.9 15.1-38.2 38.6-38.2 67.8c0 19.8 7.7 40.6 16.4 57.4c4.3 8.3-2.2 18.2-10.3 16.4c-.9-.2-1.7-.5-2.6-1c-38-20-83.1-60.4-83.1-126.2c0-67.1 92-160.1 127.1-248c5.5-13.9 22.6-20.4 34.5-11.3C318.8 115.5 426.7 221.4 426.7 320z"/></svg>