<svg xmlns="http://www.w3.org/2000/svg" viewBox="0 0 512 512"><!--!Font Awesome Pro 6.6.0 by @fontawesome - https://fontawesome.com License - https://fontawesome.com/license (Commercial License) Copyright 2024 Fonticons, Inc.--><path class="fa-secondary" opacity=".4" d="M76.3 132.7l0 133.7c2.3-2.7 4.8-5.2 7.5-7.5c18.6-15.7 48.6-15.7 108.7-15.7l148.4 0c60.1 0 90.1 0 108.7 15.7c.7 .6 1.4 1.2 2 1.8s1.3 1.2 1.9 1.8c1.3 1.3 2.5 2.6 3.6 3.9l0-58.2c0-19.4 0-35.5-1.8-48.3c-1.9-13.5-6.1-25.5-16.1-35.4c-1.6-1.6-3.4-3.1-5.2-4.6c-10.9-8.7-24-12.3-38.8-13.9c-14.3-1.6-32.3-1.6-54.3-1.6l-7.5 0c-21 0-28.5-.1-35.3-1.8c-4-1-7.8-2.4-11.4-4.2c-6.1-3-11.3-7.5-26.2-20.6l-10.1-9c-4.2-3.8-7.1-6.3-10.3-8.6c-13.3-9.8-29.6-15.7-46.5-17.1c-4-.3-8-.3-14-.3l-2.5 0c-.6 0-1.1 0-1.7 0c-12.7 0-21.3 .1-28.8 1.3c-34.2 5.7-61.9 29.7-68.7 61.3c-1.5 7.2-1.5 15.5-1.5 27.4z"/><path class="fa-primary" d="M71.6 272.6c-13 20.1-7.6 48 3.1 103.9c7.7 40.2 11.6 60.3 25 73.6c3.5 3.5 7.4 6.5 11.6 9.1c16.3 10.1 37.9 10.1 81.1 10.1l148.4 0c43.2 0 64.9 0 81.1-10.1c4.2-2.6 8.1-5.7 11.6-9.1c13.4-13.3 17.3-33.4 25-73.6c10.7-55.8 16.1-83.8 3.1-103.9c-3.3-5.1-7.4-9.8-12.2-13.8c-18.6-15.7-48.6-15.7-108.7-15.7l-148.4 0c-60.1 0-90.1 0-108.7 15.7c-4.7 4-8.8 8.6-12.2 13.8zm135.2 93.9c0-8.5 7.3-15.4 16.3-15.4l87 0c9 0 16.3 6.9 16.3 15.4s-7.3 15.4-16.3 15.4l-87 0c-9 0-16.3-6.9-16.3-15.4z"/></svg>