<svg xmlns="http://www.w3.org/2000/svg" viewBox="0 0 512 512"><!--!Font Awesome Pro 6.6.0 by @fontawesome - https://fontawesome.com License - https://fontawesome.com/license (Commercial License) Copyright 2024 Fonticons, Inc.--><path class="fa-secondary" opacity=".4" d="M26.7 344.4l0 125c0 8.8 7.2 16 16 16l125 0c8.8 0 16-7.2 16-16s-7.2-16-16-16l-86.3 0 122-122c3.1-3.1 4.7-7.2 4.7-11.3s-1.6-8.2-4.7-11.3s-7.2-4.7-11.3-4.7s-8.2 1.6-11.3 4.7l-122 122 0-86.3c0-8.8-7.2-16-16-16s-16 7.2-16 16z"/><path class="fa-primary" d="M328.4 42.7c0-8.8 7.2-16 16-16l125 0c8.8 0 16 7.2 16 16l0 125c0 8.8-7.2 16-16 16s-16-7.2-16-16l0-86.3-122 122c-6.2 6.2-16.4 6.2-22.6 0s-6.2-16.4 0-22.6l122-122-86.3 0c-8.8 0-16-7.2-16-16z"/></svg>