<svg xmlns="http://www.w3.org/2000/svg" viewBox="0 0 512 512"><!--!Font Awesome Pro 6.6.0 by @fontawesome - https://fontawesome.com License - https://fontawesome.com/license (Commercial License) Copyright 2024 Fonticons, Inc.--><path class="fa-secondary" opacity=".4" d="M92.9 455.8c-4.5 7.6-2.1 17.4 5.5 22c2.6 1.5 5.4 2.3 8.2 2.3c5.4 0 10.7-2.8 13.7-7.8l30.5-50.9-1.6 0c-1.5 0-2.9 0-4.2-.1c-1.5-.1-2.9-.1-4.3-.2c-2.8-.2-5.6-.6-8.3-1c-5.5-.9-10.8-2.1-15.9-3.8L92.9 455.8zM228.8 125c-3.4 8.2 .5 17.5 8.7 20.9s17.5-.5 20.9-8.7c15.2-36.8 51.5-62.6 93.7-62.6s78.4 25.8 93.7 62.6c3.4 8.2 12.7 12 20.9 8.7c6.2-2.6 9.9-8.5 9.9-14.8c0-2-.4-4.1-1.2-6.1c-20-48.3-67.6-82.3-123.2-82.3s-103.2 34-123.2 82.3zm46.4 28.5c-2.5 8.5 2.4 17.4 10.9 19.8s17.4-2.4 19.8-10.9c5.8-20 24.3-34.5 46.1-34.5s40.3 14.6 46.1 34.5c2.5 8.5 11.4 13.4 19.8 10.9s13.4-11.4 10.9-19.8C419.1 120.3 388.4 96 352 96s-67.1 24.3-76.8 57.6zm85.9 267.8l30.5 50.9c4.5 7.6 14.4 10 22 5.5s10-14.4 5.5-22l-23.7-39.5c-10.3 3.3-21.3 5.1-32.7 5.1c-.5 0-1.1 0-1.6 0z"/><path class="fa-primary" d="M149.3 298.7a16 16 0 1 0 0 32 16 16 0 1 0 0-32zm-106.7 16C42.7 255.8 90.4 208 149.3 208l213.3 0c58.9 0 106.7 47.8 106.7 106.7s-47.8 106.7-106.7 106.7l-213.3 0c-58.9 0-106.7-47.8-106.7-106.7zm58.7 0a48 48 0 1 0 96 0 48 48 0 1 0 -96 0zm154.7-16c-8.8 0-16 7.2-16 16s7.2 16 16 16l138.7 0c8.8 0 16-7.2 16-16s-7.2-16-16-16l-138.7 0zm74.7-133.3a21.3 21.3 0 1 1 42.7 0 21.3 21.3 0 1 1 -42.7 0z"/></svg>