<svg xmlns="http://www.w3.org/2000/svg" viewBox="0 0 512 512"><!--!Font Awesome Pro 6.6.0 by @fontawesome - https://fontawesome.com License - https://fontawesome.com/license (Commercial License) Copyright 2024 Fonticons, Inc.--><path class="fa-secondary" opacity=".4" d="M80 362.7c0 8.8 7.2 16 16 16s16-7.2 16-16c0-37.5 15.2-59.3 33.3-72.3c18.9-13.6 42.1-18.3 57.3-18.3l174.7 0c5.3-5.3 10.7-10.7 16-16c-5.3-5.3-10.7-10.7-16-16l-174.7 0c-20.3 0-50.5 6-76 24.3c-26.3 19-46.7 50.4-46.7 98.3zM430.8 249.9c.4 1 .7 2 .9 3c-.1-.6-.2-1.1-.4-1.5s-.3-1-.5-1.4zm.9 3c.1 .5 .2 1 .2 1.6c-.1-.6-.1-1.1-.2-1.6z"/><path class="fa-primary" d="M298 138c6.2-6.2 16.4-6.2 22.6 0L427.3 244.7c6.2 6.2 6.2 16.4 0 22.6L320.6 374c-6.2 6.2-16.4 6.2-22.6 0s-6.2-16.4 0-22.6L393.4 256 298 160.6c-6.2-6.2-6.2-16.4 0-22.6z"/></svg>