<svg xmlns="http://www.w3.org/2000/svg" viewBox="0 0 512 512"><!--!Font Awesome Pro 6.6.0 by @fontawesome - https://fontawesome.com License - https://fontawesome.com/license (Commercial License) Copyright 2024 Fonticons, Inc.--><path class="fa-secondary" opacity=".4" d="M188.2 213.3c.2 .4 .4 .9 .6 1.3c3.2 7.8 3.2 16.6 3.2 34l0 156.7c0 19.9 0 29.8 3.2 37.7c4.3 10.5 12.6 18.8 23.1 23.1c7.8 3.2 17.8 3.2 37.7 3.2s29.8 0 37.7-3.2c10.5-4.3 18.8-12.6 23.1-23.1c3.2-7.8 3.2-17.8 3.2-37.7l0-156.7c0-17.4 0-26.2 3.2-34c.2-.5 .4-.9 .6-1.3l-135.7 0zm51.8 64c0-8.8 7.2-16 16-16s16 7.2 16 16l0 42.7c0 8.8-7.2 16-16 16s-16-7.2-16-16l0-42.7z"/><path class="fa-primary" d="M256 261.3c8.8 0 16 7.2 16 16l0 42.7c0 8.8-7.2 16-16 16s-16-7.2-16-16l0-42.7c0-8.8 7.2-16 16-16zm89-73l69.2-69.2c5.8-5.8 8.9-8.9 10.6-12.5H87.2c1.7 3.6 4.8 6.7 10.6 12.5L167 188.3c11.6 11.6 17.8 17.8 21.2 25H323.8c3.4-7.2 9.5-13.4 21.2-25z"/></svg>