<svg xmlns="http://www.w3.org/2000/svg" viewBox="0 0 512 512"><!--!Font Awesome Pro 6.6.0 by @fontawesome - https://fontawesome.com License - https://fontawesome.com/license (Commercial License) Copyright 2024 Fonticons, Inc.--><path class="fa-secondary" opacity=".4" d="M57.6 259.7c0 .2 0 .4 0 .6c0 109.6 88.8 198.4 198.4 198.4c68.7 0 129.2-34.9 164.8-87.9l-2.5-2.5-39.1-35.5c-22.2-20-55.2-21.9-79.6-4.8l-6.4 4.5c-17 11.9-40 9.9-54.7-4.7L147 236.2c-9.5-9.5-22.1-14.4-34.7-14.4c-11.5 0-23 4-32.3 12.1L58.7 253.1c-.3 .3-1 2-1.1 6.6z"/><path class="fa-primary" d="M320 234.7a42.7 42.7 0 1 0 0-85.3 42.7 42.7 0 1 0 0 85.3zM485.3 256A229.3 229.3 0 1 1 26.7 256a229.3 229.3 0 1 1 458.7 0zm-37.8-47.6c-21.3-86-99-149.8-191.6-149.8c-92.7 0-170.5 63.9-191.7 150.1c-4.4 16.4-6.7 33.7-6.7 51.5c0 109.6 88.8 198.4 198.4 198.4s198.4-88.8 198.4-198.4c0-17.9-2.4-35.3-6.8-51.9z"/></svg>