<svg xmlns="http://www.w3.org/2000/svg" viewBox="0 0 512 512"><!--!Font Awesome Pro 6.6.0 by @fontawesome - https://fontawesome.com License - https://fontawesome.com/license (Commercial License) Copyright 2024 Fonticons, Inc.--><path class="fa-secondary" opacity=".4" d="M64 378.7c0 47.1 66.9 85.3 149.3 85.3s149.3-38.2 149.3-85.3s-66.9-85.3-149.3-85.3S64 331.5 64 378.7z"/><path class="fa-primary" d="M213.3 58.7a85.3 85.3 0 1 0 0 170.7 85.3 85.3 0 1 0 0-170.7zm178.3-8.2c4.5-7.6 14.4-10 22-5.5l-8.2 13.7c8.2-13.7 8.2-13.7 8.2-13.7s0 0 0 0s0 0 0 0l.1 0 .2 .1c.2 .1 .4 .2 .6 .4c.5 .3 1.1 .7 1.8 1.2c1.5 1.1 3.5 2.6 5.9 4.5c4.7 3.9 10.9 9.8 17.1 17.9C451.8 85.3 464 110 464 144s-12.2 58.7-24.7 74.8c-6.2 8-12.4 13.9-17.1 17.9c-2.4 2-4.4 3.5-5.9 4.5c-.8 .5-1.4 .9-1.8 1.2c-.2 .2-.4 .3-.6 .4l-.2 .1-.1 0c0 0 0 0 0 0s0 0-8.3-13.7l8.2 13.7c-7.6 4.5-17.4 2.1-22-5.5c-4.5-7.5-2.1-17.3 5.4-21.9l.1-.1c.2-.1 .5-.3 .9-.6c.8-.6 2.1-1.5 3.8-2.9c3.3-2.7 7.7-7 12.2-12.8c8.9-11.6 18-29.6 18-55.3s-9.1-43.7-18-55.3c-4.5-5.8-9-10.1-12.2-12.8c-1.6-1.4-2.9-2.3-3.8-2.9c-.4-.3-.7-.5-.9-.6l-.1-.1c-7.5-4.6-9.9-14.3-5.4-21.9zM348.4 94.2c4-7.9 13.6-11.1 21.5-7.2l-7.2 14.3C369.8 87 369.8 87 369.8 87s0 0 0 0s0 0 0 0l.1 0 .2 .1 .5 .2c.3 .2 .8 .4 1.3 .7c1 .6 2.3 1.4 3.7 2.5c2.9 2.2 6.6 5.4 10.2 10C393.3 110 400 124.1 400 144s-6.7 34-14.2 43.3c-3.6 4.5-7.3 7.8-10.2 10c-1.5 1.1-2.7 1.9-3.7 2.5c-.5 .3-.9 .5-1.3 .7l-.5 .2-.2 .1-.1 0c0 0 0 0 0 0s0 0-7.1-14l7 14c-7.9 4-17.5 .7-21.5-7.2c-3.9-7.8-.8-17.3 6.9-21.3l.1 0c.2-.1 .6-.4 1.1-.8c1.1-.8 2.7-2.2 4.4-4.4c3.2-4 7.2-11.2 7.2-23.3s-3.9-19.3-7.2-23.3c-1.7-2.1-3.3-3.5-4.4-4.4c-.5-.4-.9-.7-1.1-.8l-.1 0c-7.7-4-10.8-13.5-6.9-21.3z"/></svg>