<svg xmlns="http://www.w3.org/2000/svg" viewBox="0 0 512 512"><!--!Font Awesome Pro 6.6.0 by @fontawesome - https://fontawesome.com License - https://fontawesome.com/license (Commercial License) Copyright 2024 Fonticons, Inc.--><path class="fa-secondary" opacity=".4" d="M26.7 256c0-8.8 7.2-16 16-16l42.7 0c8.8 0 16 7.2 16 16s-7.2 16-16 16l-42.7 0c-8.8 0-16-7.2-16-16zm90-139.3c6.2-6.2 16.4-6.2 22.6 0l7.3 7.3c6.2 6.2 6.2 16.4 0 22.6s-16.4 6.2-22.6 0l-7.3-7.3c-6.2-6.2-6.2-16.4 0-22.6zm0 256l7.3-7.3c6.2-6.2 16.4-6.2 22.6 0s6.2 16.4 0 22.6l-7.3 7.3c-6.2 6.2-16.4 6.2-22.6 0s-6.2-16.4 0-22.6zM240 42.7c0-8.8 7.2-16 16-16s16 7.2 16 16l0 42.7c0 8.8-7.2 16-16 16s-16-7.2-16-16l0-42.7zm0 384c0-8.8 7.2-16 16-16s16 7.2 16 16l0 42.7c0 8.8-7.2 16-16 16s-16-7.2-16-16l0-42.7zM365.4 124l7.3-7.3c6.2-6.2 16.4-6.2 22.6 0s6.2 16.4 0 22.6l-7.3 7.3c-6.2 6.2-16.4 6.2-22.6 0s-6.2-16.4 0-22.6zm0 241.4c6.2-6.2 16.4-6.2 22.6 0l7.3 7.3c6.2 6.2 6.2 16.4 0 22.6s-16.4 6.2-22.6 0l-7.3-7.3c-6.2-6.2-6.2-16.4 0-22.6zM410.7 256c0-8.8 7.2-16 16-16l42.7 0c8.8 0 16 7.2 16 16s-7.2 16-16 16l-42.7 0c-8.8 0-16-7.2-16-16z"/><path class="fa-primary" d="M149.3 235.9c0 54.2 42.9 83.1 74.3 109c11.1 9.1 21.7 17.7 32.4 17.7s21.3-8.6 32.4-17.7c31.4-25.9 74.3-54.8 74.3-109s-58.7-92.7-106.7-40.6c-48-52.1-106.7-13.7-106.7 40.6z"/></svg>