<svg xmlns="http://www.w3.org/2000/svg" viewBox="0 0 512 512"><!--!Font Awesome Pro 6.6.0 by @fontawesome - https://fontawesome.com License - https://fontawesome.com/license (Commercial License) Copyright 2024 Fonticons, Inc.--><path class="fa-secondary" opacity=".4" d="M42.7 256c0-100.6 0-150.8 31.2-182.1S155.4 42.7 256 42.7s150.9 0 182.1 31.2c31.2 31.2 31.2 81.3 31.2 181.3l0 .8c0 100.6 0 150.9-31.2 182.1s-81.5 31.2-182.1 31.2c-88.2 0-137.7 0-169.6-21.1L218.7 316l0 89.4c0 8.8 7.2 16 16 16s16-7.2 16-16l0-128c0-8.8-7.2-16-16-16l-128 0c-8.8 0-16 7.2-16 16s7.2 16 16 16l89.4 0L63.7 425.6C42.7 393.7 42.7 344.2 42.7 256z"/><path class="fa-primary" d="M90.7 277.3c0-8.8 7.2-16 16-16l128 0c8.8 0 16 7.2 16 16l0 128c0 8.8-7.2 16-16 16s-16-7.2-16-16l0-89.4L75.3 459.3c-6.2 6.2-16.4 6.2-22.6 0s-6.2-16.4 0-22.6L196 293.3l-89.4 0c-8.8 0-16-7.2-16-16z"/></svg>