<svg xmlns="http://www.w3.org/2000/svg" viewBox="0 0 512 512"><!--!Font Awesome Pro 6.6.0 by @fontawesome - https://fontawesome.com License - https://fontawesome.com/license (Commercial License) Copyright 2024 Fonticons, Inc.--><path class="fa-secondary" opacity=".4" d="M42.7 256c0 117.8 95.5 213.3 213.3 213.3s213.3-95.5 213.3-213.3c0-9.9-14.8-11.5-19.9-3.1C425.1 293.1 381 320 330.7 320C254.1 320 192 257.9 192 181.3c0-50.4 26.9-94.5 67.1-118.8c8.4-5.1 6.8-19.9-3.1-19.9C138.2 42.7 42.7 138.2 42.7 256z"/><path class="fa-primary" d="M424.5 49.2c-3.4-8.7-15.8-8.7-19.2 0l-9.2 23.4c-1 2.7-3.2 4.8-5.8 5.8l-23.3 9.2c-8.7 3.4-8.7 15.8 0 19.3l23.3 9.2c2.7 1.1 4.8 3.2 5.8 5.8l9.2 23.4c3.4 8.7 15.8 8.7 19.2 0l9.2-23.4c1-2.7 3.2-4.8 5.8-5.8l23.3-9.2c8.7-3.4 8.7-15.8 0-19.3l-23.3-9.2c-2.7-1.1-4.8-3.2-5.8-5.8l-9.2-23.4zM342 173.4c-3.4-8.7-15.8-8.7-19.2 0l-3.3 8.5c-1 2.7-3.2 4.8-5.8 5.8l-8.5 3.4c-8.7 3.4-8.7 15.8 0 19.3l8.5 3.4c2.7 1.1 4.8 3.2 5.8 5.8l3.3 8.5c3.4 8.7 15.8 8.7 19.2 0l3.3-8.5c1-2.7 3.2-4.8 5.8-5.8l8.5-3.4c8.7-3.4 8.7-15.8 0-19.3l-8.5-3.4c-2.7-1.1-4.8-3.2-5.8-5.8l-3.3-8.5z"/></svg>