<svg xmlns="http://www.w3.org/2000/svg" viewBox="0 0 512 512"><!--!Font Awesome Pro 6.6.0 by @fontawesome - https://fontawesome.com License - https://fontawesome.com/license (Commercial License) Copyright 2024 Fonticons, Inc.--><path class="fa-secondary" opacity=".4" d="M112 320c0 79.5 64.5 144 144 144l85.3 0c79.5 0 144-64.5 144-144c0-36.9-13.9-70.5-36.7-96c-5.9-6.6-16-7.1-22.6-1.3s-7.1 16-1.3 22.6c17.7 19.8 28.5 46 28.5 74.7c0 61.9-50.1 112-112 112L256 432c-61.9 0-112-50.1-112-112s50.1-112 112-112l42.7 0c8.8 0 16-7.2 16-16s-7.2-16-16-16L256 176c-79.5 0-144 64.5-144 144z"/><path class="fa-primary" d="M170.7 48c-79.5 0-144 64.5-144 144c0 36.9 13.9 70.5 36.7 96c5.9 6.6 16 7.1 22.6 1.3s7.1-16 1.3-22.6c-17.7-19.8-28.5-46-28.5-74.7c0-61.9 50.1-112 112-112L256 80c61.9 0 112 50.1 112 112s-50.1 112-112 112l-42.7 0c-8.8 0-16 7.2-16 16s7.2 16 16 16l42.7 0c79.5 0 144-64.5 144-144s-64.5-144-144-144l-85.3 0z"/></svg>