<svg xmlns="http://www.w3.org/2000/svg" viewBox="0 0 512 512"><!--!Font Awesome Pro 6.6.0 by @fontawesome - https://fontawesome.com License - https://fontawesome.com/license (Commercial License) Copyright 2024 Fonticons, Inc.--><path class="fa-secondary" opacity=".4" d="M42.7 256a213.3 213.3 0 1 0 426.7 0A213.3 213.3 0 1 0 42.7 256zm96-48a16 16 0 1 1 -32 0 16 16 0 1 1 32 0zm0 96a16 16 0 1 1 -32 0 16 16 0 1 1 32 0zm96-96a26.7 26.7 0 1 1 -53.3 0 26.7 26.7 0 1 1 53.3 0zm0 96a26.7 26.7 0 1 1 -53.3 0 26.7 26.7 0 1 1 53.3 0zM224 122.7a16 16 0 1 1 -32 0 16 16 0 1 1 32 0zm0 266.7a16 16 0 1 1 -32 0 16 16 0 1 1 32 0zM330.7 208a26.7 26.7 0 1 1 -53.3 0 26.7 26.7 0 1 1 53.3 0zm0 96a26.7 26.7 0 1 1 -53.3 0 26.7 26.7 0 1 1 53.3 0zM320 122.7a16 16 0 1 1 -32 0 16 16 0 1 1 32 0zm0 266.7a16 16 0 1 1 -32 0 16 16 0 1 1 32 0zM405.3 208a16 16 0 1 1 -32 0 16 16 0 1 1 32 0zm0 96a16 16 0 1 1 -32 0 16 16 0 1 1 32 0z"/><path class="fa-primary" d="M277.3 208a26.7 26.7 0 1 1 53.3 0 26.7 26.7 0 1 1 -53.3 0zm-96 0a26.7 26.7 0 1 1 53.3 0 26.7 26.7 0 1 1 -53.3 0zm-58.7 16a16 16 0 1 1 0-32 16 16 0 1 1 0 32zM192 122.7a16 16 0 1 1 32 0 16 16 0 1 1 -32 0zm96 0a16 16 0 1 1 32 0 16 16 0 1 1 -32 0zM405.3 208a16 16 0 1 0 -32 0 16 16 0 1 0 32 0zm0 96a16 16 0 1 0 -32 0 16 16 0 1 0 32 0zm-128 0a26.7 26.7 0 1 1 53.3 0 26.7 26.7 0 1 1 -53.3 0zM208 330.7a26.7 26.7 0 1 0 0-53.3 26.7 26.7 0 1 0 0 53.3zM122.7 320a16 16 0 1 1 0-32 16 16 0 1 1 0 32zM192 389.3a16 16 0 1 1 32 0 16 16 0 1 1 -32 0zm112 16a16 16 0 1 0 0-32 16 16 0 1 0 0 32z"/></svg>