<svg xmlns="http://www.w3.org/2000/svg" viewBox="0 0 512 512"><!--!Font Awesome Pro 6.6.0 by @fontawesome - https://fontawesome.com License - https://fontawesome.com/license (Commercial License) Copyright 2024 Fonticons, Inc.--><path class="fa-secondary" opacity=".4" d="M55.5 122.9c14.1 10 50.4 38.7 77.8 86.1c2.2 3.7 4.2 7.5 6.1 11.1c1.8 3.4 3.4 6.8 4.9 10.1c1.4 3.1 2.8 6.2 4 9.3c.6 1.5 1.2 3 1.8 4.4s1.1 2.9 1.6 4.4c3.7 10.1 6.4 19.6 8.3 28c1 4.2 1.7 8.2 2.4 12c.3 1.8 .6 3.6 .8 5.4c.2 1.6 .4 3 .6 4.4c0 .3 .1 .7 .1 1c.1 1.3 .3 2.5 .4 3.7c0 .2 0 .4 0 .5c.1 1.1 .2 2.2 .2 3.1c0 .3 0 .6 .1 .9c.1 1 .1 1.8 .1 2.5c0 .2 0 .5 0 .7c0 .8 0 1.4 .1 1.9c0 .4 0 .9 0 1.3c0 1.4 0 2.5 0 3.5c0 .2 0 .4 0 .5c0 .3 0 .6 0 .9c0 .1 0 .2 0 .2c-25.7-3.1-50.4-13.4-70.8-30c-1.2-1-2.4-2-3.6-3c-4.4-3.8-8.6-7.9-12.5-12.3c-3.3-3.7-6.4-7.5-9.3-11.6l-.6-.8c-2.4-3.4-4.7-7-6.8-10.6c-23.4-40.6-24-88.2-5.7-127.7zM172.3 341.7c.7-7.2 1.6-14.6 2.9-21.9c6.1-36.2 19.5-72.3 46-98.7c11.1-11.1 23.8-19.8 37.5-26.7c25.8-13 55-19.4 83.1-22.1c42 42 83.9 83.9 125.9 125.9c-4.2 43.1-17.1 88.8-48.9 120.6s-77.5 44.7-120.6 48.8c-42-42-84-83.9-125.9-125.9zM197.9 43.6c41.8 5.1 80.8 29.1 103.5 68.3c11.5 20 17.5 41.6 18.5 63.2c-21 3.6-42.1 9.6-61.2 19.2c-9.8-11-19.9-24.5-29.8-41.6c.2 .3 .3 .5 .5 .8c-17.3-30-25.2-57.5-28.8-77.6c-.4-2.5-.8-4.8-1.1-7l-.1-.5c-.1-.7-.2-1.4-.3-2.1c-.1-.4-.1-.9-.2-1.4c-.1-.6-.1-1.2-.2-1.7c-.5-4.7-.8-8.6-.9-11.7c0-1-.1-1.9-.1-2.7c0-.3 0-.5 0-.8c0-.6 0-1.2 0-1.6c0-.3 0-.6 0-.8c0-.9 0-1.5 .1-2zm64.8 275.5c-4.4 4.4-4.4 11.5 0 15.8l13.3 13.3-13.3 13.3c-4.4 4.4-4.4 11.5 0 15.8s11.5 4.4 15.8 0l13.3-13.3L305 377.3c4.4 4.4 11.5 4.4 15.8 0s4.4-11.5 0-15.8l-13.3-13.3L320 335.8l13.3 13.3c4.4 4.4 11.5 4.4 15.8 0s4.4-11.5 0-15.8L335.8 320l12.4-12.4 13.3 13.3c4.4 4.4 11.5 4.4 15.8 0s4.4-11.5 0-15.8l-13.3-13.3 13.3-13.3c4.4-4.4 4.4-11.5 0-15.8s-11.5-4.4-15.8 0l-13.3 13.3L335 262.7c-4.4-4.4-11.5-4.4-15.8 0s-4.4 11.5 0 15.8l13.3 13.3L320 304.2l-13.3-13.3c-4.4-4.4-11.5-4.4-15.8 0s-4.4 11.5 0 15.8L304.2 320l-12.4 12.4-13.3-13.3c-4.4-4.4-11.5-4.4-15.8 0z"/><path class="fa-primary" d="M112 61.2c27-15.6 57.1-21.1 85.9-17.6c0 0-3.2 49.9 31.5 110c9.4 16.3 19.5 29.8 29.3 40.8c-13.7 6.9-26.5 15.7-37.6 26.8c-26.4 26.4-39.8 62.6-46 98.7c-3.5-.2-7-.4-10.4-.9c0-.6 1.7-30.1-13.1-70.7c-1-2.9-2.2-5.8-3.4-8.8c-1.2-3-2.6-6.1-4-9.3c-1.5-3.3-3.2-6.7-4.9-10.1c-1.9-3.7-3.9-7.4-6.1-11.1c-27.4-47.4-63.7-76.1-77.8-86.1c11.6-25 30.7-46.9 56.5-61.7zM410.6 172c-19.9-1.5-43.9-2.1-68.9 .3L467.7 298.2c2.4-24.9 1.9-49 .3-68.9c-2.4-31.1-26.3-55-57.4-57.4zM229.4 468c19.9 1.5 43.9 2.1 68.9-.3L172.3 341.8c-2.4 24.9-1.9 49-.3 68.9c2.4 31.1 26.3 55 57.4 57.4zm89.8-205.4c4.4-4.4 11.5-4.4 15.8 0l13.3 13.3 13.3-13.3c4.4-4.4 11.5-4.4 15.8 0s4.4 11.5 0 15.8l-13.3 13.3L377.3 305c4.4 4.4 4.4 11.5 0 15.8s-11.5 4.4-15.8 0l-13.3-13.3L335.8 320l13.3 13.3c4.4 4.4 4.4 11.5 0 15.8s-11.5 4.4-15.8 0L320 335.8l-12.4 12.4 13.3 13.3c4.4 4.4 4.4 11.5 0 15.8s-11.5 4.4-15.8 0l-13.3-13.3-13.3 13.3c-4.4 4.4-11.5 4.4-15.8 0s-4.4-11.5 0-15.8l13.3-13.3L262.7 335c-4.4-4.4-4.4-11.5 0-15.8s11.5-4.4 15.8 0l13.3 13.3L304.2 320l-13.3-13.3c-4.4-4.4-4.4-11.5 0-15.8s11.5-4.4 15.8 0L320 304.2l12.4-12.4-13.3-13.3c-4.4-4.4-4.4-11.5 0-15.8z"/></svg>