<svg xmlns="http://www.w3.org/2000/svg" viewBox="0 0 512 512"><!--!Font Awesome Pro 6.6.0 by @fontawesome - https://fontawesome.com License - https://fontawesome.com/license (Commercial License) Copyright 2024 Fonticons, Inc.--><path class="fa-secondary" opacity=".4" d="M26.7 42.7l0 214.6 0 1.1c0 48.7 0 87 4 116.9c4.1 30.8 12.8 55.1 31.9 74.2s43.4 27.7 74.2 31.9c30 4 68.5 4 117.6 4l.3 0 214.6 0c8.8 0 16-7.2 16-16s-7.2-16-16-16l-213.3 0c-50.7 0-87.2 0-114.9-3.8c-27.3-3.7-43.7-10.6-55.9-22.8s-19.1-28.6-22.8-55.9c-3.7-27.7-3.8-64.2-3.8-114.9l0-213.3c0-8.8-7.2-16-16-16s-16 7.2-16 16z"/><path class="fa-primary" d="M417.9 159.3c5.5-6.9 4.3-17-2.6-22.5s-17-4.3-22.5 2.6l-66.5 83.8c-5.2 6.6-8.7 10.9-11.5 14c-2.8 3-4.1 3.9-4.7 4.2c-4.5 2.4-9.9 2.5-14.5 .3c-.6-.3-1.9-1.1-4.8-4c-3-3-6.6-7.1-12.1-13.5l-.3-.4c-5.1-5.8-9.4-10.8-13.2-14.7c-4-4-8.3-7.7-13.7-10.3c-13.8-6.6-29.9-6.3-43.4 .9c-5.3 2.8-9.4 6.7-13.2 10.9c-3.6 4-7.8 9.2-12.6 15.2l-66.8 84.2c-5.5 6.9-4.3 17 2.6 22.5s17 4.3 22.5-2.6l66.5-83.8c5.2-6.6 8.7-10.9 11.5-14c2.8-3 4.1-3.9 4.7-4.2c4.5-2.4 9.9-2.5 14.5-.3c.6 .3 1.9 1.1 4.8 4c3 3 6.6 7.1 12.1 13.5l.3 .4c5.1 5.8 9.4 10.8 13.2 14.7c4 4 8.3 7.7 13.7 10.3c13.8 6.6 29.9 6.3 43.4-.9c5.3-2.8 9.4-6.7 13.2-10.9c3.6-4 7.8-9.2 12.6-15.2l66.8-84.2z"/></svg>