<svg xmlns="http://www.w3.org/2000/svg" viewBox="0 0 512 512"><!--!Font Awesome Pro 6.6.0 by @fontawesome - https://fontawesome.com License - https://fontawesome.com/license (Commercial License) Copyright 2024 Fonticons, Inc.--><path class="fa-secondary" opacity=".4" d="M73.1 247.3l0 17.3c0 51.3 0 76.9 11.9 98s33.5 33.9 76.8 59.6l14.6 8.7c43.3 25.6 64.9 38.4 88.7 38.4s45.4-12.8 88.7-38.4l14.6-8.7c43.3-25.6 64.9-38.4 76.8-59.6c11.9-21.1 11.9-46.6 11.9-97.6l0-.4 0-17.3c0-51.3 0-76.9-11.9-98s-33.5-33.9-76.8-59.6l-14.6-8.7c-43.3-25.6-64.9-38.4-88.7-38.4s-45.4 12.8-88.7 38.4l-14.6 8.7c-43.3 25.6-64.9 38.4-76.8 59.6s-11.9 46.7-11.9 98zm272 8.7a80 80 0 1 1 -160 0 80 80 0 1 1 160 0z"/><path class="fa-primary" d="M265.1 176a80 80 0 1 0 0 160 80 80 0 1 0 0-160z"/></svg>