<svg xmlns="http://www.w3.org/2000/svg" viewBox="0 0 512 512"><!--!Font Awesome Pro 6.6.0 by @fontawesome - https://fontawesome.com License - https://fontawesome.com/license (Commercial License) Copyright 2024 Fonticons, Inc.--><path class="fa-secondary" opacity=".4" d="M42.7 202.3l0 .4 0 .8c0 69.6 .1 104.4 19.4 128c3.5 4.3 7.5 8.3 11.8 11.8c3.9 3.2 8 5.8 12.6 8c23.4 11.3 57.5 11.3 116.1 11.3l7.2 0 5-10c18-36 27-54 41.2-54s23.2 18 41.2 54l5 10 7.1 0 28.6-.1c17.9-.1 33.1-.5 46-1.6c20.1-1.8 35-5.3 47-12.6L289 236.8 63.2 72.5c-.4 .4-.8 .9-1.1 1.4C42.7 97.4 42.7 132.4 42.7 202.3z"/><path class="fa-primary" d="M454.9 80.8L322.3 222.2 454.1 325.8c15.2-23.5 15.2-58.4 15.2-123.1c0-63.6 0-98.4-14.5-121.9zM325.7 409.6l-28.5-57c-18-36-27-54-41.2-54s-23.2 18-41.2 54l-28.5 57c-10.9 21.8-16.4 32.8-15.5 39.6c1.2 9.9 8.7 18 18.5 19.9c6.8 1.3 18.1-3.4 40.6-12.7c8.3-3.5 12.5-5.2 16.8-6.1c6.2-1.3 12.5-1.3 18.6 0c4.3 .9 8.4 2.6 16.8 6.1c22.6 9.3 33.8 14 40.6 12.7c9.8-1.9 17.3-9.9 18.5-19.9c.8-6.9-4.6-17.8-15.5-39.6zM309.3 42.7H202.7c-55.8 0-89.4 0-112.7 9.8L296.7 202.8 432.5 57.9c-23.5-15.2-58.4-15.2-123.1-15.2z"/></svg>