<svg xmlns="http://www.w3.org/2000/svg" viewBox="0 0 512 512"><!--!Font Awesome Pro 6.6.0 by @fontawesome - https://fontawesome.com License - https://fontawesome.com/license (Commercial License) Copyright 2024 Fonticons, Inc.--><path class="fa-secondary" opacity=".4" d="M42.7 256c0-100.6 0-150.8 31.2-182.1S155.4 42.7 256 42.7s150.9 0 182.1 31.2c31.2 31.2 31.2 81.3 31.2 181.3l0 .8c0 100.6 0 150.9-31.2 182.1s-81.5 31.2-182.1 31.2c-29 0-53.8 0-75.1-.7c18.9-1.2 31-4.5 39.7-13.3c14.1-14.1 14.1-36.7 14.1-81.9s0-67.9-14.1-81.9s-36.7-14.1-81.9-14.1s-67.9 0-81.9 14.1c-8.8 8.8-12.1 20.9-13.3 39.8c-.7-21.4-.7-46.2-.7-75.1zm202-11.3c-6.2 6.2-6.2 16.4 0 22.6s16.4 6.2 22.6 0L346.7 188l0 41.4c0 8.8 7.2 16 16 16s16-7.2 16-16l0-80c0-8.8-7.2-16-16-16l-80 0c-8.8 0-16 7.2-16 16s7.2 16 16 16l41.4 0-79.4 79.4z"/><path class="fa-primary" d="M266.7 149.3c0-8.8 7.2-16 16-16l80 0c8.8 0 16 7.2 16 16l0 80c0 8.8-7.2 16-16 16s-16-7.2-16-16l0-41.4-79.4 79.4c-6.2 6.2-16.4 6.2-22.6 0s-6.2-16.4 0-22.6L324 165.3l-41.4 0c-8.8 0-16-7.2-16-16zm-224 224c0-45.3 0-67.9 14.1-81.9s36.7-14.1 81.9-14.1s67.9 0 81.9 14.1s14.1 36.7 14.1 81.9s0 67.9-14.1 81.9s-36.7 14.1-81.9 14.1s-67.9 0-81.9-14.1s-14.1-36.7-14.1-81.9z"/></svg>