<svg xmlns="http://www.w3.org/2000/svg" viewBox="0 0 512 512"><!--!Font Awesome Pro 6.6.0 by @fontawesome - https://fontawesome.com License - https://fontawesome.com/license (Commercial License) Copyright 2024 Fonticons, Inc.--><path class="fa-secondary" opacity=".4" d="M54.7 449.4c-18-19.9-15.4-50.9 5.6-67.6c.9-.7 2.1-1.6 4.5-3.3c19.5-14 39.1-27.9 58.6-41.9c6.9 7.6 15.4 16.1 25.6 26.3s18.8 18.8 26.3 25.6c-14 19.5-27.9 39.1-41.9 58.6c-1.7 2.4-2.6 3.6-3.3 4.5c-16.7 21-47.7 23.6-67.6 5.6c-.9-.8-1.9-1.8-4-3.9s-3.1-3.1-3.9-4zm281.9-326l41.9-58.6c1.7-2.4 2.6-3.6 3.3-4.5c9.2-11.6 22.8-17.6 36.5-17.6c11.1 0 22.2 3.9 31.2 12c.9 .8 1.9 1.8 4 3.9s3.1 3.1 3.9 4c18 19.9 15.4 50.9-5.6 67.6c-.9 .7-2.1 1.6-4.5 3.3l-58.6 41.9c-6.9-7.6-15.4-16.1-25.6-26.3s-18.8-18.8-26.3-25.6z"/><path class="fa-primary" d="M280.7 362.9l82.3-82.3c31-31 46.5-46.5 46.5-65.8c0-12.9-7-24.1-20.9-39.5c-6.9-7.6-15.4-16.1-25.6-26.3s-18.8-18.8-26.3-25.6c-15.3-13.9-26.6-20.9-39.5-20.9c-19.3 0-34.8 15.5-65.8 46.5l-82.3 82.3c-31 31-46.5 46.5-46.5 65.8c0 12.9 7 24.1 20.9 39.5c6.9 7.6 15.4 16.1 25.6 26.3s18.8 18.8 26.3 25.6c15.3 13.9 26.6 20.9 39.5 20.9c19.3 0 34.8-15.5 65.8-46.5z"/></svg>