<svg xmlns="http://www.w3.org/2000/svg" viewBox="0 0 512 512"><!--!Font Awesome Pro 6.6.0 by @fontawesome - https://fontawesome.com License - https://fontawesome.com/license (Commercial License) Copyright 2024 Fonticons, Inc.--><path class="fa-secondary" opacity=".4" d="M89.3 197.3L98.4 161c11.6-46.6 17.5-69.8 34.8-83.4C150.6 64 174.5 64 222.3 64l.3 0 66.8 0c48 0 72 0 89.4 13.6s23.2 36.8 34.8 83.4l9.1 36.4-333.3 0zM210.9 371.1c.8-3 1.4-6.2 1.9-9.6c.1-.7 .2-1.3 .2-2c0-.1 0-.3 0-.4c.1-.7 .1-1.3 .2-2l0-.3c0-.7 .1-1.4 .1-2.1c0-.1 0-.2 0-.4c0-.7 0-1.4 0-2.1c0-.1 0-.2 0-.3c0-5.8-.7-11.5-1.9-16.9l8.8-4.4c22.5-11.3 49-11.3 71.6 0l8.8 4.4c-.6 2.7-1.1 5.5-1.4 8.4c-.1 .7-.1 1.4-.2 2.2c0 .6-.1 1.2-.1 1.8c0 .1 0 .3 0 .4c0 .6-.1 1.2-.1 1.7l0 .3c0 .7 0 1.2 0 1.8c0 .1 0 .2 0 .3c0 .1 0 .2 0 .3c0 .7 0 1.4 0 2.2s.1 1.6 .1 2.4c.1 1.6 .3 3.3 .5 4.9c.4 3.2 1 6.3 1.8 9.4l-23.7-11.8c-13.5-6.8-29.4-6.8-42.9 0l-23.7 11.8z"/><path class="fa-primary" d="M298.7 352A74.7 74.7 0 1 1 448 352a74.7 74.7 0 1 1 -149.3 0zM26.7 213.3c0-8.8 7.2-16 16-16l426.7 0c8.8 0 16 7.2 16 16s-7.2 16-16 16l-426.7 0c-8.8 0-16-7.2-16-16zM64 352a74.7 74.7 0 1 1 149.3 0A74.7 74.7 0 1 1 64 352z"/></svg>