<svg xmlns="http://www.w3.org/2000/svg" viewBox="0 0 512 512"><!--!Font Awesome Pro 6.5.2 by @fontawesome - https://fontawesome.com License - https://fontawesome.com/license (Commercial License) Copyright 2024 Fonticons, Inc.--><path class="fa-secondary" opacity=".4" d="M117.3 181.9l0 47c2.1 2.6 3.8 5.5 5.1 8.7l23.4 57.7c2.1 5.2 3.2 7.9 4.7 10c3.8 5.2 9.5 8.7 15.8 9.9c2.8 .6 5.9 .6 12.1 .6l148.9 0c12.1 0 18.2 0 23.3-2.1c2.8-1.2 5.3-2.7 7.4-4.7c3.9-3.5 6-8.6 10.1-18.8l21.4-52.6c.2-.4 .3-.8 .5-1.1s.3-.7 .5-1.1c.4-.8 .8-1.5 1.2-2.3c.8-1.4 1.8-2.8 2.8-4.1l0-46.8c0-22.3 0-40.1-2-54.2c-2-14.5-6.4-26.5-16.3-36c-9.8-9.3-22.2-13.4-37.2-15.4c-14.6-1.9-33.3-1.9-56.8-1.9l-52.7 0c-23.5 0-42.2 0-56.7 1.9c-15.1 1.9-27.4 6-37.2 15.4c-9.9 9.4-14.3 21.4-16.3 35.9c-2 14-2 31.8-2 54.1z"/><path class="fa-primary" d="M352.7 384H144v42.7a16 16 0 1 1 -32 0v-49.6c-17.7-7.7-31.8-21.4-38.6-38.8a41.6 41.6 0 0 1 -.8-2.2L44.8 261.6c-8.9-23.8 10.9-48.3 39-48.3c17.3 0 32.7 9.7 38.6 24.2l23.4 57.7c2.1 5.2 3.2 7.9 4.7 10a25.6 25.6 0 0 0 15.8 9.9c2.8 .6 5.9 .6 12.2 .6h148.9c12.1 0 18.2 0 23.3-2.1c2.8-1.2 5.3-2.7 7.4-4.7c3.9-3.5 6-8.6 10.1-18.8l21.4-52.6c5.9-14.5 21.3-24.2 38.6-24.2c28 0 47.8 24.5 39 48.3l-23.9 64c-4.2 11.2-6.2 16.7-9 21.5a73.2 73.2 0 0 1 -34.3 30v49.6a16 16 0 1 1 -32 0v-42.8c-4 .1-8.9 .1-15.3 .1"/></svg>