<svg xmlns="http://www.w3.org/2000/svg" viewBox="0 0 512 512"><!--!Font Awesome Pro 6.6.0 by @fontawesome - https://fontawesome.com License - https://fontawesome.com/license (Commercial License) Copyright 2024 Fonticons, Inc.--><path class="fa-secondary" opacity=".4" d="M42.7 309.3a160 160 0 1 0 320 0 160 160 0 1 0 -320 0zm128-42.7c0-17.7 9.6-32 21.3-32s21.3 14.3 21.3 32s-9.6 32-21.3 32s-21.3-14.3-21.3-32zm26.7 74.7c0-8.8 7.2-16 16-16l42.7 0c8.8 0 16 7.2 16 16s-7.2 16-16 16l-42.7 0c-8.8 0-16-7.2-16-16zM256 266.7c0-17.7 9.6-32 21.3-32s21.3 14.3 21.3 32s-9.6 32-21.3 32s-21.3-14.3-21.3-32zm47.9-81.2l47.6-47.6c3.8 1.5 7.6 3 11.4 4.5c3.1 1.2 5.5 3.6 6.7 6.7l4.5 11.4-47.6 47.6c-6.8-8.3-14.4-15.9-22.6-22.6z"/><path class="fa-primary" d="M383.6 50.2c4-10 18.2-10 22.1 0l14 35.4c1.2 3.1 3.6 5.5 6.7 6.7l35.4 14c10 4 10 18.2 0 22.1l-35.4 14c-3.1 1.2-5.5 3.6-6.7 6.7l-14 35.4c-4 10-18.2 10-22.1 0l-14-35.4c-1.2-3.1-3.6-5.5-6.7-6.7l-35.4-14c-10-4-10-18.2 0-22.1l35.4-14c3.1-1.2 5.5-3.6 6.7-6.7l14-35.4zM256 357.3c8.8 0 16-7.2 16-16s-7.2-16-16-16H213.3c-8.8 0-16 7.2-16 16s7.2 16 16 16H256zm42.7-90.7c0 17.7-9.6 32-21.3 32s-21.3-14.3-21.3-32s9.6-32 21.3-32s21.3 14.3 21.3 32zM192 298.7c11.8 0 21.3-14.3 21.3-32s-9.6-32-21.3-32s-21.3 14.3-21.3 32s9.6 32 21.3 32z"/></svg>