<svg xmlns="http://www.w3.org/2000/svg" viewBox="0 0 512 512"><!--!Font Awesome Pro 6.5.2 by @fontawesome - https://fontawesome.com License - https://fontawesome.com/license (Commercial License) Copyright 2024 Fonticons, Inc.--><path class="fa-secondary" opacity=".4" d="M42.7 298.7c0-41.6 0-72.5 3.5-96c48.6 31.6 79.7 51.7 108.5 64.1l0 10.6c-.1 8.8 7 16.1 15.8 16.2s16.1-7 16.2-15.8c45.4 12 93.2 12 138.7 0c.1 8.8 7.3 15.9 16.2 15.8s15.9-7.3 15.8-16.2l0-10.6c28.8-12.4 60-32.5 108.5-64.1c3.4 23.5 3.5 54.3 3.5 95.7l0 .3c0 80.4 0 120.7-25 145.7c-25 25-65.2 25-145.7 25l-85.3 0c-80.4 0-120.7 0-145.7-25c-25-24.9-25-65.1-25-145.3l0-.4z"/><path class="fa-primary" d="M210.7 90.7c-2.9 8.3-12.1 12.7-20.4 9.8s-12.7-12.1-9.8-20.4c11.3-32 41.5-53.3 75.4-53.3s64.1 21.4 75.4 53.3c2 5.4 1 11.5-2.8 15.9s-9.6 6.5-15.2 5.4s-10.3-5.1-12.2-10.6c-6.8-19.2-24.9-32-45.3-32s-38.5 12.8-45.3 32zM58.6 172.6c-1.1-.7-2.3-1.3-3.6-1.7c3.3-6.8 7.4-12.7 12.6-17.9c25-25 65.3-25 145.7-25l85.3 0c80.4 0 120.7 0 145.7 25c5.2 5.2 9.5 11.2 12.6 17.9c-1.3 .4-2.5 1-3.6 1.7c-44.8 29.1-73 47.4-96.4 59c-1.6-8.1-9-13.6-17.2-12.9s-14.5 7.7-14.5 15.9l0 9.8c-45.2 13.7-93.4 13.7-138.7 0l0-9.8c0-8.3-6.2-15.2-14.5-16s-15.7 4.8-17.2 13c-23.4-11.7-51.5-29.9-96.3-59.1z"/></svg>