<svg xmlns="http://www.w3.org/2000/svg" viewBox="0 0 512 512"><!--!Font Awesome Pro 6.6.0 by @fontawesome - https://fontawesome.com License - https://fontawesome.com/license (Commercial License) Copyright 2024 Fonticons, Inc.--><path class="fa-secondary" opacity=".4" d="M42.7 256c0 80.5 0 120.7 25 145.7c24.9 24.9 65.1 25 145.2 25l.5 0 85.3 0c80.5 0 120.7 0 145.7-25c24.9-24.9 25-65.1 25-145.2l0-.5c0-80.5 0-120.7-25-145.7c-24.9-24.9-65.1-25-145.2-25l-.5 0-85.3 0c-80.5 0-120.7 0-145.7 25s-25 65.2-25 145.7zm64 64c0-23.6 38.2-42.7 85.3-42.7s85.3 19.1 85.3 42.7s0 42.7-85.3 42.7s-85.3-19.1-85.3-42.7zm128-128a42.7 42.7 0 1 1 -85.3 0 42.7 42.7 0 1 1 85.3 0zm48 0c0-8.8 7.2-16 16-16l106.7 0c8.8 0 16 7.2 16 16s-7.2 16-16 16l-106.7 0c-8.8 0-16-7.2-16-16zM304 256c0-8.8 7.2-16 16-16l85.3 0c8.8 0 16 7.2 16 16s-7.2 16-16 16L320 272c-8.8 0-16-7.2-16-16zm21.3 64c0-8.8 7.2-16 16-16l64 0c8.8 0 16 7.2 16 16s-7.2 16-16 16l-64 0c-8.8 0-16-7.2-16-16z"/><path class="fa-primary" d="M282.7 192c0-8.8 7.2-16 16-16H405.3c8.8 0 16 7.2 16 16s-7.2 16-16 16H298.7c-8.8 0-16-7.2-16-16zM304 256c0-8.8 7.2-16 16-16h85.3c8.8 0 16 7.2 16 16s-7.2 16-16 16H320c-8.8 0-16-7.2-16-16zm21.3 64c0-8.8 7.2-16 16-16h64c8.8 0 16 7.2 16 16s-7.2 16-16 16h-64c-8.8 0-16-7.2-16-16zM192 234.7a42.7 42.7 0 1 0 0-85.3 42.7 42.7 0 1 0 0 85.3zm0 128c85.3 0 85.3-19.1 85.3-42.7s-38.2-42.7-85.3-42.7s-85.3 19.1-85.3 42.7s0 42.7 85.3 42.7z"/></svg>