<svg xmlns="http://www.w3.org/2000/svg" viewBox="0 0 512 512"><!--!Font Awesome Pro 6.6.0 by @fontawesome - https://fontawesome.com License - https://fontawesome.com/license (Commercial License) Copyright 2024 Fonticons, Inc.--><path class="fa-secondary" opacity=".4" d="M42.7 234.3l0 .4 0 42.7c0 80.5 0 120.7 25 145.7s65.2 25 145.7 25l85.3 0c1.8 0 19.6 0 21.3-.1l0-383.8c-1.8-.1-19.5-.1-21.3-.1l-85.3 0C132.9 64 92.7 64 67.7 89c-25 25-25 65.1-25 145.3z"/><path class="fa-primary" d="M469.3 277.3V234.7c0-80.5 0-120.7-25-145.7C423.6 68.2 376.2 64.7 320 64.1V447.9c56.2-.6 103.6-4.1 124.3-24.9c25-25 25-65.2 25-145.7z"/></svg>