<svg xmlns="http://www.w3.org/2000/svg" viewBox="0 0 512 512"><!--!Font Awesome Pro 6.6.0 by @fontawesome - https://fontawesome.com License - https://fontawesome.com/license (Commercial License) Copyright 2024 Fonticons, Inc.--><path class="fa-secondary" opacity=".4" d="M58.5 363.3c0 17.2 3.4 29.9 12 40.2c19.2 23.1 54.8 23.1 126 23.1l.4 0 118.2 0c71.4 0 107.2 0 126.4-23.1s12.6-58.2-.6-128.5l-16-85.3c-9.4-49.9-14-74.9-31.8-89.7C375.3 85.4 350 85.3 299.4 85.3l-.3 0-86.2 0c-50.8 0-76.2 0-94 14.8s-22.5 39.7-31.8 89.7l-16 85.3c-7.3 38.9-12.6 67-12.6 88.3zM179.6 170.7c0-6.6 4.1-12.8 10.7-15.1c8.3-2.9 17.5 1.4 20.4 9.8c6.6 18.7 24.4 32 45.3 32s38.7-13.3 45.3-32c2.9-8.3 12.1-12.7 20.4-9.8s12.7 12.1 9.8 20.4c-11 31.1-40.6 53.3-75.4 53.3s-64.5-22.3-75.4-53.3c-.6-1.8-.9-3.6-.9-5.3z"/><path class="fa-primary" d="M256 197.3c-20.9 0-38.7-13.3-45.3-32c-2.9-8.3-12.1-12.7-20.4-9.8s-12.7 12.1-9.8 20.4c11 31.1 40.6 53.3 75.4 53.3s64.5-22.3 75.4-53.3c2.9-8.3-1.4-17.5-9.8-20.4s-17.5 1.4-20.4 9.8c-6.6 18.7-24.4 32-45.3 32z"/></svg>