<svg xmlns="http://www.w3.org/2000/svg" viewBox="0 0 512 512"><!--!Font Awesome Pro 6.6.0 by @fontawesome - https://fontawesome.com License - https://fontawesome.com/license (Commercial License) Copyright 2024 Fonticons, Inc.--><path class="fa-secondary" opacity=".4" d="M42.7 256c0 100.6 0 150.9 31.2 182.1s81.5 31.2 182.1 31.2c24.1 0 45.3 0 64-.4c0-6.1 0-11.8 0-17c0-5.3 .1-10.1 .1-14.5c.4-19.8 1.5-32.6 5.1-43.6c10.6-32.5 36-57.9 68.5-68.5c11-3.6 23.8-4.7 43.6-5.1c2.2 0 4.6-.1 7-.1s4.9 0 7.5 0c5.3 0 10.9 0 17 0c.4-18.7 .4-39.9 .4-64l0-.8c0-100.1-.1-150.2-31.2-181.3C406.9 42.7 356.6 42.7 256 42.7s-150.8 0-182.1 31.2S42.7 155.4 42.7 256z"/><path class="fa-primary" d="M469.3 320c-12.5 0-23 0-32 .2c-19.8 .4-32.6 1.5-43.6 5.1c-32.5 10.6-57.9 36-68.5 68.5c-3.6 11-4.7 23.8-5.1 43.6c-.2 9-.2 19.5-.2 32c10.3 0 20.4-1 30.1-3l0 0 1-.2 .1 0 .8-.2c56.8-12.4 101.5-57.1 113.9-113.9c2.3-10.3 3.4-21 3.4-32z"/></svg>