<svg xmlns="http://www.w3.org/2000/svg" viewBox="0 0 512 512"><!--!Font Awesome Pro 6.6.0 by @fontawesome - https://fontawesome.com License - https://fontawesome.com/license (Commercial License) Copyright 2024 Fonticons, Inc.--><path class="fa-secondary" opacity=".4" d="M44.3 220.9c-4.9 20.8 1.6 44.9 14.5 93l11 41.2c12.9 48.1 19.3 72.2 33.9 87.8c11.5 12.3 26.5 20.9 42.9 24.8c4.7 1.1 9.6 1.6 14.8 1.6c18.1 0 40.9-6.1 78.1-16.1c48.1-12.9 72.2-19.3 87.8-33.9c10.5-9.8 18.3-22.2 22.8-35.8c-19.5 2.4-43.3-4-86.7-15.6c-48.1-12.9-72.2-19.3-87.8-33.9c-12.3-11.5-20.9-26.5-24.8-42.9c-1.1-4.7-1.6-9.6-1.6-14.8c0-18.1 6.1-40.9 16.1-78.1c3.7-13.7 7.4-27.5 11-41.2c1.9-6.9 3.6-13.3 5.2-19.3c-7.5 1.9-15.8 4.1-24.9 6.6C108.7 157 84.7 163.4 69.1 178c-12.3 11.5-20.9 26.5-24.8 42.9z"/><path class="fa-primary" d="M433.3 269.8l11-41.2c12.9-48.1 19.3-72.2 14.5-93c-3.8-16.4-12.5-31.4-24.8-42.9c-15.6-14.6-39.7-21.1-87.8-33.9s-72.2-19.3-93-14.5c-16.4 3.8-31.4 12.5-42.9 24.8c-12.5 13.4-19 32.9-28.7 68.5c-1.6 6-3.4 12.4-5.2 19.3l0 0-11 41.2c-12.9 48.1-19.3 72.2-14.5 93c3.8 16.4 12.5 31.4 24.8 42.9c15.6 14.6 39.7 21.1 87.8 33.9l0 0c43.4 11.6 67.2 18 86.7 15.6c2.1-.3 4.2-.6 6.3-1.1c16.4-3.8 31.4-12.5 42.9-24.8c14.6-15.6 21.1-39.7 33.9-87.8z"/></svg>