<svg xmlns="http://www.w3.org/2000/svg" viewBox="0 0 512 512"><!--!Font Awesome Pro 6.6.0 by @fontawesome - https://fontawesome.com License - https://fontawesome.com/license (Commercial License) Copyright 2024 Fonticons, Inc.--><path class="fa-secondary" opacity=".4" d="M69.3 170.7c0 6.1 3.5 12 9.5 14.6c.2 .1 .3 .1 .3 .1l.6 .3c.5 .2 1.2 .5 2.1 .8c1.8 .7 4.4 1.6 7.9 2.7c6.9 2.2 17.1 5 30.9 7.8c27.7 5.6 69.9 11 129.4 11s104.6-5.4 135-10.9c15.2-2.7 26.8-5.5 34.6-7.6c3.9-1.1 6.9-2 9-2.6c1-.3 1.8-.6 2.4-.8l.7-.2 .2-.1c8.4-3 12.8-12.2 9.8-20.5s-12.1-12.6-20.5-9.7l-.4 .1c-.4 .1-1 .3-1.8 .6c-1.7 .5-4.2 1.3-7.7 2.2c-7 1.9-17.6 4.5-31.9 7c-28.6 5.2-71.8 10.4-129.3 10.4s-97.7-5.2-123.1-10.4c-12.7-2.6-21.8-5.1-27.5-6.9c-2.9-.9-4.9-1.6-6.2-2.1c-.6-.2-1.1-.4-1.3-.5l-.2-.1c-2.1-.9-4.3-1.4-6.4-1.4c-6.1 0-12 3.5-14.6 9.5c-.9 2.1-1.4 4.3-1.4 6.5zm86.5 122.1c-3.3 8.2 .7 17.5 9 20.8l.3 .1 .4 .2c.3 .1 .8 .3 1.3 .5c1.1 .4 2.6 .9 4.6 1.4c3.9 1.1 9.6 2.6 17.1 4c15 2.9 37.4 5.6 67.6 5.6s52.6-2.8 67.6-5.6c7.5-1.4 13.2-2.9 17.1-4c2-.6 3.5-1.1 4.6-1.4c.5-.2 1-.3 1.3-.5l.4-.2 .2-.1c8.2-3.3 12.2-12.6 9-20.8c-3.3-8.2-12.5-12.2-20.7-9c-.1 0-.3 .1-.6 .2c-.6 .2-1.6 .5-3.1 1c-2.9 .9-7.6 2.1-14.1 3.3c-13 2.5-33.3 5.1-61.6 5.1s-48.6-2.6-61.6-5.1c-6.5-1.2-11.2-2.5-14.1-3.3c-1.5-.4-2.5-.8-3.1-1c-.3-.1-.5-.2-.6-.2c-8.2-3.2-17.5 .8-20.7 9zM234 414.2c-.6 8.8 6.1 16.4 15 17c8.5 .5 18 .9 28.4 .9c13.1 0 24.4-1 34.6-2.6c8.7-1.4 14.6-9.6 13.2-18.4s-9.6-14.6-18.4-13.2c-8.4 1.4-18 2.2-29.4 2.2c-9.7 0-18.5-.3-26.3-.8c-8.8-.6-16.4 6.1-17 15z"/><path class="fa-primary" d="M92 96c7.8-2.4 18.2-4.7 30.9-6.8C156.5 83.5 203.6 80 256 80c8.8 0 16-7.2 16-16s-7.2-16-16-16c-53.6 0-102.5 3.6-138.4 9.6c-17.8 3-33.1 6.6-44.4 11.1c-5.5 2.2-11 4.9-15.4 8.5C53.6 80.6 48 86.8 48 96s5.6 15.4 9.8 18.9c4.4 3.6 9.9 6.3 15.4 8.5c11.2 4.4 26.6 8.1 44.4 11.1c35.9 6 84.8 9.6 138.4 9.6s102.5-3.6 138.4-9.6c17.8-3 33.1-6.6 44.4-11.1c5.5-2.2 11-4.9 15.4-8.5c4.2-3.4 9.8-9.7 9.8-18.9c0-11.4-8.5-18.3-13.4-21.5c-5.8-3.7-13.3-6.7-21.3-9.1c-16.3-5-38.7-9-64.9-11.9c-8.8-1-16.7 5.3-17.7 14.1s5.3 16.7 14.1 17.7c25.3 2.8 45.5 6.6 59.1 10.7c0 0 0 0 0 0c-7.8 2.4-18.2 4.7-30.9 6.8c-33.6 5.6-80.7 9.2-133.1 9.2s-99.5-3.5-133.1-9.2c-12.7-2.1-23-4.5-30.9-6.8zm342.3 6.2s-.1-.1-.3-.2c.2 .2 .3 .2 .3 .2zM140.6 224.8c-4.6-5.9-13-7.9-19.9-4.4c-7.9 4-10.9 13.7-6.9 21.6l14.2-7.3c-14.2 7.3-14.2 7.4-14.2 7.4c0 0 0 0 0 0l0 .1 .1 .2 .2 .3c.1 .2 .3 .4 .4 .7c.3 .5 .6 .9 1 1.4c.7 1 1.6 2 2.7 3c2.2 2.1 5.1 4.2 8.9 6.3c7.6 4.1 19.5 8.4 38.4 11.8c8.7 1.5 17-4.3 18.5-13s-4.3-17-13-18.5c-16.8-3-25.1-6.4-28.7-8.4c-.9-.5-1.5-.9-1.8-1.1zm250.7-4.4c-6.9-3.6-15.3-1.6-19.9 4.4l-.1 .1c-1.1 .8-4.6 2.8-12.1 5.1c-15.2 4.7-45.4 10-103.2 10c-8.8 0-16 7.2-16 16s7.2 16 16 16c59.3 0 93-5.4 112.6-11.4c9.8-3 16.5-6.3 21.1-9.5c2.3-1.6 4.1-3.2 5.5-4.8c.7-.8 1.3-1.5 1.8-2.3c.3-.4 .5-.7 .7-1.1c.1-.2 .2-.3 .3-.5l.1-.2 .1-.1 0-.1s0-.1-14.2-7.4l14.2 7.3c4-7.9 1-17.5-6.9-21.6zM356.5 346.8c2.9 8.4-1.6 17.5-10 20.3c-17.1 5.8-38.1 11.5-69.2 11.5c-29.8 0-51.9-2.7-66.9-5.5c-8.7-1.6-14.4-10-12.8-18.7s10-14.4 18.7-12.8c13 2.4 33.2 4.9 61.1 4.9c26.6 0 44-4.7 58.8-9.8c8.4-2.9 17.5 1.6 20.3 10zM261.3 469.3c0-8.8 7.2-16 16-16l10.7 0c8.8 0 16 7.2 16 16s-7.2 16-16 16l-10.7 0c-8.8 0-16-7.2-16-16z"/></svg>