<svg xmlns="http://www.w3.org/2000/svg" viewBox="0 0 512 512"><!--!Font Awesome Pro 6.6.0 by @fontawesome - https://fontawesome.com License - https://fontawesome.com/license (Commercial License) Copyright 2024 Fonticons, Inc.--><path class="fa-secondary" opacity=".4" d="M42.7 256c0 80.5 0 120.7 25 145.7c24.9 24.9 65.1 25 145.2 25l.5 0 90.7-.1 0-341.2-90.7 0c-80.5 0-120.7 0-145.7 25s-25 65.2-25 145.7zM192 256a21.3 21.3 0 1 1 -42.7 0 21.3 21.3 0 1 1 42.7 0zm85.3 0a21.3 21.3 0 1 1 -42.7 0 21.3 21.3 0 1 1 42.7 0zM336 85.5l0 341.1c56.2-.6 87.6-4.1 108.3-24.9c24.9-24.9 25-65.1 25-145.2l0-.5c0-80.5 0-120.7-25-145.7C423.6 89.6 392.1 85.9 336 85.5z"/><path class="fa-primary" d="M277.3 256a21.3 21.3 0 1 0 -42.7 0 21.3 21.3 0 1 0 42.7 0zM170.7 277.3a21.3 21.3 0 1 0 0-42.7 21.3 21.3 0 1 0 0 42.7zM320 26.7c8.8 0 16 7.2 16 16l0 42.8 0 341.1 0 42.8c0 8.8-7.2 16-16 16s-16-7.2-16-16l0-426.7c0-8.8 7.2-16 16-16z"/></svg>