<svg xmlns="http://www.w3.org/2000/svg" viewBox="0 0 512 512"><!--!Font Awesome Pro 6.6.0 by @fontawesome - https://fontawesome.com License - https://fontawesome.com/license (Commercial License) Copyright 2024 Fonticons, Inc.--><path class="fa-secondary" opacity=".4" d="M48 320l0 1.2c0 29.2 0 52.7 2.5 71.2c2.6 19.2 8.1 35.4 20.9 48.2s29 18.4 48.2 20.9c18.5 2.5 42 2.5 71.2 2.5l130.3 0c29.3 0 52.7 0 71.2-2.5c19.2-2.6 35.4-8.1 48.2-20.9s18.4-29 20.9-48.2c2.5-18.5 2.5-42 2.5-71.2l0-1.2c0-8.8-7.2-16-16-16s-16 7.2-16 16c0 30.6 0 52-2.2 68.1c-2.1 15.7-6 23.9-11.9 29.8s-14.2 9.8-29.8 11.9C372 432 350.6 432 320 432l-128 0c-30.6 0-52 0-68.1-2.2c-15.7-2.1-23.9-6-29.8-11.9s-9.8-14.2-11.9-29.8C80 372 80 350.6 80 320c0-8.8-7.2-16-16-16s-16 7.2-16 16z"/><path class="fa-primary" d="M256 48c4.5 0 8.8 1.9 11.8 5.2l85.3 93.3c6 6.5 5.5 16.6-1 22.6s-16.6 5.5-22.6-1L272 105.2l0 236.1c0 8.8-7.2 16-16 16s-16-7.2-16-16l0-236.1-57.5 62.9c-6 6.5-16.1 7-22.6 1s-7-16.1-1-22.6l85.3-93.3c3-3.3 7.3-5.2 11.8-5.2z"/></svg>