<svg xmlns="http://www.w3.org/2000/svg" viewBox="0 0 512 512"><!--!Font Awesome Pro 6.6.0 by @fontawesome - https://fontawesome.com License - https://fontawesome.com/license (Commercial License) Copyright 2024 Fonticons, Inc.--><path class="fa-secondary" opacity=".4" d="M240 202.7c0-20.3 6-50.5 24.3-76c19-26.3 50.4-46.7 98.3-46.7c8.8 0 16 7.2 16 16s-7.2 16-16 16c-37.5 0-59.3 15.2-72.3 33.3c-13.6 18.9-18.3 42.1-18.3 57.3l0 174.7-16 16-16-16 0-174.7zm13.9 229.2c.7 .1 1.4 .1 2.1 .1c-.4 0-.7 0-1.1 0s-.7-.1-1.1-.1z"/><path class="fa-primary" d="M138 298c-6.2 6.2-6.2 16.4 0 22.6L244.7 427.3c6.2 6.2 16.4 6.2 22.6 0L374 320.6c6.2-6.2 6.2-16.4 0-22.6s-16.4-6.2-22.6 0L256 393.4 160.6 298c-6.2-6.2-16.4-6.2-22.6 0z"/></svg>