<svg xmlns="http://www.w3.org/2000/svg" viewBox="0 0 512 512"><!--!Font Awesome Pro 6.6.0 by @fontawesome - https://fontawesome.com License - https://fontawesome.com/license (Commercial License) Copyright 2024 Fonticons, Inc.--><path class="fa-secondary" opacity=".4" d="M52.2 330.3l54.5-221.1C117.3 75.3 136.4 64 160 64l192 0c23.6 0 42.7 11.3 53.3 45.2c18.2 73.7 36.3 147.4 54.5 221.1c-12.8-24.1-37.2-40.4-65.1-40.4c-92.5 0-184.9 0-277.3 0c-28 0-52.3 16.3-65.1 40.4z"/><path class="fa-primary" d="M394.7 289.9l-277.3 0c-28 0-52.3 16.3-65.1 40.4c-6.1 11.4-9.5 24.6-9.5 38.7c0 43.7 33.4 79.1 74.7 79.1l277.3 0c41.2 0 74.7-35.4 74.7-79.1c0-14-3.5-27.2-9.5-38.7c-12.8-24.1-37.2-40.4-65.1-40.4zM384 346.7c8.8 0 16 7.2 16 16l0 21.3c0 8.8-7.2 16-16 16s-16-7.2-16-16l0-21.3c0-8.8 7.2-16 16-16zm-37.3 16l0 21.3c0 8.8-7.2 16-16 16s-16-7.2-16-16l0-21.3c0-8.8 7.2-16 16-16s16 7.2 16 16zm-69.3-16c8.8 0 16 7.2 16 16l0 21.3c0 8.8-7.2 16-16 16s-16-7.2-16-16l0-21.3c0-8.8 7.2-16 16-16zm-37.3 16l0 21.3c0 8.8-7.2 16-16 16s-16-7.2-16-16l0-21.3c0-8.8 7.2-16 16-16s16 7.2 16 16z"/></svg>