<svg xmlns="http://www.w3.org/2000/svg" viewBox="0 0 512 512"><!--!Font Awesome Pro 6.6.0 by @fontawesome - https://fontawesome.com License - https://fontawesome.com/license (Commercial License) Copyright 2024 Fonticons, Inc.--><path class="fa-secondary" opacity=".4" d="M21.3 256c0 90.5 0 135.8 27.5 163.9C76.3 447.9 120.4 448 208.6 448l.5 0 93.9 0c88.5 0 132.7 0 160.2-28.1c27.4-28.1 27.5-73.2 27.5-163.4l0-.5c0-90.5 0-135.8-27.5-163.9C435.7 64.1 391.6 64 303.5 64l-.5 0-93.9 0C120.6 64 76.3 64 48.8 92.1S21.3 165.5 21.3 256zm76.3-98.1c0-4 1.3-8 4.1-11.3c6.2-7.5 17.3-8.5 24.8-2.3l50.7 42.2c21.9 18.2 37.1 30.9 49.9 39.1c12.4 8 20.8 10.7 28.9 10.7s16.5-2.7 28.9-10.7c12.8-8.3 28-20.9 49.9-39.1l50.7-42.2c7.5-6.2 18.6-5.2 24.8 2.3s5.2 18.6-2.3 24.8l-51.5 43c-20.8 17.3-37.7 31.4-52.5 41c-15.5 10-30.6 16.3-48 16.3s-32.5-6.3-48-16.3c-14.9-9.6-31.7-23.6-52.5-41l-51.5-43c-4.2-3.5-6.3-8.5-6.3-13.5z"/><path class="fa-primary" d="M408.1 171.4c7.5-6.2 8.5-17.3 2.3-24.8s-17.3-8.5-24.8-2.3l-50.7 42.2c-21.9 18.2-37.1 30.9-49.9 39.1c-12.4 8-20.8 10.7-28.9 10.7s-16.5-2.7-28.9-10.7c-12.8-8.3-28-20.9-49.9-39.1l-50.7-42.2c-7.5-6.2-18.6-5.2-24.8 2.3s-5.2 18.6 2.3 24.8l51.5 43c20.8 17.3 37.7 31.4 52.5 41c15.5 10 30.6 16.3 48 16.3s32.5-6.3 48-16.3c14.9-9.6 31.7-23.6 52.5-41l51.5-43z"/></svg>