<svg xmlns="http://www.w3.org/2000/svg" viewBox="0 0 512 512"><!--!Font Awesome Pro 6.6.0 by @fontawesome - https://fontawesome.com License - https://fontawesome.com/license (Commercial License) Copyright 2024 Fonticons, Inc.--><path class="fa-secondary" opacity=".4" d="M256 42.7l0 384 42.7 0c38.5 0 67.8 0 90.7-2.7l0 45.4c0 8.8 7.2 16 16 16s16-7.2 16-16l0-52.8c9-3.6 16.5-8.4 23-14.9c25-25 25-65.2 25-145.7l0-42.7 0-.5c0-80.1-.1-120.2-25-145.1c-25-25-65.2-25-145.7-25l-42.7 0zM304 192c0-8.8 7.2-16 16-16s16 7.2 16 16l0 85.3c0 8.8-7.2 16-16 16s-16-7.2-16-16l0-85.3z"/><path class="fa-primary" d="M256 42.7l-42.7 0c-80.5 0-120.7 0-145.7 25s-25 65.2-25 145.7l0 42.7c0 80.5 0 120.7 25 145.7c6.5 6.5 14 11.3 23 14.9l0 52.8c0 8.8 7.2 16 16 16s16-7.2 16-16l0-45.4c22.8 2.7 52.1 2.7 90.7 2.7l42.7 0 0-384zM192 176c8.8 0 16 7.2 16 16l0 85.3c0 8.8-7.2 16-16 16s-16-7.2-16-16l0-85.3c0-8.8 7.2-16 16-16zm144 16c0-8.8-7.2-16-16-16s-16 7.2-16 16v85.3c0 8.8 7.2 16 16 16s16-7.2 16-16V192z"/></svg>