<svg xmlns="http://www.w3.org/2000/svg" viewBox="0 0 512 512"><!--!Font Awesome Pro 6.6.0 by @fontawesome - https://fontawesome.com License - https://fontawesome.com/license (Commercial License) Copyright 2024 Fonticons, Inc.--><path class="fa-secondary" opacity=".4" d="M70.6 48.9l.1 .2 .3 .8c.3 .7 .7 1.8 1.3 3.2c1.1 2.8 2.7 6.9 4.7 12.1c3.9 10.4 9.1 25.2 14.3 42.4c10.5 34.8 20.7 78.8 20.7 117.9c0 12.7-2.4 24.3-6.6 35.8l301.1 0c-4.2-11.5-6.6-23.2-6.6-35.8c0-39.1 10.1-83 20.7-117.9c5.2-17.3 10.4-32 14.3-42.4c1.9-5.2 3.6-9.3 4.7-12.1c.6-1.4 1-2.5 1.3-3.2l.3-.8 .1-.2c3.5-8.1-.3-17.5-8.4-21s-17.5 .3-21 8.5c-.1 .2-.1 .3-.1 .3l-.4 .9c-.3 .8-.8 2-1.4 3.5c-1.2 3-2.9 7.4-5 12.8c-4.1 10.9-9.5 26.4-15 44.4c-10.3 34-20.9 78.5-21.9 120.3l-224.2 0c-1.1-41.8-11.7-86.2-21.9-120.3c-5.5-18.1-10.9-33.5-15-44.4c-2-5.5-3.8-9.8-5-12.8c-.6-1.5-1.1-2.7-1.4-3.5l-.4-.9-.2-.4c-3.5-8.1-12.9-11.9-21-8.4s-11.9 12.9-8.4 21z"/><path class="fa-primary" d="M465.8 372.5c-9.5-22.3-21.8-42.6-32.8-60.7c-3.9-6.5-7.7-12.6-11.1-18.5H90c-3.4 5.9-7.1 12-11.1 18.5c-11 18-23.3 38.4-32.8 60.7c-11.4 26.9-19.5 58.1-19.5 96.8c0 8.8 7.2 16 16 16s16-7.2 16-16c0-31.8 6.2-57.5 15.1-79.9c115.1 3.1 159.1 61.2 167 84.9c2.2 6.5 8.3 10.9 15.2 10.9s13-4.4 15.2-10.9c7.9-23.7 52-81.8 167-84.9c8.9 22.4 15.1 48.1 15.1 79.9c0 8.8 7.2 16 16 16s16-7.2 16-16c0-38.7-8.1-70-19.5-96.8z"/></svg>