<svg xmlns="http://www.w3.org/2000/svg" viewBox="0 0 512 512"><!--!Font Awesome Pro 6.6.0 by @fontawesome - https://fontawesome.com License - https://fontawesome.com/license (Commercial License) Copyright 2024 Fonticons, Inc.--><path class="fa-secondary" opacity=".4" d="M256 42.7a213.3 213.3 0 1 0 0 426.7 213.3 213.3 0 1 0 0-426.7z"/><path class="fa-primary" d="M157.4 248.1l-16 0 0 0 16 0zm0 19.8l-12 10.6c2.9 3.3 7 5.2 11.3 5.4s8.6-1.4 11.7-4.4l-11.1-11.5zm45.7-21.6c6.4-6.1 6.6-16.2 .5-22.6s-16.2-6.6-22.6-.5l22.1 23.1zM140 224.1c-5.9-6.6-16-7.2-22.6-1.4s-7.2 16-1.4 22.6l24-21.2zm178.6-31.9c6 6.5 16.1 6.9 22.6 .9s6.9-16.1 .9-22.6l-23.5 21.7zm-61.6-58.9c-63.7 0-115.5 51.3-115.5 114.8h32c0-45.6 37.3-82.8 83.5-82.8v-32zM141.4 248.1l0 19.8 32 0 0-19.8-32 0zm27.1 31.3l34.6-33.2-22.1-23.1-34.6 33.2 22.1 23.1zm.9-22.2L140 224.1l-24 21.2 29.4 33.2 24-21.2zM342 170.5c-21.1-22.8-51.4-37.1-85.1-37.1v32c24.4 0 46.3 10.3 61.6 26.9L342 170.5zm12.5 73.7l12-10.6c-2.9-3.3-7-5.2-11.3-5.4s-8.6 1.4-11.7 4.4l11.1 11.5zm-45.6 21.6c-6.4 6.1-6.6 16.2-.5 22.6s16.2 6.6 22.6 .5l-22.2-23.1zM372 287.9c5.9 6.6 16 7.2 22.6 1.3s7.2-16 1.3-22.6L372 287.9zM193 320.1c-6-6.4-16.2-6.8-22.6-.7s-6.8 16.2-.7 22.6L193 320.1zm61.6 58.6c63.8 0 115.9-51.2 115.9-114.8h-32c0 45.5-37.4 82.8-83.9 82.8v32zM370.5 263.9V244.1h-32v19.8h32zm-27.1-31.3l-34.5 33.2 22.2 23.1 34.5-33.2-22.2-23.1zm-.9 22.2L372 287.9 396 266.7l-29.5-33.2-23.9 21.3zM169.7 342c21.2 22.6 51.4 36.7 84.9 36.7v-32c-24.4 0-46.3-10.2-61.6-26.6L169.7 342z"/></svg>