<svg xmlns="http://www.w3.org/2000/svg" viewBox="0 0 512 512"><!--!Font Awesome Pro 6.6.0 by @fontawesome - https://fontawesome.com License - https://fontawesome.com/license (Commercial License) Copyright 2024 Fonticons, Inc.--><path class="fa-secondary" opacity=".4" d="M64 298.7a192 192 0 1 0 384 0 192 192 0 1 0 -384 0zm106.7-53.4c0-9.9 0-14.9 1.6-18.8c2.2-5.2 6.3-9.4 11.5-11.5c3.9-1.6 8.9-1.6 18.8-1.6s14.9 0 18.8 1.6c5.2 2.2 9.4 6.3 11.5 11.5c1.6 3.9 1.6 8.9 1.6 18.8l0 106.7c0 9.9 0 14.9-1.6 18.8c-2.2 5.2-6.3 9.4-11.5 11.5c-3.9 1.6-8.9 1.6-18.9 1.6c-9.9 0-14.9 0-18.8-1.6c-5.2-2.2-9.4-6.3-11.5-11.5c-1.6-3.9-1.6-8.9-1.6-18.8l0-106.7zm106.7 .1c0-9.9 0-14.9 1.6-18.8c2.2-5.2 6.3-9.4 11.5-11.5c3.9-1.6 8.9-1.6 18.8-1.6s14.9 0 18.8 1.6c5.2 2.2 9.4 6.3 11.5 11.5c1.6 3.9 1.6 8.9 1.6 18.8l0 106.7c0 10 0 14.9-1.6 18.8c-2.2 5.2-6.3 9.4-11.5 11.5c-3.9 1.6-8.9 1.6-18.9 1.6c-9.9 0-14.9 0-18.8-1.6c-5.2-2.2-9.4-6.3-11.5-11.5c-1.6-3.9-1.6-8.9-1.6-18.8l0-106.7z"/><path class="fa-primary" d="M197.3 58.7c0-8.8 7.2-16 16-16l85.3 0c8.8 0 16 7.2 16 16s-7.2 16-16 16l-85.3 0c-8.8 0-16-7.2-16-16zM234.7 352V245.3v0c0-9.9 0-14.9-1.6-18.8c-2.2-5.2-6.3-9.4-11.5-11.5c-3.9-1.6-8.9-1.6-18.8-1.6s-14.9 0-18.8 1.6c-5.2 2.2-9.4 6.3-11.5 11.5c-1.6 3.9-1.6 8.9-1.6 18.8V352c0 9.9 0 14.9 1.6 18.8c2.2 5.2 6.3 9.4 11.5 11.5c3.9 1.6 8.9 1.6 18.8 1.6s14.9 0 18.8-1.6c5.2-2.2 9.4-6.3 11.5-11.5c1.6-3.9 1.6-8.9 1.6-18.8v0zm106.7 0V245.3c0-9.9 0-14.9-1.6-18.8c-2.2-5.2-6.3-9.4-11.5-11.5c-3.9-1.6-8.9-1.6-18.8-1.6s-14.9 0-18.8 1.6c-5.2 2.2-9.4 6.3-11.5 11.5c-1.6 3.9-1.6 8.9-1.6 18.8V352c0 9.9 0 14.9 1.6 18.8c2.2 5.2 6.3 9.4 11.5 11.5c3.9 1.6 8.9 1.6 18.8 1.6s14.9 0 18.8-1.6c5.2-2.2 9.4-6.3 11.5-11.5c1.6-3.9 1.6-8.9 1.6-18.8z"/></svg>