<svg xmlns="http://www.w3.org/2000/svg" viewBox="0 0 512 512"><!--!Font Awesome Pro 6.6.0 by @fontawesome - https://fontawesome.com License - https://fontawesome.com/license (Commercial License) Copyright 2024 Fonticons, Inc.--><path class="fa-secondary" opacity=".4" d="M469.3 256A213.3 213.3 0 1 1 42.7 256a213.3 213.3 0 1 1 426.7 0zM90.7 256c0 91.3 74 165.3 165.3 165.3s165.3-74 165.3-165.3s-74-165.3-165.3-165.3c-8.8 0-16 7.2-16 16s7.2 16 16 16c73.6 0 133.3 59.7 133.3 133.3s-59.7 133.3-133.3 133.3s-133.3-59.7-133.3-133.3c0-8.8-7.2-16-16-16s-16 7.2-16 16zM240 170.7c0 8.8 7.2 16 16 16c38.3 0 69.3 31 69.3 69.3s-31 69.3-69.3 69.3c-8.8 0-16 7.2-16 16s7.2 16 16 16c56 0 101.3-45.4 101.3-101.3s-45.4-101.3-101.3-101.3c-8.8 0-16 7.2-16 16z"/><path class="fa-primary" d="M240 106.7c0-8.8 7.2-16 16-16c91.3 0 165.3 74 165.3 165.3s-74 165.3-165.3 165.3s-165.3-74-165.3-165.3c0-8.8 7.2-16 16-16s16 7.2 16 16c0 73.6 59.7 133.3 133.3 133.3s133.3-59.7 133.3-133.3s-59.7-133.3-133.3-133.3c-8.8 0-16-7.2-16-16zm16 48c-8.8 0-16 7.2-16 16s7.2 16 16 16c38.3 0 69.3 31 69.3 69.3s-31 69.3-69.3 69.3c-8.8 0-16 7.2-16 16s7.2 16 16 16c56 0 101.3-45.4 101.3-101.3s-45.4-101.3-101.3-101.3z"/></svg>