<svg xmlns="http://www.w3.org/2000/svg" viewBox="0 0 512 512"><!--!Font Awesome Pro 6.6.0 by @fontawesome - https://fontawesome.com License - https://fontawesome.com/license (Commercial License) Copyright 2024 Fonticons, Inc.--><path class="fa-secondary" opacity=".4" d="M85.3 209.1l0 86.7c0 81.8 0 122.7 25 148.1s65.2 25.4 145.7 25.4s120.7 0 145.7-25.4s25-66.3 25-148.1l0-86.7 0-.4c0-81.5 0-122.3-25-147.6c-8.2-8.3-18-13.9-30.2-17.7C364 41.1 356.2 44.6 352 51l-3.3 5C335.2 76.7 330.5 84 319.5 90.9c-2.3 1.5-4.8 2.8-7.3 4c-12.6 5.8-27.2 5.8-56.2 5.8s-43.6 0-56.2-5.8c-2.5-1.2-4.9-2.5-7.3-4c-10.9-6.9-15.7-14.1-29.2-34.8L160 51c-4.6-6.5-12.6-9.8-20.1-7.5c-12 3.8-21.6 9.3-29.6 17.4c-25 25.4-25 66.3-25 148.1zM176 405c0-8.9 7.2-16.1 16-16.1l128 0c8.8 0 16 7.2 16 16.1s-7.2 16.1-16 16.1l-128 0c-8.8 0-16-7.2-16-16.1z"/><path class="fa-primary" d="M176 405c0-8.9 7.2-16.1 16-16.1H320c8.8 0 16 7.2 16 16.1s-7.2 16.1-16 16.1H192c-8.8 0-16-7.2-16-16.1z"/></svg>