<svg xmlns="http://www.w3.org/2000/svg" viewBox="0 0 640 512"><!--!Font Awesome Pro 6.6.0 by @fontawesome - https://fontawesome.com License - https://fontawesome.com/license (Commercial License) Copyright 2024 Fonticons, Inc.--><path d="M0 64C0 28.7 28.7 0 64 0L512 0c35.3 0 64 28.7 64 64l0 147.2c-19.5-10-41.1-16.4-64-18.5L512 64 64 64l0 288 256.7 0c-.5 5.3-.7 10.6-.7 16c0 59.5 29.6 112.1 74.8 144L160 512c-17.7 0-32-14.3-32-32s14.3-32 32-32l69.3 0L240 416 64 416c-35.3 0-64-28.7-64-64L0 64zM352 368c0-79.5 64.5-144 144-144s144 64.5 144 144s-64.5 144-144 144s-144-64.5-144-144zm64 0c0 8.8 7.2 16 16 16l89.4 0-28.7 28.7c-6.2 6.2-6.2 16.4 0 22.6s16.4 6.2 22.6 0l56-56c6.2-6.2 6.2-16.4 0-22.6l-56-56c-6.2-6.2-16.4-6.2-22.6 0s-6.2 16.4 0 22.6L521.4 352 432 352c-8.8 0-16 7.2-16 16z"/></svg>