<svg xmlns="http://www.w3.org/2000/svg" viewBox="0 0 512 512"><!--!Font Awesome Pro 6.6.0 by @fontawesome - https://fontawesome.com License - https://fontawesome.com/license (Commercial License) Copyright 2024 Fonticons, Inc.--><path class="fa-secondary" opacity=".4" d="M26.7 341.3c0 8.8 7.2 16 16 16l72.6 0-24 86.4c-2.4 8.5 2.6 17.3 11.1 19.7s17.3-2.6 19.7-11.1l26.4-95c35.8 0 71.7 0 107.5 0l0-10.7c0-4 0-7.7 0-11.3c0-3.6 0-6.9 .1-10l-98.7 0L189.9 208l158.8 0-13.3 48c3.5 0 7.1 0 11 0c.1 0 .2 0 .3 0c7.3 0 14.6 0 21.9 0l13.3-48 87.4 0c8.8 0 16-7.2 16-16s-7.2-16-16-16l-78.5 0L420.7 68.3c2.4-8.5-2.6-17.3-11.1-19.7s-17.3 2.6-19.7 11.1L357.6 176l-158.8 0L228.7 68.3c2.4-8.5-2.6-17.3-11.1-19.7s-17.3 2.6-19.7 11.1L165.6 176l-80.3 0c-8.8 0-16 7.2-16 16s7.2 16 16 16l71.4 0L124.1 325.3l-81.5 0c-8.8 0-16 7.2-16 16zM283.3 443.7c-2.4 8.5 2.6 17.3 11.1 19.7s17.3-2.6 19.7-11.1l4.2-15c-.2 0-.3 0-.5 0c-13.4-.2-21.8-1.1-28.8-4c-.8-.3-1.7-.7-2.5-1.1l-3.2 11.5z"/><path class="fa-primary" d="M380 453l-5.8 9.8c-5.2 8.7-18 8.7-23.2 0l-5.8-9.8c-4.5-7.6-6.7-11.4-10.3-13.5s-8.1-2.2-17.2-2.3c-13.4-.2-21.8-1.1-28.8-4c-13.1-5.4-23.5-15.8-28.9-28.9c-4.1-9.8-4.1-22.2-4.1-47.1V346.7c0-34.9 0-52.4 7.9-65.2c4.4-7.2 10.4-13.2 17.6-17.6c12.8-7.9 30.3-7.9 65.2-7.9h32c34.9 0 52.4 0 65.2 7.9c7.2 4.4 13.2 10.4 17.6 17.6c7.9 12.8 7.9 30.3 7.9 65.2v10.7c0 24.9 0 37.3-4.1 47.1c-5.4 13.1-15.8 23.5-28.9 28.9c-7 2.9-15.4 3.7-28.8 4c-9.1 .2-13.6 .2-17.2 2.3s-5.8 5.9-10.3 13.5z"/></svg>