<svg xmlns="http://www.w3.org/2000/svg" viewBox="0 0 512 512"><!--!Font Awesome Pro 6.6.0 by @fontawesome - https://fontawesome.com License - https://fontawesome.com/license (Commercial License) Copyright 2024 Fonticons, Inc.--><path class="fa-secondary" opacity=".4" d="M69.3 330.7c0 50.1 40.6 90.7 90.7 90.7l228 0 16-16-16-16-228 0c-32.4 0-58.7-26.3-58.7-58.7s26.3-58.7 58.7-58.7l192 0c50.1 0 90.7-40.6 90.7-90.7s-40.6-90.7-90.7-90.7l-184.4 0c2 4.9 3.1 10.3 3.1 16c0 .7 0 1.4-.1 2.1s-.1 1.4-.2 2.1c-.1 1.4-.3 2.7-.6 4.1c-.5 2.7-1.3 5.3-2.3 7.7l184.4 0c32.4 0 58.7 26.3 58.7 58.7s-26.3 58.7-58.7 58.7l-192 0c-50.1 0-90.7 40.6-90.7 90.7z"/><path class="fa-primary" d="M372.7 351.4c6.2-6.2 16.4-6.2 22.6 0L438 394c6.2 6.2 6.2 16.4 0 22.6l-42.7 42.7c-6.2 6.2-16.4 6.2-22.6 0s-6.2-16.4 0-22.6L404 405.3 372.7 374c-6.2-6.2-6.2-16.4 0-22.6zM85.3 106.7a42.7 42.7 0 1 1 85.3 0 42.7 42.7 0 1 1 -85.3 0z"/></svg>