<svg xmlns="http://www.w3.org/2000/svg" viewBox="0 0 512 512"><!--!Font Awesome Pro 6.6.0 by @fontawesome - https://fontawesome.com License - https://fontawesome.com/license (Commercial License) Copyright 2024 Fonticons, Inc.--><path class="fa-secondary" opacity=".4" d="M74.3 125.1c28.8 29.4 57.5 58.8 86.3 88.2l190.8 0c28.8-29.4 57.5-58.8 86.3-88.2c22.3-22.8 6.1-61.1-26-61.1L100.3 64c-32 0-48.3 38.3-26 61.1zM240 294.5c.2 .3 .5 .5 .8 .8c-.3-.3-.5-.5-.8-.8zm0 0L240 432c10.7 0 21.3 0 32 0l0-137.5c-.2 .2-.5 .5-.7 .8c-8.4 8.6-22.1 8.6-30.5 0c-.3-.3-.5-.5-.8-.8z"/><path class="fa-primary" d="M149.5 448c0-8.8 7.2-16 16-16l181.1 0c8.8 0 16 7.2 16 16s-7.2 16-16 16l-181.1 0c-8.8 0-16-7.2-16-16zm91.3-152.7c8.4 8.6 22.1 8.6 30.5 0l80.1-81.9H160.6l80.1 81.9z"/></svg>