<svg xmlns="http://www.w3.org/2000/svg" viewBox="0 0 512 512"><!--!Font Awesome Pro 6.5.2 by @fontawesome - https://fontawesome.com License - https://fontawesome.com/license (Commercial License) Copyright 2024 Fonticons, Inc.--><path class="fa-secondary" opacity=".4" d="M52.2 330.3c6.4-12.1 15.7-22.2 26.9-29.2c11.2-7.1 24.3-11.1 38.3-11.1l277.3 0c28 0 52.3 16.3 65.1 40.4c-18.2-73.7-36.3-147.4-54.5-221.1C394.7 75.3 375.6 64 352 64L160 64c-23.6 0-42.7 11.3-53.3 45.2C88.5 182.9 70.3 256.6 52.2 330.3z"/><path class="fa-primary" d="M394.7 289.9l-277.3 0c-28 0-52.4 16.3-65.1 40.4c-6.3 11.9-9.6 25.2-9.5 38.7c0 43.6 33.4 79.1 74.7 79.1l277.3 0c41.2 0 74.7-35.4 74.7-79.1c0-13.5-3.2-26.8-9.5-38.7c-12.8-24.1-37.2-40.4-65.1-40.4zM384 346.7c8.8 0 16 7.2 16 16l0 21.3c0 8.8-7.2 16-16 16s-16-7.2-16-16l0-21.3c0-8.8 7.2-16 16-16zM346.7 384c0 8.8-7.2 16-16 16s-16-7.2-16-16l0-21.3c0-8.8 7.2-16 16-16s16 7.2 16 16zm-69.3-37.3c8.8 0 16 7.2 16 16l0 21.3c0 8.8-7.2 16-16 16s-16-7.2-16-16l0-21.3c0-8.8 7.2-16 16-16zM240 384c0 8.8-7.2 16-16 16s-16-7.2-16-16l0-21.3c0-8.8 7.2-16 16-16s16 7.2 16 16z"/></svg>