<svg xmlns="http://www.w3.org/2000/svg" viewBox="0 0 512 512"><!--!Font Awesome Pro 6.6.0 by @fontawesome - https://fontawesome.com License - https://fontawesome.com/license (Commercial License) Copyright 2024 Fonticons, Inc.--><path class="fa-secondary" opacity=".4" d="M440.6 265.2l18-70.3c9.4-36.7 14.1-55 7.9-69.4c-2.1-4.8-5-9.2-8.6-13c-10.7-11.2-28.7-13.1-64.9-17c-26.8-2.9-40.1-4.3-53.2-7.5c-4.5-1.1-9-2.4-13.5-3.8c-12.8-4.1-25.1-9.8-49.6-21.3c-33.2-15.5-49.7-23.3-64.3-19.2c-4.9 1.4-9.5 3.7-13.6 6.8c-12.3 9.2-17 27.6-26.4 64.2L157.6 173l-1 3.4c5.6-.9 10.6-1.8 15.4-3c4.5-1.1 9-2.4 13.5-3.8c12.8-4.1 25.1-9.8 49.6-21.3c33.1-15.5 49.7-23.3 64.3-19.2c4.9 1.4 9.5 3.7 13.6 6.8c12.3 9.2 17 27.6 26.4 64.2l18 70.3c9.5 37 5 69.4-6.2 96.7l.7 .3c37.1-16 74.2-46 88.6-102.1zm-105-80.4c.7 .8 1.6 1.6 2.5 2.2c7.2 5.1 17.2 3.5 22.3-3.7c3.7-5.2 11.2-8.3 19.3-6.2s13 8.7 13.6 15c.9 8.8 8.7 15.2 17.5 14.4s15.2-8.7 14.4-17.5c-1.9-20.1-16.7-37.3-37.2-42.8s-41.8 2-53.6 18.5c-1.3 1.9-2.2 3.9-2.7 6.1c1.2 4.3 2.5 8.9 3.9 14zM218.5 156.1c4.9-2.3 10.4-4.8 16.7-7.8c25.5-11.9 41.2-19.3 53.7-20.2c-6.4-7-14.8-12.3-24.7-14.9c-20.5-5.5-41.8 2-53.6 18.5c-5.1 7.2-3.5 17.2 3.7 22.3c1.3 .9 2.7 1.6 4.1 2.1z"/><path class="fa-primary" d="M339.5 200.1l18 70.3c21.2 82.7-27.4 142-64.6 173.8c-11.3 9.7-17 14.5-38.9 20.7s-29.2 4.9-43.6 2.5c-47.4-8-117.8-34.1-139-116.7l-18-70.3c-9.4-36.7-14.1-55-7.9-69.4c2.1-4.8 5-9.2 8.6-13c10.7-11.2 28.7-13.1 64.9-17c26.8-2.9 40.1-4.3 53.2-7.5c4.5-1.1 9-2.4 13.5-3.8c12.8-4.1 25.1-9.8 49.6-21.3c33.2-15.5 49.7-23.3 64.3-19.2c4.9 1.4 9.5 3.7 13.6 6.8c12.3 9.2 17 27.6 26.4 64.2zM128.1 285.2c.6-6.3 5.5-12.8 13.6-15s15.6 1 19.3 6.2c5.1 7.2 15.1 8.9 22.3 3.7s8.9-15.1 3.7-22.3c-11.7-16.4-33.1-24-53.6-18.5S98.2 262 96.3 282.1c-.9 8.8 5.6 16.6 14.4 17.5s16.6-5.6 17.5-14.4zm137.2-48.1c8.1-2.2 15.6 1 19.3 6.2c5.1 7.2 15.1 8.9 22.3 3.7s8.9-15.1 3.7-22.3c-11.7-16.4-33.1-24-53.6-18.5s-35.2 22.7-37.2 42.8c-.9 8.8 5.6 16.6 14.4 17.5s16.6-5.6 17.5-14.4c.6-6.3 5.5-12.8 13.6-15zm16.3 109.2c9.5-12.8 9.5-12.8 9.5-12.8s0 0 0 0s0 0 0 0l-.1-.1-.2-.1-.4-.3c-.3-.2-.8-.5-1.3-.8c-1-.7-2.4-1.5-4.2-2.4c-3.5-1.8-8.5-4-14.8-5.7c-12.8-3.5-30.6-5.1-52.6 .8s-36.7 16.2-46 25.6c-4.6 4.6-7.8 9-10 12.3c-1.1 1.7-1.9 3.1-2.4 4.2c-.3 .5-.5 1-.7 1.4l-.2 .5-.1 .2 0 .1c0 0 0 0 0 0s0 0 0 0l14.7 6.4L158 369.1c-3.5 8.1 .2 17.5 8.3 21c8 3.5 17.4-.1 20.9-8.1l.1-.2c.2-.3 .5-.9 1-1.8c1.1-1.7 2.9-4.2 5.8-7.1c5.6-5.7 15.4-12.9 31.6-17.3s28.2-2.9 36-.8c3.9 1.1 6.8 2.3 8.6 3.2c.9 .5 1.5 .8 1.8 1l.2 .1c7.1 5.1 17 3.6 22.2-3.5c5.3-7.1 3.8-17.1-3.3-22.4l-9.5 12.8z"/></svg>