<svg xmlns="http://www.w3.org/2000/svg" viewBox="0 0 512 512"><!--!Font Awesome Pro 6.6.0 by @fontawesome - https://fontawesome.com License - https://fontawesome.com/license (Commercial License) Copyright 2024 Fonticons, Inc.--><path class="fa-secondary" opacity=".4" d="M42.7 148.3l0 150.4c0 80.5 0 120.7 25 145.7c24.9 24.9 65.1 25 145.2 25l.5 0 85.3 0c80.5 0 120.7 0 145.7-25c24.9-24.9 25-65.1 25-145.2l0-.5 0-47c0-56.2 0-84.2-16.4-102.5c-1.5-1.7-3.1-3.3-4.8-4.8C429.9 128 401.8 128 345.6 128l-8 0c-24.6 0-36.9 0-48.4-3.3c-6.3-1.8-12.4-4.3-18.1-7.5c-10.4-5.8-19.1-14.5-36.5-31.9L222.9 73.6c-5.8-5.8-8.7-8.7-11.8-11.3c-13.2-11-29.4-17.7-46.5-19.3c-4-.4-8.1-.4-16.3-.4c-18.8 0-28.2 0-36.1 1.5c-34.5 6.5-61.5 33.5-68 68c-1.5 7.8-1.5 17.3-1.5 36.1zM197.3 288c0-4.4 1.8-8.8 5.4-12c6.6-5.9 16.7-5.3 22.6 1.3l16.5 18.5 44.9-50.5c5.9-6.6 16-7.2 22.6-1.3s7.2 16 1.3 22.6l-56.9 64c-3 3.4-7.4 5.4-12 5.4s-8.9-2-12-5.4l-28.4-32c-2.7-3-4-6.8-4-10.6z"/><path class="fa-primary" d="M309.3 244c6.6 5.9 7.2 16 1.3 22.6l-56.9 64c-3 3.4-7.4 5.4-12 5.4s-8.9-2-12-5.4l-28.4-32c-5.9-6.6-5.3-16.7 1.3-22.6s16.7-5.3 22.6 1.3l16.5 18.5 44.9-50.5c5.9-6.6 16-7.2 22.6-1.3z"/></svg>