<svg xmlns="http://www.w3.org/2000/svg" viewBox="0 0 512 512"><!--!Font Awesome Pro 6.6.0 by @fontawesome - https://fontawesome.com License - https://fontawesome.com/license (Commercial License) Copyright 2024 Fonticons, Inc.--><path class="fa-secondary" opacity=".4" d="M42.7 256c0-100.6 0-150.8 31.2-182.1c25.1-25.1 62.5-30 128.4-31c16.1-.2 34-.2 53.7-.2c100.6 0 150.9 0 182.1 31.2c31.2 31.2 31.2 81.3 31.2 181.3l0 .8c0 100.6 0 150.9-31.2 182.1c-25 25-62.2 30-127.7 31c-35.7 0-71.4 0-107.3 0c-66.4-.9-104-5.8-129.2-31C42.7 406.9 42.7 356.6 42.7 256zm105.9-83.4c0 29.7 24.1 53.7 53.7 53.7s53.7-24.1 53.7-53.7c0 29.7 24.1 53.7 53.7 53.7s53.7-24.1 53.7-53.7c0-22.4-13.7-47.8-33.2-58.8c-10.3-5.9-20.5-15.3-20.5-27.2l0-43.7-107.5 0 0 43.7c0 11.9-10.2 21.3-20.5 27.2c-19.5 11.1-33.2 36.4-33.2 58.8zm.8 167.8c0 22.4 13.7 47.8 33.2 58.8c10.3 5.9 20.5 15.3 20.5 27.2l0 42.8c16 .2 33.5 .2 52.9 .2c20 0 38.1 0 54.4-.2c.2-14.3 .2-28.5 .2-42.7c0-11.9 10.2-21.3 20.5-27.2c19.5-11.1 33.2-36.4 33.2-58.8c0-29.7-24.1-53.7-53.7-53.7s-53.7 24.1-53.7 53.7c0-29.7-24.1-53.7-53.7-53.7s-53.7 24.1-53.7 53.7z"/><path class="fa-primary" d="M202.3 226.3c29.7 0 53.7-24.1 53.7-53.7c0 29.7 24.1 53.7 53.7 53.7s53.7-24.1 53.7-53.7c0-22.4-13.7-47.8-33.2-58.8c-10.3-5.9-20.5-15.3-20.5-27.2V42.9l-107.5 0V86.6c0 11.9-10.2 21.3-20.5 27.2c-19.5 11.1-33.2 36.4-33.2 58.8c0 29.7 24.1 53.7 53.7 53.7zM310.5 469.1l0-42.7c0-11.9 10.2-21.3 20.5-27.2c19.5-11.1 33.2-36.4 33.2-58.8c0-29.7-24.1-53.7-53.7-53.7s-53.7 24.1-53.7 53.7c0-29.7-24.1-53.7-53.7-53.7s-53.7 24.1-53.7 53.7c0 22.4 13.7 47.8 33.2 58.8c10.3 5.9 20.5 15.3 20.5 27.2v42.8l107.5 0z"/></svg>