<svg xmlns="http://www.w3.org/2000/svg" viewBox="0 0 512 512"><!--!Font Awesome Pro 6.6.0 by @fontawesome - https://fontawesome.com License - https://fontawesome.com/license (Commercial License) Copyright 2024 Fonticons, Inc.--><path class="fa-secondary" opacity=".4" d="M64 371.8c0 1.2 .1 2.3 .2 3.5l5 44.6c.5 4.8 2.7 9.2 6 12.6l4.4 4.4c3.4 3.4 7.8 5.5 12.6 6l44.6 4.9c9.5 1.1 19-2.3 25.8-9.1c5.1-5 10.1-10.1 15.1-15.1c-12.4-12.3-24.8-24.6-37.3-36.8c-6.3-6.2-6.3-16.3-.1-22.6s16.3-6.3 22.6-.1l37.4 37c13.8-13.8 27.6-27.6 41.4-41.4c5.7-5.7 14.3-7.5 22.1-5.5c48.8 12.5 102.8-.3 141-38.5c28.8-28.8 43.2-66.5 43.2-104.2s-14.4-75.4-43.2-104.2c-57.5-57.5-150.8-57.5-208.4 0c-38.2 38.2-51 92.2-38.5 141c2 7.9 .2 16.4-5.5 22.1L73.2 349.4c-6 6-9.2 14-9.2 22.3zM328.8 243.5a42.7 42.7 0 1 1 -60.3-60.3 42.7 42.7 0 1 1 60.3 60.3z"/><path class="fa-primary" d="M328.8 183.2a42.7 42.7 0 1 0 -60.3 60.3 42.7 42.7 0 1 0 60.3-60.3zM140.4 386.8l37.3 36.8L200.3 401l-37.4-37c-6.3-6.2-16.4-6.2-22.6 .1s-6.2 16.4 .1 22.6z"/></svg>