<svg xmlns="http://www.w3.org/2000/svg" viewBox="0 0 512 512"><!--!Font Awesome Pro 6.6.0 by @fontawesome - https://fontawesome.com License - https://fontawesome.com/license (Commercial License) Copyright 2024 Fonticons, Inc.--><path class="fa-secondary" opacity=".4" d="M42.7 319.6l0 .4 0 21.4c0 60.3 0 90.5 18.7 109.3c18.7 18.7 48.8 18.7 108.9 18.7l.3 0 170.7 0c60.3 0 90.5 0 109.3-18.7s18.7-48.9 18.7-109.3l0-21.3c0-60.3 0-90.5-18.7-109.2S401.7 192 341.3 192L272 192l0 128c0 8.8-7.2 16-16 16s-16-7.2-16-16l0-128-69.3 0c-60.3 0-90.5 0-109.3 18.7c-18.7 18.7-18.7 48.8-18.7 108.8z"/><path class="fa-primary" d="M256 336c8.8 0 16-7.2 16-16l0-234.1 35.9 41.8c5.7 6.7 15.9 7.5 22.6 1.7s7.5-15.9 1.7-22.6l-64-74.7c-3-3.5-7.5-5.6-12.1-5.6s-9.1 2-12.1 5.6l-64 74.7c-5.8 6.7-5 16.8 1.7 22.6s16.8 5 22.6-1.7L240 85.9 240 320c0 8.8 7.2 16 16 16z"/></svg>