<svg xmlns="http://www.w3.org/2000/svg" viewBox="0 0 512 512"><!--!Font Awesome Pro 6.6.0 by @fontawesome - https://fontawesome.com License - https://fontawesome.com/license (Commercial License) Copyright 2024 Fonticons, Inc.--><path class="fa-secondary" opacity=".4" d="M128 448a21.3 21.3 0 1 0 42.7 0A21.3 21.3 0 1 0 128 448zm5.3-117.3c0 8.8 7.2 16 16 16l26.8 0 2.2 0c10.9 0 20.5 0 29.4-3.7s15.7-10.5 23.4-18.2l1.6-1.6L246 310c6.2-6.2 6.2-16.4 0-22.6s-16.4-6.2-22.6 0l-13.3 13.3c-10.2 10.2-12.3 11.9-14.6 12.8s-5 1.2-19.4 1.2l-26.8 0c-8.8 0-16 7.2-16 16zM336 213.3c0 8.8 7.2 16 16 16l64 0c8.8 0 16-7.2 16-16s-7.2-16-16-16l-64 0c-8.8 0-16 7.2-16 16zM341.3 448a21.3 21.3 0 1 0 42.7 0 21.3 21.3 0 1 0 -42.7 0z"/><path class="fa-primary" d="M362.7 85.3a42.7 42.7 0 1 1 85.3 0 42.7 42.7 0 1 1 -85.3 0zM217.8 129c29.7-18.6 66.7-21.4 98.9-7.6c25.2 10.8 31.5 43.6 12.1 63l-35.3 35.3c-7.5 7.5-6.9 19.7 1.2 26.5L316 263.9c12.6 10.5 20 26.2 20 42.6l0 45.5c0 8.8-7.2 16-16 16s-16-7.2-16-16l0-45.5c0-7-3.1-13.6-8.4-18l-21.3-17.7c-22.6-18.8-24.1-52.9-3.3-73.7l35.3-35.3c3.4-3.4 2.3-9.1-2.1-11c-22.6-9.7-48.5-7.7-69.4 5.3l-45 28.1c-7.5 4.7-17.4 2.4-22-5.1s-2.4-17.4 5.1-22l45-28.1zM53.3 350.8c6.6-5.9 16.7-5.4 22.6 1.2l13 14.4c13.1 14.6 31.9 23 51.5 23l231.2 0c19.7 0 38.4-8.3 51.5-23l13-14.4c5.9-6.6 16-7.1 22.6-1.2s7.1 16 1.2 22.6l-13 14.4c-19.2 21.4-46.6 33.5-75.3 33.5l-231.2 0c-28.7 0-56.1-12.2-75.3-33.5l-13-14.4c-5.9-6.6-5.4-16.7 1.2-22.6z"/></svg>