<svg xmlns="http://www.w3.org/2000/svg" viewBox="0 0 512 512"><!--!Font Awesome Pro 6.6.0 by @fontawesome - https://fontawesome.com License - https://fontawesome.com/license (Commercial License) Copyright 2024 Fonticons, Inc.--><path class="fa-secondary" opacity=".4" d="M42.7 256a213.3 213.3 0 1 0 426.7 0A213.3 213.3 0 1 0 42.7 256zm90.7-64c0-20.6 16.7-37.3 37.3-37.3s37.3 16.7 37.3 37.3c0 14.9-8.7 27.7-21.3 33.7l0 9.6c0 11.7 7.6 22 18.7 25.5l29.9 9.4c1.6 .5 3.2 1.1 4.7 1.7l0-107.4c-5.6 2-12.1 .7-16.6-3.8c-6.2-6.2-6.2-16.4 0-22.6l21.3-21.3c3.1-3.1 7.2-4.7 11.3-4.7s8.2 1.6 11.3 4.7L288.6 138c6.2 6.2 6.2 16.4 0 22.6c-4.5 4.5-11 5.8-16.6 3.8l0 128.7c1.5-.6 3.1-1.2 4.7-1.7l29.9-9.4c11.1-3.5 18.7-13.8 18.7-25.5l0-6.9c-4.3-.8-9.2-2.6-13.5-6.9c-5-5-6.6-11-7.3-15.7c-.5-4-.5-8.7-.5-13.1l0-1.5c0-4.4 0-9.1 .5-13.1c.6-4.7 2.2-10.7 7.3-15.7s11-6.6 15.7-7.3c4-.5 8.7-.5 13.1-.5l1.5 0c4.4 0 9.1 0 13.1 .5c4.7 .6 10.7 2.2 15.7 7.3s6.6 11 7.3 15.7c.5 4 .5 8.7 .5 13.1l0 1.5c0 4.4 0 9.1-.5 13.1c-.6 4.7-2.2 10.7-7.3 15.7c-4.3 4.3-9.3 6.1-13.5 6.9l0 6.9c0 25.7-16.7 48.3-41.2 56L286.2 322c-4.7 1.5-8.6 4.6-11.1 8.6c10.9 6.5 18.2 18.4 18.2 32.1c0 20.6-16.7 37.3-37.3 37.3s-37.3-16.7-37.3-37.3c0-14.9 8.7-27.7 21.3-33.7l0-8.9c0-8.9-5.8-16.7-14.2-19.3l-29.9-9.4c-24.5-7.7-41.2-30.3-41.2-56l0-9.6c-12.6-6-21.3-18.8-21.3-33.7z"/><path class="fa-primary" d="M288.6 138l-21.3-21.3c-6.2-6.2-16.4-6.2-22.6 0L223.4 138c-6.2 6.2-6.2 16.4 0 22.6c4.5 4.5 11 5.8 16.6 3.8V271.8c-1.5-.6-3.1-1.2-4.7-1.7l-29.9-9.4c-11.1-3.5-18.7-13.8-18.7-25.5v-9.6c12.6-6 21.3-18.8 21.3-33.7c0-20.6-16.7-37.3-37.3-37.3s-37.3 16.7-37.3 37.3c0 14.9 8.7 27.7 21.3 33.7v9.6c0 25.7 16.7 48.3 41.2 56l29.9 9.4c8.5 2.6 14.2 10.5 14.2 19.3v8.9c-12.6 6-21.3 18.8-21.3 33.7c0 20.6 16.7 37.3 37.3 37.3s37.3-16.7 37.3-37.3c0-13.6-7.3-25.6-18.2-32.1c2.5-4 6.4-7.1 11.1-8.6l29.9-9.4c24.5-7.7 41.2-30.3 41.2-56v-6.9c4.3-.8 9.2-2.6 13.5-6.9c5-5 6.6-11 7.3-15.7c.5-4 .5-8.7 .5-13.1v-1.5c0-4.4 0-9.1-.5-13.1c-.6-4.7-2.2-10.7-7.3-15.7s-11-6.6-15.7-7.3c-4-.5-8.7-.5-13.1-.5h-1.5c-4.4 0-9.1 0-13.1 .5c-4.7 .6-10.7 2.2-15.7 7.3s-6.6 11-7.3 15.7c-.5 4-.5 8.7-.5 13.1v0 1.5 0c0 4.4 0 9.1 .5 13.1c.6 4.7 2.2 10.7 7.3 15.7c4.3 4.3 9.3 6.1 13.5 6.9v6.9c0 11.7-7.6 22-18.7 25.5l-29.9 9.4c-1.6 .5-3.2 1.1-4.7 1.7V164.4c5.6 2 12.1 .7 16.6-3.8c6.2-6.2 6.2-16.4 0-22.6z"/></svg>