<svg xmlns="http://www.w3.org/2000/svg" viewBox="0 0 512 512"><!--!Font Awesome Pro 6.6.0 by @fontawesome - https://fontawesome.com License - https://fontawesome.com/license (Commercial License) Copyright 2024 Fonticons, Inc.--><path class="fa-secondary" opacity=".4" d="M48 469.3c0 8.8 7.2 16 16 16l384 0c8.8 0 16-7.2 16-16s-7.2-16-16-16l-26.7 0 0-133.3c0-8.8-7.2-16-16-16s-16 7.2-16 16l0 133.3-266.7 0 0-133.3c0-8.8-7.2-16-16-16s-16 7.2-16 16l0 133.3-26.7 0c-8.8 0-16 7.2-16 16z"/><path class="fa-primary" d="M352.6 42.7H159.4c-25.7 0-38.5 0-48.8 6.4s-16 17.8-27.5 40.8L53.1 165.5c-6.9 17.5-13 38.1-1.3 52.9c7.8 9.9 19.9 16.3 33.5 16.3c23.6 0 42.7-19.1 42.7-42.7c0 23.6 19.1 42.7 42.7 42.7s42.7-19.1 42.7-42.7c0 23.6 19.1 42.7 42.7 42.7s42.7-19.1 42.7-42.7c0 23.6 19.1 42.7 42.7 42.7s42.7-19.1 42.7-42.7c0 23.6 19.1 42.7 42.7 42.7c13.6 0 25.7-6.4 33.5-16.3c11.6-14.8 5.6-35.4-1.3-52.9L428.9 89.8c-11.5-23-17.2-34.4-27.5-40.8s-23.1-6.4-48.8-6.4z"/></svg>