<svg xmlns="http://www.w3.org/2000/svg" viewBox="0 0 512 512"><!--!Font Awesome Pro 6.6.0 by @fontawesome - https://fontawesome.com License - https://fontawesome.com/license (Commercial License) Copyright 2024 Fonticons, Inc.--><path class="fa-secondary" opacity=".4" d="M42.7 256c0 100.6 0 150.9 31.2 182.1s81.5 31.2 182.1 31.2s150.9 0 182.1-31.2c31.2-31.2 31.2-81.3 31.2-181.3l0-.8c0-100.6 0-150.8-31.2-182.1S356.6 42.7 256 42.7s-150.8 0-182.1 31.2S42.7 155.4 42.7 256zM80 149.3c0-8.8 7.2-16 16-16c1.6 0 3.1 .2 4.6 .7c3.2-7.3 7.6-14 13.5-19.9c12.8-12.8 29-18.4 48.2-20.9c18.3-2.5 41.4-2.5 70-2.5l1.1 0 45 0 1.1 0c28.6 0 51.8 0 70 2.5c19.2 2.6 35.4 8.1 48.2 20.9s18.4 29 20.9 48.2c2.5 18.5 2.5 42 2.5 71.2l0 45c0 7.3 0 14.2 0 20.8s-.1 12.8-.3 18.8c-.3 11.8-.9 22.3-2.2 31.6c-2.6 19.2-8.1 35.4-20.9 48.2s-29 18.4-48.2 20.9c-18.5 2.5-42 2.5-71.2 2.5l-45 0c-29.2 0-52.7 0-71.2-2.5c-19.2-2.6-35.4-8.1-48.2-20.9c-5.9-5.9-10.3-12.6-13.5-19.9c-1.4 .4-3 .7-4.6 .7c-8.8 0-16-7.2-16-16l0-64c0-7 4.5-12.9 10.7-15.1l0-55.2c-6.2-2.2-10.7-8.1-10.7-15.1l0-64z"/><path class="fa-primary" d="M272 188.5v22.2c18.6 6.6 32 24.4 32 45.3c0 1 0 2.1-.1 3.1l20.4 8.8c.7-3.9 1-7.8 1-11.9c0-32.8-22.8-60.3-53.3-67.5zm-32 0c-30.6 7.2-53.3 34.7-53.3 67.5c0 4 .3 8 1 11.9l20.4-8.8c-.1-1-.1-2.1-.1-3.1c0-20.9 13.4-38.7 32-45.3V188.5zm71.7 108.8l-20.4-8.7C282.5 298 270 304 256 304s-26.5-6-35.3-15.5l-20.4 8.7c12.6 17 32.9 28.1 55.7 28.1s43.1-11 55.7-28.1zM278.5 90.7l-45 0c-29.2 0-52.7 0-71.2 2.5c-19.2 2.6-35.4 8.1-48.2 20.9c-5.9 5.9-10.3 12.6-13.5 19.9c-1.4-.4-3-.7-4.6-.7c-8.8 0-16 7.2-16 16l0 64c0 7 4.5 12.9 10.7 15.1l0 55.2c-6.2 2.2-10.7 8.1-10.7 15.1l0 64c0 8.8 7.2 16 16 16c1.6 0 3.1-.2 4.6-.7c3.2 7.3 7.6 14 13.5 19.9c12.8 12.8 29 18.4 48.2 20.9c18.5 2.5 42 2.5 71.2 2.5l45 0c29.2 0 52.7 0 71.2-2.5c19.2-2.6 35.4-8.1 48.2-20.9s18.4-29 20.9-48.2c2.5-18.5 2.5-42 2.5-71.2l0-45c0-29.2 0-52.7-2.5-71.2c-2.6-19.2-8.1-35.4-20.9-48.2s-29-18.4-48.2-20.9c-18.5-2.5-42-2.5-71.2-2.5zM357.3 256a101.3 101.3 0 1 1 -202.7 0 101.3 101.3 0 1 1 202.7 0z"/></svg>