<svg xmlns="http://www.w3.org/2000/svg" viewBox="0 0 512 512"><!--!Font Awesome Pro 6.6.0 by @fontawesome - https://fontawesome.com License - https://fontawesome.com/license (Commercial License) Copyright 2024 Fonticons, Inc.--><path class="fa-secondary" opacity=".4" d="M176 64c0 3.7 1.3 7.4 3.9 10.4c15.3 17.9 30.6 35.7 45.9 53.6c20.1 0 40.3 0 60.4 0l45.9-53.6c5.7-6.7 5-16.8-1.7-22.6c-3-2.6-6.7-3.9-10.4-3.9c-4.5 0-9 1.9-12.2 5.6L256 114.1 204.1 53.6c-5.8-6.7-15.9-7.5-22.6-1.7C177.9 55 176 59.5 176 64zm165.3 64l0 341.3c3.6 0 7.1 0 10.7 0c53.3-.1 81-1.1 98.6-18.7c18.7-18.7 18.7-48.9 18.7-109.3l0-85.3c0-60.3 0-90.5-18.7-109.3C433 129.1 405.3 128.1 352 128l-10.7 0zm85.3 128A21.3 21.3 0 1 1 384 256a21.3 21.3 0 1 1 42.7 0zm0 85.3a21.3 21.3 0 1 1 -42.7 0 21.3 21.3 0 1 1 42.7 0z"/><path class="fa-primary" d="M341.3 128l-55.1 0-60.4 0-55.1 0c-60.3 0-90.5 0-109.3 18.7S42.7 195.7 42.7 256l0 85.3c0 60.3 0 90.5 18.7 109.3s48.9 18.7 109.3 18.7l170.7 0 0-341.3zm64 149.3a21.3 21.3 0 1 1 0-42.7 21.3 21.3 0 1 1 0 42.7zm0 85.3a21.3 21.3 0 1 1 0-42.7 21.3 21.3 0 1 1 0 42.7z"/></svg>