<svg xmlns="http://www.w3.org/2000/svg" viewBox="0 0 512 512"><!--!Font Awesome Pro 6.6.0 by @fontawesome - https://fontawesome.com License - https://fontawesome.com/license (Commercial License) Copyright 2024 Fonticons, Inc.--><path class="fa-secondary" opacity=".4" d="M26.7 42.7l0 214.6 0 1.1c0 48.7 0 87 4 116.9c4.1 30.8 12.8 55.1 31.9 74.2s43.4 27.7 74.2 31.9c30 4 68.5 4 117.6 4l.3 0 214.6 0c8.8 0 16-7.2 16-16s-7.2-16-16-16l-213.3 0c-50.7 0-87.2 0-114.9-3.8c-27.3-3.7-43.7-10.6-55.9-22.8s-19.1-28.6-22.8-55.9c-3.7-27.7-3.8-64.2-3.8-114.9l0-213.3c0-8.8-7.2-16-16-16s-16 7.2-16 16z"/><path class="fa-primary" d="M140.5 139.4c-5.5-6.9-15.6-8.1-22.5-2.6s-8.1 15.6-2.6 22.5l66.8 84.2c4.8 6.1 8.9 11.2 12.6 15.2c3.8 4.2 8 8.1 13.2 10.9c13.5 7.2 29.6 7.6 43.4 .9c5.4-2.6 9.7-6.3 13.7-10.3c3.8-3.8 8.1-8.8 13.2-14.7l.3-.4c5.5-6.4 9.1-10.5 12.1-13.5c2.9-2.9 4.2-3.7 4.8-4c4.6-2.2 10-2.1 14.5 .3c.6 .3 1.9 1.2 4.7 4.2c2.8 3.1 6.3 7.4 11.5 14l66.5 83.8c5.5 6.9 15.6 8.1 22.5 2.6s8.1-15.6 2.6-22.5L351 225.9c-4.8-6.1-8.9-11.2-12.6-15.2c-3.8-4.2-8-8.1-13.2-10.9c-13.5-7.2-29.6-7.6-43.4-.9c-5.4 2.6-9.7 6.3-13.7 10.3c-3.8 3.8-8.1 8.8-13.2 14.7l-.3 .4c-5.5 6.4-9.1 10.5-12.1 13.5c-2.9 2.9-4.2 3.7-4.8 4c-4.6 2.2-10 2.1-14.5-.3c-.6-.3-1.9-1.2-4.7-4.2c-2.8-3.1-6.3-7.4-11.5-14l-66.5-83.8z"/></svg>