<svg xmlns="http://www.w3.org/2000/svg" viewBox="0 0 512 512"><!--!Font Awesome Pro 6.6.0 by @fontawesome - https://fontawesome.com License - https://fontawesome.com/license (Commercial License) Copyright 2024 Fonticons, Inc.--><path class="fa-secondary" opacity=".4" d="M42.7 213.3l0 85.3 0 .4c0 80.2 0 120.3 25 145.2c25 25 65.2 25 145.7 25l85.3 0 .5 0c80.1 0 120.3 0 145.2-25c25-25 25-65.2 25-145.7l0-9.3c0-13.2 0-24.1-.3-33.4c-.1-3.8-.3-7.3-.6-10.7c-28.1 0-56.3 0-84.4 0c-.7 0-1.3 0-2 0c-23.4 0-44.1 0-60.8-2.2c-18.1-2.4-36.1-8-50.9-22.7s-20.3-32.8-22.8-50.9c-2.2-16.7-2.2-37.4-2.2-60.8c.1-20.1 .1-40.3 .2-60.5c-.1-2-.1-3.6-.2-5.4c-8.6-.1-18.7-.1-31.4-.1l-.4 0c-80.6 0-120.9 0-145.9 25c-25 25-25 65.2-25 145.7zm69.3 96c0-8.8 7.2-16 16-16l170.7 0c8.8 0 16 7.2 16 16s-7.2 16-16 16l-170.7 0c-8.8 0-16-7.2-16-16zm0 74.7c0-8.8 7.2-16 16-16l117.3 0c8.8 0 16 7.2 16 16s-7.2 16-16 16L128 400c-8.8 0-16-7.2-16-16z"/><path class="fa-primary" d="M128 293.3c-8.8 0-16 7.2-16 16s7.2 16 16 16H298.7c8.8 0 16-7.2 16-16s-7.2-16-16-16H128zm0 74.7c-8.8 0-16 7.2-16 16s7.2 16 16 16H245.3c8.8 0 16-7.2 16-16s-7.2-16-16-16H128zM245.5 48.2l-.2 60.5c0 23.4 0 44.1 2.2 60.8c2.4 18.1 8 36.1 22.8 50.9s32.8 20.3 50.9 22.8c16.7 2.2 37.4 2.2 60.8 2.2l86.4 0c.3 3.3 .5 6.9 .6 10.7h.3c0-5.7 0-8.6-.2-11.9c-1.2-19.1-9.1-41-20.5-56.4c-2-2.7-3.4-4.3-6.1-7.6c-16.9-20.2-39.2-45.4-58.6-62.8c-17.3-15.4-41-32.3-61.7-46.1C304.6 59.4 295.7 53.4 283.6 49c-3.2-1.2-7.5-2.5-10.8-3.3c-8.2-2-16.2-2.7-27.4-3l.2 5.4z"/></svg>