<svg xmlns="http://www.w3.org/2000/svg" viewBox="0 0 512 512"><!--!Font Awesome Pro 6.6.0 by @fontawesome - https://fontawesome.com License - https://fontawesome.com/license (Commercial License) Copyright 2024 Fonticons, Inc.--><path class="fa-secondary" opacity=".4" d="M42.7 198.8C42.7 65.9 160 16.2 256 118.9c96-102.7 213.3-53 213.3 79.9c0 79.6-85.7 163.7-148.5 214.6C292.4 436.5 278.2 448 256 448s-36.4-11.5-64.8-34.6C128.4 362.5 42.7 278.3 42.7 198.8zM293.3 192c0 8.8 7.2 16 16 16l26.7 0 0 26.7c0 8.8 7.2 16 16 16s16-7.2 16-16l0-26.7 26.7 0c8.8 0 16-7.2 16-16s-7.2-16-16-16L368 176l0-26.7c0-8.8-7.2-16-16-16s-16 7.2-16 16l0 26.7-26.7 0c-8.8 0-16 7.2-16 16z"/><path class="fa-primary" d="M352 133.3c8.8 0 16 7.2 16 16l0 26.7 26.7 0c8.8 0 16 7.2 16 16s-7.2 16-16 16L368 208l0 26.7c0 8.8-7.2 16-16 16s-16-7.2-16-16l0-26.7-26.7 0c-8.8 0-16-7.2-16-16s7.2-16 16-16l26.7 0 0-26.7c0-8.8 7.2-16 16-16z"/></svg>