<svg xmlns="http://www.w3.org/2000/svg" viewBox="0 0 512 512"><!--!Font Awesome Pro 6.6.0 by @fontawesome - https://fontawesome.com License - https://fontawesome.com/license (Commercial License) Copyright 2024 Fonticons, Inc.--><path class="fa-secondary" opacity=".4" d="M64 202.7l0 106.7c0 50.3 0 75.4 15.6 91s40.8 15.6 91 15.6l3 0c-1.5-9-2.3-19.5-2.6-31.8c-.2-6.2-.3-12.8-.3-19.9c0-3.6 0-7.3 0-11.1s0-7.8 0-11.9l0-170.7c0-4.1 0-8.1 0-11.9s0-7.5 0-11.1c0-7.1 .1-13.8 .3-19.9c.4-12.3 1.1-22.8 2.6-31.8l-3 0-.3 0c-50.1 0-75.1 0-90.7 15.6C64 127.2 64 152.4 64 202.7z"/><path class="fa-primary" d="M189.4 61.4c-18.7 18.7-18.7 48.9-18.7 109.3l0 170.7c0 60.3 0 90.5 18.7 109.3s48.9 18.7 109.3 18.7l21.3 0c60.3 0 90.5 0 109.3-18.7S448 401.7 448 341.3l0-170.7c0-60.3 0-90.5-18.7-109.3S380.3 42.7 320 42.7l-21.3 0c-60.3 0-90.5 0-109.3 18.7zm131.2 97.9L374 212.7c6.2 6.2 6.2 16.4 0 22.6s-16.4 6.2-22.6 0l-26-26 0 132c0 8.8-7.2 16-16 16s-16-7.2-16-16l0-132-26 26c-6.2 6.2-16.4 6.2-22.6 0s-6.2-16.4 0-22.6L298 159.4c6.2-6.2 16.4-6.2 22.6 0z"/></svg>