<svg xmlns="http://www.w3.org/2000/svg" viewBox="0 0 512 512"><!--!Font Awesome Pro 6.6.0 by @fontawesome - https://fontawesome.com License - https://fontawesome.com/license (Commercial License) Copyright 2024 Fonticons, Inc.--><path class="fa-secondary" opacity=".4" d="M101.3 96c0 8.8 7.2 16 16 16l10.7 0 0-16c0-6.3 0-11.5 0-16l-10.7 0c-8.8 0-16 7.2-16 16zM240.1 298.4l0 .2 0 .2c4.5-.2 9.7-.2 15.9-.2c3.1 0 6 0 8.7 0c2.7 0 5.1 .1 7.4 .2c.4-22.7 2.5-29.7 6.4-34.2c2.3-2.7 5.9-5.1 14.3-7.5c8.8-2.5 20.6-4.3 38.3-6.9l89.5-13.4c13.9-2.1 24.7-3.7 33.6-8.4c13-6.9 22.9-18.4 27.8-32.3c3.2-9 3.4-19.3 3.4-32.2c0-.8 0-1.5 0-2.3l0-3.1c0-9.1 0-16.6-.4-22.8c-.4-6.5-1.3-12.6-3.7-18.5c-6-15.1-17.9-27.1-33.1-33.1c-6-2.3-12.1-3.3-18.5-3.7c-6.1-.4-13.4-.4-22.2-.4l-.6 0L384 80l0 32 22.3 0c9.7 0 16.2 0 21.3 .3c4.9 .3 7.3 .9 8.9 1.5c6.9 2.7 12.3 8.2 15 15c.6 1.6 1.2 4 1.5 8.9c.3 5 .3 11.6 .3 21.3c0 17.9-.2 22.8-1.5 26.4c-2.2 6.3-6.7 11.5-12.6 14.7c-3.4 1.8-8.2 2.8-25.9 5.4l-88 13.2c-16.5 2.5-30.3 4.5-41.3 7.6c-11.6 3.3-21.8 8.1-29.8 17.4c-12.4 14.4-13.7 33.1-14.1 54.6z"/><path class="fa-primary" d="M128 96c0-19.9 0-29.9 4.3-37.3c2.8-4.9 6.8-8.9 11.7-11.7c7.4-4.3 17.4-4.3 37.3-4.3H330.7c19.9 0 29.9 0 37.3 4.3c4.9 2.8 8.9 6.8 11.7 11.7C384 66.1 384 76.1 384 96s0 29.9-4.3 37.3c-2.8 4.9-6.8 8.9-11.7 11.7c-7.4 4.3-17.4 4.3-37.3 4.3H181.3c-19.9 0-29.9 0-37.3-4.3c-4.9-2.8-8.9-6.8-11.7-11.7C128 125.9 128 115.9 128 96zm85.3 245.3v85.3c0 20.1 0 30.2 6.2 36.4s16.3 6.2 36.4 6.2s30.2 0 36.4-6.2s6.2-16.3 6.2-36.4V341.3c0-20.1 0-30.2-6.2-36.4s-16.3-6.2-36.4-6.2s-30.2 0-36.4 6.2s-6.2 16.3-6.2 36.4z"/></svg>