<svg xmlns="http://www.w3.org/2000/svg" viewBox="0 0 512 512"><!--!Font Awesome Pro 6.6.0 by @fontawesome - https://fontawesome.com License - https://fontawesome.com/license (Commercial License) Copyright 2024 Fonticons, Inc.--><path class="fa-secondary" opacity=".4" d="M42.7 256c0 100.6 0 150.9 31.2 182.1s81.5 31.2 182.1 31.2s150.9 0 182.1-31.2c31.2-31.2 31.2-81.3 31.2-181.3l0-.8c0-29 0-53.8-.7-75.1c-1.2 18.9-4.5 31-13.3 39.7c-14.1 14.1-36.7 14.1-81.9 14.1s-67.9 0-81.9-14.1c-7-7-10.5-16.2-12.3-29.3c-.9-6.5-1.3-14-1.5-22.8c-.1-4.4-.2-9-.2-14s0-10.3 0-15.9c0-45.3 0-67.9 14.1-82c.5-.5 1.1-1.1 1.7-1.6s1.2-1 1.8-1.5c1.2-.9 2.5-1.8 3.8-2.6c2.7-1.6 5.6-2.8 8.8-3.9c6.5-2.1 14.2-3.2 23.7-3.8c-21.3-.7-46.1-.7-75-.7c-100.7 0-151 0-182.3 31.2S42.7 155.4 42.7 256zm90.7 42.7c0-8.8 7.2-16 16-16l85.3 0c8.8 0 16 7.2 16 16s-7.2 16-16 16l-85.3 0c-8.8 0-16-7.2-16-16zm0 74.7c0-8.8 7.2-16 16-16l128 0c8.8 0 16 7.2 16 16s-7.2 16-16 16l-128 0c-8.8 0-16-7.2-16-16z"/><path class="fa-primary" d="M149.3 282.7c-8.8 0-16 7.2-16 16s7.2 16 16 16h85.3c8.8 0 16-7.2 16-16s-7.2-16-16-16H149.3zm0 74.7c-8.8 0-16 7.2-16 16s7.2 16 16 16h128c8.8 0 16-7.2 16-16s-7.2-16-16-16h-128zm224-122.7c-45.3 0-67.9 0-81.9-14.1s-14.1-36.7-14.1-81.9s0-67.9 14.1-81.9s36.7-14.1 81.9-14.1s67.9 0 81.9 14.1s14.1 36.7 14.1 81.9s0 67.9-14.1 81.9s-36.7 14.1-81.9 14.1zm-54-150c-6.2 6.2-6.2 16.4 0 22.6l31.4 31.4L319.4 170c-6.2 6.2-6.2 16.4 0 22.6s16.4 6.2 22.6 0l31.4-31.4 31.4 31.4c6.2 6.2 16.4 6.2 22.6 0s6.2-16.4 0-22.6L396 138.7l31.4-31.4c6.2-6.2 6.2-16.4 0-22.6s-16.4-6.2-22.6 0L373.3 116 342 84.7c-6.2-6.2-16.4-6.2-22.6 0z"/></svg>