<svg xmlns="http://www.w3.org/2000/svg" viewBox="0 0 512 512"><!--!Font Awesome Pro 6.6.0 by @fontawesome - https://fontawesome.com License - https://fontawesome.com/license (Commercial License) Copyright 2024 Fonticons, Inc.--><path class="fa-secondary" opacity=".4" d="M112.1 318.8c.1-14.3 .4-29.9 1.2-36.1c1.4-10.5 4.6-20.5 12.7-28.7s18.2-11.3 28.7-12.7c9.8-1.3 22-1.3 36.2-1.3l130.1 0c14.2 0 26.4 0 36.2 1.3c10.5 1.4 20.5 4.6 28.7 12.7s11.3 18.2 12.7 28.7c.8 6.2 1.1 21.8 1.2 36.1l-287.9 0zm8.4 55.2l3.9-7.8c4-7.9 13.6-11.1 21.5-7.2s11.1 13.6 7.2 21.5l-3.9 7.8c-.9 1.9-.6 4.2 .9 5.7c11.2 11.2 14 28.4 6.9 42.6l-3.9 7.8c-4 7.9-13.6 11.1-21.5 7.2s-11.1-13.6-7.2-21.5l3.9-7.8c.9-1.9 .6-4.2-.9-5.7c-11.2-11.2-14-28.4-6.9-42.6zm115.7 .2l6.5-9.8c4.9-7.4 14.8-9.3 22.2-4.4s9.3 14.8 4.4 22.2l-6.5 9.8c-3.6 5.4-2.3 12.6 2.8 16.5c18.8 14.1 23.3 40.3 10.3 59.9l-6.5 9.8c-4.9 7.4-14.8 9.3-22.2 4.4s-9.3-14.8-4.4-22.2l6.5-9.8c3.6-5.4 2.3-12.6-2.8-16.5c-18.8-14.1-23.3-40.3-10.3-59.9zm119-.2l3.9-7.8c4-7.9 13.6-11.1 21.5-7.2s11.1 13.6 7.2 21.5l-3.9 7.8c-.9 1.9-.6 4.2 .9 5.7c11.2 11.2 14 28.4 6.9 42.6l-3.9 7.8c-4 7.9-13.6 11.1-21.5 7.2s-11.1-13.6-7.2-21.5l3.9-7.8c.9-1.9 .6-4.2-.9-5.7c-11.2-11.2-14-28.4-6.9-42.6z"/><path class="fa-primary" d="M128 42.7l256 0c40.2 0 60.3 0 72.8 12.5s12.5 32.6 12.5 72.8l0 64c0 60.3 0 90.5-18.7 109.3c-11.3 11.3-26.8 15.8-50.7 17.6c-.1-14.3-.4-29.9-1.2-36.1c-1.4-10.5-4.6-20.5-12.7-28.7s-18.2-11.3-28.7-12.7c-9.8-1.3-22-1.3-36.2-1.3l-130.1 0c-14.2 0-26.4 0-36.2 1.3c-10.5 1.4-20.5 4.6-28.7 12.7s-11.3 18.2-12.7 28.7c-.8 6.2-1.1 21.8-1.2 36.1c-23.8-1.8-39.3-6.3-50.7-17.6C42.7 282.5 42.7 252.3 42.7 192l0-64c0-40.2 0-60.3 12.5-72.8S87.8 42.7 128 42.7zM112 181.3c0 8.8 7.2 16 16 16l256 0c8.8 0 16-7.2 16-16s-7.2-16-16-16l-256 0c-8.8 0-16 7.2-16 16zm0-53.3c0 8.8 7.2 16 16 16l256 0c8.8 0 16-7.2 16-16s-7.2-16-16-16l-256 0c-8.8 0-16 7.2-16 16z"/></svg>