<svg xmlns="http://www.w3.org/2000/svg" viewBox="0 0 512 512"><!--!Font Awesome Pro 6.6.0 by @fontawesome - https://fontawesome.com License - https://fontawesome.com/license (Commercial License) Copyright 2024 Fonticons, Inc.--><path class="fa-secondary" opacity=".4" d="M48 69.1l0 240.6c0 8.6 6.7 15.6 15.3 16s15.9-6.1 16.6-14.6L100.7 71.3C102 55.9 89.9 42.7 74.4 42.7C59.8 42.7 48 54.5 48 69.1z"/><path class="fa-primary" d="M432.4 181l15.1 87c3.8 21.7-13 41.6-35 41.6H301.9c-11 0-19.3 9.8-17.5 20.7l14.1 86.3c2.3 14 1.6 28.4-1.9 42.1c-3 11.4-11.7 20.5-23.3 24.2l-3.1 1c-7 2.2-14.6 1.7-21.2-1.5c-7.2-3.5-12.6-9.9-14.5-17.4l-10.1-39.1c-3.2-12.4-7.9-24.5-14-35.8c-8.9-16.6-22.6-29.9-36.8-42.1l-30.7-26.4c-8.7-7.5-13.2-18.6-12.2-30L148 91.2c1.6-18.4 17-32.5 35.4-32.5h99.2c74.3 0 137.6 51.7 149.9 122.3z"/></svg>