<svg xmlns="http://www.w3.org/2000/svg" viewBox="0 0 512 512"><!--!Font Awesome Pro 6.6.0 by @fontawesome - https://fontawesome.com License - https://fontawesome.com/license (Commercial License) Copyright 2024 Fonticons, Inc.--><path class="fa-secondary" opacity=".4" d="M42.7 256c0 100.6 0 150.9 31.2 182.1s81.5 31.2 182.1 31.2s150.9 0 182.1-31.2c31.2-31.2 31.2-81.3 31.2-181.3l0-.8c0-100.6 0-150.8-31.2-182.1S356.6 42.7 256 42.7s-150.8 0-182.1 31.2S42.7 155.4 42.7 256zM112 170.7c0-8.8 7.2-16 16-16l85.3 0c8.8 0 16 7.2 16 16s-7.2 16-16 16l-69.3 0 0 53.3 69.3 0c8.8 0 16 7.2 16 16s-7.2 16-16 16L144 272l0 69.3c0 8.8-7.2 16-16 16s-16-7.2-16-16l0-85.3 0-85.3zm131.2 9.6c-5.3-7.1-3.9-17.1 3.2-22.4c2.9-2.2 6.2-3.2 9.6-3.2c4.9 0 9.7 2.2 12.8 6.4L320 229.3l51.2-68.3c3.1-4.2 7.9-6.4 12.8-6.4c3.3 0 6.7 1 9.6 3.2c7.1 5.3 8.5 15.3 3.2 22.4L340 256l56.8 75.7c2.2 2.9 3.2 6.2 3.2 9.6c0 4.9-2.2 9.7-6.4 12.8c-2.9 2.2-6.2 3.2-9.6 3.2c-4.9 0-9.7-2.2-12.8-6.4L320 282.7l-51.2 68.3c-3.1 4.2-7.9 6.4-12.8 6.4c-3.3 0-6.7-1-9.6-3.2c-7.1-5.3-8.5-15.3-3.2-22.4L300 256l-56.8-75.7z"/><path class="fa-primary" d="M112 170.7c0-8.8 7.2-16 16-16h85.3c8.8 0 16 7.2 16 16s-7.2 16-16 16H144V240h69.3c8.8 0 16 7.2 16 16s-7.2 16-16 16H144v69.3c0 8.8-7.2 16-16 16s-16-7.2-16-16V256 170.7zm134.4-12.8c7.1-5.3 17.1-3.9 22.4 3.2L320 229.3l51.2-68.3c5.3-7.1 15.3-8.5 22.4-3.2s8.5 15.3 3.2 22.4L340 256l56.8 75.7c5.3 7.1 3.9 17.1-3.2 22.4s-17.1 3.9-22.4-3.2L320 282.7l-51.2 68.3c-5.3 7.1-15.3 8.5-22.4 3.2s-8.5-15.3-3.2-22.4L300 256l-56.8-75.7c-5.3-7.1-3.9-17.1 3.2-22.4z"/></svg>