<svg xmlns="http://www.w3.org/2000/svg" viewBox="0 0 512 512"><!--!Font Awesome Pro 6.6.0 by @fontawesome - https://fontawesome.com License - https://fontawesome.com/license (Commercial License) Copyright 2024 Fonticons, Inc.--><path class="fa-secondary" opacity=".4" d="M42.7 256c0 100.6 0 150.9 31.2 182.1s81.5 31.2 182.1 31.2s150.9 0 182.1-31.2c31.2-31.2 31.2-81.3 31.2-181.3l0-.8c0-100.6 0-150.8-31.2-182.1S356.6 42.7 256 42.7s-150.8 0-182.1 31.2S42.7 155.4 42.7 256zm94.6 43.9c-5.8-6.7-5.1-16.8 1.5-22.6s16.8-5.1 22.6 1.5L197.3 320l0-170.7c0-8.8 7.2-16 16-16s16 7.2 16 16l0 213.3c0 6.7-4.1 12.6-10.4 15s-13.3 .6-17.7-4.5l-64-73.3zM282.7 149.3c0-6.7 4.1-12.6 10.4-15c1.8-.7 3.7-1 5.6-1c4.5 0 9 1.9 12.1 5.5l64 73.3c5.8 6.7 5.1 16.8-1.5 22.6s-16.8 5.1-22.6-1.5L314.7 192l0 170.7c0 8.8-7.2 16-16 16s-16-7.2-16-16l0-213.3z"/><path class="fa-primary" d="M282.7 149.3c0-6.7 4.1-12.6 10.4-15s13.3-.6 17.7 4.5l64 73.3c5.8 6.7 5.1 16.8-1.5 22.6s-16.8 5.1-22.6-1.5L314.7 192l0 170.7c0 8.8-7.2 16-16 16s-16-7.2-16-16l0-213.3zM161.4 278.8c-5.8-6.7-15.9-7.3-22.6-1.5s-7.3 15.9-1.5 22.6l64 73.3c4.4 5 11.4 6.8 17.7 4.5s10.4-8.3 10.4-15V149.3c0-8.8-7.2-16-16-16s-16 7.2-16 16V320l-35.9-41.2z"/></svg>