<svg xmlns="http://www.w3.org/2000/svg" viewBox="0 0 512 512"><!--!Font Awesome Pro 6.6.0 by @fontawesome - https://fontawesome.com License - https://fontawesome.com/license (Commercial License) Copyright 2024 Fonticons, Inc.--><path class="fa-secondary" opacity=".4" d="M42.7 298.7c0-41.6 0-72.5 3.5-96c48.6 31.6 79.7 51.7 108.5 64.1l0 10.6c0 8.8 7.2 16 16 16c8.7 0 15.8-7 16-15.6c45.4 12 93.2 12 138.7 0c.2 8.7 7.3 15.6 16 15.6c8.8 0 16-7.2 16-16l0-10.6c28.8-12.4 60-32.5 108.5-64.1c3.5 23.5 3.5 54.3 3.5 95.7l0 .3c0 80.5 0 120.7-25 145.7c-24.9 24.9-65 25-145.1 25l-.6 0-85.3 0c-80.5 0-120.7 0-145.7-25s-25-65.2-25-145.7z"/><path class="fa-primary" d="M210.7 90.7c-2.9 8.3-12.1 12.7-20.4 9.8s-12.7-12.1-9.8-20.4c11-31.1 40.6-53.3 75.4-53.3s64.5 22.3 75.4 53.3c2.9 8.3-1.4 17.5-9.8 20.4s-17.5-1.4-20.4-9.8c-6.6-18.7-24.4-32-45.3-32s-38.7 13.3-45.3 32zM58.6 172.6c-1.1-.7-2.3-1.3-3.6-1.7c3.3-6.8 7.4-12.7 12.6-17.9c25-25 65.2-25 145.7-25l85.3 0c80.5 0 120.7 0 145.7 25c5.2 5.2 9.4 11.1 12.6 17.9c-1.2 .4-2.4 1-3.6 1.7c-44.8 29.1-73 47.3-96.4 59c-1.4-7.4-7.9-13-15.7-13c-8.8 0-16 7.2-16 16l0 9.8c-45.2 13.6-93.5 13.6-138.7 0l0-9.8c0-8.8-7.2-16-16-16c-7.8 0-14.3 5.6-15.7 13c-23.4-11.7-51.5-29.9-96.3-59z"/></svg>