<svg xmlns="http://www.w3.org/2000/svg" viewBox="0 0 512 512"><!--!Font Awesome Pro 6.6.0 by @fontawesome - https://fontawesome.com License - https://fontawesome.com/license (Commercial License) Copyright 2024 Fonticons, Inc.--><path class="fa-secondary" opacity=".4" d="M42.7 389.7c0 4 1.6 8 4.7 11s7.2 4.6 11.2 4.6s8.1-1.5 11.2-4.6l57-56c-.1-.1-.3-.2-.4-.4c-7.4-7.3-14.9-14.6-22.3-21.9L47.3 378.7c-3.1 3-4.7 7-4.7 11zM247 366c0 8.6 7.1 15.6 15.9 15.6l190.5 0c8.8 0 15.9-7 15.9-15.6s-7.1-15.6-15.9-15.6l-190.5 0c-8.8 0-15.9 7-15.9 15.6zm84.7-187.3c0 8.6 7.1 15.6 15.9 15.6l105.9 0c8.8 0 15.9-7 15.9-15.6s-7.1-15.6-15.9-15.6l-105.9 0c-8.8 0-15.9 7-15.9 15.6zm21.2 93.6c0 8.6 7.1 15.6 15.9 15.6l84.7 0c8.8 0 15.9-7 15.9-15.6s-7.1-15.6-15.9-15.6l-84.7 0c-8.8 0-15.9 7-15.9 15.6z"/><path class="fa-primary" d="M276.3 183.4l-7.8-7.6c-32.4-31.8-48.6-47.8-66.1-47.7c-5.7 0-11.4 1.2-16.7 3.4c-16.1 6.8-24.6 27.7-41.5 69.6l-1.2 3c-4.8 11.9-7.2 17.8-11.1 22.6c-2.9 3.6-6.4 6.8-10.4 9.2c-5.2 3.3-11.5 5-24 8.5c-19.4 5.4-29.1 8.1-33.4 13.9c-3.2 4.3-4.6 9.6-3.9 14.9c.9 7.1 8 14.1 22.3 28.1l21.7 21.3 22.3 21.9 .4 .4 21.9 21.5c14.2 14 21.4 21 28.6 21.9c5.4 .7 10.8-.7 15.1-3.9c5.9-4.2 8.6-13.7 14.1-32.8c3.5-12.3 5.3-18.4 8.7-23.6c2.5-3.9 5.7-7.4 9.4-10.2c4.9-3.8 10.9-6.2 23-10.9l3.1-1.2c42.6-16.6 63.8-25 70.8-40.8c2.3-5.2 3.4-10.8 3.4-16.4c0-17.3-16.2-33.2-48.6-65z"/></svg>