<svg xmlns="http://www.w3.org/2000/svg" viewBox="0 0 512 512"><!--!Font Awesome Pro 6.6.0 by @fontawesome - https://fontawesome.com License - https://fontawesome.com/license (Commercial License) Copyright 2024 Fonticons, Inc.--><path class="fa-secondary" opacity=".4" d="M42.7 256c0-100.6 0-150.8 31.2-182.1S155.4 42.7 256 42.7s150.9 0 182.1 31.2c31.2 31.2 31.2 81.3 31.2 181.3l0 .8c0 100.6 0 150.9-31.2 182.1s-81.5 31.2-182.1 31.2s-150.8 0-182.1-31.2S42.7 356.6 42.7 256zM212.4 359c0 7.1 4.7 13.5 11.9 15.4c8.5 2.3 17.3-2.8 19.6-11.3l55.2-206.1c.4-1.4 .5-2.8 .5-4.2c0-7.1-4.7-13.5-11.9-15.4c-8.5-2.3-17.3 2.8-19.6 11.3L212.9 354.9c-.4 1.4-.5 2.8-.5 4.2z"/><path class="fa-primary" d="M299.1 157.1c2.3-8.5-2.8-17.3-11.3-19.6s-17.3 2.8-19.6 11.3L212.9 354.9c-2.3 8.5 2.8 17.3 11.3 19.6s17.3-2.8 19.6-11.3l55.2-206.1z"/></svg>