<svg xmlns="http://www.w3.org/2000/svg" viewBox="0 0 512 512"><!--!Font Awesome Pro 6.5.2 by @fontawesome - https://fontawesome.com License - https://fontawesome.com/license (Commercial License) Copyright 2024 Fonticons, Inc.--><path class="fa-secondary" opacity=".4" d="M42.7 256a213.3 213.3 0 1 0 426.7 0A213.3 213.3 0 1 0 42.7 256zm96.5 123.4c0-4.5 1.1-9.1 3.4-13.3C158.1 337.7 190.1 320 256 320s97.9 17.7 113.5 46.1c2.3 4.2 3.4 8.8 3.4 13.3c0 10.1-5.4 20-14.3 26.2c-30.1 20.7-65.7 31.8-102.3 31.8l-.3 0-.3 0c-36.5 0-72.2-11.1-102.3-31.8c-8.9-6.1-14.3-16-14.3-26.1zM320 192a64 64 0 1 1 -128 0 64 64 0 1 1 128 0z"/><path class="fa-primary" d="M358.5 405.6A180.5 180.5 0 0 1 256 437.3a180.5 180.5 0 0 1 -102.5-31.8c-12.9-8.9-18.4-25.7-10.9-39.4C158.1 337.7 190.1 320 256 320s97.9 17.7 113.5 46.1c7.5 13.7 2 30.6-10.9 39.4M256 256a64 64 0 1 0 0-128 64 64 0 0 0 0 128"/></svg>