<svg xmlns="http://www.w3.org/2000/svg" viewBox="0 0 640 512"><!--!Font Awesome Pro 6.6.0 by @fontawesome - https://fontawesome.com License - https://fontawesome.com/license (Commercial License) Copyright 2024 Fonticons, Inc.--><path d="M0 403.2C0 392.6 8.6 384 19.2 384l301.5 0c3.3 36.3 17.6 69.4 39.6 96L76.8 480C34.4 480 0 445.6 0 403.2zM64 96c0-35.3 28.7-64 64-64l384 0c35.3 0 64 28.7 64 64l0 115.2c-19.5-10-41.1-16.4-64-18.5L512 96 128 96l0 256-64 0L64 96zM352 368c0-79.5 64.5-144 144-144s144 64.5 144 144s-64.5 144-144 144s-144-64.5-144-144zm76.6 3.8c1.6 4.9 6.2 8.2 11.4 8.2l35.6 0-30.1 54.2c-2.8 5-1.7 11.1 2.6 14.9s10.6 4 15.1 .6l96-72c4.1-3.1 5.8-8.5 4.2-13.4s-6.2-8.2-11.4-8.2l-35.6 0 30.1-54.2c2.8-5 1.7-11.1-2.6-14.9s-10.6-4-15.1-.6l-96 72c-4.1 3.1-5.8 8.5-4.2 13.4z"/></svg>