<svg xmlns="http://www.w3.org/2000/svg" viewBox="0 0 512 512"><!--!Font Awesome Pro 6.6.0 by @fontawesome - https://fontawesome.com License - https://fontawesome.com/license (Commercial License) Copyright 2024 Fonticons, Inc.--><path class="fa-secondary" opacity=".4" d="M42.7 284.8l0 .3c0 65.4 0 98.1 16 121.5c6.9 10.2 15.8 18.9 26.2 25.7C108.7 448 142 448 208.6 448l94.8 0c66.6 0 99.9 0 123.8-15.7c10.4-6.8 19.2-15.5 26.2-25.7c16-23.5 16-56.2 16-121.5s0-98.1-16-121.5c-6.9-10.2-15.8-18.9-26.2-25.7c-15.4-10.1-34.6-13.7-64.1-15c-14.1 0-26.2-10.5-28.9-24C330.1 78.6 311.9 64 290.9 64l-69.7 0c-21.1 0-39.2 14.6-43.4 34.9c-2.8 13.5-14.9 24-28.9 24c-29.5 1.3-48.7 4.9-64.1 15c-10.4 6.8-19.2 15.5-26.2 25.7c-16 23.4-16 56.1-16 121.2zm124.4 .3c0-48.2 39.8-87.3 88.9-87.3s88.9 39.1 88.9 87.3s-39.8 87.3-88.9 87.3s-88.9-39.1-88.9-87.3zm35.6 0c0 28.9 23.9 52.4 53.3 52.4s53.3-23.4 53.3-52.4s-23.9-52.4-53.3-52.4s-53.3 23.4-53.3 52.4zm154.1-69.8c0-9.6 8-17.5 17.8-17.5l23.7 0c9.8 0 17.8 7.8 17.8 17.5s-8 17.5-17.8 17.5l-23.7 0c-9.8 0-17.8-7.8-17.8-17.5z"/><path class="fa-primary" d="M374.5 197.8c-9.8 0-17.8 7.8-17.8 17.5s8 17.5 17.8 17.5h23.7c9.8 0 17.8-7.8 17.8-17.5s-8-17.5-17.8-17.5H374.5zm-118.5 0c-49.1 0-88.9 39.1-88.9 87.3s39.8 87.3 88.9 87.3s88.9-39.1 88.9-87.3s-39.8-87.3-88.9-87.3zm0 34.9c29.5 0 53.3 23.4 53.3 52.4s-23.9 52.4-53.3 52.4s-53.3-23.4-53.3-52.4s23.9-52.4 53.3-52.4z"/></svg>