<svg xmlns="http://www.w3.org/2000/svg" viewBox="0 0 512 512"><!--!Font Awesome Pro 6.6.0 by @fontawesome - https://fontawesome.com License - https://fontawesome.com/license (Commercial License) Copyright 2024 Fonticons, Inc.--><path class="fa-secondary" opacity=".4" d="M106.7 53.3c0 35.3 28.7 64 64 64l170.7 0c35.3 0 64-28.7 64-64c0-5.9-4.8-10.7-10.7-10.7l-277.3 0c-5.9 0-10.7 4.8-10.7 10.7zm0 405.3c0 5.9 4.8 10.7 10.7 10.7l277.3 0c5.9 0 10.7-4.8 10.7-10.7c0-35.3-28.7-64-64-64l-170.7 0c-35.3 0-64 28.7-64 64z"/><path class="fa-primary" d="M106.7 245.3c0-40.2 0-60.3 12.5-72.8S151.8 160 192 160H320c40.2 0 60.3 0 72.8 12.5s12.5 32.6 12.5 72.8v21.3c0 40.2 0 60.3-12.5 72.8S360.2 352 320 352H192c-40.2 0-60.3 0-72.8-12.5s-12.5-32.6-12.5-72.8V245.3z"/></svg>