<svg xmlns="http://www.w3.org/2000/svg" viewBox="0 0 512 512"><!--!Font Awesome Pro 6.6.0 by @fontawesome - https://fontawesome.com License - https://fontawesome.com/license (Commercial License) Copyright 2024 Fonticons, Inc.--><path class="fa-secondary" opacity=".4" d="M64 401.4c0 37.5 33.9 67.9 75.6 67.9s75.6-30.4 75.6-67.9l0-146.2c-11.6 4.5-23.3 9.1-34.9 13.6c0 25.1 0 50.2 0 75.3c-11.8-6.8-25.7-10.7-40.7-10.7c-41.8 0-75.6 30.4-75.6 67.9zm232.7-41.8c0 37.5 33.9 67.9 75.6 67.9s75.6-30.4 75.6-67.9l0-189.9c-11.6 4.8-23.3 9.6-34.9 14.5l0 118.2c-11.8-6.8-25.7-10.7-40.7-10.7c-41.8 0-75.6 30.4-75.6 67.9z"/><path class="fa-primary" d="M215.3 255.2l197.8-71.1L448 169.7l0-9.8c0-23.9 0-43.9-1.9-59.9c-.3-2.3-.6-4.5-.9-6.6c-1.8-10.9-5-21.1-11.1-29.6c-3.1-4.2-6.9-8.1-11.6-11.4c-.9-.6-1.8-1.2-2.8-1.8l-.2-.1c-16.5-9.8-35-9.1-54-4.8c-18.4 4.2-41.3 12.8-69.3 23.4L247.4 87.4c-13.1 4.9-24.3 9.1-33 13.5c-9.3 4.6-17.3 10-23.3 18.2s-8.5 16.8-9.6 26.3c-1.1 8.9-1.1 19.7-1.1 32.5l0 91 34.9-13.6z"/></svg>