<svg xmlns="http://www.w3.org/2000/svg" viewBox="0 0 512 512"><!--!Font Awesome Pro 6.6.0 by @fontawesome - https://fontawesome.com License - https://fontawesome.com/license (Commercial License) Copyright 2024 Fonticons, Inc.--><path class="fa-secondary" opacity=".4" d="M42.7 256c0-53.6 0-92.9 4.7-122.7l85.9 0 0-85.9c9.6-1.5 20.2-2.6 32-3.3l0 89.2 74.7 0 0-90.7c5.2 0 10.5 0 16 0l16 0 0 90.7 74.7 0 0-89.2c11.8 .7 22.4 1.7 32 3.3l0 85.9 85.9 0c4.7 29.8 4.7 69.1 4.7 122.7l0 .8c0 53.2 0 92.3-4.7 121.9l-85.9 0 0 85.9c-9.6 1.5-20.2 2.6-32 3.3l0-89.2-74.7 0 0 90.7c-5.2 0-10.5 0-16 0s-10.8 0-16 0l0-90.7-74.7 0 0 89.2c-11.8-.7-22.4-1.7-32-3.3l0-85.9-85.9 0c-4.7-29.8-4.7-69.1-4.7-122.7zm170.7 0c0 30.6 0 45.8 8.5 51.5s20-2 42.9-17.4c22.6-15.2 33.9-22.8 33.9-34s-11.3-18.9-33.9-34c-22.9-15.4-34.4-23.1-42.9-17.4s-8.5 20.9-8.5 51.5z"/><path class="fa-primary" d="M298.7 256c0-11.3-11.3-18.9-33.9-34c-22.9-15.4-34.4-23.1-42.9-17.4s-8.5 20.9-8.5 51.5s0 45.8 8.5 51.5s20-2 42.9-17.4c22.6-15.2 33.9-22.8 33.9-34zM240 42.7c-29.1 0-53.7 .2-74.7 1.5v89.2H240V42.7zM133.3 47.4c-26.1 4.1-44.8 11.9-59.4 26.5s-22.4 33.3-26.5 59.4h85.9V47.4zm331.3 85.9c-4.1-26.1-11.9-44.8-26.5-59.4s-33.3-22.4-59.4-26.5v85.9h85.9zM272 42.7c29.1 0 53.7 .2 74.7 1.5v89.2H272V42.7zm192.6 336H378.7v85.9c26.1-4.1 44.8-11.9 59.4-26.5s22.4-33.3 26.5-59.4zm-117.9 0v89.2c-20.9 1.2-45.5 1.4-74.7 1.5V378.7h74.7zM240 469.3V378.7H165.3l0 89.2c20.9 1.2 45.5 1.4 74.7 1.5zM133.3 378.7l0 85.9c-26.1-4.1-44.8-11.9-59.4-26.5s-22.4-33.3-26.5-59.4h85.9z"/></svg>