<svg xmlns="http://www.w3.org/2000/svg" viewBox="0 0 512 512"><!--!Font Awesome Pro 6.6.0 by @fontawesome - https://fontawesome.com License - https://fontawesome.com/license (Commercial License) Copyright 2024 Fonticons, Inc.--><path class="fa-secondary" opacity=".4" d="M42.7 284.8l0 .3c0 65.4 0 98.1 16 121.5c6.9 10.2 15.8 18.9 26.2 25.7C108.7 448 142 448 208.6 448l94.8 0c66.6 0 99.9 0 123.8-15.7c10.4-6.8 19.2-15.5 26.2-25.7c16-23.5 16-56.2 16-121.5s0-98.1-16-121.5c-6.9-10.2-15.8-18.9-26.2-25.7c-15.4-10.1-34.6-13.7-64.1-15c-14.1 0-26.2-10.5-28.9-24C330.1 78.6 311.9 64 290.9 64l-69.7 0c-21.1 0-39.2 14.6-43.4 34.9c-2.8 13.5-14.9 24-28.9 24c-29.5 1.3-48.7 4.9-64.1 15c-10.4 6.8-19.2 15.5-26.2 25.7c-16 23.4-16 56.1-16 121.2zm129.8-2.3c0-21.4 8.2-42.8 24.5-59.1c26.2-26.2 65.5-31.4 96.9-15.5l0-3.1c0-8.8 7.2-16 16-16s16 7.2 16 16l0 35.8c0 7.6-5.3 14.1-12.7 15.7l-32.4 6.8c-8.6 1.8-17.1-3.7-19-12.4c-1.6-7.4 2.3-14.7 8.9-17.8c-17.5-5.1-37.2-.8-51 13c-20.1 20.1-20.1 52.8 0 72.9s52.8 20.1 72.9 0c8.6-8.6 13.5-19.4 14.8-30.6c1-8.8 8.9-15.1 17.7-14.1s15.1 8.9 14.1 17.7c-2.1 18.1-10.1 35.7-23.9 49.6C298.8 357.9 277.4 366 256 366s-42.8-8.2-59.1-24.5s-24.5-37.7-24.5-59.1z"/><path class="fa-primary" d="M309.8 188.8c8.8 0 16 7.2 16 16v35.8c0 7.6-5.3 14.1-12.7 15.7l-32.4 6.8c-8.6 1.8-17.1-3.7-19-12.4c-1.6-7.4 2.3-14.7 8.9-17.8c-17.5-5.1-37.2-.8-51 13c-20.1 20.1-20.1 52.8 0 72.9s52.8 20.1 72.9 0c8.6-8.6 13.5-19.4 14.8-30.6c1-8.8 8.9-15.1 17.7-14.1s15.1 8.9 14.1 17.7c-2.1 18.1-10.1 35.7-23.9 49.6c-32.6 32.6-85.6 32.6-118.2 0s-32.6-85.6 0-118.2c26.2-26.2 65.5-31.4 96.9-15.5v-3.1c0-8.8 7.2-16 16-16z"/></svg>