<svg xmlns="http://www.w3.org/2000/svg" viewBox="0 0 512 512"><!--!Font Awesome Pro 6.6.0 by @fontawesome - https://fontawesome.com License - https://fontawesome.com/license (Commercial License) Copyright 2024 Fonticons, Inc.--><path class="fa-secondary" opacity=".4" d="M48 128c0-8.8 7.2-16 16-16l384 0c8.8 0 16 7.2 16 16s-7.2 16-16 16L64 144c-8.8 0-16-7.2-16-16zm0 85.3c0-8.8 7.2-16 16-16l384 0c8.8 0 16 7.2 16 16s-7.2 16-16 16l-384 0c-8.8 0-16-7.2-16-16zm0 85.3c0-8.8 7.2-16 16-16l170.7 0c8.8 0 16 7.2 16 16s-7.2 16-16 16L64 314.7c-8.8 0-16-7.2-16-16zM48 384c0-8.8 7.2-16 16-16l170.7 0c8.8 0 16 7.2 16 16s-7.2 16-16 16L64 400c-8.8 0-16-7.2-16-16z"/><path class="fa-primary" d="M362.9 307.9c6-5.1 14.8-5.1 20.8 0l74.7 64c6.7 5.7 7.5 15.9 1.7 22.6s-15.9 7.5-22.6 1.7l-64.3-55.1-64.3 55.1c-6.7 5.8-16.8 5-22.6-1.7s-5-16.8 1.7-22.6l74.7-64z"/></svg>