<svg xmlns="http://www.w3.org/2000/svg" viewBox="0 0 512 512"><!--!Font Awesome Pro 6.6.0 by @fontawesome - https://fontawesome.com License - https://fontawesome.com/license (Commercial License) Copyright 2024 Fonticons, Inc.--><path class="fa-secondary" opacity=".4" d="M42.7 256c0 100.6 0 150.9 31.2 182.1c14.6 14.6 33.3 22.4 59.4 26.5l0-17.7 0-1.1c0-18.7 0-34.3 1.7-46.7c1.8-13.4 5.8-25.5 15.5-35.2s21.8-13.7 35.2-15.5c12.7-1.7 28.7-1.7 47.8-1.7l44.9 0c19.2 0 35.2 0 47.8 1.7c13.4 1.8 25.5 5.8 35.2 15.5s13.7 21.8 15.5 35.2c1.7 12.7 1.7 28.7 1.7 47.8l0 17.7c26.1-4.2 44.8-12 59.4-26.5c31.2-31.2 31.2-81.3 31.2-181.3l0-.8c0-7.3 0-10.9-.3-14.6c-1.5-17.3-8.5-34.2-19.7-47.4c-2.4-2.8-5-5.5-10.3-10.8L328.8 72.9c-5.3-5.3-7.9-7.9-10.8-10.3C304.8 51.5 287.9 44.5 270.6 43c-3.7-.3-7.3-.3-14.6-.3c-100.6 0-150.9 0-182.1 31.2S42.7 155.4 42.7 256zm90.7-85.3c0-8.8 7.2-16 16-16l128 0c8.8 0 16 7.2 16 16s-7.2 16-16 16l-128 0c-8.8 0-16-7.2-16-16zm0 293.9c10.7 1 21.3 2.1 32 3.2c-10.7-1-21.3-2.1-32-3.2zm32-16.6l0 19.8c24.7 1.5 54.4 1.5 90.7 1.5s66 0 90.7-1.6l0-19.8c0-20.6 0-34.4-1.4-44.7c-1.3-9.8-3.6-14.1-6.4-16.8s-7-5.1-16.8-6.4c-10.3-1.4-24.1-1.4-44.7-1.4l-42.7 0c-20.6 0-34.4 0-44.7 1.4c-9.8 1.3-14.1 3.6-16.8 6.4s-5.1 7-6.4 16.8c-1.4 10.3-1.4 24.1-1.4 44.7zm181.3 19.8c8.2-.9 16.4-1.6 24.7-2.4c-8.2 .8-16.4 1.7-24.7 2.4z"/><path class="fa-primary" d="M149.3 154.7c-8.8 0-16 7.2-16 16s7.2 16 16 16h128c8.8 0 16-7.2 16-16s-7.2-16-16-16h-128zm129.1 192c19.2 0 35.2 0 47.8 1.7c13.4 1.8 25.5 5.8 35.2 15.5s13.7 21.8 15.5 35.2c1.7 12.7 1.7 28.7 1.7 47.8v0l0 17.8-32 3V448c0-20.6 0-34.4-1.4-44.7c-1.3-9.8-3.6-14.1-6.4-16.8s-7-5.1-16.8-6.4c-10.3-1.4-24.1-1.4-44.7-1.4H234.7c-20.6 0-34.4 0-44.7 1.4c-9.8 1.3-14.1 3.6-16.8 6.4s-5.1 7-6.4 16.8c-1.4 10.3-1.4 24.1-1.4 44.7v19.8l-32-3.2 0-17.7v0c0-19.2 0-35.2 1.7-47.8c1.8-13.4 5.8-25.5 15.5-35.2s21.8-13.7 35.2-15.5c12.7-1.7 28.7-1.7 47.8-1.7h0 44.9 0z"/></svg>