<svg xmlns="http://www.w3.org/2000/svg" viewBox="0 0 512 512"><!--!Font Awesome Pro 6.6.0 by @fontawesome - https://fontawesome.com License - https://fontawesome.com/license (Commercial License) Copyright 2024 Fonticons, Inc.--><path class="fa-secondary" opacity=".4" d="M42.7 256l0 5.3c2 0 4 .4 5.9 1.1l100.7 40.3 61.1-24.4c29.2-11.7 61.9-11.7 91.1 0l61.1 24.4 100.7-40.3c1.9-.8 4-1.1 5.9-1.1l0-5.3c0-100.6 0-150.8-31.2-182.1S356.6 42.7 256 42.7s-150.8 0-182.1 31.2S42.7 155.4 42.7 256zm128-32c0-17.7 9.6-32 21.3-32s21.3 14.3 21.3 32s-9.6 32-21.3 32s-21.3-14.3-21.3-32zm128 0c0-17.7 9.6-32 21.3-32s21.3 14.3 21.3 32s-9.6 32-21.3 32s-21.3-14.3-21.3-32z"/><path class="fa-primary" d="M213.3 224c0 17.7-9.6 32-21.3 32s-21.3-14.3-21.3-32s9.6-32 21.3-32s21.3 14.3 21.3 32zm128 0c0 17.7-9.6 32-21.3 32s-21.3-14.3-21.3-32s9.6-32 21.3-32s21.3 14.3 21.3 32zm127.9 70.6l-91.3 36.5-4.4 61.5 70.1 30.1c1.8 .8 3.3 1.8 4.6 3c17.8-26.9 20.6-66.4 21-131zm-45 154.5l-53.2-22.8L368.3 466c23.5-2.7 41.5-7.7 56-16.9zM336 468.4c0-.1 0-.1 0-.2l9.8-137.7L289.7 308c-21.6-8.6-45.7-8.6-67.3 0l-56.2 22.5L176 468.2c0 .1 0 .1 0 .2c22.5 .9 48.8 .9 80 .9s57.6 0 80-.9zM143.7 466l-2.8-39.7L87.7 449.1c14.5 9.1 32.5 14.1 56 16.9zm-80-40.4c1.3-1.2 2.9-2.3 4.6-3l70.1-30.1-4.4-61.5L42.8 294.6c.4 64.6 3.2 104.1 21 131z"/></svg>