<svg xmlns="http://www.w3.org/2000/svg" viewBox="0 0 512 512"><!--!Font Awesome Pro 6.6.0 by @fontawesome - https://fontawesome.com License - https://fontawesome.com/license (Commercial License) Copyright 2024 Fonticons, Inc.--><path class="fa-secondary" opacity=".4" d="M42.7 148.3l0 150.4c0 80.5 0 120.7 25 145.7c24.9 24.9 65.1 25 145.2 25l.5 0 85.3 0c80.5 0 120.7 0 145.7-25c24.9-24.9 25-65.1 25-145.2l0-.5 0-47c0-56.2 0-84.2-16.4-102.5c-1.5-1.7-3.1-3.3-4.8-4.8C429.9 128 401.8 128 345.6 128l-8 0c-24.6 0-36.9 0-48.4-3.3c-6.3-1.8-12.4-4.3-18.1-7.5c-10.4-5.8-19.1-14.5-36.5-31.9L222.9 73.6c-5.8-5.8-8.7-8.7-11.8-11.3c-13.2-11-29.4-17.7-46.5-19.3c-4-.4-8.1-.4-16.3-.4c-18.8 0-28.2 0-36.1 1.5c-34.5 6.5-61.5 33.5-68 68c-1.5 7.8-1.5 17.3-1.5 36.1zM192.4 261.6c1.9-6 9.7-7.8 25.5-11.4l4.1-.9c4.5-1 6.7-1.5 8.5-2.9s2.9-3.4 5.3-7.6l2.1-3.8c8.1-14.5 12.2-21.8 18.2-21.8s10.1 7.3 18.2 21.8l2.1 3.8c2.3 4.1 3.5 6.2 5.3 7.6s4 1.9 8.5 2.9l4.1 .9c15.7 3.6 23.6 5.3 25.5 11.4c.2 .8 .4 1.6 .4 2.4c0 5.4-5.3 11.5-14.6 22.4l-2.8 3.2c-3 3.6-4.6 5.3-5.3 7.6s-.5 4.6 0 9.3l.4 4.3c1.6 16.7 2.4 25.1-2.5 28.8s-12.3 .3-27-6.5l-3.8-1.8c-4.2-1.9-6.3-2.9-8.5-2.9s-4.3 1-8.5 2.9l-3.8 1.8c-14.7 6.8-22.1 10.2-27 6.5s-4.1-12.1-2.5-28.8l.4-4.3c.5-4.8 .7-7.1 0-9.3s-2.2-4-5.3-7.6l-2.8-3.2c-10.7-12.6-16.1-18.8-14.2-24.8z"/><path class="fa-primary" d="M276.3 238.9l-2.1-3.8c-8.1-14.5-12.2-21.8-18.2-21.8s-10.1 7.3-18.2 21.8l-2.1 3.8 0 0c-2.3 4.1-3.5 6.2-5.3 7.6s-4 1.9-8.5 2.9l-4.1 .9c-15.7 3.6-23.6 5.3-25.5 11.4s3.5 12.3 14.2 24.8l2.8 3.2c3 3.6 4.6 5.3 5.3 7.6s.5 4.6 0 9.3l-.4 4.3c-1.6 16.7-2.4 25.1 2.5 28.8s12.3 .3 27-6.5l3.8-1.8c4.2-1.9 6.3-2.9 8.5-2.9s4.3 1 8.5 2.9l3.8 1.8 0 0c14.7 6.8 22.1 10.2 27 6.5s4.1-12.1 2.5-28.8l-.4-4.3c-.5-4.8-.7-7.1 0-9.3s2.2-4 5.3-7.6l2.8-3.2c10.7-12.6 16.1-18.8 14.2-24.8s-9.7-7.8-25.5-11.4l-4.1-.9c-4.5-1-6.7-1.5-8.5-2.9s-2.9-3.4-5.3-7.6l0 0z"/></svg>