<svg xmlns="http://www.w3.org/2000/svg" viewBox="0 0 512 512"><!--!Font Awesome Pro 6.6.0 by @fontawesome - https://fontawesome.com License - https://fontawesome.com/license (Commercial License) Copyright 2024 Fonticons, Inc.--><path class="fa-secondary" opacity=".4" d="M42.7 309.3a160 160 0 1 0 320 0 160 160 0 1 0 -320 0z"/><path class="fa-primary" d="M355.6 67.5c-4-7.9-13.6-11.1-21.5-7.2s-11.1 13.6-7.2 21.5l10.7 21.3c4 7.9 13.6 11.1 21.5 7.2s11.1-13.6 7.2-21.5L355.6 67.5zm67.5 78.2c-7.9-4-17.5-.7-21.5 7.2s-.7 17.5 7.2 21.5L430.2 185c7.9 4 17.5 .7 21.5-7.2s.7-17.5-7.2-21.5l-21.3-10.7zm14.8-49c6.2-6.2 6.2-16.4 0-22.6s-16.4-6.2-22.6 0L394 95.4c-6.2 6.2-6.2 16.4 0 22.6s16.4 6.2 22.6 0L438 96.6zM326.5 208.1L374 160.6c6.2-6.2 6.2-16.4 0-22.6s-16.4-6.2-22.6 0l-47.4 47.4c8.3 6.8 15.9 14.4 22.6 22.6z"/></svg>