<svg xmlns="http://www.w3.org/2000/svg" viewBox="0 0 512 512"><!--!Font Awesome Pro 6.6.0 by @fontawesome - https://fontawesome.com License - https://fontawesome.com/license (Commercial License) Copyright 2024 Fonticons, Inc.--><path class="fa-secondary" opacity=".4" d="M64.1 176c0 5.3 0 10.7-.1 16L448 192c0-5.3 0-10.7 0-16c-.6-56.2-4.2-87.6-25-108.3c-24.9-24.9-65-25-145-25l-.6 0-42.7 0c-80.5 0-120.7 0-145.7 25C68.2 88.4 64.7 119.8 64.1 176zm58.6-58.7c0-8.8 7.2-16 16-16l64 0c8.8 0 16 7.2 16 16s-7.2 16-16 16l-64 0c-8.8 0-16-7.2-16-16zm208 0a21.3 21.3 0 1 1 -42.7 0 21.3 21.3 0 1 1 42.7 0zm64 0a21.3 21.3 0 1 1 -42.7 0 21.3 21.3 0 1 1 42.7 0z"/><path class="fa-primary" d="M304 320a48 48 0 1 1 -96 0 48 48 0 1 1 96 0zM64 192l384 0 0 85.3c0 80.5 0 120.7-25 145.7c-6.5 6.5-14 11.3-23 14.9l0 31.5c0 8.8-7.2 16-16 16s-16-7.2-16-16l0-24.1c-22.8 2.7-52.1 2.7-90.7 2.7l-42.7 0c-38.5 0-67.8 0-90.7-2.7l0 24.1c0 8.8-7.2 16-16 16s-16-7.2-16-16l0-31.5c-9-3.6-16.5-8.4-23-14.9c-25-25-25-65.2-25-145.7L64 192zm192 48a80 80 0 1 0 0 160 80 80 0 1 0 0-160zM138.7 101.3c-8.8 0-16 7.2-16 16s7.2 16 16 16h64c8.8 0 16-7.2 16-16s-7.2-16-16-16h-64zm149.3 16a21.3 21.3 0 1 1 42.7 0 21.3 21.3 0 1 1 -42.7 0zm85.3 21.3a21.3 21.3 0 1 0 0-42.7 21.3 21.3 0 1 0 0 42.7z"/></svg>