<svg xmlns="http://www.w3.org/2000/svg" viewBox="0 0 512 512"><!--!Font Awesome Pro 6.6.0 by @fontawesome - https://fontawesome.com License - https://fontawesome.com/license (Commercial License) Copyright 2024 Fonticons, Inc.--><path class="fa-secondary" opacity=".4" d="M21.3 288.6c0-99.6 0-149.3 30.9-180.3c30.9-30.9 80.5-30.9 179.6-30.9l.7 0c44.1 0 78.4 0 105.6 2.7l0 14.1c-66.3 0-160.4 37.3-174.3 180.6c-1.4 14.4-2.1 21.5 .9 23c.3 .1 .6 .2 1 .2c3.2 0 8.7-5.5 18.8-15.5c36.8-36.5 97.1-57.6 153.6-57.6l0 35.8c0 22.2 0 33.2 6.9 36.4s15.2-4.1 32-18.6l55.3-47.9c3.8-3.3 7.5-6.5 10.9-9.5c.5 19.6 .5 41.9 .5 67.6c0 99.6 0 149.3-30.9 180.3c-30.9 30.9-80.5 30.9-179.6 30.9l-.7 0c-99.6 0-149.3 0-180.3-30.9c-30.9-30.9-30.9-80.5-30.9-179.6l0-.7z"/><path class="fa-primary" d="M377 40.7l55.3 47.9c38.1 33 57.1 49.5 57.1 70.9s-19 37.9-57.1 70.9L377 278.4c-16.7 14.5-25.1 21.8-32 18.6s-6.9-14.2-6.9-36.4V224.9c-56.5 0-116.8 21.1-153.6 57.6c-11.2 11.1-16.8 16.7-19.8 15.3s-2.3-8.6-.9-23c13.8-143.4 108-180.6 174.3-180.6V58.4c0-22.2 0-33.2 6.9-36.4s15.2 4.1 32 18.6z"/></svg>