<svg xmlns="http://www.w3.org/2000/svg" viewBox="0 0 512 512"><!--!Font Awesome Pro 6.6.0 by @fontawesome - https://fontawesome.com License - https://fontawesome.com/license (Commercial License) Copyright 2024 Fonticons, Inc.--><path class="fa-secondary" opacity=".4" d="M42.7 170.7l0 21.3 426.7 0 0-21.3c-2.5-28.3-8.6-47-23.5-60.6s-35.2-19.2-66.2-21.5l0-31.1c0-8.2-7.2-14.8-16.1-14.8s-16.1 6.6-16.1 14.8l0 29.8C333.1 87 317 87 299 87l-86 0c-18 0-34.1 0-48.4 .3l0-29.8c0-8.2-7.2-14.8-16.1-14.8s-16.1 6.6-16.1 14.8l0 31.1c-31 2.3-51.3 7.8-66.2 21.5s-21 32.3-23.5 60.6zM352 400a48 48 0 1 0 96 0 48 48 0 1 0 -96 0z"/><path class="fa-primary" d="M148.5 42.7c8.9 0 16.1 6.6 16.1 14.8V87.2C178.9 87 195 87 213 87h86c18 0 34.1 0 48.4 .3V57.4c0-8.2 7.2-14.8 16.1-14.8s16.1 6.6 16.1 14.8V88.5c31 2.3 51.3 7.8 66.2 21.5s21 32.3 23.5 60.6V192H42.7V170.7c2.5-28.3 8.6-47 23.5-60.6s35.2-19.2 66.2-21.5V57.4c0-8.2 7.2-14.8 16.1-14.8zM400 352a48 48 0 1 0 0 96 48 48 0 1 0 0-96zm-80 48c0-44.2 35.8-80 80-80s80 35.8 80 80c0 16.3-4.9 31.5-13.3 44.1L496.6 474c6.2 6.2 6.2 16.4 0 22.6s-16.4 6.2-22.6 0l-29.9-29.9C431.5 475.1 416.3 480 400 480c-44.2 0-80-35.8-80-80z"/></svg>