<svg xmlns="http://www.w3.org/2000/svg" viewBox="0 0 512 512"><!--!Font Awesome Pro 6.6.0 by @fontawesome - https://fontawesome.com License - https://fontawesome.com/license (Commercial License) Copyright 2024 Fonticons, Inc.--><path class="fa-secondary" opacity=".4" d="M42.7 245.8c0 5.6 4.5 10.2 10.2 10.2l82.3 0 .2-1.6c3-29.3 10.4-84.1 27-132c8.3-23.9 19.2-47.2 33.9-64.8c3.3-4 6.9-7.8 10.8-11.2C113.4 64.5 42.7 146.9 42.7 245.8zM167.3 256l72.7 0 16 0 16 0 72.8 0c-3-28.9-10.2-79.6-25.3-123.1c-7.7-22.2-17.1-41.4-28.3-54.8C280.3 65 268.8 58.7 256 58.7s-24.3 6.3-35.2 19.5c-11.1 13.4-20.6 32.5-28.3 54.8c-15.1 43.5-22.2 94.2-25.2 123.1zM305 46.4c3.9 3.4 7.5 7.2 10.8 11.2c14.7 17.6 25.6 40.9 33.9 64.8c16.6 47.9 24 102.7 27 132l.2 1.6 82.2 0c5.6 0 10.2-4.5 10.2-10.2c0-98.9-70.7-181.3-164.3-199.5z"/><path class="fa-primary" d="M240 426.7L240 256l32 0 0 170.7c0 32.4-26.3 58.7-58.7 58.7s-58.7-26.3-58.7-58.7l0-21.3c0-8.8 7.2-16 16-16s16 7.2 16 16l0 21.3c0 14.7 11.9 26.7 26.7 26.7s26.7-11.9 26.7-26.7zM167.3 256c3-28.9 10.2-79.6 25.2-123.1c7.7-22.2 17.1-41.4 28.3-54.8c11-13.1 22.5-19.5 35.2-19.5s24.3 6.3 35.2 19.5c11.1 13.4 20.6 32.5 28.3 54.8c15.1 43.5 22.2 94.2 25.3 123.1h32.2l-.2-1.6c-3-29.3-10.4-84.1-27-132c-8.3-23.9-19.2-47.2-33.9-64.8c-3.4-4-7-7.8-10.8-11.2c-12.6-2.4-25.6-3.7-38.9-3.7H245.8c-13.3 0-26.3 1.3-38.8 3.7c-3.9 3.4-7.5 7.2-10.8 11.2c-14.7 17.6-25.6 40.9-33.9 64.8c-16.6 47.9-24 102.7-27 132l-.2 1.6h32.2z"/></svg>