<svg xmlns="http://www.w3.org/2000/svg" viewBox="0 0 512 512"><!--!Font Awesome Pro 6.6.0 by @fontawesome - https://fontawesome.com License - https://fontawesome.com/license (Commercial License) Copyright 2024 Fonticons, Inc.--><path class="fa-secondary" opacity=".4" d="M42.7 256c0-100.6 0-150.8 31.2-182.1S155.4 42.7 256 42.7s150.9 0 182.1 31.2c31.2 31.2 31.2 81.3 31.2 181.3l0 .8c0 100.6 0 150.9-31.2 182.1s-81.5 31.2-182.1 31.2s-150.8 0-182.1-31.2S42.7 356.6 42.7 256zm90.7-106.7l0 64c0 8.8 7.2 16 16 16s16-7.2 16-16l0-25.4 47.4 47.4c6.2 6.2 16.4 6.2 22.6 0s6.2-16.4 0-22.6L188 165.3l25.4 0c8.8 0 16-7.2 16-16s-7.2-16-16-16l-64 0c-8.8 0-16 7.2-16 16zm0 149.3l0 64c0 8.8 7.2 16 16 16l64 0c8.8 0 16-7.2 16-16s-7.2-16-16-16l-25.4 0 47.4-47.4c6.2-6.2 6.2-16.4 0-22.6s-16.4-6.2-22.6 0L165.3 324l0-25.4c0-8.8-7.2-16-16-16s-16 7.2-16 16zm143.4-86c-6.2 6.2-6.2 16.4 0 22.6s16.4 6.2 22.6 0L346.7 188l0 25.4c0 8.8 7.2 16 16 16s16-7.2 16-16l0-64c0-8.8-7.2-16-16-16l-64 0c-8.8 0-16 7.2-16 16s7.2 16 16 16l25.4 0-47.4 47.4zm0 64c-6.2 6.2-6.2 16.4 0 22.6L324 346.7l-25.4 0c-8.8 0-16 7.2-16 16s7.2 16 16 16l64 0c8.8 0 16-7.2 16-16l0-64c0-8.8-7.2-16-16-16s-16 7.2-16 16l0 25.4-47.4-47.4c-6.2-6.2-16.4-6.2-22.6 0z"/><path class="fa-primary" d="M282.7 149.3c0 8.8 7.2 16 16 16H324l-47.4 47.4c-6.2 6.2-6.2 16.4 0 22.6s16.4 6.2 22.6 0L346.7 188v25.4c0 8.8 7.2 16 16 16s16-7.2 16-16v-64c0-8.8-7.2-16-16-16h-64c-8.8 0-16 7.2-16 16zm-47.4 150c6.2-6.2 6.2-16.4 0-22.6s-16.4-6.2-22.6 0L165.3 324V298.7c0-8.8-7.2-16-16-16s-16 7.2-16 16v64c0 8.8 7.2 16 16 16h64c8.8 0 16-7.2 16-16s-7.2-16-16-16H188l47.4-47.4zm-6-150c0 8.8-7.2 16-16 16H188l47.4 47.4c6.2 6.2 6.2 16.4 0 22.6s-16.4 6.2-22.6 0L165.3 188v25.4c0 8.8-7.2 16-16 16s-16-7.2-16-16v-64c0-8.8 7.2-16 16-16h64c8.8 0 16 7.2 16 16zm47.4 150c-6.2-6.2-6.2-16.4 0-22.6s16.4-6.2 22.6 0L346.7 324V298.7c0-8.8 7.2-16 16-16s16 7.2 16 16v64c0 8.8-7.2 16-16 16h-64c-8.8 0-16-7.2-16-16s7.2-16 16-16H324l-47.4-47.4z"/></svg>