<svg xmlns="http://www.w3.org/2000/svg" viewBox="0 0 512 512"><!--!Font Awesome Pro 6.6.0 by @fontawesome - https://fontawesome.com License - https://fontawesome.com/license (Commercial License) Copyright 2024 Fonticons, Inc.--><path class="fa-secondary" opacity=".4" d="M58.8 214.3c-.1 12.7-.1 26.6-.1 41.7c0 11.3 0 21.9 0 31.9c.2 40 1.1 69.2 5.1 91.8c3.9 22.1 10.6 36.3 21.4 47.1c12.2 12.2 28.6 19.1 55.9 22.8c27.7 3.7 64.2 3.8 114.9 3.8s87.2 0 114.9-3.8c27.3-3.7 43.7-10.6 55.9-22.8c4.5-4.5 8.1-9.4 11.2-15.1c7.1-13.1 11.2-30.7 13.3-56.4c.8-9.9 1.3-20.7 1.6-32.6s.4-25 .5-39.3l-4.7-.7c-60.7-8.4-116.2 23.1-144.5 70.7C267.6 261.1 171.3 198.1 63.6 213.6l-4.8 .7z"/><path class="fa-primary" d="M254.8 26.7l2.4 0c49.2 0 87.8 0 117.9 4c30.8 4.1 55.1 12.8 74.2 31.9s27.7 43.4 31.9 74.2c4 30.1 4 68.7 4 117.9l0 1.9c0 40.7 0 74.1-2.2 101.2c-2.2 27.3-6.8 50.1-17 69c-4.5 8.3-10 15.8-16.7 22.6c-19.1 19.1-43.4 27.7-74.2 31.9c-30.1 4-68.7 4-117.9 4l-2.4 0c-49.2 0-87.8 0-117.9-4c-30.8-4.1-55.1-12.8-74.2-31.9c-16.9-16.9-25.7-38-30.3-64.1c-4.6-25.7-5.4-57.6-5.6-97.3c0-10.1 0-20.8 0-32l0-1.2c0-49.2 0-87.8 4-117.9C34.9 106 43.5 81.7 62.6 62.6S106 34.9 136.8 30.7c30.1-4 68.7-4 117.9-4zM141.1 62.4c-27.3 3.7-43.7 10.6-55.9 22.8s-19.1 28.6-22.8 55.9c-3.7 27.7-3.8 64.2-3.8 114.9c0 11.3 0 21.9 0 31.9c.2 40 1.1 69.2 5.1 91.8c3.9 22.1 10.6 36.3 21.4 47.1c12.2 12.2 28.6 19.1 55.9 22.8c27.7 3.7 64.2 3.8 114.9 3.8s87.2 0 114.9-3.8c27.3-3.7 43.7-10.6 55.9-22.8c4.5-4.5 8.1-9.4 11.2-15.1c7.1-13.1 11.2-30.7 13.3-56.4c2.1-25.7 2.1-57.7 2.1-99.3c0-50.7 0-87.2-3.8-114.9c-3.7-27.3-10.6-43.7-22.8-55.9s-28.6-19.1-55.9-22.8c-27.7-3.7-64.2-3.8-114.9-3.8s-87.2 0-114.9 3.8zM298.7 170.7a42.7 42.7 0 1 1 85.3 0 42.7 42.7 0 1 1 -85.3 0z"/></svg>