<svg xmlns="http://www.w3.org/2000/svg" viewBox="0 0 512 512"><!--!Font Awesome Pro 6.6.0 by @fontawesome - https://fontawesome.com License - https://fontawesome.com/license (Commercial License) Copyright 2024 Fonticons, Inc.--><path class="fa-secondary" opacity=".4" d="M128 341.3c21.6 0 41.4-8.1 56.4-21.3l143.1 0c7.5 6.6 16.2 12 25.7 15.6c4.8 1.8 9.7 3.3 14.9 4.2c2.6 .5 5.2 .8 7.8 1.1c1.3 .1 2.6 .2 4 .3c.7 0 1.3 .1 2 .1s1.3 0 2 0l-256 0z"/><path class="fa-primary" d="M298.7 256a85.3 85.3 0 1 1 170.7 0 85.3 85.3 0 1 1 -170.7 0zm-256 0a85.3 85.3 0 1 1 170.7 0A85.3 85.3 0 1 1 42.7 256z"/></svg>