<svg xmlns="http://www.w3.org/2000/svg" viewBox="0 0 512 512"><!--!Font Awesome Pro 6.5.2 by @fontawesome - https://fontawesome.com License - https://fontawesome.com/license (Commercial License) Copyright 2024 Fonticons, Inc.--><path class="fa-secondary" opacity=".4" d="M85.1 213.1C85.1 302.2 156.4 384 256 384c61 0 117.3-32.5 147.8-85.3c15.9-27.5 23.1-56.7 23.1-85.1c0-89.1-71.3-170.9-170.9-170.9c-61 0-117.3 32.5-147.8 85.3c-15.9 27.5-23.1 56.7-23.1 85.1zm244.8-42.4A85.3 85.3 0 1 1 182.1 256a85.3 85.3 0 1 1 147.8-85.3z"/><path class="fa-primary" d="M410.9 360c8.8 8.6 15.8 19.9 15.8 34c0 16.1-9.1 28.6-19.2 37.2c-10.2 8.7-23.8 15.6-38.6 21c-29.9 10.8-69.8 17-112.9 17s-82.9-6.3-112.9-17.1c-14.8-5.3-28.4-12.2-38.6-20.9c-10.1-8.7-19.2-21.2-19.2-37.2c0-14.1 7-25.5 15.8-34A212.8 212.8 0 0 0 256 426.7c61 0 116-25.6 154.9-66.6zM256 128a85.3 85.3 0 1 0 0 170.7A85.3 85.3 0 1 0 256 128z"/></svg>