<svg xmlns="http://www.w3.org/2000/svg" viewBox="0 0 512 512"><!--!Font Awesome Pro 6.6.0 by @fontawesome - https://fontawesome.com License - https://fontawesome.com/license (Commercial License) Copyright 2024 Fonticons, Inc.--><path class="fa-secondary" opacity=".4" d="M73.6 294.4C52 328 68.5 373.6 106 384.2c16 4.5 32.2 8.3 48.5 11.4c67.1 12.6 135.8 12.6 203 0c16.3-3 32.5-6.8 48.5-11.4c37.5-10.6 54-56.2 32.4-89.8l-23.6-36.8C405.1 242.7 400 225 400 207l0-15c0-82.5-64.5-149.3-144-149.3s-144 66.9-144 149.3l0 15c0 18-5.1 35.7-14.8 50.6L73.6 294.4z"/><path class="fa-primary" d="M154.5 395.6c13.9 42.8 54.1 73.7 101.5 73.7s87.6-30.9 101.5-73.7c-67.1 12.6-135.8 12.6-203 0z"/></svg>