<svg xmlns="http://www.w3.org/2000/svg" viewBox="0 0 512 512"><!--!Font Awesome Pro 6.6.0 by @fontawesome - https://fontawesome.com License - https://fontawesome.com/license (Commercial License) Copyright 2024 Fonticons, Inc.--><path class="fa-secondary" opacity=".4" d="M85.3 213.3c0-80.5 0-120.7 25-145.7c24.9-24.9 65-25 145.1-25l.6 0c80.5 0 120.7 0 145.7 25c24.9 24.9 25 65.1 25 145.2l0 .5 0 85.3c0 80.5 0 120.7-25 145.7c-24.9 24.9-65.1 25-145.2 25l-.5 0c-80.5 0-120.7 0-145.7-25c-24.9-24.9-25-65.1-25-145.2l0-.5 0-85.3zm69.3 85.3a101.3 101.3 0 1 0 202.7 0 101.3 101.3 0 1 0 -202.7 0zM197.3 128c0 8.8 7.2 16 16 16l85.3 0c8.8 0 16-7.2 16-16s-7.2-16-16-16l-85.3 0c-8.8 0-16 7.2-16 16z"/><path class="fa-primary" d="M213.3 112c-8.8 0-16 7.2-16 16s7.2 16 16 16h85.3c8.8 0 16-7.2 16-16s-7.2-16-16-16H213.3zM256 197.3A101.3 101.3 0 1 0 256 400a101.3 101.3 0 1 0 0-202.7z"/></svg>