<svg xmlns="http://www.w3.org/2000/svg" viewBox="0 0 512 512"><!--!Font Awesome Pro 6.6.0 by @fontawesome - https://fontawesome.com License - https://fontawesome.com/license (Commercial License) Copyright 2024 Fonticons, Inc.--><path class="fa-secondary" opacity=".4" d="M42.7 315c0 49.9 40.9 90.4 91.4 90.4l49.6 0c1.7-2.3 3.5-4.5 5.3-6.6c7.2-8.7 20.1-8.7 27.4 0c1.7 2.1 3.5 4.3 5.3 6.6l68.8 0c1.7-2.3 3.5-4.5 5.3-6.6c7.2-8.7 20.1-8.7 27.4 0c1.7 2.1 3.5 4.3 5.3 6.6l19.1 0c67.3 0 121.9-53.9 121.9-120.5c0-52.7-34.3-97.6-82-113.9c-6.8-60.2-58.4-107-121.1-107c-67.3 0-121.9 53.9-121.9 120.5c0 14.7 2.7 28.8 7.6 41.9c-5.7-1.1-11.7-1.7-17.7-1.7c-50.5 0-91.4 40.5-91.4 90.4zM224 327.1c0-10.8 9.6-24.7 18.3-35.1c3.6-4.3 8.7-6.5 13.7-6.5s10.1 2.2 13.7 6.5c8.7 10.4 18.3 24.3 18.3 35.1c0 19.6-14.3 35.6-32 35.6s-32-15.9-32-35.6z"/><path class="fa-primary" d="M234.7 433.8c0 19.6-14.3 35.6-32 35.6s-32-15.9-32-35.6c0-10.8 9.6-24.7 18.3-35.1c7.2-8.7 20.1-8.7 27.4 0c8.7 10.4 18.3 24.3 18.3 35.1zm106.7 0c0 19.6-14.3 35.6-32 35.6s-32-15.9-32-35.6c0-10.8 9.6-24.7 18.3-35.1c7.2-8.7 20.1-8.7 27.4 0c8.7 10.4 18.3 24.3 18.3 35.1zM288 327.1c0 19.6-14.3 35.6-32 35.6s-32-15.9-32-35.6c0-10.8 9.6-24.7 18.3-35.1c7.2-8.7 20.1-8.7 27.4 0c8.7 10.4 18.3 24.3 18.3 35.1z"/></svg>