<svg xmlns="http://www.w3.org/2000/svg" viewBox="0 0 512 512"><!--!Font Awesome Pro 6.6.0 by @fontawesome - https://fontawesome.com License - https://fontawesome.com/license (Commercial License) Copyright 2024 Fonticons, Inc.--><path class="fa-secondary" opacity=".4" d="M42.7 256a213.3 213.3 0 1 0 426.7 0A213.3 213.3 0 1 0 42.7 256zm90.7-85.3c0-8.8 7.2-16 16-16s16 7.2 16 16l0 170.7c0 8.8-7.2 16-16 16s-16-7.2-16-16l0-170.7zm90 10c6.2-6.2 16.4-6.2 22.6 0L267.3 202c.9 .9 1.7 1.9 2.3 3c8.6-4.9 18.5-7.7 29-7.7s20.5 2.8 29 7.7c.6-1.1 1.4-2.1 2.3-3l21.3-21.3c6.2-6.2 16.4-6.2 22.6 0c3.1 3.1 4.7 7.2 4.7 11.3s-1.6 8.2-4.7 11.3l-21.3 21.3c-.9 .9-1.9 1.7-3 2.3c4.9 8.6 7.7 18.5 7.7 29s-2.8 20.5-7.7 29c1.1 .6 2.1 1.4 3 2.3L374 308.7c3.1 3.1 4.7 7.2 4.7 11.3s-1.6 8.2-4.7 11.3c-6.2 6.2-16.4 6.2-22.6 0L330 310c-.9-.9-1.7-1.9-2.3-3c-8.6 4.9-18.5 7.7-29 7.7s-20.5-2.8-29-7.7c-.6 1.1-1.4 2.1-2.3 3L246 331.3c-6.2 6.2-16.4 6.2-22.6 0s-6.2-16.4 0-22.6l21.3-21.3c.9-.9 1.9-1.7 3-2.3c-4.9-8.6-7.7-18.5-7.7-29s2.8-20.5 7.7-29c-1.1-.6-2.1-1.4-3-2.3l-21.3-21.3c-6.2-6.2-6.2-16.4 0-22.6zM272 256a26.7 26.7 0 1 0 53.3 0A26.7 26.7 0 1 0 272 256z"/><path class="fa-primary" d="M223.4 180.7c6.2-6.2 16.4-6.2 22.6 0L267.3 202c.9 .9 1.7 1.9 2.3 3c8.6-4.9 18.5-7.7 29-7.7s20.5 2.8 29 7.7c.6-1.1 1.4-2.1 2.3-3l21.3-21.3c6.2-6.2 16.4-6.2 22.6 0s6.2 16.4 0 22.6l-21.3 21.3c-.9 .9-1.9 1.7-3 2.3c4.9 8.6 7.7 18.5 7.7 29s-2.8 20.5-7.7 29c1.1 .6 2.1 1.4 3 2.3L374 308.7c6.2 6.2 6.2 16.4 0 22.6s-16.4 6.2-22.6 0L330 310c-.9-.9-1.7-1.9-2.3-3c-8.6 4.9-18.5 7.7-29 7.7s-20.5-2.8-29-7.7c-.6 1.1-1.4 2.1-2.3 3L246 331.3c-6.2 6.2-16.4 6.2-22.6 0s-6.2-16.4 0-22.6l21.3-21.3c.9-.9 1.9-1.7 3-2.3c-4.9-8.6-7.7-18.5-7.7-29s2.8-20.5 7.7-29c-1.1-.6-2.1-1.4-3-2.3l-21.3-21.3c-6.2-6.2-6.2-16.4 0-22.6zM272 256a26.7 26.7 0 1 0 53.3 0A26.7 26.7 0 1 0 272 256zM149.3 154.7c8.8 0 16 7.2 16 16l0 170.7c0 8.8-7.2 16-16 16s-16-7.2-16-16l0-170.7c0-8.8 7.2-16 16-16z"/></svg>