<svg xmlns="http://www.w3.org/2000/svg" viewBox="0 0 512 512"><!--!Font Awesome Pro 6.6.0 by @fontawesome - https://fontawesome.com License - https://fontawesome.com/license (Commercial License) Copyright 2024 Fonticons, Inc.--><path class="fa-secondary" opacity=".4" d="M240 134.6c5.3-5.3 10.7-10.7 16-16l16 16 0 174.7c0 15.2 4.7 38.4 18.3 57.3c13 18.1 34.9 33.3 72.3 33.3c8.8 0 16 7.2 16 16s-7.2 16-16 16c-47.9 0-79.4-20.3-98.3-46.7c-18.4-25.5-24.3-55.7-24.3-76l0-174.7zM256 80c.5 0 1 0 1.5 .1s1 .1 1.5 .2c-1-.2-2-.3-3-.3zm3 .3c1 .2 1.9 .5 2.8 .8c-.9-.4-1.9-.6-2.8-.8z"/><path class="fa-primary" d="M138 214c-6.2-6.2-6.2-16.4 0-22.6L244.7 84.7c6.2-6.2 16.4-6.2 22.6 0L374 191.4c6.2 6.2 6.2 16.4 0 22.6s-16.4 6.2-22.6 0L256 118.6 160.6 214c-6.2 6.2-16.4 6.2-22.6 0z"/></svg>