<svg xmlns="http://www.w3.org/2000/svg" viewBox="0 0 512 512"><!--!Font Awesome Pro 6.6.0 by @fontawesome - https://fontawesome.com License - https://fontawesome.com/license (Commercial License) Copyright 2024 Fonticons, Inc.--><path class="fa-secondary" opacity=".4" d="M42.7 245.3c0-5.9 4.8-10.7 10.7-10.7l10.7 0c28.5 0 56.9 0 85.3 0c3.6 0 7.1 0 10.7 0c5.9 0 10.7 4.8 10.7 10.7l0 138.7c0 35.3-28.7 64-64 64s-64-28.7-64-64l0-138.7zM272 432c0-8.8 7.2-16 16-16l48 0 0-75.8c2.6 .4 5.2 .6 8 .8c1.3 .1 2.6 .2 4.1 .2c1.2 0 2.5 .1 3.7 .1c.1 0 .1 0 .2 0c5.4 0 10.8-.4 16-1.1l0 75.8 48 0c8.8 0 16 7.2 16 16s-7.2 16-16 16l-128 0c-8.8 0-16-7.2-16-16z"/><path class="fa-primary" d="M64 234.7h85.3V128c0-15.9-16.7-26.2-30.9-19.1L75.8 130.3c-7.2 3.6-11.8 11-11.8 19.1v85.3zM469.3 224a117.3 117.3 0 1 1 -234.7 0 117.3 117.3 0 1 1 234.7 0z"/></svg>