<svg xmlns="http://www.w3.org/2000/svg" viewBox="0 0 512 512"><!--!Font Awesome Pro 6.6.0 by @fontawesome - https://fontawesome.com License - https://fontawesome.com/license (Commercial License) Copyright 2024 Fonticons, Inc.--><path class="fa-secondary" opacity=".4" d="M59.5 206.6c0 21.6 5.7 50.4 13.8 90.5l12.8 64c9.9 49.3 14.8 73.9 32.5 88.4s42.8 14.5 93 14.5l88.8 0c50.2 0 75.3 0 93-14.5s22.6-39.1 32.5-88.4l12.8-64c14.2-70.8 21.3-106.3 2-129.7C423.7 146.6 393.3 144.3 336 144c-7.1 0-14.5 0-22.4 0l-.4 0-9.2 0-96 0-9.2 0c-8 0-15.6 0-22.8 0c-57.3 .3-87.7 2.6-104.8 23.4c-8.3 10.2-11.7 22.6-11.7 39.2zM213.3 208a21.3 21.3 0 1 1 -42.7 0 21.3 21.3 0 1 1 42.7 0zm128 0a21.3 21.3 0 1 1 -42.7 0 21.3 21.3 0 1 1 42.7 0z"/><path class="fa-primary" d="M320 186.7a21.3 21.3 0 1 0 0 42.7 21.3 21.3 0 1 0 0-42.7zm-128 0a21.3 21.3 0 1 0 0 42.7 21.3 21.3 0 1 0 0-42.7zm16-64c0-26.5 21.5-48 48-48s48 21.5 48 48V144h9.2c8 0 15.6 0 22.8 0l0-21.4c0-44.2-35.8-80-80-80s-80 35.8-80 80l0 21.4c7.2 0 14.8 0 22.8 0H208V122.7z"/></svg>