<svg xmlns="http://www.w3.org/2000/svg" viewBox="0 0 512 512"><!--!Font Awesome Pro 6.6.0 by @fontawesome - https://fontawesome.com License - https://fontawesome.com/license (Commercial License) Copyright 2024 Fonticons, Inc.--><path class="fa-secondary" opacity=".4" d="M212.7 234c-6.2 6.2-6.2 16.4 0 22.6s16.4 6.2 22.6 0L240 252l0 46.7c0 8.8 7.2 16 16 16s16-7.2 16-16l0-85.3c0-6.5-3.9-12.3-9.9-14.8s-12.9-1.1-17.4 3.5l-32 32z"/><path class="fa-primary" d="M203.3 52.7c-6.2-6.2-16.4-6.2-22.6 0s-6.2 16.4 0 22.6L196 90.7l-4 0c-91.3 0-165.3 74-165.3 165.3s74 165.3 165.3 165.3l10.7 0c8.8 0 16-7.2 16-16s-7.2-16-16-16l-10.7 0c-73.6 0-133.3-59.7-133.3-133.3s59.7-133.3 133.3-133.3l42.7 0c6.5 0 12.3-3.9 14.8-9.9s1.1-12.9-3.5-17.4L203.3 52.7zm106 38c-8.8 0-16 7.2-16 16s7.2 16 16 16l10.7 0c73.6 0 133.3 59.7 133.3 133.3s-59.7 133.3-133.3 133.3l-42.7 0c-6.5 0-12.3 3.9-14.8 9.9s-1.1 12.9 3.5 17.4l42.7 42.7c6.2 6.2 16.4 6.2 22.6 0s6.2-16.4 0-22.6L316 421.3l4 0c91.3 0 165.3-74 165.3-165.3s-74-165.3-165.3-165.3l-10.7 0z"/></svg>