<svg xmlns="http://www.w3.org/2000/svg" viewBox="0 0 512 512"><!--!Font Awesome Pro 6.6.0 by @fontawesome - https://fontawesome.com License - https://fontawesome.com/license (Commercial License) Copyright 2024 Fonticons, Inc.--><path class="fa-secondary" opacity=".4" d="M256 92.3l0 377c31.3 0 58.1-3.2 79.3-7c22.9-4.2 34.3-6.3 43.9-18.3s9.6-26.1 9.6-54.3l0-170c0-14.6 0-21.9 2.8-28.3s8.1-11.2 18.6-20.7l4-3.6c22.5-20.3 33.8-30.5 33.9-45.2c0-14.8-10-24-29.9-42.4c-3-2.8-6-5.4-8.9-7.7c-10.1-8.1-24.3-16.9-35.1-23.3c-10.2-6-22.1-7.3-33.4-4.4l-10.5 2.7c-8.3 2.2-15.5 7.5-20.2 15C297.1 82.2 276.5 92.3 256 92.3z"/><path class="fa-primary" d="M123.2 389.7l0-170c0-14.6 0-21.9-2.8-28.3s-8.1-11.2-18.6-20.7l-4-3.6C75.4 146.8 64.1 136.7 64 121.9s9.9-23.9 29.9-42.4c3-2.8 6-5.4 8.9-7.7c10.1-8.1 24.3-16.9 35.1-23.3c10.2-6 22.1-7.3 33.4-4.4l10.5 2.7c8.3 2.2 15.5 7.5 20.2 15c12.8 20.2 33.4 30.4 53.9 30.4l0 377c-31.3 0-58.1-3.2-79.3-7c-22.9-4.2-34.3-6.3-43.9-18.3s-9.6-26.1-9.6-54.3z"/></svg>