<svg xmlns="http://www.w3.org/2000/svg" viewBox="0 0 512 512"><!--!Font Awesome Pro 6.5.2 by @fontawesome - https://fontawesome.com License - https://fontawesome.com/license (Commercial License) Copyright 2024 Fonticons, Inc.--><path class="fa-secondary" opacity=".4" d="M42.7 224l0 21.3 0 .3c0 49.5 0 74.3 8.1 93.8c10.8 26.1 31.6 46.9 57.7 57.7c14.1 5.8 30.9 7.5 57.7 7.9c18.1 .3 27.2 .5 34.4 4.7c7.2 4.2 11.7 11.8 20.7 26.9l11.6 19.5C238 465 247 469.3 256 469.3s18-4.4 23.2-13.1c3.9-6.5 7.7-13 11.6-19.5c9-15.2 13.4-22.7 20.7-26.9c7.2-4.2 16.3-4.4 34.4-4.7c26.8-.5 43.6-2.1 57.7-7.9c26.1-10.8 46.9-31.6 57.7-57.7c8.1-19.6 8.1-44.4 8.1-94.1l0-21.3 0-.3c0-69.6 0-104.4-15.7-130.1c-8.8-14.3-20.9-26.4-35.2-35.2C392.7 42.7 357.8 42.7 288 42.7l-64 0c-69.8 0-104.7 0-130.4 15.7C79.2 67.2 67.2 79.3 58.4 93.6C42.7 119.3 42.7 154.2 42.7 224zM176 236.4c0-4 1.5-8 4.5-11.1c6.1-6.4 16.3-6.6 22.6-.4l31.4 30.1 74.2-74.2c3.1-2.9 7-4.3 10.9-4.3c4.1 0 8.2 1.6 11.3 4.7c6.1 6.1 6.3 15.9 .4 22.2L246 288.7c-3.1 3.1-7.2 4.7-11.3 4.7c-4 0-8-1.5-11.1-4.5l-42.7-41c-3.3-3.1-4.9-7.3-4.9-11.5z"/><path class="fa-primary" d="M331.3 203.3a16 16 0 0 0 -22.6-22.6l-74.2 74.2-31.4-30.1a16 16 0 1 0 -22.2 23.1l42.7 41a16 16 0 0 0 22.4-.2z"/></svg>