<svg xmlns="http://www.w3.org/2000/svg" viewBox="0 0 512 512"><!--!Font Awesome Pro 6.6.0 by @fontawesome - https://fontawesome.com License - https://fontawesome.com/license (Commercial License) Copyright 2024 Fonticons, Inc.--><path class="fa-secondary" opacity=".4" d="M42.7 256a213.3 213.3 0 1 0 426.7 0A213.3 213.3 0 1 0 42.7 256zm94.8 37.4c-5.9-6.5-5.5-16.7 1.1-22.6s16.7-5.5 22.6 1.1l25.5 28 0-129.3c0-8.8 7.2-16 16-16s16 7.2 16 16l0 129.3 25.5-28c5.9-6.5 16.1-7 22.6-1.1s7 16.1 1.1 22.6l-53.3 58.7c-3 3.3-7.3 5.2-11.8 5.2s-8.8-1.9-11.8-5.2l-53.3-58.7zm106.7-74.9l53.3-58.7c3-3.3 7.3-5.2 11.8-5.2s8.8 1.9 11.8 5.2l53.3 58.7c2.8 3.1 4.2 6.9 4.2 10.8c0 4.4-1.8 8.7-5.2 11.8c-6.5 5.9-16.7 5.5-22.6-1.1l-25.5-28 0 129.3c0 8.8-7.2 16-16 16s-16-7.2-16-16l0-129.3-25.5 28c-5.9 6.5-16.1 7-22.6 1.1s-7-16.1-1.1-22.6z"/><path class="fa-primary" d="M244.2 218.6c-5.9 6.5-5.5 16.7 1.1 22.6s16.7 5.5 22.6-1.1l25.5-28V341.3c0 8.8 7.2 16 16 16s16-7.2 16-16V212.1l25.5 28c5.9 6.5 16.1 7 22.6 1.1s7-16.1 1.1-22.6l-53.3-58.7c-3-3.3-7.3-5.2-11.8-5.2s-8.8 1.9-11.8 5.2l-53.3 58.7zm-83 53.3c-5.9-6.5-16.1-7-22.6-1.1s-7 16.1-1.1 22.6l53.3 58.7c3 3.3 7.3 5.2 11.8 5.2s8.8-1.9 11.8-5.2l53.3-58.7c5.9-6.5 5.5-16.7-1.1-22.6s-16.7-5.5-22.6 1.1l-25.5 28V170.7c0-8.8-7.2-16-16-16s-16 7.2-16 16l0 129.3-25.5-28z"/></svg>