<svg xmlns="http://www.w3.org/2000/svg" viewBox="0 0 512 512"><!--!Font Awesome Pro 6.6.0 by @fontawesome - https://fontawesome.com License - https://fontawesome.com/license (Commercial License) Copyright 2024 Fonticons, Inc.--><path class="fa-secondary" opacity=".4" d="M127.2 42.7c0-8.8 7.2-16 16-16s16 7.2 16 16l0 97.8c-2.4-.6-4.9-1-7.5-1.3c-1.3-.1-2.5-.3-3.8-.3c-.6 0-1.3-.1-1.9-.1c-.6 0-1.2 0-1.9 0c-5.9 0-11.5 .8-16.9 2.2l0-98.2zm0 221.7c2.7 .7 5.5 1.3 8.3 1.7c1.4 .2 2.8 .3 4.3 .4c.7 0 1.4 .1 2.1 .1s1.4 0 2.2 0c5.2 0 10.3-.6 15.1-1.8l0 204.5c0 8.8-7.2 16-16 16s-16-7.2-16-16l0-204.9zM340.5 42.7c0-8.8 7.2-16 16-16s16 7.2 16 16l0 204.5c-2.4-.6-4.9-1-7.5-1.3c-1.3-.2-2.5-.3-3.8-.3c-.6 0-1.3-.1-1.9-.1c-.6 0-1.3 0-1.9 0c-5.9 0-11.5 .8-16.9 2.2l0-204.9zm0 328.4c2.7 .7 5.5 1.3 8.3 1.7c1.4 .2 2.8 .3 4.3 .4c.7 0 1.4 .1 2.1 .1s1.4 0 2.2 0c5.2 0 10.3-.6 15.1-1.8l0 97.8c0 8.8-7.2 16-16 16s-16-7.2-16-16l0-98.3z"/><path class="fa-primary" d="M421.4 309.3a64 64 0 1 1 -128 0 64 64 0 1 1 128 0zM80 202.7a64 64 0 1 0 128 0 64 64 0 1 0 -128 0z"/></svg>