<svg xmlns="http://www.w3.org/2000/svg" viewBox="0 0 512 512"><!--!Font Awesome Pro 6.6.0 by @fontawesome - https://fontawesome.com License - https://fontawesome.com/license (Commercial License) Copyright 2024 Fonticons, Inc.--><path class="fa-secondary" opacity=".4" d="M56.3 150.9C122.8 185.9 189.4 221 256 256c0 71.1 0 142.2 0 213.3c20.1 0 38.9-9.8 76.3-29.5L375 417.5c45.9-24.1 68.9-36.1 81.6-57.8s12.7-48.6 12.7-102.4l0-2.5c0-53.9 0-80.8-12.7-102.4c-.3-.5-.6-1-.9-1.4c-12.9-20.8-35.9-32.8-80.7-56.3L332.3 72.1C294.9 52.5 276.1 42.7 256 42.7s-38.9 9.8-76.3 29.5L137 94.5c-44.9 23.6-67.8 35.6-80.7 56.3z"/><path class="fa-primary" d="M179.7 439.9c37.5 19.7 56.2 29.5 76.3 29.5V256L56.3 150.9c-.3 .5-.6 .9-.9 1.4C42.7 174 42.7 200.9 42.7 254.8v2.5c0 53.9 0 80.8 12.7 102.4s35.7 33.7 81.6 57.8l42.7 22.4z"/></svg>