<svg xmlns="http://www.w3.org/2000/svg" viewBox="0 0 512 512"><!--!Font Awesome Pro 6.6.0 by @fontawesome - https://fontawesome.com License - https://fontawesome.com/license (Commercial License) Copyright 2024 Fonticons, Inc.--><path class="fa-secondary" opacity=".4" d="M42.7 256a213.3 213.3 0 1 0 426.7 0A213.3 213.3 0 1 0 42.7 256zM192 196.5c0-19.7 19.9-32.2 36.1-22.6l100.7 59.5c8.3 4.9 12.5 13.8 12.5 22.6s-4.2 17.7-12.5 22.6L228.1 338c-3.8 2.3-7.9 3.3-11.8 3.3c-12.7 0-24.3-10.8-24.3-25.9l0-118.9z"/><path class="fa-primary" d="M328.8 278.6L228.1 338c-16.2 9.6-36.1-2.9-36.1-22.6V196.5c0-19.7 19.9-32.2 36.1-22.6l100.7 59.5c16.7 9.8 16.7 35.3 0 45.2z"/></svg>