<svg xmlns="http://www.w3.org/2000/svg" viewBox="0 0 512 512"><!--!Font Awesome Pro 6.6.0 by @fontawesome - https://fontawesome.com License - https://fontawesome.com/license (Commercial License) Copyright 2024 Fonticons, Inc.--><path class="fa-secondary" opacity=".4" d="M42.7 234.3l0 .4 0 42.7c0 80.5 0 120.7 25 145.7s65.2 25 145.7 25l85.3 0c1.8 0 19.6 0 21.3-.1l0-383.8c-1.8-.1-19.5-.1-21.3-.1l-85.3 0C132.9 64 92.7 64 67.7 89c-25 25-25 65.1-25 145.3zm48 85.7c0-4.1 1.6-8.2 4.7-11.3l21.3-21.3c6.2-6.2 16.4-6.2 22.6 0s6.2 16.4 0 22.6l-10 10 10 10c6.2 6.2 6.2 16.4 0 22.6s-16.4 6.2-22.6 0L95.4 331.3c-3.1-3.1-4.7-7.2-4.7-11.3zM145 378.4L177 293c3.1-8.3 12.3-12.5 20.6-9.4s12.5 12.3 9.4 20.6l-32 85.3c-3.1 8.3-12.3 12.5-20.6 9.4s-12.5-12.3-9.4-20.6zM212.7 330c6.2-6.2 16.4-6.2 22.6 0l21.3 21.3c6.2 6.2 6.2 16.4 0 22.6l-21.3 21.3c-6.2 6.2-16.4 6.2-22.6 0s-6.2-16.4 0-22.6l10-10-10-10c-6.2-6.2-6.2-16.4 0-22.6z"/><path class="fa-primary" d="M469.3 277.3V234.7c0-80.5 0-120.7-25-145.7C423.6 68.2 376.2 64.7 320 64.1V447.9c56.2-.6 103.6-4.1 124.3-24.9c25-25 25-65.2 25-145.7zm-271.7 6.4c8.3 3.1 12.5 12.3 9.4 20.6l-32 85.3c-3.1 8.3-12.3 12.5-20.6 9.4s-12.5-12.3-9.4-20.6L177 293c3.1-8.3 12.3-12.5 20.6-9.4zm-58.3 3.7c6.2 6.2 6.2 16.4 0 22.6l-10 10 10 10c6.2 6.2 6.2 16.4 0 22.6s-16.4 6.2-22.6 0L95.4 331.3c-6.2-6.2-6.2-16.4 0-22.6l21.3-21.3c6.2-6.2 16.4-6.2 22.6 0zM212.7 330c6.2-6.2 16.4-6.2 22.6 0l21.3 21.3c6.2 6.2 6.2 16.4 0 22.6l-21.3 21.3c-6.2 6.2-16.4 6.2-22.6 0s-6.2-16.4 0-22.6l10-10-10-10c-6.2-6.2-6.2-16.4 0-22.6z"/></svg>