<svg xmlns="http://www.w3.org/2000/svg" viewBox="0 0 512 512"><!--!Font Awesome Pro 6.6.0 by @fontawesome - https://fontawesome.com License - https://fontawesome.com/license (Commercial License) Copyright 2024 Fonticons, Inc.--><path class="fa-secondary" opacity=".4" d="M85.3 216.4c0 95.2 54.5 206.3 139.5 246c9.9 4.6 20.6 6.9 31.2 6.9s21.3-2.3 31.2-6.9c85-39.7 139.5-150.8 139.5-246c0-95.9-76.4-173.7-170.7-173.7s-170.7 77.8-170.7 173.7zm90.7-3.1c0-44.2 35.8-80 80-80s80 35.8 80 80c0 16.3-4.9 31.4-13.2 44.1L342 276.7c3.1 3.1 4.7 7.2 4.7 11.3c0 4.1-1.6 8.2-4.7 11.3c-3.1 3.1-7.2 4.7-11.3 4.7c-4.1 0-8.2-1.6-11.3-4.7L300.2 280c-12.7 8.4-27.9 13.3-44.2 13.3c-44.2 0-80-35.8-80-80zm32 0a48 48 0 1 0 96 0 48 48 0 1 0 -96 0z"/><path class="fa-primary" d="M256 133.3c-44.2 0-80 35.8-80 80s35.8 80 80 80c16.3 0 31.5-4.9 44.2-13.3l19.1 19.3c6.2 6.3 16.4 6.3 22.6 .1s6.3-16.4 .1-22.6l-19.2-19.3c8.3-12.6 13.2-27.8 13.2-44.1c0-44.2-35.8-80-80-80zm0 128a48 48 0 1 1 0-96 48 48 0 1 1 0 96z"/></svg>