<svg xmlns="http://www.w3.org/2000/svg" viewBox="0 0 512 512"><!--!Font Awesome Pro 6.6.0 by @fontawesome - https://fontawesome.com License - https://fontawesome.com/license (Commercial License) Copyright 2024 Fonticons, Inc.--><path class="fa-secondary" opacity=".4" d="M42.7 260.3c0-48.8 0-73.2 11.1-93.5s31.3-32.8 71.8-57.9l42.7-26.5C211 55.9 232.4 42.7 256 42.7s45 13.3 87.8 39.8L386.5 109c40.5 25.1 60.7 37.7 71.8 57.9s11.1 44.6 11.1 93.5l0 32.5c0 83.2 0 124.8-25 150.7s-65.2 25.9-145.7 25.9l-85.3 0c-80.5 0-120.7 0-145.7-25.9c-24.9-25.8-25-67.3-25-150.2l0-.5 0-32.5zM176 384c0 8.8 7.2 16 16 16l128 0c8.8 0 16-7.2 16-16s-7.2-16-16-16l-128 0c-8.8 0-16 7.2-16 16z"/><path class="fa-primary" d="M192 368c-8.8 0-16 7.2-16 16s7.2 16 16 16H320c8.8 0 16-7.2 16-16s-7.2-16-16-16H192z"/></svg>