<svg xmlns="http://www.w3.org/2000/svg" viewBox="0 0 512 512"><!--!Font Awesome Pro 6.6.0 by @fontawesome - https://fontawesome.com License - https://fontawesome.com/license (Commercial License) Copyright 2024 Fonticons, Inc.--><path class="fa-secondary" opacity=".4" d="M42.7 194.9c0-69.1 52.1-124.8 115.2-124.8c31.6 0 66.1 14 98.1 47.3c96-99.7 213.3-26.2 213.3 77.6c0 30.9-7.6 57.5-19.9 80.9c-23.2-25.1-62.8-30.3-97.4 7.6c-52.8-57.9-117.3-15.2-117.3 45.1c0 44.9 26.2 74.2 53.9 98.1c-10.9 6.4-21.7 10.7-32.6 10.7c-21.3 0-42.7-16.4-64.8-33.9C128.4 354 42.7 298.7 42.7 194.9z"/><path class="fa-primary" d="M352 283.5c-52.8-57.9-117.3-15.2-117.3 45.1c0 54.6 38.7 86.1 71.6 112.9l.9 .8c3.1 2.5 6.2 5 9.1 7.5c12.2 10.1 23.9 19.7 35.6 19.7s23.5-9.6 35.6-19.7c34.5-28.7 81.7-60.9 81.7-121.1c0-19.8-7-37.7-18.2-50.8c-22.9-26.7-63.7-33.2-99.1 5.7z"/></svg>