<svg xmlns="http://www.w3.org/2000/svg" viewBox="0 0 512 512"><!--!Font Awesome Pro 6.6.0 by @fontawesome - https://fontawesome.com License - https://fontawesome.com/license (Commercial License) Copyright 2024 Fonticons, Inc.--><path class="fa-secondary" opacity=".4" d="M90.7 193.2c0 45.4 18.1 86.6 47.4 116.7c3.1 3.2 7.3 4.8 11.5 4.8c4 0 8.1-1.5 11.2-4.5c6.3-6.2 6.5-16.3 .3-22.6c-23.7-24.3-38.3-57.6-38.3-94.3c0-74.4 59.8-134.5 133.3-134.5s133.3 60.1 133.3 134.5c0 36.5-14.4 69.5-37.7 93.7c-6.1 6.4-5.9 16.5 .4 22.6s16.5 5.9 22.6-.4c28.9-30 46.6-70.9 46.6-115.9c0-91.8-73.9-166.5-165.3-166.5s-165.3 74.7-165.3 166.5zm59.7 0c0 28.8 11.4 54.9 29.8 74c6.1 6.4 16.3 6.5 22.6 .4s6.5-16.3 .4-22.6c-12.9-13.4-20.9-31.6-20.9-51.8c0-41.2 33.1-74.3 73.6-74.3s73.6 33.1 73.6 74.3c0 19.9-7.7 37.9-20.3 51.3c-6.1 6.4-5.8 16.6 .7 22.6s16.6 5.8 22.6-.7c18-19.1 29-44.9 29-73.2c0-58.6-47.2-106.3-105.6-106.3s-105.6 47.7-105.6 106.3z"/><path class="fa-primary" d="M240.7 208.5c-6.9-4.8-11.4-12.8-11.4-21.9c0-14.7 11.9-26.7 26.7-26.7s26.7 11.9 26.7 26.7c0 9-4.5 17-11.4 21.9l53.1 159.4c.1 .2 .2 .5 .2 .7l31.9 95.7c2.8 8.4-1.7 17.4-10.1 20.2s-17.4-1.7-20.2-10.1l-28.4-85.1-83.6 0-28.4 85.1c-2.8 8.4-11.9 12.9-20.2 10.1s-12.9-11.9-10.1-20.2l31.9-95.7c.1-.2 .2-.5 .2-.7l53.1-159.4zM256 263.9l-31.1 93.4 62.3 0L256 263.9z"/></svg>