<svg xmlns="http://www.w3.org/2000/svg" viewBox="0 0 512 512"><!--!Font Awesome Pro 6.6.0 by @fontawesome - https://fontawesome.com License - https://fontawesome.com/license (Commercial License) Copyright 2024 Fonticons, Inc.--><path class="fa-secondary" opacity=".4" d="M42.9 191.8c-.3 7.9-.5 11.8 1 14.5s7.4 5.9 19.1 12.5C76.1 226 84.9 240 84.9 256s-8.8 30-21.9 37.3c-11.8 6.6-17.7 9.9-19.1 12.5s-1.3 6.6-1 14.5c1.7 39.8 7 64.2 24.3 81.4c25 24.9 65.2 25 145.5 25l.5 0 85.5 0c80.7 0 121 0 146-25c17.3-17.2 22.6-41.6 24.3-81.4c.3-7.9 .5-11.8-1-14.5s-7.4-5.9-19.1-12.5C435.9 286 427.1 272 427.1 256s8.8-30 21.9-37.3c11.8-6.6 17.7-9.9 19.1-12.5s1.3-6.6 1-14.5c-1.7-39.8-7-64.2-24.3-81.4c-25-24.9-65.2-25-145.6-25l-.5 0-85.5 0c-80.7 0-121 0-146 25C49.9 127.5 44.6 152 42.9 191.8zM176 320c0-4.1 1.6-8.2 4.7-11.3L309 180.7c3.1-3.1 7.2-4.7 11.3-4.7s8.2 1.6 11.3 4.7s4.7 7.2 4.7 11.3s-1.6 8.2-4.7 11.3l-128.3 128c-3.1 3.1-7.2 4.7-11.3 4.7s-8.2-1.6-11.3-4.7s-4.7-7.2-4.7-11.3zm48.1-117.3a21.4 21.4 0 1 1 -42.8 0 21.4 21.4 0 1 1 42.8 0zM331 309.3a21.4 21.4 0 1 1 -42.8 0 21.4 21.4 0 1 1 42.8 0z"/><path class="fa-primary" d="M331.7 180.7c6.3 6.2 6.3 16.4 0 22.6l-128.3 128c-6.3 6.2-16.4 6.2-22.7 0s-6.3-16.4 0-22.6L309 180.7c6.3-6.2 16.4-6.2 22.7 0zm-22 150a21.3 21.3 0 1 0 0-42.7 21.3 21.3 0 1 0 0 42.7zM202.7 224a21.3 21.3 0 1 0 0-42.7 21.3 21.3 0 1 0 0 42.7z"/></svg>