<svg xmlns="http://www.w3.org/2000/svg" viewBox="0 0 512 512"><!--!Font Awesome Pro 6.6.0 by @fontawesome - https://fontawesome.com License - https://fontawesome.com/license (Commercial License) Copyright 2024 Fonticons, Inc.--><path class="fa-secondary" opacity=".4" d="M42.7 256c0 34.1 8 66.4 22.3 95c3.8 7.6 5 16.3 2.9 24.5L55.1 423c-5.5 20.6 13.3 39.5 34 34l47.5-12.7c8.2-2.2 16.9-.9 24.5 2.9c28.6 14.2 60.9 22.3 95 22.3c117.8 0 213.3-95.5 213.3-213.3s-95.5-213.3-213.3-213.3S42.7 138.2 42.7 256zM160 237c0-57.1 52.8-78.4 96-34.3c43.2-44.1 96-22.8 96 34.3c0 29.2-28.1 59.8-53.9 81.8c-17.6 15-26.4 22.4-42.1 22.4s-24.5-7.5-42.1-22.4c-25.8-22-53.9-52.6-53.9-81.8z"/><path class="fa-primary" d="M160 237c0 29.2 28.1 59.8 53.9 81.8c17.6 15 26.4 22.4 42.1 22.4s24.5-7.5 42.1-22.4c25.8-22 53.9-52.6 53.9-81.8c0-57.1-52.8-78.4-96-34.3c-43.2-44.1-96-22.8-96 34.3z"/></svg>