<svg xmlns="http://www.w3.org/2000/svg" viewBox="0 0 512 512"><!--!Font Awesome Pro 6.6.0 by @fontawesome - https://fontawesome.com License - https://fontawesome.com/license (Commercial License) Copyright 2024 Fonticons, Inc.--><path class="fa-secondary" opacity=".4" d="M64 278.1c0-23.5 0-35.3 8.4-42.2c3-2.4 6.6-4.4 10.6-5.7c11.3-3.8 26.3-.1 56.1 7.4c1.5 .4 3 .7 4.4 1.1c17.4 42.3 48.7 80.1 89.1 97.8c7.4 3.2 15.4 4.9 23.4 4.9s16-1.6 23.4-4.9c52-22.7 88.7-78.6 100.5-134.6l24.3 6.1c21.1 5.3 31.7 7.9 37.7 14.2c6 6.3 6 14.6 6 31.3l0 129.8c0 23.5 0 35.3-8.4 42.2c-3 2.4-6.6 4.4-10.6 5.7c-11.3 3.8-26.3 .1-56.1-7.4c-22.8-5.7-34.2-8.5-45.7-8.2c-4.2 .1-8.4 .5-12.5 1.3c-11.2 2-21.2 7-41.2 16.9l-29.5 14.7c-25.6 12.8-38.4 19.1-53.1 20.6c-2.2 .2-4.3 .3-6.5 .3c-12.8 0-27-3.6-51.9-9.8l-24.8-6.2c-21.1-5.3-31.7-7.9-37.7-14.2s-6-14.6-6-31.3l0-129.8z"/><path class="fa-primary" d="M256 42.7c-70.7 0-128 54.4-128 121.6c0 66.6 40.9 144.4 104.6 172.2c14.9 6.5 32 6.5 46.8 0C343.1 308.7 384 230.9 384 164.3c0-67.2-57.3-121.6-128-121.6zm0 85.3a42.7 42.7 0 1 1 0 85.3 42.7 42.7 0 1 1 0-85.3z"/></svg>