<svg xmlns="http://www.w3.org/2000/svg" viewBox="0 0 512 512"><!--!Font Awesome Pro 6.6.0 by @fontawesome - https://fontawesome.com License - https://fontawesome.com/license (Commercial License) Copyright 2024 Fonticons, Inc.--><path class="fa-secondary" opacity=".4" d="M42.7 256c0 117.8 95.5 213.3 213.3 213.3s213.3-95.5 213.3-213.3c0-46.4-14.8-89.4-40-124.5c-8.9-4.4-18.9-10.8-28.5-20.4s-16-19.5-20.4-28.5c-35-25.2-78-40-124.5-40C138.2 42.7 42.7 138.2 42.7 256zm119.5 76.4c0-1.8 .3-3.7 .9-5.5l8.2-24.5 8.7-26.1 5.5-16.4c4.2-12.7 6.4-19.1 9.2-25.1c3.4-7.1 7.5-13.7 12.3-19.9c4.1-5.2 8.8-10 18.3-19.4L343.4 77.3c2.9-2.9 7.8-1.5 9.1 2.3c4.8 14 13.9 32.1 30.9 49.1s35.1 26.1 49.1 30.9c3.8 1.3 5.1 6.2 2.3 9.1L316.5 286.8c-9.5 9.5-14.2 14.2-19.4 18.3c-6.2 4.8-12.8 8.9-19.9 12.3c-6 2.9-12.3 5-25.1 9.2l-16.4 5.5-26.1 8.7L185.1 349c-1.8 .6-3.7 .9-5.5 .9c-4.5 0-9-1.8-12.3-5.1s-5.1-7.8-5.1-12.3z"/><path class="fa-primary" d="M297.1 305.1c5.2-4.1 10-8.8 19.4-18.3L434.7 168.6c2.9-2.9 1.6-7.8-2.3-9.1c-14-4.8-32.1-13.9-49.1-30.9s-26.1-35.1-30.9-49.1c-1.3-3.8-6.2-5.1-9.1-2.3L225.2 195.5c-9.5 9.5-14.2 14.2-18.3 19.4c-4.8 6.2-8.9 12.8-12.3 19.9c-2.9 6-5 12.3-9.2 25.1l-5.5 16.4-8.7 26.1L163 326.9c-2.1 6.3-.5 13.2 4.2 17.8s11.6 6.3 17.8 4.2l24.5-8.2 26.1-8.7 16.4-5.5 0 0c12.7-4.2 19.1-6.4 25.1-9.2c7.1-3.4 13.7-7.5 19.9-12.3zM471.7 131.6c25.2-25.2 25.2-66.1 0-91.4s-66.1-25.2-91.4 0l-3.8 3.8c-3.7 3.7-5.3 8.8-4.4 13.9c.6 3.2 1.6 7.9 3.6 13.5c3.9 11.2 11.2 25.9 25 39.7s28.5 21.2 39.7 25c5.6 1.9 10.3 3 13.5 3.6c5.1 .9 10.2-.7 13.9-4.4l3.8-3.8z"/></svg>