<svg xmlns="http://www.w3.org/2000/svg" viewBox="0 0 512 512"><!--!Font Awesome Pro 6.6.0 by @fontawesome - https://fontawesome.com License - https://fontawesome.com/license (Commercial License) Copyright 2024 Fonticons, Inc.--><path class="fa-secondary" opacity=".4" d="M132.1 456.3c3.1 4.7 7.3 8.5 12.2 10.9c2.8 1.4 5.9 2.1 9.5 2.1c14 0 34.6-10.7 68.9-28.6c14.3-7.5 21.5-11.2 29.1-12c2.8-.3 5.7-.3 8.5 0c7.6 .8 14.8 4.5 29.1 12c43 22.4 64.5 33.6 78.4 26.5c4.9-2.5 9.1-6.2 12.2-10.9c8.9-13.4 2.2-37.8-11.2-86.7L355.2 320 351 307.2c-25.8 21.3-58.9 34.1-95 34.1s-69.2-12.8-95-34.1L156.8 320l-13.6 49.6c-13.4 48.9-20.1 73.3-11.2 86.7z"/><path class="fa-primary" d="M256 341.3a149.3 149.3 0 1 0 0-298.7 149.3 149.3 0 1 0 0 298.7zM256 128c6.1 0 10.1 7.3 18.2 21.8l2.1 3.8c2.3 4.1 3.5 6.2 5.3 7.6s4 1.9 8.5 2.9l4.1 .9c15.7 3.6 23.6 5.3 25.5 11.4s-3.5 12.3-14.2 24.8l-2.8 3.2c-3 3.6-4.6 5.3-5.3 7.6s-.5 4.6 0 9.3l.4 4.3c1.6 16.7 2.4 25.1-2.5 28.8s-12.3 .3-27-6.5l-3.8-1.8c-4.2-1.9-6.3-2.9-8.5-2.9s-4.3 1-8.5 2.9l-3.8 1.8c-14.7 6.8-22.1 10.2-27 6.5s-4.1-12.1-2.5-28.8l.4-4.3c.5-4.8 .7-7.1 0-9.3s-2.2-4-5.3-7.6l-2.8-3.2c-10.7-12.5-16.1-18.8-14.2-24.8s9.7-7.8 25.5-11.4l4.1-.9c4.5-1 6.7-1.5 8.5-2.9s2.9-3.4 5.3-7.6l2.1-3.8c8.1-14.5 12.2-21.8 18.2-21.8z"/></svg>