<svg xmlns="http://www.w3.org/2000/svg" viewBox="0 0 512 512"><!--!Font Awesome Pro 6.6.0 by @fontawesome - https://fontawesome.com License - https://fontawesome.com/license (Commercial License) Copyright 2024 Fonticons, Inc.--><path class="fa-secondary" opacity=".4" d="M42.7 256C42.7 138.2 138.2 42.7 256 42.7s213.3 95.5 213.3 213.3c0 76.6-40.3 143.7-100.9 181.3l84.9 0c8.8 0 16 7.2 16 16s-7.2 16-16 16l-197.3 0C138.2 469.3 42.7 373.8 42.7 256zM96 256a21.3 21.3 0 1 0 42.7 0A21.3 21.3 0 1 0 96 256zm80 0a80 80 0 1 0 160 0 80 80 0 1 0 -160 0zm58.7-138.7a21.3 21.3 0 1 0 42.7 0 21.3 21.3 0 1 0 -42.7 0zm0 277.3a21.3 21.3 0 1 0 42.7 0 21.3 21.3 0 1 0 -42.7 0zM373.3 256a21.3 21.3 0 1 0 42.7 0 21.3 21.3 0 1 0 -42.7 0z"/><path class="fa-primary" d="M256 176a80 80 0 1 1 0 160 80 80 0 1 1 0-160zM117.3 277.3a21.3 21.3 0 1 0 0-42.7 21.3 21.3 0 1 0 0 42.7zM256 138.7A21.3 21.3 0 1 1 256 96a21.3 21.3 0 1 1 0 42.7zm21.3 256a21.3 21.3 0 1 0 -42.7 0 21.3 21.3 0 1 0 42.7 0zM394.7 277.3a21.3 21.3 0 1 0 0-42.7 21.3 21.3 0 1 0 0 42.7z"/></svg>