<svg xmlns="http://www.w3.org/2000/svg" viewBox="0 0 512 512"><!--!Font Awesome Pro 6.6.0 by @fontawesome - https://fontawesome.com License - https://fontawesome.com/license (Commercial License) Copyright 2024 Fonticons, Inc.--><path class="fa-secondary" opacity=".4" d="M48 384a80 80 0 1 0 160 0A80 80 0 1 0 48 384zm128 0a48 48 0 1 1 -96 0 48 48 0 1 1 96 0zm128 0a80 80 0 1 0 160 0 80 80 0 1 0 -160 0zm128 0a48 48 0 1 1 -96 0 48 48 0 1 1 96 0z"/><path class="fa-primary" d="M256 85.3a42.7 42.7 0 1 1 85.3 0 42.7 42.7 0 1 1 -85.3 0zm-23.1 96.1c-19.3-15.4-47.9-9.9-60.1 11.6c-11.8 20.8-3 47.3 18.9 56.8l65.9 28.8c28.4 12.4 41.4 45.3 29.2 73.8l-16.2 37.8c-3.5 8.1-12.9 11.9-21 8.4s-11.9-12.9-8.4-21l16.2-37.8c5.3-12.3-.4-26.5-12.6-31.9L179 279.2c-39.4-17.2-55.1-64.7-33.9-102c21.9-38.6 73.1-48.4 107.8-20.8l46 36.7c3.5 2.8 7.8 4.3 12.2 4.3l83.6 0c8.8 0 16 7.2 16 16s-7.2 16-16 16l-83.6 0c-11.7 0-23-4-32.1-11.2l-46-36.7z"/></svg>