<svg xmlns="http://www.w3.org/2000/svg" viewBox="0 0 512 512"><!--!Font Awesome Pro 6.5.2 by @fontawesome - https://fontawesome.com License - https://fontawesome.com/license (Commercial License) Copyright 2024 Fonticons, Inc.--><path class="fa-secondary" opacity=".4" d="M192 170.3l0 .4 0 69.3 106.1 0-41.8-35.8c-6.7-5.7-7.5-15.9-1.7-22.6s15.9-7.5 22.6-1.7l74.7 64c3.6 3 5.6 7.5 5.6 12.2s-2 9.1-5.6 12.2l-74.7 64c-6.7 5.7-16.8 5-22.6-1.7s-5-16.8 1.7-22.6L298.1 272 192 272l0 69.4c0 60.4 0 90.5 18.8 109.3c18.7 18.7 48.9 18.7 109.2 18.7l21.4 0c60.3 0 90.5 0 109.2-18.8c18.7-18.7 18.8-48.8 18.8-108.8l0-.4 0-170.7c0-60.3 0-90.5-18.8-109.2c-18.7-18.7-48.8-18.8-108.8-18.8l-.4 0-21.3 0c-60.4 0-90.5 0-109.2 18.8C192 80.1 192 110.2 192 170.3z"/><path class="fa-primary" d="M26.7 256c0-8.8 7.2-16 16-16l255.4 0-41.8-35.8c-6.7-5.7-7.5-15.9-1.7-22.6s15.9-7.5 22.6-1.7l74.7 64c3.6 3 5.6 7.5 5.6 12.2s-2 9.1-5.6 12.2l-74.7 64c-6.7 5.7-16.8 5-22.6-1.7s-5-16.8 1.7-22.6L298.1 272 42.7 272c-8.8 0-16-7.2-16-16z"/></svg>