<svg xmlns="http://www.w3.org/2000/svg" viewBox="0 0 512 512"><!--!Font Awesome Pro 6.6.0 by @fontawesome - https://fontawesome.com License - https://fontawesome.com/license (Commercial License) Copyright 2024 Fonticons, Inc.--><path class="fa-secondary" opacity=".4" d="M52 187.4c14.9-19.1 42.4-22.4 61.3-7.3c-18 23.1-36 46.1-54 69.1c-18.9-15.1-22.2-42.7-7.3-61.8zm77.1 77.2c1.5-1.3 3-2.8 4.4-4.3c.7-.8 1.4-1.5 2.1-2.3c.7-.8 1.3-1.6 2-2.4c.5-.6 1-1.3 1.4-1.9c3.5-4.8 6.3-10 8.3-15.3L231.5 300l.2 .2c2.9 2.2 5.6 4.6 8.2 7.1l0-137.6c2.6 .3 5.3 .6 7.9 .7c1.3 .1 2.7 .1 4 .2c1.3 0 2.6 .1 4 .1c5.4 0 10.8-.3 16-1l0 212.1 0 .9 0 22.7 0 .3 0 47.7-32 0 0-71.4c-.2-22.1-10.4-42.8-27.6-56.2l-83.2-61.1zM192 85.3c0-23.6 28.7-42.7 64-42.7s64 19.1 64 42.7l-128 0z"/><path class="fa-primary" d="M176 469.3c0-8.8 7.2-16 16-16l128 0c8.8 0 16 7.2 16 16s-7.2 16-16 16l-128 0c-8.8 0-16-7.2-16-16zm80-298.7c49.9 0 91.7-27.4 103.4-64.3c3.6-11.2-6.3-21-18.1-21H170.7c-11.8 0-21.6 9.8-18.1 21c11.7 37 53.6 64.3 103.4 64.3zM137.7 255.6c.5-.6 1-1.3 1.4-1.9c16.3-22.5 16.5-52.2 2.3-74.6c-6.5-10.2-20.7-8.5-28.1 1.1l-54 69.2c-7.5 9.5-5.8 23.8 5.5 27.8c25.6 9 55.1 1.2 72.9-21.5z"/></svg>