<svg xmlns="http://www.w3.org/2000/svg" viewBox="0 0 512 512"><!--!Font Awesome Pro 6.6.0 by @fontawesome - https://fontawesome.com License - https://fontawesome.com/license (Commercial License) Copyright 2024 Fonticons, Inc.--><path class="fa-secondary" opacity=".4" d="M149.3 170.5l0 86.1c1.8-.1 3.6-.2 5.5-.3c.4 0 .8 0 1.2 0c1 0 1.9-.1 2.9-.1c1.2 0 2.5-.1 3.8-.1c.8 0 1.7 0 2.5 0c1.9 0 3.9 0 6 0c.6 0 1.3 0 1.9 0c2.1 0 4.4 0 6.6 0l1.6 0 149.1 0 .2 0 1.3 0c2.3 0 4.5 0 6.7 0c.6 0 1.3 0 1.9 0c2.1 0 4.1 0 6 0c.8 0 1.7 0 2.5 0c1.3 0 2.6 .1 3.9 .1c1 0 1.9 .1 2.9 .1c.4 0 .9 0 1.3 0c1.9 .1 3.7 .2 5.4 .3l0-85.9c0-39.9 0-59.8-8.6-74.7c-5.6-9.7-13.7-17.8-23.4-23.4C315.8 64 296 64 256.2 64l-.2 0c-39.9 0-59.8 0-74.7 8.6c-9.7 5.6-17.8 13.7-23.4 23.4c-8.6 14.8-8.6 34.7-8.6 74.5z"/><path class="fa-primary" d="M133.3 341.1c-10.7-.4-17.2-1.9-21.6-6.7c-6.3-6.9-5.5-16.5-3.9-35.7c1.2-13.9 3.9-23.2 10-30.2C128.7 256 146.3 256 181.5 256H330.5c35.1 0 52.7 0 63.6 12.5c6.1 7 8.8 16.3 10 30.2c1.6 19.2 2.5 28.8-3.9 35.7c-4.4 4.8-10.9 6.3-21.6 6.7V448c0 8.8-7.2 16-16 16s-16-7.2-16-16V341.3H165.3V448c0 8.8-7.2 16-16 16s-16-7.2-16-16V341.1z"/></svg>