<svg xmlns="http://www.w3.org/2000/svg" viewBox="0 0 512 512"><!--!Font Awesome Pro 6.6.0 by @fontawesome - https://fontawesome.com License - https://fontawesome.com/license (Commercial License) Copyright 2024 Fonticons, Inc.--><path class="fa-secondary" opacity=".4" d="M45.3 273.4c6.1 21.4 22.6 37.9 55.6 70.8l39 39c57.4 57.4 86 86 121.7 86s64.3-28.7 121.7-86s86-86 86-121.7s-28.7-64.3-86-121.7l-39-39c-33-33-49.5-49.5-70.8-55.6s-44.1-.9-89.5 9.6l-26.2 6c-38.2 8.8-57.3 13.2-70.4 26.3s-17.5 32.2-26.3 70.4l-6 26.2c-10.5 45.4-15.7 68.2-9.6 89.5zm181-84a42.7 42.7 0 1 1 -85.4 0 42.7 42.7 0 1 1 85.4 0zm5.8 65c-4.3-6.2-3.7-14.8 1.9-20.4c5.5-5.5 14.1-6.2 20.3-1.9c7.2-3.9 15.2-5.9 23.2-5.8c8.8 .1 15.9 7.3 15.8 16.2s-7.3 15.9-16.2 15.8c-3.8 0-8.7 1.7-13 5.9c-8.3 8.3-6.1 16.5-3.8 18.9s10.6 4.5 18.9-3.8c16.7-16.7 45.6-22.3 64.1-3.8c14.4 14.4 14.2 35 5.6 51.3c4.3 6.2 3.7 14.8-1.9 20.4c-5.5 5.5-14.1 6.2-20.3 1.9c-7.1 3.8-14.9 5.8-22.7 5.8c-2.9 0-5.8-.3-8.7-.9c-8.7-1.8-14.2-10.2-12.5-18.9s10.2-14.2 18.9-12.5c3.8 .8 9.9-.5 15.1-5.7c8.3-8.3 6.1-16.5 3.8-18.9s-10.6-4.5-18.9 3.8c-16.7 16.7-45.6 22.3-64.1 3.8c-14.4-14.4-14.2-35-5.7-51.3z"/><path class="fa-primary" d="M237.8 305.7c-14.4-14.4-14.2-35-5.7-51.3c-4.3-6.2-3.7-14.8 1.9-20.4c5.5-5.5 14.1-6.2 20.3-1.9c7.2-3.9 15.2-5.9 23.2-5.8c8.8 .1 15.9 7.3 15.8 16.2s-7.3 15.9-16.2 15.8c-3.8 0-8.7 1.7-13 5.9c-8.3 8.3-6.1 16.5-3.8 18.9s10.6 4.5 18.9-3.8c16.7-16.7 45.6-22.3 64.1-3.8c14.4 14.4 14.2 35 5.6 51.3c4.3 6.2 3.7 14.8-1.9 20.4c-5.5 5.5-14.1 6.2-20.3 1.9c-9.7 5.2-20.8 7.1-31.4 4.9c-8.7-1.8-14.2-10.2-12.5-18.9s10.2-14.2 18.9-12.5c3.8 .8 9.9-.5 15.1-5.7c8.3-8.3 6.1-16.5 3.8-18.9s-10.6-4.5-18.9 3.8c-16.7 16.7-45.6 22.3-64.1 3.8zm-24-86.1a42.7 42.7 0 1 0 -60.3-60.3 42.7 42.7 0 1 0 60.3 60.3z"/></svg>