<svg xmlns="http://www.w3.org/2000/svg" viewBox="0 0 512 512"><!--!Font Awesome Pro 6.6.0 by @fontawesome - https://fontawesome.com License - https://fontawesome.com/license (Commercial License) Copyright 2024 Fonticons, Inc.--><path class="fa-secondary" opacity=".4" d="M176 318.9c2.6 .3 5.3 .4 8 .6c1.3 .1 2.7 .1 4 .1s2.7 0 4 0c5.4 0 10.7-.3 16-.8l0 43.8c0 50.1 40.6 90.7 90.7 90.7l18.8 0c26.7 0 50.1-14.6 62.5-36.3c2.5-4.3 4-9.3 4.9-15c3.2 1.1 6.5 1.9 9.9 2.5c1.7 .3 3.4 .5 5.2 .6c.9 .1 1.8 .1 2.6 .2s1.8 .1 2.7 .1c3.9 0 7.8-.4 11.6-1c-1.3 9.5-3.9 19.4-9.2 28.6c-17.9 31.3-51.6 52.4-90.2 52.4l-18.8 0c-67.7 0-122.7-54.9-122.7-122.7l0-43.7z"/><path class="fa-primary" d="M405.3 277.3a64 64 0 1 0 0 128 64 64 0 1 0 0-128zM256 26.7c8.8 0 16 7.2 16 16V48c2.4 0 4.4 .1 6.3 .3c38.6 3.4 69.2 34 72.6 72.6c.3 3.5 .3 7.5 .3 13.4l0 26.1c0 87.9-71.3 159.2-159.2 159.2c-91.3 0-165.3-74-165.3-165.3l0-20c0-5.9 0-9.9 .3-13.4c3.4-38.6 34-69.2 72.6-72.6c3.3-.3 7.1-.3 12.4-.3V42.7c0-8.8 7.2-16 16-16s16 7.2 16 16V85.3c0 8.8-7.2 16-16 16s-16-7.2-16-16V80c-5.6 0-7.8 0-9.6 .2c-23.2 2-41.5 20.4-43.6 43.6c-.2 1.9-.2 4.4-.2 11.4v19.2c0 73.6 59.7 133.3 133.3 133.3c70.3 0 127.2-57 127.2-127.2V135.2c0-7 0-9.5-.2-11.4c-2-23.2-20.4-41.5-43.6-43.6c-.9-.1-1.9-.1-3.5-.2v5.3c0 8.8-7.2 16-16 16s-16-7.2-16-16V42.7c0-8.8 7.2-16 16-16z"/></svg>