<svg xmlns="http://www.w3.org/2000/svg" viewBox="0 0 512 512"><!--!Font Awesome Pro 6.6.0 by @fontawesome - https://fontawesome.com License - https://fontawesome.com/license (Commercial License) Copyright 2024 Fonticons, Inc.--><path class="fa-secondary" opacity=".4" d="M42.7 256c0 100.6 0 150.9 31.2 182.1s81.5 31.2 182.1 31.2s150.9 0 182.1-31.2c31.2-31.2 31.2-81.3 31.2-181.3l0-.8c0-100.6 0-150.8-31.2-182.1S356.6 42.7 256 42.7s-150.8 0-182.1 31.2S42.7 155.4 42.7 256zM112 341.3c0-1.6 .2-3.2 .7-4.8l53.3-170.7c2.1-6.7 8.3-11.2 15.3-11.2s13.2 4.5 15.3 11.2l53.3 170.7c2.6 8.4-2.1 17.4-10.5 20c-1.6 .5-3.2 .7-4.8 .7c-6.8 0-13.1-4.4-15.3-11.2l-15.2-48.5-45.8 0-15.2 48.5c-2.1 6.8-8.5 11.2-15.3 11.2c-1.6 0-3.2-.2-4.8-.7c-6.8-2.1-11.2-8.5-11.2-15.3zm56.4-75.7l25.8 0-12.9-41.3-12.9 41.3zm114.2-94.9c0-8.8 7.2-16 16-16l42.7 0c32.4 0 58.7 26.3 58.7 58.7c0 26.6-17.7 49.1-42 56.3l39.5 63.3c1.6 2.6 2.4 5.6 2.4 8.5c0 5.3-2.7 10.5-7.5 13.6c-7.5 4.7-17.4 2.4-22-5.1L321.8 272l-7.1 0 0 69.3c0 8.8-7.2 16-16 16s-16-7.2-16-16l0-170.7zm32 16l0 53.3 26.7 0c14.7 0 26.7-11.9 26.7-26.7s-11.9-26.7-26.7-26.7l-26.7 0z"/><path class="fa-primary" d="M298.7 154.7c-8.8 0-16 7.2-16 16l0 170.7c0 8.8 7.2 16 16 16s16-7.2 16-16l0-69.3 7.1 0 48.6 77.8c4.7 7.5 14.6 9.8 22 5.1s9.8-14.6 5.1-22L358 269.6c24.3-7.2 42-29.7 42-56.3c0-32.4-26.3-58.7-58.7-58.7l-42.7 0zm16 32l26.7 0c14.7 0 26.7 11.9 26.7 26.7s-11.9 26.7-26.7 26.7l-26.7 0 0-53.3zM196.6 165.9c-2.1-6.7-8.3-11.2-15.3-11.2s-13.2 4.5-15.3 11.2L112.7 336.6c-2.6 8.4 2.1 17.4 10.5 20s17.4-2.1 20-10.5l15.2-48.5 45.8 0 15.2 48.5c2.6 8.4 11.6 13.1 20 10.5s13.1-11.6 10.5-20L196.6 165.9zm-28.2 99.7l12.9-41.3 12.9 41.3-25.8 0z"/></svg>