<svg xmlns="http://www.w3.org/2000/svg" viewBox="0 0 512 512"><!--!Font Awesome Pro 6.5.2 by @fontawesome - https://fontawesome.com License - https://fontawesome.com/license (Commercial License) Copyright 2024 Fonticons, Inc.--><path class="fa-secondary" opacity=".4" d="M64.4 176c1.2-42.9 5.3-69.2 19.9-89.4c6.6-9 14.5-17 23.6-23.6C136 42.7 176 42.7 256 42.7s120 0 148 20.4c9.1 6.6 17 14.5 23.6 23.6c14.6 20.1 18.8 46.5 19.9 89.4l-71.1 0c-7-24.6-29.6-42.7-56.5-42.7l-128 0c-26.2 0-49.3 17.4-56.4 42.7l-71.1 0zm100.9 16c0-14.7 11.9-26.7 26.7-26.7l128 0c14.7 0 26.7 11.9 26.7 26.7s-11.9 26.7-26.7 26.7l-128 0c-14.7 0-26.7-11.9-26.7-26.7z"/><path class="fa-primary" d="M64 208c0 8.4 0 17.2 0 26.7v42.7c0 80 0 120 20.4 148A106.7 106.7 0 0 0 108 449c28 20.4 68.1 20.4 148 20.4c80 0 120 0 148-20.4a106.7 106.7 0 0 0 23.6-23.6c20.4-28 20.4-68.1 20.4-148v-42.7c0-9.4 0-18.3 0-26.7h-71.5A58.7 58.7 0 0 1 320 250.7H192A58.7 58.7 0 0 1 135.6 208z"/></svg>