<svg xmlns="http://www.w3.org/2000/svg" viewBox="0 0 512 512"><!--!Font Awesome Pro 6.6.0 by @fontawesome - https://fontawesome.com License - https://fontawesome.com/license (Commercial License) Copyright 2024 Fonticons, Inc.--><path class="fa-secondary" opacity=".4" d="M42.7 256c0 100.6 0 150.9 31.2 182.1s81.5 31.2 182.1 31.2s150.9 0 182.1-31.2c31.2-31.2 31.2-81.3 31.2-181.3l0-.8c0-100.6 0-150.8-31.2-182.1S356.6 42.7 256 42.7s-150.8 0-182.1 31.2S42.7 155.4 42.7 256zm90.7 19.2c0-4.5 1.9-8.9 5.5-12.1c6.7-5.8 16.8-5.1 22.6 1.5l54.2 62L349.9 150.3c3.1-4.1 7.9-6.3 12.7-6.3c3.4 0 6.8 1.1 9.7 3.3c4.1 3.1 6.3 7.9 6.3 12.7c0 3.4-1.1 6.8-3.3 9.7l-146.3 192c-2.9 3.8-7.4 6.1-12.2 6.3c-.2 0-.4 0-.5 0c-4.6 0-9-2-12.1-5.5l-67-76.8c-2.6-3-3.9-6.8-3.9-10.5z"/><path class="fa-primary" d="M372.4 147.3c7 5.4 8.4 15.4 3 22.4l-146.3 192c-2.9 3.8-7.4 6.1-12.2 6.3s-9.4-1.8-12.6-5.5l-67-76.8c-5.8-6.7-5.1-16.8 1.5-22.6s16.8-5.1 22.6 1.5l54.2 62L349.9 150.3c5.4-7 15.4-8.4 22.4-3z"/></svg>