<svg xmlns="http://www.w3.org/2000/svg" viewBox="0 0 512 512"><!--!Font Awesome Pro 6.6.0 by @fontawesome - https://fontawesome.com License - https://fontawesome.com/license (Commercial License) Copyright 2024 Fonticons, Inc.--><path class="fa-secondary" opacity=".4" d="M42.7 256c0 117.8 95.5 213.3 213.3 213.3s213.3-95.5 213.3-213.3c0-53.2-19.4-101.8-51.6-139.1L294.6 240l75.4 0c8.8 0 16 7.2 16 16s-7.2 16-16 16l-114 0c-8.8 0-16-7.2-16-16l0-114c0-8.8 7.2-16 16-16s16 7.2 16 16l0 75.4L395.1 94.3c-37.4-32.2-86-51.6-139.1-51.6C138.2 42.7 42.7 138.2 42.7 256z"/><path class="fa-primary" d="M459.3 52.7c6.2 6.2 6.2 16.4 0 22.6L294.6 240l75.4 0c8.8 0 16 7.2 16 16s-7.2 16-16 16l-114 0c-8.8 0-16-7.2-16-16l0-114c0-8.8 7.2-16 16-16s16 7.2 16 16l0 75.4L436.7 52.7c6.2-6.2 16.4-6.2 22.6 0z"/></svg>