<svg xmlns="http://www.w3.org/2000/svg" viewBox="0 0 512 512"><!--!Font Awesome Pro 6.6.0 by @fontawesome - https://fontawesome.com License - https://fontawesome.com/license (Commercial License) Copyright 2024 Fonticons, Inc.--><path class="fa-secondary" opacity=".4" d="M85.3 215.2l0 81.6 0 .9c0 36 0 64.6 3 87c3.1 23.3 9.6 42.1 24.1 56.9s33.1 21.4 56 24.6c22.2 3 50.6 3 86.5 3l2.2 0c35.8 0 64.2 0 86.5-3c22.9-3.1 41.4-9.7 56-24.6s21.1-33.7 24.1-56.9c3-22.6 3-51.5 3-88l0-81.6c0-36.5 0-65.4-3-88c-3.1-23.3-9.6-42.1-24.1-56.9s-33.1-21.4-56-24.6c-22-3-50.1-3-85.6-3l-.9 0-2.2 0-.9 0c-35.4 0-63.5 0-85.5 3c-22.9 3.1-41.4 9.7-56 24.6S91.4 104 88.3 127.2c-3 22.6-3 51.5-3 88zm97.5 179.7c0-8.2 6.5-14.9 14.6-14.9l117 0c8.1 0 14.6 6.7 14.6 14.9s-6.5 14.9-14.6 14.9l-117 0c-8.1 0-14.6-6.7-14.6-14.9z"/><path class="fa-primary" d="M182.9 394.9c0-8.2 6.5-14.9 14.6-14.9h117c8.1 0 14.6 6.7 14.6 14.9s-6.5 14.9-14.6 14.9h-117c-8.1 0-14.6-6.7-14.6-14.9z"/></svg>