<svg xmlns="http://www.w3.org/2000/svg" viewBox="0 0 512 512"><!--!Font Awesome Pro 6.6.0 by @fontawesome - https://fontawesome.com License - https://fontawesome.com/license (Commercial License) Copyright 2024 Fonticons, Inc.--><path class="fa-secondary" opacity=".4" d="M42.7 298.7c0 80.5 0 120.7 25 145.7s65.2 25 145.7 25l85.3 0 .5 0c80.1 0 120.3 0 145.2-25c25-25 25-65.2 25-145.7l0-.5c0-80.2 0-120.3-25-145.2c-18-18-43.9-23-87-24.4c-10.7-.2-21.3-.3-32-.5c-8.4 0-17.2 0-26.6 0l-85.3 0c-9.4 0-18.3 0-26.6 0c-10.7 .2-21.3 .3-32 .5c-43.1 1.4-69 6.4-87 24.4c-25 25-25 65.2-25 145.7zm154.7-35.6c0-25.4 19.4-43.7 42.7-49.6l0-.2c0-8.8 7.2-16 16-16s16 7.2 16 16l0 .2c23.2 5.9 42.7 24.2 42.7 49.6c0 8.8-7.2 16-16 16s-16-7.2-16-16c0-8.2-9.1-19.6-26.7-19.6s-26.7 11.4-26.7 19.6s9.1 19.6 26.7 19.6c29.5 0 58.7 20.5 58.7 51.6c0 25.4-19.4 43.7-42.7 49.6l0 .2c0 8.8-7.2 16-16 16s-16-7.2-16-16l0-.2c-23.2-5.9-42.7-24.2-42.7-49.6c0-8.8 7.2-16 16-16s16 7.2 16 16c0 8.2 9.1 19.6 26.7 19.6s26.7-11.4 26.7-19.6s-9.1-19.6-26.7-19.6c-29.5 0-58.7-20.5-58.7-51.6z"/><path class="fa-primary" d="M272 213.3c0-8.8-7.2-16-16-16s-16 7.2-16 16v.2c-23.2 5.9-42.7 24.2-42.7 49.6c0 31.1 29.1 51.6 58.7 51.6c17.6 0 26.7 11.4 26.7 19.6s-9.1 19.6-26.7 19.6s-26.7-11.4-26.7-19.6c0-8.8-7.2-16-16-16s-16 7.2-16 16c0 25.4 19.4 43.7 42.7 49.6v.2c0 8.8 7.2 16 16 16s16-7.2 16-16v-.2c23.2-5.9 42.7-24.2 42.7-49.6c0-31.1-29.1-51.6-58.7-51.6c-17.6 0-26.7-11.4-26.7-19.6s9.1-19.6 26.7-19.6s26.7 11.4 26.7 19.6c0 8.8 7.2 16 16 16s16-7.2 16-16c0-25.4-19.4-43.7-42.7-49.6v-.2zM257.1 26.7h-2.2c-19.2 0-35.2 0-47.8 1.7c-13.4 1.8-25.5 5.8-35.2 15.5s-13.7 21.8-15.5 35.2c-1.2 9.1-1.6 30.8-1.7 49.5l32-.5c.1-18.1 .4-37.5 1.4-44.7c1.3-9.8 3.6-14.1 6.4-16.8s7-5.1 16.8-6.4c10.3-1.4 24.1-1.4 44.7-1.4s34.4 0 44.7 1.4c9.8 1.3 14.1 3.6 16.8 6.4s5.1 7 6.4 16.8c1 7.2 1.3 26.7 1.4 44.7l32 .5c-.1-18.6-.4-40.4-1.7-49.5c-1.8-13.4-5.8-25.5-15.5-35.2s-21.8-13.7-35.2-15.5c-12.7-1.7-28.7-1.7-47.8-1.7z"/></svg>