<svg xmlns="http://www.w3.org/2000/svg" viewBox="0 0 512 512"><!--!Font Awesome Pro 6.6.0 by @fontawesome - https://fontawesome.com License - https://fontawesome.com/license (Commercial License) Copyright 2024 Fonticons, Inc.--><path class="fa-secondary" opacity=".4" d="M64.1 249.9c.8-39.3 1.2-59 14.5-75.8c2.4-3.1 6-6.7 8.9-9.2c16.3-13.6 37.8-13.6 80.8-13.6c15.4 0 23.1 0 30.4-2c1.5-.4 3-.9 4.5-1.4c7.2-2.6 13.6-7 26.4-15.9c42.8-29.6 67.5-46.8 87-46.8c3.6 0 7 .6 10.3 1.8c4.1 1.5 8 3.6 11.5 6.2c15.1 11.1 18.7 34.4 21.1 77.4c-9.5 0-17.9 0-25.2 .2s-13.7 .6-19.3 1.4s-10.3 2-14.4 3.7c-2.1 .9-4 1.9-5.7 3.1c-.9 .6-1.7 1.2-2.6 1.9c-.4 .3-.8 .7-1.2 1s-.8 .7-1.2 1.1c-12.5 12.5-12.5 32.6-12.5 72.8l0 .2c0 10 0 18.8 .2 26.5s.6 14.4 1.4 20.2c1.6 11.6 4.7 19.7 10.9 26c12.2 12.2 31.5 12.5 69.6 12.5c-2.4 43-6 66.3-21.1 77.4c-3.5 2.6-7.5 4.7-11.5 6.2c-21.3 7.6-46.6-9.9-97.2-45c-12.8-8.9-19.3-13.3-26.4-15.9c-1.5-.5-3-1-4.5-1.4c-7.3-2-15-2-30.4-2c-43 0-64.5 0-80.8-13.6c-3-2.5-6.5-6.1-8.9-9.2C65.3 321 64.9 301.4 64.1 262.1c0-2.1-.1-4.1-.1-6.1s0-4 .1-6.1z"/><path class="fa-primary" d="M362.7 341.3c-40.2 0-60.3 0-72.8-12.5s-12.5-32.6-12.5-72.8s0-60.3 12.5-72.8s32.6-12.5 72.8-12.5s60.3 0 72.8 12.5S448 215.8 448 256s0 60.3-12.5 72.8s-32.6 12.5-72.8 12.5zM334.8 208c-5.6-5.6-14.6-5.6-20.1 0s-5.6 14.6 0 20.1L342.6 256l-27.9 27.9c-5.6 5.6-5.6 14.6 0 20.1s14.6 5.6 20.1 0l27.9-27.9L390.5 304c5.6 5.6 14.6 5.6 20.1 0s5.6-14.6 0-20.1L382.8 256l27.9-27.9c5.6-5.6 5.6-14.6 0-20.1s-14.6-5.6-20.1 0l-27.9 27.9L334.8 208z"/></svg>