<svg xmlns="http://www.w3.org/2000/svg" viewBox="0 0 512 512"><!--!Font Awesome Pro 6.6.0 by @fontawesome - https://fontawesome.com License - https://fontawesome.com/license (Commercial License) Copyright 2024 Fonticons, Inc.--><path class="fa-secondary" opacity=".4" d="M48 384a80 80 0 1 0 160 0A80 80 0 1 0 48 384zm128 0a48 48 0 1 1 -96 0 48 48 0 1 1 96 0zm128 0a80 80 0 1 0 160 0 80 80 0 1 0 -160 0zm128 0a48 48 0 1 1 -96 0 48 48 0 1 1 96 0z"/><path class="fa-primary" d="M277.3 85.3a42.7 42.7 0 1 1 85.3 0 42.7 42.7 0 1 1 -85.3 0zm-17.9 66.5l13.1 13c19.4 19.3 26.1 25.6 34.3 28.9s17.3 3.6 44.7 3.6l43.2 0c8.8 0 16 7.2 16 16s-7.2 16-16 16l-43.2 0-3 0c-23.1 0-39.2 0-53.9-6s-26.1-17.4-42.5-33.7c-.7-.7-1.4-1.4-2.1-2.1l-12.3-12.2c-8.7-8.7-14.1-13.9-18.4-17.1c-2-1.5-3.1-2-3.7-2.3c-.1 0-.2-.1-.2-.1c0 0-.1 .1-.2 .1c-.5 .3-1.5 1.1-3.2 2.9c-3.6 3.9-8 10.1-15 20.2l-26.2 37.7c-7.1 10.3-11.5 16.6-13.9 21.5c-1.1 2.3-1.5 3.5-1.6 4.1c0 .1 0 .2 0 .2c0 0 .1 .1 .2 .2c.4 .4 1.4 1.3 3.5 2.7c4.6 2.9 11.6 6 23.1 11l32.3 14.1c13.8 6 25.5 11.1 34.4 16.4c9.5 5.6 17.6 12.2 23 22.1s6.6 20.2 6.2 31.3c-.4 10.4-2.4 22.9-4.8 37.8l-1.4 8.6c-1.4 8.7-9.6 14.7-18.3 13.3s-14.7-9.6-13.3-18.3l1.2-7.6c2.6-16.1 4.2-26.7 4.6-35c.3-7.8-.7-11.7-2.3-14.6s-4.3-5.9-11.1-9.8c-7.1-4.2-17-8.5-31.9-15l-31.5-13.7c-.3-.1-.7-.3-1-.4c-10.2-4.4-19.3-8.4-26.2-12.7c-7.4-4.6-14.7-11-17.6-21.3s-.1-19.6 3.8-27.4c3.6-7.2 9.3-15.4 15.6-24.5l.6-.9 26.2-37.7 .6-.9c6.2-8.9 11.8-17 17.2-22.8c5.9-6.3 13.4-12.1 24-13.1s19.1 3.4 26 8.6c6.3 4.7 13.3 11.7 21 19.3z"/></svg>