<svg xmlns="http://www.w3.org/2000/svg" viewBox="0 0 512 512"><!--!Font Awesome Pro 6.6.0 by @fontawesome - https://fontawesome.com License - https://fontawesome.com/license (Commercial License) Copyright 2024 Fonticons, Inc.--><path d="M256 32a32 32 0 0 1 32-32h192a32 32 0 0 1 32 32v448a32 32 0 0 1 -32 32H288a32 32 0 0 1 -32-32zm32 432a16 16 0 1 0 32 0 16 16 0 0 0 -32 0m64 0a16 16 0 1 0 32 0 16 16 0 0 0 -32 0M304 32a16 16 0 0 0 0 32h160a16 16 0 0 0 0-32zm-16 80a16 16 0 0 0 16 16h160a16 16 0 0 0 0-32H304a16 16 0 0 0 -16 16M48 64A48 48 0 0 0 0 112v224a48 48 0 0 0 48 48H192v64h-16a16 16 0 0 0 0 32h48V352H48a16 16 0 0 1 -16-16V112a16 16 0 0 1 16-16H224V64z"/></svg>