<svg xmlns="http://www.w3.org/2000/svg" viewBox="0 0 512 512"><!--!Font Awesome Pro 6.6.0 by @fontawesome - https://fontawesome.com License - https://fontawesome.com/license (Commercial License) Copyright 2024 Fonticons, Inc.--><path class="fa-secondary" opacity=".4" d="M42.7 120.5c0 10.7 0 18.1 .4 23.9c.4 5.7 1.1 9.1 2.2 11.6c3.4 8.3 10 14.9 18.2 18.3c2.5 1.1 5.8 1.8 11.5 2.2c5.8 .4 13.2 .4 23.8 .4l314.4 0c10.6 0 18 0 23.8-.4c5.7-.4 9-1.1 11.5-2.2c8.3-3.4 14.8-10 18.2-18.3c1-2.5 1.8-5.9 2.2-11.6c.4-5.8 .4-13.3 .4-23.9s0-18.1-.4-23.9c-.4-5.7-1.1-9.1-2.2-11.6c-3.4-8.3-10-14.9-18.2-18.3c-2.5-1.1-5.8-1.8-11.5-2.2c-5.8-.4-13.2-.4-23.8-.4L98.8 64c-10.6 0-18 0-23.8 .4c-5.7 .4-9 1.1-11.5 2.2c-8.3 3.4-14.8 10-18.2 18.3c-1 2.5-1.8 5.9-2.2 11.6c-.4 5.8-.4 13.3-.4 23.9zm0 135.5c0 10.7 0 18.1 .4 23.9c.4 5.7 1.1 9.1 2.2 11.6c3.4 8.3 10 14.9 18.2 18.3c2.5 1.1 5.8 1.8 11.5 2.2c5.8 .4 13.2 .4 23.8 .4l314.4 0c10.6 0 18 0 23.8-.4c5.7-.4 9-1.1 11.5-2.2c8.3-3.4 14.8-10 18.2-18.3c1-2.5 1.8-5.9 2.2-11.6c.4-5.8 .4-13.3 .4-23.9s0-18.1-.4-23.9c-.4-5.7-1.1-9.1-2.2-11.6c-3.4-8.3-10-14.9-18.2-18.3c-2.5-1.1-5.8-1.8-11.5-2.2c-5.8-.4-13.2-.4-23.8-.4l-314.4 0c-10.6 0-18 0-23.8 .4c-5.7 .4-9 1.1-11.5 2.2c-8.3 3.4-14.8 10-18.2 18.3c-1 2.5-1.8 5.9-2.2 11.6c-.4 5.8-.4 13.3-.4 23.9zm0 135.5c0 10.7 0 18.1 .4 24c.4 5.7 1.1 9.1 2.2 11.6c3.4 8.3 10 14.9 18.2 18.3c2.5 1.1 5.8 1.8 11.5 2.2c5.8 .4 13.2 .4 23.8 .4l314.4 0c10.6 0 18 0 23.8-.4c5.7-.4 9-1.1 11.5-2.2c8.3-3.4 14.8-10 18.2-18.3c1-2.5 1.8-5.9 2.2-11.6c.4-5.8 .4-13.3 .4-24s0-18.1-.4-23.9c-.4-5.7-1.1-9.1-2.2-11.6c-3.4-8.3-10-14.9-18.2-18.3c-2.5-1.1-5.8-1.8-11.5-2.2c-5.8-.4-13.2-.4-23.8-.4l-314.4 0c-10.6 0-18 0-23.8 .4c-5.7 .4-9 1.1-11.5 2.2c-8.3 3.4-14.8 10-18.2 18.3c-1 2.5-1.8 5.9-2.2 11.6c-.4 5.8-.4 13.3-.4 23.9zM76.4 120.5c0-12.5 10.1-22.6 22.5-22.6c6.2 0 11.8 2.5 15.9 6.6c2 2 3.7 4.5 4.8 7.2c.6 1.4 1 2.8 1.3 4.2c.2 .8 .3 1.6 .3 2.3c0 .4 .1 .7 .1 1.1c0 .3 0 .7 0 .8c0 .1 0 .2 0 .3c0 .6 0 1.2 0 1.1c-.1 .8-.1 1-.1 1.2c-.1 .7-.2 1.5-.3 2.2c-.3 1.5-.7 2.9-1.3 4.2c-1.1 2.7-2.8 5.1-4.8 7.2c-4.1 4.1-9.7 6.6-15.9 6.6c-12.4 0-22.5-10.1-22.5-22.6zm0 135.5c0-12.5 10.1-22.6 22.5-22.6c6.2 0 11.8 2.5 15.9 6.6c2 2 3.7 4.5 4.8 7.2c.6 1.3 1 2.8 1.3 4.2c.2 .8 .3 1.6 .3 2.3c0 .4 .1 .7 .1 1.1c0 .3 0 .7 0 .8c0 .1 0 .2 0 .3c0 .1 0 .1 0 .2c0 .3 0 .6 0 .9c-.1 .8-.1 1-.1 1.2c-.1 .7-.2 1.5-.3 2.2c-.3 1.5-.7 2.9-1.3 4.2c-1.1 2.7-2.8 5.1-4.8 7.2c-4.1 4.1-9.7 6.6-15.9 6.6c-12.4 0-22.5-10.1-22.5-22.6zm0 135.5c0-12.5 10.1-22.6 22.5-22.6c6.2 0 11.8 2.5 15.9 6.6c2 2 3.7 4.5 4.8 7.2c.6 1.4 1 2.8 1.3 4.2c.2 .8 .3 1.6 .3 2.3c0 .4 .1 .7 .1 1.1c0 .3 0 .7 0 .8c0 .1 0 .2 0 .4c0 .1 0 .2 0 .3c0 .3 0 .6 0 1c0 .3 0 .7-.1 1.1c-.1 .7-.2 1.5-.3 2.2c-.3 1.5-.7 2.9-1.3 4.2c-1.1 2.7-2.8 5.1-4.8 7.2c-4.1 4.1-9.7 6.6-15.9 6.6c-12.4 0-22.5-10.1-22.5-22.6z"/><path class="fa-primary" d="M76.3 256a22.5 22.5 0 1 1 44.9 0 22.5 22.5 0 1 1 -44.9 0zm0 135.5a22.5 22.5 0 1 1 44.9 0 22.5 22.5 0 1 1 -44.9 0zm0-271.1a22.5 22.5 0 1 1 44.9 0 22.5 22.5 0 1 1 -44.9 0z"/></svg>