<svg xmlns="http://www.w3.org/2000/svg" viewBox="0 0 512 512"><!--!Font Awesome Pro 6.6.0 by @fontawesome - https://fontawesome.com License - https://fontawesome.com/license (Commercial License) Copyright 2024 Fonticons, Inc.--><path class="fa-secondary" opacity=".4" d="M42.7 256a213.3 213.3 0 1 0 426.7 0A213.3 213.3 0 1 0 42.7 256zm76.3 0c0-13.7 5.7-25.1 13.9-35.8c7.8-10.2 19.1-21.5 32.6-35l4.4-4.4c6.2-6.2 16.4-6.2 22.6 0s6.2 16.4 0 22.6L189 207c-14.5 14.5-24.3 24.3-30.6 32.6c-6 7.9-7.4 12.5-7.4 16.4s1.4 8.5 7.4 16.4c6.3 8.3 16.1 18.1 30.6 32.6l3.7 3.7c6.2 6.2 6.2 16.4 0 22.6s-16.4 6.2-22.6 0l-4.4-4.4c-13.6-13.6-24.9-24.9-32.6-35C124.8 281.1 119 269.7 119 256zm93.9 98.9l55.2-206.1c2.3-8.5 11.1-13.6 19.6-11.3s13.6 11.1 11.3 19.6L243.8 363.2c-2.3 8.5-11.1 13.6-19.6 11.3s-13.6-11.1-11.3-19.6zM319.4 180.7c6.2-6.2 16.4-6.2 22.6 0l4.4 4.4c13.6 13.6 24.9 24.9 32.6 35c8.2 10.7 13.9 22.1 13.9 35.8s-5.7 25.1-13.9 35.8c-7.8 10.2-19.1 21.5-32.6 35l-4.4 4.4c-6.2 6.2-16.4 6.2-22.6 0s-6.2-16.4 0-22.6L323 305c14.5-14.5 24.3-24.3 30.6-32.6c6-7.9 7.4-12.5 7.4-16.4s-1.4-8.5-7.4-16.4c-6.3-8.3-16.1-18.1-30.6-32.6l-3.7-3.7c-6.2-6.2-6.2-16.4 0-22.6z"/><path class="fa-primary" d="M287.7 137.5c8.5 2.3 13.6 11.1 11.3 19.6L243.8 363.2c-2.3 8.5-11.1 13.6-19.6 11.3s-13.6-11.1-11.3-19.6l55.2-206.1c2.3-8.5 11.1-13.6 19.6-11.3zm31.6 43.2c6.2-6.2 16.4-6.2 22.6 0l4.4 4.4c13.6 13.6 24.9 24.9 32.6 35c8.2 10.7 13.9 22.1 13.9 35.8s-5.7 25.1-13.9 35.8c-7.8 10.2-19.1 21.5-32.6 35l-4.4 4.4c-6.2 6.2-16.4 6.2-22.6 0s-6.2-16.4 0-22.6L323 305c14.5-14.5 24.3-24.3 30.6-32.6c6-7.9 7.4-12.5 7.4-16.4s-1.4-8.5-7.4-16.4c-6.3-8.3-16.1-18.1-30.6-32.6l-3.7-3.7c-6.2-6.2-6.2-16.4 0-22.6zm-149.3 0c6.2-6.2 16.4-6.2 22.6 0s6.2 16.4 0 22.6L189 207c-14.5 14.5-24.3 24.3-30.6 32.6c-6 7.9-7.4 12.5-7.4 16.4s1.4 8.5 7.4 16.4c6.3 8.3 16.1 18.1 30.6 32.6l3.7 3.7c6.2 6.2 6.2 16.4 0 22.6s-16.4 6.2-22.6 0l-4.4-4.4c-13.6-13.6-24.9-24.9-32.6-35C124.8 281.1 119 269.7 119 256s5.7-25.1 13.9-35.8c7.8-10.2 19.1-21.5 32.6-35l4.4-4.4z"/></svg>