<svg xmlns="http://www.w3.org/2000/svg" viewBox="0 0 512 512"><!--!Font Awesome Pro 6.6.0 by @fontawesome - https://fontawesome.com License - https://fontawesome.com/license (Commercial License) Copyright 2024 Fonticons, Inc.--><path class="fa-secondary" opacity=".4" d="M28.9 127.7c4.5 7.6 14.3 10.2 21.9 5.7l4.4-2.6c43.8-25.6 89.1-32.1 131.4-19.9l4.4 1.3c8.5 2.4 17.4-2.5 19.8-10.9c.4-1.5 .6-3 .6-4.4c0-6.9-4.6-13.3-11.6-15.4l-4.4-1.3C143.7 65.3 89.4 73.8 39 103.2l-4.4 2.6c-7.6 4.5-10.2 14.3-5.7 21.9zm1.4 103.4c4 7.9 13.6 11.1 21.5 7.2c9.9-4.9 15.3-6.6 19.5-7.4c3.2-.6 5.7-.8 9.5-1c2.1-.1 4.6-.3 7.9-.6c8.8-.7 15.3-8.5 14.6-17.3s-8.5-15.3-17.3-14.6c-1.6 .1-3.3 .2-5.1 .4c-4.9 .3-10.3 .7-15.6 1.7c-8 1.5-16.3 4.5-27.8 10.3c-7.9 4-11.1 13.6-7.2 21.5zM32 351.2c3.2 4 7.8 6.1 12.6 6.1c3.5 0 7-1.1 9.9-3.4c19.9-15.7 46.5-21.6 71.8-15.6c8.6 2 17.2-3.3 19.2-11.9s-3.3-17.2-11.9-19.2C99 299 62.3 307 34.7 328.8c-6.9 5.5-8.1 15.5-2.7 22.5z"/><path class="fa-primary" d="M252 143.5c21.6-38.8 32.4-58.2 48.6-58.2s27 19.4 48.6 58.2l5.6 10c6.1 11 9.2 16.5 14 20.2s10.8 5 22.7 7.7l10.9 2.5c42 9.5 63 14.2 68 30.3s-9.3 32.8-37.9 66.3l-7.4 8.7c-8.1 9.5-12.2 14.3-14 20.1s-1.2 12.2 0 24.9l1.1 11.6c4.3 44.7 6.5 67-6.6 76.9s-32.7 .9-72-17.2l-10.2-4.7c-11.2-5.1-16.8-7.7-22.7-7.7s-11.5 2.6-22.7 7.7l-10.2 4.7c-39.3 18.1-59 27.1-72 17.2s-10.9-32.2-6.6-76.9l1.1-11.6c1.2-12.7 1.8-19 0-24.9s-5.9-10.6-14-20.1l-7.4-8.7c-28.6-33.5-42.9-50.2-37.9-66.3s26-20.8 68-30.3l10.9-2.5c11.9-2.7 17.9-4 22.7-7.7s7.9-9.1 14-20.2l5.6-10z"/></svg>