<svg xmlns="http://www.w3.org/2000/svg" viewBox="0 0 512 512"><!--!Font Awesome Pro 6.6.0 by @fontawesome - https://fontawesome.com License - https://fontawesome.com/license (Commercial License) Copyright 2024 Fonticons, Inc.--><path class="fa-secondary" opacity=".4" d="M44.9 359.2c0 4.1 1.6 8.2 4.7 11.3c6.3 6.3 12.8 11.8 19.5 16.6c7.2 5.2 17.2 3.5 22.3-3.7s3.5-17.2-3.7-22.3c-5.3-3.8-10.4-8.2-15.5-13.2c-6.2-6.2-16.4-6.2-22.6 0c-3.1 3.1-4.7 7.2-4.7 11.3zm58.4-195.6c1 8.8 9 15 17.8 14s15-9 14-17.8c-1.6-13.3-1-26.7 2.3-39.7c2.2-8.6-3-17.3-11.6-19.4s-17.3 3-19.4 11.6c-4.3 17.2-5.1 34.5-3.1 51.3zm.8 225.9c-2.2 8.6 3 17.3 11.6 19.4c17.2 4.3 34.5 5.1 51.3 3.1c8.8-1 15-9 14-17.8s-9-15-17.8-14c-13.3 1.6-26.7 1-39.7-2.3c-8.6-2.2-17.3 3-19.4 11.6zm12.7-177.4c6.8 15.3 15.5 29.7 25.6 42.6c5.5 7 15.5 8.2 22.5 2.7s8.2-15.5 2.7-22.5c-8.5-10.9-15.9-23-21.5-35.8c-3.6-8.1-13-11.8-21.1-8.2s-11.8 13-8.2 21.1zM128.2 65.7c-5.2 7.2-3.5 17.2 3.7 22.3s17.2 3.5 22.3-3.7c3.8-5.3 8.2-10.4 13.2-15.5c6.2-6.2 6.2-16.4 0-22.6c-3.1-3.1-7.2-4.7-11.3-4.7s-8.2 1.6-11.3 4.7C138.5 52.5 133 59 128.2 65.7zm46.6 201.8c-5.3 7.1-3.9 17.1 3.1 22.4c11 8.3 22.8 15.1 34.9 19.9c5.7-.6 11.3-1.5 16.6-2.7c-17.3-8.5-30.3-23.6-38.9-41.4c-.7-1.5-1.4-3-2.1-4.5c-5.1-.3-10.3 1.9-13.6 6.3zm19.7 122.8c3.6 8.1 13 11.8 21.1 8.2c15.3-6.8 29.7-15.5 42.6-25.6c7-5.5 8.2-15.5 2.7-22.5s-15.5-8.2-22.5-2.7c-10.9 8.5-23 15.9-35.8 21.5c-8.1 3.6-11.8 13-8.2 21.1zm13.7-187.1c.2 6 .8 11.9 1.8 17.6c8.8-13.1 21.7-23.2 36.5-30.4c2.5-1.2 5-2.3 7.6-3.4c1.1-5.8-1.1-11.9-6.1-15.7c-7.1-5.3-17.1-3.9-22.4 3.1c-6.9 9.1-12.7 18.8-17.3 28.7zm49.6-41.7c5.5 7 15.5 8.2 22.5 2.7c10.9-8.5 23-15.9 35.8-21.5c8.1-3.6 11.8-13 8.2-21.1s-13-11.8-21.1-8.2c-15.3 6.8-29.7 15.5-42.6 25.6c-7 5.5-8.2 15.5-2.7 22.5zm6.8 167.2c.3 4.5 2.4 8.9 6.3 11.8c7.1 5.3 17.1 3.9 22.4-3.1c6.9-9.1 12.7-18.8 17.3-28.7c-.3-7.5-1.1-14.7-2.4-21.5c-8.3 18.3-23.9 32-42.4 41c-.4 .2-.8 .4-1.2 .6zm32.1-119.6c13.6 8.9 24.2 22 31.6 37.2c.7 1.5 1.4 3 2.1 4.5c5.1 .3 10.3-1.9 13.6-6.3c5.3-7.1 3.9-17.1-3.1-22.4c-7.1-5.3-14.5-10.1-22.1-14c-7.6-.2-14.9 .2-22 1.1zm41-91.4c1 8.8 9 15 17.8 14c13.3-1.6 26.7-1 39.7 2.3c8.6 2.2 17.3-3 19.4-11.6s-3-17.3-11.6-19.4c-17.2-4.3-34.5-5.1-51.3-3.1c-8.8 1-15 9-14 17.8zM351 276.9c8.5 10.9 15.9 23 21.5 35.8c3.6 8.1 13 11.8 21.1 8.2s11.8-13 8.2-21.1c-6.8-15.3-15.5-29.7-25.6-42.6c-5.5-7-15.5-8.2-22.5-2.7s-8.2 15.5-2.7 22.5zm.2 166.3c-6.2 6.2-6.2 16.4 0 22.6c3.1 3.1 7.2 4.7 11.3 4.7s8.2-1.6 11.3-4.7c6.3-6.3 11.8-12.8 16.6-19.5c5.2-7.2 3.5-17.2-3.7-22.3s-17.2-3.5-22.3 3.7c-3.8 5.3-8.2 10.4-13.2 15.5zm30.1-51.3c-2.2 8.6 3 17.3 11.6 19.4s17.3-3 19.4-11.6c4.3-17.2 5.1-34.5 3.1-51.3c-1-8.8-9-15-17.8-14s-15 9-14 17.8c1.6 13.3 1 26.7-2.3 39.7zm46-263.4c-5.2 7.2-3.5 17.2 3.7 22.3c5.3 3.8 10.4 8.2 15.5 13.2c6.2 6.2 16.4 6.2 22.6 0c3.1-3.1 4.7-7.2 4.7-11.3s-1.6-8.2-4.7-11.3c-6.3-6.3-12.8-11.8-19.5-16.6c-7.2-5.2-17.2-3.5-22.3 3.7z"/><path class="fa-primary" d="M190.5 265.7c8.7 17.8 21.7 32.9 38.9 41.4c-16.9 3.9-36.5 4.7-56.5 1.9c-59.5-8.4-114.2-46.9-114.2-117c0-8.8-7.2-16-16-16s-16 7.2-16 16c0 92.1 73.3 138.9 141.8 148.6c34.4 4.9 69.8 .9 97.2-12.5c18.5-9 34.1-22.7 42.4-41c3 15.8 3.5 33.7 .9 51.9c-8.4 59.5-46.9 114.2-117 114.2c-8.8 0-16 7.2-16 16s7.2 16 16 16c92.1 0 138.9-73.3 148.6-141.8c4.9-34.4 .9-69.8-12.5-97.2c-7.4-15.2-17.9-28.4-31.6-37.2c13.3-1.6 27.8-1.5 42.5 .6c59.5 8.4 114.2 46.9 114.2 117c0 8.8 7.2 16 16 16s16-7.2 16-16c0-92.1-73.3-138.9-141.8-148.6c-34.4-4.9-69.8-.9-97.2 12.5c-14.8 7.2-27.6 17.3-36.5 30.4c-2.4-14.8-2.6-31.2-.2-47.9c8.4-59.5 46.9-114.2 117-114.2c8.8 0 16-7.2 16-16s-7.2-16-16-16C234.6 26.7 187.7 100 178 168.4c-4.9 34.4-.9 69.8 12.5 97.2z"/></svg>