<svg xmlns="http://www.w3.org/2000/svg" viewBox="0 0 512 512"><!--!Font Awesome Pro 6.6.0 by @fontawesome - https://fontawesome.com License - https://fontawesome.com/license (Commercial License) Copyright 2024 Fonticons, Inc.--><path class="fa-secondary" opacity=".4" d="M90.4 139.2c7.6-2.6 15.6-4.3 23.7-5.4c20.7-3 47-3 77.4-3l2.3 0 130.1 0c30.5 0 56.7 0 77.4 3c8.1 1.1 16 2.8 23.7 5.4c-.1-.5-.3-1-.4-1.5C417.1 113.9 395.2 96 368.5 96L146.8 96c-26.7 0-48.6 17.9-55.9 41.7c-.2 .5-.3 1-.4 1.5zm41.6-60.5l247.9 0c-7.4-19.1-24.8-33.3-46.1-35.7c-3-.3-6.4-.3-10.9-.3l-134 0c-4.5 0-7.9 0-10.9 .3c-21.3 2.3-38.7 16.5-46.1 35.7z"/><path class="fa-primary" d="M312.4 255.3a28.2 28.2 0 1 1 56.4 0 28.2 28.2 0 1 1 -56.4 0zM386.8 158c-18.1-2.6-41.4-2.6-70.5-2.6l-120.6 0c-29.1 0-52.4 0-70.5 2.6c-18.7 2.7-34.3 8.4-45.9 21.8S64.1 209.6 64 228.7c-.1 18.5 3 41.9 6.8 71l7.8 59.1c3 22.8 5.4 41.2 9.2 55.7c3.9 15 9.7 27.5 20.6 37.1s23.9 13.8 39.1 15.8c14.7 1.9 33.1 1.9 55.8 1.9l105.2 0c22.7 0 41.1 0 55.8-1.9c15.3-2 28.2-6.1 39.1-15.8s16.7-22.1 20.6-37.1c3.8-14.4 6.2-32.9 9.2-55.7l7.8-59.1c3.8-29.1 6.9-52.5 6.8-71c-.1-19.1-3.7-35.5-15.3-48.9s-27.2-19.1-45.9-21.8zM129.1 186.3c15.9-2.3 37.2-2.3 67.7-2.3l118.4 0c30.4 0 51.8 0 67.7 2.3c15.5 2.2 23.4 6.2 28.6 12.3s8.2 14.5 8.3 30.3c.1 16.2-2.7 37.6-6.7 68.1l-7.5 57.1c-2.2 16.5-3.9 29.4-5.8 40l-39.1-29.4c-22.2-16.7-54.3-18.2-78.3-4.1l-5 3c-8.5 5-20.2 3.9-27.1-1.8L178 301.4c-19.5-16.3-49.7-17-70.1-2l-7.9 5.8-1.1-8.1c-4-30.5-6.8-51.9-6.7-68.1c.1-15.8 3-24.2 8.3-30.3s13.1-10.1 28.6-12.3z"/></svg>