<svg xmlns="http://www.w3.org/2000/svg" viewBox="0 0 512 512"><!--!Font Awesome Pro 6.6.0 by @fontawesome - https://fontawesome.com License - https://fontawesome.com/license (Commercial License) Copyright 2024 Fonticons, Inc.--><path class="fa-secondary" opacity=".4" d="M42.7 256c0 34.1 8 66.4 22.3 95c3.8 7.6 5 16.3 2.9 24.5L55.1 423c-5.5 20.6 13.3 39.5 34 34l47.5-12.7c8.2-2.2 16.9-.9 24.5 2.9c28.6 14.2 60.9 22.3 95 22.3c117.8 0 213.3-95.5 213.3-213.3s-95.5-213.3-213.3-213.3S42.7 138.2 42.7 256zM192 256c0-48.9 0-73.3 14.9-82.4s35 3.3 75.1 27.9c39.5 24.3 59.3 36.4 59.3 54.5s-19.8 30.2-59.3 54.5c-31.2 19.2-50.2 30.9-64.2 30.9c-4 0-7.6-1-10.9-3c-14.9-9-14.9-33.3-14.9-82l0-.4z"/><path class="fa-primary" d="M282 201.5c39.5 24.3 59.3 36.4 59.3 54.5s-19.8 30.2-59.3 54.5c-40.1 24.6-60.1 36.9-75.1 27.9S192 304.9 192 256s0-73.3 14.9-82.4s35 3.3 75.1 27.9z"/></svg>