<svg xmlns="http://www.w3.org/2000/svg" viewBox="0 0 512 512"><!--!Font Awesome Pro 6.6.0 by @fontawesome - https://fontawesome.com License - https://fontawesome.com/license (Commercial License) Copyright 2024 Fonticons, Inc.--><path class="fa-secondary" opacity=".4" d="M123 213.3l-16.8 6.7C63.8 237 42.7 245.5 42.7 256s21.2 19 63.5 35.9l59.9 24c42.4 16.9 63.5 25.4 89.9 25.4s47.5-8.5 89.9-25.4l59.9-24c42.4-16.9 63.5-25.4 63.5-35.9s-21.2-19-63.5-35.9L389 213.3l-43.1 17.2C303.5 247.5 282.3 256 256 256s-47.5-8.5-89.9-25.4L123 213.3zm0 85.3l-16.8 6.7c-42.4 16.9-63.5 25.4-63.5 35.9s21.2 19 63.5 35.9l59.9 24c42.4 16.9 63.5 25.4 89.9 25.4s47.5-8.5 89.9-25.4l59.9-24c42.4-16.9 63.5-25.4 63.5-35.9s-21.2-19-63.5-35.9L389 298.7l-43.1 17.2c-42.4 16.9-63.5 25.4-89.9 25.4s-47.5-8.5-89.9-25.4L123 298.7z"/><path class="fa-primary" d="M106.2 206.6c-42.4-16.9-63.5-25.4-63.5-35.9s21.2-19 63.5-35.9l59.9-24c42.4-16.9 63.5-25.4 89.9-25.4s47.5 8.5 89.9 25.4l59.9 24c42.4 16.9 63.5 25.4 63.5 35.9s-21.2 19-63.5 35.9l-59.9 24C303.5 247.5 282.3 256 256 256s-47.5-8.5-89.9-25.4l-59.9-24zM42.7 170.7c0 10.5 21.2 19 63.5 35.9l59.9 24C208.5 247.5 229.7 256 256 256s47.5-8.5 89.9-25.4l59.9-24c42.4-16.9 63.5-25.4 63.5-35.9s-21.2-19-63.5-35.9l-59.9-24C303.5 93.8 282.3 85.3 256 85.3s-47.5 8.5-89.9 25.4l-59.9 24c-42.4 16.9-63.5 25.4-63.5 35.9z"/></svg>