<svg xmlns="http://www.w3.org/2000/svg" viewBox="0 0 512 512"><!--!Font Awesome Pro 6.6.0 by @fontawesome - https://fontawesome.com License - https://fontawesome.com/license (Commercial License) Copyright 2024 Fonticons, Inc.--><path class="fa-secondary" opacity=".4" d="M42.7 213.3l426.6 0c0 8.4 0 33.2 0 42.7c0 34.9 0 62.2-2 84c-4.5-2-9.2-3.2-14-3.7l0-37.6c0-26.5-21.5-48-48-48s-48 21.5-48 48l0 37.6c-10.5 1.2-20.6 5.8-28.6 13.8c-18.7 18.7-18.7 49.1 0 67.9l8.6 8.6c-11.7 .1-24.6 .1-38.7 .1l-85.3 0-.5 0c-80.1 0-120.3 0-145.2-25c-25-25-25-65.2-25-145.7l0-42.7zm69.3 128c0 8.8 7.2 16 16 16l85.3 0c8.8 0 16-7.2 16-16s-7.2-16-16-16l-85.3 0c-8.8 0-16 7.2-16 16zm138.7 0c0 8.8 7.2 16 16 16l32 0c8.8 0 16-7.2 16-16s-7.2-16-16-16l-32 0c-8.8 0-16 7.2-16 16z"/><path class="fa-primary" d="M394 438c6.2 6.2 16.4 6.2 22.6 0l42.7-42.7c6.2-6.2 6.2-16.4 0-22.6s-16.4-6.2-22.6 0L421.3 388l0-89.4c0-8.8-7.2-16-16-16s-16 7.2-16 16l0 89.4L374 372.7c-6.2-6.2-16.4-6.2-22.6 0s-6.2 16.4 0 22.6L394 438zM266.7 325.3c-8.8 0-16 7.2-16 16s7.2 16 16 16h32c8.8 0 16-7.2 16-16s-7.2-16-16-16h-32zm-138.7 0c-8.8 0-16 7.2-16 16s7.2 16 16 16h85.3c8.8 0 16-7.2 16-16s-7.2-16-16-16H128zm85.2-240h85.6c80.7 0 121 0 146 23.8c18 17.1 23.1 41.8 24.5 82.9v21.3H42.7V192c1.4-41.1 6.5-65.7 24.5-82.9c25.1-23.8 65.4-23.8 146-23.8z"/></svg>