<svg xmlns="http://www.w3.org/2000/svg" viewBox="0 0 512 512"><!--!Font Awesome Pro 6.6.0 by @fontawesome - https://fontawesome.com License - https://fontawesome.com/license (Commercial License) Copyright 2024 Fonticons, Inc.--><path class="fa-secondary" opacity=".4" d="M106.7 191.4l0 128.3c0 82.6 66.9 149.6 149.3 149.6s149.3-67 149.3-149.6l0-128.3C405.3 114.2 347 50.7 272 42.7l0 72.2c12.6 6 21.3 18.9 21.3 33.8l0 42.8c0 20.7-16.7 37.4-37.3 37.4s-37.3-16.7-37.3-37.4l0-42.8c0-14.9 8.7-27.8 21.3-33.8l0-72.2c-75 8-133.3 71.6-133.3 148.8z"/><path class="fa-primary" d="M293.3 191.4V148.7c0-14.9-8.7-27.8-21.3-33.8V42.7c-5.3-.6-10.6-.8-16-.8s-10.7 .3-16 .8v72.2c-12.6 6-21.3 18.9-21.3 33.8v42.8c0 20.7 16.7 37.4 37.3 37.4s37.3-16.7 37.3-37.4z"/></svg>