<svg xmlns="http://www.w3.org/2000/svg" viewBox="0 0 512 512"><!--!Font Awesome Pro 6.6.0 by @fontawesome - https://fontawesome.com License - https://fontawesome.com/license (Commercial License) Copyright 2024 Fonticons, Inc.--><path class="fa-secondary" opacity=".4" d="M42.7 256c0 100.6 0 150.9 31.2 182.1s81.5 31.2 182.1 31.2s150.9 0 182.1-31.2c31.2-31.2 31.2-81.3 31.2-181.3l0-.8c0-100.6 0-150.8-31.2-182.1S356.6 42.7 256 42.7s-150.8 0-182.1 31.2S42.7 155.4 42.7 256zM112 181.3c0-8.8 7.2-16 16-16l26.7 0 0-26.7c0-8.8 7.2-16 16-16s16 7.2 16 16l0 26.7 26.7 0c8.8 0 16 7.2 16 16s-7.2 16-16 16l-26.7 0 0 26.7c0 8.8-7.2 16-16 16s-16-7.2-16-16l0-26.7-26.7 0c-8.8 0-16-7.2-16-16zM127.4 298c6.2-6.2 16.4-6.2 22.6 0l20.7 20.7L191.4 298c6.2-6.2 16.4-6.2 22.6 0s6.2 16.4 0 22.6l-20.7 20.7L214 362c6.2 6.2 6.2 16.4 0 22.6s-16.4 6.2-22.6 0L170.7 364 150 384.6c-3.1 3.1-7.2 4.7-11.3 4.7s-8.2-1.6-11.3-4.7c-6.2-6.2-6.2-16.4 0-22.6L148 341.3l-20.7-20.7c-6.2-6.2-6.2-16.4 0-22.6zM282.7 181.3c0-8.8 7.2-16 16-16l85.3 0c8.8 0 16 7.2 16 16s-7.2 16-16 16l-85.3 0c-8.8 0-16-7.2-16-16zm0 128c0-8.8 7.2-16 16-16l85.3 0c8.8 0 16 7.2 16 16s-7.2 16-16 16l-85.3 0c-8.8 0-16-7.2-16-16zm0 64c0-8.8 7.2-16 16-16l85.3 0c8.8 0 16 7.2 16 16s-7.2 16-16 16l-85.3 0c-8.8 0-16-7.2-16-16z"/><path class="fa-primary" d="M170.7 122.7c8.8 0 16 7.2 16 16l0 26.7 26.7 0c8.8 0 16 7.2 16 16s-7.2 16-16 16l-26.7 0 0 26.7c0 8.8-7.2 16-16 16s-16-7.2-16-16l0-26.7-26.7 0c-8.8 0-16-7.2-16-16s7.2-16 16-16l26.7 0 0-26.7c0-8.8 7.2-16 16-16zm112 58.7c0-8.8 7.2-16 16-16l85.3 0c8.8 0 16 7.2 16 16s-7.2 16-16 16l-85.3 0c-8.8 0-16-7.2-16-16zm0 128c0-8.8 7.2-16 16-16l85.3 0c8.8 0 16 7.2 16 16s-7.2 16-16 16l-85.3 0c-8.8 0-16-7.2-16-16zM127.4 298c6.2-6.2 16.4-6.2 22.6 0l20.7 20.7L191.4 298c6.2-6.2 16.4-6.2 22.6 0s6.2 16.4 0 22.6l-20.7 20.7L214 362c6.2 6.2 6.2 16.4 0 22.6s-16.4 6.2-22.6 0L170.7 364 150 384.6c-6.2 6.2-16.4 6.2-22.6 0s-6.2-16.4 0-22.6L148 341.3l-20.7-20.7c-6.2-6.2-6.2-16.4 0-22.6zm155.3 75.3c0-8.8 7.2-16 16-16l85.3 0c8.8 0 16 7.2 16 16s-7.2 16-16 16l-85.3 0c-8.8 0-16-7.2-16-16z"/></svg>