<svg xmlns="http://www.w3.org/2000/svg" viewBox="0 0 512 512"><!--!Font Awesome Pro 6.6.0 by @fontawesome - https://fontawesome.com License - https://fontawesome.com/license (Commercial License) Copyright 2024 Fonticons, Inc.--><path class="fa-secondary" opacity=".4" d="M85.3 271.2c0 1.2 0 2.4 0 3.6c2.9-.8 5.8-1.6 8.7-2.3c7-1.7 14.6-3.2 20.9-3.2c8.8 0 16 7.2 16 16s-7.2 16-16 16c-2.3 0-6.8 .6-13.3 2.2c-4.8 1.2-10 2.7-15.4 4.4c1 9.3 3.4 17.7 7.1 25.4c9.7-5.1 22.8-10.8 35.4-10.8c8.8 0 16 7.2 16 16s-7.2 16-16 16c-3.6 0-9.1 1.6-16 4.9c36.9 34.6 103.2 45.8 143.3 45.8s106.4-11.2 143.3-45.8c-6.9-3.2-12.4-4.9-16-4.9c-8.8 0-16-7.2-16-16s7.2-16 16-16c12.6 0 25.7 5.7 35.4 10.8c3.6-7.7 6.1-16.1 7.1-25.4c-5.4-1.7-10.6-3.3-15.4-4.4c-6.5-1.6-11-2.2-13.3-2.2c-8.8 0-16-7.2-16-16s7.2-16 16-16c6.3 0 13.9 1.4 20.9 3.2c2.8 .7 5.7 1.5 8.6 2.3c.2-23.6-1.5-47.9-19.2-68.7c14.9 8.6 18.7-23.6 18.8-34.1l0-40c0-34.7-23.8-46.7-44.3-46.7s-61.3 33.3-74.9 33.3c-16.3 0-19.5-3.3-51.1-3.3s-34.7 3.3-51.1 3.3c-13.6 0-54.5-33.3-74.9-33.3s-44.3 12-44.3 46.7l0 40c0 10.5 3.9 42.7 18.8 34.1c-16.8 19.8-19.2 42.7-19.2 65.1zm80.7-2.6c0-7.1 1.7-14.3 5.4-20.2c3.5-5.7 10.5-12.5 20.9-12.5s17.4 6.8 20.9 12.5c3.7 5.9 5.4 13.1 5.4 20.2s-1.7 14.3-5.4 20.2c-3.5 5.7-10.5 12.5-20.9 12.5s-17.4-6.8-20.9-12.5c-3.7-5.9-5.4-13.1-5.4-20.2zM223.2 320c0-6.9 3.7-11.8 6.5-14.4c2.8-2.6 6.1-4.2 8.7-5.2c5.4-2.1 11.7-3 17.9-3s12.6 .9 17.9 3c2.6 1 5.9 2.6 8.7 5.2c2.9 2.6 6.5 7.5 6.5 14.4s-3.7 11.8-6.5 14.4c-2.8 2.6-6.1 4.2-8.7 5.2c-5.4 2.1-11.7 3-17.9 3s-12.6-.9-17.9-3c-2.6-1-5.9-2.6-8.7-5.2c-2.9-2.6-6.5-7.5-6.5-14.4zM294 268.7c0-7.1 1.7-14.3 5.4-20.2c3.5-5.7 10.5-12.5 20.9-12.5s17.4 6.8 20.9 12.5c3.7 5.9 5.4 13.1 5.4 20.2s-1.7 14.3-5.4 20.2c-3.5 5.7-10.5 12.5-20.9 12.5s-17.4-6.8-20.9-12.5c-3.7-5.9-5.4-13.1-5.4-20.2z"/><path class="fa-primary" d="M192.3 236c-10.4 0-17.4 6.8-20.9 12.5c-3.7 5.9-5.4 13.1-5.4 20.2s1.7 14.3 5.4 20.2c3.5 5.7 10.5 12.5 20.9 12.5s17.4-6.8 20.9-12.5c3.7-5.9 5.4-13.1 5.4-20.2s-1.7-14.3-5.4-20.2c-3.5-5.7-10.5-12.5-20.9-12.5zm107.1 12.5c3.5-5.7 10.5-12.5 20.9-12.5s17.4 6.8 20.9 12.5c3.7 5.9 5.4 13.1 5.4 20.2s-1.7 14.3-5.4 20.2c-3.5 5.7-10.5 12.5-20.9 12.5s-17.4-6.8-20.9-12.5c-3.7-5.9-5.4-13.1-5.4-20.2s1.7-14.3 5.4-20.2zm-61 51.9c5.4-2.1 11.7-3 17.9-3s12.6 .9 17.9 3c2.6 1 5.9 2.6 8.7 5.2c2.9 2.6 6.5 7.5 6.5 14.4s-3.7 11.8-6.5 14.4c-2.8 2.6-6.1 4.2-8.7 5.2c-5.4 2.1-11.7 3-17.9 3s-12.6-.9-17.9-3c-2.6-1-5.9-2.6-8.7-5.2c-2.9-2.6-6.5-7.5-6.5-14.4s3.7-11.8 6.5-14.4c2.8-2.6 6.1-4.2 8.7-5.2zm142.6-15c0-8.8 7.2-16 16-16c6.3 0 13.9 1.4 20.9 3.2c7.4 1.8 15.3 4.2 23 6.9c14.6 5 30.1 11.4 37.1 15.9c7.4 4.8 9.6 14.7 4.8 22.1s-14.7 9.6-22.1 4.8c-3.3-2.2-15.4-7.5-30-12.5c-7-2.4-14.1-4.5-20.3-6.1c-6.5-1.6-11-2.2-13.3-2.2c-8.8 0-16-7.2-16-16zm2.2 37.3c-8.8 0-16 7.2-16 16s7.2 16 16 16c4.4 0 11.7 2.5 20.9 7.3c7.3 3.9 14 8.2 19.2 11.6c1 .6 1.9 1.3 2.8 1.8c7.4 4.8 17.3 2.7 22.1-4.8s2.7-17.3-4.8-22.1c-.7-.5-1.5-1-2.4-1.6c-5.2-3.4-13.3-8.7-22-13.3c-9.7-5.1-23.1-11-35.9-11zm-301.9-13c-14.7 5-26.7 10.3-30 12.5c-7.4 4.8-17.3 2.7-22.1-4.8s-2.7-17.3 4.8-22.1c7-4.5 22.5-10.9 37.1-15.9c7.6-2.6 15.6-5 23-6.9c7-1.7 14.6-3.2 20.9-3.2c8.8 0 16 7.2 16 16s-7.2 16-16 16c-2.3 0-6.8 .6-13.3 2.2c-6.2 1.5-13.3 3.7-20.3 6.1zm4.4 65.8c.9-.6 1.8-1.2 2.8-1.8c5.2-3.4 11.9-7.8 19.2-11.6c9.2-4.9 16.5-7.3 20.9-7.3c8.8 0 16-7.2 16-16s-7.2-16-16-16c-12.8 0-26.1 5.9-35.9 11c-8.7 4.6-16.9 9.9-22 13.3c-.9 .6-1.7 1.1-2.4 1.6c-7.4 4.8-9.6 14.7-4.8 22.1s14.7 9.6 22.1 4.8z"/></svg>