<svg xmlns="http://www.w3.org/2000/svg" viewBox="0 0 512 512"><!--!Font Awesome Pro 6.6.0 by @fontawesome - https://fontawesome.com License - https://fontawesome.com/license (Commercial License) Copyright 2024 Fonticons, Inc.--><path class="fa-secondary" opacity=".4" d="M42.7 256a213.3 213.3 0 1 0 426.7 0A213.3 213.3 0 1 0 42.7 256zm48-32c0-8.8 7.2-16 16-16l13.5 0c19.8-55.9 73.1-96 135.8-96c26.2 0 50.8 7 72 19.3c7.7 4.4 10.3 14.2 5.8 21.9s-14.2 10.3-21.9 5.8c-16.5-9.5-35.6-15-56-15c-44.7 0-83.2 26.2-101.2 64l58.6 0c8.8 0 16 7.2 16 16s-7.2 16-16 16l-68.2 0c-.7 5.2-1.1 10.6-1.1 16s.4 10.8 1.1 16l68.2 0c8.8 0 16 7.2 16 16s-7.2 16-16 16l-58.6 0c18 37.8 56.5 64 101.2 64c20.4 0 39.5-5.5 56-15c7.6-4.4 17.4-1.8 21.9 5.8s1.8 17.4-5.8 21.9C306.8 393 282.2 400 256 400c-62.7 0-116-40.1-135.8-96l-13.5 0c-8.8 0-16-7.2-16-16s7.2-16 16-16l6.2 0c-.6-5.3-.9-10.6-.9-16s.3-10.7 .9-16l-6.2 0c-8.8 0-16-7.2-16-16z"/><path class="fa-primary" d="M144 256c0-5.4 .4-10.8 1.1-16h68.2c8.8 0 16-7.2 16-16s-7.2-16-16-16H154.8c18-37.8 56.5-64 101.2-64c20.4 0 39.5 5.5 56 15c7.6 4.4 17.4 1.8 21.9-5.8s1.8-17.4-5.8-21.9C306.8 119 282.2 112 256 112c-62.7 0-116 40.1-135.8 96H106.7c-8.8 0-16 7.2-16 16s7.2 16 16 16h6.2c-.6 5.3-.9 10.6-.9 16s.3 10.7 .9 16h-6.2c-8.8 0-16 7.2-16 16s7.2 16 16 16h13.5c19.8 55.9 73.1 96 135.8 96c26.2 0 50.8-7 72-19.3c7.7-4.4 10.3-14.2 5.8-21.9s-14.2-10.3-21.9-5.8c-16.5 9.5-35.6 15-56 15c-44.7 0-83.2-26.2-101.2-64h58.6c8.8 0 16-7.2 16-16s-7.2-16-16-16H145.1c-.7-5.2-1.1-10.6-1.1-16z"/></svg>