<svg xmlns="http://www.w3.org/2000/svg" viewBox="0 0 512 512"><!--!Font Awesome Pro 6.6.0 by @fontawesome - https://fontawesome.com License - https://fontawesome.com/license (Commercial License) Copyright 2024 Fonticons, Inc.--><path class="fa-secondary" opacity=".4" d="M122.6 128L351 128c43.8 0 65.8 0 75.2 14.4s.8 34.5-16.4 74.8l-9.1 21.3c-8.1 18.8-12.1 28.2-20.1 33.5s-18.2 5.3-38.7 5.3l-215.9 0c-.4-2-.8-4.2-1.1-6.6c-.6-4.3-1-9-1.3-14.2c-.1-1.6-.2-3.2-.3-4.8c0-.8-.1-1.9-.1-3.1c-.1-1.5-.1-3.1-.2-4.7c-.2-5.9-.3-12.4-.3-19.5c0-6.1 0-12.6 0-19.6c0-.7 0-1.5 0-2.2c0-18.9 0-37.8 0-56.7c0-6.4 0-12.4-.1-18zm32.1 64c0 8.8 7.2 16 16 16l64 0c8.8 0 16-7.2 16-16s-7.2-16-16-16l-64 0c-8.8 0-16 7.2-16 16z"/><path class="fa-primary" d="M27.5 58.9C30.3 50.6 39.3 46 47.7 48.8l5.7 1.9 .8 .3c13.4 4.5 24.7 8.2 33.5 12.3c9.4 4.4 17.6 9.8 23.8 18.4s8.8 18.1 10 28.4c1.1 9.7 1.1 21.6 1.1 35.7l0 56.7c0 30.6 0 52 2.2 68.1c2.1 15.7 6 23.9 11.9 29.8s14.2 9.8 29.8 11.9c16.1 2.2 37.5 2.2 68.1 2.2l149.3 0c8.8 0 16 7.2 16 16s-7.2 16-16 16l-150.5 0c-29.2 0-52.7 0-71.2-2.5c-19.2-2.6-35.4-8.1-48.2-20.9s-18.4-29-20.9-48.2c-2.5-18.5-2.5-42-2.5-71.2l0-57c0-15.2 0-25.3-.9-33c-.8-7.3-2.3-10.8-4.1-13.4s-4.7-5-11.4-8.1c-7-3.3-16.6-6.5-31-11.3l-5.7-1.9c-8.4-2.8-12.9-11.9-10.1-20.2zM154.7 192c0-8.8 7.2-16 16-16h64c8.8 0 16 7.2 16 16s-7.2 16-16 16h-64c-8.8 0-16-7.2-16-16zM160 448a32 32 0 1 1 0-64 32 32 0 1 1 0 64zm224-32a32 32 0 1 0 -64 0 32 32 0 1 0 64 0z"/></svg>