<svg xmlns="http://www.w3.org/2000/svg" viewBox="0 0 512 512"><!--!Font Awesome Pro 6.6.0 by @fontawesome - https://fontawesome.com License - https://fontawesome.com/license (Commercial License) Copyright 2024 Fonticons, Inc.--><path class="fa-secondary" opacity=".4" d="M42.7 234.7l0 5.3 426.7 0 0-5.3 0-.5c0-80.1 0-120.3-25-145.2c-25-25-65.2-25-145.7-25l-85.3 0-.5 0C132.7 64 92.6 64 67.7 89c-25 25-25 65.2-25 145.7zm0 37.3l0 5.3c0 80.5 0 120.7 25 145.7s65.2 25 145.7 25l85.3 0 .5 0c80.1 0 120.3 0 145.2-25c25-25 25-65.2 25-145.7l0-5.3L42.7 272zM112 138.7c0-8.8 7.2-16 16-16s16 7.2 16 16l0 42.7c0 8.8-7.2 16-16 16s-16-7.2-16-16l0-42.7zm0 192c0-8.8 7.2-16 16-16s16 7.2 16 16l0 42.7c0 8.8-7.2 16-16 16s-16-7.2-16-16l0-42.7zm64-192c0-8.8 7.2-16 16-16s16 7.2 16 16l0 42.7c0 8.8-7.2 16-16 16s-16-7.2-16-16l0-42.7zm0 192c0-8.8 7.2-16 16-16s16 7.2 16 16l0 42.7c0 8.8-7.2 16-16 16s-16-7.2-16-16l0-42.7zM272 160c0-8.8 7.2-16 16-16l96 0c8.8 0 16 7.2 16 16s-7.2 16-16 16l-96 0c-8.8 0-16-7.2-16-16zm0 192c0-8.8 7.2-16 16-16l96 0c8.8 0 16 7.2 16 16s-7.2 16-16 16l-96 0c-8.8 0-16-7.2-16-16z"/><path class="fa-primary" d="M469.3 272L42.7 272l0-32 426.7 0 0 32zM272 352c0-8.8 7.2-16 16-16h96c8.8 0 16 7.2 16 16s-7.2 16-16 16H288c-8.8 0-16-7.2-16-16zm0-192c0-8.8 7.2-16 16-16h96c8.8 0 16 7.2 16 16s-7.2 16-16 16H288c-8.8 0-16-7.2-16-16zM128 389.3c-8.8 0-16-7.2-16-16V330.7c0-8.8 7.2-16 16-16s16 7.2 16 16v42.7c0 8.8-7.2 16-16 16zm0-192c-8.8 0-16-7.2-16-16V138.7c0-8.8 7.2-16 16-16s16 7.2 16 16v42.7c0 8.8-7.2 16-16 16zm64 192c-8.8 0-16-7.2-16-16V330.7c0-8.8 7.2-16 16-16s16 7.2 16 16v42.7c0 8.8-7.2 16-16 16zm0-192c-8.8 0-16-7.2-16-16V138.7c0-8.8 7.2-16 16-16s16 7.2 16 16v42.7c0 8.8-7.2 16-16 16z"/></svg>