<svg xmlns="http://www.w3.org/2000/svg" viewBox="0 0 512 512"><!--!Font Awesome Pro 6.6.0 by @fontawesome - https://fontawesome.com License - https://fontawesome.com/license (Commercial License) Copyright 2024 Fonticons, Inc.--><path class="fa-secondary" opacity=".4" d="M64 213l0 .3 0 128c0 60.3 0 90.5 18.7 109.3c18.7 18.7 48.8 18.7 108.9 18.7l.4 0 128 0c60.3 0 90.5 0 109.3-18.7S448 401.6 448 341.3l0-128c0-60.3 0-90.5-18.7-109.3c-16.4-16.4-41.5-18.4-87.9-18.7l0 10.7c0 17.7-14.3 32-32 32l-106.7 0c-17.7 0-32-14.3-32-32l0-10.7c-46.4 .3-71.5 2.3-87.9 18.7C64 122.8 64 152.9 64 213zm128 57.9c0-35.7 35.2-49 64-21.4c28.8-27.6 64-14.2 64 21.4c0 21-24.8 43.2-43.6 56.9c-9 6.6-13.4 9.9-20.4 9.9s-11.5-3.3-20.4-9.9c-18.7-13.7-43.6-35.9-43.6-56.9z"/><path class="fa-primary" d="M170.7 74.7c0-17.7 14.3-32 32-32H309.3c17.7 0 32 14.3 32 32V96c0 17.7-14.3 32-32 32H202.7c-17.7 0-32-14.3-32-32V74.7zM192 270.9c0 21 24.9 43.2 43.6 56.9c9 6.6 13.4 9.9 20.4 9.9s11.5-3.3 20.4-9.9c18.7-13.7 43.6-35.9 43.6-56.9c0-35.7-35.2-49-64-21.4c-28.8-27.6-64-14.2-64 21.4z"/></svg>