<svg xmlns="http://www.w3.org/2000/svg" viewBox="0 0 512 512"><!--!Font Awesome Pro 6.6.0 by @fontawesome - https://fontawesome.com License - https://fontawesome.com/license (Commercial License) Copyright 2024 Fonticons, Inc.--><path class="fa-secondary" opacity=".4" d="M70.6 289.8c-2.5 5.9-1.2 12.8 3.2 17.4l85.3 88c3 3.1 7.2 4.9 11.5 4.9s8.5-1.8 11.5-4.9l85.3-88c3-3 4.5-7.1 4.5-11.1c0-2.1-.4-4.2-1.3-6.2c-2.5-5.9-8.3-9.8-14.7-9.8l-69.3 0 0-152c0-8.8-7.2-16-16-16s-16 7.2-16 16l0 152-69.3 0c-6.4 0-12.2 3.8-14.7 9.8z"/><path class="fa-primary" d="M426.7 232c6.4 0 12.2-3.8 14.7-9.8s1.2-12.8-3.2-17.4l-85.3-88c-3-3.1-7.2-4.9-11.5-4.9s-8.5 1.8-11.5 4.9l-85.3 88c-4.5 4.6-5.8 11.5-3.2 17.4s8.3 9.8 14.7 9.8h69.3V384c0 8.8 7.2 16 16 16s16-7.2 16-16l0-152h69.3z"/></svg>