<svg xmlns="http://www.w3.org/2000/svg" viewBox="0 0 512 512"><!--!Font Awesome Pro 6.6.0 by @fontawesome - https://fontawesome.com License - https://fontawesome.com/license (Commercial License) Copyright 2024 Fonticons, Inc.--><path class="fa-secondary" opacity=".4" d="M128 173.9c0-49.1 0-73.6 10.3-91.9c6.7-12 16.4-21.9 28.1-28.8c17.8-10.6 41.7-10.6 89.6-10.6l.3 0c47.6 0 71.5 0 89.3 10.6c11.7 6.9 21.4 16.9 28.1 28.8C384 100.3 384 124.9 384 173.9l0 11.1 0 34c-2.9 6.3-4.5 13.4-4.5 20.9l0 65.9c0 20.1 0 30.2-6.2 36.4s-16.3 6.2-36.4 6.2l-161.7 0c-20.1 0-30.2 0-36.4-6.2s-6.2-16.3-6.2-36.4l0-65.9c0-7.5-1.6-14.6-4.5-20.9l0-34 0-11.1z"/><path class="fa-primary" d="M366.5 448h-221c-15.9 0-25.8 0-33.5-.9v6.2 21.3c0 8.8-7.2 16-16 16s-16-7.2-16-16V434.9C62.4 423 49.5 404 44.7 381.7c-2-9.4-2-20.7-2-43.4V239.9c0-26.5 20.1-47.9 44.9-47.9s44.9 21.4 44.9 47.9v65.9c0 20.1 0 30.2 6.2 36.4s16.3 6.2 36.4 6.2H336.8c20.1 0 30.2 0 36.4-6.2s6.2-16.3 6.2-36.4V239.9c0-26.5 20.1-47.9 44.9-47.9s44.9 21.4 44.9 47.9v98.4c0 22.7 0 34-2 43.4C462.5 404 449.6 423 432 434.9v39.8c0 8.8-7.2 16-16 16s-16-7.2-16-16V447.1c-7.7 .9-17.6 .9-33.5 .9z"/></svg>