<svg xmlns="http://www.w3.org/2000/svg" viewBox="0 0 512 512"><!--!Font Awesome Pro 6.6.0 by @fontawesome - https://fontawesome.com License - https://fontawesome.com/license (Commercial License) Copyright 2024 Fonticons, Inc.--><path class="fa-secondary" opacity=".4" d="M124.5 300.9c30.4-30.4 60.8-60.8 91.3-91.3c0 0-23.9 23.9 19.4 67.2c42 42 65.7 20.7 67.2 19.4c-30.4 30.4-60.8 60.8-91.3 91.3c-15.6-10.3-31.5-23.1-47.5-39.1s-28.8-31.9-39.1-47.5z"/><path class="fa-primary" d="M228 138.2l-13.8-24.8c-18.9-33.8-66.3-37.8-96-8.1c-17.9 17.9-31.8 39.7-32.7 63.9c-1.2 31.3 4.6 79.5 39 131.7l91.3-91.3c19.7-19.7 24.7-49.1 12.2-71.4zm74.4 158l-91.3 91.3c52.2 34.4 100.4 40.2 131.7 39c24.2-.9 46.1-14.8 63.9-32.7c29.7-29.7 25.7-77.1-8.1-96L373.8 284c-22.4-12.5-51.8-7.5-71.4 12.2z"/></svg>