<svg xmlns="http://www.w3.org/2000/svg" viewBox="0 0 512 512"><!--!Font Awesome Pro 6.6.0 by @fontawesome - https://fontawesome.com License - https://fontawesome.com/license (Commercial License) Copyright 2024 Fonticons, Inc.--><path class="fa-secondary" opacity=".4" d="M42.7 117.3l0 277.3c0 5.9 4.8 10.7 10.7 10.7c35.3 0 64-28.7 64-64l0-170.7c0-35.3-28.7-64-64-64c-5.9 0-10.7 4.8-10.7 10.7zm352 53.3l0 170.7c0 35.3 28.7 64 64 64c5.9 0 10.7-4.8 10.7-10.7l0-277.3c0-5.9-4.8-10.7-10.7-10.7c-35.3 0-64 28.7-64 64z"/><path class="fa-primary" d="M245.3 405.3c-40.2 0-60.3 0-72.8-12.5S160 360.2 160 320l0-128c0-40.2 0-60.3 12.5-72.8s32.6-12.5 72.8-12.5l21.3 0c40.2 0 60.3 0 72.8 12.5S352 151.8 352 192V320c0 40.2 0 60.3-12.5 72.8s-32.6 12.5-72.8 12.5H245.3z"/></svg>