<svg xmlns="http://www.w3.org/2000/svg" viewBox="0 0 512 512"><!--!Font Awesome Pro 6.6.0 by @fontawesome - https://fontawesome.com License - https://fontawesome.com/license (Commercial License) Copyright 2024 Fonticons, Inc.--><path class="fa-secondary" opacity=".4" d="M64 368c0 53 0 96 170.7 96c30.8 0 56-1.4 76.7-4c-.6-.5-1.2-1-1.7-1.6c-10.9-10.9-10.9-28.5-10.9-63.7s0-52.8 10.9-63.7S338.1 320 373.3 320c3.2 0 6.3 0 9.2 0c-29.5-28.7-84.7-48-147.8-48C140.4 272 64 315 64 368z"/><path class="fa-primary" d="M234.7 42.7a85.3 85.3 0 1 0 0 170.7 85.3 85.3 0 1 0 0-170.7zm74.9 415.7c10.9 10.9 28.5 10.9 63.7 10.9s52.8 0 63.7-10.9S448 429.9 448 394.7s0-52.8-10.9-63.7S408.5 320 373.3 320s-52.8 0-63.7 10.9s-10.9 28.5-10.9 63.7s0 52.8 10.9 63.7zm43-32.2c-15-10.7-32.6-23.3-32.6-45.2c0-24.1 29.3-41.2 53.3-18c24-23.2 53.3-6.1 53.3 18c0 21.8-17.6 34.4-32.6 45.2c-1.6 1.1-3.1 2.2-4.6 3.3c-5.5 4.1-10.9 7.9-16.2 7.9s-10.7-3.8-16.2-7.9c-1.5-1.1-3-2.2-4.6-3.3z"/></svg>