<svg xmlns="http://www.w3.org/2000/svg" viewBox="0 0 512 512"><!--!Font Awesome Pro 6.6.0 by @fontawesome - https://fontawesome.com License - https://fontawesome.com/license (Commercial License) Copyright 2024 Fonticons, Inc.--><path class="fa-secondary" opacity=".4" d="M85.3 234.7c0 35.6 0 71.1 0 106.7c0 60.3 0 90.5 18.7 109.3c18.7 18.7 48.8 18.7 108.9 18.7l.3 0 85.3 0c60.3 0 90.5 0 109.3-18.7s18.7-48.9 18.7-109.3l0-21.3c0-40.2 0-60.3-12.5-72.8c-12.5-12.5-32.5-12.5-72.6-12.5l-.2 0c-85.4 0-170.7 0-256 0zM234.7 352c0-24.4 0-36.7 6.4-41.2s15 1.6 32.2 14c16.9 12.1 25.4 18.2 25.4 27.2s-8.5 15.1-25.4 27.2c-13.4 9.6-21.5 15.4-27.5 15.4c-1.7 0-3.2-.5-4.7-1.5c-6.4-4.5-6.4-16.7-6.4-41.2z"/><path class="fa-primary" d="M298.7 352c0-9-8.5-15.1-25.4-27.2c-17.2-12.3-25.8-18.5-32.2-14s-6.4 16.7-6.4 41.2s0 36.7 6.4 41.2s15-1.6 32.2-14c16.9-12.1 25.4-18.2 25.4-27.2zM284.1 174.9L296.9 67.5 196.4 94.5l-.9 6.1-12.9 108 100.7-27 .8-6.7zM74.3 160.3c-4.4 16.6 .7 35.8 11 74.3l64-17.1 .8-6.7L163 103.4l-2.2 .6c-38.5 10.3-57.8 15.5-69.9 27.6c-7.9 7.9-13.7 17.8-16.6 28.7zm315-7.1l-72.7 19.5 12.9-108 1.2-5.8c2.7-.5 5.1-.9 7.3-1c25.8-1.7 50.1 12.3 61.6 35.6c2.8 5.7 4.7 12.8 8.6 27.2c1.3 4.8 1.9 7.2 2.1 9.3c.6 8.6-4.1 16.7-11.9 20.5c-1.9 .9-4.3 1.6-9.1 2.9z"/></svg>