<svg xmlns="http://www.w3.org/2000/svg" viewBox="0 0 512 512"><!--!Font Awesome Pro 6.5.2 by @fontawesome - https://fontawesome.com License - https://fontawesome.com/license (Commercial License) Copyright 2024 Fonticons, Inc.--><path class="fa-secondary" opacity=".4" d="M74.7 130.9l0 189.1L240 320l0 128 32 0 0-128 165.3 0 0-189.1c0-8.3 0-12.4-.4-15.2c-2.6-19.5-13.6-31.5-32.8-35.9c-2.8-.6-8.6-1.2-20.2-2.2c-21.4-1.9-46.6-9.4-68.9-17.5C283.2 48.4 267.3 42.7 256 42.7s-27.2 5.8-59.1 17.4c-22.4 8.1-47.6 15.6-68.9 17.5c-11.6 1-17.4 1.6-20.2 2.2c-19.2 4.4-30.2 16.4-32.8 35.9c-.4 2.8-.4 6.9-.4 15.2zm116.7 28.5L212.7 138c3.1-3.3 7.3-5.1 11.7-5.1c1.3 0 2.6 .2 4 .5c5.7 1.4 10.1 5.9 11.5 11.5s-.3 11.7-4.6 15.7L214 182c-6.3 5.9-16.1 5.7-22.2-.4s-6.3-15.9-.4-22.2zM208.1 239c-1.4-5.7 .3-11.7 4.6-15.7l64-64c6.3-5.9 16.1-5.7 22.2 .4s6.3 15.9 .4 22.2l-64 64c-4 4.3-10 6-15.7 4.6s-10.1-5.9-11.5-11.5zm64 21.3c-1.4-5.7 .3-11.7 4.6-15.7L298 223.4c4-4.3 10-6 15.7-4.6s10.1 5.9 11.5 11.5s-.3 11.7-4.6 15.7l-21.3 21.3c-4 4.3-10 6-15.7 4.6s-10.1-5.9-11.5-11.5z"/><path class="fa-primary" d="M299.3 182a16 16 0 0 0 -22.6-22.6l-64 64a16 16 0 1 0 22.6 22.6zm-64-21.3A16 16 0 1 0 212.7 138l-21.3 21.3A16 16 0 0 0 214 182zm85.3 85.3A16 16 0 1 0 298 223.4l-21.3 21.3a16 16 0 1 0 22.6 22.6zM64 320l176 0 0 128-69.3 0c-18.7 0-34.5 0-48-.6l0 21.9c0 8.8-7.2 16-16 16s-16-7.2-16-16l0-25.4c-12.4-2.7-21.7-7.2-29.2-14.7C45 412.9 43 387.7 42.7 341.4c0-5.7 2.2-11.1 6.2-15.1s9.4-6.3 15.1-6.3zm69.3 64c0 8.8 7.2 16 16 16l42.7 0c8.8 0 16-7.2 16-16s-7.2-16-16-16l-42.7 0c-8.8 0-16 7.2-16 16zm208 64L272 448l0-128 176 0c5.7 0 11.1 2.2 15.1 6.2s6.2 9.4 6.2 15.1c-.3 46.4-2.3 71.5-18.7 87.9c-7.5 7.5-16.9 12-29.3 14.7l0 25.4c0 8.8-7.2 16-16 16s-16-7.2-16-16l0-21.9c-13.5 .6-29.3 .6-48 .6zM320 368c-8.8 0-16 7.2-16 16s7.2 16 16 16l42.7 0c8.8 0 16-7.2 16-16s-7.2-16-16-16z"/></svg>