<svg xmlns="http://www.w3.org/2000/svg" viewBox="0 0 512 512"><!--!Font Awesome Pro 6.6.0 by @fontawesome - https://fontawesome.com License - https://fontawesome.com/license (Commercial License) Copyright 2024 Fonticons, Inc.--><path class="fa-secondary" opacity=".4" d="M42.7 256a213.3 213.3 0 1 0 426.7 0A213.3 213.3 0 1 0 42.7 256zM176 202.7c0-35.5 29.2-61.7 64-67.9l0-6.8c0-8.8 7.2-16 16-16s16 7.2 16 16l0 6.8c34.8 6.2 64 32.4 64 67.9c0 8.8-7.2 16-16 16s-16-7.2-16-16c0-14.5-12-29.8-32-35.3l0 74c34.8 6.2 64 32.4 64 67.9s-29.2 61.7-64 67.9l0 6.8c0 8.8-7.2 16-16 16s-16-7.2-16-16l0-6.8c-34.8-6.2-64-32.4-64-67.9c0-8.8 7.2-16 16-16s16 7.2 16 16c0 14.5 12 29.8 32 35.3l0-74c-34.8-6.2-64-32.4-64-67.9zm32 0c0 14.5 12 29.8 32 35.3l0-70.5c-20 5.5-32 20.8-32 35.3zm64 71.4l0 70.5c20-5.5 32-20.8 32-35.3s-12-29.8-32-35.3z"/><path class="fa-primary" d="M256 112c8.8 0 16 7.2 16 16l0 6.8c34.8 6.2 64 32.4 64 67.9c0 8.8-7.2 16-16 16s-16-7.2-16-16c0-14.5-12-29.8-32-35.3l0 74c34.8 6.2 64 32.4 64 67.9s-29.2 61.7-64 67.9l0 6.8c0 8.8-7.2 16-16 16s-16-7.2-16-16l0-6.8c-34.8-6.2-64-32.4-64-67.9c0-8.8 7.2-16 16-16s16 7.2 16 16c0 14.5 12 29.8 32 35.3l0-74c-34.8-6.2-64-32.4-64-67.9s29.2-61.7 64-67.9l0-6.8c0-8.8 7.2-16 16-16zm-16 55.4c-20 5.5-32 20.8-32 35.3s12 29.8 32 35.3l0-70.5zm64 141.9c0-14.5-12-29.8-32-35.3l0 70.5c20-5.5 32-20.8 32-35.3z"/></svg>