<svg xmlns="http://www.w3.org/2000/svg" viewBox="0 0 512 512"><!--!Font Awesome Pro 6.6.0 by @fontawesome - https://fontawesome.com License - https://fontawesome.com/license (Commercial License) Copyright 2024 Fonticons, Inc.--><path class="fa-secondary" opacity=".4" d="M56.6 385c-7.7 32.8 12.7 65.6 45.5 73.3c4.6 1.1 9.3 1.6 13.9 1.6c22.9 0 44.3-12.9 54.7-34.2l2.6-5.3c11.5-23.4 35.3-38.3 61.4-38.3l42.8 0c26.1 0 49.9 14.8 61.4 38.3l2.6 5.3c10.4 21.2 31.9 34.2 54.7 34.2c4.6 0 9.2-.5 13.9-1.6c32.8-7.7 53.2-40.5 45.5-73.3l-21.8-93.3c-12.3-52.7-18.5-79.1-36-96.4c-4.4-4.4-9.3-8.3-14.6-11.6c-20.8-13.1-47.9-13.1-102.1-13.1l-9 0-32 0-9 0c-54.2 0-81.2 0-102.1 13.1c-5.3 3.3-10.2 7.2-14.6 11.6c-17.5 17.3-23.7 43.7-36 96.4L56.6 385zm76.8-97c0-8.8 7.2-16 16-16l16 0 0-16c0-8.8 7.2-16 16-16s16 7.2 16 16l0 16 16 0c8.8 0 16 7.2 16 16s-7.2 16-16 16l-16 0 0 16c0 8.8-7.2 16-16 16s-16-7.2-16-16l0-16-16 0c-8.8 0-16-7.2-16-16zm208-32a21.3 21.3 0 1 1 -42.7 0 21.3 21.3 0 1 1 42.7 0zM384 309.3a21.3 21.3 0 1 1 -42.7 0 21.3 21.3 0 1 1 42.7 0z"/><path class="fa-primary" d="M197.3 256c0-8.8-7.2-16-16-16s-16 7.2-16 16v16h-16c-8.8 0-16 7.2-16 16s7.2 16 16 16h16v16c0 8.8 7.2 16 16 16s16-7.2 16-16V304h16c8.8 0 16-7.2 16-16s-7.2-16-16-16h-16V256zM320 277.3a21.3 21.3 0 1 0 0-42.7 21.3 21.3 0 1 0 0 42.7zm21.3 32a21.3 21.3 0 1 1 42.7 0 21.3 21.3 0 1 1 -42.7 0zM336 85.3c0-8.8-7.2-16-16-16s-16 7.2-16 16v21.3c0 2.9-2.4 5.3-5.3 5.3H277.3c-20.6 0-37.3 16.7-37.3 37.3v21.3h32V149.3c0-2.9 2.4-5.3 5.3-5.3h21.3c20.6 0 37.3-16.7 37.3-37.3V85.3z"/></svg>