<svg xmlns="http://www.w3.org/2000/svg" viewBox="0 0 512 512"><!--!Font Awesome Pro 6.6.0 by @fontawesome - https://fontawesome.com License - https://fontawesome.com/license (Commercial License) Copyright 2024 Fonticons, Inc.--><path class="fa-secondary" opacity=".4" d="M42.7 213.3l0 85.3c0 60.3 0 90.5 18.7 109.3c10.5 10.5 24.5 15.1 45.3 17.1l5 .4c-2.5-9.4-3.8-20.7-4.4-34.5s-.6-30.1-.6-49.6l0-170.7c0-4.9 0-9.5 0-14s0-8.8 .1-12.9c.1-8.2 .2-15.8 .5-22.7c.6-13.8 1.9-25.1 4.4-34.5l-5 .4c-20.8 2-34.8 6.7-45.3 17.1C42.7 122.8 42.7 153 42.7 213.3zM400.3 86.6c5 18.8 5 45.2 5 84.1c0 56.9 0 113.8 0 170.7c0 .1 0 .2 0 .3c0 14.9 0 27.9-.3 39.3c0 1.4-.1 2.8-.1 4.2c0 .4 0 .7 0 1c0 1.4-.1 2.8-.2 4.2c-.2 3.7-.4 7.2-.6 10.5c-.2 3.1-.5 6.1-.9 8.9c-.7 5.7-1.6 10.9-2.9 15.6l5-.4c20.8-2 34.8-6.7 45.3-17.1c18.7-18.7 18.7-48.9 18.7-109.3l0-85.3c0-60.3 0-90.5-18.7-109.3C440.1 93.6 426.1 89 405.3 87l-5-.4z"/><path class="fa-primary" d="M125.4 61.4c-18.7 18.7-18.7 48.9-18.7 109.3l0 170.7c0 60.3 0 90.5 18.7 109.3s48.9 18.7 109.3 18.7l42.7 0c60.3 0 90.5 0 109.3-18.7s18.7-48.9 18.7-109.3l0-170.7c0-60.3 0-90.5-18.7-109.3s-48.9-18.7-109.3-18.7l-42.7 0c-60.3 0-90.5 0-109.3 18.7zM176 362.7c0-8.8 7.2-16 16-16l64 0c8.8 0 16 7.2 16 16s-7.2 16-16 16l-64 0c-8.8 0-16-7.2-16-16zm16-101.3l128 0c8.8 0 16 7.2 16 16s-7.2 16-16 16l-128 0c-8.8 0-16-7.2-16-16s7.2-16 16-16zM176 192c0-8.8 7.2-16 16-16l128 0c8.8 0 16 7.2 16 16s-7.2 16-16 16l-128 0c-8.8 0-16-7.2-16-16z"/></svg>