<svg xmlns="http://www.w3.org/2000/svg" viewBox="0 0 512 512"><!--!Font Awesome Pro 6.6.0 by @fontawesome - https://fontawesome.com License - https://fontawesome.com/license (Commercial License) Copyright 2024 Fonticons, Inc.--><path class="fa-secondary" opacity=".4" d="M123.7 388.4c7.4 7.6 16.9 13.2 27.7 15.8c10.7 2.6 24.6 .7 52.5-3.1l1.5-.2c7.9-1.1 11.8-1.6 15.6-1.4c6.8 .4 13.5 2.6 19.2 6.5c3.1 2.1 5.9 4.9 11.5 10.5l5.4 5.4c32.2 32.2 48.3 48.3 65.4 47.5c4.7-.2 9.3-1.3 13.7-3.2c15.7-6.9 22.9-28.5 37.3-71.7L440.1 194c17.5-52.5 29.3-87.8 29.3-111.8c0-12.5-3.2-21.9-10.4-29.1C347.1 164.9 235.4 276.6 123.7 388.4z"/><path class="fa-primary" d="M123.7 388.3L458.9 53.1C437.8 32 397.9 45.3 318 71.9L118.9 138.3c-44.4 14.8-66.6 22.2-73.4 38.5c-1.6 3.8-2.5 7.9-2.8 12C41.5 206.4 58 222.9 91.1 256l6 6c5.4 5.4 8.2 8.2 10.2 11.2c4.1 6 6.3 12.9 6.6 20.1c.1 3.7-.4 7.5-1.6 15.1c-4.2 27.8-6.3 41.7-3.8 52.4c2.4 10.6 7.7 20 15 27.5z"/></svg>