<svg xmlns="http://www.w3.org/2000/svg" viewBox="0 0 512 512"><!--!Font Awesome Pro 6.6.0 by @fontawesome - https://fontawesome.com License - https://fontawesome.com/license (Commercial License) Copyright 2024 Fonticons, Inc.--><path class="fa-secondary" opacity=".4" d="M44.6 333.4c-4.5 11.5-.7 24.3 9.2 30.3c4.3 2.7 12.2 3.5 27.8 5.1c8.8 .9 13.3 1.4 17 2.8c8.3 3.2 14.7 9.9 17.8 18.4c1.4 3.8 1.8 8.4 2.7 17.6c1.6 16.2 2.4 24.3 5 28.8c4.2 7.4 11.8 11.5 19.8 11.5c3.1 0 6.4-.6 9.5-2c4.9-2.1 10.6-8 22.2-20L256 342.8l-1.5-1.5c-60.2-.6-111.9-36.8-135-88.5l-3.2 3.2L63.8 310.4c-11.5 11.9-17.3 17.9-19.3 22.9zM256 342.8l80.5 83.3C348 438 353.7 444 358.6 446c3.1 1.3 6.3 2 9.5 2c8.1 0 15.6-4.2 19.8-11.5c2.6-4.5 3.4-12.6 5-28.8c.9-9.2 1.4-13.7 2.7-17.6c3.1-8.6 9.5-15.3 17.8-18.4c3.7-1.4 8.1-1.9 17-2.8c15.7-1.7 23.5-2.5 27.8-5.1c9.9-6.1 13.8-18.8 9.2-30.3c-2-5.1-7.8-11-19.3-22.9L395.6 256l-3.2-3.2c-23.1 51.7-74.8 87.9-135 88.5l-1.5 1.5z"/><path class="fa-primary" d="M256 341.3a149.3 149.3 0 1 0 0-298.7 149.3 149.3 0 1 0 0 298.7zM256 128c6.1 0 10.1 7.3 18.2 21.8l2.1 3.8c2.3 4.1 3.5 6.2 5.3 7.6s4 1.9 8.5 2.9l4.1 .9c15.7 3.6 23.6 5.3 25.5 11.4s-3.5 12.3-14.2 24.8l-2.8 3.2c-3 3.6-4.6 5.3-5.3 7.6s-.5 4.6 0 9.3l.4 4.3c1.6 16.7 2.4 25.1-2.5 28.8s-12.3 .3-27-6.5l-3.8-1.8c-4.2-1.9-6.3-2.9-8.5-2.9s-4.3 1-8.5 2.9l-3.8 1.8c-14.7 6.8-22.1 10.2-27 6.5s-4.1-12.1-2.5-28.8l.4-4.3c.5-4.8 .7-7.1 0-9.3s-2.2-4-5.3-7.6l-2.8-3.2c-10.7-12.5-16.1-18.8-14.2-24.8s9.7-7.8 25.5-11.4l4.1-.9c4.5-1 6.7-1.5 8.5-2.9s2.9-3.4 5.3-7.6l2.1-3.8c8.1-14.5 12.2-21.8 18.2-21.8z"/></svg>