<svg xmlns="http://www.w3.org/2000/svg" viewBox="0 0 512 512"><!--!Font Awesome Pro 6.6.0 by @fontawesome - https://fontawesome.com License - https://fontawesome.com/license (Commercial License) Copyright 2024 Fonticons, Inc.--><path class="fa-secondary" opacity=".4" d="M42.7 256a213.3 213.3 0 1 0 426.7 0A213.3 213.3 0 1 0 42.7 256zm128-32c0-17.7 9.6-32 21.3-32s21.3 14.3 21.3 32s-9.6 32-21.3 32s-21.3-14.3-21.3-32zM176 341.3c0-8.8 7.2-16 16-16l128 0c8.8 0 16 7.2 16 16s-7.2 16-16 16l-128 0c-8.8 0-16-7.2-16-16zM298.7 224c0-17.7 9.6-32 21.3-32s21.3 14.3 21.3 32s-9.6 32-21.3 32s-21.3-14.3-21.3-32z"/><path class="fa-primary" d="M176 341.3c0-8.8 7.2-16 16-16H320c8.8 0 16 7.2 16 16s-7.2 16-16 16H192c-8.8 0-16-7.2-16-16zM320 256c11.8 0 21.3-14.3 21.3-32s-9.6-32-21.3-32s-21.3 14.3-21.3 32s9.6 32 21.3 32zm-128 0c11.8 0 21.3-14.3 21.3-32s-9.6-32-21.3-32s-21.3 14.3-21.3 32s9.6 32 21.3 32z"/></svg>