<svg xmlns="http://www.w3.org/2000/svg" viewBox="0 0 512 512"><!--!Font Awesome Pro 6.6.0 by @fontawesome - https://fontawesome.com License - https://fontawesome.com/license (Commercial License) Copyright 2024 Fonticons, Inc.--><path class="fa-secondary" opacity=".4" d="M48 367.2c0 6.9 1 13.7 3.1 20.3c3 9.6 8.6 17.6 15.6 25.6c6.8 7.8 16 16.6 27.3 27.4l1 1c11.3 10.8 20.5 19.6 28.6 26.2c8.4 6.8 16.6 12 26.3 14.8c6.7 1.9 13.7 2.9 20.7 2.9s13.9-1 20.7-2.9c9.7-2.8 18-8 26.3-14.8c8.1-6.5 17.3-15.3 28.6-26.2L407.4 287.2c20.3-19.4 32.9-31.5 40.7-44.4c10.6-17.6 15.9-37.3 15.9-56.9s-5.3-39.3-15.9-56.9c-7.8-12.9-20.4-25-40.7-44.4l-1.7-1.6c3 3.1 4.6 7.1 4.6 11.2c0 4-1.5 8-4.4 11.1c-6.1 6.4-16.2 6.6-22.6 .5c23 22.1 32.2 31 37.5 39.8c15.1 25 15.1 55.8 0 80.8c-5.3 8.8-14.4 17.7-37.5 39.8L224.6 417.9c-11.9 11.4-20.1 19.3-27.1 24.8c-6.7 5.4-11.2 7.8-15.1 8.9c-7.7 2.2-15.9 2.2-23.6 0c-3.9-1.1-8.3-3.5-15.1-8.9c-6.9-5.6-15.1-13.4-27.1-24.8s-20.1-19.3-25.9-25.9c-5.7-6.5-8-10.6-9.1-14.1c-2.2-7-2.2-14.5 0-21.5c1.1-3.5 3.4-7.6 9.1-14.1c5.8-6.6 14-14.5 25.9-25.9L273 166.8c10.5-10 13-12.2 15.2-13.1c5-2.3 11-2.3 16 0c2.1 1 4.7 3.1 15.2 13.1c-6.3-6-6.6-16-.7-22.4c.1-.1 .1-.1 .2-.2c.1-.1 .1-.1 .2-.2c.3-.3 .7-.6 1-.9c.4-.4 .8-.7 1.2-1c.9-.6 1.8-1.1 2.7-1.5c.6-.2 .9-.4 1.3-.5c.6-.2 1-.3 1.5-.4c1-.2 2-.4 3-.4c4.1-.1 8.2 1.2 10.7 3.5l-.6-.6c-7.9-7.6-14.5-14-22.2-17.5c-13.5-6.2-29.3-6.2-42.8 0c-7.7 3.5-14.3 9.9-22.2 17.5L94.1 293.9c-11.3 10.8-20.5 19.6-27.3 27.4c-7.1 8-12.6 16-15.6 25.6C49 353.5 48 360.4 48 367.2z"/><path class="fa-primary" d="M239.9 41.7c36.3-20 80.9-20 117.1 0c13.4 7.4 26 19.4 46.3 38.9c.7 .6 1.3 1.3 2 1.9c6.4 6.1 6.6 16.2 .5 22.6s-16.2 6.6-22.6 .5c-23-22-32.4-30.8-41.7-36C314.9 55 282 55 255.4 69.7c-9.3 5.1-18.7 13.9-41.7 36L85.9 228c-6.4 6.1-16.5 5.9-22.6-.5s-5.9-16.5 .5-22.6L191.5 82.6c.7-.6 1.3-1.3 2-1.9c20.4-19.5 32.9-31.5 46.3-38.9zm79 102.5c6.1-6.4 16.2-6.6 22.6-.5c.6 .6 1.2 1.1 1.7 1.7c7.8 7.5 14.6 13.9 18.3 21.4c6.7 13.4 6.7 29.1 0 42.5c-3.8 7.5-10.5 13.9-18.3 21.4c-.6 .5-1.1 1.1-1.7 1.7L184 383.1c-6.4 6.1-16.5 5.9-22.6-.5s-5.9-16.5 .5-22.6L319.3 209.3c10.6-10.1 12.7-12.4 13.6-14.3c2.2-4.4 2.2-9.4 0-13.8c-.9-1.9-3.1-4.2-13.6-14.3c-6.4-6.1-6.6-16.2-.5-22.6z"/></svg>