<svg xmlns="http://www.w3.org/2000/svg" viewBox="0 0 512 512"><!--!Font Awesome Pro 6.6.0 by @fontawesome - https://fontawesome.com License - https://fontawesome.com/license (Commercial License) Copyright 2024 Fonticons, Inc.--><path class="fa-secondary" opacity=".4" d="M69.3 256c0 67.7 54.9 122.7 122.7 122.7l149.3 0c8.8 0 16-7.2 16-16s-7.2-16-16-16l-149.3 0c-50.1 0-90.7-40.6-90.7-90.7s40.6-90.7 90.7-90.7l196 0 16-16c-5.3-5.3-10.7-10.7-16-16l-196 0c-67.7 0-122.7 54.9-122.7 122.7z"/><path class="fa-primary" d="M351.4 74c6.2-6.2 16.4-6.2 22.6 0l64 64c6.2 6.2 6.2 16.4 0 22.6l-64 64c-6.2 6.2-16.4 6.2-22.6 0s-6.2-16.4 0-22.6L404 149.3 351.4 96.6c-6.2-6.2-6.2-16.4 0-22.6z"/></svg>