<svg xmlns="http://www.w3.org/2000/svg" viewBox="0 0 512 512"><!--!Font Awesome Pro 6.6.0 by @fontawesome - https://fontawesome.com License - https://fontawesome.com/license (Commercial License) Copyright 2024 Fonticons, Inc.--><path class="fa-secondary" opacity=".4" d="M42.7 256c0-26.4 0-49.3 .6-69.3l425.5 0c.6 20 .6 42.9 .6 69.3c0 100.6 0 150.8-31.2 182.1s-81.5 31.2-182.1 31.2s-150.8 0-182.1-31.2S42.7 356.6 42.7 256zm80 42.7c0 8.8 7.2 16 16 16l170.7 0c8.8 0 16-7.2 16-16s-7.2-16-16-16l-170.7 0c-8.8 0-16 7.2-16 16zm0 74.7c0 8.8 7.2 16 16 16l117.3 0c8.8 0 16-7.2 16-16s-7.2-16-16-16l-117.3 0c-8.8 0-16 7.2-16 16z"/><path class="fa-primary" d="M352.9 44.5c-25.8-1.9-57.5-1.9-96.9-1.9h-2.1l-74.7 112H279.4L352.9 44.5zM215.4 42.8c-74.1 .6-114.7 4.4-141.5 31.1C55.6 92.2 48 117 44.9 154.7h95.9L215.4 42.8zM438.1 73.9c18.3 18.3 25.9 43.1 29 80.8H317.9L388.2 49.2c21.2 4.5 37.1 12 49.9 24.8zM122.7 373.3c0-8.8 7.2-16 16-16H256c8.8 0 16 7.2 16 16s-7.2 16-16 16H138.7c-8.8 0-16-7.2-16-16zm16-90.7c-8.8 0-16 7.2-16 16s7.2 16 16 16H309.3c8.8 0 16-7.2 16-16s-7.2-16-16-16H138.7z"/></svg>