<svg xmlns="http://www.w3.org/2000/svg" viewBox="0 0 512 512"><!--!Font Awesome Pro 6.6.0 by @fontawesome - https://fontawesome.com License - https://fontawesome.com/license (Commercial License) Copyright 2024 Fonticons, Inc.--><path d="M305.5 53.4c-27-3.2-52.7 12.7-62 38.3c-2.1 5.8-2.8 12-3.2 18.5c-.3 4.9-.3 10.8-.3 17.7l0 9.7c0 .1 0 .2 0 .3V310.1c-18.1-17-42.5-27.4-69.3-27.4c-56 0-101.3 45.4-101.3 101.3s45.4 101.3 101.3 101.3S272 440 272 384V196.5c2.2 1.2 4.7 2.4 7.3 3.7l57.8 28.9c8.9 4.5 16.2 8.1 22.1 10.7c6 2.6 11.9 4.7 18 5.5c27 3.2 52.7-12.7 62-38.3c2.1-5.8 2.8-12 3.2-18.5c.3-6.5 .3-14.6 .3-24.6l0-1.8c0-7.4 0-13.2-1-18.7c-2.7-14.2-10.5-26.8-22-35.6c-4.5-3.4-9.6-6-16.3-9.3L345.6 69.6c-8.9-4.5-16.2-8.1-22.1-10.7c-6-2.6-11.9-4.7-18-5.5z"/></svg>