<svg xmlns="http://www.w3.org/2000/svg" viewBox="0 0 512 512"><!--!Font Awesome Pro 6.6.0 by @fontawesome - https://fontawesome.com License - https://fontawesome.com/license (Commercial License) Copyright 2024 Fonticons, Inc.--><path class="fa-secondary" opacity=".4" d="M42.7 213.3c0 8.4 0 33.2 0 42.7l0 .4c0 80.2 0 120.3 25 145.2c25 25 65.2 25 145.7 25l85.3 0c22.5 0 41.9 0 58.7-.5l0-37.1c-10.5-1.2-20.6-5.8-28.6-13.8c-9.4-9.4-14.1-21.6-14.1-33.9c0-12.3 4.7-24.6 14.1-34l42.7-42.7c18.7-18.7 49.1-18.7 67.9 0l29.9 29.9c.1-11.7 .1-24.6 .1-38.7c0-9.4 0-34.3 0-42.7l-426.7 0zm69.3 128c0-8.8 7.2-16 16-16l85.3 0c8.8 0 16 7.2 16 16s-7.2 16-16 16l-85.3 0c-8.8 0-16-7.2-16-16zm138.7 0c0-8.8 7.2-16 16-16l32 0c8.8 0 15.9 7.1 16 16c-.1 8.9-7.2 16-16 16l-32 0c-8.8 0-16-7.2-16-16z"/><path class="fa-primary" d="M394 287.4c6.2-6.2 16.4-6.2 22.6 0L459.3 330c6.2 6.2 6.2 16.4 0 22.6s-16.4 6.2-22.6 0l-15.4-15.4 0 89.4c0 8.8-7.2 16-16 16s-16-7.2-16-16l0-89.4L374 352.6c-6.2 6.2-16.4 6.2-22.6 0s-6.2-16.4 0-22.6L394 287.4zm-127.4 38c-8.8 0-16 7.2-16 16s7.2 16 16 16h32c8.8 0 16-7.2 16-16s-7.2-16-16-16h-32zm-138.7 0c-8.8 0-16 7.2-16 16s7.2 16 16 16h85.3c8.8 0 16-7.2 16-16s-7.2-16-16-16H128zm85.2-240h85.6c80.7 0 121 0 146 23.8c18 17.1 23.1 41.8 24.5 82.9v21.3H42.7V192c1.4-41.1 6.5-65.7 24.5-82.9c25.1-23.8 65.4-23.8 146-23.8z"/></svg>