<svg xmlns="http://www.w3.org/2000/svg" viewBox="0 0 512 512"><!--!Font Awesome Pro 6.5.2 by @fontawesome - https://fontawesome.com License - https://fontawesome.com/license (Commercial License) Copyright 2024 Fonticons, Inc.--><path class="fa-secondary" opacity=".4" d="M83.8 64.7c0 5.5 2.1 10.9 6.2 15.1L391.8 381.4l2 1.8c8.9 6.9 21.6 5.7 29.1-2.8c3.6-4 5.3-9.1 5.3-14.1c0-5.5-2.1-10.9-6.2-15.1l-32.1-32.1 4-5.2c3.6-4.9 6.9-10 10-15.3c65.7-113.8-16.4-256-147.8-256c-38.4-.1-75.8 12.9-105.9 36.8L120.2 49.6l-2-1.8c-8.9-6.9-21.6-5.7-29.1 2.8c-3.6 4-5.3 9.1-5.3 14.1zm127.5 76c13-8 28.3-12.6 44.7-12.6l2.4 0c65.7 1.8 104.7 74 70.3 130l-32-32c.4-1.1 .7-2.3 .9-3.4c7.2-32.1-23-59.9-54.4-50l-32-32z"/><path class="fa-primary" d="M101.1 360A212.8 212.8 0 0 0 256 426.7a212.5 212.5 0 0 0 102.3-26.1l6.4-3.7 16.4 16.4a36.3 36.3 0 0 0 34.6 9.5c-2.6 3.1-5.4 6-8.4 8.5c-10.2 8.7-23.7 15.6-38.6 21c-29.9 10.8-69.8 17-112.8 17s-82.9-6.3-112.9-17.1c-14.8-5.3-28.4-12.2-38.6-20.9c-10.1-8.7-19.2-21.2-19.2-37.2c0-14.1 7-25.5 15.8-34zM256 128c-16.4 0-31.7 4.6-44.7 12.6l32 32c31.3-9.8 61.5 18 54.4 50a38.4 38.4 0 0 1 -.9 3.4l32 32c34.4-56-4.7-128.2-70.3-130l-2.4 0zm-152.1 8 67.4 67.4a85.3 85.3 0 0 0 94.7 94.7l67.4 67.4c-117.1 59.6-254.8-29.8-247.9-161a170.8 170.8 0 0 1 18.4-68.5h0z"/></svg>