<svg xmlns="http://www.w3.org/2000/svg" viewBox="0 0 512 512"><!--!Font Awesome Pro 6.6.0 by @fontawesome - https://fontawesome.com License - https://fontawesome.com/license (Commercial License) Copyright 2024 Fonticons, Inc.--><path class="fa-secondary" opacity=".4" d="M26.7 149.3c0-8.8 7.2-16 16-16l170.7 0c8.8 0 16 7.2 16 16s-7.2 16-16 16l-170.7 0c-8.8 0-16-7.2-16-16zm0 106.7c0-8.8 7.2-16 16-16l128 0c8.8 0 16 7.2 16 16s-7.2 16-16 16l-128 0c-8.8 0-16-7.2-16-16zm0 106.7c0-8.8 7.2-16 16-16l170.7 0c8.8 0 16 7.2 16 16s-7.2 16-16 16l-170.7 0c-8.8 0-16-7.2-16-16z"/><path class="fa-primary" d="M362.7 362.7a106.7 106.7 0 1 0 0-213.3 106.7 106.7 0 1 0 0 213.3zm16-149.3l0 33.4 17.4 20.1c5.8 6.7 5.1 16.8-1.6 22.6s-16.8 5.1-22.6-1.6l-21.3-24.6c-2.5-2.9-3.9-6.6-3.9-10.5l0-39.4c0-8.8 7.2-16 16-16s16 7.2 16 16z"/></svg>