<svg xmlns="http://www.w3.org/2000/svg" viewBox="0 0 512 512"><!--!Font Awesome Pro 6.6.0 by @fontawesome - https://fontawesome.com License - https://fontawesome.com/license (Commercial License) Copyright 2024 Fonticons, Inc.--><path class="fa-secondary" opacity=".4" d="M469.3 256A213.3 213.3 0 1 1 42.7 256a213.3 213.3 0 1 1 426.7 0zm-314.7 0c0 57 49.2 101.3 107.4 101.3c15.1 0 29.5-2.9 42.6-8.3c8.2-3.3 12.1-12.7 8.8-20.9s-12.7-12.1-20.9-8.8c-9.3 3.8-19.6 5.9-30.5 5.9c-42.7 0-75.4-32.1-75.4-69.3s32.7-69.3 75.4-69.3c10.9 0 21.2 2.1 30.5 5.9c8.2 3.3 17.5-.6 20.9-8.8s-.6-17.5-8.8-20.9c-13.1-5.3-27.5-8.3-42.6-8.3c-58.3 0-107.4 44.3-107.4 101.3z"/><path class="fa-primary" d="M262.1 186.7c-42.7 0-75.4 32.1-75.4 69.3s32.7 69.3 75.4 69.3c10.9 0 21.2-2.1 30.5-5.9c8.2-3.3 17.5 .6 20.9 8.8s-.6 17.5-8.8 20.9c-13.1 5.3-27.5 8.3-42.6 8.3c-58.3 0-107.4-44.3-107.4-101.3s49.2-101.3 107.4-101.3c15.1 0 29.5 2.9 42.6 8.3c8.2 3.3 12.1 12.7 8.8 20.9s-12.7 12.1-20.9 8.8c-9.3-3.8-19.6-5.9-30.5-5.9z"/></svg>