<svg xmlns="http://www.w3.org/2000/svg" viewBox="0 0 512 512"><!--!Font Awesome Pro 6.6.0 by @fontawesome - https://fontawesome.com License - https://fontawesome.com/license (Commercial License) Copyright 2024 Fonticons, Inc.--><path class="fa-secondary" opacity=".4" d="M48 128c0-8.8 7.2-16 16-16l384 0c8.8 0 16 7.2 16 16s-7.2 16-16 16L64 144c-8.8 0-16-7.2-16-16zm0 85.3c0-8.8 7.2-16 16-16l384 0c8.8 0 16 7.2 16 16s-7.2 16-16 16l-384 0c-8.8 0-16-7.2-16-16zm0 85.3c0-8.8 7.2-16 16-16l170.7 0c8.8 0 16 7.2 16 16s-7.2 16-16 16L64 314.7c-8.8 0-16-7.2-16-16zM48 384c0-8.8 7.2-16 16-16l170.7 0c8.8 0 16 7.2 16 16s-7.2 16-16 16L64 400c-8.8 0-16-7.2-16-16z"/><path class="fa-primary" d="M402.7 301.2c35.3 20.4 52.9 30.6 55.5 45.3c.6 3.7 .6 7.4 0 11.1c-2.6 14.7-20.2 24.9-55.5 45.3s-52.9 30.6-66.9 25.5c-3.5-1.3-6.8-3.2-9.6-5.6c-11.4-9.6-11.4-30-11.4-70.7s0-61.1 11.4-70.7c2.9-2.4 6.1-4.3 9.6-5.6c14-5.1 31.7 5.1 66.9 25.5z"/></svg>