<svg xmlns="http://www.w3.org/2000/svg" viewBox="0 0 512 512"><!--!Font Awesome Pro 6.6.0 by @fontawesome - https://fontawesome.com License - https://fontawesome.com/license (Commercial License) Copyright 2024 Fonticons, Inc.--><path class="fa-secondary" opacity=".4" d="M42.7 249.4l0 .5 0 21.1c0 49.2 0 73.8 8 93.2c10.7 25.9 31.3 46.4 57.2 57.2c14 5.8 30.6 7.4 57.1 7.9c18 .3 27 .5 34.1 4.6s11.6 11.7 20.5 26.7l11.5 19.3c5.1 8.6 14 12.9 23 12.9s17.9-4.3 23-12.9l11.5-19.3c8.9-15 13.3-22.5 20.5-26.7s16.1-4.3 34.1-4.6c26.5-.5 43.2-2.1 57.1-7.9c25.9-10.7 46.5-31.3 57.2-57.2c3.9-9.5 6-20.3 7-34.6c.2-3 .4-5.5 .4-7.5c0-3-.4-5.1-1.6-6.9c-2-3-5.9-4.3-13.6-6.9c-32.2-10.8-107-38.3-148.7-73.6c-47.1-39.8-89.2-120.8-104.3-151.8c-3-6.2-4.5-9.3-7.1-10.9s-6-1.6-12.6-1.5c-43.4 .5-63.1 2.9-83.6 15.5C78.9 94.6 67 106.6 58.2 120.8c-15.5 25.3-15.6 59.8-15.6 128.6z"/><path class="fa-primary" d="M317.3 5.1c7.2 6.7 7.1 17.6-.2 24.3L293.6 51c20.5 .2 40.1 .7 57.9 1.8c15.3 1 29.6 2.4 42 4.7c12.2 2.3 24 5.6 33.3 10.8c17.4 9.8 32 23.2 42.6 39.2c10.3 15.4 14.8 32.8 16.9 53.8c2.1 20.5 2.1 46.2 2.1 78.7l0 .9c0 9.5-8.3 17.2-18.4 17.2s-18.4-7.7-18.4-17.2c0-33.6 0-57.6-2-76.3c-1.9-18.4-5.5-29.9-11.6-39c-7.6-11.4-18-21-30.4-27.9c-4-2.2-10.9-4.6-21.4-6.5C376 89.3 363.4 87.9 349 87c-16.7-1.1-35.3-1.5-55.1-1.7l23.2 21.3c7.2 6.7 7.3 17.5 .2 24.3s-18.8 6.8-26.1 .2L235.9 80.2c-3.5-3.2-5.5-7.6-5.5-12.2s2-9 5.5-12.2L291.2 5c7.2-6.7 18.9-6.6 26.1 .2z"/></svg>