<svg xmlns="http://www.w3.org/2000/svg" viewBox="0 0 512 512"><!--!Font Awesome Pro 6.6.0 by @fontawesome - https://fontawesome.com License - https://fontawesome.com/license (Commercial License) Copyright 2024 Fonticons, Inc.--><path class="fa-secondary" opacity=".4" d="M42.7 256c0 53.2 19.4 101.8 51.6 139.1L196 293.3l-89.4 0c-8.8 0-16-7.2-16-16s7.2-16 16-16l128 0c8.8 0 16 7.2 16 16l0 128c0 8.8-7.2 16-16 16s-16-7.2-16-16l0-89.4L116.9 417.7c37.4 32.2 86 51.6 139.1 51.6c117.8 0 213.3-95.5 213.3-213.3s-95.5-213.3-213.3-213.3S42.7 138.2 42.7 256z"/><path class="fa-primary" d="M90.7 277.3c0-8.8 7.2-16 16-16l128 0c8.8 0 16 7.2 16 16l0 128c0 8.8-7.2 16-16 16s-16-7.2-16-16l0-89.4L75.3 459.3c-6.2 6.2-16.4 6.2-22.6 0s-6.2-16.4 0-22.6L196 293.3l-89.4 0c-8.8 0-16-7.2-16-16z"/></svg>