<svg xmlns="http://www.w3.org/2000/svg" viewBox="0 0 512 512"><!--!Font Awesome Pro 6.5.2 by @fontawesome - https://fontawesome.com License - https://fontawesome.com/license (Commercial License) Copyright 2024 Fonticons, Inc.--><path class="fa-secondary" opacity=".4" d="M85.5 354.9c-2.7 5.1-2.4 11.3 .7 16.2c35.8 57.9 99.2 93.1 167.3 92.9c102.6 0 187-78.1 195.2-177.8l20.7 0c6.5 0 12.3-3.9 14.8-9.9s1.1-12.9-3.6-17.5l-36-35.5c-3.1-3.1-7.2-4.6-11.2-4.6s-8.1 1.5-11.2 4.6l-36 35.5c-4.6 4.6-6 11.5-3.6 17.5s8.3 9.9 14.8 9.9l19.2 0C408.4 367.9 338.7 432 253.5 432c-57 .2-110-29.3-140.1-77.7c-2.9-5-8.4-8-14.1-7.9s-11.1 3.4-13.8 8.5z"/><path class="fa-primary" d="M257.7 48C155.4 48 71.4 126.1 63.2 225.8H42.7a16 16 0 0 0 -11.3 27.4l35.8 35.5a16 16 0 0 0 22.5 0l35.8-35.5a16 16 0 0 0 -11.3-27.4H95.3C103.4 144 172.9 80 257.7 80a163.4 163.4 0 0 1 139.5 77.7 16 16 0 1 0 27.2-16.8A195.4 195.4 0 0 0 257.7 48"/></svg>