<svg xmlns="http://www.w3.org/2000/svg" viewBox="0 0 512 512"><!--!Font Awesome Pro 6.6.0 by @fontawesome - https://fontawesome.com License - https://fontawesome.com/license (Commercial License) Copyright 2024 Fonticons, Inc.--><path class="fa-secondary" opacity=".4" d="M42.7 106.7a64 64 0 1 0 128 0 64 64 0 1 0 -128 0zM341.3 405.3a64 64 0 1 0 128 0 64 64 0 1 0 -128 0z"/><path class="fa-primary" d="M218.7 106.7c0-8.8 7.2-16 16-16l109.5 0c58.7 0 81 76.7 31.5 108.2L153.5 340.2c-22.5 14.3-12.4 49.2 14.3 49.2l70.9 0-4.7-4.7c-6.2-6.2-6.2-16.4 0-22.6s16.4-6.2 22.6 0l32 32c6.2 6.2 6.2 16.4 0 22.6l-32 32c-6.2 6.2-16.4 6.2-22.6 0s-6.2-16.4 0-22.6l4.7-4.7-70.9 0c-58.7 0-81-76.7-31.5-108.2L358.5 171.8c22.5-14.3 12.4-49.2-14.3-49.2l-109.5 0c-8.8 0-16-7.2-16-16z"/></svg>