<svg xmlns="http://www.w3.org/2000/svg" viewBox="0 0 512 512"><!--!Font Awesome Pro 6.5.2 by @fontawesome - https://fontawesome.com License - https://fontawesome.com/license (Commercial License) Copyright 2024 Fonticons, Inc.--><path class="fa-secondary" opacity=".4" d="M112 401c0-17.7 .1-32.6 1.7-44.8c1.8-13.3 5.8-25.3 15.4-35c9.7-9.7 21.8-13.7 35.2-15.5c6.3-.9 13.5-1.3 21.5-1.5s16.8-.2 26.3-.2c29.2 0 58.4 0 87.6 0c19.2 0 35.2 0 47.8 1.7c13.4 1.8 25.5 5.8 35.2 15.5c9.7 9.7 13.7 21.8 15.5 35.2c1.6 11.9 1.7 26.9 1.7 44.6l-288 0z"/><path class="fa-primary" d="M61.4 125.4c-18.8 18.7-18.8 48.9-18.8 109.2c0 80.4 0 120.7 25 145.7C78.7 391.4 92.8 397.6 112 401c0-17.7 .1-32.7 1.7-44.6c1.8-13.4 5.8-25.5 15.5-35.2c9.7-9.7 21.8-13.7 35.2-15.5c12.7-1.7 28.7-1.7 47.9-1.7l87.6 0c19.2 0 35.2 0 47.8 1.7c13.4 1.8 25.5 5.8 35.2 15.5c9.7 9.7 13.7 21.8 15.5 35.2c1.6 11.9 1.7 26.9 1.7 44.6c19.2-3.4 33.3-9.6 44.3-20.7c25-25 25-65.2 25-145.7c0-60.3 0-90.5-18.8-109.2c-18.7-18.8-48.9-18.8-109.2-18.8l-170.7 0c-60.3 0-90.5 0-109.2 18.8zM112 245.3c0-8.8 7.2-16 16-16l256 0c8.8 0 16 7.2 16 16s-7.2 16-16 16l-256 0c-8.8 0-16-7.2-16-16zM384 176c8.8 0 16 7.2 16 16s-7.2 16-16 16l-256 0c-8.8 0-16-7.2-16-16s7.2-16 16-16z"/></svg>