<svg xmlns="http://www.w3.org/2000/svg" viewBox="0 0 512 512"><!--!Font Awesome Pro 6.6.0 by @fontawesome - https://fontawesome.com License - https://fontawesome.com/license (Commercial License) Copyright 2024 Fonticons, Inc.--><path class="fa-secondary" opacity=".4" d="M69.3 277.3c0 47.8 18.2 95.5 54.7 132c72.9 72.9 191.1 72.9 264 0c36.5-36.5 54.7-84.2 54.7-132c0-7.8-.5-15.6-1.5-23.3c-1.1-8.8-9.1-15-17.9-13.9s-15 9.1-13.9 17.9c5.7 45.8-9 93.6-44.1 128.7c-60.4 60.4-158.3 60.4-218.7 0s-60.4-158.3 0-218.7c45.7-45.7 112.9-56.8 169.1-33.3c8-8 16.1-16.1 24.1-24.1C313.6 97.3 284.8 90.7 256 90.7c-47.8 0-95.5 18.2-132 54.7s-54.7 84.2-54.7 132z"/><path class="fa-primary" d="M399.4 89.6c0-6.5-3.9-12.3-9.9-14.8s-12.9-1.1-17.4 3.5l-32.2 32.2-24.1 24.1-34.2 34.2c-4.6 4.6-5.9 11.5-3.5 17.4s8.3 9.9 14.8 9.9h90.5c8.8 0 16-7.2 16-16V89.6z"/></svg>