<svg xmlns="http://www.w3.org/2000/svg" viewBox="0 0 512 512"><!--!Font Awesome Pro 6.6.0 by @fontawesome - https://fontawesome.com License - https://fontawesome.com/license (Commercial License) Copyright 2024 Fonticons, Inc.--><path class="fa-secondary" opacity=".4" d="M42.7 256c0 100.6 0 150.9 31.2 182.1s81.5 31.2 182.1 31.2s150.9 0 182.1-31.2s31.2-81.5 31.2-182.1l0-.8c0-100.1-.1-150.2-31.2-181.3c-14.6-14.6-33.3-22.4-59.4-26.5l0 122.5c0 12.5-6.2 24.1-16.6 31.1l-54.5 36.3c-7.4 4.9-17.3 2.9-22.2-4.4s-2.9-17.3 4.4-22.2l54.5-36.3c1.5-1 2.4-2.7 2.4-4.4l0-125.8c-24.7-1.5-54.4-1.5-90.7-1.5c-100.6 0-150.8 0-182.1 31.2S42.7 155.4 42.7 256zm90.7 0c0-67.7 54.9-122.7 122.7-122.7c12.8 0 25.2 2 36.8 5.6c8.4 2.6 13.1 11.6 10.5 20.1s-11.6 13.1-20.1 10.5c-8.6-2.7-17.7-4.1-27.2-4.1c-50.1 0-90.7 40.6-90.7 90.7s40.6 90.7 90.7 90.7s90.7-40.6 90.7-90.7c0-8.8 7.2-16 16-16s16 7.2 16 16c0 67.7-54.9 122.7-122.7 122.7s-122.7-54.9-122.7-122.7zm64 0c0-8.8 7.2-16 16-16s16 7.2 16 16c0 14.7 11.9 26.7 26.7 26.7c8.8 0 16 7.2 16 16s-7.2 16-16 16c-32.4 0-58.7-26.3-58.7-58.7z"/><path class="fa-primary" d="M256 133.3c-67.7 0-122.7 54.9-122.7 122.7s54.9 122.7 122.7 122.7s122.7-54.9 122.7-122.7c0-8.8-7.2-16-16-16s-16 7.2-16 16c0 50.1-40.6 90.7-90.7 90.7s-90.7-40.6-90.7-90.7s40.6-90.7 90.7-90.7c9.5 0 18.6 1.5 27.2 4.1c8.4 2.6 17.4-2 20.1-10.5s-2-17.4-10.5-20.1c-11.6-3.7-24-5.6-36.8-5.6zM229.3 256c0-8.8-7.2-16-16-16s-16 7.2-16 16c0 32.4 26.3 58.7 58.7 58.7c8.8 0 16-7.2 16-16s-7.2-16-16-16c-14.7 0-26.7-11.9-26.7-26.7zm149.3-86.1V47.4l-32-3.3V169.9c0 1.8-.9 3.4-2.4 4.4l-54.5 36.3c-7.4 4.9-9.3 14.8-4.4 22.2s14.8 9.3 22.2 4.4L362 201c10.4-6.9 16.6-18.6 16.6-31.1z"/></svg>