<svg xmlns="http://www.w3.org/2000/svg" viewBox="0 0 512 512"><!--!Font Awesome Pro 6.5.2 by @fontawesome - https://fontawesome.com License - https://fontawesome.com/license (Commercial License) Copyright 2024 Fonticons, Inc.--><path class="fa-secondary" opacity=".4" d="M42.7 341.3c0-60.3 0-90.5 18.8-109.2c11.3-11.3 26.8-15.8 50.6-17.6c6.5-.4 13-.7 19.6-.9c3.2-.1 6.3-.1 9.5-.2c1 0 1.9 0 2.9 0c8.1-.1 16.8-.1 26.3-.1l.4 0 170.7 0c60.3 0 90.5 0 109.2 18.8c18.8 18.7 18.8 48.9 18.8 109.2s0 90.5-18.8 109.2c-18.7 18.7-48.8 18.8-108.8 18.8l-.4 0-170.7 0c-60.3 0-90.5 0-109.2-18.8c-18.7-18.7-18.8-48.8-18.8-108.9l0-.4zm170.7 0a42.7 42.7 0 1 0 85.3 0 42.7 42.7 0 1 0 -85.3 0z"/><path class="fa-primary" d="M256 384a42.7 42.7 0 1 0 0-85.3 42.7 42.7 0 0 0 0 85.3M144 170.7a112 112 0 0 1 220.5-28 16 16 0 0 0 31-8A144 144 0 0 0 112 170.7v43.8a502.8 502.8 0 0 1 32-1.1z"/></svg>