<svg xmlns="http://www.w3.org/2000/svg" viewBox="0 0 512 512"><!--!Font Awesome Pro 6.6.0 by @fontawesome - https://fontawesome.com License - https://fontawesome.com/license (Commercial License) Copyright 2024 Fonticons, Inc.--><path class="fa-secondary" opacity=".4" d="M87.7 138.8c-7.7 14.5 3.8 32.8 26.8 69.4l5.9 9.5c6.5 10.4 9.8 15.6 10.6 21.5s-.8 11.9-4.2 23.8l-3 10.9c-11.8 42-17.7 62.9-6.3 74.5s32.5 6.1 74.8-4.9l7.3-1.9c-20.4-16.5-30.4-25.8-28.8-36.6c1.7-12.1 16.8-18 47.1-29.9l7.8-3.1c8.6-3.4 12.9-5 16-8.2s4.7-7.5 8-16.1l2.9-7.9c11.3-30.4 17-45.6 29.1-47.5s22.6 10.7 43.7 35.8l5.4 6.5c6 7.2 9 10.7 13 12.8s8.7 2.3 17.9 2.8l8.4 .5c2.3 .1 4.5 .2 6.6 .4l.7-.6c32.1-25.8 49.2-39.4 49.2-54.4c0-.9-.1-1.9-.2-2.9c-2.3-16.1-22.5-24-62.8-39.8l-10.4-4.1c-11.5-4.5-17.2-6.7-21.4-11s-6.3-10-10.6-21.5l-3.9-10.5c-15.1-40.5-22.6-60.7-38.8-63.3s-30.2 14.2-58.2 47.8l-7.3 8.7c-8 9.5-12 14.3-17.4 17s-11.6 3-23.9 3.7l-11.3 .6c-43.5 2.4-65.2 3.5-72.9 18.1z"/><path class="fa-primary" d="M325.4 228c-21-25.2-31.6-37.8-43.7-35.8s-17.8 17.1-29.1 47.5l-2.9 7.9c-3.2 8.6-4.8 12.9-8 16.1s-7.4 4.9-16 8.2l-7.8 3.1c-30.2 11.8-45.4 17.8-47.1 29.9s11.1 22.4 36.7 42.9l6.6 5.3c7.3 5.8 10.9 8.8 13 12.7s2.4 8.6 3.1 17.8l.6 8.4c2.4 32.5 3.5 48.8 14.6 54.3s24.6-3.3 51.8-21l7-4.6c7.7-5 11.6-7.5 16-8.2s8.9 .5 17.9 2.8l8.2 2.1c31.7 8.2 47.5 12.4 56.1 3.7s4.1-24.4-4.7-55.9l-2.3-8.1c-2.5-8.9-3.8-13.4-3.1-17.8s3.1-8.3 8-16.1l4.5-7.1c17.2-27.4 25.8-41.1 20.1-52s-22.1-11.8-54.7-13.6l-8.4-.5c-9.3-.5-13.9-.8-17.9-2.8s-7-5.6-13-12.8l-5.4-6.5z"/></svg>