<svg xmlns="http://www.w3.org/2000/svg" viewBox="0 0 512 512"><!--!Font Awesome Pro 6.6.0 by @fontawesome - https://fontawesome.com License - https://fontawesome.com/license (Commercial License) Copyright 2024 Fonticons, Inc.--><path class="fa-secondary" opacity=".4" d="M44.5 58.7c-2.9 8.3 1.5 17.5 9.8 20.4l5.6 2c14.2 5 23.6 8.3 30.5 11.7c6.5 3.2 9.3 5.7 11.2 8.5c1.9 2.8 3.4 6.7 4.3 14.4c.9 8.1 .9 18.7 .9 34.5l0 55.5c0 62.8 1.3 83.5 19.8 103c18.5 19.5 48.1 19.5 107.4 19.5l.3 0 113.1 0c33.3 0 50 0 61.7-9.6s15.1-25.9 21.9-58.5l10.7-51.7c4.3-21.4 7.3-36.6 7.3-48c0-8.4-1.6-14.7-5.7-20C433.8 128 401.4 128 365.5 128l-226.9 0c-.1-5.8-.4-11-.9-15.8c-1.1-10.6-3.6-20.2-9.6-29.1c-6.1-8.9-14.1-14.6-23.5-19.2c-8.8-4.3-20-8.2-33.1-12.9l-6.4-2.3c-8.3-2.9-17.5 1.5-20.4 9.8zm142.4 136c-1.5-8.7 4.4-17 13.1-18.4s17 4.4 18.4 13.1l11.3 66.5c1.5 8.7-4.4 17-13.1 18.4s-17-4.4-18.4-13.1l-11.3-66.5zm117.3 61.2l11.3-66.5c1.5-8.7 9.7-14.6 18.4-13.1s14.6 9.7 13.1 18.4l-11.3 66.5c-1.5 8.7-9.7 14.6-18.4 13.1s-14.6-9.7-13.1-18.4z"/><path class="fa-primary" d="M160 448a32 32 0 1 1 0-64 32 32 0 1 1 0 64zm192 0a32 32 0 1 1 0-64 32 32 0 1 1 0 64zM200 176.2c8.7-1.5 17 4.4 18.4 13.1l11.3 66.5c1.5 8.7-4.4 17-13.1 18.4s-17-4.4-18.4-13.1l-11.3-66.5c-1.5-8.7 4.4-17 13.1-18.4zm115.5 13.1c1.5-8.7 9.7-14.6 18.4-13.1s14.6 9.7 13.1 18.4l-11.3 66.5c-1.5 8.7-9.7 14.6-18.4 13.1s-14.6-9.7-13.1-18.4l11.3-66.5z"/></svg>