<svg xmlns="http://www.w3.org/2000/svg" viewBox="0 0 512 512"><!--!Font Awesome Pro 6.6.0 by @fontawesome - https://fontawesome.com License - https://fontawesome.com/license (Commercial License) Copyright 2024 Fonticons, Inc.--><path class="fa-secondary" opacity=".4" d="M42.7 256c0 100.6 0 150.9 31.2 182.1s81.5 31.2 182.1 31.2s150.9 0 182.1-31.2s31.2-81.5 31.2-182.1l0-.8c0-54.3 0-93.8-5-123.7c-9.7 23-32.5 39.1-59 39.1c-35.3 0-64-28.7-64-64c0-26.5 16.1-49.3 39.1-59c-30-5-69.8-5-124.4-5c-100.6 0-150.8 0-182.1 31.2S42.7 155.4 42.7 256z"/><path class="fa-primary" d="M341.3 106.7a64 64 0 1 1 128 0 64 64 0 1 1 -128 0z"/></svg>