<svg xmlns="http://www.w3.org/2000/svg" viewBox="0 0 512 512"><!--!Font Awesome Pro 6.6.0 by @fontawesome - https://fontawesome.com License - https://fontawesome.com/license (Commercial License) Copyright 2024 Fonticons, Inc.--><path class="fa-secondary" opacity=".4" d="M106.7 213.3c0-45.9 20.7-87 53.3-114.4l6.4 5.5c11.7 10.6 35.7 39.6 38.5 70.7c2.6 29.1 21.8 52.7 51.2 53.1c11.3 .1 22.7-8 22.6-19.3c0-3.5-.6-7.1-1.5-10.3c-1.3-4.6-1.4-9.8 1.2-15.2c9.1-18.8 27-23.8 41.2-34c6.3-4.5 12-9.3 14.6-13.1c6.9-10.5 13.5-32.3 10.2-43.4c37 27.2 61 71 61 120.4c0 6.3-.4 12.5-1.1 18.5c-4.6 15.8-11.6 46.8-62.8 47.4c0 0-49.2 0-63.9 27.8c-11.2 21.2-5.5 44-.7 54.2c-6.8 .9-13.7 1.4-20.7 1.4c-82.5 0-149.3-66.9-149.3-149.3z"/><path class="fa-primary" d="M204.8 175.2c-2.8-31.1-26.8-60.1-38.5-70.7L160 99c26-21.8 59.5-35 96-35c33.1 0 63.6 10.7 88.3 28.9c3.5 10.6-3.2 32.8-10.2 43.4c-2.5 3.8-8.3 8.6-14.6 13.1c-14.2 10.2-32.1 15.2-41.2 34c-2.6 5.4-2.5 10.6-1.2 15.2c.9 3.3 1.5 6.8 1.5 10.3c0 11.3-11.4 19.4-22.6 19.3c-29.3-.3-48.5-24-51.2-53.1zm72.6 131.8c14.8-27.8 63.9-27.8 63.9-27.8c51.2-.5 58.2-31.7 62.8-47.4c-8.3 66.9-60.8 120.1-127.5 129.4c-4.8-10.1-10.5-33 .7-54.2zM384.1 32c5.9-6.6 16-7.1 22.6-1.3c48.3 43.2 78.7 106 78.7 175.9c0 122.7-93.6 223.5-213.3 234.9l0 11.7 26.7 0c8.8 0 16 7.2 16 16s-7.2 16-16 16l-85.3 0c-8.8 0-16-7.2-16-16s7.2-16 16-16l26.7 0 0-10.8c-66.1-2.6-125.3-32.4-166.6-78.5c-5.9-6.6-5.3-16.7 1.3-22.6s16.7-5.3 22.6 1.3c37.4 41.8 91.6 68 152.1 68c112.7 0 204-91.3 204-204c0-60.4-26.2-114.7-68-152.1c-6.6-5.9-7.1-16-1.3-22.6z"/></svg>