<svg xmlns="http://www.w3.org/2000/svg" viewBox="0 0 512 512"><!--!Font Awesome Pro 6.6.0 by @fontawesome - https://fontawesome.com License - https://fontawesome.com/license (Commercial License) Copyright 2024 Fonticons, Inc.--><path class="fa-secondary" opacity=".4" d="M85.3 216.4c0 95.2 54.5 206.3 139.5 246c9.9 4.6 20.6 6.9 31.2 6.9s21.3-2.3 31.2-6.9c85-39.7 139.5-150.8 139.5-246c0-95.9-76.4-173.7-170.7-173.7s-170.7 77.8-170.7 173.7zm85.3-14.6c0-51.8 46.9-71.1 85.3-31.1c38.4-40 85.3-20.7 85.3 31.1c0 30.5-33.1 62.6-58.1 82.6c-11.9 9.5-17.9 14.3-27.2 14.3s-15.3-4.8-27.2-14.3c-25-19.9-58.1-52.1-58.1-82.6z"/><path class="fa-primary" d="M228.8 284.4c-25-19.9-58.1-52.1-58.1-82.6c0-51.8 46.9-71.1 85.3-31.1c38.4-40 85.3-20.7 85.3 31.1c0 30.5-33.1 62.6-58.1 82.6c-11.9 9.5-17.9 14.3-27.2 14.3s-15.3-4.8-27.2-14.3z"/></svg>