<svg xmlns="http://www.w3.org/2000/svg" viewBox="0 0 512 512"><!--!Font Awesome Pro 6.6.0 by @fontawesome - https://fontawesome.com License - https://fontawesome.com/license (Commercial License) Copyright 2024 Fonticons, Inc.--><path class="fa-secondary" opacity=".4" d="M42.7 256c0 34.1 8 66.4 22.3 95c3.8 7.6 5 16.3 2.9 24.5L55.1 423c-5.5 20.6 13.3 39.5 34 34l47.5-12.7c8.2-2.2 16.9-.9 24.5 2.9c28.6 14.2 60.9 22.3 95 22.3c117.8 0 213.3-95.5 213.3-213.3s-95.5-213.3-213.3-213.3S42.7 138.2 42.7 256zm101.9-46.9c0-9.7 7.9-17.6 17.6-17.6s17.6 7.9 17.6 17.6l0 93.9c0 9.7-7.9 17.6-17.6 17.6s-17.6-7.9-17.6-17.6l0-93.9zm93.9-46.9c0-9.7 7.9-17.6 17.6-17.6s17.6 7.9 17.6 17.6l0 187.7c0 9.7-7.9 17.6-17.6 17.6s-17.6-7.9-17.6-17.6l0-187.7zm93.9 46.9c0-9.7 7.9-17.6 17.6-17.6s17.6 7.9 17.6 17.6l0 93.9c0 9.7-7.9 17.6-17.6 17.6s-17.6-7.9-17.6-17.6l0-93.9z"/><path class="fa-primary" d="M256 144.5c-9.7 0-17.6 7.9-17.6 17.6l0 187.7c0 9.7 7.9 17.6 17.6 17.6s17.6-7.9 17.6-17.6l0-187.7c0-9.7-7.9-17.6-17.6-17.6zm-93.9 46.9c-9.7 0-17.6 7.9-17.6 17.6l0 93.9c0 9.7 7.9 17.6 17.6 17.6s17.6-7.9 17.6-17.6l0-93.9c0-9.7-7.9-17.6-17.6-17.6zm170.1 17.6c0-9.7 7.9-17.6 17.6-17.6s17.6 7.9 17.6 17.6v93.9c0 9.7-7.9 17.6-17.6 17.6s-17.6-7.9-17.6-17.6V209.1z"/></svg>