<svg xmlns="http://www.w3.org/2000/svg" viewBox="0 0 512 512"><!--!Font Awesome Pro 6.5.2 by @fontawesome - https://fontawesome.com License - https://fontawesome.com/license (Commercial License) Copyright 2024 Fonticons, Inc.--><path class="fa-secondary" opacity=".4" d="M64 170.4l0 .3 0 282.7 277.3 0 0-74.7 0-32 0-176c0-60.3 0-90.5-18.8-109.2c-18.7-18.7-48.8-18.8-108.8-18.8l-.4 0-21.3 0c-60.3 0-90.5 0-109.2 18.8C64 80.1 64 110.2 64 170.4zm92.9 88.1l32-53.3c2.9-5 8.3-8 14-7.9s11 3.2 13.8 8.3s2.6 11.2-.4 16.1l-17.5 29.1 35.7 0c5.8 0 11.1 3.1 13.9 8.1s2.8 11.2-.2 16.1l-32 53.3c-4.6 7.5-14.3 9.9-21.9 5.3s-10-14.2-5.6-21.8l17.5-29.1-35.7 0c-5.8 0-11.1-3.1-13.9-8.1s-2.8-11.2 .2-16.1z"/><path class="fa-primary" d="M64 453.3H42.7a16 16 0 0 0 0 32H368a16 16 0 0 0 0-32H341.3zm152.4-231.8a16 16 0 1 0 -27.4-16.5l-32 53.3a16 16 0 0 0 13.7 24.2h35.7l-17.5 29.1a16 16 0 0 0 27.4 16.5l32-53.3a16 16 0 0 0 -13.7-24.2H198.9zM341.3 378.7h33.5c8 0 14.5 6.5 14.5 14.5v1.5a48 48 0 1 0 96 0V162.2c0-3.3 0-5.7-.1-7.9a80 80 0 0 0 -26.5-55.1 188.5 188.5 0 0 0 -6.1-5L426 72.8a16 16 0 1 0 -20 25l26.3 21c3.1 2.5 4.1 3.3 5.1 4.2c9.5 8.5 15.2 20.4 15.9 33a130.1 130.1 0 0 1 .1 6.5v8.1h-16a32 32 0 0 0 -32 32v51.6a32 32 0 0 0 21.9 30.4l26.1 8.7v101.3a16 16 0 0 1 -32 0v-1.5a46.5 46.5 0 0 0 -46.5-46.5H341.3z"/></svg>