<svg xmlns="http://www.w3.org/2000/svg" viewBox="0 0 512 512"><!--!Font Awesome Pro 6.6.0 by @fontawesome - https://fontawesome.com License - https://fontawesome.com/license (Commercial License) Copyright 2024 Fonticons, Inc.--><path class="fa-secondary" opacity=".4" d="M73.8 190c3.1 2.3 6.6 4.1 10.3 5.4c1.9 .6 3.8 1.1 5.8 1.4c1 .2 2 .3 3 .4s2 .1 3.1 .1c3.4 0 6.6-.4 9.7-1.3l0 101.9c0 2.5 .2 5 .6 7.4c-1.6-.5-3.3-.8-5-1.1c-.9-.1-1.7-.2-2.6-.3c-.4 0-.9-.1-1.3-.1s-.9 0-1.3 0c-7.9 0-15.2 2.5-21.3 6.5c-.7-4.1-1-8.3-1-12.5l0-105.3c0-.9 0-1.8 0-2.7zm36.5-64.5c1.7-1.1 3.4-2.1 5.1-3.1L217.7 66.7c.7-.4 1.4-.7 2.1-1.1c-.4 1.5-.6 3-.8 4.5c-.1 .8-.2 1.5-.2 2.3s-.1 1.6-.1 2.3c0 8.9 3.1 17 8.2 23.4l-95 51.8c-3.1-11.1-11.2-20-21.7-24.4zm9.1 244.9c8.4-6.8 13.9-17.2 13.9-28.9l28.2 15.4-15.5 28-26.5-14.5zM174 400.2l15.5-28 37.3 20.4c-2.6 3.2-4.6 6.8-6.1 10.8c-.7 2-1.3 4-1.6 6.1c-.2 1.1-.3 2.1-.4 3.2c0 .5-.1 1.1-.1 1.6s0 1.1 0 1.7c0 3.1 .4 6.2 1.1 9.1c-.7-.4-1.4-.7-2.1-1.1L174 400.2zM314.7 234.7a58.7 58.7 0 1 1 -117.3 0 58.7 58.7 0 1 1 117.3 0zM285.1 98.1c2.6-3.2 4.6-6.8 6.1-10.8c.7-2 1.3-4 1.6-6.1c.2-1.1 .3-2.1 .4-3.2c0-.5 .1-1.1 .1-1.6s0-1.1 0-1.7c0-3.1-.4-6.2-1.1-9.1c.7 .4 1.4 .7 2.1 1.1l102.3 55.8c1.8 1 3.5 2 5.2 3.1c-10.5 4.3-18.6 13.3-21.7 24.4l-95-51.8zm0 294.5l37.3-20.4 15.5 28L294.3 424c-.7 .4-1.4 .7-2.1 1.1c.4-1.5 .6-2.9 .8-4.5c.1-.8 .2-1.5 .2-2.3s.1-1.5 .1-2.3c0-8.9-3.1-17-8.3-23.4zm65.4-35.7l28.2-15.4c0 .8 0 1.5 .1 2.2s.1 1.4 .2 2.1c.2 1.4 .4 2.8 .7 4.2c.6 2.7 1.6 5.3 2.8 7.8c2.4 4.9 5.9 9.2 10.1 12.6l-26.5 14.5-15.5-28zm55.2-51.5c.4-2.4 .6-4.9 .6-7.4l0-102c1.6 .4 3.1 .7 4.8 1c.8 .1 1.6 .2 2.5 .2s1.7 .1 2.5 .1c8.3 0 16-2.7 22.2-7.3c0 .9 0 1.8 0 2.7l0 105.3c0 4.2-.3 8.4-1 12.6c-3-2.1-6.4-3.8-9.9-4.9c-1.8-.6-3.6-1-5.5-1.3c-.9-.1-1.9-.3-2.9-.3c-.5 0-1-.1-1.5-.1s-1 0-1.5 0c-3.6 0-7 .5-10.3 1.4z"/><path class="fa-primary" d="M209.5 270.5L103.3 461.6c-4.3 7.7-1.5 17.5 6.2 21.8s17.5 1.5 21.8-6.2L235.5 289.6c-10.4-3.9-19.3-10.6-26-19.2zm67 19.2L380.7 477.1c4.3 7.7 14 10.5 21.8 6.2s10.5-14 6.2-21.8L302.5 270.5c-6.6 8.6-15.6 15.3-25.9 19.2zM256 37.3a37.3 37.3 0 1 1 0 74.7 37.3 37.3 0 1 1 0-74.7zM133.3 160a37.3 37.3 0 1 1 -74.7 0 37.3 37.3 0 1 1 74.7 0zM416 122.7a37.3 37.3 0 1 0 0 74.7 37.3 37.3 0 1 0 0-74.7zM416 304a37.3 37.3 0 1 0 0 74.7 37.3 37.3 0 1 0 0-74.7zM96 304a37.3 37.3 0 1 0 0 74.7A37.3 37.3 0 1 0 96 304zM218.7 416a37.3 37.3 0 1 0 74.7 0 37.3 37.3 0 1 0 -74.7 0z"/></svg>