<svg xmlns="http://www.w3.org/2000/svg" viewBox="0 0 512 512"><!--!Font Awesome Pro 6.6.0 by @fontawesome - https://fontawesome.com License - https://fontawesome.com/license (Commercial License) Copyright 2024 Fonticons, Inc.--><path class="fa-secondary" opacity=".4" d="M112 234.7c0-8.8 7.2-16 16-16l149.3 0c8.8 0 16 7.2 16 16s-7.2 16-16 16l-149.3 0c-8.8 0-16-7.2-16-16zM154.7 128c0-8.8 7.2-16 16-16l106.7 0c8.8 0 16 7.2 16 16s-7.2 16-16 16l-106.7 0c-8.8 0-16-7.2-16-16z"/><path class="fa-primary" d="M362.7 69.3c8.8 0 16 7.2 16 16l0 293.3 35.2-46.9c5.3-7.1 15.3-8.5 22.4-3.2s8.5 15.3 3.2 22.4l-64 85.3c-4.1 5.5-11.3 7.8-17.9 5.6s-10.9-8.3-10.9-15.2l0-341.3c0-8.8 7.2-16 16-16zM69.3 341.3c0-8.8 7.2-16 16-16h192c8.8 0 16 7.2 16 16s-7.2 16-16 16H85.3c-8.8 0-16-7.2-16-16z"/></svg>