<svg xmlns="http://www.w3.org/2000/svg" viewBox="0 0 512 512"><!--!Font Awesome Pro 6.6.0 by @fontawesome - https://fontawesome.com License - https://fontawesome.com/license (Commercial License) Copyright 2024 Fonticons, Inc.--><path class="fa-secondary" opacity=".4" d="M74.7 170.7l0 149.3 81.8 0c16.2 0 31.9 5.2 44.8 14.9l19.9 14.9c1.8 1.4 4.1 2.1 6.4 2.1l56.9 0c2.3 0 4.6-.7 6.4-2.1l19.9-14.9c12.9-9.7 28.6-14.9 44.8-14.9l81.8 0 0-149.3c0-60.3 0-90.5-18.7-109.3s-48.9-18.7-109.3-18.7l-106.7 0c-60.3 0-90.5 0-109.3 18.7S74.7 110.3 74.7 170.7z"/><path class="fa-primary" d="M106.7 469.3H405.3c35.3 0 64-28.7 64-64v-32c0-11.8-9.6-21.3-21.3-21.3H355.6c-9.2 0-18.2 3-25.6 8.5L310 375.5c-7.4 5.5-16.4 8.5-25.6 8.5H227.6c-9.2 0-18.2-3-25.6-8.5L182 360.5c-7.4-5.5-16.4-8.5-25.6-8.5H64c-11.8 0-21.3 9.6-21.3 21.3v32c0 35.3 28.7 64 64 64z"/></svg>