<svg xmlns="http://www.w3.org/2000/svg" viewBox="0 0 512 512"><!--!Font Awesome Pro 6.6.0 by @fontawesome - https://fontawesome.com License - https://fontawesome.com/license (Commercial License) Copyright 2024 Fonticons, Inc.--><path class="fa-secondary" opacity=".4" d="M42.7 256c0 80.5 0 120.7 25 145.7s65.2 25 145.7 25l85.3 0 .5 0c80.1 0 120.3 0 145.2-25c25-25 25-65.2 25-145.7l0-.5c0-80.2 0-120.3-25-145.2c-25-25-65.2-25-145.7-25l-85.3 0-.5 0c-80.1 0-120.3 0-145.2 25c-25 25-25 65.2-25 145.7zM112 277.3c0-8.8 7.2-16 16-16l21.3 0c8.8 0 16 7.2 16 16s-7.2 16-16 16l-21.3 0c-8.8 0-16-7.2-16-16zm0 64c0-8.8 7.2-16 16-16l85.3 0c8.8 0 16 7.2 16 16s-7.2 16-16 16l-85.3 0c-8.8 0-16-7.2-16-16zm74.7-64c0-8.8 7.2-16 16-16l42.7 0c8.8 0 16 7.2 16 16s-7.2 16-16 16l-42.7 0c-8.8 0-16-7.2-16-16zm64 64c0-8.8 7.2-16 16-16l32 0c8.8 0 16 7.2 16 16s-7.2 16-16 16l-32 0c-8.8 0-16-7.2-16-16zm32-64c0-8.8 7.2-16 16-16l85.3 0c8.8 0 16 7.2 16 16s-7.2 16-16 16l-85.3 0c-8.8 0-16-7.2-16-16zm53.3 64c0-8.8 7.2-16 16-16l32 0c8.8 0 16 7.2 16 16s-7.2 16-16 16l-32 0c-8.8 0-16-7.2-16-16z"/><path class="fa-primary" d="M112 341.3c0-8.8 7.2-16 16-16h85.3c8.8 0 16 7.2 16 16s-7.2 16-16 16H128c-8.8 0-16-7.2-16-16zm288-64c0-8.8-7.2-16-16-16H298.7c-8.8 0-16 7.2-16 16s7.2 16 16 16H384c8.8 0 16-7.2 16-16zm-149.3 64c0-8.8 7.2-16 16-16h32c8.8 0 16 7.2 16 16s-7.2 16-16 16h-32c-8.8 0-16-7.2-16-16zm10.7-64c0-8.8-7.2-16-16-16H202.7c-8.8 0-16 7.2-16 16s7.2 16 16 16h42.7c8.8 0 16-7.2 16-16zm74.7 64c0-8.8 7.2-16 16-16h32c8.8 0 16 7.2 16 16s-7.2 16-16 16H352c-8.8 0-16-7.2-16-16zm-170.7-64c0-8.8-7.2-16-16-16H128c-8.8 0-16 7.2-16 16s7.2 16 16 16h21.3c8.8 0 16-7.2 16-16z"/></svg>