<svg xmlns="http://www.w3.org/2000/svg" viewBox="0 0 512 512"><!--!Font Awesome Pro 6.6.0 by @fontawesome - https://fontawesome.com License - https://fontawesome.com/license (Commercial License) Copyright 2024 Fonticons, Inc.--><path class="fa-secondary" opacity=".4" d="M42.7 146.2c-.1 1.6-.1 3.4-.1 7.1l0 45.1c0 35.3 30.3 64 67.8 64c12.5 0 22.6 9.6 22.6 21.3c0 35.2 0 70.4 0 105.6l101.6 0c0-63.5 0-127.1 0-190.7c0-6.2 0-9.3-.1-11.9C231.7 132 185.3 88.2 127.3 85.5c-2.8-.1-6-.1-12.6-.1c-3.9 0-5.9 0-7.6 .1C72.3 87 44.5 113.3 42.7 146.2zM80 149.3c0-8.8 7.2-16 16-16s16 7.2 16 16l0 53.3c0 8.8-7.2 16-16 16s-16-7.2-16-16l0-53.3zm53 272c0 26.5 22.8 48 50.8 48s50.8-21.5 50.8-48l-101.6 0zM298.7 384a85.3 85.3 0 1 0 170.7 0 85.3 85.3 0 1 0 -170.7 0zm52.7-32.6c6.2-6.2 16.4-6.2 22.6 0l10 10 10-10c6.2-6.2 16.4-6.2 22.6 0s6.2 16.4 0 22.6l-10 10 10 10c6.2 6.2 6.2 16.4 0 22.6s-16.4 6.2-22.6 0l-10-10-10 10c-6.2 6.2-16.4 6.2-22.6 0s-6.3-16.4 0-22.6l10-10-10-10c-6.2-6.2-6.2-16.4 0-22.6z"/><path class="fa-primary" d="M351.4 351.4c6.2-6.2 16.4-6.2 22.6 0l10 10 10-10c6.2-6.2 16.4-6.2 22.6 0s6.2 16.4 0 22.6l-10 10 10 10c6.2 6.2 6.2 16.4 0 22.6s-16.4 6.2-22.6 0l-10-10-10 10c-6.2 6.2-16.4 6.2-22.6 0s-6.3-16.4 0-22.6l10-10-10-10c-6.2-6.2-6.2-16.4 0-22.6zm118-195.6l0-45.1c0-3.7 0-5.6-.1-7.1c-1.7-32.9-29.5-59.2-64.4-60.8c-1.7-.1-3.6-.1-7.6-.1c-6.6 0-9.8 0-12.6 .1c-58 2.7-104.4 46.5-107.3 101.3c-.1 2.6-.1 5.7-.1 11.9l0 179.1c17.9-38.9 56.5-66.4 101.6-68.3l0-25.7c0-11.8 10.1-21.3 22.6-21.3c37.4 0 67.8-28.7 67.8-64zM432 106.7l0 53.3c0 8.8-7.2 16-16 16s-16-7.2-16-16l0-53.3c0-8.8 7.2-16 16-16s16 7.2 16 16zM234.7 389.3H133v32H234.7v-32zM96 133.3c-8.8 0-16 7.2-16 16v53.3c0 8.8 7.2 16 16 16s16-7.2 16-16V149.3c0-8.8-7.2-16-16-16z"/></svg>