<svg xmlns="http://www.w3.org/2000/svg" viewBox="0 0 512 512"><!--!Font Awesome Pro 6.6.0 by @fontawesome - https://fontawesome.com License - https://fontawesome.com/license (Commercial License) Copyright 2024 Fonticons, Inc.--><path class="fa-secondary" opacity=".4" d="M69.3 298.7c0 8.8 7.2 16 16 16l208 0 0 112c0 6.6 4.1 12.5 10.2 14.9s13.1 .8 17.6-4.1l117.3-128c4.3-4.7 5.4-11.4 2.9-17.3s-8.3-9.6-14.6-9.6l-341.3 0c-8.8 0-16 7.2-16 16z"/><path class="fa-primary" d="M218.7 85.3c0-6.6-4-12.5-10.2-14.9s-13.1-.8-17.6 4.1L73.5 202.5c-4.3 4.7-5.4 11.4-2.9 17.3s8.3 9.6 14.6 9.6H426.7c8.8 0 16-7.2 16-16s-7.2-16-16-16l-208 0V85.3z"/></svg>