<svg xmlns="http://www.w3.org/2000/svg" viewBox="0 0 512 512"><!--!Font Awesome Pro 6.6.0 by @fontawesome - https://fontawesome.com License - https://fontawesome.com/license (Commercial License) Copyright 2024 Fonticons, Inc.--><path class="fa-secondary" opacity=".4" d="M192.8 133.1c0 12.5 4.5 28.9 11.2 53.1L215 226c10.3 37.5 15.5 56.2 30.7 64.7s34.5 3.5 73.1-6.5l41-10.6c38.6-10 57.9-15.1 66.7-29.8c3.1-5.2 4.5-10.9 4.5-17.8c0-12.5-4.5-28.9-11.2-53.1l-11-39.7c-10.3-37.5-15.5-56.2-30.7-64.7s-34.5-3.5-73.1 6.5L264 85.5c-38.6 10-57.9 15.1-66.7 29.8c-3.1 5.2-4.5 10.9-4.5 17.8z"/><path class="fa-primary" d="M48.6 111.9c2.4-8.5 11.2-13.5 19.7-11.1l36.3 10.1c19.6 5.4 35 20.5 40.4 40.1L191 317l3.4 11.7c13.5 5 25.1 14.5 32.5 27l6.6-2 189.2-49.2c8.6-2.2 17.3 2.9 19.5 11.5s-2.9 17.3-11.5 19.5l-188.5 49-7 2.2c-.1 27.1-18.9 51.9-47.2 59.2c-33.9 8.8-68.8-10.7-77.9-43.6s11-66.7 45-75.6c1.7-.4 3.4-.8 5-1.1L114.2 159.5c-2.3-8.4-9.1-15.2-18.2-17.7L59.7 131.6c-8.5-2.4-13.5-11.2-11.1-19.7z"/></svg>