<svg xmlns="http://www.w3.org/2000/svg" viewBox="0 0 512 512"><!--!Font Awesome Pro 6.6.0 by @fontawesome - https://fontawesome.com License - https://fontawesome.com/license (Commercial License) Copyright 2024 Fonticons, Inc.--><path class="fa-secondary" opacity=".4" d="M46.2 142l0 69.9c1.7-9.9 4.3-18.2 8.1-25.7c10.2-20.1 26.5-36.4 46.6-46.6C123.7 128 153.6 128 213.3 128l85.3 0 .4 0c59.4 0 89.2 0 112 11.6c20.1 10.2 36.4 26.5 46.6 46.6c3.8 7.5 6.4 15.7 8.1 25.5l0-69.8c-3.8-30.7-11.6-51.9-27.7-68.1C406.8 42.7 356.6 42.7 256 42.7l-.7 0c-100.1 0-150.2 .1-181.4 31.2c-16.2 16.2-24 37.4-27.7 68.1z"/><path class="fa-primary" d="M54.3 186.2c-11.6 22.8-11.6 52.7-11.6 112.4s0 89.6 11.6 112.4c10.2 20.1 26.5 36.4 46.6 46.6c22.8 11.6 52.7 11.6 112.4 11.6l85.3 0c59.7 0 89.6 0 112.4-11.6c20.1-10.2 36.4-26.5 46.6-46.6c11.6-22.8 11.6-52.7 11.6-112.4s0-89.6-11.6-112.4c-10.2-20.1-26.5-36.4-46.6-46.6C388.3 128 358.4 128 298.7 128l-85.3 0c-59.7 0-89.6 0-112.4 11.6c-20.1 10.2-36.4 26.5-46.6 46.6zm267 80.4L245.1 352c-3 3.4-7.4 5.3-11.9 5.3s-8.9-1.9-11.9-5.3l-30.5-34.1c-5.9-6.6-5.3-16.7 1.3-22.6s16.7-5.3 22.6 1.3l18.5 20.8 64.3-72c5.9-6.6 16-7.2 22.6-1.3s7.2 16 1.3 22.6z"/></svg>