<svg xmlns="http://www.w3.org/2000/svg" viewBox="0 0 512 512"><!--!Font Awesome Pro 6.6.0 by @fontawesome - https://fontawesome.com License - https://fontawesome.com/license (Commercial License) Copyright 2024 Fonticons, Inc.--><path class="fa-secondary" opacity=".4" d="M42.7 255.7l0 .3c0 60.3 0 90.5 18.7 109.3c10.6 10.6 24.7 15.2 45.9 17.2c-.6-15.4-.6-54.9-.6-73.1c-5.9 0-10.7-4.8-10.7-10.7s4.8-10.7 10.7-10.7l298.7 0c5.9 0 10.7 4.8 10.7 10.7s-4.8 10.7-10.7 10.7c0 18.2 0 57.7-.6 73.1c21.1-2 35.3-6.6 45.8-17.2c18.7-18.7 18.7-48.9 18.7-109.3s0-90.5-18.7-109.3S401.7 128 341.3 128l-170.7 0c-60.3 0-90.5 0-109.3 18.7c-18.7 18.7-18.7 48.8-18.7 109zM112 213.3c0-8.8 7.2-16 16-16l64 0c8.8 0 16 7.2 16 16s-7.2 16-16 16l-64 0c-8.8 0-16-7.2-16-16zm64 144c0 8.8 7.2 16 16 16l128 0c8.8 0 16-7.2 16-16s-7.2-16-16-16l-128 0c-8.8 0-16 7.2-16 16zm0 64c0 8.8 7.2 16 16 16l85.3 0c8.8 0 16-7.2 16-16s-7.2-16-16-16l-85.3 0c-8.8 0-16 7.2-16 16zm208-208a21.3 21.3 0 1 1 -42.7 0 21.3 21.3 0 1 1 42.7 0z"/><path class="fa-primary" d="M365.3 61.4C346.5 42.7 316.3 42.7 256 42.7s-90.5 0-109.3 18.7C136.2 71.9 131.6 86 129.6 107c11.9-.3 25.1-.3 39.6-.3H342.8c14.5 0 27.6 0 39.6 .3c-2-21-6.6-35.1-17.2-45.6zM384 309.3c0 60.3 0 122.5-18.7 141.3s-48.9 18.7-109.3 18.7s-90.5 0-109.3-18.7S128 369.7 128 309.3l256 0zm-48 48c0-8.8-7.2-16-16-16l-128 0c-8.8 0-16 7.2-16 16s7.2 16 16 16l128 0c8.8 0 16-7.2 16-16zm-42.7 64c0-8.8-7.2-16-16-16l-85.3 0c-8.8 0-16 7.2-16 16s7.2 16 16 16l85.3 0c8.8 0 16-7.2 16-16zM192 229.3c8.8 0 16-7.2 16-16s-7.2-16-16-16H128c-8.8 0-16 7.2-16 16s7.2 16 16 16h64zm149.3-16a21.3 21.3 0 1 1 42.7 0 21.3 21.3 0 1 1 -42.7 0z"/></svg>