<svg xmlns="http://www.w3.org/2000/svg" viewBox="0 0 512 512"><!--!Font Awesome Pro 6.6.0 by @fontawesome - https://fontawesome.com License - https://fontawesome.com/license (Commercial License) Copyright 2024 Fonticons, Inc.--><path class="fa-secondary" opacity=".4" d="M240.1 320l32 0 0 133.3-32 0 0-133.3zm117.4-1.4c5.4-.5 19.2-2.3 31.9-5.4l0 6.8 0 42.7c0 8.8-7.2 16-16 16s-16-7.2-16-16l0-42.7c0-.5 0-.9 .1-1.4z"/><path class="fa-primary" d="M106 158.8c13-50 19.5-75.1 36.3-91.6c4.9-4.8 10.3-9 16.1-12.5c20.2-12.1 46.1-12.1 97.8-12.1s77.5 0 97.8 12.1c5.9 3.5 11.3 7.7 16.1 12.5c16.8 16.5 23.3 41.6 36.3 91.6l1.8 6.9c17.7 68 26.5 102 10.5 125.9c-1.6 2.4-3.4 4.7-5.3 6.8c-6.1 6.9-13.8 11.6-23.8 14.7c-12.7 3.1-26.6 4.9-31.9 5.4c-18.1 1.4-40.6 1.4-68.8 1.4l-16.6 0-32 0-16.6 0c-70.3 0-105.4 0-124.5-21.5c-1.9-2.1-3.7-4.4-5.3-6.8c-16-23.9-7.2-57.9 10.5-125.9l1.8-6.9zM240.1 453.3h-48c-8.8 0-16 7.2-16 16s7.2 16 16 16h128c8.8 0 16-7.2 16-16s-7.2-16-16-16h-48-32z"/></svg>