<svg xmlns="http://www.w3.org/2000/svg" viewBox="0 0 512 512"><!--!Font Awesome Pro 6.6.0 by @fontawesome - https://fontawesome.com License - https://fontawesome.com/license (Commercial License) Copyright 2024 Fonticons, Inc.--><path class="fa-secondary" opacity=".4" d="M64 202.7l0 106.7c0 50.3 0 75.4 15.6 91s40.8 15.6 91 15.6l21.9 0c-.5-9.3-.6-20.2-.6-32.8c0-2.6 0-5.3 0-8.1c0-.4 0-.8 0-1.3l0-5.2 0-225.2 0-5.2c0-.4 0-.8 0-1.3c0-2.8 0-5.5 0-8.1c0-12.6 .1-23.5 .6-32.8l-21.9 0-.3 0c-50.1 0-75.1 0-90.7 15.6C64 127.2 64 152.4 64 202.7z"/><path class="fa-primary" d="M207.1 51.4C192 64.8 192 89.2 192 138.2l0 235.7c0 48.9 0 73.4 15.1 86.8s38.1 9.4 84.3 1.3l49.7-8.7c51.1-8.9 76.6-13.4 91.8-32.1s15.2-45.8 15.2-100l0-130.3c0-54.2 0-81.3-15.2-100S392.1 67.7 341 58.7l-49.7-8.7c-46.1-8-69.2-12.1-84.3 1.3zM272 233.7l0 44.7c0 9.2-7.2 16.7-16 16.7s-16-7.5-16-16.7l0-44.7c0-9.2 7.2-16.7 16-16.7s16 7.5 16 16.7z"/></svg>