<svg xmlns="http://www.w3.org/2000/svg" viewBox="0 0 512 512"><!--!Font Awesome Pro 6.6.0 by @fontawesome - https://fontawesome.com License - https://fontawesome.com/license (Commercial License) Copyright 2024 Fonticons, Inc.--><path class="fa-secondary" opacity=".4" d="M48 426.7c0 8.8 7.2 16 16 16c52.1 0 101.4-23.1 134.8-63.1l5.5-6.6c5.7-6.8 4.7-16.9-2-22.5s-16.9-4.7-22.5 2l-5.5 6.6c-27.2 32.7-67.6 51.6-110.2 51.6c-8.8 0-16 7.2-16 16zM325.8 252.1c-2.1 8.6 3.1 17.3 11.6 19.4c30.6 7.6 62.5 7.6 93.1 0c7.3-1.8 12.1-8.3 12.1-15.5c0-1.3-.2-2.6-.5-3.9c-2.1-8.6-10.8-13.8-19.4-11.6c-25.5 6.4-52.1 6.4-77.6 0c-8.6-2.1-17.3 3.1-19.4 11.6z"/><path class="fa-primary" d="M341.3 96A53.3 53.3 0 1 1 448 96 53.3 53.3 0 1 1 341.3 96zM191.4 123.9c19.3-8.5 41.1-9 60.7-1.3c54.8 21.3 68 92.8 24.5 132.4l-22.2 20.2c-.9 .8-1.1 1-1.3 1.2c-11.8 11.2-11 30.2 1.8 40.3c.2 .1 .4 .3 1.4 1l.1 .1c1.3 .9 2 1.5 2.7 2c40 30.9 63.6 78.4 64.1 129c0 .9 0 1.8 0 3.3l0 17.3c0 8.8-7.2 16-16 16s-16-7.2-16-16l0-17.2c0-1.7 0-2.4 0-3.1c-.4-40.7-19.5-79.1-51.7-104c-.5-.4-1.1-.9-2.5-1.9l-.1-.1c-.7-.5-1.3-1-1.7-1.3c-28.1-22.2-29.9-64.1-4-88.6c.4-.4 .9-.9 1.6-1.5l22.3-20.3c25.9-23.6 18-66.2-14.6-78.9c-11.7-4.6-24.7-4.3-36.2 .8l-11.1 4.9c-11.6 5.1-17 7.5-22.2 10.1c-8.8 4.4-17.4 9.2-25.6 14.6c-4.9 3.2-9.7 6.6-20 13.9L94.6 218.6c-7.2 5.1-17.2 3.4-22.3-3.8s-3.4-17.2 3.8-22.3l31.1-22.1c9.9-7.1 15.3-10.9 20.9-14.5c9.3-6 18.9-11.4 28.8-16.4c5.9-3 12-5.6 23.1-10.5l11.5-5.1z"/></svg>