<svg xmlns="http://www.w3.org/2000/svg" viewBox="0 0 512 512"><!--!Font Awesome Pro 6.6.0 by @fontawesome - https://fontawesome.com License - https://fontawesome.com/license (Commercial License) Copyright 2024 Fonticons, Inc.--><path class="fa-secondary" opacity=".4" d="M85.3 80l341.3 0 0 203.4c0 28.5 0 42.7-5.7 55.3c-5.7 12.6-16.5 22-38 40.8l-42.7 37.3c-40.2 35.1-60.2 52.7-84.3 52.7s-44.1-17.6-84.3-52.7L129 379.6c-21.5-18.8-32.3-28.2-38-40.8s-5.7-26.9-5.7-55.5L85.3 80zm80 112c0 8.8 7.2 16 16 16l149.3 0c8.8 0 16-7.2 16-16s-7.2-16-16-16l-149.3 0c-8.8 0-16 7.2-16 16zm0 106.7c0 8.8 7.2 16 16 16l149.3 0c8.8 0 16-7.2 16-16s-7.2-16-16-16l-149.3 0c-8.8 0-16 7.2-16 16z"/><path class="fa-primary" d="M26.7 64c0-8.8 7.2-16 16-16l426.7 0c8.8 0 16 7.2 16 16s-7.2 16-16 16L42.7 80c-8.8 0-16-7.2-16-16zM165.3 298.7c0-8.8 7.2-16 16-16l149.3 0c8.8 0 16 7.2 16 16s-7.2 16-16 16l-149.3 0c-8.8 0-16-7.2-16-16zm0-106.7c0-8.8 7.2-16 16-16l149.3 0c8.8 0 16 7.2 16 16s-7.2 16-16 16l-149.3 0c-8.8 0-16-7.2-16-16z"/></svg>