<svg xmlns="http://www.w3.org/2000/svg" viewBox="0 0 512 512"><!--!Font Awesome Pro 6.6.0 by @fontawesome - https://fontawesome.com License - https://fontawesome.com/license (Commercial License) Copyright 2024 Fonticons, Inc.--><path class="fa-secondary" opacity=".4" d="M64 135.9l0 298.8c0 18.3 21 28 34.3 15.9c7.8-7.1 19.6-7.1 27.4 0l10.3 9.4c6.8 6.3 15.4 9.4 24 9.4s17.2-3.1 24-9.4c13.7-12.5 34.3-12.5 48 0c6.8 6.3 15.4 9.4 24 9.4s17.2-3.1 24-9.4c13.7-12.5 34.3-12.5 48 0c6.8 6.3 15.4 9.4 24 9.4s17.2-3.1 24-9.4l10.3-9.4c7.8-7.1 19.6-7.1 27.4 0C427 462.7 448 453 448 434.6l0-298.8c0-25.5 0-38.2-3.4-48.4c-6.4-19.5-21.2-34.7-40.1-41.3c-10-3.5-22.3-3.5-47.1-3.5l-202.9 0c-24.8 0-37.1 0-47.1 3.5C88.6 52.7 73.8 68 67.4 87.5C64 97.7 64 110.4 64 135.9zm80 194.8c0-8.8 7.2-16 16-16l192 0c8.8 0 16 7.2 16 16s-7.2 16-16 16l-192 0c-8.8 0-16-7.2-16-16zm46.7-98.1c-5.9-6.6-5.3-16.7 1.3-22.6s16.7-5.3 22.6 1.3L233.1 232l64.3-72c5.9-6.6 16-7.2 22.6-1.3s7.2 16 1.3 22.6l-76.2 85.3c-3 3.4-7.4 5.3-11.9 5.3s-8.9-1.9-11.9-5.3l-30.5-34.1z"/><path class="fa-primary" d="M321.3 181.3c5.9-6.6 5.3-16.7-1.3-22.6s-16.7-5.3-22.6 1.3l-64.3 72-18.5-20.8c-5.9-6.6-16-7.2-22.6-1.3s-7.2 16-1.3 22.6l30.5 34.1c3 3.4 7.4 5.3 11.9 5.3s8.9-1.9 11.9-5.3l76.2-85.3zM160 314.7c-8.8 0-16 7.2-16 16s7.2 16 16 16H352c8.8 0 16-7.2 16-16s-7.2-16-16-16H160z"/></svg>