<svg xmlns="http://www.w3.org/2000/svg" viewBox="0 0 512 512"><!--!Font Awesome Pro 6.6.0 by @fontawesome - https://fontawesome.com License - https://fontawesome.com/license (Commercial License) Copyright 2024 Fonticons, Inc.--><path class="fa-secondary" opacity=".4" d="M43.1 269.4l.5-.3 33.1-21.9c15.2-10.1 25.8-17 32.8-23.9l88.5 37.3 12.3 39.9-50.3 64c-9.6-1.8-22.1-1.8-40.2-1.8l-48.5 0c-16-27.7-26-59.4-28.1-93.3zm57-159.1c19.5-20.9 43.3-37.9 69.7-49.6l4.4 3.3 31.9 23.6c14.6 10.8 24.7 18.3 33.6 22.5l0 94.2-33.1 25.3-86-36.3c-.7-9.7-4-21.9-8.7-39.4l-8.9-33.3-2.9-10.3zM186 383.1L235.6 320l40 0L330 383c-4.9 8.6-8.9 20.6-14.7 38l-12.5 37.7-1.6 5.8c59.4-12.9 109.6-50.6 139.1-101.8l-44.2 0c-17.9 0-30.4 0-39.9 1.8l-55-63.7 12.4-40.2 89.9-37.2c7 6.9 17.5 13.8 32.8 23.9l32.2 21.3c.2-4.1 .4-8.3 .4-12.5c0-55.9-21.5-106.8-56.7-144.9l-2.4 9.5-8.9 33.3c-4.7 17.5-7.9 29.7-8.7 39.4l-87.4 36.2-33.1-25.3 0-93.8c8.9-4 19.2-11.3 34.1-21.8L334 68.8l8.4-7.7c-19.8-8.8-41.2-14.8-63.7-17.2C385.9 55.2 469.3 145.9 469.3 256c0 117.8-95.5 213.3-213.3 213.3c-13.9 0-27.4-1.3-40.5-3.8l-2.3-6.9L200.6 421c-5.8-17.4-9.8-29.4-14.6-37.9z"/><path class="fa-primary" d="M334 68.8L305.9 88.6c-14.9 10.5-25.2 17.8-34.1 21.8v93.8l33.1 25.3 87.4-36.2c.7-9.7 4-21.9 8.7-39.4l8.9-33.3 2.4-9.5c35.2 38 56.7 88.9 56.7 144.9c0 4.2-.1 8.4-.4 12.5l-32.2-21.3c-15.2-10.1-25.8-17-32.8-23.9l-89.9 37.2-12.4 40.2 55 63.7c9.5-1.8 22-1.8 39.9-1.8h44.2c-29.6 51.2-79.7 88.9-139.1 101.8l1.6-5.8L315.3 421c5.8-17.4 9.8-29.5 14.7-38l-54.4-63h-40L186 383.1c4.8 8.5 8.8 20.6 14.6 37.9l12.5 37.7 2.3 6.9c-61.7-11.8-113.9-50.2-144.3-102.9h48.6c18.1 0 30.6 0 40.2 1.8l50.3-64-12.3-39.9-88.5-37.3c-7 6.9-17.5 13.9-32.8 23.9L43.5 269.1l-.5 .3c-.3-4.4-.4-8.9-.4-13.4c0-56.3 21.8-107.6 57.4-145.7l3 10.3 8.9 33.3c4.7 17.5 7.9 29.6 8.7 39.4l86 36.3 33.1-25.3V110c-8.8-4.2-19-11.7-33.6-22.5L174.3 64l-4.4-3.3c26.3-11.6 55.3-18 85.9-18c30.9 0 60.2 6.6 86.7 18.4L334 68.8z"/></svg>