<svg xmlns="http://www.w3.org/2000/svg" viewBox="0 0 512 512"><!--!Font Awesome Pro 6.6.0 by @fontawesome - https://fontawesome.com License - https://fontawesome.com/license (Commercial License) Copyright 2024 Fonticons, Inc.--><path class="fa-secondary" opacity=".4" d="M106.7 362.7c0 47.1 66.9 85.3 149.3 85.3c8.6 0 17-.4 25.2-1.2c-1.9-5.6-2.9-12.4-3.4-20.9c-.2-4.3-.4-9-.4-14.1c0-2.6 0-5.3-.1-8.1s0-5.8 0-8.9c0-35.2 0-52.8 10.9-63.7S316.8 320 352 320c3.5 0 6.7 0 9.9 0s6.1 0 8.9 .1c5.6 .1 10.7 .2 15.2 .6c-25.7-25.9-74.3-43.3-130-43.3c-82.5 0-149.3 38.2-149.3 85.3z"/><path class="fa-primary" d="M256 42.7a85.3 85.3 0 1 0 0 170.7 85.3 85.3 0 1 0 0-170.7zm32.3 415.7c10.9 10.9 28.5 10.9 63.7 10.9s52.8 0 63.7-10.9s10.9-28.5 10.9-63.7s0-52.8-10.9-63.7S387.2 320 352 320s-52.8 0-63.7 10.9s-10.9 28.5-10.9 63.7s0 52.8 10.9 63.7zm43-32.2c-15-10.7-32.6-23.3-32.6-45.2c0-24.1 29.3-41.2 53.3-18c24-23.2 53.3-6.1 53.3 18c0 21.8-17.6 34.4-32.6 45.2c-1.6 1.1-3.1 2.2-4.6 3.3c-5.5 4.1-10.9 7.9-16.2 7.9s-10.7-3.8-16.2-7.9c-1.5-1.1-3-2.2-4.6-3.3z"/></svg>