<svg xmlns="http://www.w3.org/2000/svg" viewBox="0 0 512 512"><!--!Font Awesome Pro 6.6.0 by @fontawesome - https://fontawesome.com License - https://fontawesome.com/license (Commercial License) Copyright 2024 Fonticons, Inc.--><path class="fa-secondary" opacity=".4" d="M42.7 254.9l0 1.2c0 10.5 0 20.4 0 29.8c.2 36.9 .9 66.6 5.2 90.5c4.3 24.3 12.5 43.9 28.2 59.6c17.8 17.8 40.4 25.8 69.1 29.7c28 3.8 63.9 3.8 109.7 3.8l2.3 0 .3 0c45.7 0 81.5 0 109.4-3.8c28.7-3.9 51.3-11.9 69.1-29.7c6.3-6.3 11.4-13.2 15.6-21c9.5-17.6 13.7-38.8 15.8-64.2c1.8-21.9 2-48.5 2.1-79.9c0-8.2-6.7-14.9-14.9-14.9s-14.9 6.7-14.9 14.9c0 31.5-.3 56.7-2 77.4c-1.8 22-5.1 37.6-10.8 49.5l-56.2-50.6c-20.6-18.6-51.4-20.4-74.1-4.5l-5.9 4.2c-15.8 11.1-37.2 9.2-50.9-4.4l-85.1-85.1c-17-17-44.2-17.9-62.3-2.1L72.4 272.7c0-5.4 0-11 0-16.7c0-47.2 0-81.1 3.5-106.9c3.4-25.4 9.9-40.7 21.2-52s26.6-17.8 52-21.2c23-3.1 52.4-3.5 92-3.5c8.2 0 14.9-6.7 14.9-14.9s-6.7-14.9-14.9-14.9c-39 0-71.1 .4-96 3.8c-28.7 3.9-51.3 11.9-69.1 29.7s-25.8 40.4-29.7 69.1c-3.8 28-3.8 63.9-3.8 109.7z"/><path class="fa-primary" d="M373.3 234.7c-45.3 0-67.9 0-81.9-14.1s-14.1-36.7-14.1-81.9s0-67.9 14.1-81.9s36.7-14.1 81.9-14.1s67.9 0 81.9 14.1s14.1 36.7 14.1 81.9s0 67.9-14.1 81.9s-36.7 14.1-81.9 14.1zM420.5 91.5c-8.2-8.2-21.5-8.2-29.7 0l-1.2 1.2c-1.2 1.2-1.7 2.9-1.4 4.5c.2 1 .5 2.6 1.2 4.4c1.3 3.6 3.6 8.4 8.1 12.9s9.3 6.9 12.9 8.1c1.8 .6 3.3 1 4.4 1.2c1.7 .3 3.3-.2 4.5-1.4l1.2-1.2c8.2-8.2 8.2-21.5 0-29.7zm-50.4 80.1l38.4-38.4c.9-.9 .5-2.5-.7-3c-4.5-1.6-10.4-4.5-15.9-10s-8.5-11.4-10-15.9c-.4-1.2-2-1.7-3-.7l-38.4 38.4c-3.1 3.1-4.6 4.6-5.9 6.3c-1.6 2-2.9 4.2-4 6.5c-.9 1.9-1.6 4-3 8.1l-7.3 21.8c-.7 2-.1 4.3 1.4 5.8s3.8 2 5.8 1.4l21.8-7.3c4.1-1.4 6.2-2.1 8.1-3c2.3-1.1 4.5-2.4 6.5-4c1.7-1.3 3.2-2.9 6.3-5.9z"/></svg>