<svg xmlns="http://www.w3.org/2000/svg" viewBox="0 0 512 512"><!--!Font Awesome Pro 6.6.0 by @fontawesome - https://fontawesome.com License - https://fontawesome.com/license (Commercial License) Copyright 2024 Fonticons, Inc.--><path class="fa-secondary" opacity=".4" d="M85.5 169.2c-.1 2.4-.1 4.8-.1 7.4c0 41.4 12.9 106.5 78.2 171.8s130.4 78.2 171.8 78.2c2.6 0 5 0 7.4-.1c24.2-.9 46.1-14.8 63.9-32.7c29.7-29.7 25.7-77.1-8.1-96L373.8 284c-22.4-12.5-51.8-7.5-71.4 12.2c0 0-23.9 23.9-67.2-19.4c-43.3-43.3-19.4-67.1-19.4-67.2c19.7-19.7 24.7-49.1 12.2-71.4l-13.8-24.8c-10.3-18.5-29.2-28.1-49.1-28.1c-16.4 0-33.5 6.5-46.9 20c-17.9 17.9-31.8 39.7-32.7 63.9z"/><path class="fa-primary" d="M282.9 40.1c1.4-8.7 9.7-14.6 18.4-13.2c.5 .1 2.3 .4 3.2 .6c1.8 .4 4.4 1 7.5 2c6.3 1.8 15.2 4.9 25.8 9.7C359 49 387.3 66 416.6 95.4S463 153 472.8 174.2c4.9 10.6 7.9 19.5 9.7 25.8c.9 3.2 1.5 5.7 2 7.5c.2 .9 .4 1.6 .5 2.2l.1 .7c1.4 8.7-4.5 17.3-13.2 18.7c-8.7 1.4-16.9-4.5-18.3-13.2c0-.2-.2-.9-.3-1.5c-.3-1.2-.7-3.1-1.4-5.5c-1.4-5-4-12.3-8.1-21.4c-8.3-18.1-23.3-43.2-49.7-69.6s-51.5-41.4-69.6-49.7c-9.1-4.2-16.4-6.7-21.4-8.1c-2.5-.7-5.6-1.4-6.8-1.7c-8.7-1.4-14.8-9.7-13.4-18.4zm4.8 73.6c2.4-8.5 11.3-13.4 19.8-11l-4.4 15.4 4.4-15.4c0 0 0 0 0 0s0 0 0 0l.1 0 .2 0 .4 .1c.3 .1 .7 .2 1.2 .4c1 .3 2.2 .8 3.8 1.5c3.1 1.3 7.4 3.4 12.6 6.5c10.4 6.2 24.7 16.4 41.4 33.2s27 31 33.2 41.4c3.1 5.2 5.1 9.5 6.5 12.6c.7 1.6 1.1 2.8 1.5 3.8c.2 .5 .3 .9 .4 1.2l.1 .4 0 .2 0 .1c0 0 0 0 0 0c0 0 0 0-15.4 4.4l15.4-4.4c2.4 8.5-2.5 17.4-11 19.8c-8.4 2.4-17.2-2.4-19.7-10.8l-.1-.2c-.1-.3-.3-1-.7-1.9c-.8-1.8-2.2-4.9-4.6-8.9c-4.8-8-13.3-20.2-28.3-35.1s-27.1-23.5-35.1-28.3c-4-2.4-7-3.8-8.9-4.6c-.9-.4-1.6-.6-1.9-.7l-.2-.1c-8.4-2.5-13.2-11.3-10.8-19.7z"/></svg>