<svg xmlns="http://www.w3.org/2000/svg" viewBox="0 0 512 512"><!--!Font Awesome Pro 6.6.0 by @fontawesome - https://fontawesome.com License - https://fontawesome.com/license (Commercial License) Copyright 2024 Fonticons, Inc.--><path class="fa-secondary" opacity=".4" d="M85.3 256c0 94.3 76.4 170.7 170.7 170.7L256 272l-42.7 0c-8.8 0-16-7.2-16-16s7.2-16 16-16l42.7 0 0-154.7C161.7 85.3 85.3 161.7 85.3 256z"/><path class="fa-primary" d="M351.4 180.7c-6.2 6.2-6.2 16.4 0 22.6L388 240l-174.7 0c-8.8 0-16 7.2-16 16s7.2 16 16 16L388 272l-36.7 36.7c-6.2 6.2-6.2 16.4 0 22.6s16.4 6.2 22.6 0l64-64c6.2-6.2 6.2-16.4 0-22.6l-64-64c-6.2-6.2-16.4-6.2-22.6 0z"/></svg>