<svg xmlns="http://www.w3.org/2000/svg" viewBox="0 0 512 512"><!--!Font Awesome Pro 6.6.0 by @fontawesome - https://fontawesome.com License - https://fontawesome.com/license (Commercial License) Copyright 2024 Fonticons, Inc.--><path class="fa-secondary" opacity=".4" d="M74.1 421.9c0-4.1 1.6-8.2 4.7-11.3l47.4-47.4c6.2-6.2 16.4-6.2 22.6 0s6.2 16.4 0 22.6l-47.4 47.4c-6.2 6.2-16.4 6.2-22.6 0c-3.1-3.1-4.7-7.2-4.7-11.3zM78.3 79.3c6-6.5 16.1-7 22.6-1l47.4 43.3c6.5 6 7 16.1 1 22.6s-16.1 7-22.6 1L79.3 101.9c-6.5-6-7-16.1-1-22.6zm284.5 64.9c-6-6.5-5.5-16.6 1-22.6l47.4-43.3c3.1-2.8 6.9-4.2 10.8-4.2c4.3 0 8.7 1.8 11.8 5.2c2.8 3.1 4.2 6.9 4.2 10.8c0 4.3-1.8 8.7-5.2 11.8l-47.4 43.3c-6.5 6-16.6 5.5-22.6-1zm.5 219c6.2-6.2 16.4-6.2 22.6 0l47.4 47.4c6.2 6.2 6.2 16.4 0 22.6s-16.4 6.2-22.6 0l-47.4-47.4c-6.2-6.3-6.2-16.4 0-22.6z"/><path class="fa-primary" d="M149.3 256a106.7 106.7 0 1 1 213.3 0 106.7 106.7 0 1 1 -213.3 0zM256 26.7c8.8 0 16 7.2 16 16l0 42.7c0 8.8-7.2 16-16 16s-16-7.2-16-16l0-42.7c0-8.8 7.2-16 16-16zM26.7 256c0-8.8 7.2-16 16-16l42.7 0c8.8 0 16 7.2 16 16s-7.2 16-16 16l-42.7 0c-8.8 0-16-7.2-16-16zm384 0c0-8.8 7.2-16 16-16l42.7 0c8.8 0 16 7.2 16 16s-7.2 16-16 16l-42.7 0c-8.8 0-16-7.2-16-16zM256 410.7c8.8 0 16 7.2 16 16l0 42.7c0 8.8-7.2 16-16 16s-16-7.2-16-16l0-42.7c0-8.8 7.2-16 16-16z"/></svg>