<svg xmlns="http://www.w3.org/2000/svg" viewBox="0 0 512 512"><!--!Font Awesome Pro 6.5.2 by @fontawesome - https://fontawesome.com License - https://fontawesome.com/license (Commercial License) Copyright 2024 Fonticons, Inc.--><path class="fa-secondary" opacity=".4" d="M149.3 122.7l2.3 0c2.1 0 4.5 0 6.5 0c3-.1 7-.4 11-1.6c4.3-1.3 9.3-4 13-9.3c3.5-5.1 4.5-10.8 4.5-15.8s-1-10.7-4.5-15.8c-3.2-4.5-7.7-7.7-13-9.3c-3.6-1-7.3-1.6-11-1.6c-2.9-.1-5.9-.1-8.8 0zM45.8 278.6a150.9 150.9 0 0 0 -3.1 30.6c0 40.9 16.3 78.1 43.3 106.4c9.6 10.1 14.4 15.1 34.5 23.8c20.1 8.6 34 8.6 61.8 8.6h62.2c27.8 0 41.6 0 61.8-8.6c20.1-8.6 24.9-13.7 34.5-23.8c26.9-28.3 43.2-65.5 43.2-106.4c0-2.8-.1-5.6-.2-8.4c-12.8-6.7-34.1-13.1-57.1-16.7c-65.5-10.5-100 42.4-166 35.3c-47.3-5.1-84-28.1-114.9-40.7m114.9 40.7c66 7.1 100.5-45.7 166-35.3c22.9 3.7 44.3 10 57.1 16.7c-4.7-84.4-79.2-151.5-170.4-151.5c-83.1 0-152.3 55.6-167.5 129.3c30.9 12.6 67.7 35.6 114.9 40.7M277.3 122.7h28.2c14.1 0 27.9 3.3 40.5 9.6l16.6 8.3a30.9 30.9 0 0 1 4.9-16.2c3-4.6 7.1-8.3 11.9-11.2l-19.2-9.6a122.7 122.7 0 0 0 -54.8-12.9H277.3z"/><path class="fa-primary" d="M277.3 161V106.7c0-30.2 0-45.2-9.4-54.6c-9.3-9.4-24.4-9.4-54.6-9.4c-30.2 0-45.2 0-54.6 9.4c-4.3 4.3-6.6 9.7-7.9 17.3h.8c2 0 4.5 0 6.5 0c3 .1 7 .4 11 1.6c4.3 1.3 9.3 4 13 9.3c3.5 5.1 4.5 10.8 4.5 15.8s-1 10.7-4.5 15.8a24.2 24.2 0 0 1 -13 9.3 41.7 41.7 0 0 1 -11 1.6c-2 .1-4.5 0-6.5 0h-2.3V161a180.2 180.2 0 0 1 64-11.6c22.6 0 44.2 4.1 64 11.6M45.8 278.6a150.9 150.9 0 0 0 -3.1 30.6c0 40.9 16.3 78.1 43.3 106.4c9.6 10.1 14.4 15.1 34.5 23.8c20.1 8.6 34 8.6 61.8 8.6h62.2c27.8 0 41.6 0 61.8-8.6c20.1-8.6 24.9-13.7 34.5-23.8c26.9-28.3 43.2-65.5 43.2-106.4c0-2.8-.1-5.6-.2-8.4c-12.8-6.7-34.1-13.1-57.1-16.7c-65.5-10.5-100 42.4-166 35.3c-47.3-5.1-84-28.1-114.9-40.7m392.6-163.9c26.7 13.8 38.4 40.5 26 59.6c-12.4 19.1-44 23.4-70.8 9.6c-26.7-13.8-38.4-40.5-26-59.6c12.4-19.1 44-23.4 70.8-9.6"/></svg>