<svg xmlns="http://www.w3.org/2000/svg" viewBox="0 0 512 512"><!--!Font Awesome Pro 6.6.0 by @fontawesome - https://fontawesome.com License - https://fontawesome.com/license (Commercial License) Copyright 2024 Fonticons, Inc.--><path class="fa-secondary" opacity=".4" d="M42.7 170.7l0 85.3c0 60.3 0 90.5 18.7 109.3C79.2 383.1 107.4 384 162 384c-3-11.3-.6-23.8 7.5-33.2c5-5.8 8-13.1 8.6-20.8c1.4-17.9 15.6-32 33.5-33.5c7.7-.6 14.9-3.6 20.8-8.6c13.6-11.6 33.7-11.6 47.3 0c5.8 5 13.1 8 20.8 8.6c17.9 1.4 32 15.6 33.5 33.5c.6 7.7 3.6 14.9 8.6 20.8c1 1.2 1.9 2.4 2.8 3.7s1.6 2.6 2.2 3.9c1.3 2.7 2.3 5.5 2.9 8.3c1.2 5.7 1.1 11.6-.4 17.3c54.6 0 82.8-.9 100.6-18.7c18.7-18.7 18.7-48.9 18.7-109.3l0-85.3 0-.4c0-60.1 0-90.2-18.7-108.9c-18.7-18.7-48.9-18.7-109.3-18.7l-170.7 0-.3 0c-60.1 0-90.2 0-109 18.7C42.7 80.2 42.7 110.3 42.7 170.7zm90.7 32c0-8.8 7.2-16 16-16l213.3 0c8.8 0 16 7.2 16 16s-7.2 16-16 16l-213.3 0c-8.8 0-16-7.2-16-16zM176 128c0-8.8 7.2-16 16-16l128 0c8.8 0 16 7.2 16 16s-7.2 16-16 16l-128 0c-8.8 0-16-7.2-16-16z"/><path class="fa-primary" d="M279.7 288c-13.6-11.6-33.7-11.6-47.3 0c-5.8 5-13.1 8-20.8 8.6c-17.9 1.4-32 15.6-33.5 33.5c-.6 7.7-3.6 14.9-8.6 20.8c-11.6 13.6-11.6 33.7 0 47.3c5 5.8 8 13.1 8.6 20.8c1.4 17.9 15.6 32 33.5 33.5c7.7 .6 14.9 3.6 20.8 8.6c13.6 11.6 33.7 11.6 47.3 0c5.8-5 13.1-8 20.8-8.6c17.9-1.4 32-15.6 33.5-33.5c.6-7.7 3.6-14.9 8.6-20.8c11.6-13.6 11.6-33.7 0-47.3c-5-5.8-8-13.1-8.6-20.8c-1.4-17.9-15.6-32-33.5-33.5c-7.7-.6-14.9-3.6-20.8-8.6zm19.3 76.9l-45.7 42.7c-6.1 5.7-15.7 5.7-21.8 0l-18.3-17.1c-6.5-6-6.8-16.2-.8-22.6s16.2-6.8 22.6-.8l7.4 6.9 34.8-32.5c6.5-6 16.6-5.7 22.6 .8s5.7 16.6-.8 22.6zM176 128c0-8.8 7.2-16 16-16H320c8.8 0 16 7.2 16 16s-7.2 16-16 16H192c-8.8 0-16-7.2-16-16zm-26.7 58.7c-8.8 0-16 7.2-16 16s7.2 16 16 16H362.7c8.8 0 16-7.2 16-16s-7.2-16-16-16H149.3z"/></svg>