<svg xmlns="http://www.w3.org/2000/svg" viewBox="0 0 512 512"><!--!Font Awesome Pro 6.6.0 by @fontawesome - https://fontawesome.com License - https://fontawesome.com/license (Commercial License) Copyright 2024 Fonticons, Inc.--><path class="fa-secondary" opacity=".4" d="M59.5 401.4c0 16.6 3.4 29 11.7 39.2C90.4 464 126.6 464 198.8 464l114.4 0 .4 0c72 0 108 0 127.2-23.4c19.2-23.4 12.1-58.8-2-129.7l-12.8-64c-9.8-49.3-14.8-73.9-32.5-88.4s-42.8-14.5-93-14.5l-88.8 0-3.6 0c-47.8 0-72.2 .4-89.4 14.5c-17.7 14.5-22.6 39.1-32.5 88.4l-12.8 64c-8 40.1-13.8 68.8-13.8 90.5zM213.3 208a21.3 21.3 0 1 1 -42.7 0 21.3 21.3 0 1 1 42.7 0zm128 0a21.3 21.3 0 1 1 -42.7 0 21.3 21.3 0 1 1 42.7 0z"/><path class="fa-primary" d="M320 186.7a21.3 21.3 0 1 0 0 42.7 21.3 21.3 0 1 0 0-42.7zm-128 0a21.3 21.3 0 1 0 0 42.7 21.3 21.3 0 1 0 0-42.7zm16-64c0-26.5 21.5-48 48-48s48 21.5 48 48V144h9.2c8 0 15.6 0 22.8 0l0-21.4c0-44.2-35.8-80-80-80s-80 35.8-80 80l0 21.4c7.2 0 14.8 0 22.8 0H208V122.7z"/></svg>