<svg xmlns="http://www.w3.org/2000/svg" viewBox="0 0 512 512"><!--!Font Awesome Pro 6.6.0 by @fontawesome - https://fontawesome.com License - https://fontawesome.com/license (Commercial License) Copyright 2024 Fonticons, Inc.--><path class="fa-secondary" opacity=".4" d="M106.7 249.9c0 2.1-.1 4.1-.1 6.1s0 4 .1 6.1c.8 39.3 1.2 59 14.5 75.8c2.4 3.1 6 6.7 8.9 9.2c16.3 13.6 37.8 13.6 80.8 13.6c15.4 0 23.1 0 30.4 2c1.5 .4 3 .9 4.5 1.4c0-72 0-144 0-216c-1.5 .5-3 1-4.5 1.4c-7.3 2-15 2-30.4 2c-43 0-64.5 0-80.8 13.6c-3 2.5-6.5 6.1-8.9 9.2c-13.3 16.8-13.7 36.5-14.5 75.8z"/><path class="fa-primary" d="M272.3 132.1C259.4 141 253 145.4 245.9 148l0 216c7.2 2.6 13.6 7 26.4 15.9c50.6 35.1 76 52.6 97.2 45c4.1-1.5 8-3.6 11.5-6.2c18.4-13.6 19.8-45.1 22.6-108.2c1-23.4 1.7-43.4 1.7-54.5s-.7-31.1-1.7-54.5c-2.8-63.1-4.2-94.7-22.6-108.2c-3.5-2.6-7.5-4.7-11.5-6.2c-21.3-7.6-46.6 9.9-97.2 45z"/></svg>