<svg xmlns="http://www.w3.org/2000/svg" viewBox="0 0 512 512"><!--!Font Awesome Pro 6.6.0 by @fontawesome - https://fontawesome.com License - https://fontawesome.com/license (Commercial License) Copyright 2024 Fonticons, Inc.--><path class="fa-secondary" opacity=".4" d="M42.7 256c0 100.6 0 150.9 31.2 182.1s81.5 31.2 182.1 31.2s150.9 0 182.1-31.2s31.2-81.5 31.2-182.1l0-.8c0-100.1-.1-150.2-31.2-181.3C406.9 42.7 356.6 42.7 256 42.7s-150.8 0-182.1 31.2S42.7 155.4 42.7 256zm58.7-85.3c0-8.8 7.2-16 16-16s16 7.2 16 16l0 42.7c0 14.7 11.9 26.7 26.7 26.7l48 0 0-69.3c0-8.8 7.2-16 16-16s16 7.2 16 16l0 170.7c0 8.8-7.2 16-16 16s-16-7.2-16-16l0-69.3-48 0c-32.4 0-58.7-26.3-58.7-58.7l0-42.7zm170.7 0c0-8.8 7.2-16 16-16s16 7.2 16 16l0 71.2 79.1-82.3c6.1-6.4 16.3-6.6 22.6-.4s6.6 16.3 .4 22.6l-56.9 59.2 58.8 91.8c1.7 2.7 2.5 5.7 2.5 8.6c0 5.3-2.6 10.4-7.4 13.5c-2.7 1.7-5.7 2.5-8.6 2.5c-5.3 0-10.4-2.6-13.5-7.4l-54.7-85.3L304 288l0 53.3c0 8.8-7.2 16-16 16s-16-7.2-16-16l0-170.7z"/><path class="fa-primary" d="M405.8 159.1c6.4 6.1 6.6 16.3 .4 22.6l-56.9 59.2 58.8 91.8c4.8 7.4 2.6 17.3-4.8 22.1s-17.3 2.6-22.1-4.8l-54.7-85.3L304 288v53.3c0 8.8-7.2 16-16 16s-16-7.2-16-16V170.7c0-8.8 7.2-16 16-16s16 7.2 16 16v71.2l79.1-82.3c6.1-6.4 16.3-6.6 22.6-.4zm-288.4-4.5c8.8 0 16 7.2 16 16v42.7c0 14.7 11.9 26.7 26.7 26.7h48V170.7c0-8.8 7.2-16 16-16s16 7.2 16 16V341.3c0 8.8-7.2 16-16 16s-16-7.2-16-16V272H160c-32.4 0-58.7-26.3-58.7-58.7V170.7c0-8.8 7.2-16 16-16z"/></svg>