<svg xmlns="http://www.w3.org/2000/svg" viewBox="0 0 512 512"><!--!Font Awesome Pro 6.6.0 by @fontawesome - https://fontawesome.com License - https://fontawesome.com/license (Commercial License) Copyright 2024 Fonticons, Inc.--><path class="fa-secondary" opacity=".4" d="M293.8 45.4c1.9-7.2 8.4-12 15.5-12c1.3 0 2.7 .2 4 .5c80.6 20.7 144 84.2 164.8 164.8c.3 1.3 .5 2.7 .5 4c0 7.1-4.8 13.6-12 15.5c-8.6 2.2-17.3-2.9-19.5-11.5C429.3 137.3 374.7 82.7 305.3 64.9c-8.6-2.2-13.7-10.9-11.5-19.5z"/><path class="fa-primary" d="M137.5 78.6c11.2-7.5 23.1-13.9 35.4-19.1c29.9-12.7 44.9-19 64-6.3S256 86.6 256 128v42.7c0 40.2 0 60.3 12.5 72.8S301.1 256 341.3 256H384c41.4 0 62.2 0 74.8 19.1s6.3 34.1-6.3 64c-5.2 12.3-11.6 24.2-19.1 35.4c-23.4 35.1-56.8 62.4-95.7 78.6s-81.9 20.4-123.3 12.1S135 436.7 105.2 406.8S55 339 46.8 297.6s-4-84.3 12.1-123.3s43.5-72.3 78.6-95.7z"/></svg>