<svg xmlns="http://www.w3.org/2000/svg" viewBox="0 0 512 512"><!--!Font Awesome Pro 6.6.0 by @fontawesome - https://fontawesome.com License - https://fontawesome.com/license (Commercial License) Copyright 2024 Fonticons, Inc.--><path class="fa-secondary" opacity=".4" d="M213.3 149.3l0 213.3c0 20.2 0 30.2 6.2 36.4c6.2 6.2 16.3 6.2 36.4 6.2c20.2 0 30.2 0 36.4-6.2c6.2-6.2 6.2-16.3 6.2-36.4l0-213.3c0-20.1 0-30.2-6.2-36.4s-16.3-6.2-36.4-6.2s-30.2 0-36.4 6.2s-6.2 16.3-6.2 36.4zm149.3-64l0 277.3c0 20.1 0 30.2 6.2 36.4c6.2 6.2 16.3 6.2 36.3 6.2c20.2 0 30.3 0 36.5-6.2c6.2-6.2 6.2-16.3 6.2-36.3l0-277.5c0-20.1 0-30.2-6.2-36.4c-6.2-6.2-16.3-6.2-36.3-6.2c-20.2 0-30.3 0-36.6 6.2s-6.2 16.3-6.2 36.4z"/><path class="fa-primary" d="M70.2 198.2C64 204.5 64 214.6 64 234.7v128c0 20.1 0 30.2 6.2 36.4s16.3 6.2 36.4 6.2s30.2 0 36.4-6.2s6.2-16.3 6.2-36.4v-128c0-20.1 0-30.2-6.2-36.4s-16.3-6.2-36.4-6.2s-30.2 0-36.4 6.2zM64 453.3c-8.8 0-16 7.2-16 16s7.2 16 16 16H448c8.8 0 16-7.2 16-16s-7.2-16-16-16H64z"/></svg>