<svg xmlns="http://www.w3.org/2000/svg" viewBox="0 0 512 512"><!--!Font Awesome Pro 6.6.0 by @fontawesome - https://fontawesome.com License - https://fontawesome.com/license (Commercial License) Copyright 2024 Fonticons, Inc.--><path class="fa-secondary" opacity=".4" d="M42.7 256c0 9.2 .6 18.2 1.7 27.1l8.2-.4 .2 0 .6 0c.5 0 1.2 0 2.1-.1c1.8 0 4.3-.1 7.6-.1c6.4 0 15.6 .3 26.7 1.2c22.1 1.7 52.2 5.9 83.7 15.8c9.6 3 19.2 8 28.3 12.9c2.1 1.2 4.2 2.3 6.4 3.5c7.4 4.1 14.9 8.2 23.2 12.1c20.9 10 45.8 18.6 78.3 18.6c29.5 0 56.8-7.3 81.1-16.3c12.2-4.5 23.4-9.3 33.9-13.9l.4-.2c10.1-4.4 20-8.6 28.6-11.5l10.9-3.6c3.1-14.6 4.8-29.7 4.8-45.2c0-23.9-3.9-46.9-11.2-68.4l-11.2-.8-.2 0c-.2 0-.6 0-1.1 0c-1 0-2.6-.1-4.8-.1c-4.3 0-10.6 .2-18.6 1c-16.1 1.5-38.8 5.3-65 14.3c-5.6 1.9-12 5.4-20.4 10.4c-1.7 1-3.5 2.1-5.3 3.2c-6.9 4.1-14.7 8.8-23.2 13.2c-22 11.5-49.6 22-85.6 22c-51.6 0-94-17.1-123.3-34.1c-14.7-8.5-26.2-17-34.1-23.4c-4-3.2-7-5.9-9.2-7.9c-.4-.4-.7-.7-1.1-1c-8 22.4-12.3 46.5-12.3 71.6z"/><path class="fa-primary" d="M452.4 339.5c-4.6 1.9-9.6 4-15.2 6.4l-.2 .1c-10.4 4.5-22.3 9.6-35.3 14.4c-26.2 9.7-57.5 18.3-92.2 18.3c-38.7 0-68.3-10.3-92.1-21.7c-9.2-4.4-17.7-9.1-25.2-13.2c-2-1.1-4-2.2-5.8-3.2c-9.2-5-16.3-8.5-22.7-10.5c-28.5-9-56.1-12.8-76.6-14.5c-10.2-.8-18.6-1-24.4-1.1c-2.9 0-5.1 0-6.6 .1c-.7 0-1.3 0-1.6 0l-.4 0-.1 0-3.3 .2C76.4 404 158.6 469.3 256 469.3c88.2 0 163.9-53.5 196.4-129.9zM69.1 153.1l6.3 6.5 .1 .1 .4 .4c.4 .4 1 1 1.8 1.7c1.7 1.5 4.3 3.8 7.7 6.6c6.8 5.5 17 13 30 20.5c26 15 62.9 29.8 107.3 29.8c29.3 0 51.7-8.4 70.8-18.3c7.6-4 14.4-8 21.2-12.1c2-1.2 3.9-2.3 5.9-3.5c8.4-4.9 17.3-10 26.3-13.1c28.9-9.9 54.2-14.1 72.3-15.9c9.1-.9 16.4-1.1 21.5-1.1c1.1 0 2.2 0 3.1 0C407.7 88 337.2 42.7 256 42.7c-80.5 0-150.6 44.6-186.9 110.5z"/></svg>