<svg xmlns="http://www.w3.org/2000/svg" viewBox="0 0 512 512"><!--!Font Awesome Pro 6.6.0 by @fontawesome - https://fontawesome.com License - https://fontawesome.com/license (Commercial License) Copyright 2024 Fonticons, Inc.--><path class="fa-secondary" opacity=".4" d="M64 135.9l0 298.8c0 18.3 21 28 34.3 15.9c7.8-7.1 19.6-7.1 27.4 0l10.3 9.4c6.8 6.3 15.4 9.4 24 9.4s17.2-3.1 24-9.4c13.7-12.5 34.3-12.5 48 0c6.8 6.3 15.4 9.4 24 9.4s17.2-3.1 24-9.4c13.7-12.5 34.3-12.5 48 0c6.8 6.3 15.4 9.4 24 9.4s17.2-3.1 24-9.4l10.3-9.4c7.8-7.1 19.6-7.1 27.4 0C427 462.7 448 453 448 434.6l0-298.8c0-25.5 0-38.2-3.4-48.4c-6.4-19.5-21.2-34.7-40.1-41.3c-10-3.5-22.3-3.5-47.1-3.5l-202.9 0c-24.8 0-37.1 0-47.1 3.5C88.6 52.7 73.8 68 67.4 87.5C64 97.7 64 110.4 64 135.9zM133.3 160c0-8.8 7.2-16 16-16l10.7 0c8.8 0 16 7.2 16 16s-7.2 16-16 16l-10.7 0c-8.8 0-16-7.2-16-16zm0 74.7c0-8.8 7.2-16 16-16l10.7 0c8.8 0 16 7.2 16 16s-7.2 16-16 16l-10.7 0c-8.8 0-16-7.2-16-16zm0 74.7c0-8.8 7.2-16 16-16l10.7 0c8.8 0 16 7.2 16 16s-7.2 16-16 16l-10.7 0c-8.8 0-16-7.2-16-16zM208 160c0-8.8 7.2-16 16-16l138.7 0c8.8 0 16 7.2 16 16s-7.2 16-16 16L224 176c-8.8 0-16-7.2-16-16zm0 74.7c0-8.8 7.2-16 16-16l138.7 0c8.8 0 16 7.2 16 16s-7.2 16-16 16l-138.7 0c-8.8 0-16-7.2-16-16zm0 74.7c0-8.8 7.2-16 16-16l138.7 0c8.8 0 16 7.2 16 16s-7.2 16-16 16l-138.7 0c-8.8 0-16-7.2-16-16z"/><path class="fa-primary" d="M149.3 144c-8.8 0-16 7.2-16 16s7.2 16 16 16H160c8.8 0 16-7.2 16-16s-7.2-16-16-16H149.3zm74.7 0c-8.8 0-16 7.2-16 16s7.2 16 16 16H362.7c8.8 0 16-7.2 16-16s-7.2-16-16-16H224zm-74.7 74.7c-8.8 0-16 7.2-16 16s7.2 16 16 16H160c8.8 0 16-7.2 16-16s-7.2-16-16-16H149.3zm74.7 0c-8.8 0-16 7.2-16 16s7.2 16 16 16H362.7c8.8 0 16-7.2 16-16s-7.2-16-16-16H224zm-74.7 74.7c-8.8 0-16 7.2-16 16s7.2 16 16 16H160c8.8 0 16-7.2 16-16s-7.2-16-16-16H149.3zm74.7 0c-8.8 0-16 7.2-16 16s7.2 16 16 16H362.7c8.8 0 16-7.2 16-16s-7.2-16-16-16H224z"/></svg>