<svg xmlns="http://www.w3.org/2000/svg" viewBox="0 0 512 512"><!--!Font Awesome Pro 6.6.0 by @fontawesome - https://fontawesome.com License - https://fontawesome.com/license (Commercial License) Copyright 2024 Fonticons, Inc.--><path class="fa-secondary" opacity=".4" d="M64 64l0 128c0 106 86 192 192 192s192-86 192-192l0-128c0-11.8-9.6-21.3-21.3-21.3s-21.3 9.6-21.3 21.3l0 128c0 82.5-66.9 149.3-149.3 149.3s-149.3-66.9-149.3-149.3l0-128c0-11.8-9.6-21.3-21.3-21.3S64 52.2 64 64z"/><path class="fa-primary" d="M85.3 426.7C73.6 426.7 64 436.2 64 448s9.6 21.3 21.3 21.3H426.7c11.8 0 21.3-9.6 21.3-21.3s-9.6-21.3-21.3-21.3H85.3z"/></svg>