<svg xmlns="http://www.w3.org/2000/svg" viewBox="0 0 512 512"><!--!Font Awesome Pro 6.6.0 by @fontawesome - https://fontawesome.com License - https://fontawesome.com/license (Commercial License) Copyright 2024 Fonticons, Inc.--><path class="fa-secondary" opacity=".4" d="M242.2 247.7c4.2-7.1 13.3-9.8 20.8-6c5.6 2.8 8.9 8.5 8.9 14.4c0 1.2-.1 2.4-.4 3.6s-.7 2.3-1.3 3.5c2.8-5.6 5.4-10.9 7.9-15.9c12.5-25.2 21.9-44.4 33.4-58.5c6.5-8 13.3-13.7 21-17.4c7.7-3.8 17.3-6.1 30-6.1c50.1 0 90.7 40.6 90.7 90.7s-40.6 90.7-90.7 90.7c-20.4 0-39.2-6.7-54.4-18.1c-7.1-5.3-17.1-3.9-22.4 3.2s-3.9 17.1 3.2 22.4c20.5 15.4 46 24.5 73.6 24.5c67.7 0 122.7-54.9 122.7-122.7s-54.9-122.7-122.7-122.7c-16.7 0-31.2 3-44 9.3c-12.8 6.2-23 15.2-31.8 25.9c-14.1 17.2-25.5 40.4-37.9 65.6c-2.2 4.5-4.4 9-6.7 13.6z"/><path class="fa-primary" d="M58.7 256c0-50.1 40.6-90.7 90.7-90.7c20.4 0 39.2 6.7 54.4 18.1c7.1 5.3 17.1 3.9 22.4-3.2s3.9-17.1-3.2-22.4c-20.5-15.4-46-24.5-73.6-24.5C81.6 133.3 26.7 188.3 26.7 256s54.9 122.7 122.7 122.7c16.7 0 31.2-3 44-9.3c12.8-6.2 23-15.2 31.8-25.9c14.1-17.2 25.5-40.4 37.9-65.6c1.2-2.5 4.2-8.6 7.2-14.7c3.9-7.9 .7-17.6-7.2-21.5s-17.5-.7-21.4 7.2c-3.2 6.5-6.5 13.2-7.8 15.8c-12.5 25.2-21.9 44.4-33.4 58.5c-6.5 8-13.3 13.7-21 17.4c-7.7 3.8-17.3 6.1-30 6.1c-50.1 0-90.7-40.6-90.7-90.7z"/></svg>