<svg xmlns="http://www.w3.org/2000/svg" viewBox="0 0 512 512"><!--!Font Awesome Pro 6.6.0 by @fontawesome - https://fontawesome.com License - https://fontawesome.com/license (Commercial License) Copyright 2024 Fonticons, Inc.--><path class="fa-secondary" opacity=".4" d="M42.7 256a213.3 213.3 0 1 0 426.7 0A213.3 213.3 0 1 0 42.7 256zm90.7-2.5c0-32 11.9-64 35.8-88.4c37.1-37.9 92.1-46.6 137.3-25.8l16-16.4c3.1-3.1 7.2-4.8 11.4-4.8c2 0 4.1 .4 6 1.2c6 2.5 10 8.3 10 14.8l0 57.9c0 8.8-7.2 16-16 16l-56.6 0c-6.4 0-12.2-3.9-14.7-9.8s-1.2-12.8 3.3-17.4l16.2-16.6c-30.8-9.5-65.7-1.8-90.1 23.2c-35.6 36.4-35.6 95.6 0 132.1c35.4 36.2 92.6 36.2 128 0c20.6-21.1 29.4-50 26-77.7c-1.1-8.8 5.2-16.8 13.9-17.8s16.8 5.2 17.8 13.9c4.5 36.8-7 75.5-34.8 104c-47.9 49.1-125.8 49.1-173.7 0c-23.9-24.4-35.8-56.4-35.8-88.4z"/><path class="fa-primary" d="M349.9 134.1c0-6.5-3.9-12.4-10-14.8s-12.9-1-17.5 3.6l-16 16.4c-45.2-20.8-100.2-12.2-137.3 25.8c-47.7 48.9-47.7 127.9 0 176.8c47.9 49.1 125.8 49.1 173.7 0c27.8-28.5 39.4-67.1 34.8-104c-1.1-8.8-9.1-15-17.8-13.9s-15 9.1-13.9 17.8c3.4 27.7-5.3 56.6-26 77.7c-35.4 36.2-92.6 36.2-128 0c-35.6-36.4-35.6-95.6 0-132.1c24.4-25 59.3-32.7 90.1-23.2l-16.2 16.6c-4.5 4.6-5.8 11.5-3.3 17.4s8.3 9.8 14.7 9.8h56.6c8.8 0 16-7.2 16-16V134.1z"/></svg>