<svg xmlns="http://www.w3.org/2000/svg" viewBox="0 0 512 512"><!--!Font Awesome Pro 6.6.0 by @fontawesome - https://fontawesome.com License - https://fontawesome.com/license (Commercial License) Copyright 2024 Fonticons, Inc.--><path class="fa-secondary" opacity=".4" d="M42.8 216.2c-.1 12.3-.1 25.6-.1 39.8c0 100.6 0 150.9 31.2 182.1c31.2 31.2 81.3 31.2 181.5 31.2l.6 0c100.6 0 150.9 0 182.1-31.2s31.2-81.5 31.2-182.1c0-14.3 0-27.5-.1-39.8c0-6-.1-8.9-1.2-13.7s-1.8-6-3.1-8.6c.4 .8 .7 1.4 1 2l0-52.5c-3.7-31.4-11.5-53.1-27.9-69.5C406.8 42.7 356.6 42.7 256 42.7s-150.9 0-182.1 31.2C57.5 90.3 49.7 112 46 143.4l-2.5 61.4c.1-.7 .3-1.5 .5-2.3c-1.1 4.8-1.2 7.7-1.2 13.7zm122.6-72.1l181.3 0 0 79.9 0 6.6c0 10.6 0 17.8-.3 23.3c-.3 5.6-.9 7.3-1.1 7.7c-3.1 7.1-10.9 10.9-18.4 9.1c-.3-.1-2.1-.7-6.7-3.8c-4.5-3.1-10.2-7.5-18.6-13.9l-1.4-1.1c-7.9-6.1-14.1-10.8-20.8-13.7c-14.9-6.5-31.8-6.5-46.8 0c-6.7 2.9-12.9 7.7-20.8 13.7l-1.4 1.1c-8.4 6.5-14.1 10.9-18.6 13.9c-4.6 3.2-6.4 3.7-6.7 3.8c-7.5 1.8-15.3-2-18.4-9.1c-.1-.3-.7-2.1-1.1-7.7c-.3-5.4-.3-12.7-.3-23.3l0-86.5zm0 0l0 79.9 0 6.6 0-86.5z"/><path class="fa-primary" d="M165.3 144.1v86.5c0 10.6 0 17.8 .3 23.3c.3 5.6 .9 7.3 1.1 7.7c3.1 7.1 10.9 10.9 18.4 9.1c.4-.1 2.1-.7 6.7-3.8c4.5-3.1 10.2-7.5 18.6-13.9l1.4-1.1c7.9-6.1 14.1-10.8 20.8-13.7c14.9-6.5 31.8-6.5 46.8 0c6.7 2.9 12.9 7.7 20.8 13.7l1.4 1.1c8.4 6.5 14.1 10.9 18.6 13.9c4.6 3.2 6.4 3.7 6.7 3.8c7.5 1.8 15.3-2 18.4-9.1c.1-.3 .7-2.1 1.1-7.7c.3-5.4 .3-12.7 .3-23.3V144.1H165.3z"/></svg>