<svg xmlns="http://www.w3.org/2000/svg" viewBox="0 0 512 512"><!--!Font Awesome Pro 6.6.0 by @fontawesome - https://fontawesome.com License - https://fontawesome.com/license (Commercial License) Copyright 2024 Fonticons, Inc.--><path class="fa-secondary" opacity=".4" d="M106.7 104.4c0-22.3 18.1-40.4 40.4-40.4l217.8 0c22.3 0 40.4 18.1 40.4 40.4l0 66.2c0 7.5-.5 14.8-1.6 22C393.1 264.7 331 320 256 320c-75.4 0-137.8-55.9-147.9-128.6c-.9-6.8-1.4-13.7-1.4-20.8l0-66.2zm1.4 87c8.2-3.2 49.7-19 79-20.6c1.8-.1 3.6-.2 5.3-.2c25.6 0 44.6 10.7 63.6 21.3c20.3 11.4 40.6 22.8 68.9 21.2c29.1-1.6 70.2-17.2 78.8-20.5C393.1 264.7 331 320 256 320c-75.4 0-137.8-55.9-147.9-128.6zM240 319.2L240 432c10.7 0 21.3 0 32 0l0-112.8c-5.3 .6-10.6 .8-16 .8c-.2 0-.4 0-.6 0c-1.1 0-2.1 0-3.1 0l-.3 0c-1.3 0-2.6-.1-3.8-.2c-2.8-.1-5.4-.4-8.1-.6zm8.1 .6c1.3 .1 2.6 .1 3.8 .2c-1.3 0-2.6-.1-3.8-.2zm3.8 .2c.1 0 .2 0 .3 0l-.3 0zm.3 0c1 0 2.1 0 3.1 0c-1.1 0-2.1 0-3.1 0zm3.1 0c.2 0 .4 0 .6 0c-.2 0-.4 0-.6 0zm.6 0c5.4 0 10.7-.3 16-.8c-5.3 .6-10.6 .8-16 .8zm16-.8c-5.3 .6-10.6 .8-16 .8c75 0 137.1-55.3 147.7-127.4c-9.9 66.9-64 119.3-131.7 126.5z"/><path class="fa-primary" d="M240 432l-64 0c-8.8 0-16 7.2-16 16s7.2 16 16 16l160 0c8.8 0 16-7.2 16-16s-7.2-16-16-16l-64 0-32 0zm16-112c75 0 137.1-55.3 147.7-127.4c-8.6 3.4-49.7 18.9-78.8 20.5c-28.3 1.6-48.6-9.8-68.9-21.2s-40.6-22.8-68.9-21.2c-29.3 1.7-70.8 17.4-79 20.6C118.2 264.1 180.6 320 256 320z"/></svg>