<svg xmlns="http://www.w3.org/2000/svg" viewBox="0 0 512 512"><!--!Font Awesome Pro 6.5.2 by @fontawesome - https://fontawesome.com License - https://fontawesome.com/license (Commercial License) Copyright 2024 Fonticons, Inc.--><path class="fa-secondary" opacity=".4" d="M42.7 170.7l426.7 0c0 8.4 0 33.2 0 42.7l0 42.7c0 9.4 0 34.3 0 42.7l-.5 0-426.1 0c0-8.3 0-33.2 0-42.7l0-42.7c0-9.4 0-34.3 0-42.7zm192 64a21.3 21.3 0 1 0 42.7 0 21.3 21.3 0 1 0 -42.7 0z"/><path class="fa-primary" d="M277.3 234.7a21.3 21.3 0 1 1 -42.7 0 21.3 21.3 0 0 1 42.7 0m-234.7-64l426.7 0-.6-16c-1.4-43.1-6.4-69-24.4-87c-25-25-65.2-25-145.7-25l-85.3 0c-80.4 0-120.7 0-145.7 25c-18 18-23 43.9-24.4 87zM256 85.3a21.3 21.3 0 1 1 0 42.7 21.3 21.3 0 1 1 0-42.7zM43.2 314.7c1.4 43.1 6.4 69 24.4 87c6.5 6.5 14.4 11.6 23 14.9l0 52.8c0 8.8 7.2 16 16 16s16-7.2 16-16l0-45.4c22.8 2.8 52.1 2.8 90.7 2.8l85.3 0c38.5 0 67.8 0 90.7-2.8l0 45.4c0 8.8 7.2 16 16 16s16-7.2 16-16l0-52.8c8.6-3.3 16.5-8.4 23-14.9c18-18 23-43.9 24.4-87l0-16-426.1 0zM256 341.3a21.3 21.3 0 1 1 0 42.7 21.3 21.3 0 1 1 0-42.7z"/></svg>