<svg xmlns="http://www.w3.org/2000/svg" viewBox="0 0 512 512"><!--!Font Awesome Pro 6.6.0 by @fontawesome - https://fontawesome.com License - https://fontawesome.com/license (Commercial License) Copyright 2024 Fonticons, Inc.--><path class="fa-secondary" opacity=".4" d="M106.7 192l0 128c0 82.5 66.9 149.3 149.3 149.3s149.3-66.9 149.3-149.3l0-128c0-82.5-66.9-149.3-149.3-149.3s-149.3 66.9-149.3 149.3zM240 106.7c0-8.8 7.2-16 16-16s16 7.2 16 16l0 64c0 8.8-7.2 16-16 16s-16-7.2-16-16l0-64z"/><path class="fa-primary" d="M256 90.7c8.8 0 16 7.2 16 16v64c0 8.8-7.2 16-16 16s-16-7.2-16-16v-64c0-8.8 7.2-16 16-16z"/></svg>