<svg xmlns="http://www.w3.org/2000/svg" viewBox="0 0 512 512"><!--!Font Awesome Pro 6.6.0 by @fontawesome - https://fontawesome.com License - https://fontawesome.com/license (Commercial License) Copyright 2024 Fonticons, Inc.--><path class="fa-secondary" opacity=".4" d="M42.7 255.9c0 100.7 0 151 31.2 182.2s81.5 31.2 182.1 31.2s150.9 0 182.1-31.2c31.2-31.2 31.2-81.3 31.2-181.4l0-.7c0-26.4 0-49.3-.6-69.3l-425.5 0c-.6 20-.6 42.9-.6 69.2z"/><path class="fa-primary" d="M215.4 42.8c-74.1 .6-114.7 4.4-141.5 31.1C55.6 92.2 48 117 44.9 154.7h95.9L215.4 42.8zM467.1 154.7c-3.1-37.6-10.7-62.5-29-80.8c-12.7-12.7-28.7-20.3-49.9-24.8L317.9 154.7H467.1zM352.9 44.5c-25.8-1.9-57.5-1.9-96.9-1.9c-.7 0-1.4 0-2.1 0l-74.7 112H279.4L352.9 44.5z"/></svg>