<svg xmlns="http://www.w3.org/2000/svg" viewBox="0 0 512 512"><!--!Font Awesome Pro 6.6.0 by @fontawesome - https://fontawesome.com License - https://fontawesome.com/license (Commercial License) Copyright 2024 Fonticons, Inc.--><path class="fa-secondary" opacity=".4" d="M42.7 256a213.3 213.3 0 1 0 426.7 0A213.3 213.3 0 1 0 42.7 256zm69.3 .1c0-12.3 1.6-24.9 4.9-37.4c4.1-15.2 10.4-29.2 18.6-41.7c9.7-14.7 28.9-15.6 40.9-5.9l89.6 72.5c6.9 5.6 7.9 15.6 2.4 22.5s-15.6 7.9-22.5 2.4l-86.2-69.7c-5.1 8.6-9.2 18.1-11.9 28.3c-16 59.7 19.4 121.1 79.2 137.1s121.1-19.4 137.1-79.2s-19.4-121.1-79.2-137.1c-16.1-4.3-32.3-4.9-47.6-2.3c-8.7 1.5-17-4.4-18.5-13.1s4.4-17 13.1-18.5c7.8-1.3 15.8-2 23.9-2c12.3 0 24.9 1.6 37.3 4.9c76.8 20.6 122.4 99.5 101.8 176.3C377.8 357.6 319.7 400 256.1 400c-12.3 0-24.9-1.6-37.4-4.9C154.4 377.8 112 319.7 112 256.1z"/><path class="fa-primary" d="M237.3 145.6c15.4-2.6 31.5-2 47.6 2.3c59.7 16 95.2 77.4 79.2 137.1s-77.4 95.2-137.1 79.2s-95.2-77.4-79.2-137.1c2.7-10.2 6.8-19.7 11.9-28.3l86.2 69.7c6.9 5.6 16.9 4.5 22.5-2.4s4.5-16.9-2.4-22.5l-89.6-72.5c-12-9.7-31.3-8.8-40.9 5.9c-8.2 12.5-14.6 26.5-18.6 41.7c-20.6 76.8 25 155.7 101.8 176.3s155.7-25 176.3-101.8s-25-155.7-101.8-176.3c-20.6-5.5-41.5-6.3-61.3-2.9c-8.7 1.5-14.6 9.7-13.1 18.5s9.7 14.6 18.5 13.1z"/></svg>