<svg xmlns="http://www.w3.org/2000/svg" viewBox="0 0 512 512"><!--!Font Awesome Pro 6.6.0 by @fontawesome - https://fontawesome.com License - https://fontawesome.com/license (Commercial License) Copyright 2024 Fonticons, Inc.--><path class="fa-secondary" opacity=".4" d="M170.7 384c0 26 5.1 50.7 14.5 73.3c22.2 7.8 46 12 70.9 12c117.8 0 213.3-95.5 213.3-213.3c0-5.6-4.7-8.5-9.7-8.5c-3.9 0-8 1.8-10.2 5.5C425.1 293.1 381 320 330.7 320c-47.5 0-89.4-23.9-114.4-60.2c-28.5 33.5-45.6 76.9-45.6 124.2z"/><path class="fa-primary" d="M42.7 256c0 93 59.5 172.1 142.5 201.3c-9.3-22.6-14.5-47.3-14.5-73.3c0-47.4 17.2-90.8 45.6-124.2C201 237.4 192 210.4 192 181.3c0-50.4 26.9-94.5 67.1-118.8c8.4-5.1 6.8-19.9-3.1-19.9C138.2 42.7 42.7 138.2 42.7 256z"/></svg>