<svg xmlns="http://www.w3.org/2000/svg" viewBox="0 0 512 512"><!--!Font Awesome Pro 6.6.0 by @fontawesome - https://fontawesome.com License - https://fontawesome.com/license (Commercial License) Copyright 2024 Fonticons, Inc.--><path class="fa-secondary" opacity=".4" d="M64 298.7a192 192 0 1 0 384 0 192 192 0 1 0 -384 0zm176-85.3c0-8.8 7.2-16 16-16s16 7.2 16 16l0 85.3c0 8.8-7.2 16-16 16s-16-7.2-16-16l0-85.3z"/><path class="fa-primary" d="M256 197.3c8.8 0 16 7.2 16 16v85.3c0 8.8-7.2 16-16 16s-16-7.2-16-16V213.3c0-8.8 7.2-16 16-16zM197.3 58.7c0-8.8 7.2-16 16-16l85.3 0c8.8 0 16 7.2 16 16s-7.2 16-16 16l-85.3 0c-8.8 0-16-7.2-16-16z"/></svg>