<svg xmlns="http://www.w3.org/2000/svg" viewBox="0 0 512 512"><!--!Font Awesome Pro 6.6.0 by @fontawesome - https://fontawesome.com License - https://fontawesome.com/license (Commercial License) Copyright 2024 Fonticons, Inc.--><path class="fa-secondary" opacity=".4" d="M42.7 238a195.3 195.3 0 1 0 390.7 0A195.3 195.3 0 1 0 42.7 238zm85.3-3.3c0-8.4 6.8-15.2 15.2-15.2l15.2 0 0-5.1c0-6.8 .9-13.4 2.6-19.7l-14.5-7.2c-7.5-3.7-10.6-12.8-6.8-20.3s12.9-10.5 20.4-6.8l14.5 7.2c13.9-17.7 35.6-29 60-29s46 11.4 60 29l14.5-7.2c7.5-3.7 16.7-.7 20.4 6.8s.7 16.6-6.8 20.3l-14.5 7.2c1.7 6.3 2.6 12.9 2.6 19.7l0 5.1 15.2 0c8.4 0 15.2 6.8 15.2 15.2s-6.8 15.2-15.2 15.2l-15.2 0 0 5.1c0 6.8-.9 13.4-2.6 19.7l14.5 7.2c7.5 3.7 10.6 12.8 6.8 20.3s-12.9 10.5-20.4 6.8l-14.5-7.2c-13.9 17.7-35.6 29-60 29s-46-11.4-60-29l-14.5 7.2c-7.5 3.7-16.7 .7-20.4-6.8s-.7-16.6 6.8-20.3l14.5-7.2c-1.7-6.3-2.6-12.9-2.6-19.7l0-5.1-15.2 0c-8.4 0-15.2-6.8-15.2-15.2zm61-5.1l0 25.3c0 19.8 12.7 36.6 30.5 42.9l0-68.1-30.5 0zm2.6-30.3l86.2 0c-6.3-17.7-23.2-30.3-43.1-30.3s-36.8 12.7-43.1 30.3zm58.4 30.3l0 68.1c17.8-6.2 30.5-23.1 30.5-42.9l0-25.3-30.5 0z"/><path class="fa-primary" d="M401.9 401.9c6-6 15.8-6 21.8 0L464.8 443c6 6 6 15.8 0 21.8s-15.8 6-21.8 0l-41.1-41.1c-6-6-6-15.8 0-21.8zM234.7 138.7c-24.3 0-46 11.4-60 29l-14.5-7.2c-7.5-3.7-16.7-.7-20.4 6.8s-.7 16.6 6.8 20.3l14.5 7.2c-1.7 6.3-2.6 12.9-2.6 19.7l0 5.1-15.2 0c-8.4 0-15.2 6.8-15.2 15.2s6.8 15.2 15.2 15.2l15.2 0 0 5.1c0 6.8 .9 13.4 2.6 19.7l-14.5 7.2c-7.5 3.7-10.6 12.8-6.8 20.3s12.9 10.5 20.4 6.8l14.5-7.2c13.9 17.7 35.6 29 60 29s46-11.4 60-29l14.5 7.2c7.5 3.7 16.7 .7 20.4-6.8s.7-16.6-6.8-20.3l-14.5-7.2c1.7-6.3 2.6-12.9 2.6-19.7l0-5.1 15.2 0c8.4 0 15.2-6.8 15.2-15.2s-6.8-15.2-15.2-15.2l-15.2 0 0-5.1c0-6.8-.9-13.4-2.6-19.7l14.5-7.2c7.5-3.7 10.6-12.8 6.8-20.3s-12.9-10.5-20.4-6.8l-14.5 7.2c-13.9-17.7-35.6-29-60-29zm0 30.3c19.9 0 36.8 12.7 43.1 30.3l-86.2 0c6.3-17.7 23.2-30.3 43.1-30.3zM189 254.9l0-25.3 30.5 0 0 68.1c-17.8-6.2-30.5-23.1-30.5-42.9zm61 42.9l0-68.1 30.5 0 0 25.3c0 19.8-12.7 36.6-30.5 42.9z"/></svg>