<svg xmlns="http://www.w3.org/2000/svg" viewBox="0 0 512 512"><!--!Font Awesome Pro 6.6.0 by @fontawesome - https://fontawesome.com License - https://fontawesome.com/license (Commercial License) Copyright 2024 Fonticons, Inc.--><path class="fa-secondary" opacity=".4" d="M42.7 256c0 117.8 95.5 213.3 213.3 213.3c0-11.8 0-22.4 .1-32c.3-39.1 1.6-62.1 8.3-81.3c15-42.9 48.7-76.6 91.6-91.6c19.2-6.7 42.2-8.1 81.3-8.3c9.6-.1 20.2-.1 32-.1c0-117.8-95.5-213.3-213.3-213.3S42.7 138.2 42.7 256z"/><path class="fa-primary" d="M453.2 292.4L292.4 453.2c-1.4 1.4-2.9 2.8-4.4 4c-1.1 .9-2.3 1.8-3.4 2.6c-8.4 5.9-18.2 9.5-28.6 9.5c0-11.8 0-22.4 .1-32c.3-39.1 1.6-62.1 8.3-81.3c15-42.9 48.7-76.6 91.6-91.6c19.2-6.7 42.2-8.1 81.3-8.3c9.6-.1 20.2-.1 32-.1c0 10.4-3.6 20.2-9.5 28.6c-.8 1.2-1.7 2.3-2.6 3.4c-1.3 1.5-2.6 3-4 4.4z"/></svg>