<svg xmlns="http://www.w3.org/2000/svg" viewBox="0 0 512 512"><!--!Font Awesome Pro 6.6.0 by @fontawesome - https://fontawesome.com License - https://fontawesome.com/license (Commercial License) Copyright 2024 Fonticons, Inc.--><path class="fa-secondary" opacity=".4" d="M64 202.7l0 106.7c0 50.3 0 75.4 15.6 91s40.8 15.6 91 15.6l3 0c-3-18-3-41.9-3-74.7c0 60.3 0 90.5 18.7 109.3c18.7 18.7 48.8 18.7 108.9 18.7l.4 0 21.3 0c60.3 0 90.5 0 109.3-18.7C448 431.9 448 401.8 448 341.7l0-.3 0-170.7c0-60.3 0-90.5-18.7-109.3c-18.7-18.7-48.8-18.7-108.8-18.7l-.4 0-21.3 0c-60.3 0-90.5 0-109.3 18.7s-18.7 48.9-18.7 109.3c0-32.8 0-56.7 3-74.7l-3 0c-50.3 0-75.4 0-91 15.6S64 152.4 64 202.7zM90.7 256c0-8.8 7.2-16 16-16l64 0 89.4 0-15.4-15.4c-6.2-6.2-6.2-16.4 0-22.6c3.1-3.1 7.2-4.7 11.3-4.7s8.2 1.6 11.3 4.7L310 244.7c3.1 3.1 4.7 7.2 4.7 11.3s-1.6 8.2-4.7 11.3L267.3 310c-3.1 3.1-7.2 4.7-11.3 4.7s-8.2-1.6-11.3-4.7c-6.2-6.2-6.2-16.4 0-22.6L260 272l-89.4 0-64 0c-8.8 0-16-7.2-16-16z"/><path class="fa-primary" d="M310 244.7c6.2 6.2 6.2 16.4 0 22.6L267.3 310c-6.2 6.2-16.4 6.2-22.6 0s-6.2-16.4 0-22.6L260 272l-153.4 0c-8.8 0-16-7.2-16-16s7.2-16 16-16L260 240l-15.4-15.4c-6.2-6.2-6.2-16.4 0-22.6s16.4-6.2 22.6 0L310 244.7z"/></svg>