<svg xmlns="http://www.w3.org/2000/svg" viewBox="0 0 512 512"><!--!Font Awesome Pro 6.6.0 by @fontawesome - https://fontawesome.com License - https://fontawesome.com/license (Commercial License) Copyright 2024 Fonticons, Inc.--><path class="fa-secondary" opacity=".4" d="M272 469.3c110.4-8.2 197.3-100.4 197.3-213l0-.1 0-.1c0-117.8-95.5-213.3-213.3-213.3S42.7 138.2 42.7 256l0 .1 0 .1c0 112.6 87 204.8 197.3 213l0-.6C129.7 460.6 42.7 368.5 42.7 256.1C42.7 138.2 138.2 42.7 256 42.7s213.3 95.6 213.3 213.5c-.1 112.4-87 204.4-197.3 212.6l0 .6zm-32-.6c5.3 .4 10.6 .6 16 .6s10.7-.2 16-.6c110.3-8.2 197.3-100.2 197.3-212.6C469.3 138.2 373.8 42.7 256 42.7s-213.3 95.6-213.3 213.5c.1 112.4 87 204.4 197.3 212.6z"/><path class="fa-primary" d="M181.3 267c0 35.8 25.1 65.7 58.7 73l0 128.7c5.3 .4 10.6 .6 16 .6s10.7-.2 16-.6L272 340c33.6-7.3 58.7-37.3 58.7-73V256.3c0-11.8-9.6-21.4-21.3-21.4H304V192.2c0-8.8-7.2-16-16-16s-16 7.2-16 16v42.7H240V192.2c0-8.8-7.2-16-16-16s-16 7.2-16 16v42.7h-5.3c-11.8 0-21.3 9.6-21.3 21.4V267z"/></svg>