<svg xmlns="http://www.w3.org/2000/svg" viewBox="0 0 512 512"><!--!Font Awesome Pro 6.6.0 by @fontawesome - https://fontawesome.com License - https://fontawesome.com/license (Commercial License) Copyright 2024 Fonticons, Inc.--><path class="fa-secondary" opacity=".4" d="M61.6 365.6c0 9.2 7.4 16.6 22.1 31.3L115 428.3c14.8 14.8 22.1 22.2 31.3 22.2s16.6-7.4 31.3-22.2c2.6-2.6 5.2-5.2 7.8-7.8c-31.3-31.3-62.6-62.6-94-94c-2.6 2.6-5.2 5.2-7.8 7.8C69 349.1 61.6 356.5 61.6 365.6zM169.9 248.2l94 94 78.3-78.3c-31.3-31.3-62.6-62.6-94-94c-26.1 26.1-52.2 52.2-78.3 78.3zM326.5 91.5c31.3 31.4 62.6 62.7 93.9 94.1c2.6-2.6 5.3-5.3 7.9-7.9c14.8-14.8 22.2-22.1 22.2-31.3c0-8.6-6.5-15.6-19.5-28.6l-2.7-2.7L397 83.7c-14.8-14.8-22.1-22.1-31.3-22.1s-16.6 7.4-31.3 22.1c-2.6 2.6-5.2 5.2-7.8 7.8z"/><path class="fa-primary" d="M91.6 326.5l94 94 7.8 7.8L209 443.9c14.6 14.6 22 22 30.6 24.3c5.6 1.5 11.6 1.5 17.2 0c8.6-2.3 15.9-9.6 30.6-24.3s22-22 24.3-30.6c1.5-5.6 1.5-11.6 0-17.2c-2.3-8.6-9.6-15.9-24.3-30.6l-23.5-23.5-94-94-23.5-23.5c-14.6-14.6-22-22-30.6-24.3c-5.6-1.5-11.6-1.5-17.2 0c-8.6 2.3-15.9 9.6-30.6 24.3s-22 22-24.3 30.6c-1.5 5.6-1.5 11.6 0 17.2c2.3 8.6 9.6 15.9 24.3 30.6l23.5 23.5zm250.6-62.6l23.5 23.5c14.6 14.6 22 22 30.6 24.3c5.6 1.5 11.6 1.5 17.2 0c8.6-2.3 15.9-9.6 30.6-24.3s22-22 24.3-30.6c1.5-5.6 1.5-11.6 0-17.2c-2.3-8.6-9.6-15.9-24.3-30.6l-15.7-15.7-7.9-7.7L326.5 91.6 303 68.1c-14.6-14.6-22-22-30.6-24.3c-5.6-1.5-11.6-1.5-17.2 0c-8.6 2.3-15.9 9.6-30.6 24.3s-22 22-24.3 30.6c-1.5 5.6-1.5 11.6 0 17.2c2.3 8.6 9.6 15.9 24.3 30.6l23.5 23.5 94 94z"/></svg>