<svg xmlns="http://www.w3.org/2000/svg" viewBox="0 0 512 512"><!--!Font Awesome Pro 6.6.0 by @fontawesome - https://fontawesome.com License - https://fontawesome.com/license (Commercial License) Copyright 2024 Fonticons, Inc.--><path class="fa-secondary" opacity=".4" d="M26.7 245.3c0 8.8 7.2 16 16 16c17.7 0 27.5 2 33.6 4.6c5.3 2.3 8.7 5.7 12.4 11.7c.6 1.1 .9 1.5 1.2 2c.3 .5 .7 1.2 1.3 2.7c1.1 2.3 1.6 3.9 3.2 8.6l18.5 55.4c.7 2.1 1.8 3.9 3.1 5.5c-2.5-6.6-3.9-13.7-3.9-21.2c0-.4 0-.9 0-1.3s0-.9 .1-1.3c.1-.8 .1-1.7 .3-2.5c.2-1.7 .6-3.3 1-4.9c.9-3.2 2.2-6.2 3.8-8.9c3.3-5.5 7.9-10.2 13.4-13.4l-6-17.9c-1.5-4.4-2.5-7.5-4.4-11.6c-1.8-4-2.8-5.5-4.2-7.9c-6.1-10-14-18.7-26.8-24.3c-12.1-5.3-27.2-7.4-46.5-7.4c-8.8 0-16 7.2-16 16zM187.5 464.3c-2.8 8.4 1.7 17.4 10.1 20.2c1.7 .6 3.4 .8 5.1 .8c6.7 0 12.9-4.2 15.2-10.9c3.8-11.3 11.8-20.6 22.2-26l0 20.9c0 8.8 7.2 16 16 16s16-7.2 16-16l0-20.9c10.4 5.4 18.4 14.6 22.2 26c2.2 6.7 8.5 10.9 15.2 10.9c1.7 0 3.4-.3 5.1-.8c8.4-2.8 12.9-11.9 10.1-20.2c-8.1-24.4-27.8-43.1-52.5-50.1l0-24.9-32 0 0 24.9c-24.7 6.9-44.4 25.7-52.5 50.1zM240 256l0 37.3 32 0 0-37.3-32 0zm141.4 42.4c11.1 6.5 18.6 18.5 18.6 32.3c0 .9 0 1.9-.1 2.8s-.1 1.8-.2 2.8c-.2 1.8-.4 3.6-.8 5.4c-.7 3.5-1.7 7-2.9 10.3c1.4-1.6 2.4-3.4 3.1-5.5L417.6 291c1.6-4.8 2.1-6.3 3.2-8.6c.7-1.5 1.1-2.2 1.3-2.7c.3-.5 .6-1 1.2-2c3.7-6 7.1-9.3 12.4-11.7c6.1-2.7 15.9-4.6 33.6-4.6c8.8 0 16-7.2 16-16s-7.2-16-16-16c-19.3 0-34.4 2-46.5 7.4C410 242.4 402.1 251 396 261c-1.5 2.4-2.4 4-4.2 7.9c-1.9 4.1-2.9 7.2-4.4 11.6l-5.9 17.9z"/><path class="fa-primary" d="M112 330.7c0-20.6 16.7-37.3 37.3-37.3H362.7c20.6 0 37.3 16.7 37.3 37.3c0 32.4-26.3 58.7-58.7 58.7H170.7c-32.4 0-58.7-26.3-58.7-58.7zm29.4-186.3c5.1-42.9 7.7-64.4 20.1-79c3.9-4.7 8.5-8.7 13.6-12.1c16-10.6 37.6-10.6 80.9-10.6s64.8 0 80.9 10.6c5.1 3.4 9.7 7.4 13.6 12.1c12.4 14.7 15 36.1 20.1 79l1.9 16.2c5.3 44.5 8 66.8-4.7 81.1s-35.2 14.4-80 14.4H224.2c-44.9 0-67.3 0-80-14.4s-10.1-36.6-4.7-81.1l1.9-16.2z"/></svg>