<svg xmlns="http://www.w3.org/2000/svg" viewBox="0 0 512 512"><!--!Font Awesome Pro 6.6.0 by @fontawesome - https://fontawesome.com License - https://fontawesome.com/license (Commercial License) Copyright 2024 Fonticons, Inc.--><path class="fa-secondary" opacity=".4" d="M64 212.9l0 .4L64 256c0 80.5 0 120.7 25 145.7c13.2 13.2 30.6 19.4 55.9 22.4c-2-9-3.1-19.6-3.6-32.5c-.3-6.4-.4-13.4-.4-21c0-3.8 0-7.7-.1-11.8s0-8.4 0-12.8l0-102.8c0-58.2 0-87.2 18-105.3s47-18.1 104.9-18.1l61.4 0c4.4 0 8.6 0 12.7 0s8 0 11.8 .1c7.5 .1 14.5 .2 20.8 .4c12.8 .5 23.4 1.5 32.3 3.6c-2.9-25.5-9.2-43-22.4-56.2c-24.9-24.9-65-25-145.1-25l-.5 0c-80.5 0-120.7 0-145.7 25C64 92.6 64 132.7 64 212.9z"/><path class="fa-primary" d="M140.8 243.1c0-58.2 0-87.2 18-105.3s47-18.1 104.9-18.1h61.4c57.9 0 86.9 0 104.9 18.1s18 47.1 18 105.3V346c0 58.2 0 87.2-18 105.3s-47 18.1-104.9 18.1H263.7c-57.9 0-86.9 0-104.9-18.1s-18-47.1-18-105.3V243.1z"/></svg>