<svg xmlns="http://www.w3.org/2000/svg" viewBox="0 0 512 512"><!--!Font Awesome Pro 6.6.0 by @fontawesome - https://fontawesome.com License - https://fontawesome.com/license (Commercial License) Copyright 2024 Fonticons, Inc.--><path class="fa-secondary" opacity=".4" d="M64 277.3a192 192 0 1 0 384 0 192 192 0 1 0 -384 0zm112 0c0-8.8 7.2-16 16-16l128 0c8.8 0 16 7.2 16 16s-7.2 16-16 16l-128 0c-8.8 0-16-7.2-16-16z"/><path class="fa-primary" d="M320 261.3c8.8 0 16 7.2 16 16s-7.2 16-16 16l-128 0c-8.8 0-16-7.2-16-16s7.2-16 16-16l128 0zM175.8 49.9c4.6 7.2 2.3 16.7-5 21.3l-83 51.4c-7.3 4.5-16.9 2.3-21.5-4.9s-2.3-16.7 5-21.3l83-51.4c7.3-4.5 16.9-2.3 21.5 4.9zm160.4 0c4.6-7.2 14.2-9.4 21.5-4.9l83 51.4c7.3 4.5 9.5 14 5 21.3s-14.2 9.4-21.5 4.9l-83-51.4c-7.3-4.5-9.5-14-5-21.3z"/></svg>