<svg xmlns="http://www.w3.org/2000/svg" viewBox="0 0 512 512"><!--!Font Awesome Pro 6.5.2 by @fontawesome - https://fontawesome.com License - https://fontawesome.com/license (Commercial License) Copyright 2024 Fonticons, Inc.--><path class="fa-secondary" opacity=".4" d="M85.3 341.3c0-94.3 76.4-170.7 170.7-170.7s170.7 76.4 170.7 170.7l0 112-186.7 0-154.7 0 0-112zm139.8 23.7c-3.7 14 2.4 28.8 14.9 36l0 52.3 32 0 0-52.3c12.5-7.2 18.7-22 14.9-36s-16.4-23.7-30.9-23.7s-27.2 9.7-30.9 23.7zM272 453.3l154.7 0-186.7 0 32 0zm18.3-213.9c-3.3 8.1 .5 17.3 8.5 20.7c17.4 7 31.3 20.9 38.3 38.3c2.1 5.4 6.9 9.3 12.6 10.1s11.5-1.5 15-6.1s4.3-10.7 2-16.1c-10.3-25.4-30.5-45.6-55.9-56c-8.1-3.1-17.3 .9-20.5 8.9z"/><path class="fa-primary" d="M272 42.7a16 16 0 0 0 -32 0v64a16 16 0 0 0 32 0zm187.3 74a16 16 0 0 1 0 22.6l-32 32a16 16 0 1 1 -22.6-22.6l32-32a16 16 0 0 1 22.6 0m-384 0a16 16 0 0 0 -22.6 22.6l32 32a16 16 0 0 0 22.6-22.6zm235.6 113.8a16 16 0 0 0 -12 29.7c17.4 7 31.3 20.9 38.3 38.3a16 16 0 1 0 29.7-12 101.6 101.6 0 0 0 -55.9-56M272 401.1a32 32 0 1 0 -32 0v52.3h32zM85.3 453.3H42.7a16 16 0 0 0 0 32h426.7a16 16 0 0 0 0-32H240z"/></svg>