<svg xmlns="http://www.w3.org/2000/svg" viewBox="0 0 512 512"><!--!Font Awesome Pro 6.6.0 by @fontawesome - https://fontawesome.com License - https://fontawesome.com/license (Commercial License) Copyright 2024 Fonticons, Inc.--><path class="fa-secondary" opacity=".4" d="M26.7 64c0-8.8 7.2-16 16-16l426.7 0c8.8 0 16 7.2 16 16s-7.2 16-16 16L42.7 80c-8.8 0-16-7.2-16-16zm0 384c0-8.8 7.2-16 16-16l426.7 0c8.8 0 16 7.2 16 16s-7.2 16-16 16L42.7 464c-8.8 0-16-7.2-16-16z"/><path class="fa-primary" d="M85.3 256c0 40.2 0 60.3 12.5 72.8s32.6 12.5 72.8 12.5l170.7 0c40.2 0 60.3 0 72.8-12.5s12.5-32.6 12.5-72.8s0-60.3-12.5-72.8s-32.6-12.5-72.8-12.5H170.7c-40.2 0-60.3 0-72.8 12.5S85.3 215.8 85.3 256z"/></svg>