<svg xmlns="http://www.w3.org/2000/svg" viewBox="0 0 512 512"><!--!Font Awesome Pro 6.6.0 by @fontawesome - https://fontawesome.com License - https://fontawesome.com/license (Commercial License) Copyright 2024 Fonticons, Inc.--><path class="fa-secondary" opacity=".4" d="M48 320.2c0 37 14.8 74 44 102C121.1 450 159.4 464 197.6 464c37.8 0 75.5-13.7 104.3-41.2l7.8-7.5c6.4-6.1 6.6-16.2 .5-22.6s-16.2-6.6-22.6-.5l-7.8 7.5c-45.4 43.4-120.1 43-165.7-.6c-44.8-42.8-45.7-112.2-1.8-155.3l19.3-19c6.3-6.2 6.4-16.3 .2-22.6s-16.3-6.4-22.6-.2l-19.3 19C61.9 248.5 48 284.3 48 320.2zM201.6 118.6c6 6.5 16.2 6.8 22.6 .8l7.8-7.3c45.7-42.8 120.3-42.8 166.1 0c45.1 42.2 45.1 110.1 0 152.3l-47 43.9c-6.5 6-6.8 16.2-.8 22.6s16.2 6.8 22.6 .8l47-43.9c29.3-27.4 44-63.5 44-99.5s-14.7-72.1-44-99.5C391 61.6 353.1 48 315.1 48s-75.9 13.6-104.9 40.7L202.4 96c-6.5 6-6.8 16.2-.8 22.6z"/><path class="fa-primary" d="M155.3 57.9c-3.4-8.2-12.7-12-20.9-8.7s-12 12.7-8.7 20.9l19.5 47c3.4 8.2 12.7 12 20.9 8.7s12-12.7 8.7-20.9l-19.5-47zM81.7 115.5c-7.9-3.9-17.5-.6-21.4 7.4s-.6 17.5 7.4 21.4L186 202c7.9 3.9 17.5 .6 21.4-7.4s.6-17.5-7.4-21.4L81.7 115.5z"/></svg>