<svg xmlns="http://www.w3.org/2000/svg" viewBox="0 0 512 512"><!--!Font Awesome Pro 6.6.0 by @fontawesome - https://fontawesome.com License - https://fontawesome.com/license (Commercial License) Copyright 2024 Fonticons, Inc.--><path class="fa-secondary" opacity=".4" d="M74.7 98.7c0-30.9 25.1-56 56-56c51.5 0 93.3 41.8 93.3 93.3l0 98.7-37.3 0c0 14.7 11.9 26.7 26.7 26.7l85.3 0c14.7 0 26.7-11.9 26.7-26.7l-37.3 0 0-98.7c0-51.5 41.8-93.3 93.3-93.3c30.9 0 56 25.1 56 56l0 28.1c0 29.1-23.6 52.7-52.7 52.7c-9.7 0-17.6 7.9-17.6 17.6l0 37.6-9.7 0c0 32.4-26.3 58.7-58.7 58.7l-85.3 0c-32.4 0-58.7-26.3-58.7-58.7l-9.7 0 0-37.6c0-9.7-7.9-17.6-17.6-17.6c-29.1 0-52.7-23.6-52.7-52.7l0-28.1z"/><path class="fa-primary" d="M68.4 243C64 248.8 64 257.1 64 273.8v3.6c0 80 0 120 20.4 148c6.6 9.1 14.5 17 23.6 23.6c28 20.4 68 20.4 148 20.4s120 0 148-20.4c9.1-6.6 17-14.5 23.6-23.6c20.4-28 20.4-68 20.4-148v-3.6c0-16.7 0-25-4.4-30.8c-1.1-1.5-2.5-2.8-3.9-3.9c-5.7-4.4-14.1-4.4-30.8-4.4H357.3c0 32.4-26.3 58.7-58.7 58.7H213.3c-32.4 0-58.7-26.3-58.7-58.7H103.1c-16.7 0-25 0-30.8 4.4c-1.5 1.1-2.8 2.5-3.9 3.9zm118.3-8.3c0 14.7 11.9 26.7 26.7 26.7h85.3c14.7 0 26.7-11.9 26.7-26.7H186.7z"/></svg>