<svg xmlns="http://www.w3.org/2000/svg" viewBox="0 0 512 512"><!--!Font Awesome Pro 6.6.0 by @fontawesome - https://fontawesome.com License - https://fontawesome.com/license (Commercial License) Copyright 2024 Fonticons, Inc.--><path class="fa-secondary" opacity=".4" d="M42.7 256c0-100.6 0-150.8 31.2-182.1S155.4 42.7 256 42.7s150.9 0 182.1 31.2c31.2 31.2 31.2 81.3 31.2 181.3l0 .8c0 100.6 0 150.9-31.2 182.1s-81.5 31.2-182.1 31.2s-150.8 0-182.1-31.2S42.7 356.6 42.7 256zm69.3 0c0 38.3 31 69.3 69.3 69.3c32.8 0 60.3-22.8 67.5-53.3l65.9 0 0 16c0 8.8 7.2 16 16 16s16-7.2 16-16l0-16 16 0c2.9 0 5.3 2.4 5.3 5.3l0 21.3c0 8.8 7.2 16 16 16s16-7.2 16-16l0-21.3c0-20.6-16.7-37.3-37.3-37.3l-113.9 0c-7.2-30.6-34.7-53.3-67.5-53.3c-38.3 0-69.3 31-69.3 69.3zm106.7 0A37.3 37.3 0 1 1 144 256a37.3 37.3 0 1 1 74.7 0z"/><path class="fa-primary" d="M248.8 240c-7.2-30.6-34.7-53.3-67.5-53.3c-38.3 0-69.3 31-69.3 69.3s31 69.3 69.3 69.3c32.8 0 60.3-22.8 67.5-53.3l65.9 0 0 16c0 8.8 7.2 16 16 16s16-7.2 16-16l0-16 16 0c2.9 0 5.3 2.4 5.3 5.3l0 21.3c0 8.8 7.2 16 16 16s16-7.2 16-16l0-21.3c0-20.6-16.7-37.3-37.3-37.3l-113.9 0zm-67.5 53.3a37.3 37.3 0 1 1 0-74.7 37.3 37.3 0 1 1 0 74.7z"/></svg>