<svg xmlns="http://www.w3.org/2000/svg" viewBox="0 0 512 512"><!--!Font Awesome Pro 6.6.0 by @fontawesome - https://fontawesome.com License - https://fontawesome.com/license (Commercial License) Copyright 2024 Fonticons, Inc.--><path class="fa-secondary" opacity=".4" d="M469.3 256A213.3 213.3 0 1 1 42.7 256a213.3 213.3 0 1 1 426.7 0zM112 298.7c0 8.8 7.2 16 16 16l40.4 0-13 43.4c-2.5 8.5 2.3 17.4 10.7 19.9c1.5 .5 3.1 .7 4.6 .7c6.9 0 13.2-4.5 15.3-11.4l15.8-52.6 73.3 0-13 43.4c-2.5 8.5 2.3 17.4 10.7 19.9c1.5 .5 3.1 .7 4.6 .7c6.9 0 13.2-4.5 15.3-11.4l15.8-52.6 54.2 0c8.8 0 16-7.2 16-16s-7.2-16-16-16l-44.6 0 16-53.3 50 0c8.8 0 16-7.2 16-16s-7.2-16-16-16l-40.4 0 13-43.4c2.5-8.5-2.3-17.4-10.7-19.9s-17.4 2.3-19.9 10.7l-15.8 52.6-73.3 0 13-43.4c2.5-8.5-2.3-17.4-10.7-19.9s-17.4 2.3-19.9 10.7l-15.8 52.6-54.2 0c-8.8 0-16 7.2-16 16s7.2 16 16 16l44.6 0-16 53.3-50 0c-8.8 0-16 7.2-16 16zm99.4-16l16-53.3 73.3 0-16 53.3-73.3 0z"/><path class="fa-primary" d="M250 153.9c2.5-8.5-2.3-17.4-10.7-19.9s-17.4 2.3-19.9 10.7l-15.8 52.6-54.2 0c-8.8 0-16 7.2-16 16s7.2 16 16 16l44.6 0-16 53.3-50 0c-8.8 0-16 7.2-16 16s7.2 16 16 16l40.4 0-13 43.4c-2.5 8.5 2.3 17.4 10.7 19.9s17.4-2.3 19.9-10.7l15.8-52.6 73.3 0-13 43.4c-2.5 8.5 2.3 17.4 10.7 19.9s17.4-2.3 19.9-10.7l15.8-52.6 54.2 0c8.8 0 16-7.2 16-16s-7.2-16-16-16l-44.6 0 16-53.3 50 0c8.8 0 16-7.2 16-16s-7.2-16-16-16l-40.4 0 13-43.4c2.5-8.5-2.3-17.4-10.7-19.9s-17.4 2.3-19.9 10.7l-15.8 52.6-73.3 0 13-43.4zm50.6 75.4l-16 53.3-73.3 0 16-53.3 73.3 0z"/></svg>