<svg xmlns="http://www.w3.org/2000/svg" viewBox="0 0 512 512"><!--!Font Awesome Pro 6.6.0 by @fontawesome - https://fontawesome.com License - https://fontawesome.com/license (Commercial License) Copyright 2024 Fonticons, Inc.--><path class="fa-secondary" opacity=".4" d="M64 213l0 .3 0 128c0 60.3 0 90.5 18.7 109.3c18.7 18.7 48.8 18.7 108.9 18.7l.4 0 128 0c60.3 0 90.5 0 109.3-18.7S448 401.6 448 341.3l0-128c0-60.3 0-90.5-18.7-109.3c-16.4-16.4-41.5-18.4-87.9-18.7l0 10.7c0 17.7-14.3 32-32 32l-106.7 0c-17.7 0-32-14.3-32-32l0-10.7c-46.4 .3-71.5 2.3-87.9 18.7C64 122.8 64 152.9 64 213zm116.3 62c6-6.5 16.2-6.8 22.6-.8l25.7 23.9L309.1 223c6.5-6 16.6-5.7 22.6 .8s5.7 16.6-.8 22.6l-91.4 85.3c-3.1 2.9-7 4.3-10.9 4.3s-7.8-1.4-10.9-4.3l-36.6-34.1c-6.5-6-6.8-16.2-.8-22.6z"/><path class="fa-primary" d="M170.7 74.7c0-17.7 14.3-32 32-32H309.3c17.7 0 32 14.3 32 32V96c0 17.7-14.3 32-32 32H202.7c-17.7 0-32-14.3-32-32V74.7zm161 149.1c6 6.5 5.7 16.6-.8 22.6l-91.4 85.3c-6.1 5.7-15.7 5.7-21.8 0l-36.6-34.1c-6.5-6-6.8-16.2-.8-22.6s16.2-6.8 22.6-.8l25.7 23.9L309.1 223c6.5-6 16.6-5.7 22.6 .8z"/></svg>