<svg xmlns="http://www.w3.org/2000/svg" viewBox="0 0 512 512"><!--!Font Awesome Pro 6.6.0 by @fontawesome - https://fontawesome.com License - https://fontawesome.com/license (Commercial License) Copyright 2024 Fonticons, Inc.--><path class="fa-secondary" opacity=".4" d="M85.3 321.2c0 19.2 1.7 40.1 5.3 62.8c14.3-42.2 52.3-77.4 97.8-99.7c-2.1-10.9-2.9-24.5-3.8-38.5l-.6-10.4c-.1-2.1-.2-3.7-.3-5.1c-1-.8-2.1-1.8-3.6-3.1l-7.8-6.6c-10.9-9.2-21.6-18.2-29.1-26.7c-3.6-4.1-7.6-9.3-10.7-15.6c-27.6 31.2-47.2 77.1-47.2 142.8zM351 357.7c6 3.7 13.3 9 16.9 14.9s5 14.8 5.6 21.8c.1 1.5 1.8 2.4 3.3 2.4c.9 0 1.8-.3 2.2-1.1c3.7-6 9-13.3 14.9-16.9s14.8-5 21.8-5.6c1.5-.1 2.4-1.8 2.4-3.3c0-.9-.3-1.8-1.1-2.2c-6-3.7-13.3-9-16.9-14.9s-5-14.8-5.6-21.8c-.2-2.3-4.3-3.3-5.5-1.3c-3.7 6-9 13.3-14.9 16.9s-14.8 5-21.8 5.6c-2.3 .2-3.3 4.3-1.3 5.5z"/><path class="fa-primary" d="M219.2 352.3c.1-2.3 4-3.3 5.1-1.2c5.4 9.6 14.6 23.7 25.1 30.1s27.2 8.2 38.2 8.7c2.3 .1 3.3 4 1.2 5.1c-9.6 5.4-23.7 14.6-30.1 25.1s-8.2 27.2-8.7 38.2c-.1 2.3-4 3.3-5.1 1.2c-5.4-9.6-14.6-23.7-25.1-30.1s-27.2-8.2-38.2-8.7c-2.3-.1-3.3-4-1.2-5.1c9.6-5.4 23.7-14.6 30.1-25.1s8.2-27.2 8.7-38.2zm94.4-267l-5.2-6.5c-20-25.2-30-37.9-41.6-36s-17.2 17-28.3 47.2l-2.9 7.8c-3.2 8.6-4.7 12.9-7.8 16s-7.2 4.8-15.4 8.1l-7.5 3-5.3 2.1c-25.6 10.3-38.5 16.1-40.1 27.4c-1.8 12.1 10.4 22.4 34.9 43l6.3 5.3c6.9 5.9 10.4 8.8 12.4 12.8s2.3 8.6 2.8 17.8l.5 8.4c2 32.4 3 48.6 13.5 54.2s23.6-3.1 49.8-20.6l0 0 6.8-4.5c7.4-5 11.2-7.4 15.4-8.1s8.6 .5 17.2 2.9l7.8 2.2c30.3 8.4 45.5 12.6 53.8 4s4.2-24.3-4.1-55.7l-2.1-8.1c-2.3-8.9-3.5-13.4-2.9-17.8s3-8.3 7.8-16l0 0 4.3-7c16.8-27.2 25.1-40.8 19.7-51.8s-21.1-11.9-52.3-13.8l-8.1-.5c-8.9-.6-13.3-.8-17.2-2.9s-6.7-5.6-12.4-12.8l0 0z"/></svg>