<svg xmlns="http://www.w3.org/2000/svg" viewBox="0 0 512 512"><!--!Font Awesome Pro 6.6.0 by @fontawesome - https://fontawesome.com License - https://fontawesome.com/license (Commercial License) Copyright 2024 Fonticons, Inc.--><path class="fa-secondary" opacity=".4" d="M42.7 149.8c0 40.6 27.3 74.7 64 83.5l0-20c0-40.3 0-60.4 12.5-72.8C131.7 128 151.8 128 192 128l48 0 32 0 48 0c40.3 0 60.4 0 72.8 12.5c6.2 6.2 9.4 14.4 10.9 26c.8 5.8 1.2 12.5 1.4 20.2s.2 16.5 .2 26.6l0 20c36.7-8.9 64-42.9 64-83.5c0-47.4-37.1-85.8-83-85.8L125.6 64c-45.8 0-83 38.4-83 85.8zm64.1 212.9c.4 26.4 2.3 41.4 12.4 51.5c12.5 12.5 32.5 12.5 72.6 12.5l.2 0 128 0c40.2 0 60.3 0 72.8-12.5c10.1-10.1 12-25.1 12.4-51.5l-298.5 0z"/><path class="fa-primary" d="M240 128H192c-40.2 0-60.3 0-72.8 12.5s-12.5 32.6-12.5 72.8v128c0 7.8 0 14.9 .1 21.3H405.2c.1-6.4 .1-13.5 .1-21.3v-128c0-40.2 0-60.3-12.5-72.8S360.2 128 320 128H272V234.1l14.5-16.9c5.7-6.7 15.9-7.5 22.6-1.7s7.5 15.9 1.7 22.6l-42.7 49.8c-3 3.5-7.5 5.6-12.1 5.6s-9.1-2-12.1-5.6L201.2 238c-5.8-6.7-5-16.8 1.7-22.6s16.8-5 22.6 1.7L240 234.1V128z"/></svg>