<svg xmlns="http://www.w3.org/2000/svg" viewBox="0 0 576 512"><!--!Font Awesome Pro 6.6.0 by @fontawesome - https://fontawesome.com License - https://fontawesome.com/license (Commercial License) Copyright 2024 Fonticons, Inc.--><path class="fa-secondary" opacity=".4" d="M16 64l0 384c0 35.3 28.7 64 64 64l162.9 0c-11.2-12.6-18.9-28.9-18.9-48l-64 0c-8.8 0-16-7.2-16-16s7.2-16 16-16l64 0c2.5 0 4.9 .6 7 1.6c5.7-11.8 14.5-21.7 24.5-29.1c13.7-10.3 30.5-16.9 48.5-19.4L304 248c0-24.1 15.4-45.5 38.3-53.1l25.7-8.6L368 64c0-35.3-28.7-64-64-64L80 0C44.7 0 16 28.7 16 64z"/><path class="fa-primary" d="M576 184c0-7.7-3.7-15-10-19.5s-14.3-5.7-21.6-3.3l-192 64c-9.8 3.3-16.4 12.5-16.4 22.8l0 48 0 121.5c-5.1-1-10.5-1.5-16-1.5c-35.3 0-64 21.5-64 48s28.7 48 64 48s64-21.5 64-48l0-150.7 144-48 0 88.2c-5.1-1-10.5-1.5-16-1.5c-35.3 0-64 21.5-64 48s28.7 48 64 48s64-21.5 64-48c0-1.5-.1-3-.3-4.4c.2-1.2 .3-2.4 .3-3.6l0-160 0-48z"/></svg>