<svg xmlns="http://www.w3.org/2000/svg" viewBox="0 0 512 512"><!--!Font Awesome Pro 6.6.0 by @fontawesome - https://fontawesome.com License - https://fontawesome.com/license (Commercial License) Copyright 2024 Fonticons, Inc.--><path class="fa-secondary" opacity=".4" d="M64 146.5l0 1.4 0 21.7c0 11.8 9.6 21.3 21.3 21.3s21.3-9.6 21.3-21.3l0-20.3c0-20.7 0-34.1 1.4-44c1.2-9.3 3.3-12.2 4.9-13.8s4.5-3.6 13.8-4.9c9.9-1.3 23.3-1.4 44-1.4l64 0 0 106.7 0 42.7 42.7 0 0-42.7 0-106.7 64 0c20.7 0 34.1 0 44 1.4c9.3 1.2 12.2 3.3 13.8 4.9s3.6 4.5 4.9 13.8c1.3 9.9 1.4 23.3 1.4 44l0 20.3c0 11.8 9.6 21.3 21.3 21.3s21.3-9.6 21.3-21.3l0-21.7 0-1.9c0-18.1-.1-33.7-1.8-46.4c-1.9-14-6.1-27.4-17-38.3S405 46.3 391 44.4c-12.7-1.7-28.5-1.8-46.9-1.8l-1.4 0-173.5 0-1.4 0c-18.3 0-34.1 0-46.9 1.8c-14 1.9-27.4 6.1-38.3 17s-15.1 24.3-17 38.3C64 112.4 64 128.2 64 146.5zM128 448c0 11.8 9.6 21.3 21.3 21.3l106.6 0 106.7 0c11.8 0 21.3-9.6 21.3-21.3s-9.6-21.3-21.3-21.3l-85.3 0 0-149.3-42.7 0 0 149.3-85.3 0c-11.8 0-21.3 9.6-21.3 21.3z"/><path class="fa-primary" d="M85.3 234.7C73.6 234.7 64 244.2 64 256s9.6 21.3 21.3 21.3H426.7c11.8 0 21.3-9.6 21.3-21.3s-9.6-21.3-21.3-21.3H85.3z"/></svg>