<svg xmlns="http://www.w3.org/2000/svg" viewBox="0 0 512 512"><!--!Font Awesome Pro 6.6.0 by @fontawesome - https://fontawesome.com License - https://fontawesome.com/license (Commercial License) Copyright 2024 Fonticons, Inc.--><path class="fa-secondary" opacity=".4" d="M42.7 256a213.3 213.3 0 1 0 426.7 0A213.3 213.3 0 1 0 42.7 256zm58.7 0c0-39.6 15.1-79.2 45.3-109.4c3.1-3.1 7.2-4.7 11.3-4.7s8.2 1.6 11.3 4.7c6.2 6.2 6.2 16.4 0 22.6c-47.9 47.9-47.9 125.6 0 173.5c6.2 6.2 6.2 16.4 0 22.6c-3.1 3.1-7.2 4.7-11.3 4.7s-8.2-1.6-11.3-4.7c-30.2-30.2-45.3-69.8-45.3-109.4zm211.2 56.6A80 80 0 1 1 199.4 199.4 80 80 0 1 1 312.6 312.6zM222.1 222A48 48 0 1 0 289.9 290 48 48 0 1 0 222.1 222zm120.7-75.4c3.1-3.1 7.2-4.7 11.3-4.7s8.2 1.6 11.3 4.7c30.2 30.2 45.3 69.8 45.3 109.4s-15.1 79.2-45.3 109.4c-3.1 3.1-7.2 4.7-11.3 4.7s-8.2-1.6-11.3-4.7c-6.2-6.2-6.2-16.4 0-22.6c47.9-47.9 47.9-125.6 0-173.5c-6.2-6.2-6.2-16.4 0-22.6z"/><path class="fa-primary" d="M365.4 146.6c-6.2-6.2-16.4-6.2-22.6 0s-6.2 16.4 0 22.6c47.9 47.9 47.9 125.6 0 173.5c-6.2 6.2-6.2 16.4 0 22.6s16.4 6.2 22.6 0c60.4-60.4 60.4-158.3 0-218.7zM169.3 169.3c6.2-6.2 6.2-16.4 0-22.6s-16.4-6.2-22.6 0C86.2 207 86.2 305 146.6 365.4c6.2 6.2 16.4 6.2 22.6 0s6.2-16.4 0-22.6c-47.9-47.9-47.9-125.6 0-173.5zM312.6 312.6A80 80 0 1 1 199.4 199.4 80 80 0 1 1 312.6 312.6zM222.1 222A48 48 0 1 0 289.9 290 48 48 0 1 0 222.1 222z"/></svg>