<svg xmlns="http://www.w3.org/2000/svg" viewBox="0 0 512 512"><!--!Font Awesome Pro 6.6.0 by @fontawesome - https://fontawesome.com License - https://fontawesome.com/license (Commercial License) Copyright 2024 Fonticons, Inc.--><path class="fa-secondary" opacity=".4" d="M192 170.7l0 69.3 128 0c8.8 0 16 7.2 16 16s-7.2 16-16 16l-128 0 0 69.3c0 60.3 0 90.5 18.7 109.3c18.7 18.7 48.8 18.7 108.9 18.7l.3 0 21.4 0c60.3 0 90.5 0 109.3-18.7c18.7-18.7 18.7-48.8 18.7-108.9l0-.3 0-170.7c0-60.3 0-90.5-18.7-109.3c-18.7-18.7-48.8-18.7-108.8-18.7l-.4 0-21.3 0c-60.3 0-90.5 0-109.2 18.8S192 110.3 192 170.7z"/><path class="fa-primary" d="M336 256c0-8.8-7.2-16-16-16L85.9 240l41.8-35.9c6.7-5.8 7.5-15.9 1.7-22.6s-15.9-7.5-22.6-1.7l-74.7 64c-3.5 3-5.6 7.5-5.6 12.1s2 9.1 5.6 12.1l74.7 64c6.7 5.8 16.8 5 22.6-1.7s5-16.8-1.7-22.6L85.9 272 320 272c8.8 0 16-7.2 16-16z"/></svg>