<svg xmlns="http://www.w3.org/2000/svg" viewBox="0 0 512 512"><!--!Font Awesome Pro 6.6.0 by @fontawesome - https://fontawesome.com License - https://fontawesome.com/license (Commercial License) Copyright 2024 Fonticons, Inc.--><path class="fa-secondary" opacity=".4" d="M91.6 474.7c3 8.3 12.1 12.7 20.4 9.7l82.1-29.3c13.4-4.8 24.6-14.2 31.5-26.6l57.9-103.4c4.9-8.8 7.5-18.6 7.5-28.6l0-55.9c0-34.5-35.2-57.7-66.9-44.1l-52.4 22.5c-31.5 13.5-39.1 54.6-14.6 78.5l13.1 12.8c6.3 6.2 16.5 6 22.6-.3s6-16.5-.3-22.6l-13.1-12.8c-8.2-8-5.6-21.7 4.9-26.2l52.4-22.5c10.6-4.5 22.3 3.2 22.3 14.7l0 55.9c0 4.6-1.2 9-3.4 13L197.7 412.9c-3.2 5.6-8.2 9.9-14.3 12.1l-82.1 29.3c-8.3 3-12.7 12.1-9.7 20.4z"/><path class="fa-primary" d="M256 96a53.3 53.3 0 1 1 106.7 0A53.3 53.3 0 1 1 256 96zm97.3 203.8c35.7-5.8 68.1 21.8 68.1 57.9l0 111.6c0 8.8-7.2 16-16 16s-16-7.2-16-16l0-111.6c0-16.4-14.7-29-30.9-26.3l-21.6 3.5c-8.7 1.4-16.9-4.5-18.4-13.2s4.5-16.9 13.2-18.4l21.6-3.5z"/></svg>