<svg xmlns="http://www.w3.org/2000/svg" viewBox="0 0 512 512"><!--!Font Awesome Pro 6.6.0 by @fontawesome - https://fontawesome.com License - https://fontawesome.com/license (Commercial License) Copyright 2024 Fonticons, Inc.--><path class="fa-secondary" opacity=".4" d="M48 330.7c0 8.8 7.2 16 16 16l18 0 2.6 0c.8 0 1.6 0 2.4 0c13.8 0 24.9-.2 35.2-4.5c10.8-4.5 19.2-12.8 29.7-23.4l1.8-1.8 7-7c6.2-6.2 6.2-16.4 0-22.6s-16.4-6.2-22.6 0l-7 7c-13.3 13.3-16.9 16.5-21.1 18.3s-9.1 2-27.9 2l-18 0c-8.8 0-16 7.2-16 16zM250.7 213.3c0 8.8 7.2 16 16 16l64 0c8.8 0 16-7.2 16-16s-7.2-16-16-16l-64 0c-8.8 0-16 7.2-16 16z"/><path class="fa-primary" d="M277.3 85.3a42.7 42.7 0 1 1 85.3 0 42.7 42.7 0 1 1 -85.3 0zM132.5 129c29.7-18.6 66.7-21.4 98.9-7.6c25.2 10.8 31.5 43.6 12.1 63l-35.3 35.3c-7.5 7.5-6.9 19.7 1.2 26.5l21.3 17.7c12.6 10.5 20 26.2 20 42.6l0 34.8c0 8.8-7.2 16-16 16s-16-7.2-16-16l0-34.8c0-7-3.1-13.6-8.4-18L189 270.7c-22.6-18.8-24.1-52.9-3.3-73.7l35.3-35.3c3.4-3.4 2.3-9.1-2.1-11c-22.6-9.7-48.5-7.7-69.3 5.3l-45 28.1c-7.5 4.7-17.4 2.4-22-5.1s-2.4-17.4 5.1-22l45-28.1zM65.9 469.3H415.8c29.6 0 53.6-24 53.6-53.6c0-33.3-30-58.5-62.8-52.8l-3.5 .6L427.4 192l0-.1c1.1-7.5 1.8-11.8 2.6-14.9c.4-1.4 .7-2.1 .8-2.5c.1-.2 .1-.2 .1-.2l0 0 0 0s.1-.1 .2-.1c.3-.2 1-.5 2.4-1c3.1-1 7.4-1.9 14.8-3.4l24-4.8c8.7-1.7 14.3-10.2 12.6-18.8s-10.2-14.3-18.8-12.6l-24.7 4.9c-6.5 1.3-12.6 2.5-17.6 4.1c-5.6 1.8-11.3 4.5-16.1 9.5s-7.2 10.9-8.7 16.6c-1.4 5.1-2.3 11.2-3.3 17.7l-.1 .7L369.9 369.4 61.9 423.3c-11.1 1.9-19.2 11.6-19.2 22.8c0 12.8 10.4 23.2 23.2 23.2z"/></svg>