<svg xmlns="http://www.w3.org/2000/svg" viewBox="0 0 512 512"><!--!Font Awesome Pro 6.6.0 by @fontawesome - https://fontawesome.com License - https://fontawesome.com/license (Commercial License) Copyright 2024 Fonticons, Inc.--><path class="fa-secondary" opacity=".4" d="M80 220.4L462.7 430.9c6.7-19.1 6.7-46.7 6.7-89.5c0-60.3 0-90.5-18.7-109.3c-10.5-10.5-24.5-15.1-45.3-17.1c-6.4-.2-15.9-.5-26.7-.7l0 63.1c0 8.8-7.2 16-16 16s-16-7.2-16-16l0-63.7c-9.6-.2-18.9-.3-26.7-.3l-149.3 0c-43.6 0-71.5 0-90.6 7.1z"/><path class="fa-primary" d="M229.5 339.2L53.6 242.4C42.7 261.6 42.7 291 42.7 341.3c0 56.9 0 86.9 15.7 105.9L229.5 339.2zM170.7 469.3H341.3c53 0 82.7 0 101.8-12.7L261.5 356.8 89.9 465.1c18.6 4.2 44.1 4.2 80.7 4.2zm192-426.7c-35.3 0-64 28.7-64 64c0 29.8 20.4 54.9 48 62l0 108.7c0 8.8 7.2 16 16 16s16-7.2 16-16V168.7c27.6-7.1 48-32.2 48-62c0-35.3-28.7-64-64-64z"/></svg>