<svg xmlns="http://www.w3.org/2000/svg" viewBox="0 0 512 512"><!--!Font Awesome Pro 6.6.0 by @fontawesome - https://fontawesome.com License - https://fontawesome.com/license (Commercial License) Copyright 2024 Fonticons, Inc.--><path class="fa-secondary" opacity=".4" d="M469.3 256A213.3 213.3 0 1 1 42.7 256a213.3 213.3 0 1 1 426.7 0zM128 298c0 14.8 11.9 26.6 35.6 50.4S199.3 384 214 384s26.6-11.9 50.4-35.6l5.5-5.5L169.1 242.1l-5.5 5.5C139.9 271.4 128 283.2 128 298zm63.7-78.5L292.5 320.3l55.9-55.9C372.1 240.6 384 228.8 384 214s-11.9-26.6-35.6-50.4S312.7 128 298 128s-26.6 11.9-50.4 35.6l-55.9 55.9z"/><path class="fa-primary" d="M247.6 163.6C271.4 139.9 283.2 128 298 128s26.6 11.9 50.4 35.6S384 199.3 384 214s-11.9 26.6-35.6 50.4l-55.9 55.9L191.7 219.5l55.9-55.9zm-78.5 78.5L269.9 342.9l-5.5 5.5C240.6 372.1 228.8 384 214 384s-26.6-11.9-50.4-35.6S128 312.7 128 298s11.9-26.6 35.6-50.4l5.5-5.5z"/></svg>