<svg xmlns="http://www.w3.org/2000/svg" viewBox="0 0 512 512"><!--!Font Awesome Pro 6.6.0 by @fontawesome - https://fontawesome.com License - https://fontawesome.com/license (Commercial License) Copyright 2024 Fonticons, Inc.--><path class="fa-secondary" opacity=".4" d="M42.7 256c0 80.5 0 120.7 25 145.7c24.9 24.9 65.1 25 145.2 25l.5 0 85.3 0c80.5 0 120.7 0 145.7-25c24.9-24.9 25-65.1 25-145.2l0-.5c0-80.5 0-120.7-25-145.7c-24.9-24.9-65.1-25-145.2-25l-.5 0-85.3 0c-80.5 0-120.7 0-145.7 25s-25 65.2-25 145.7zM112 220.7c0-8.2 0-15.7 .8-21.9c.9-7 2.9-14.5 8.6-20.9c1-1.1 2-2.1 3.1-3.1c6.4-5.7 13.9-7.8 20.9-8.6c6.4-.8 14.2-.8 22.7-.8l47.6 0c8.5 0 16.3 0 22.7 .8c7 .9 14.5 2.9 20.9 8.6c1.1 1 2.1 2 3.1 3.1c5.7 6.4 7.8 13.9 8.6 20.9c.8 6.1 .8 13.5 .8 21.5l0 1.3 0 .9c0 8.8-7.2 16-16 16s-16-7.2-16-16c0-9.7 0-15.5-.6-19.7s-4.9-4.9-4.9-4.9c-4.2-.5-10-.6-19.7-.6l-6.9 0 0 117.3 26.7 0c8.8 0 16 7.2 16 16s-7.2 16-16 16l-85.3 0c-8.8 0-16-7.2-16-16s7.2-16 16-16l26.7 0 0-117.3-6.9 0c-9.7 0-15.5 0-19.7 .6c0 0-4.3 .7-4.9 4.9s-.6 10-.6 19.7c0 8.8-7.2 16-16 16s-16-7.2-16-16l0-.9 0-.8z"/><path class="fa-primary" d="M145.4 166.1c6.4-.8 14.2-.8 22.7-.8h47.6c8.5 0 16.3 0 22.7 .8c7 .9 14.5 2.9 20.9 8.6c1.1 1 2.1 2 3.1 3.1c5.7 6.4 7.8 13.9 8.6 20.9c.8 6.4 .8 14.2 .8 22.7l0 .9c0 8.8-7.2 16-16 16s-16-7.2-16-16c0-9.7 0-15.5-.6-19.7s-4.9-4.9-4.9-4.9c-4.2-.5-10-.6-19.7-.6H208V314.7h26.7c8.8 0 16 7.2 16 16s-7.2 16-16 16H149.3c-8.8 0-16-7.2-16-16s7.2-16 16-16H176V197.3h-6.9c-9.7 0-15.5 0-19.7 .6c0 0-4.3 .7-4.9 4.9s-.6 10-.6 19.7c0 8.8-7.2 16-16 16s-16-7.2-16-16l0-.9c0-8.5 0-16.3 .8-22.7c.9-7 2.9-14.5 8.6-20.9c1-1.1 2-2.1 3.1-3.1c6.4-5.7 13.9-7.8 20.9-8.6z"/></svg>