<svg xmlns="http://www.w3.org/2000/svg" viewBox="0 0 512 512"><!--!Font Awesome Pro 6.6.0 by @fontawesome - https://fontawesome.com License - https://fontawesome.com/license (Commercial License) Copyright 2024 Fonticons, Inc.--><path class="fa-secondary" opacity=".4" d="M42.7 256a213.3 213.3 0 1 0 426.7 0A213.3 213.3 0 1 0 42.7 256zm128 0c0-40.2 0-60.3 12.5-72.8s32.6-12.5 72.8-12.5l.3 0c40 0 60.1 0 72.5 12.5c12.5 12.5 12.5 32.6 12.5 72.8l0 .2c0 40.1 0 60.1-12.5 72.6c-12.5 12.5-32.6 12.5-72.8 12.5l-.2 0c-40.1 0-60.1 0-72.6-12.5c-12.5-12.5-12.5-32.6-12.5-72.8z"/><path class="fa-primary" d="M183.2 183.2c-12.5 12.5-12.5 32.6-12.5 72.8s0 60.3 12.5 72.8s32.6 12.5 72.8 12.5s60.3 0 72.8-12.5s12.5-32.6 12.5-72.8s0-60.3-12.5-72.8s-32.6-12.5-72.8-12.5s-60.3 0-72.8 12.5z"/></svg>