<svg xmlns="http://www.w3.org/2000/svg" viewBox="0 0 512 512"><!--!Font Awesome Pro 6.6.0 by @fontawesome - https://fontawesome.com License - https://fontawesome.com/license (Commercial License) Copyright 2024 Fonticons, Inc.--><path class="fa-secondary" opacity=".4" d="M42.7 298.7c0-17.9 0-33.8 .3-48l426.1 0c.3 14.1 .3 29.8 .3 47.5l0 .5c0 17.9 0 33.8-.3 48l-426.1 0c.1 5.9 .3 11.5 .5 16.8c-.8-18.1-.8-39.5-.8-64.8zm1.7-80c2.5-30.7 8.5-50.9 23.3-65.7c18-18 43.9-23 87-24.4c9.7-.3 20.4-.5 32-.5c8.2 0 16.9 0 26.2 0l.5 0 85.3 0 26.7 0c11.6 .1 22.3 .2 32 .5c43.1 1.4 69 6.4 87 24.4c14.8 14.8 20.8 35 23.3 65.7l-423.3 0zm0 160l423.3 0c-2.5 30.7-8.5 50.9-23.3 65.7c-24.9 24.9-65.1 25-145.2 25l-.5 0-85.3 0c-80.5 0-120.7 0-145.7-25c-14.8-14.8-20.8-35-23.3-65.7z"/><path class="fa-primary" d="M257.1 26.7h-2.2c-19.2 0-35.2 0-47.8 1.7c-13.4 1.8-25.5 5.8-35.2 15.5s-13.7 21.8-15.5 35.2c-1.7 12.7-1.7 28.7-1.7 47.8l0 1.7c9.7-.3 20.4-.5 32-.5v0c0-20.6 0-34.4 1.4-44.7c1.3-9.8 3.6-14.1 6.4-16.8s7-5.1 16.8-6.4c10.3-1.4 24.1-1.4 44.7-1.4s34.4 0 44.7 1.4c9.8 1.3 14.1 3.6 16.8 6.4s5.1 7 6.4 16.8c1.4 10.3 1.4 24.1 1.4 44.7v0c11.6 .1 22.3 .2 32 .5v-1.7c0-19.2 0-35.2-1.7-47.8c-1.8-13.4-5.8-25.5-15.5-35.2s-21.8-13.7-35.2-15.5c-12.7-1.7-28.7-1.7-47.8-1.7zM44.4 378.7c-.8-9.6-1.2-20.2-1.4-32l426.1 0c-.2 11.8-.6 22.4-1.4 32l-423.3 0zm423.3-160c.8 9.6 1.2 20.2 1.4 32l-426.1 0c.2-11.8 .6-22.4 1.4-32H467.6z"/></svg>