<svg xmlns="http://www.w3.org/2000/svg" viewBox="0 0 512 512"><!--!Font Awesome Pro 6.6.0 by @fontawesome - https://fontawesome.com License - https://fontawesome.com/license (Commercial License) Copyright 2024 Fonticons, Inc.--><path class="fa-secondary" opacity=".4" d="M26.7 160c0 8.8 7.2 16 16 16l10.7 0c8.8 0 16-7.2 16-16s-7.2-16-16-16l-10.7 0c-8.8 0-16 7.2-16 16zM65.7 65.7c-6.2 6.2-6.2 16.4 0 22.6L70.3 93c6.2 6.2 16.4 6.2 22.6 0s6.2-16.4 0-22.6l-4.6-4.6c-6.2-6.2-16.4-6.2-22.6 0zm0 165.9c-6.2 6.2-6.2 16.4 0 22.6c3.1 3.1 7.2 4.7 11.3 4.7s8.2-1.6 11.3-4.7l4.6-4.6c6.2-6.2 6.2-16.4 0-22.6s-16.4-6.2-22.6 0l-4.6 4.6zm30.3-61c0 32 20.2 59.4 48.5 70c3.4-52.3 40.5-95.5 90.1-108.5C221.5 110.5 197.8 96 170.7 96C129.4 96 96 129.4 96 170.7zm48-128l0 10.7c0 8.8 7.2 16 16 16s16-7.2 16-16l0-10.7c0-8.8-7.2-16-16-16s-16 7.2-16 16zm83 27.7c-6.2 6.2-6.2 16.4 0 22.6s16.4 6.2 22.6 0l4.6-4.6c3.1-3.1 4.7-7.2 4.7-11.3s-1.6-8.2-4.7-11.3c-6.2-6.2-16.4-6.2-22.6 0L227 70.3z"/><path class="fa-primary" d="M347.4 469.3c67.3 0 121.9-53.9 121.9-120.5c0-52.7-34.3-97.6-82-113.9c-6.8-60.2-58.4-107-121.1-107c-67.3 0-121.9 53.9-121.9 120.5c0 14.7 2.7 28.8 7.6 41.9c-5.7-1.1-11.7-1.7-17.7-1.7c-50.5 0-91.4 40.5-91.4 90.4s40.9 90.4 91.4 90.4H347.4z"/></svg>