<svg xmlns="http://www.w3.org/2000/svg" viewBox="0 0 512 512"><!--!Font Awesome Pro 6.6.0 by @fontawesome - https://fontawesome.com License - https://fontawesome.com/license (Commercial License) Copyright 2024 Fonticons, Inc.--><path class="fa-secondary" opacity=".4" d="M42.7 273.9c0 58 23.9 110.5 62.5 148.4c2.9 2.9 6.7 4.3 10.5 4.3s7.6-1.4 10.5-4.3c5.8-5.7 5.8-15 0-20.7C93 369 72.4 323.8 72.4 273.9c0-99.8 82.2-180.6 183.6-180.6s183.6 80.9 183.6 180.6c0 49.9-20.5 95-53.8 127.7c-5.8 5.7-5.8 15 0 20.7c2.9 2.9 6.7 4.3 10.5 4.3s7.6-1.4 10.5-4.3c38.6-38 62.5-90.5 62.5-148.4C469.3 158 373.8 64 256 64S42.7 158 42.7 273.9zm79.4 0c0 36.4 15 69.4 39.2 93.2c5.8 5.7 15.2 5.7 21 0s5.8-15 0-20.7c-18.9-18.6-30.5-44.2-30.5-72.5c0-56.6 46.6-102.5 104.2-102.5s104.2 45.9 104.2 102.5c0 28.3-11.6 53.9-30.5 72.5c-5.8 5.7-5.8 15 0 20.7s15.2 5.7 21 0c24.2-23.8 39.2-56.8 39.2-93.2c0-72.8-60-131.8-134-131.8s-134 59-134 131.8z"/><path class="fa-primary" d="M219.9 370c16.4-18.7 24.6-28 34.7-28.6c.9-.1 1.8-.1 2.8 0c10.1 .6 18.3 9.9 34.7 28.6c35.6 40.7 53.4 61 48.5 78.5c-.4 1.5-1 3-1.6 4.4c-7.3 16.4-32.5 16.4-82.9 16.4s-75.6 0-82.9-16.4c-.6-1.4-1.2-2.9-1.6-4.4c-5-17.5 12.8-37.9 48.5-78.5zM202.7 266.7a53.3 53.3 0 1 1 106.7 0 53.3 53.3 0 1 1 -106.7 0z"/></svg>