<svg xmlns="http://www.w3.org/2000/svg" viewBox="0 0 512 512"><!--!Font Awesome Pro 6.6.0 by @fontawesome - https://fontawesome.com License - https://fontawesome.com/license (Commercial License) Copyright 2024 Fonticons, Inc.--><path class="fa-secondary" opacity=".4" d="M26.7 298.7c0-3.6 1.2-7.2 3.6-10.1l47.4-57.7c5.6-6.8 15.7-7.8 22.5-2.2s7.8 15.7 2.2 22.5L55 308.8c-5.6 6.8-15.7 7.8-22.5 2.2c-3.9-3.2-5.9-7.8-5.9-12.4zM201 479.5c-5.6-6.8-4.6-16.9 2.2-22.5l57.8-47.4c6.8-5.6 16.9-4.6 22.5 2.2s4.6 16.9-2.2 22.5l-57.8 47.4c-3 2.4-6.6 3.6-10.1 3.6c-4.6 0-9.2-2-12.4-5.9zm61.5-377.3c16.4-10.4 35.1-15.6 53.9-15.6c25.8 0 51.6 9.8 71.3 29.5l8.2 8.2c19.7 19.7 29.5 45.5 29.5 71.3c0 18.7-5.2 37.5-15.6 53.9c-.8 .1-1.6 .1-2.5-.1c-10.6-1.9-36.7-11.9-84.8-60s-58.1-74.2-60-84.8c-.2-.8-.2-1.7-.1-2.5z"/><path class="fa-primary" d="M231 96.1c-47-24-87.9-28.9-108.1-8.6c-34.8 34.8 4.6 130.5 87.9 213.8s179 122.7 213.8 87.9c20.2-20.2 15.4-61.1-8.6-108.1c-4.3 .8-9.1 .8-14.2-.1c-20.2-3.6-51.9-19.1-101.7-68.9s-65.3-81.6-68.9-101.7c-.9-5.1-.8-9.9-.1-14.2zm9.9 144.8a21.3 21.3 0 1 1 30.2 30.2 21.3 21.3 0 1 1 -30.2-30.2zm-30.2-90.5a21.3 21.3 0 1 1 -30.2 30.2 21.3 21.3 0 1 1 30.2-30.2zM331.4 301.3a21.3 21.3 0 1 1 30.2 30.2 21.3 21.3 0 1 1 -30.2-30.2zM176.8 357.8c6.2-6.2 6.2-16.4 0-22.6s-16.4-6.2-22.6 0L66.3 423.1c-6.2 6.2-6.2 16.4 0 22.6s16.4 6.2 22.6 0l87.9-87.9z"/></svg>