<svg xmlns="http://www.w3.org/2000/svg" viewBox="0 0 512 512"><!--!Font Awesome Pro 6.6.0 by @fontawesome - https://fontawesome.com License - https://fontawesome.com/license (Commercial License) Copyright 2024 Fonticons, Inc.--><path class="fa-secondary" opacity=".4" d="M42.7 256c0 80.5 0 120.7 25.7 145.7c25.6 24.9 66.9 25 149.2 25l.5 0 56.3 0c47.5 0 71.3 0 91.1-10.7s32.4-30.3 57.6-69.5l14.5-22.6c21.2-33 31.8-49.5 31.8-67.8s-10.6-34.9-31.8-67.8L423 165.5c-25.2-39.2-37.8-58.8-57.6-69.5c-19.8-10.7-43.5-10.7-90.8-10.7l-.3 0-56.3 0c-82.7 0-124 0-149.7 25s-25.7 65.2-25.7 145.7zm90.7-90.4c0-8.3 7.2-15.1 16-15.1s16 6.7 16 15.1l0 180.8c0 8.3-7.2 15.1-16 15.1s-16-6.7-16-15.1l0-180.8z"/><path class="fa-primary" d="M149.3 150.5c8.8 0 16 6.7 16 15.1V346.4c0 8.3-7.2 15.1-16 15.1s-16-6.7-16-15.1V165.6c0-8.3 7.2-15.1 16-15.1z"/></svg>