<svg xmlns="http://www.w3.org/2000/svg" viewBox="0 0 512 512"><!--!Font Awesome Pro 6.5.2 by @fontawesome - https://fontawesome.com License - https://fontawesome.com/license (Commercial License) Copyright 2024 Fonticons, Inc.--><path class="fa-secondary" opacity=".4" d="M90.7 339.3l0 12.7c0 39.7 25.8 74.8 63.7 86.6s79.1-2.4 101.6-35.1c17.2 25 45.4 39.2 74.7 39.2c9 0 18-1.3 26.9-4.1c37.9-11.8 63.7-46.9 63.7-86.6l0-12.7-32 0 0 12.7c0 32.4-26.3 58.7-58.7 58.7s-58.7-26.3-58.7-58.7l0-250.7-32 0L240 352c0 32.4-26.3 58.7-58.7 58.7s-58.7-26.3-58.7-58.7l0-12.7-32 0z"/><path class="fa-primary" d="M192 69.3a16 16 0 0 0 0 32h128a16 16 0 0 0 0-32zm149.3 208c0 29.8 20.4 54.9 48 62h32a64 64 0 0 0 48-62v-38.4a25.6 25.6 0 0 0 -25.6-25.6h-76.8a25.6 25.6 0 0 0 -25.6 25.6zm-298.7 0c0 29.8 20.4 54.9 48 62h32a64 64 0 0 0 48-62v-45.7a18.3 18.3 0 0 0 -18.3-18.3H60.9a18.3 18.3 0 0 0 -18.3 18.3z"/></svg>