<svg xmlns="http://www.w3.org/2000/svg" viewBox="0 0 512 512"><!--!Font Awesome Pro 6.6.0 by @fontawesome - https://fontawesome.com License - https://fontawesome.com/license (Commercial License) Copyright 2024 Fonticons, Inc.--><path class="fa-secondary" opacity=".4" d="M42.7 256c0-100.6 0-150.8 31.2-182.1S155.4 42.7 256 42.7s150.9 0 182.1 31.2c31.2 31.2 31.2 81.3 31.2 181.3l0 .8c0 100.6 0 150.9-31.2 182.1s-81.5 31.2-182.1 31.2s-150.8 0-182.1-31.2S42.7 356.6 42.7 256zm112-106.7c0 8.8 7.2 16 16 16l170.7 0c8.8 0 16-7.2 16-16s-7.2-16-16-16l-170.7 0c-8.8 0-16 7.2-16 16zm26 116.7c-6.2 6.2-6.2 16.4 0 22.6s16.4 6.2 22.6 0L240 252l0 110.7c0 8.8 7.2 16 16 16s16-7.2 16-16L272 252l36.7 36.7c6.2 6.2 16.4 6.2 22.6 0s6.2-16.4 0-22.6l-64-64c-3-3-7.1-4.7-11.3-4.7s-8.3 1.7-11.3 4.7l-64 64z"/><path class="fa-primary" d="M170.7 165.3c-8.8 0-16-7.2-16-16s7.2-16 16-16H341.3c8.8 0 16 7.2 16 16s-7.2 16-16 16H170.7zM272 362.7c0 8.8-7.2 16-16 16s-16-7.2-16-16L240 252l-36.7 36.7c-6.2 6.2-16.4 6.2-22.6 0s-6.2-16.4 0-22.6l64-64c3-3 7.1-4.7 11.3-4.7s8.3 1.7 11.3 4.7l64 64c6.2 6.2 6.2 16.4 0 22.6s-16.4 6.2-22.6 0L272 252V362.7z"/></svg>