<svg xmlns="http://www.w3.org/2000/svg" viewBox="0 0 512 512"><!--!Font Awesome Pro 6.6.0 by @fontawesome - https://fontawesome.com License - https://fontawesome.com/license (Commercial License) Copyright 2024 Fonticons, Inc.--><path class="fa-secondary" opacity=".4" d="M42.7 256c0 100.6 0 150.9 31.2 182.1s81.5 31.2 182.1 31.2s150.9 0 182.1-31.2c31.2-31.2 31.2-81.3 31.2-181.3l0-.8c0-7.3 0-10.9-.3-14.6c-1.5-17.3-8.5-34.2-19.7-47.4c-2.4-2.8-5-5.5-10.3-10.8L328.8 72.9c-5.3-5.3-7.9-7.9-10.8-10.3C304.8 51.5 287.9 44.5 270.6 43c-3.7-.3-7.3-.3-14.6-.3c-100.6 0-150.9 0-182.1 31.2S42.7 155.4 42.7 256zm90.7-128c0-8.8 7.2-16 16-16s16 7.2 16 16l0 64c0 8.8-7.2 16-16 16s-16-7.2-16-16l0-64zm64 0c0-8.8 7.2-16 16-16s16 7.2 16 16l0 64c0 8.8-7.2 16-16 16s-16-7.2-16-16l0-64zm64 0c0-8.8 7.2-16 16-16s16 7.2 16 16l0 64c0 8.8-7.2 16-16 16s-16-7.2-16-16l0-64z"/><path class="fa-primary" d="M293.3 128c0-8.8-7.2-16-16-16s-16 7.2-16 16v64c0 8.8 7.2 16 16 16s16-7.2 16-16V128zm-64 0c0-8.8-7.2-16-16-16s-16 7.2-16 16v64c0 8.8 7.2 16 16 16s16-7.2 16-16V128zm-64 0c0-8.8-7.2-16-16-16s-16 7.2-16 16v64c0 8.8 7.2 16 16 16s16-7.2 16-16V128z"/></svg>