<svg xmlns="http://www.w3.org/2000/svg" viewBox="0 0 512 512"><!--!Font Awesome Pro 6.6.0 by @fontawesome - https://fontawesome.com License - https://fontawesome.com/license (Commercial License) Copyright 2024 Fonticons, Inc.--><path class="fa-secondary" opacity=".4" d="M224 334.3c25.8 77.5 38.7 116.2 57.7 127.2c18 10.5 40.2 10.5 58.3 0c18.9-11 31.8-49.7 57.7-127.2l36.6-109.9c21-63.1 35.2-105.5 35.2-134.3c0-15-3.8-26.3-12.4-34.9C420.1 92 383.3 128.8 346.6 165.5c.1 .1 .2 .2 .4 .4c6.2 6.6 6 17-.5 23.4L230.9 303.8c-7.9 7.8-10.4 19.9-6.9 30.4z"/><path class="fa-primary" d="M346.6 165.5L456.9 55.2l-.1-.1c-25.3-25.3-73.3-9.3-169.3 22.7L177.7 114.4c-77.5 25.8-116.2 38.7-127.2 57.7c-10.5 18-10.5 40.2 0 58.3c11 18.9 49.7 31.8 127.2 57.7c9.6 3.2 20.4 .9 27.6-6.2L322.7 165.4c6.6-6.5 17.3-6.5 23.8 .1z"/></svg>