<svg xmlns="http://www.w3.org/2000/svg" viewBox="0 0 512 512"><!--!Font Awesome Pro 6.6.0 by @fontawesome - https://fontawesome.com License - https://fontawesome.com/license (Commercial License) Copyright 2024 Fonticons, Inc.--><path class="fa-secondary" opacity=".4" d="M42.7 266.7c0 13.2 1.3 26.5 3.9 39.5C54.4 345.5 73.7 381.6 102 410s64.5 47.6 103.8 55.5s80.1 3.8 117.1-11.5s68.7-41.3 91-74.6c6.3-9.5 11.8-19.4 16.5-29.8c13.1-29.3 19.7-43.9 7-63.4s-33.3-19.5-74.7-19.5l-32 0c-40.2 0-60.3 0-72.8-12.5s-12.5-32.6-12.5-72.8l0-32c0-41.4 0-62.1-19.5-74.7c-7.3-4.7-13.9-6.8-20.9-6.8c-11.6 0-24.2 5.6-42.5 13.8c-10.3 4.6-20.3 10.1-29.8 16.5c-33.3 22.3-59.3 53.9-74.6 91c-10.2 24.7-15.4 51.1-15.4 77.6z"/><path class="fa-primary" d="M457.5 150.8c-17.3-44-52.4-79-96.3-96.3c-32.9-13-62.5 16.8-62.5 52.2V192c0 11.8 9.6 21.3 21.3 21.3h85.3c35.3 0 65.1-29.6 52.2-62.5z"/></svg>