<svg xmlns="http://www.w3.org/2000/svg" viewBox="0 0 512 512"><!--!Font Awesome Pro 6.6.0 by @fontawesome - https://fontawesome.com License - https://fontawesome.com/license (Commercial License) Copyright 2024 Fonticons, Inc.--><path class="fa-secondary" opacity=".4" d="M106.7 213.3c0-11.3 1.3-22.3 3.6-32.9c2.3-10.4 5.8-20.4 10.2-29.9c13.1-28.2 34.7-51.6 61.5-66.9C193 77.3 205 72.3 217.6 69c12.2-3.2 25.1-5 38.4-5s26.1 1.7 38.4 5c12.6 3.4 24.6 8.3 35.7 14.7c26.8 15.3 48.4 38.7 61.5 66.9c4.4 9.5 7.8 19.5 10.2 29.9c2.4 10.6 3.6 21.6 3.6 32.9l0 48 0 32 0 26.7c0 18.4-3.3 36-9.4 52.3c-3.5 9.4-7.9 18.3-13.1 26.7c-26.4 42.3-73.3 70.4-126.8 70.4s-100.4-28.1-126.8-70.4c-5.2-8.4-9.6-17.3-13.1-26.7c-6.1-16.3-9.4-33.9-9.4-52.3l0-26.7 0-32 0-48zM208 224c0 8.8 7.2 16 16 16l64 0c8.8 0 16-7.2 16-16s-7.2-16-16-16l-64 0c-8.8 0-16 7.2-16 16zm0 106.7c0 8.8 7.2 16 16 16l64 0c8.8 0 16-7.2 16-16s-7.2-16-16-16l-64 0c-8.8 0-16 7.2-16 16z"/><path class="fa-primary" d="M208 330.7c0-8.8 7.2-16 16-16h64c8.8 0 16 7.2 16 16s-7.2 16-16 16H224c-8.8 0-16-7.2-16-16zM224 208c-8.8 0-16 7.2-16 16s7.2 16 16 16h64c8.8 0 16-7.2 16-16s-7.2-16-16-16H224zM371.5 56c7.4-4.9 9.3-14.8 4.4-22.2s-14.8-9.3-22.2-4.4L294.4 69c12.6 3.3 24.6 8.3 35.7 14.7L371.5 56zm30.2 124.5c-2.3-10.4-5.8-20.4-10.2-29.9c.5-.3 1-.5 1.5-.7l38.4-15.3c8.2-3.3 17.5 .7 20.8 8.9s-.7 17.5-8.9 20.8l-38.4 15.3c-1.1 .4-2.1 .7-3.2 .9zm3.6 112.9h64c8.8 0 16-7.2 16-16s-7.2-16-16-16h-64v32zM382.8 399c5.2-8.4 9.6-17.3 13.1-26.7c1.6 .1 3.2 .5 4.7 1.1l42.7 17.1c8.2 3.3 12.2 12.6 8.9 20.8s-12.6 12.2-20.8 8.9l-42.7-17.1c-2.4-.9-4.4-2.4-6-4.2zM116.1 372.3c3.5 9.4 7.9 18.3 13.1 26.7c-1.6 1.8-3.6 3.2-6 4.2L80.6 420.2c-8.2 3.3-17.5-.7-20.8-8.9s.7-17.5 8.9-20.8l42.7-17.1c1.5-.6 3.1-1 4.7-1.1zm-9.4-111h-64c-8.8 0-16 7.2-16 16s7.2 16 16 16h64v-32zm13.8-110.8c-4.4 9.5-7.8 19.5-10.2 29.9c-1.1-.2-2.2-.5-3.2-.9L68.7 164.2c-8.2-3.3-12.2-12.6-8.9-20.8s12.6-12.2 20.8-8.9L119 149.8c.5 .2 1 .4 1.5 .7zm61.5-66.9L140.5 56c-7.4-4.9-9.3-14.8-4.4-22.2s14.8-9.3 22.2-4.4L217.6 69C205 72.3 193 77.3 181.9 83.6z"/></svg>