<svg xmlns="http://www.w3.org/2000/svg" viewBox="0 0 512 512"><!--!Font Awesome Pro 6.6.0 by @fontawesome - https://fontawesome.com License - https://fontawesome.com/license (Commercial License) Copyright 2024 Fonticons, Inc.--><path class="fa-secondary" opacity=".4" d="M408.9 200.7l.1 .2c.1 .3 .4 .9 .8 1.8c.7 1.8 1.8 4.9 2.9 9.3c2.2 8.9 4.6 23.2 4.6 44s-2.4 35.1-4.6 44c-1.1 4.4-2.2 7.5-2.9 9.3c-.4 .9-.6 1.5-.8 1.8l-.1 .2c-4 7.5-1.3 17 6.1 21.1c2.4 1.3 4.9 2 7.4 2c5.4 0 10.6-2.9 13.4-8.1l.1-.3 .2-.4c.1-.3 .3-.7 .5-1.1c.4-.9 1-2.1 1.6-3.7c1.2-3.1 2.7-7.4 4.1-13.2c2.9-11.5 5.6-28.5 5.6-51.7s-2.7-40.2-5.6-51.7c-1.4-5.8-2.9-10.1-4.1-13.2c-.6-1.5-1.1-2.8-1.6-3.7c-.2-.4-.4-.8-.5-1.1l-.2-.4-.1-.2c-4.1-7.6-13.5-10.3-20.9-6.1c-7.4 4.2-10 13.6-6.1 21.1z"/><path class="fa-primary" d="M64.1 249.9c.8-39.3 1.2-59 14.9-75.8c2.5-3.1 6.1-6.7 9.2-9.2c16.8-13.6 38.9-13.6 83.1-13.6c15.8 0 23.7 0 31.3-2c1.6-.4 3.1-.9 4.6-1.4c7.4-2.6 14-7 27.2-15.9c52.1-35.1 78.1-52.6 100-45c4.2 1.5 8.2 3.6 11.9 6.2c18.9 13.6 20.3 45.1 23.2 108.2c1.1 23.4 1.8 43.4 1.8 54.5s-.7 31.1-1.8 54.5c-2.9 63.1-4.3 94.7-23.2 108.2c-3.6 2.6-7.7 4.7-11.9 6.2c-21.9 7.6-47.9-9.9-100-45c-13.2-8.9-19.8-13.3-27.2-15.9c-1.5-.5-3.1-1-4.6-1.4c-7.5-2-15.4-2-31.3-2c-44.3 0-66.4 0-83.1-13.6c-3.1-2.5-6.7-6.1-9.2-9.2c-13.6-16.8-14-36.5-14.9-75.8c0-2.1-.1-4.1-.1-6.1s0-4 .1-6.1z"/></svg>