<svg xmlns="http://www.w3.org/2000/svg" viewBox="0 0 512 512"><!--!Font Awesome Pro 6.6.0 by @fontawesome - https://fontawesome.com License - https://fontawesome.com/license (Commercial License) Copyright 2024 Fonticons, Inc.--><path class="fa-secondary" opacity=".4" d="M42.7 213.3l426.6 0c0 8.4 0 33.2 0 42.7l0 .5c0 80.1 0 120.3-25 145.2c-25 25-65.2 25-145.7 25l-85.3 0-.4 0c-80.2 0-120.4 0-145.3-25c-25-25-25-65.2-25-145.7c0-6 0-18.2 0-28.5c0-5.9 0-11.1 0-14.2zm69.3 128c0 8.8 7.2 16 16 16l85.3 0c8.8 0 16-7.2 16-16s-7.2-16-16-16l-85.3 0c-8.8 0-16 7.2-16 16zm138.7 0c0 8.8 7.2 16 16 16l32 0c8.8 0 16-7.2 16-16s-7.2-16-16-16l-32 0c-8.8 0-16 7.2-16 16z"/><path class="fa-primary" d="M213.2 85.3h85.6c80.7 0 121 0 146 23.8c18 17.1 23.1 41.8 24.5 82.9v21.3H42.7V192c1.4-41.1 6.5-65.7 24.5-82.9c25.1-23.8 65.4-23.8 146-23.8zm53.4 240c-8.8 0-16 7.2-16 16s7.2 16 16 16h32c8.8 0 16-7.2 16-16s-7.2-16-16-16h-32zm-138.7 0c-8.8 0-16 7.2-16 16s7.2 16 16 16h85.3c8.8 0 16-7.2 16-16s-7.2-16-16-16H128z"/></svg>