<svg xmlns="http://www.w3.org/2000/svg" viewBox="0 0 512 512"><!--!Font Awesome Pro 6.6.0 by @fontawesome - https://fontawesome.com License - https://fontawesome.com/license (Commercial License) Copyright 2024 Fonticons, Inc.--><path class="fa-secondary" opacity=".4" d="M42.7 260.3c0-48.8 0-73.2 11.1-93.5s31.3-32.8 71.8-57.9l42.7-26.5C211 55.9 232.4 42.7 256 42.7s45 13.3 87.8 39.8L386.5 109c40.5 25.1 60.7 37.7 71.8 57.9s11.1 44.6 11.1 93.5l0 32.5c0 83.2 0 124.8-25 150.7s-65.2 25.9-145.7 25.9l-85.3 0c-80.5 0-120.7 0-145.7-25.9c-24.9-25.8-25-67.3-25-150.2l0-.5 0-32.5zm136.5 71.5c-5.3 7.1-3.8 17.1 3.3 22.4c20.7 15.4 46.1 24.5 73.5 24.5s52.8-9.1 73.5-24.5c4.2-3.1 6.5-8 6.5-12.9c0-3.3-1-6.7-3.1-9.5c-5.3-7.1-15.3-8.6-22.4-3.3c-15.5 11.5-34.3 18.2-54.5 18.2s-38.9-6.7-54.5-18.2c-7.1-5.3-17.1-3.8-22.4 3.3z"/><path class="fa-primary" d="M201.5 328.5c-7.1-5.3-17.1-3.8-22.4 3.3s-3.8 17.1 3.3 22.4c20.7 15.4 46.1 24.5 73.5 24.5s52.8-9.1 73.5-24.5c7.1-5.3 8.6-15.3 3.3-22.4s-15.3-8.6-22.4-3.3c-15.5 11.5-34.3 18.2-54.5 18.2s-38.9-6.7-54.5-18.2z"/></svg>