<svg xmlns="http://www.w3.org/2000/svg" viewBox="0 0 512 512"><!--!Font Awesome Pro 6.6.0 by @fontawesome - https://fontawesome.com License - https://fontawesome.com/license (Commercial License) Copyright 2024 Fonticons, Inc.--><path class="fa-secondary" opacity=".4" d="M85.3 373.3c0 53 0 96 170.7 96c19.8 0 37.4-.6 52.9-1.7c-9-1.5-15.5-4.2-20.6-9.2c-10.9-10.9-10.9-28.5-10.9-63.7c0-35.2 0-52.8 10.9-63.7S316.8 320 352 320c2.9 0 5.6 0 8.2 0s5.2 0 7.6 0c4.8 0 9.3 .1 13.3 .3c8.1 .4 14.7 1.1 19.7 2.2c-30.1-27.2-83.8-45.2-144.9-45.2c-94.3 0-170.7 43-170.7 96z"/><path class="fa-primary" d="M170.7 128a85.3 85.3 0 1 1 170.7 0 85.3 85.3 0 1 1 -170.7 0zM352 469.3c-35.2 0-52.8 0-63.7-10.9s-10.9-28.5-10.9-63.7s0-52.8 10.9-63.7S316.8 320 352 320s52.8 0 63.7 10.9s10.9 28.5 10.9 63.7s0 52.8-10.9 63.7s-28.5 10.9-63.7 10.9zM327.6 352.7c-4.9-4.9-12.7-4.9-17.6 0s-4.9 12.7 0 17.6l24.4 24.4L310 419.1c-4.9 4.9-4.9 12.7 0 17.6s12.7 4.9 17.6 0L352 412.3l24.4 24.4c4.9 4.9 12.7 4.9 17.6 0s4.9-12.7 0-17.6l-24.4-24.4L394 370.3c4.9-4.9 4.9-12.7 0-17.6s-12.7-4.9-17.6 0L352 377.1l-24.4-24.4z"/></svg>