<svg xmlns="http://www.w3.org/2000/svg" viewBox="0 0 512 512"><!--!Font Awesome Pro 6.6.0 by @fontawesome - https://fontawesome.com License - https://fontawesome.com/license (Commercial License) Copyright 2024 Fonticons, Inc.--><path class="fa-secondary" opacity=".4" d="M58.5 406c0 17.2 3.4 29.9 12 40.2c19.2 23.1 54.9 23.1 126.4 23.1l118.2 0c71.4 0 107.2 0 126.4-23.1s12.6-58.2-.6-128.5l-16-85.3c-9.4-49.9-14-74.9-31.8-89.7c-12.8-10.6-29.6-13.6-57.1-14.4c-9.3-.3-19.9-.3-32-.3l-4.9 0-86.2 0c-1.7 0-3.3 0-4.9 0c-12.1 0-22.7 0-32 .3c-27.5 .8-44.3 3.8-57.1 14.4c-17.8 14.8-22.5 39.7-31.8 89.7l-16 85.3c-7.3 38.9-12.6 67-12.6 88.3zm96.1-43.3c0-32.4 26.3-58.7 58.7-58.7c9.6 0 18.7 2.3 26.7 6.4l0-58c0-3.5 0-8 .7-11.5c1.7-9 6.7-17.1 14-22.6c2.9-2.2 6.1-3.8 9.2-5.4l29.2-14.6c4.3-2.2 8.1-4.1 11.3-5.4c3.2-1.4 7-2.8 11.3-3.3c17.2-2 33.5 8.1 39.4 24.4c1.5 4 1.9 8.1 2.1 11.6c.2 3.5 .2 7.7 .2 12.5l0 1.3c0 .3 0 .7 0 1c0 3.2-.1 6.5-.7 9.7c-1.7 9-6.7 17.1-14 22.6c-2.9 2.2-6.1 3.8-9.2 5.4l-29.2 14.6c-4.3 2.2-8.1 4.1-11.3 5.4c-3.2 1.4-7 2.8-11.3 3.3c-3.3 .4-6.5 .3-9.7-.1l0 61.6c0 32.4-26.3 58.7-58.7 58.7s-58.7-26.3-58.7-58.7zm32 0a26.7 26.7 0 1 0 53.3 0 26.7 26.7 0 1 0 -53.3 0zm85.4-115.8c0 .1 0 .3-.1 .9c0 1 0 2.3 0 4.6c0 5.4 0 8.7 .1 11.3c.1 1.6 .2 2.3 .2 2.5c.9 2.2 3.1 3.5 5.4 3.3c.2-.1 .9-.3 2.3-.9c2.3-1 5.3-2.5 10.1-4.9l28.1-14c2-1 3.2-1.6 4.1-2.1c.5-.3 .8-.4 .8-.5c1-.8 1.7-1.9 2-3.2c0-.1 0-.3 .1-.9c0-1 0-2.3 0-4.6c0-5.4 0-8.7-.1-11.3c-.1-1.6-.2-2.3-.2-2.5c-.9-2.2-3.1-3.5-5.4-3.3c-.2 0-.9 .3-2.3 .9c-2.3 1-5.3 2.5-10.1 4.9l-28.1 14c-2 1-3.2 1.6-4.1 2.1c-.5 .3-.8 .4-.8 .5c-1 .8-1.7 1.9-2 3.2z"/><path class="fa-primary" d="M208 106.7c0-26.5 21.5-48 48-48s48 21.5 48 48V128s0 0 0 0c12.1 0 22.7 0 32 .3c0-.1 0-.2 0-.3V106.7c0-44.2-35.8-80-80-80s-80 35.8-80 80V128c0 .1 0 .2 0 .3c9.3-.3 19.9-.3 32-.3c0 0 0 0 0 0V106.7zm64 256c0 32.4-26.3 58.7-58.7 58.7s-58.7-26.3-58.7-58.7s26.3-58.7 58.7-58.7c9.6 0 18.7 2.3 26.7 6.4l0-58c0-3.5 0-8 .7-11.5c1.7-9 6.7-17.1 14-22.6c2.9-2.2 6.1-3.8 9.2-5.4l29.2-14.6c4.3-2.2 8.1-4.1 11.3-5.4c3.2-1.4 7-2.8 11.3-3.3c17.2-2 33.5 8.1 39.4 24.4c1.5 4 1.9 8.1 2.1 11.6c.2 3.5 .2 7.7 .2 12.5l0 1.3c0 3.5 0 7.1-.7 10.7c-1.7 9-6.7 17.1-14 22.6c-2.9 2.2-6.1 3.8-9.2 5.4l-29.2 14.6c-4.3 2.2-8.1 4.1-11.3 5.4c-3.2 1.4-7 2.8-11.3 3.3c-3.3 .4-6.5 .3-9.7-.1l0 61.6zm45.2-140.6c-2.3 1-5.3 2.5-10.1 4.9l-28.1 14c-2 1-3.2 1.6-4.1 2.1c-.5 .3-.8 .4-.8 .5c-1 .8-1.7 1.9-2 3.2c0 .1 0 .3-.1 .9c0 1 0 2.3 0 4.6c0 5.4 0 8.7 .1 11.3c.1 1.6 .2 2.3 .2 2.5c.9 2.2 3.1 3.5 5.4 3.3c.2-.1 .9-.3 2.3-.9c2.3-1 5.3-2.5 10.1-4.9l28.1-14c2-1 3.2-1.6 4.1-2.1c.5-.3 .8-.4 .8-.5c1-.8 1.7-1.9 2-3.2c0-.1 0-.3 .1-.9c0-1 0-2.3 0-4.6c0-5.4 0-8.7-.1-11.3c-.1-1.6-.2-2.3-.2-2.5c-.9-2.2-3.1-3.5-5.4-3.3c-.2 0-.9 .3-2.3 .9zM213.3 336a26.7 26.7 0 1 0 0 53.3 26.7 26.7 0 1 0 0-53.3z"/></svg>