<svg xmlns="http://www.w3.org/2000/svg" viewBox="0 0 512 512"><!--!Font Awesome Pro 6.6.0 by @fontawesome - https://fontawesome.com License - https://fontawesome.com/license (Commercial License) Copyright 2024 Fonticons, Inc.--><path class="fa-secondary" opacity=".4" d="M42.7 149.3c0 45.4 28.3 84.2 68.3 99.6c7.4-1.9 15.1-2.9 23.1-2.9c6.1 0 12 .6 17.7 1.7c-4.9-13-7.6-27.1-7.6-41.9c0-56.7 39.6-104.2 92.9-117c-19.2-27.9-51.4-46.1-87.8-46.1C90.4 42.7 42.7 90.4 42.7 149.3z"/><path class="fa-primary" d="M347.4 426.7c67.3 0 121.9-53.9 121.9-120.5c0-52.7-34.3-97.6-82-113.9c-6.8-60.2-58.4-107-121.1-107c-67.3 0-121.9 53.9-121.9 120.5c0 14.7 2.7 28.8 7.6 41.9c-5.7-1.1-11.7-1.7-17.7-1.7c-50.5 0-91.4 40.5-91.4 90.4s40.9 90.4 91.4 90.4H347.4z"/></svg>