<svg xmlns="http://www.w3.org/2000/svg" viewBox="0 0 512 512"><!--!Font Awesome Pro 6.6.0 by @fontawesome - https://fontawesome.com License - https://fontawesome.com/license (Commercial License) Copyright 2024 Fonticons, Inc.--><path class="fa-secondary" opacity=".4" d="M70.1 160.2c0 26.9 8.2 62.2 20.6 111.8l4.3 21.3 322.1 0 4.3-21.3c12.3-49.6 20.6-84.9 20.6-111.8c0-18-3.7-32.3-12.4-44.4c-1.4-2-3-4-4.6-5.9C399.4 80 351.6 80 256 80s-143.4 0-168.9 29.9c-1.6 1.9-3.1 3.8-4.6 5.9c-8.7 12.2-12.4 26.4-12.4 44.4z"/><path class="fa-primary" d="M101.3 378.7v42.7c0 8.8-7.2 16-16 16s-16-7.2-16-16V375.6c-15.6-6.3-26.7-21.7-26.7-39.6c0-23.6 19.1-42.7 42.7-42.7H426.7c23.6 0 42.7 19.1 42.7 42.7c0 17.9-11 33.2-26.7 39.6v45.8c0 8.8-7.2 16-16 16s-16-7.2-16-16V378.7H101.3z"/></svg>