<svg xmlns="http://www.w3.org/2000/svg" viewBox="0 0 512 512"><!--!Font Awesome Pro 6.6.0 by @fontawesome - https://fontawesome.com License - https://fontawesome.com/license (Commercial License) Copyright 2024 Fonticons, Inc.--><path class="fa-secondary" opacity=".4" d="M42.8 211.9c-1.5 40.7 8.8 109.8 78.1 179.2c65.3 65.3 130.4 78.2 171.8 78.2c2.6 0 5 0 7.4-.1c24.2-.9 46.1-14.8 63.9-32.7c29.7-29.7 25.7-77.1-8.1-96l-24.8-13.8c-22.4-12.5-51.8-7.5-71.4 12.2c0 0-23.9 23.9-67.2-19.4c-43.3-43.3-19.4-67.1-19.4-67.2c19.7-19.7 24.7-49.1 12.2-71.4l-13.8-24.8c-10.3-18.5-29.2-28.1-49.1-28.1c-16.4 0-33.5 6.5-46.9 20c-17.9 17.9-31.8 39.7-32.7 63.9z"/><path class="fa-primary" d="M469.3 149.3c0 58.9-47.8 106.7-106.7 106.7c-17.1 0-33.2-4-47.5-11.1c-3.8-1.9-8.1-2.5-12.2-1.4l-23.7 6.4c-10.3 2.8-19.7-6.7-17-17l6.4-23.7c1.1-4.1 .5-8.4-1.4-12.2C260 182.5 256 166.4 256 149.3c0-58.9 47.8-106.7 106.7-106.7s106.7 47.8 106.7 106.7zM362.7 102.7c-11 0-20 9-20 20l0 6.7-6.7 0c-11 0-20 9-20 20s9 20 20 20l6.7 0 0 6.7c0 11 9 20 20 20s20-9 20-20l0-6.7 6.7 0c11 0 20-9 20-20s-9-20-20-20l-6.7 0 0-6.7c0-11-9-20-20-20z"/></svg>