<svg xmlns="http://www.w3.org/2000/svg" viewBox="0 0 512 512"><!--!Font Awesome Pro 6.5.2 by @fontawesome - https://fontawesome.com License - https://fontawesome.com/license (Commercial License) Copyright 2024 Fonticons, Inc.--><path class="fa-secondary" opacity=".4" d="M64 221.9l0 .3 0 12.4 192-64 0-128c-17.3 0-34 5.7-67.5 17.2L176.3 64C112.2 86 80.1 97 72.1 108.4S64 153.9 64 221.9zm192-51.2l0 298.7c21.8 0 29.4-3.4 44.8-10.1C357.6 434.5 448 376.1 448 255.8l0-21.1-192-64z"/><path class="fa-primary" d="M64 255.8c0 120.3 90.4 178.7 147.2 203.4c15.4 6.7 23.1 10.1 44.8 10.1V170.7l-192 64zM335.7 64l-12.2-4.2C290 48.4 273.3 42.7 256 42.7v128l192 64v-12.4c0-68.2 0-102.3-8.1-113.8C431.9 97 399.8 86 335.7 64"/></svg>