<svg xmlns="http://www.w3.org/2000/svg" viewBox="0 0 640 512"><!--!Font Awesome Pro 6.6.0 by @fontawesome - https://fontawesome.com License - https://fontawesome.com/license (Commercial License) Copyright 2024 Fonticons, Inc.--><path class="fa-secondary" opacity=".4" d="M32 121.2L32 352c0 35.3 28.7 64 64 64l176 0-10.7 32L192 448c-17.7 0-32 14.3-32 32s14.3 32 32 32l256 0c17.7 0 32-14.3 32-32c0-2.2-.2-4.3-.6-6.3L446.8 448l-68.1 0L368 416l38.2 0-81.2-64L96 352l0-180.4L32 121.2zm8.4-88.9L96 76.8 96 64l448 0 0 288-104 0 80 64 24 0c35.3 0 64-28.7 64-64l0-288c0-35.3-28.7-64-64-64L96 0C72.2 0 51.4 13 40.4 32.3z"/><path class="fa-primary" d="M5.1 9.2C13.3-1.2 28.4-3.1 38.8 5.1l592 464c10.4 8.2 12.3 23.3 4.1 33.7s-23.3 12.3-33.7 4.1L9.2 42.9C-1.2 34.7-3.1 19.6 5.1 9.2z"/></svg>