<svg xmlns="http://www.w3.org/2000/svg" viewBox="0 0 512 512"><!--!Font Awesome Pro 6.6.0 by @fontawesome - https://fontawesome.com License - https://fontawesome.com/license (Commercial License) Copyright 2024 Fonticons, Inc.--><path class="fa-secondary" opacity=".4" d="M21.3 256c0-110.6 0-165.9 34.4-200.3C90 21.4 145.1 21.3 255.2 21.3l.8 0c110.6 0 165.9 0 200.3 34.4c34.3 34.3 34.4 89.4 34.4 199.6l0 .7c0 8.1 0 15.9 0 23.5l-74.1 0c-21.2 0-31.9 0-41.2 4.3s-16.2 12.4-30.1 28.5L331 328.8c-13.8 16.1-20.7 24.2-30.1 28.5s-20 4.3-41.2 4.3l-7.5 0c-21.2 0-31.9 0-41.2-4.3s-16.2-12.4-30.1-28.5l-14.2-16.6c-13.8-16.1-20.7-24.2-30.1-28.5c-9.3-4.3-19.9-4.3-41.1-4.3l-74.3 0c0-7.3 0-14.8 0-22.7l0-.8z"/><path class="fa-primary" d="M55.7 456.3c34.4 34.4 89.7 34.4 200.3 34.4s165.9 0 200.3-34.4c31.8-31.8 34.2-81.7 34.4-176.8H416.5c-21.2 0-31.9 0-41.2 4.3s-16.2 12.4-30.1 28.5l0 0L331 328.8l0 0c-13.8 16.1-20.7 24.2-30.1 28.5s-20 4.3-41.2 4.3h-7.5c-21.2 0-31.9 0-41.2-4.3s-16.2-12.4-30.1-28.5l-14.2-16.6c-13.8-16.1-20.7-24.2-30.1-28.5s-20-4.3-41.2-4.3H21.3c.2 95.2 2.5 145 34.4 176.8z"/></svg>