<svg xmlns="http://www.w3.org/2000/svg" viewBox="0 0 512 512"><!--!Font Awesome Pro 6.6.0 by @fontawesome - https://fontawesome.com License - https://fontawesome.com/license (Commercial License) Copyright 2024 Fonticons, Inc.--><path class="fa-secondary" opacity=".4" d="M50.1 109.3l80.8 141.4 36.8 0-4.4-7.9L77.9 93.4c-4.4-7.7-14.2-10.3-21.8-6s-10.3 14.2-6 21.8zM134.6 125c-3.4 8.2 .5 17.5 8.7 20.9s17.5-.5 20.9-8.7c15.2-36.8 51.5-62.6 93.7-62.6s78.4 25.8 93.7 62.6c3.4 8.2 12.7 12 20.9 8.7s12-12.7 8.7-20.9c-20-48.3-67.6-82.3-123.2-82.3s-103.2 34-123.2 82.3zM181 153.6c-2.5 8.5 2.4 17.4 10.9 19.8s17.4-2.4 19.8-10.9c5.8-20 24.3-34.5 46.1-34.5s40.3 14.6 46.1 34.5c2.5 8.5 11.4 13.4 19.8 10.9s13.4-11.4 10.9-19.8C324.9 120.3 294.2 96 257.8 96s-67.1 24.3-76.8 57.6zm163.3 97.1l36.8 0 80.8-141.4c4.4-7.7 1.7-17.4-6-21.8s-17.4-1.7-21.8 6L348.8 242.7l-4.5 7.9z"/><path class="fa-primary" d="M55.2 263.2C42.7 275.7 42.7 295.8 42.7 336s0 60.3 12.5 72.8s32.6 12.5 72.8 12.5l256 0c40.2 0 60.3 0 72.8-12.5s12.5-32.6 12.5-72.8s0-60.3-12.5-72.8s-32.6-12.5-72.8-12.5l-256 0c-40.2 0-60.3 0-72.8 12.5zM128 314.7a21.3 21.3 0 1 1 0 42.7 21.3 21.3 0 1 1 0-42.7zM170.7 336a21.3 21.3 0 1 1 42.7 0 21.3 21.3 0 1 1 -42.7 0zm128-16l85.3 0c8.8 0 16 7.2 16 16s-7.2 16-16 16l-85.3 0c-8.8 0-16-7.2-16-16s7.2-16 16-16zM236.5 165.3a21.3 21.3 0 1 1 42.7 0 21.3 21.3 0 1 1 -42.7 0z"/></svg>