<svg xmlns="http://www.w3.org/2000/svg" viewBox="0 0 512 512"><!--!Font Awesome Pro 6.6.0 by @fontawesome - https://fontawesome.com License - https://fontawesome.com/license (Commercial License) Copyright 2024 Fonticons, Inc.--><path class="fa-secondary" opacity=".4" d="M29.4 158.2l17.3 26c18.8 28.2 50.4 45.1 84.3 45.1l250 0c33.9 0 65.5-16.9 84.3-45.1l17.3-26c4.9-7.4 2.9-17.3-4.4-22.2c-2.7-1.8-5.8-2.7-8.9-2.7c-5.2 0-10.2 2.5-13.3 7.1l-17.3 26c-12.9 19.3-34.5 30.9-57.7 30.9l-250 0c-23.2 0-44.8-11.6-57.7-30.9L56 140.5c-3.1-4.6-8.2-7.1-13.3-7.1c-3 0-6.1 .9-8.9 2.7c-7.4 4.9-9.3 14.8-4.4 22.2z"/><path class="fa-primary" d="M106.7 320a42.7 42.7 0 1 1 85.3 0 42.7 42.7 0 1 1 -85.3 0zM320 320a42.7 42.7 0 1 1 85.3 0A42.7 42.7 0 1 1 320 320z"/></svg>