<svg xmlns="http://www.w3.org/2000/svg" viewBox="0 0 512 512"><!--!Font Awesome Pro 6.6.0 by @fontawesome - https://fontawesome.com License - https://fontawesome.com/license (Commercial License) Copyright 2024 Fonticons, Inc.--><path class="fa-secondary" opacity=".4" d="M42.7 181.3l0 149.3c0 29.9 0 44.8 5.8 56.2c5.1 10 13.3 18.2 23.3 23.3C83.2 416 98.1 416 128 416l3 0c-1.5-9-2.3-19.5-2.6-31.8c-.2-6.2-.3-12.8-.3-19.9c0-3.6 0-7.3 0-11.1s0-7.8 0-11.9l0-170.7c0-4.1 0-8.1 0-11.9s0-7.5 0-11.1c0-7.1 .1-13.8 .3-19.9c.4-12.3 1.1-22.8 2.6-31.8l-3 0c-29.9 0-44.8 0-56.2 5.8c-10 5.1-18.2 13.3-23.3 23.3c-5.8 11.4-5.8 26.3-5.8 56.2zM381 96c3 17.9 3 41.7 3 74.3l0 .3 0 170.7c0 4.1 0 8.1 0 11.9s0 7.5 0 11.1c0 7.1-.1 13.8-.3 19.9c-.4 12.3-1.1 22.8-2.6 31.8l3 0c29.9 0 44.8 0 56.2-5.8c10-5.1 18.2-13.3 23.3-23.3c5.8-11.4 5.8-26.3 5.8-56l0-149.5c0-29.9 0-44.8-5.8-56.2c-5.1-10-13.3-18.2-23.3-23.3C428.8 96 413.9 96 384 96l-3 0z"/><path class="fa-primary" d="M128 170.7c0-60.3 0-90.5 18.7-109.3S195.7 42.7 256 42.7s90.5 0 109.3 18.7S384 110.3 384 170.7V341.3c0 60.3 0 90.5-18.7 109.3s-48.9 18.7-109.3 18.7s-90.5 0-109.3-18.7S128 401.7 128 341.3l0-170.7z"/></svg>