<svg xmlns="http://www.w3.org/2000/svg" viewBox="0 0 512 512"><!--!Font Awesome Pro 6.6.0 by @fontawesome - https://fontawesome.com License - https://fontawesome.com/license (Commercial License) Copyright 2024 Fonticons, Inc.--><path class="fa-secondary" opacity=".4" d="M42.7 426.7c0 8.8 7.2 16 16 16l24.7 0 3.2 0c1 0 2 0 3 0c19.9 0 34.8-.3 48.2-6.5c14-6.6 24.1-18.7 37.8-35.1l2.1-2.5L199 372.9c5.7-6.8 4.7-16.9-2-22.5c-3-2.5-6.6-3.7-10.2-3.7c-4.6 0-9.1 2-12.3 5.8L153 378c-16.7 20-22.1 25.9-28.8 29.1s-14.8 3.5-40.8 3.5l-24.7 0c-8.8 0-16 7.2-16 16z"/><path class="fa-primary" d="M336 96a53.3 53.3 0 1 1 106.7 0A53.3 53.3 0 1 1 336 96zM209.1 126.5c4.5-.6 9.8-1.2 15.4-.9c1.7 .1 3.6 .2 5.8 .4c50.8 5.3 88.5 43.4 113.7 81.1l1.3 2C358.2 228.4 379.8 240 403 240l39.7 0c8.8 0 16 7.2 16 16s-7.2 16-16 16L403 272c-33.9 0-65.5-16.9-84.3-45.1l-1.3-2c-5.8-8.7-12.1-17-18.7-24.6l-40.2 50.2c-9.1 11.4-15.2 19.1-19.4 25.4c-4 6.1-5.1 9.5-5.4 12.1c-.5 4.3 0 8.6 1.6 12.6c.9 2.4 2.9 5.5 8.2 10.4c5.5 5.1 13.4 11 25 19.9c.7 .5 1.4 1 2 1.5c15.4 11.6 26 19.7 33.4 30.5c4.2 6.1 7.5 12.8 9.9 19.8c4.1 12.4 4.1 25.7 4.1 45c0 .8 0 1.7 0 2.6l0 39.1c0 8.8-7.2 16-16 16s-16-7.2-16-16l0-39.1c0-22.8-.2-30.6-2.5-37.4c-1.4-4.2-3.4-8.2-5.9-11.9c-4.1-5.9-10.1-10.8-28.3-24.6l-.6-.5c-10.9-8.2-19.9-15.1-26.7-21.3c-7.1-6.5-13-13.5-16.5-22.5c-3.4-8.8-4.6-18.3-3.5-27.7c1.1-9.6 5.2-17.8 10.4-25.9c5.1-7.7 12.2-16.6 20.7-27.2l42.3-52.9c-14.7-11.2-30.8-18.6-48.3-20.4c-1.6-.2-2.9-.3-3.9-.3c-2.7-.1-5.8 .1-9.6 .7c-22.7 3.1-45.5 15.8-95 43.9L87.9 219.5c-7.7 4.4-17.5 1.7-21.8-6s-1.7-17.5 6-21.8l30.6-17.4c1.1-.6 2.2-1.2 3.2-1.8c45.2-25.7 73.6-41.8 103.1-45.9z"/></svg>