<svg xmlns="http://www.w3.org/2000/svg" viewBox="0 0 512 512"><!--!Font Awesome Pro 6.6.0 by @fontawesome - https://fontawesome.com License - https://fontawesome.com/license (Commercial License) Copyright 2024 Fonticons, Inc.--><path class="fa-secondary" opacity=".4" d="M48.8 367.8c2.3 6.7 8.5 10.9 15.2 10.9c1.7 0 3.4-.3 5.1-.8l24.7-8.3c6.2-2.1 12.1-5 17.5-8.7l2.2-1.5c19.1-12.9 30.5-34.5 30.5-57.5c0-44.3 31.7-81.9 74.6-89.1l19-3.2c3.9-.7 10.8-1.1 18.4-1.1s14.5 .4 18.4 1.1l19 3.2c42.9 7.2 74.6 44.8 74.6 89.1c0 23.1 11.4 44.7 30.5 57.5l2.2 1.5c5.4 3.7 11.3 6.6 17.5 8.7l24.7 8.3c1.7 .6 3.4 .8 5.1 .8c6.7 0 12.9-4.2 15.2-10.9c2.8-8.4-1.7-17.4-10.1-20.3l-24.7-8.3c-3.5-1.2-6.8-2.8-9.9-4.9l-2.2-1.5c-10.2-6.9-16.4-18.5-16.4-31c0-59.7-42.7-110.8-101.3-120.7l-19-3.2c-6.5-1.1-15.5-1.5-23.7-1.5s-17.2 .4-23.7 1.5l-19 3.2C154.7 191 112 242.2 112 301.9c0 12.5-6.2 24.1-16.4 31l-2.2 1.5c-3.1 2.1-6.4 3.7-9.9 4.9l-24.7 8.3c-8.4 2.8-12.9 11.9-10.1 20.3z"/><path class="fa-primary" d="M202.7 96a53.3 53.3 0 1 1 106.7 0A53.3 53.3 0 1 1 202.7 96zM189.9 331.7c5.3-7.1 15.3-8.5 22.4-3.2s8.5 15.3 3.2 22.4l-19.7 26.3c-.2 .2-.3 .4-.5 .6c-2.7 3.6-4.8 6.4-7.3 9c-6 6.3-13.3 11.2-21.5 14.3c-3.3 1.3-6.7 2.1-11.1 3.2c-.2 .1-.5 .1-.8 .2l-38.3 9.6c-8.9 2.2-15.1 10.2-15.1 19.3c0 11 8.9 19.9 19.9 19.9l14.6 0c33 0 65.1-10.7 91.5-30.5l40.4-30.3c7.1-5.3 17.1-3.9 22.4 3.2s3.9 17.1-3.2 22.4l-19.3 14.5 10.5 3.9c11.4 4.3 16.5 6.2 21.7 7.8c15.5 4.9 31.6 7.8 47.9 8.7c5.4 .3 10.9 .3 23 .3l20 0c11 0 19.9-8.9 19.9-19.9c0-9.1-6.2-17.1-15.1-19.3l-31.4-7.9c-.6-.1-1.2-.3-1.7-.4c-10.1-2.5-18.2-4.5-25.3-8.7c-2.1-1.2-4.2-2.6-6.2-4.1c-6.6-5-11.5-11.6-17.8-20c-.4-.5-.7-1-1.1-1.4l-15.5-20.7c-5.3-7.1-3.9-17.1 3.2-22.4s17.1-3.9 22.4 3.2l15.5 20.7c7.9 10.5 10.1 13.2 12.6 15.1c.9 .7 1.8 1.3 2.8 1.9c2.8 1.6 6.1 2.6 18.8 5.8l31.4 7.9c23.1 5.8 39.3 26.6 39.3 50.4c0 28.7-23.3 51.9-51.9 51.9l-20.5 0c-11.5 0-17.9 0-24.3-.4c-18.9-1.1-37.6-4.4-55.6-10.1c-6.1-1.9-12.1-4.2-22.9-8.2l-30.6-11.5c-29.9 19.6-65 30.1-101 30.1l-14.6 0c-28.7 0-51.9-23.3-51.9-51.9c0-23.8 16.2-44.6 39.3-50.4l38.3-9.6c5.5-1.4 6.9-1.8 8.2-2.2c3.7-1.4 7-3.6 9.8-6.5c1-1 1.9-2.2 5.3-6.7l19.7-26.3z"/></svg>