<svg xmlns="http://www.w3.org/2000/svg" viewBox="0 0 512 512"><!--!Font Awesome Pro 6.6.0 by @fontawesome - https://fontawesome.com License - https://fontawesome.com/license (Commercial License) Copyright 2024 Fonticons, Inc.--><path class="fa-secondary" opacity=".4" d="M46.1 237.4l4.9 52c1.8 19.4 3.5 36.7 5.2 52l399.7 0c1.7-15.3 3.3-32.6 5.2-52l4.9-52c2-21.1 3.5-36.7 3.5-48c0-10.6-1.3-17.5-4.7-21.6c-3.8-4.6-8.9-7.4-14.4-7.8c-10.1-.9-22.9 13.6-48.4 42.6c-13.2 15-19.8 22.5-27.1 23.7c-4.1 .6-8.2 0-12-1.9c-6.8-3.4-11.3-12.7-20.4-31.2L294.7 95.3C277.6 60.2 269 42.7 256 42.7s-21.6 17.5-38.7 52.6L169.6 193c-9.1 18.6-13.6 27.8-20.4 31.2c-3.8 1.9-7.9 2.6-12 1.9c-7.4-1.2-13.9-8.7-27.1-23.7c-25.5-29-38.2-43.5-48.4-42.6c-5.5 .5-10.6 3.3-14.4 7.8c-7 8.4-5.1 28.8-1.2 69.6z"/><path class="fa-primary" d="M285 469.3c75.6 0 113.4 0 138.7-25.8c19.5-19.9 26.3-50 32.1-102.2H56.2c5.8 52.2 12.7 82.2 32.2 102.2c25.2 25.8 63 25.8 138.7 25.8h58z"/></svg>