<svg xmlns="http://www.w3.org/2000/svg" viewBox="0 0 512 512"><!--!Font Awesome Pro 6.6.0 by @fontawesome - https://fontawesome.com License - https://fontawesome.com/license (Commercial License) Copyright 2024 Fonticons, Inc.--><path class="fa-secondary" opacity=".4" d="M42.7 319.6l0 .4 0 21.4c0 60.3 0 90.5 18.7 109.3c18.7 18.7 48.8 18.7 108.9 18.7l.3 0 170.7 0c60.3 0 90.5 0 109.3-18.7s18.7-48.9 18.7-109.3l0-21.3c0-60.3 0-90.5-18.7-109.2S401.7 192 341.3 192L272 192l0 84.7 35.9-41.8c5.8-6.7 15.9-7.5 22.6-1.7s7.5 15.9 1.7 22.6l-64 74.7c-3 3.5-7.5 5.6-12.1 5.6s-9.1-2-12.1-5.6l-64-74.7c-2.6-3-3.9-6.7-3.9-10.4c0-4.5 1.9-9 5.6-12.2c6.7-5.8 16.8-5 22.6 1.7L240 276.7l0-84.7-69.3 0c-60.3 0-90.5 0-109.3 18.7c-18.7 18.7-18.7 48.8-18.7 108.8z"/><path class="fa-primary" d="M256 26.7c-8.8 0-16 7.2-16 16l0 234.1-35.9-41.8c-5.8-6.7-15.9-7.5-22.6-1.7s-7.5 15.9-1.7 22.6l64 74.7c3 3.5 7.5 5.6 12.1 5.6s9.1-2 12.1-5.6l64-74.7c5.8-6.7 5-16.8-1.7-22.6s-16.8-5-22.6 1.7L272 276.7l0-234.1c0-8.8-7.2-16-16-16z"/></svg>