<svg xmlns="http://www.w3.org/2000/svg" viewBox="0 0 512 512"><!--!Font Awesome Pro 6.6.0 by @fontawesome - https://fontawesome.com License - https://fontawesome.com/license (Commercial License) Copyright 2024 Fonticons, Inc.--><path class="fa-secondary" opacity=".4" d="M73.2 213.3c-17.3 24.6-8.1 61.2 9.7 132.4c2 8.1 3.9 15.5 5.6 22.2l50.3-60.3L73.2 213.3zm1.5-2c6.1-7.8 14-13.1 24.5-16.8l60.9 87.6 79.5-95.4-32.5 0c-37.9 0-66.2 0-87.5 3.1c-14.5 2.1-25.8 5.7-34.5 11.7c-4 2.7-7.4 6-10.4 9.8zm25.3 193c4.7 11 10.1 18.9 17.8 24.9c17.4 13.6 41.4 13.6 89.4 13.6l25.7 0-75-107.8L100 404.2zM176.5 80c0 5.7 1.3 11.2 3.6 16c6 12.6 18.8 21.3 33.7 21.3l85.3 0c14.9 0 27.7-8.7 33.7-21.3c2.3-4.9 3.6-10.3 3.6-16c0-5.7-1.3-11.1-3.6-16c-6-12.6-18.8-21.4-33.8-21.4l-85.3 0c-14.9 0-27.8 8.7-33.7 21.4c-2.3 4.8-3.6 10.3-3.6 16zM179 309.3L256 420l77-110.6L256 217l-77 92.4zM279.2 442.7l26.7 0 .2 0c47.8 0 71.8 0 89.1-13.6c7.5-5.9 12.8-13.5 17.4-24.1l-58.5-70.2-75 107.8zm94-135.1l51 61.2c1.8-7 3.8-14.7 5.9-23.1C441.2 301.1 449 270 449 247c0-14.1-2.9-25.1-9.7-34.5l-66.1 95z"/><path class="fa-primary" d="M99.2 194.5l60.9 87.6 79.5-95.4 32.8 0 79.5 95.4L413 194.2c10.8 3.6 19 9 25.3 17c.3 .4 .7 .9 1 1.3l-66.1 95 51 61.2c-3.9 14.9-7.4 26.7-11.5 36.2l-58.5-70.2-75 107.8-46.4 0-75-107.8L100 404.2c-4-9.5-7.5-21.4-11.4-36.3l50.3-60.3L73.2 213.3c.5-.7 1-1.3 1.5-2c6.1-7.8 14-13.1 24.5-16.8zM256 420l77-110.6L256 217l-77 92.4L256 420zM332.9 96.1c2.3-4.9 3.6-10.3 3.6-16c0-5.7-1.3-11.1-3.6-16c14.6 .1 25.9 .8 36.1 4.7c12.1 4.7 22.7 12.8 30.4 23.2c7.8 10.5 11.5 24.1 16.6 42.6l1 3.6 10.9 63.2c-8.7-6-20-9.6-34.5-11.7l-7.7-44.5c-6.1-22.2-8.2-29.2-12-34.2c-4.2-5.6-9.9-10-16.4-12.5c-4.7-1.8-10.4-2.4-24.5-2.5zM180.1 64c-2.3 4.8-3.6 10.3-3.6 16c0 5.7 1.3 11.2 3.6 16c-14.1 .1-19.8 .7-24.5 2.5c-6.5 2.6-12.2 6.9-16.4 12.5c-3.7 5-5.9 12-12 34.2l-7.7 44.5c-14.5 2.1-25.8 5.7-34.5 11.7L96 138.3l1-3.6c5.1-18.6 8.7-32.1 16.6-42.6c7.8-10.4 18.3-18.5 30.4-23.2c10.1-4 21.5-4.6 36.1-4.7z"/></svg>