<svg xmlns="http://www.w3.org/2000/svg" viewBox="0 0 512 512"><!--!Font Awesome Pro 6.6.0 by @fontawesome - https://fontawesome.com License - https://fontawesome.com/license (Commercial License) Copyright 2024 Fonticons, Inc.--><path class="fa-secondary" opacity=".4" d="M42.7 256c0 80.5 0 120.7 25 145.7c24.9 24.9 65.1 25 145.2 25l.5 0 32 0c80.5 0 120.7 0 145.7-25c20.1-20.1 24-50.1 24.8-103c.2-12.8 .2-27 .2-42.7s0-29.9-.2-42.7c-.8-52.9-4.7-82.9-24.8-103c-25-25-65.2-25-145.7-25l-32 0c-80.5 0-120.7 0-145.7 25s-25 65.2-25 145.7zm90.7-64c0-5.6 3-11.1 8.2-14c7.7-4.3 17.5-1.5 21.8 6.2l.1 .2 .2 .4c.2 .3 .3 .7 .6 1.1c.4 .9 1 2.2 1.6 3.7c1.3 3.1 2.8 7.6 4.3 13.5c3 11.8 5.8 29.1 5.8 52.8s-2.8 41-5.8 52.8c-1.5 5.9-3.1 10.3-4.3 13.5c-.6 1.6-1.2 2.8-1.6 3.7c-.2 .5-.4 .8-.6 1.1l-.2 .4-.1 .3c-4.3 7.7-14 10.5-21.8 6.2c-5.3-2.9-8.2-8.4-8.2-14c0-2.6 .6-5.2 1.9-7.6l.1-.2c.1-.3 .4-.9 .8-1.8c.7-1.9 1.9-5 3-9.5c2.3-9 4.8-23.7 4.8-44.8s-2.5-35.8-4.8-44.8c-1.2-4.5-2.3-7.7-3-9.5c-.4-.9-.7-1.5-.8-1.9l-.1-.2c-1.3-2.4-1.9-5-1.9-7.6zm16 0c4.7-2.6 9.3-5.2 14-7.7c0 0 0 0-14 7.7zm60.6 7.6c-4.1-7.7-1.3-17.3 6.3-21.6c7.7-4.3 17.5-1.5 21.8 6.2c0 .1 .1 .1 .1 .3l.2 .4c.2 .3 .3 .7 .6 1.1c.4 .9 1 2.2 1.6 3.7c1.3 3.1 2.8 7.6 4.3 13.5c3 11.8 5.8 29.1 5.8 52.8s-2.8 41-5.8 52.8c-1.5 5.9-3.1 10.3-4.3 13.5c-.6 1.6-1.2 2.8-1.6 3.7c-.2 .5-.4 .8-.6 1.1l-.2 .4c0 .1-.1 .1-.1 .3c-4.3 7.7-14 10.5-21.8 6.2c-7.7-4.3-10.5-13.9-6.3-21.6l.1-.2c.1-.3 .4-.9 .8-1.8c.7-1.9 1.9-5 3-9.5c2.3-9 4.8-23.7 4.8-44.8s-2.5-35.8-4.8-44.8c-1.2-4.5-2.3-7.7-3-9.5c-.4-.9-.7-1.5-.8-1.9l-.1-.2z"/><path class="fa-primary" d="M415.8 298.7c.2-12.8 .2-27 .2-42.7s0-29.9-.2-42.7h10.8c20.1 0 30.2 0 36.4 6.2s6.2 16.3 6.2 36.4s0 30.2-6.2 36.4s-16.3 6.2-36.4 6.2H415.8zM141.6 178c7.7-4.3 17.5-1.5 21.8 6.2l-14 7.8c14-7.8 14-7.7 14-7.7l0 0 0 .1 .1 .2 .2 .4c.2 .3 .3 .7 .6 1.1c.4 .9 1 2.2 1.6 3.7c1.3 3.1 2.8 7.6 4.3 13.5c3 11.8 5.8 29.1 5.8 52.8s-2.8 41-5.8 52.8c-1.5 5.9-3.1 10.3-4.3 13.5c-.6 1.6-1.2 2.8-1.6 3.7c-.2 .5-.4 .8-.6 1.1l-.2 .4-.1 .2 0 .1 0 0 0 0c-4.3 7.7-14 10.5-21.8 6.2c-7.7-4.3-10.5-13.9-6.3-21.6l.1-.2c.1-.3 .4-.9 .8-1.8c.7-1.9 1.9-5 3-9.5c2.3-9 4.8-23.7 4.8-44.8s-2.5-35.8-4.8-44.8c-1.2-4.5-2.3-7.7-3-9.5c-.4-.9-.7-1.5-.8-1.9l-.1-.2c-4.1-7.7-1.3-17.3 6.3-21.6zm96.4 6.2c-4.3-7.7-14-10.5-21.8-6.2c-7.7 4.3-10.5 13.9-6.3 21.6l.1 .2c.1 .3 .4 .9 .8 1.9c.7 1.9 1.9 5 3 9.5c2.3 9 4.8 23.7 4.8 44.8s-2.5 35.8-4.8 44.8c-1.2 4.5-2.3 7.7-3 9.5c-.4 .9-.7 1.5-.8 1.8l-.1 .2c-4.1 7.7-1.3 17.3 6.3 21.6c7.7 4.3 17.5 1.5 21.8-6.2L224 320c14 7.8 14 7.7 14 7.7l0 0 0-.1 .1-.2 .2-.4c.2-.3 .3-.7 .6-1.1c.4-.9 1-2.2 1.6-3.7c1.3-3.1 2.8-7.6 4.3-13.5c3-11.8 5.8-29.1 5.8-52.8s-2.8-41-5.8-52.8c-1.5-5.9-3.1-10.3-4.3-13.5c-.6-1.6-1.2-2.8-1.6-3.7c-.2-.5-.4-.8-.6-1.1l-.2-.4-.1-.2 0-.1 0 0 0 0z"/></svg>