<svg xmlns="http://www.w3.org/2000/svg" viewBox="0 0 512 512"><!--!Font Awesome Pro 6.6.0 by @fontawesome - https://fontawesome.com License - https://fontawesome.com/license (Commercial License) Copyright 2024 Fonticons, Inc.--><path class="fa-secondary" opacity=".4" d="M42.7 293.6c0 49.9 40.9 90.4 91.4 90.4l66.2 0c10.4-16.5 29.4-27.6 51.1-27.6c3.9 0 7.8 .4 11.5 1.1c-3.2-8.1-4.9-17-4.9-26.2c0-41.6 35.5-75.3 79.2-75.3c40.8 0 74.3 29.3 78.7 66.9c10.1 3.3 19.3 8.6 27.1 15.3c16.4-20.5 26.2-46.4 26.2-74.6c0-52.7-34.3-97.6-82-113.9c-6.8-60.2-58.4-107-121.1-107c-67.3 0-121.9 53.9-121.9 120.5c0 14.7 2.7 28.8 7.6 41.9c-5.7-1.1-11.7-1.7-17.7-1.7c-50.5 0-91.4 40.5-91.4 90.4z"/><path class="fa-primary" d="M390.1 469.3c43.8 0 79.2-33.7 79.2-75.3c0-33-22.3-61-53.3-71.2c-4.4-37.6-38-66.9-78.7-66.9c-43.8 0-79.2 33.7-79.2 75.3c0 9.2 1.7 18 4.9 26.2c-3.7-.7-7.6-1.1-11.5-1.1c-32.8 0-59.4 25.3-59.4 56.5s26.6 56.5 59.4 56.5H390.1z"/></svg>