<svg xmlns="http://www.w3.org/2000/svg" viewBox="0 0 512 512"><!--!Font Awesome Pro 6.6.0 by @fontawesome - https://fontawesome.com License - https://fontawesome.com/license (Commercial License) Copyright 2024 Fonticons, Inc.--><path class="fa-secondary" opacity=".4" d="M26.7 192c0 92.1 73.3 138.9 141.8 148.6c9.4 1.3 18.9 2 28.2 2c24.9 0 49-4.7 69-14.5c11.2-5.5 21.4-12.7 29.5-21.6C284.3 315 270.7 320 256 320c-13.4 0-25.8-4.1-36-11.1c-14.6 2.3-30.7 2.4-47.1 .1c-59.5-8.4-114.2-46.9-114.2-117c0-8.8-7.2-16-16-16s-16 7.2-16 16zm212.6 2.2c5.3-1.4 11-2.2 16.7-2.2c16.7 0 31.9 6.4 43.2 16.8c12.6-1.3 26.1-1.1 39.8 .9c59.5 8.4 114.2 46.9 114.2 117c0 8.8 7.2 16 16 16s16-7.2 16-16c0-92.1-73.3-138.9-141.8-148.6c-34.4-4.9-69.8-.9-97.2 12.5c-2.4 1.2-4.8 2.4-7.1 3.8z"/><path class="fa-primary" d="M194.2 272.7c-1.3-2.3-2.6-4.7-3.8-7.1c-13.4-27.5-17.3-62.8-12.5-97.2C187.7 100 234.6 26.7 326.6 26.7c8.8 0 16 7.2 16 16s-7.2 16-16 16c-70.1 0-108.5 54.7-117 114.2c-1.9 13.7-2.2 27.2-.9 39.8C220.5 200 237.3 192 256 192c20.6 0 39 9.7 50.7 24.9c8.9 8.1 16.1 18.2 21.5 29.5c13.4 27.5 17.3 62.8 12.5 97.2C330.9 412 284.1 485.3 192 485.3c-8.8 0-16-7.2-16-16s7.2-16 16-16c70.1 0 108.5-54.7 117-114.2c2.3-16.4 2.2-32.5-.1-47.1c-11.5 16.9-30.9 28-52.9 28c-29.6 0-54.4-20-61.8-47.3z"/></svg>