<svg xmlns="http://www.w3.org/2000/svg" viewBox="0 0 512 512"><!--!Font Awesome Pro 6.6.0 by @fontawesome - https://fontawesome.com License - https://fontawesome.com/license (Commercial License) Copyright 2024 Fonticons, Inc.--><path class="fa-secondary" opacity=".4" d="M42.7 256c0-53.2 19.4-101.8 51.6-139.1L185.4 208c-9.3 13.7-14.7 30.2-14.7 48s5.4 34.3 14.7 48L94.3 395.1c-32.2-37.4-51.6-86-51.6-139.1zM116.9 94.3c37.4-32.2 86-51.6 139.1-51.6s101.8 19.4 139.1 51.6L304 185.4c-13.7-9.3-30.2-14.7-48-14.7s-34.3 5.4-48 14.7L116.9 94.3zm0 323.5L208 326.6c13.7 9.3 30.2 14.7 48 14.7s34.3-5.4 48-14.7l91.2 91.2c-37.4 32.2-86 51.6-139.1 51.6s-101.8-19.4-139.1-51.6zM326.6 208l91.2-91.2c32.2 37.4 51.6 86 51.6 139.1s-19.4 101.8-51.6 139.1L326.6 304c9.3-13.7 14.7-30.2 14.7-48s-5.4-34.3-14.7-48z"/><path class="fa-primary" d="M116.9 417.7L208 326.6c-8.9-6.1-16.6-13.7-22.6-22.6L94.3 395.1c7 8.1 14.5 15.7 22.6 22.6zM94.3 116.9L185.4 208c6.1-8.9 13.7-16.6 22.6-22.6L116.9 94.3c-8.1 7-15.7 14.5-22.6 22.6zM304 185.4l91.2-91.2c8.1 7 15.7 14.5 22.6 22.6L326.6 208c-6.1-8.9-13.7-16.6-22.6-22.6zM417.7 395.1L326.6 304c-6.1 8.9-13.7 16.6-22.6 22.6l91.2 91.2c8.1-7 15.7-14.5 22.6-22.6z"/></svg>