<svg xmlns="http://www.w3.org/2000/svg" viewBox="0 0 512 512"><!--!Font Awesome Pro 6.6.0 by @fontawesome - https://fontawesome.com License - https://fontawesome.com/license (Commercial License) Copyright 2024 Fonticons, Inc.--><path class="fa-secondary" opacity=".4" d="M59.5 193.4l0 .3 0 108.1c0 40.8 0 61.1 12.8 73.8c12.8 12.6 33.3 12.7 74.2 12.7l.3 0 218.3 0c41.2 0 61.7 0 74.5-12.7c12.8-12.6 12.8-33 12.8-73.6l0-.2 0-108.1c0-61.1 0-91.7-19.2-110.7s-50.1-19-111.8-19l-131 0c-61.7 0-92.6 0-111.8 19c-19.1 19-19.2 49.5-19.2 110.4zm114.6 130c0-9 7.3-16.2 16.4-16.2l131 0c9 0 16.4 7.3 16.4 16.2s-7.3 16.2-16.4 16.2l-131 0c-9 0-16.4-7.3-16.4-16.2z"/><path class="fa-primary" d="M21.3 431.8c0-9 7.3-16.2 16.4-16.2l436.6 0c9 0 16.4 7.3 16.4 16.2s-7.3 16.2-16.4 16.2L37.7 448c-9 0-16.4-7.3-16.4-16.2zM190.5 307.2c-9 0-16.4 7.3-16.4 16.2s7.3 16.2 16.4 16.2h131c9 0 16.4-7.3 16.4-16.2s-7.3-16.2-16.4-16.2h-131z"/></svg>