<svg xmlns="http://www.w3.org/2000/svg" viewBox="0 0 512 512"><!--!Font Awesome Pro 6.6.0 by @fontawesome - https://fontawesome.com License - https://fontawesome.com/license (Commercial License) Copyright 2024 Fonticons, Inc.--><path class="fa-secondary" opacity=".4" d="M106.7 256c0 59.9 0 89.9 14.4 111.4c6.2 9.3 14.2 17.3 23.5 23.5c21.5 14.4 51.4 14.4 111 14.4l.4 0c59.9 0 89.9 0 111.4-14.4c9.3-6.2 17.3-14.2 23.5-23.5c14.4-21.5 14.4-51.4 14.4-111l0-.4c0-59.9 0-89.9-14.4-111.4c-6.2-9.3-14.2-17.3-23.5-23.5c-21.5-14.4-51.5-14.4-111.4-14.4s-89.9 0-111.4 14.4c-9.3 6.2-17.3 14.2-23.5 23.5c-14.4 21.5-14.4 51.5-14.4 111.4zm92 6.3c-2.5-5.9-1.3-12.7 3.1-17.3l61-64c6.1-6.4 16.2-6.6 22.6-.6s6.6 16.2 .6 22.6l-35.2 37 48 0c6.4 0 12.2 3.8 14.7 9.7s1.3 12.7-3.1 17.3l-61 64c-6.1 6.4-16.2 6.6-22.6 .6s-6.6-16.2-.6-22.6l35.2-37-48 0c-6.4 0-12.2-3.8-14.7-9.7z"/><path class="fa-primary" d="M285.3 180.4c6.4 6.1 6.6 16.2 .6 22.6l-35.2 37h48c6.4 0 12.2 3.8 14.7 9.7s1.3 12.7-3.1 17.3l-61 64c-6.1 6.4-16.2 6.6-22.6 .6s-6.6-16.2-.6-22.6l35.2-37h-48c-6.4 0-12.2-3.8-14.7-9.7s-1.3-12.7 3.1-17.3l61-64c6.1-6.4 16.2-6.6 22.6-.6zM133.3 42.7c0-8.8 7.2-16 16-16l213.3 0c8.8 0 16 7.2 16 16s-7.2 16-16 16l-213.3 0c-8.8 0-16-7.2-16-16zm0 426.7c0-8.8 7.2-16 16-16l213.3 0c8.8 0 16 7.2 16 16s-7.2 16-16 16l-213.3 0c-8.8 0-16-7.2-16-16z"/></svg>