<svg xmlns="http://www.w3.org/2000/svg" viewBox="0 0 512 512"><!--!Font Awesome Pro 6.6.0 by @fontawesome - https://fontawesome.com License - https://fontawesome.com/license (Commercial License) Copyright 2024 Fonticons, Inc.--><path class="fa-secondary" opacity=".4" d="M42.7 256c0-100.6 0-150.8 31.2-182.1S155.4 42.7 256 42.7s150.9 0 182.1 31.2c31.2 31.2 31.2 81.3 31.2 181.3l0 .8c0 100.6 0 150.9-31.2 182.1s-81.5 31.2-182.1 31.2s-150.8 0-182.1-31.2S42.7 356.6 42.7 256zM112 234.7c0 3.6 1.2 7.2 3.7 10.2l53.3 64c3 3.6 7.5 5.8 12.3 5.8s9.3-2.1 12.3-5.8l53.3-64c5.7-6.8 4.7-16.9-2-22.5s-16.9-4.7-22.5 2.1l-25 30.1 0-105.1c0-8.8-7.2-16-16-16s-16 7.2-16 16l0 105.1-25-30.1c-5.7-6.8-15.7-7.7-22.5-2.1c-3.8 3.2-5.8 7.7-5.8 12.3zm0 128c0 8.8 7.2 16 16 16l256 0c8.8 0 16-7.2 16-16s-7.2-16-16-16l-256 0c-8.8 0-16 7.2-16 16zM265 244.9l53.3 64c3 3.6 7.5 5.8 12.3 5.8s9.3-2.1 12.3-5.8l53.3-64c2.5-3 3.7-6.6 3.7-10.2c0-4.6-2-9.1-5.8-12.3c-6.8-5.7-16.9-4.7-22.5 2.1l-25 30.1 0-105.1c0-8.8-7.2-16-16-16s-16 7.2-16 16l0 105.1-25-30.1c-5.7-6.8-15.7-7.7-22.5-2.1s-7.7 15.7-2 22.5z"/><path class="fa-primary" d="M181.3 133.3c8.8 0 16 7.2 16 16V254.5l25-30.1c5.7-6.8 15.7-7.7 22.5-2.1s7.7 15.7 2 22.5l-53.3 64c-3 3.6-7.5 5.8-12.3 5.8s-9.3-2.1-12.3-5.8l-53.3-64c-5.7-6.8-4.7-16.9 2-22.5s16.9-4.7 22.5 2.1l25 30.1 0-105.1c0-8.8 7.2-16 16-16zm149.3 0c8.8 0 16 7.2 16 16l0 105.1 25-30.1c5.7-6.8 15.7-7.7 22.5-2.1s7.7 15.7 2 22.5l-53.3 64c-3 3.6-7.5 5.8-12.3 5.8s-9.3-2.1-12.3-5.8l-53.3-64c-5.7-6.8-4.7-16.9 2-22.5s16.9-4.7 22.5 2.1l25 30.1 0-105.1c0-8.8 7.2-16 16-16zM128 346.7c-8.8 0-16 7.2-16 16s7.2 16 16 16H384c8.8 0 16-7.2 16-16s-7.2-16-16-16H128z"/></svg>