<svg xmlns="http://www.w3.org/2000/svg" viewBox="0 0 512 512"><!--!Font Awesome Pro 6.6.0 by @fontawesome - https://fontawesome.com License - https://fontawesome.com/license (Commercial License) Copyright 2024 Fonticons, Inc.--><path class="fa-secondary" opacity=".4" d="M85.3 213.3c0-80.5 0-120.7 25-145.7c24.9-24.9 65-25 145.1-25l.6 0c80.5 0 120.7 0 145.7 25c24.9 24.9 25 65 25 145.1l0 .6 0 32-341.3 0 0-32zm261.3-64l0 42.7c0 8.8 7.2 16 16 16s16-7.2 16-16l0-42.7c0-8.8-7.2-16-16-16s-16 7.2-16 16z"/><path class="fa-primary" d="M85.3 245.3l0 32c0 80.5 0 120.7 25 145.7c6.5 6.5 14 11.3 23 14.9l0 31.5c0 8.8 7.2 16 16 16l21.3 0c8.8 0 16-7.2 16-16l0-22.3c19.1 1 41.9 1 69.3 1s50.2 0 69.3-1l0 22.3c0 8.8 7.2 16 16 16l21.3 0c8.8 0 16-7.2 16-16l0-31.5c9-3.6 16.5-8.4 23-14.9c25-25 25-65.2 25-145.7l0-32-341.3 0zm277.3 37.3c8.8 0 16 7.2 16 16l0 42.7c0 8.8-7.2 16-16 16s-16-7.2-16-16l0-42.7c0-8.8 7.2-16 16-16zm16-133.3c0-8.8-7.2-16-16-16s-16 7.2-16 16V192c0 8.8 7.2 16 16 16s16-7.2 16-16V149.3z"/></svg>