<svg xmlns="http://www.w3.org/2000/svg" viewBox="0 0 512 512"><!--!Font Awesome Pro 6.5.2 by @fontawesome - https://fontawesome.com License - https://fontawesome.com/license (Commercial License) Copyright 2024 Fonticons, Inc.--><path class="fa-secondary" opacity=".4" d="M42.7 213.3l0 21.3c0 11.8 0 33.1 .1 42.7l426.6 0 0-42.7 0-21.3 0-.5c0-80.1-.1-120.2-25-145.1c-25-25-65.2-25-145.7-25l-85.3 0c-80.4 0-120.7 0-145.7 25c-25 25-25 65.2-25 145.7z"/><path class="fa-primary" d="M170.3 373.3c-60.6 0-90.9 0-109.7-18.8c-12.2-12.1-16.5-29.1-18-55.9v-21.3h426.7v21.3c-1.5 26.8-5.8 43.8-18 55.9c-18.8 18.8-49.1 18.8-109.7 18.8h-69.6v85.3h69.6c8.9 0 16.1 7.2 16.1 16s-7.2 16-16.1 16H170.3a16 16 0 0 1 -16.1-16c0-8.8 7.2-16 16.1-16h69.6v-85.3z"/></svg>