<svg xmlns="http://www.w3.org/2000/svg" viewBox="0 0 512 512"><!--!Font Awesome Pro 6.6.0 by @fontawesome - https://fontawesome.com License - https://fontawesome.com/license (Commercial License) Copyright 2024 Fonticons, Inc.--><path class="fa-secondary" opacity=".4" d="M106.7 240.2c34 15.9 68 31.9 102 47.8c30.3 14.2 64.3 14.2 94.6 0c34-16 68-31.9 102-47.8l0 114.5c0 21.5-10.7 41.6-29.6 52.1C344.5 424.1 294.3 448 256 448s-88.5-23.9-119.8-41.3c-18.8-10.4-29.6-30.6-29.6-52.1l0-114.5z"/><path class="fa-primary" d="M303.3 74.7c-30.3-14.2-64.3-14.2-94.6 0l-91.6 42.9c16.7 1.8 31.9 12.3 39 28.8c10.4 24.4-.8 52.6-25.2 63L108 219.3c-11.4 4.9-17.9 7.7-22.2 9.9c0 .3 0 .7-.1 1.1l123 57.7c30.3 14.2 64.3 14.2 94.6 0L446 221.1c31.1-14.6 31.1-64.9 0-79.5L303.3 74.7zM118.3 180c8.1-3.5 11.9-12.9 8.4-21s-12.9-11.9-21-8.4L82 160.8c-11.9 5.1-22 9.4-29.9 13.9c-8.4 4.7-15.7 10.3-21.1 18.5s-7.7 17.1-8.7 26.7c-1 9-1 20-1 32.9v61.9c0 8.8 7.2 16 16 16s16-7.2 16-16V253.6c0-14 0-23.2 .8-30.3c.7-6.7 2-10 3.6-12.5s4.2-4.9 10.1-8.2c6.2-3.5 14.7-7.2 27.6-12.7l22.9-9.8z"/></svg>