<svg xmlns="http://www.w3.org/2000/svg" viewBox="0 0 512 512"><!--!Font Awesome Pro 6.6.0 by @fontawesome - https://fontawesome.com License - https://fontawesome.com/license (Commercial License) Copyright 2024 Fonticons, Inc.--><path class="fa-secondary" opacity=".4" d="M42.7 256c0-100.6 0-150.8 31.2-182.1S155.4 42.7 256 42.7s150.9 0 182.1 31.2c31.2 31.2 31.2 81.3 31.2 181.3l0 .8c0 100.6 0 150.9-31.2 182.1s-81.5 31.2-182.1 31.2s-150.8 0-182.1-31.2S42.7 356.6 42.7 256zm80 19.7l0 1.6 0 .9c0 13.5 0 24.8 .9 34.1c1 9.8 3.1 19 8.5 27.3c4.5 7 10.4 12.9 17.4 17.4c8.3 5.4 17.5 7.5 27.3 8.5c9.4 .9 21 .9 34.9 .9l97.6 0c8.8 0 16-7.2 16-16s-7.2-16-16-16l-96.8 0c-14.9 0-24.9 0-32.6-.8c-7.4-.7-10.8-2-13.1-3.5c-3.2-2.1-5.9-4.7-7.9-7.9c-1.5-2.3-2.8-5.7-3.5-13.1c-.8-7.6-.8-17.7-.8-32.6s0-24.9 .8-32.6c.7-7.4 2-10.8 3.5-13.1c2-3.2 4.7-5.9 7.9-7.9c2.3-1.5 5.7-2.8 13.1-3.5c7.6-.8 17.7-.8 32.6-.8l119.9 0-17.9 16.6c-6.5 6-6.9 16.1-.9 22.6s16.1 6.9 22.6 .9l48-44.3c3.3-3 5.1-7.3 5.1-11.8s-1.9-8.7-5.1-11.8l-48-44.3c-3.1-2.8-7-4.2-10.8-4.2c-4.3 0-8.6 1.7-11.8 5.1c-6 6.5-5.6 16.6 .9 22.6l17.9 16.6-120.7 0c-13.9 0-25.5 0-34.9 .9c-9.8 1-19 3.1-27.3 8.5c-7 4.5-12.9 10.4-17.4 17.4c-5.4 8.3-7.5 17.5-8.5 27.3c-.9 9.4-.9 21-.9 34.9z"/><path class="fa-primary" d="M313.6 147.5c6-6.5 16.1-6.9 22.6-.9l48 44.3c3.3 3 5.1 7.3 5.1 11.8s-1.9 8.7-5.1 11.8l-48 44.3c-6.5 6-16.6 5.6-22.6-.9s-5.6-16.6 .9-22.6l17.9-16.6-119.9 0c-14.9 0-24.9 0-32.6 .8c-7.4 .7-10.8 2-13.1 3.5c-3.2 2-5.9 4.7-7.9 7.9c-1.5 2.3-2.8 5.7-3.5 13.1c-.8 7.6-.8 17.7-.8 32.6s0 24.9 .8 32.6c.7 7.4 2 10.8 3.5 13.1c2 3.2 4.7 5.9 7.9 7.9c2.3 1.5 5.7 2.8 13.1 3.5c7.6 .8 17.7 .8 32.6 .8l96.8 0c8.8 0 16 7.2 16 16s-7.2 16-16 16l-97.6 0c-13.9 0-25.5 0-34.9-.9c-9.8-1-19-3.1-27.3-8.5c-7-4.5-12.9-10.4-17.4-17.4c-5.4-8.3-7.5-17.5-8.5-27.3c-.9-9.4-.9-21-.9-34.9l0-1.6c0-13.9 0-25.5 .9-34.9c1-9.8 3.1-19 8.5-27.3c4.5-7 10.4-12.9 17.4-17.4c8.3-5.4 17.5-7.5 27.3-8.5c9.4-.9 21-.9 34.9-.9l120.7 0-17.9-16.6c-6.5-6-6.9-16.1-.9-22.6z"/></svg>