<svg xmlns="http://www.w3.org/2000/svg" viewBox="0 0 512 512"><!--!Font Awesome Pro 6.6.0 by @fontawesome - https://fontawesome.com License - https://fontawesome.com/license (Commercial License) Copyright 2024 Fonticons, Inc.--><path class="fa-secondary" opacity=".4" d="M80.1 257.6c.1 .6 .1 1.1 .2 1.6c-.1-.5-.2-1-.2-1.6zm.2 1.6c.2 1 .5 2 .9 3c-.2-.5-.4-.9-.5-1.4c-.2-.5-.3-1-.4-1.6zm38.3-3.1c5.3-5.3 10.7-10.7 16-16l174.7 0c15.2 0 38.4-4.7 57.3-18.3c18.1-13 33.3-34.9 33.3-72.3c0-8.8 7.2-16 16-16s16 7.2 16 16c0 47.9-20.3 79.4-46.7 98.3c-25.5 18.4-55.7 24.3-76 24.3l-174.7 0c-5.3-5.3-10.7-10.7-16-16z"/><path class="fa-primary" d="M214 374c-6.2 6.2-16.4 6.2-22.6 0L84.7 267.3c-6.2-6.2-6.2-16.4 0-22.6L191.4 138c6.2-6.2 16.4-6.2 22.6 0s6.2 16.4 0 22.6L118.6 256 214 351.4c6.2 6.2 6.2 16.4 0 22.6z"/></svg>