<svg xmlns="http://www.w3.org/2000/svg" viewBox="0 0 512 512"><!--!Font Awesome Pro 6.6.0 by @fontawesome - https://fontawesome.com License - https://fontawesome.com/license (Commercial License) Copyright 2024 Fonticons, Inc.--><path class="fa-secondary" opacity=".4" d="M69.3 469.3c0 8.8 7.2 16 16 16l341.3 0c8.8 0 16-7.2 16-16s-7.2-16-16-16l-341.3 0c-8.8 0-16 7.2-16 16zM297 77.5c.2 .6 .4 1.2 .6 1.9c2.8 8 6.8 17.2 12.6 26.9c5.8 9.7 13.3 19.8 23.2 29.7c.4 .4 .8 .8 1.1 1.1c1 1 2 2 3 2.9c1 .9 2 1.8 2.9 2.7c.2 .2 .4 .3 .5 .5c2.4 2.1 4.8 4.1 7.2 5.9c15 11.5 29.8 18.5 41.8 22.6c.6 .2 1.2 .4 1.9 .6c5.1-5 10.1-10.1 15.2-15.1c26.2-26.2 26.2-68.7 0-94.9c-13.1-13.1-30.3-19.7-47.5-19.7s-34.4 6.6-47.5 19.7L297 77.5zm0 0c.1 .3 .2 .6 .3 .9c-.1-1.2 .1-1.4 .3-1.6c-.2 .2-.4 .4-.6 .7z"/><path class="fa-primary" d="M297.6 76.8l-.7 .7c.2 .6 .4 1.3 .6 1.9c5.6 16 16 37 35.7 56.7S374 166.2 390 171.7c.6 .2 1.3 .4 1.9 .6L245.8 318.5c-9.9 9.9-14.8 14.8-20.2 19c-6.4 5-13.3 9.3-20.7 12.8c-6.2 3-12.8 5.2-26 9.6l-69.7 23.2c-6.5 2.2-13.7 .5-18.5-4.4s-6.5-12-4.4-18.5l23.2-69.7c4.4-13.2 6.6-19.8 9.6-26c3.5-7.3 7.8-14.3 12.8-20.7c4.2-5.4 9.2-10.4 19-20.2L297.6 76.8z"/></svg>