<svg xmlns="http://www.w3.org/2000/svg" viewBox="0 0 512 512"><!--!Font Awesome Pro 6.6.0 by @fontawesome - https://fontawesome.com License - https://fontawesome.com/license (Commercial License) Copyright 2024 Fonticons, Inc.--><path class="fa-secondary" opacity=".4" d="M373 200.7c-3.8-7.5-1.2-17 5.8-21.1c7.1-4.2 16.1-1.5 20 6.1l.1 .2 .2 .4c.1 .3 .3 .7 .5 1.1c.4 .9 .9 2.1 1.5 3.7c1.2 3.1 2.6 7.4 4 13.2c2.8 11.5 5.4 28.5 5.4 51.7s-2.6 40.2-5.4 51.7c-1.4 5.8-2.8 10.1-4 13.2c-.6 1.5-1.1 2.8-1.5 3.7c-.2 .5-.4 .8-.5 1.1l-.2 .4c0 0 0 .1-.1 .3c-4 7.6-12.9 10.3-20 6.1c-7-4.2-9.6-13.6-5.8-21.1l.1-.2c.1-.3 .4-.9 .7-1.8c.7-1.8 1.7-4.9 2.8-9.3c2.1-8.9 4.4-23.2 4.4-44s-2.3-35.1-4.4-44c-1.1-4.4-2.1-7.5-2.8-9.3c-.3-.9-.6-1.5-.7-1.8l-.1-.2zm40.8-60.2l2-22c2.8-2.4 6.1-3.6 9.4-3.6c4.2 0 8.4 1.9 11.4 5.7c.1 .1 .2 .2 .2 .3c.1 .1 .2 .3 .4 .6c.3 .5 .8 1.1 1.3 1.8c1 1.5 2.4 3.7 4 6.5c3.2 5.6 7.2 13.9 11.2 25c8 22.2 15.7 55.5 15.7 101.3s-7.7 79.1-15.7 101.3c-4 11.1-8.1 19.3-11.2 25c-1.6 2.8-3 5-4 6.5c-.5 .8-.9 1.4-1.3 1.8c-.2 .2-.3 .4-.4 .6c0 .1-.1 .1-.2 .3c-5.2 6.7-14.5 7.6-20.7 2c-6.2-5.5-7.1-15.3-1.9-22.1c.1-.1 .3-.4 .6-.9c.6-.9 1.5-2.3 2.7-4.4c2.3-4.2 5.6-10.8 9-20.1c6.7-18.6 13.7-48.1 13.7-90.1s-7-71.5-13.7-90.1c-3.4-9.3-6.7-16-9-20.1c-1.2-2.1-2.1-3.5-2.7-4.4c-.3-.4-.5-.7-.7-1z"/><path class="fa-primary" d="M42.7 249.9c.8-39.3 1.2-59 14.2-75.8c2.4-3.1 5.9-6.7 8.8-9.2c16.1-13.6 37.3-13.6 79.6-13.6c15.1 0 22.7 0 29.9-2c1.5-.4 3-.9 4.4-1.4c7-2.6 13.4-7 26-15.9c49.9-35.1 74.8-52.6 95.8-45c4 1.5 7.9 3.6 11.4 6.2c18.1 13.6 19.5 45.1 22.2 108.2c1 23.4 1.7 43.4 1.7 54.5s-.7 31.1-1.7 54.5c-2.7 63.1-4.1 94.7-22.2 108.2c-3.5 2.6-7.4 4.7-11.4 6.2c-20.9 7.6-45.9-9.9-95.8-45c-12.6-8.9-19-13.3-26-15.9c-1.5-.5-2.9-1-4.4-1.4c-7.2-2-14.8-2-29.9-2c-42.4 0-63.6 0-79.6-13.6c-2.9-2.5-6.4-6.1-8.8-9.2C43.9 321 43.5 301.4 42.7 262.1c0-2.1-.1-4.1-.1-6.1s0-4 .1-6.1z"/></svg>