<svg xmlns="http://www.w3.org/2000/svg" viewBox="0 0 512 512"><!--!Font Awesome Pro 6.5.2 by @fontawesome - https://fontawesome.com License - https://fontawesome.com/license (Commercial License) Copyright 2024 Fonticons, Inc.--><path class="fa-secondary" opacity=".4" d="M41.7 296.6c0 7.1 4.7 13.5 11.9 15.4l50.1 13.4L63.2 348.8c-7.6 4.4-10.2 14.2-5.8 21.8s14.1 10.3 21.8 5.9l40.4-23.4-13.4 50.1c-2.3 8.5 2.8 17.3 11.3 19.6s17.3-2.8 19.6-11.3l21.7-81L240 283.7l0-55.4-81.1-46.8-21.7-81c-1.1-4.1-3.8-7.6-7.5-9.7s-8-2.7-12.1-1.6c-8.5 2.3-13.6 11.1-11.3 19.6l13.4 50.1L79.2 135.5c-7.6-4.3-17.4-1.7-21.8 5.9s-1.8 17.4 5.8 21.8l40.5 23.3L53.6 200C45 202.3 40 211 42.3 219.6s11.1 13.6 19.6 11.3l81-21.7L224 256l-81.1 46.8-81-21.7c-8.5-2.3-17.3 2.8-19.6 11.3c-.4 1.4-.5 2.8-.5 4.1zM272 228.3l0 55.4 81.1 46.8 21.7 81c2.3 8.5 11.1 13.6 19.6 11.3s13.6-11.1 11.3-19.6l-13.4-50.1 40.4 23.4c7.7 4.4 17.4 1.8 21.9-5.9s1.8-17.4-5.9-21.9l-40.5-23.3L458.4 312c8.5-2.3 13.6-11.1 11.3-19.6s-11.1-13.6-19.6-11.3l-81 21.7L288 256l81.1-46.8 81 21.7c5.6 1.7 11.7 .2 15.9-3.9s5.8-10.1 4.2-15.8s-6.1-10-11.8-11.3l-50.1-13.4 40.4-23.3c7.7-4.4 10.3-14.2 5.9-21.9s-14.2-10.3-21.9-5.9l-40.4 23.4 13.4-50.1c2.3-8.5-2.8-17.3-11.3-19.6c-1.4-.4-2.8-.6-4.2-.6c-7.1 0-13.5 4.7-15.5 11.9l-21.7 81L272 228.3z"/><path class="fa-primary" d="M256 26.7a16 16 0 0 1 16 16v46.7l36.7-36.7a16 16 0 1 1 22.6 22.6L272 134.6v242.8l59.3 59.3a16 16 0 1 1 -22.6 22.6L272 422.6v46.7a16 16 0 0 1 -32 0v-46.7l-36.7 36.7a16 16 0 0 1 -22.6-22.6l59.3-59.3V134.6L180.7 75.3a16 16 0 0 1 22.6-22.6L240 89.4V42.7a16 16 0 0 1 16-16"/></svg>