<svg xmlns="http://www.w3.org/2000/svg" viewBox="0 0 512 512"><!--!Font Awesome Pro 6.6.0 by @fontawesome - https://fontawesome.com License - https://fontawesome.com/license (Commercial License) Copyright 2024 Fonticons, Inc.--><path class="fa-secondary" opacity=".4" d="M224 265.4c7.5 7.5 15.1 15.1 22.6 22.6L395.3 139.3c3.1-3.1 4.7-7.2 4.7-11.3s-1.6-8.2-4.7-11.3s-7.2-4.7-11.3-4.7s-8.2 1.6-11.3 4.7c-49.6 49.6-99.1 99.1-148.7 148.7z"/><path class="fa-primary" d="M246.6 288L224 265.4l-84.7-84.7c-4.6-4.6-11.5-5.9-17.4-3.5s-9.9 8.3-9.9 14.8l0 192c0 8.8 7.2 16 16 16l192 0c6.5 0 12.3-3.9 14.8-9.9s1.1-12.9-3.5-17.4L246.6 288z"/></svg>