<svg xmlns="http://www.w3.org/2000/svg" viewBox="0 0 512 512"><!--!Font Awesome Pro 6.6.0 by @fontawesome - https://fontawesome.com License - https://fontawesome.com/license (Commercial License) Copyright 2024 Fonticons, Inc.--><path class="fa-secondary" opacity=".4" d="M42.7 256c0 100.6 0 150.9 31.2 182.1s81.5 31.2 182.1 31.2s150.9 0 182.1-31.2c31.2-31.2 31.2-81.3 31.2-181.3l0-.8c0-100.6 0-150.8-31.2-182.1S356.6 42.7 256 42.7s-150.8 0-182.1 31.2S42.7 155.4 42.7 256zM192 256a21.3 21.3 0 1 1 -42.7 0 21.3 21.3 0 1 1 42.7 0zm85.3 0a21.3 21.3 0 1 1 -42.7 0 21.3 21.3 0 1 1 42.7 0zm85.3 0A21.3 21.3 0 1 1 320 256a21.3 21.3 0 1 1 42.7 0z"/><path class="fa-primary" d="M170.7 277.3a21.3 21.3 0 1 0 0-42.7 21.3 21.3 0 1 0 0 42.7zm85.3 0a21.3 21.3 0 1 0 0-42.7 21.3 21.3 0 1 0 0 42.7zm85.3 0a21.3 21.3 0 1 0 0-42.7 21.3 21.3 0 1 0 0 42.7z"/></svg>