<svg xmlns="http://www.w3.org/2000/svg" viewBox="0 0 512 512"><!--!Font Awesome Pro 6.6.0 by @fontawesome - https://fontawesome.com License - https://fontawesome.com/license (Commercial License) Copyright 2024 Fonticons, Inc.--><path class="fa-secondary" opacity=".4" d="M42.7 352c0-29.5 38.2-53.3 85.3-53.3c11.3 0 22.2 1.4 32.1 3.9C140.1 315.7 128 333 128 352s12.1 36.3 32.1 49.4c-9.9 2.5-20.7 3.9-32.1 3.9c-47.1 0-85.3-23.9-85.3-53.3zM96 160c0-29.5 23.9-53.3 53.3-53.3c16.2 0 30.7 7.2 40.5 18.7c-5.4 10.4-8.5 22.2-8.5 34.7s3.1 24.3 8.5 34.7c-9.8 11.4-24.3 18.7-40.5 18.7C119.9 213.3 96 189.5 96 160zm226.1-34.7c9.8-11.4 24.3-18.7 40.5-18.7c29.5 0 53.3 23.9 53.3 53.3s-23.9 53.3-53.3 53.3c-16.2 0-30.7-7.2-40.5-18.7c5.4-10.4 8.5-22.2 8.5-34.7s-3.1-24.3-8.5-34.7zm29.8 177.2c9.9-2.5 20.7-3.9 32.1-3.9c47.1 0 85.3 23.9 85.3 53.3s-38.2 53.3-85.3 53.3c-11.3 0-22.2-1.4-32.1-3.9C371.9 388.3 384 371 384 352s-12.1-36.3-32.1-49.4z"/><path class="fa-primary" d="M181.3 160a74.7 74.7 0 1 1 149.3 0 74.7 74.7 0 1 1 -149.3 0zM384 352c0 41.2-57.3 74.7-128 74.7s-128-33.4-128-74.7s57.3-74.7 128-74.7s128 33.4 128 74.7z"/></svg>