<svg xmlns="http://www.w3.org/2000/svg" viewBox="0 0 512 512"><!--!Font Awesome Pro 6.6.0 by @fontawesome - https://fontawesome.com License - https://fontawesome.com/license (Commercial License) Copyright 2024 Fonticons, Inc.--><path class="fa-secondary" opacity=".4" d="M42.7 178.9c0-18.1 14.5-32.6 43.6-61.7l30.9-30.9c29.1-29.1 43.6-43.6 61.7-43.6c9.9 0 18.7 4.4 29.5 13.1L180 84c-6.2 6.2-6.2 16.4 0 22.6s16.4 6.2 22.6 0l29.1-29.1c2.8 2.8 5.7 5.7 8.8 8.8l33.2 33.2L124.6 268.8c-1.8 1.8-3.5 3.5-5 5L86.3 240.6c-29.1-29.1-43.6-43.6-43.6-61.7zM238.2 392.4l.3-.3c1.5-1.5 3.1-3.1 4.8-4.8L392.4 238.2l33.3 33.3 3.3 3.3L404 299.7c-6.2 6.2-6.2 16.4 0 22.6s16.4 6.2 22.6 0l24.5-24.5c12.1 13.6 18.1 23.7 18.1 35.4c0 18.1-14.5 32.6-43.6 61.7l-30.9 30.9c-29.1 29.1-43.6 43.6-61.7 43.6s-32.6-14.5-61.7-43.6l-33.3-33.3zm69-306.3c.3-.3 .5-.6 .8-.8c6-6 12.1-12.1 18.1-18.1c16.4-16.4 37.9-24.6 59.3-24.6s42.9 8.2 59.3 24.6s24.6 37.9 24.6 59.3s-8.2 42.9-24.6 59.3c-6.3 6.3-12.6 12.6-19 18.9c-.8-.3-1.6-.5-2.3-.8c-20-6.9-46.2-20-70.8-44.6S315 108.5 308 88.5c-.3-.8-.5-1.6-.8-2.4z"/><path class="fa-primary" d="M308 85.3l-.8 .8c.3 .8 .5 1.6 .8 2.4c6.9 20 20 46.2 44.6 70.8s50.8 37.7 70.8 44.6c.8 .3 1.6 .5 2.3 .8L243.2 387.4c-12.3 12.3-18.5 18.5-25.3 23.8c-8 6.2-16.7 11.6-25.8 16c-7.8 3.7-16 6.5-32.6 12l-87.1 29c-8.1 2.7-17.1 .6-23.2-5.5s-8.2-15-5.5-23.2l29-87.1c5.5-16.5 8.3-24.8 12-32.6c4.4-9.2 9.7-17.8 16-25.8c5.3-6.8 11.5-12.9 23.8-25.3L308 85.3zM429 274.7L404 299.7c-6.2 6.2-6.2 16.4 0 22.6s16.4 6.2 22.6 0l24.5-24.5c-5.9-6.7-13.4-14.2-22.2-23zM208.3 55.7L180 84c-6.2 6.2-6.2 16.4 0 22.6s16.4 6.2 22.6 0l29.1-29.1c-9.1-9-16.7-16.3-23.5-21.8z"/></svg>