<svg xmlns="http://www.w3.org/2000/svg" viewBox="0 0 512 512"><!--!Font Awesome Pro 6.6.0 by @fontawesome - https://fontawesome.com License - https://fontawesome.com/license (Commercial License) Copyright 2024 Fonticons, Inc.--><path class="fa-secondary" opacity=".4" d="M42.7 256c0-100.6 0-150.8 31.2-182.1S155.4 42.7 256 42.7c88.2 0 137.7 0 169.6 21.1L272 217.4l0-75.4c0-8.8-7.2-16-16-16s-16 7.2-16 16l0 114c0 8.8 7.2 16 16 16l114 0c8.8 0 16-7.2 16-16s-7.2-16-16-16l-75.4 0L448.3 86.4c21 31.8 21.1 81.2 21.1 168.9l0 .8c0 100.6 0 150.9-31.2 182.1s-81.5 31.2-182.1 31.2s-150.8 0-182.1-31.2S42.7 356.6 42.7 256z"/><path class="fa-primary" d="M459.3 52.7c6.2 6.2 6.2 16.4 0 22.6L294.6 240l75.4 0c8.8 0 16 7.2 16 16s-7.2 16-16 16l-114 0c-8.8 0-16-7.2-16-16l0-114c0-8.8 7.2-16 16-16s16 7.2 16 16l0 75.4L436.7 52.7c6.2-6.2 16.4-6.2 22.6 0z"/></svg>