<svg xmlns="http://www.w3.org/2000/svg" viewBox="0 0 512 512"><!--!Font Awesome Pro 6.5.2 by @fontawesome - https://fontawesome.com License - https://fontawesome.com/license (Commercial License) Copyright 2024 Fonticons, Inc.--><path class="fa-secondary" opacity=".4" d="M86.1 240c-1 10.6-1 21.4 0 32c7.6 81.5 72.4 146.4 153.9 153.9c2.6 .2 5.3 .4 7.9 .6s5.3 .2 8 .2c2.8 0 5.4-.1 8.1-.2c2.7-.1 5.3-.3 7.9-.6c81.5-7.6 146.4-72.4 153.9-153.9c1-10.6 1-21.4 0-32C418.4 158.5 353.5 93.6 272 86.1c-2.6-.3-5.3-.4-7.9-.6c-2.6-.1-5.3-.2-8.1-.2c-2.8 0-5.5 .1-8.1 .2c-2.6 .1-5.3 .3-7.9 .6C158.5 93.6 93.6 158.5 86.1 240zm244.3 16a74.4 74.4 0 1 1 -148.8 0 74.4 74.4 0 1 1 148.8 0z"/><path class="fa-primary" d="M256 181.6a74.4 74.4 0 1 0 0 148.8 74.4 74.4 0 0 0 0-148.8M272 42.7a16 16 0 0 0 -32 0v43.4a172.8 172.8 0 0 1 32 0zM425.9 272a172.5 172.5 0 0 0 0-32h43.4a16 16 0 0 1 0 32zM240 425.9a172.5 172.5 0 0 0 32 0v43.4a16 16 0 0 1 -32 0zM86.1 240a172.8 172.8 0 0 0 0 32H42.7a16 16 0 0 1 0-32z"/></svg>