<svg xmlns="http://www.w3.org/2000/svg" viewBox="0 0 512 512"><!--!Font Awesome Pro 6.6.0 by @fontawesome - https://fontawesome.com License - https://fontawesome.com/license (Commercial License) Copyright 2024 Fonticons, Inc.--><path class="fa-secondary" opacity=".4" d="M178.7 166.7c-2.3 5.2-.1 11.3 5 13.9l173.9 86.9c9 4.5 18.6-4.7 14.5-13.9L287.4 63.9c-6.3-14.1-18.9-21.2-31.4-21.2s-25.1 7.1-31.4 21.2L178.7 166.7z"/><path class="fa-primary" d="M171.5 210.3c-5.4-2.7-12-.4-14.5 5.2L67.5 416.1c-14.2 31.9 17.4 65 47 49.2L240.4 398c9.8-5.2 21.3-5.2 31.1 0l125.9 67.2c29.6 15.8 61.2-17.3 47-49.2l-33.5-75.2c-4-9-11.1-16.4-19.9-20.8L171.5 210.3z"/></svg>