<svg xmlns="http://www.w3.org/2000/svg" viewBox="0 0 512 512"><!--!Font Awesome Pro 6.6.0 by @fontawesome - https://fontawesome.com License - https://fontawesome.com/license (Commercial License) Copyright 2024 Fonticons, Inc.--><path class="fa-secondary" opacity=".4" d="M188.1 281.3c19.9-19.9 39.7-39.7 59.6-59.6C300.2 169.1 352.8 116.6 405.4 64c30.1 0 45.2 0 54.5 8.8c9.4 8.8 9.4 22.9 9.4 51.3l0 14.7c0 22.2 0 33.2-5.5 42.4c-5.5 9.2-15.7 14.9-35.9 26.3l-62.1 35c-13.6 7.6-20.4 11.5-25.2 15.7c-10.1 8.8-16.4 19.1-19.2 31.8c-1.4 6.1-1.4 13.2-1.4 27.4l0 56.9c0 40.7 0 61.1-14.2 70c-4.1 2.6-8.7 3.7-14.1 3.7c-13.4 0-31.7-7.2-60.3-18.3c-19.1-7.5-28.6-11.2-34-18.8s-5.4-17.3-5.4-36.7l0-56.9c0-14.2 0-21.3-1.4-27.4c-.7-3-1.5-5.9-2.6-8.6z"/><path class="fa-primary" d="M106.7 64l298.7 0L188.1 281.3c-3.4-8.9-8.9-16.5-16.6-23.2c-4.9-4.2-11.6-8-25.2-15.7l-62.1-35C63.9 196 53.7 190.3 48.2 181.2s-5.5-20.2-5.5-42.4l0-14.7c0-28.3 0-42.5 9.4-51.3S76.5 64 106.7 64z"/></svg>