<svg xmlns="http://www.w3.org/2000/svg" viewBox="0 0 512 512"><!--!Font Awesome Pro 6.6.0 by @fontawesome - https://fontawesome.com License - https://fontawesome.com/license (Commercial License) Copyright 2024 Fonticons, Inc.--><path class="fa-secondary" opacity=".4" d="M106.7 113.8c0 39.3 31.8 71.1 71.1 71.1c-39.3 0-71.1 31.8-71.1 71.1s31.8 71.1 71.1 71.1c-39.3 0-71.1 31.8-71.1 71.1s31.8 71.1 71.1 71.1s71.1-31.8 71.1-71.1l0-71.1 0-69.6c0-.5 0-1 0-1.5s0-1 0-1.5c0-23.2 0-46.4 0-69.6c23.5 0 46.9 0 70.4 0c.2 0 .5 0 .7 0c.1 0 .2 0 .3 0c39.2-.1 70.9-31.9 70.9-71.1c0-39.3-31.8-71.1-71.1-71.1l-71.1 0-71.1 0c-39.3 0-71.1 31.8-71.1 71.1z"/><path class="fa-primary" d="M248.9 256a71.1 71.1 0 1 1 142.2 0 71.1 71.1 0 1 1 -142.2 0z"/></svg>