<svg xmlns="http://www.w3.org/2000/svg" viewBox="0 0 512 512"><!--!Font Awesome Pro 6.6.0 by @fontawesome - https://fontawesome.com License - https://fontawesome.com/license (Commercial License) Copyright 2024 Fonticons, Inc.--><path class="fa-secondary" opacity=".4" d="M97.3 206.5c.6 82.4 57.6 160.2 133.7 175c8.1 1.6 16.5 2.4 25 2.5c8.5 .1 17-.7 25.2-2.1c76.3-13.5 136.1-89.5 136.1-171.4c0-.4 0-.9 0-1.3C416.6 117.9 344.4 43.4 256 42.7s-159.4 72.6-158.7 163.8zM240 422.1l0 31.2c0 8.8 7.2 16 16 16s16-7.2 16-16l0-31.2c-1.1 .4-2.2 .7-3.3 .9c-.6 .1-1.3 .2-2 .3s-1.6 .1-2.6 .1c-2 .1-4.6 .1-8.1 .1c-6.9 0-10.3 0-12.7-.5c-.6-.1-1.1-.2-1.6-.4c-.6-.2-1.2-.3-1.7-.5zm10.7-294.2c.1-8.8 7.3-15.9 16.1-15.9c43.8 .4 79.5 36.1 79.9 79.9c.1 8.8-7 16.1-15.9 16.1s-16.1-7-16.1-15.9c-.2-26.3-21.8-47.9-48.1-48.1c-8.8-.1-15.9-7.3-15.9-16.1z"/><path class="fa-primary" d="M250.7 127.9c.1-8.8 7.3-15.9 16.1-15.9c43.8 .4 79.5 36.1 79.9 79.9c.1 8.8-7 16.1-15.9 16.1s-16.1-7-16.1-15.9c-.2-26.3-21.8-47.9-48.1-48.1c-8.8-.1-15.9-7.3-15.9-16.1zm30.5 254c-8.2 1.5-16.6 2.2-25.2 2.1c-8.5-.1-16.9-.9-25-2.5l-.4 .9c-3.2 5.8-4.9 8.8-5.6 11c-4.1 13.2 4.4 26.9 18.3 29.6c2.4 .5 5.8 .5 12.7 .5s10.3 0 12.7-.5c13.9-2.7 22.4-16.5 18.3-29.6c-.7-2.2-2.3-5.2-5.6-11l-.2-.5z"/></svg>