<svg xmlns="http://www.w3.org/2000/svg" viewBox="0 0 512 512"><!--!Font Awesome Pro 6.6.0 by @fontawesome - https://fontawesome.com License - https://fontawesome.com/license (Commercial License) Copyright 2024 Fonticons, Inc.--><path class="fa-secondary" opacity=".4" d="M40.9 179.2c0 6.4 3.9 12.5 10.2 14.9c8.2 3.2 17.5-.9 20.7-9.2c1.2-3 2.4-6 3.7-8.9c3.6-8.1-.1-17.5-8.1-21.1s-17.5 .1-21.1 8.1c-1.5 3.4-3 6.9-4.3 10.4c-.7 1.9-1.1 3.8-1.1 5.8zm49-81.3c-6.1 6.4-5.8 16.5 .6 22.6s16.5 5.8 22.6-.6c2.2-2.3 4.5-4.6 6.9-6.9c6.4-6.1 6.6-16.2 .6-22.6s-16.2-6.6-22.6-.6c-2.7 2.6-5.4 5.2-8 8zm65-30.5c3.6 8.1 13 11.7 21.1 8.1c2.9-1.3 5.9-2.5 8.9-3.7c8.2-3.2 12.3-12.4 9.2-20.7s-12.4-12.3-20.7-9.2c-3.5 1.4-7 2.8-10.4 4.3c-8.1 3.6-11.7 13-8.1 21.1zM240 192l0 85.3c0 8.8 7.2 16 16 16l85.3 0c8.8 0 16-7.2 16-16s-7.2-16-16-16l-69.3 0 0-69.3c0-8.8-7.2-16-16-16s-16 7.2-16 16z"/><path class="fa-primary" d="M240 42.7c0-8.8 7.2-16 16-16c126.7 0 229.3 102.7 229.3 229.3s-102.7 229.3-229.3 229.3S26.7 382.7 26.7 256c0-8.8 7.2-16 16-16s16 7.2 16 16C58.7 365 147 453.3 256 453.3s197.3-88.3 197.3-197.3S365 58.7 256 58.7c-8.8 0-16-7.2-16-16z"/></svg>