<svg xmlns="http://www.w3.org/2000/svg" viewBox="0 0 512 512"><!--!Font Awesome Pro 6.6.0 by @fontawesome - https://fontawesome.com License - https://fontawesome.com/license (Commercial License) Copyright 2024 Fonticons, Inc.--><path class="fa-secondary" opacity=".4" d="M42.7 368c0-53 76.4-96 170.7-96s170.7 43 170.7 96s0 96-170.7 96S42.7 421 42.7 368z"/><path class="fa-primary" d="M391.6 29.1c4.5-7.6 14.4-10 22-5.5l-8.2 13.7c8.2-13.7 8.2-13.7 8.2-13.7l0 0 0 0 .1 0 .2 .1c.2 .1 .4 .2 .6 .4c.5 .3 1.1 .7 1.8 1.2c1.5 1.1 3.5 2.6 5.9 4.5c4.7 3.9 10.9 9.8 17.1 17.9C451.8 64 464 88.7 464 122.7s-12.2 58.7-24.7 74.8c-6.2 8-12.4 13.9-17.1 17.9c-2.4 2-4.4 3.5-5.9 4.5c-.8 .5-1.4 .9-1.8 1.2c-.1 .1-.2 .1-.3 .2s-.2 .1-.3 .2l-.2 .1-.1 0 0 0s0 0-8.3-13.7l8.2 13.7c-7.6 4.5-17.4 2.1-22-5.5c-4.5-7.5-2.1-17.3 5.4-21.9l.1-.1c.2-.1 .5-.3 .9-.6c.8-.6 2.1-1.5 3.8-2.9c3.3-2.7 7.7-7 12.2-12.8c8.9-11.6 18-29.6 18-55.3s-9.1-43.7-18-55.3c-4.5-5.8-9-10.1-12.2-12.8c-1.6-1.4-2.9-2.3-3.8-2.9c-.4-.3-.7-.5-.9-.6L397 51c-7.5-4.6-9.9-14.3-5.4-21.9zM213.3 208a85.3 85.3 0 1 0 0-170.7 85.3 85.3 0 1 0 0 170.7zM370.9 66.3c-7.6-4.5-17.4-2.1-22 5.5l5.3 21.8 .2 .1c.2 .2 .7 .5 1.3 1c1.3 1.1 3.1 2.8 4.9 5.1c3.6 4.6 7.3 12 7.3 22.8s-3.8 18.1-7.3 22.8c-1.8 2.4-3.6 4.1-4.9 5.1c-.6 .5-1.1 .9-1.3 1l-.2 .1c-7.4 4.6-9.8 14.3-5.3 21.8c4.5 7.6 14.4 10 22 5.5l-8.2-13.7c8.2 13.7 8.2 13.7 8.2 13.7l0 0 0 0 .1 0 .2-.1 .4-.3c.3-.2 .7-.5 1.2-.8c.9-.6 2.1-1.5 3.5-2.7c2.7-2.3 6.3-5.6 9.8-10.2c7.1-9.2 14-23.2 14-42.3s-6.9-33.1-14-42.3c-3.5-4.6-7-7.9-9.8-10.2c-1.4-1.1-2.6-2-3.5-2.7c-.5-.3-.9-.6-1.2-.8l-.4-.3-.2-.1-.1 0 0 0s0 0-8.3 13.7l8.2-13.7z"/></svg>