<svg xmlns="http://www.w3.org/2000/svg" viewBox="0 0 512 512"><!--!Font Awesome Pro 6.6.0 by @fontawesome - https://fontawesome.com License - https://fontawesome.com/license (Commercial License) Copyright 2024 Fonticons, Inc.--><path class="fa-secondary" opacity=".4" d="M106.7 218c0 8.4 .6 18.6 1.4 31.2l5.7 89.3c3.9 62 5.9 93 25.2 111.9c19.3 18.9 48.8 18.9 107.9 18.9l.4 0 17.3 0c59.4 0 89 0 108.3-18.9s21.3-49.9 25.2-111.9l5.7-89.3c.8-12.5 1.4-22.7 1.4-31.2c0-14.2-1.8-23.3-7.9-30c-9.7-10.6-26-10.7-58.6-10.7l-165.5 0c-32.7 0-49 0-58.7 10.7c-6.1 6.7-7.9 15.8-7.9 30zm80.1 45.3c-.9-9.3 5.5-17.5 14.3-18.4s16.6 5.8 17.5 15.1l10.7 112.3c.9 9.3-5.5 17.5-14.3 18.4s-16.6-5.8-17.5-15.1L186.7 263.4zm96 108.9L293.4 260c.9-9.3 8.7-16 17.5-15.1s15.2 9.2 14.3 18.4L314.6 375.7c-.9 9.3-8.7 16-17.5 15.1s-15.2-9.2-14.3-18.4z"/><path class="fa-primary" d="M64 139.2c0-8.4 7-15.2 15.6-15.2H181.7c.1-17.9 2.1-42.5 19.9-59.6c14-13.4 33.2-21.7 54.4-21.7s40.4 8.3 54.4 21.7c17.8 17 19.8 41.6 19.9 59.6H432.4c8.6 0 15.6 6.8 15.6 15.2s-7 15.2-15.6 15.2H79.6c-8.6 0-15.6-6.8-15.6-15.2zM201.1 244.9c8.8-.9 16.6 5.8 17.5 15.1l10.7 112.3c.9 9.3-5.5 17.5-14.3 18.4s-16.6-5.8-17.5-15.1L186.7 263.4c-.9-9.3 5.5-17.5 14.3-18.4zm109.9 0c8.8 .9 15.2 9.2 14.3 18.4L314.6 375.7c-.9 9.3-8.7 16-17.5 15.1s-15.2-9.2-14.3-18.4L293.4 260c.9-9.3 8.7-16 17.5-15.1z"/></svg>