<svg xmlns="http://www.w3.org/2000/svg" viewBox="0 0 512 512"><!--!Font Awesome Pro 6.6.0 by @fontawesome - https://fontawesome.com License - https://fontawesome.com/license (Commercial License) Copyright 2024 Fonticons, Inc.--><path class="fa-secondary" opacity=".4" d="M469.3 256A213.3 213.3 0 1 1 42.7 256a213.3 213.3 0 1 1 426.7 0zM176 224c0 4.1 1.6 8.2 4.7 11.3l64 64c3.1 3.1 7.2 4.7 11.3 4.7s8.2-1.6 11.3-4.7l64-64c3.1-3.1 4.7-7.2 4.7-11.3s-1.6-8.2-4.7-11.3s-7.2-4.7-11.3-4.7s-8.2 1.6-11.3 4.7L256 265.4l-52.7-52.7c-3.1-3.1-7.2-4.7-11.3-4.7s-8.2 1.6-11.3 4.7s-4.7 7.2-4.7 11.3z"/><path class="fa-primary" d="M331.3 235.3c6.2-6.2 6.2-16.4 0-22.6s-16.4-6.2-22.6 0L256 265.4l-52.7-52.7c-6.2-6.2-16.4-6.2-22.6 0s-6.2 16.4 0 22.6l64 64c6.2 6.2 16.4 6.2 22.6 0l64-64z"/></svg>