<svg xmlns="http://www.w3.org/2000/svg" viewBox="0 0 512 512"><!--!Font Awesome Pro 6.6.0 by @fontawesome - https://fontawesome.com License - https://fontawesome.com/license (Commercial License) Copyright 2024 Fonticons, Inc.--><path class="fa-secondary" opacity=".4" d="M110 306.2c-4.1 59-6.1 88.6 4.5 111c7.8 16.6 20.2 30.4 35.6 39.6c20.8 12.5 49.2 12.5 106 12.5l.3 0c56.4 0 84.6 0 105.3-12.3c15.3-9.1 27.7-22.7 35.5-39.1c6.1-12.8 8.2-27.9 8.2-49.6c0-15.9-1.1-35.5-2.5-60.2L401 283c-11 11.6-46.2 37-145 37c-96.2 0-132.2-24.1-144.1-36.1l-2 22.2zm15.1-170.6c-.1 .6-.1 1.1-.1 1.7c-.2 2.8 .1 5.5 .8 8.2c8 31 72.5 39.9 144.1 20c67.5-18.8 117.2-56.5 116-86.7c-.1-1.8-.3-3.6-.8-5.4c-5.1-19.8-33.4-30.6-71.8-30.6c-21.7 0-46.5 3.4-72.3 10.6c-64.3 17.9-112.4 52.9-115.8 82.3z"/><path class="fa-primary" d="M269.8 165.4c-71.6 19.9-136.2 11-144.1-20c-.7-2.7-.9-5.4-.8-8.2l-13 146.7c11.9 12 47.9 36.1 144.1 36.1c98.7 0 134-25.4 145-37L385.8 78.7c1.2 30.2-48.5 67.9-116 86.7z"/></svg>