<svg xmlns="http://www.w3.org/2000/svg" viewBox="0 0 512 512"><!--!Font Awesome Pro 6.6.0 by @fontawesome - https://fontawesome.com License - https://fontawesome.com/license (Commercial License) Copyright 2024 Fonticons, Inc.--><path class="fa-secondary" opacity=".4" d="M26.7 210.8l0 1.3 0 1.2c0 8.8 7.2 16 16 16s16-7.2 16-16c0-40.7 0-69.6 3-91.5C64.5 100.4 69.9 88 79 79s21.4-14.4 42.9-17.3c21.9-2.9 50.8-3 91.5-3c8.8 0 16-7.2 16-16s-7.2-16-16-16l-1.2 0c-39.2 0-70.3 0-94.6 3.3c-25 3.4-45.3 10.4-61.2 26.4s-23.1 36.2-26.4 61.2c-3.2 24-3.3 54.7-3.3 93.2zm0 87.9l0 1.2 0 1.3c0 38.6 0 69.2 3.3 93.2c3.4 25 10.4 45.3 26.4 61.2s36.2 23 61.2 26.4c24.3 3.3 55.4 3.3 94.6 3.3l1.2 0c8.8 0 16-7.2 16-16s-7.2-16-16-16c-40.7 0-69.6 0-91.5-3C100.4 447.5 88 442.1 79 433s-14.4-21.4-17.3-42.9c-2.9-21.9-3-50.8-3-91.5c0-8.8-7.2-16-16-16s-16 7.2-16 16zm256-256c0 8.8 7.2 16 16 16c40.7 0 69.6 0 91.5 3C411.6 64.5 424 69.9 433 79s14.4 21.4 17.3 42.9c2.9 21.9 3 50.8 3 91.5c0 8.8 7.2 16 16 16s16-7.2 16-16l0-1.2c0-39.2 0-70.3-3.3-94.6c-3.4-25-10.4-45.3-26.4-61.2s-36.2-23.1-61.2-26.4c-24.3-3.3-55.4-3.3-94.6-3.3l-1.2 0c-8.8 0-16 7.2-16 16zm0 426.7c0 8.8 7.2 16 16 16l1.2 0c39.2 0 70.3 0 94.6-3.3c25-3.4 45.3-10.4 61.2-26.4s23-36.2 26.4-61.2c3.3-24.3 3.3-55.4 3.3-94.6l0-1.2c0-8.8-7.2-16-16-16s-16 7.2-16 16c0 40.7 0 69.6-3 91.5c-2.9 21.5-8.3 33.8-17.3 42.9s-21.4 14.4-42.9 17.3c-21.9 2.9-50.8 3-91.5 3c-8.8 0-16 7.2-16 16z"/><path class="fa-primary" d="M117.9 117.9c-11.2 11.2-11.2 29.3-11.2 65.6c0 24.1 0 36.2 7.5 43.7s19.6 7.5 43.7 7.5h25.6c24.1 0 36.2 0 43.7-7.5s7.5-19.6 7.5-43.7V157.9c0-24.1 0-36.2-7.5-43.7s-19.6-7.5-43.7-7.5c-36.2 0-54.3 0-65.6 11.2zm0 276.2c-11.2-11.2-11.2-29.3-11.2-65.6c0-24.1 0-36.2 7.5-43.7s19.6-7.5 43.7-7.5h25.6c24.1 0 36.2 0 43.7 7.5s7.5 19.6 7.5 43.7v25.6c0 24.1 0 36.2-7.5 43.7s-19.6 7.5-43.7 7.5c-36.2 0-54.3 0-65.6-11.2zM277.3 157.9c0-24.1 0-36.2 7.5-43.7s19.6-7.5 43.7-7.5c36.2 0 54.3 0 65.6 11.2s11.2 29.3 11.2 65.6c0 24.1 0 36.2-7.5 43.7s-19.6 7.5-43.7 7.5H328.5c-24.1 0-36.2 0-43.7-7.5s-7.5-19.6-7.5-43.7V157.9zm7.5 240c-7.5-7.5-7.5-19.6-7.5-43.7V328.5c0-24.1 0-36.2 7.5-43.7s19.6-7.5 43.7-7.5h25.6c24.1 0 36.2 0 43.7 7.5s7.5 19.6 7.5 43.7c0 36.2 0 54.3-11.2 65.6s-29.3 11.2-65.6 11.2c-24.1 0-36.2 0-43.7-7.5z"/></svg>