<svg xmlns="http://www.w3.org/2000/svg" viewBox="0 0 512 512"><!--!Font Awesome Pro 6.6.0 by @fontawesome - https://fontawesome.com License - https://fontawesome.com/license (Commercial License) Copyright 2024 Fonticons, Inc.--><path class="fa-secondary" opacity=".4" d="M46.8 250.6c2.9-3.2 7.2-5.3 11.9-5.3c114.9 0 208 93.1 208 208c0 8.8-7.2 16-16 16l28.9 0 .5 0c73.2 0 109.9 0 134.9-21.6c25.1-21.6 30.3-57.7 40.7-130l5.9-41.3c4.5-31.4 7.8-54 7.8-72c0-14.3-2.1-25.8-7.2-36.4c-11.5-24.1-36.1-38.7-85.2-67.9L347.5 82.5C302.9 55.9 280.6 42.7 256 42.7s-46.9 13.3-91.5 39.8L135 100.1C85.9 129.3 61.4 143.9 49.8 168c-9.6 20.1-8.4 42.9-3 82.6zm3.4 24.3l.2 1.5 4.8 33.3c1.1-.2 2.3-.4 3.4-.4c79.5 0 144 64.5 144 144c0 7.9-5.8 14.5-13.3 15.8c12.8 .2 27 .2 43.1 .2l18.3 0c-8.8 0-16-7.2-16-16c0-97.2-78.8-176-176-176c-3.1 0-6-.9-8.5-2.4zm9.6 66.4c1.8 11.8 3.4 22.5 5.2 32.2c41.2 3.2 73.7 37.7 73.7 79.8c0 4.4-1.8 8.4-4.6 11.3c13.4 2.7 29.5 3.9 49.3 4.4c-7.2-1.5-12.7-8-12.7-15.7c0-61.5-49.5-111.4-110.9-112zm13.1 66.1C78.4 425.2 85.7 438 97 447.7c3 2.6 6.2 4.9 9.7 6.9c0-.4-.1-.9-.1-1.4c0-21.6-14.2-39.8-33.8-45.9z"/><path class="fa-primary" d="M42.7 261.3c0-8.8 7.2-16 16-16c114.9 0 208 93.1 208 208c0 8.8-7.2 16-16 16s-16-7.2-16-16c0-97.2-78.8-176-176-176c-8.8 0-16-7.2-16-16zm0 64c0-8.8 7.2-16 16-16c79.5 0 144 64.5 144 144c0 8.8-7.2 16-16 16s-16-7.2-16-16c0-61.9-50.1-112-112-112c-8.8 0-16-7.2-16-16zm16 48c-8.8 0-16 7.2-16 16s7.2 16 16 16c26.5 0 48 21.5 48 48c0 8.8 7.2 16 16 16s16-7.2 16-16c0-44.2-35.8-80-80-80z"/></svg>