<svg xmlns="http://www.w3.org/2000/svg" viewBox="0 0 512 512"><!--!Font Awesome Pro 6.6.0 by @fontawesome - https://fontawesome.com License - https://fontawesome.com/license (Commercial License) Copyright 2024 Fonticons, Inc.--><path class="fa-secondary" opacity=".4" d="M64 258.1c0-45.6 26.9-84.5 64.6-100.7c9.8-4.2 20.4-6.9 31.4-7.7c30.5-2.4 64.5 9.3 96 40.9c86.4-86.9 192-22.8 192 67.6c0 81.9-63.3 129.1-117.2 169.3c-5.6 4.2-11.1 8.3-16.4 12.3c-19.9 15.2-39.1 29.5-58.3 29.5s-38.4-14.3-58.3-29.5c-5.3-4.1-10.8-8.2-16.4-12.3C127.3 387.2 64 340 64 258.1zM240 256l0 53.3c0 8.8 7.2 16 16 16s16-7.2 16-16l0-53.3c0-8.8-7.2-16-16-16s-16 7.2-16 16z"/><path class="fa-primary" d="M160 149.6c3.5-21.3 11.8-37.1 23.3-48.4c15.8-15.5 39.5-24.4 70.4-24.4c39.1 0 66.5 14.1 81.4 38.2c4.8 7.7 14.2 9.6 21 4.2s8.5-16 3.7-23.8c-22.4-36.4-61.1-52.8-106.2-52.8c-35.7 0-67.4 10.3-90.3 32.8c-20.1 19.8-32.1 47.7-34.9 81.9c9.8-4.2 20.4-6.9 31.4-7.7zM256 240c8.8 0 16 7.2 16 16v53.3c0 8.8-7.2 16-16 16s-16-7.2-16-16V256c0-8.8 7.2-16 16-16z"/></svg>