<svg xmlns="http://www.w3.org/2000/svg" viewBox="0 0 512 512"><!--!Font Awesome Pro 6.6.0 by @fontawesome - https://fontawesome.com License - https://fontawesome.com/license (Commercial License) Copyright 2024 Fonticons, Inc.--><path class="fa-secondary" opacity=".4" d="M138.7 222.2C189 272.6 239.4 322.9 289.8 373.3c34.9-34.9 69.8-69.8 104.7-104.7C430.2 233 448 215.2 448 193s-17.8-40-53.4-75.6S341.1 64 319 64s-39.9 17.8-75.6 53.4L138.7 222.2zM193.3 448c84.9 0 169.7 0 254.7 0c8.8 0 16-7.2 16-16s-7.2-16-16-16l-201.1 0c-11 10.6-20.2 18.6-28.7 23.9s-16.4 8-24.9 8.1z"/><path class="fa-primary" d="M289.8 373.3L138.7 222.2l-21.2 21.2C81.8 279 64 296.8 64 319s17.8 39.9 53.4 75.6S170.9 448 193 448s39.9-17.8 75.6-53.4l21.2-21.2z"/></svg>