<svg xmlns="http://www.w3.org/2000/svg" viewBox="0 0 512 512"><!--!Font Awesome Pro 6.6.0 by @fontawesome - https://fontawesome.com License - https://fontawesome.com/license (Commercial License) Copyright 2024 Fonticons, Inc.--><path class="fa-secondary" opacity=".4" d="M42.7 256c0 100.6 0 150.9 31.2 182.1s81.5 31.2 182.1 31.2s150.9 0 182.1-31.2s31.2-81.5 31.2-182.1l0-.8c0-100.1-.1-150.2-31.2-181.3C406.9 42.7 356.6 42.7 256 42.7s-150.8 0-182.1 31.2S42.7 155.4 42.7 256zm314.7 0a101.3 101.3 0 1 1 -202.7 0 101.3 101.3 0 1 1 202.7 0zm-170.7 0a69.3 69.3 0 1 0 138.7 0 69.3 69.3 0 1 0 -138.7 0z"/><path class="fa-primary" d="M256 154.7a101.3 101.3 0 1 0 0 202.7 101.3 101.3 0 1 0 0-202.7zm0 170.7a69.3 69.3 0 1 1 0-138.7 69.3 69.3 0 1 1 0 138.7z"/></svg>