<svg xmlns="http://www.w3.org/2000/svg" viewBox="0 0 512 512"><!--!Font Awesome Pro 6.6.0 by @fontawesome - https://fontawesome.com License - https://fontawesome.com/license (Commercial License) Copyright 2024 Fonticons, Inc.--><path class="fa-secondary" opacity=".4" d="M42.7 256c0 100.6 0 150.9 31.2 182.1s81.5 31.2 182.1 31.2s150.9 0 182.1-31.2s31.2-81.5 31.2-182.1l0-.8c0-100.1-.1-150.2-31.2-181.3C406.9 42.7 356.6 42.7 256 42.7s-150.8 0-182.1 31.2S42.7 155.4 42.7 256zM112 170.7c0-8.8 7.2-16 16-16l256 0c8.8 0 16 7.2 16 16s-7.2 16-16 16l-256 0c-8.8 0-16-7.2-16-16zm0 85.3c0-8.8 7.2-16 16-16l256 0c8.8 0 16 7.2 16 16s-7.2 16-16 16l-256 0c-8.8 0-16-7.2-16-16zm0 85.3c0-8.8 7.2-16 16-16l256 0c8.8 0 16 7.2 16 16s-7.2 16-16 16l-256 0c-8.8 0-16-7.2-16-16z"/><path class="fa-primary" d="M400 170.7c0 8.8-7.2 16-16 16H128c-8.8 0-16-7.2-16-16s7.2-16 16-16H384c8.8 0 16 7.2 16 16zm0 85.3c0 8.8-7.2 16-16 16H128c-8.8 0-16-7.2-16-16s7.2-16 16-16H384c8.8 0 16 7.2 16 16zm0 85.3c0 8.8-7.2 16-16 16H128c-8.8 0-16-7.2-16-16s7.2-16 16-16H384c8.8 0 16 7.2 16 16z"/></svg>