<svg xmlns="http://www.w3.org/2000/svg" viewBox="0 0 512 512"><!--!Font Awesome Pro 6.6.0 by @fontawesome - https://fontawesome.com License - https://fontawesome.com/license (Commercial License) Copyright 2024 Fonticons, Inc.--><path class="fa-secondary" opacity=".4" d="M42.7 106.7c0-20.1 0-30.2 6.2-36.4S65.2 64 85.3 64l341.3 0c20.1 0 30.2 0 36.4 6.2c6.2 6.2 6.2 16.3 6.2 36.4c0 20.1 0 30.2-6.2 36.4c-5 5-12.5 6-25.8 6.2c-.4 0-.8 0-1.2 0c-1.2 0-2.5 0-3.9 0c-.3 0-.6 0-.8 0c-1.3 0-2.8 0-4.2 0l-.6 0c-113.8 0-227.6 0-341.3 0c-.2 0-.4 0-.6 0c-1.5 0-2.9 0-4.2 0c-.3 0-.6 0-.8 0c-1.3 0-2.6 0-3.9 0c-.4 0-.8 0-1.2 0c-13.2-.2-20.7-1.2-25.8-6.2c-6.2-6.2-6.2-16.3-6.2-36.4z"/><path class="fa-primary" d="M267.9 373.4c-3 3.4-7.4 5.3-11.9 5.3s-8.9-1.9-11.9-5.3l-64-71.1c-5.9-6.6-5.4-16.7 1.2-22.6s16.7-5.4 22.6 1.2L240 321l0-171.6H85.3c-3.2 0-7.6 0-10.7 0v128c0 80.5 0 120.7 25 145.7s65.2 25 145.7 25h21.3c80.5 0 120.7 0 145.7-25s25-65.2 25-145.7v-128c-3.1 0-7.4 0-10.7 0H272L272 321l36.1-40.1c5.9-6.6 16-7.1 22.6-1.2s7.1 16 1.2 22.6l-64 71.1z"/></svg>