<svg xmlns="http://www.w3.org/2000/svg" viewBox="0 0 512 512"><!--!Font Awesome Pro 6.6.0 by @fontawesome - https://fontawesome.com License - https://fontawesome.com/license (Commercial License) Copyright 2024 Fonticons, Inc.--><path class="fa-secondary" opacity=".4" d="M42.7 256a213.3 213.3 0 1 0 426.7 0A213.3 213.3 0 1 0 42.7 256zm234.7 85.3a21.3 21.3 0 1 1 -42.7 0 21.3 21.3 0 1 1 42.7 0zM240 149.3c0-8.8 7.2-16 16-16s16 7.2 16 16l0 128c0 8.8-7.2 16-16 16s-16-7.2-16-16l0-128z"/><path class="fa-primary" d="M256 133.3c8.8 0 16 7.2 16 16v128c0 8.8-7.2 16-16 16s-16-7.2-16-16v-128c0-8.8 7.2-16 16-16zm0 229.3a21.3 21.3 0 1 0 0-42.7 21.3 21.3 0 1 0 0 42.7z"/></svg>