<svg xmlns="http://www.w3.org/2000/svg" viewBox="0 0 512 512"><!--!Font Awesome Pro 6.6.0 by @fontawesome - https://fontawesome.com License - https://fontawesome.com/license (Commercial License) Copyright 2024 Fonticons, Inc.--><path class="fa-secondary" opacity=".4" d="M256 277.3l0 96c11.8 0 21.3-9.6 21.3-21.3l0-32.9c16.5-1.5 31.9-4.6 46.4-9.1l21 32.3c6.4 9.9 19.6 12.7 29.5 6.2s12.7-19.6 6.2-29.5l-16.7-25.7c15-7.9 28.4-17.1 40.5-26.8l17.9 17.9c8.3 8.3 21.8 8.3 30.2 0s8.3-21.8 0-30.2l-17-17c15.8-17.2 27.9-34.3 36.5-48.1c5.6-9 9.8-16.7 12.6-22.2c1.4-2.8 2.5-5 3.2-6.5c.4-.8 .7-1.4 .9-1.9l.2-.6c.1-.2 .1-.2 .1-.3c1.2-2.7 1.7-5.6 1.7-8.4c0-8.3-4.8-16.2-12.9-19.6c-2.7-1.2-5.6-1.7-8.4-1.7c-8.3 0-16.2 4.8-19.6 12.9l-.1 .2c-.1 .3-.3 .7-.6 1.2c-.5 1.1-1.4 2.9-2.5 5.2c-2.3 4.6-5.9 11.2-10.8 19c-9.8 15.8-24.7 36.2-45 55.2c-17.9 16.8-39.9 32.3-66 42.6c-20.1 7.9-42.9 12.8-68.7 12.8z"/><path class="fa-primary" d="M62.3 140.9c-4.6-10.8-17.2-15.8-28-11.2s-15.8 17.2-11.2 28c0 0 0 0 0 0c0 0 0 0 0 .1l.1 .1 .2 .5c.2 .4 .4 .9 .7 1.5c.6 1.3 1.4 3.1 2.6 5.3c2.2 4.5 5.6 10.8 10 18.3c8.7 14.7 21.9 34.1 39.9 53.7l-17 17c-8.3 8.3-8.3 21.8 0 30.2s21.8 8.3 30.2 0l17.9-17.9c12.1 9.7 25.5 18.9 40.5 26.8L131.5 319c-6.4 9.9-3.6 23.1 6.2 29.5s23.1 3.6 29.5-6.2l21-32.3c14.4 4.4 29.9 7.6 46.4 9.1l0 32.9c0 11.8 9.6 21.3 21.3 21.3l0-96c-58.6 0-102.8-25.6-134.5-55.2c-.2-.2-.3-.3-.5-.5c-4.2-4-8.2-8-12-12.1c-16.1-17.3-27.9-34.7-35.6-47.7c-3.9-6.5-6.7-11.9-8.5-15.5c-.9-1.8-1.6-3.2-2-4.1c-.2-.5-.4-.8-.4-1l-.1-.2zM23.1 157.8l19.6-8.4c-19.6 8.4-19.6 8.4-19.6 8.4z"/></svg>