<svg xmlns="http://www.w3.org/2000/svg" viewBox="0 0 512 512"><!--!Font Awesome Pro 6.6.0 by @fontawesome - https://fontawesome.com License - https://fontawesome.com/license (Commercial License) Copyright 2024 Fonticons, Inc.--><path class="fa-secondary" opacity=".4" d="M42.7 256c0 80.5 0 120.7 25 145.7c24.9 24.9 65.1 25 145.2 25l.5 0 32 0c80.5 0 120.7 0 145.7-25c24.9-24.9 25-65.1 25-145.2l0-.5c0-80.5 0-120.7-25-145.7s-65.2-25-145.7-25l-32 0c-80.5 0-120.7 0-145.7 25s-25 65.2-25 145.7zM176 256c0-3.7 1.3-7.3 3.7-10.2l53.3-64c3.2-3.8 7.7-5.8 12.3-5.8c3.6 0 7.2 1.2 10.2 3.7c6.8 5.7 7.7 15.7 2.1 22.5L226.2 240l40.5 0c6.2 0 11.9 3.6 14.5 9.2s1.8 12.3-2.2 17l-53.3 64c-3.2 3.8-7.7 5.8-12.3 5.8c-3.6 0-7.2-1.2-10.2-3.7c-6.8-5.7-7.7-15.7-2-22.5L232.5 272 192 272c-6.2 0-11.9-3.6-14.5-9.2c-1-2.2-1.5-4.5-1.5-6.8z"/><path class="fa-primary" d="M453.3 298.7c0 8.8 7.2 16 16 16s16-7.2 16-16V213.3c0-8.8-7.2-16-16-16s-16 7.2-16 16v85.3zM257.6 202.2c5.7-6.8 4.7-16.9-2.1-22.5s-16.9-4.7-22.5 2l-53.3 64c-4 4.8-4.8 11.4-2.2 17s8.3 9.2 14.5 9.2h40.5L201 309.8c-5.7 6.8-4.7 16.9 2 22.5s16.9 4.7 22.5-2l53.3-64c4-4.8 4.8-11.4 2.2-17s-8.3-9.2-14.5-9.2H226.2l31.5-37.8z"/></svg>