<svg xmlns="http://www.w3.org/2000/svg" viewBox="0 0 512 512"><!--!Font Awesome Pro 6.6.0 by @fontawesome - https://fontawesome.com License - https://fontawesome.com/license (Commercial License) Copyright 2024 Fonticons, Inc.--><path class="fa-secondary" opacity=".4" d="M42.7 234.3l0 .4 0 42.7c0 80.5 0 120.7 25 145.7s65.2 25 145.7 25l85.3 0c1.8 0 19.6 0 21.3-.1l0-383.8c-1.8-.1-19.5-.1-21.3-.1l-85.3 0C132.9 64 92.7 64 67.7 89c-25 25-25 65.1-25 145.3zm58.7-20.9c0-8.8 7.2-16 16-16l128 0c8.8 0 16 7.2 16 16s-7.2 16-16 16l-128 0c-8.8 0-16-7.2-16-16zm21.3 85.3c0-8.8 7.2-16 16-16l85.3 0c8.8 0 16 7.2 16 16s-7.2 16-16 16l-85.3 0c-8.8 0-16-7.2-16-16z"/><path class="fa-primary" d="M117.3 197.3c-8.8 0-16 7.2-16 16s7.2 16 16 16h128c8.8 0 16-7.2 16-16s-7.2-16-16-16h-128zm21.3 85.3c-8.8 0-16 7.2-16 16s7.2 16 16 16H224c8.8 0 16-7.2 16-16s-7.2-16-16-16H138.7zm330.7-5.3V234.7c0-80.5 0-120.7-25-145.7C423.6 68.2 376.2 64.7 320 64.1V447.9c56.2-.6 103.6-4.1 124.3-24.9c25-25 25-65.2 25-145.7z"/></svg>