<svg xmlns="http://www.w3.org/2000/svg" viewBox="0 0 512 512"><!--!Font Awesome Pro 6.6.0 by @fontawesome - https://fontawesome.com License - https://fontawesome.com/license (Commercial License) Copyright 2024 Fonticons, Inc.--><path class="fa-secondary" opacity=".4" d="M58.7 437.3c0 4.1 1.6 8.2 4.7 11.3c6.2 6.2 16.4 6.2 22.6 0l10-10 20.7 20.7c3.1 3.1 7.2 4.7 11.3 4.7s8.2-1.6 11.3-4.7c6.2-6.2 6.2-16.4 0-22.6L118.6 416l20-20 20.7 20.7c6.2 6.2 16.4 6.2 22.6 0s6.2-16.4 0-22.6l-20.7-20.7 65-65c-8.3-6.7-15.9-14.3-22.6-22.6L63.4 426c-3.1 3.1-4.7 7.2-4.7 11.3z"/><path class="fa-primary" d="M320 341.3a149.3 149.3 0 1 0 0-298.7 149.3 149.3 0 1 0 0 298.7zm0-192a42.7 42.7 0 1 1 0 85.3 42.7 42.7 0 1 1 0-85.3z"/></svg>