<svg xmlns="http://www.w3.org/2000/svg" viewBox="0 0 512 512"><!--!Font Awesome Pro 6.6.0 by @fontawesome - https://fontawesome.com License - https://fontawesome.com/license (Commercial License) Copyright 2024 Fonticons, Inc.--><path class="fa-secondary" opacity=".4" d="M42.7 388.5c0 7.9 6.7 14.3 14.9 14.3l161.6 0c5.9 14 20.1 23.9 36.8 23.9s30.9-9.9 36.8-23.9l161.6 0c8.2 0 14.9-6.4 14.9-14.3s-6.7-14.3-14.9-14.3l-161.6 0c-4-9.6-12-17.2-21.9-21.1c0-20 0-40 0-60c-9.9 0-19.8 0-29.8 0c0 20 0 40 0 60c-9.9 3.9-17.9 11.5-21.9 21.1l-161.6 0c-8.2 0-14.9 6.4-14.9 14.3z"/><path class="fa-primary" d="M241.1 293.1l29.8 0 124 0c32.9 0 59.5-25.6 59.5-57.3s-26.7-57.3-59.5-57.3c32.9 0 59.5-25.6 59.5-57.3s-26.7-57.3-59.5-57.3L117.1 64c-32.9 0-59.5 25.6-59.5 57.3s26.7 57.3 59.5 57.3c-32.9 0-59.5 25.6-59.5 57.3s26.7 57.3 59.5 57.3l124 0zm34.7-186.1l119.1 0c8.2 0 14.9 6.4 14.9 14.3s-6.7 14.3-14.9 14.3l-119.1 0c-8.2 0-14.9-6.4-14.9-14.3s6.7-14.3 14.9-14.3zm0 114.5l119.1 0c8.2 0 14.9 6.4 14.9 14.3s-6.7 14.3-14.9 14.3l-119.1 0c-8.2 0-14.9-6.4-14.9-14.3s6.7-14.3 14.9-14.3zM156.8 121.3c0 10.5-8.9 19.1-19.8 19.1s-19.8-8.5-19.8-19.1s8.9-19.1 19.8-19.1s19.8 8.5 19.8 19.1zm0 114.5c0 10.5-8.9 19.1-19.8 19.1s-19.8-8.5-19.8-19.1s8.9-19.1 19.8-19.1s19.8 8.5 19.8 19.1z"/></svg>