<svg xmlns="http://www.w3.org/2000/svg" viewBox="0 0 576 512"><!--!Font Awesome Pro 6.6.0 by @fontawesome - https://fontawesome.com License - https://fontawesome.com/license (Commercial License) Copyright 2024 Fonticons, Inc.--><path class="fa-secondary" opacity=".4" d="M16 64l0 384c0 35.3 28.7 64 64 64l185.9 0c-6.2-10.1-9.8-21.9-9.9-34.5l0-1.2c.3-60.3 43.3-110.5 100.2-122C334 333.8 320 304.5 320 271.8c0-38.1 19-71.7 48-92L368 64c0-35.3-28.7-64-64-64L80 0C44.7 0 16 28.7 16 64zM144 448c0-8.8 7.2-16 16-16l64 0c8.8 0 16 7.2 16 16s-7.2 16-16 16l-64 0c-8.8 0-16-7.2-16-16z"/><path class="fa-primary" d="M432 352c28.6 0 55-15.2 69.3-40s14.3-55.2 0-80s-40.7-40-69.3-40s-55 15.2-69.3 40s-14.3 55.2 0 80s40.7 40 69.3 40zm-50.9 32c-51.4 0-93.1 41.7-93.1 93.1c0 19.3 15.6 34.9 34.9 34.9l218.2 0c19.3 0 34.9-15.6 34.9-34.9c0-51.4-41.7-93.1-93.1-93.1l-101.8 0z"/></svg>