<svg xmlns="http://www.w3.org/2000/svg" viewBox="0 0 512 512"><!--!Font Awesome Pro 6.6.0 by @fontawesome - https://fontawesome.com License - https://fontawesome.com/license (Commercial License) Copyright 2024 Fonticons, Inc.--><path class="fa-secondary" opacity=".4" d="M42.7 256c0 109.5 82.5 199.7 188.7 211.9c15.7 1.8 30.9-4.9 42-16c13.9-13.9 13.9-36.5 0-50.5c-11.2-11.2-20.3-27.8-11.8-41.1c12.3-19.5 43.4-15.5 77.9-11C399.3 357 469.3 366 469.3 256c0-117.8-95.5-213.3-213.3-213.3S42.7 138.2 42.7 256zm128-10.7a32 32 0 1 1 -64 0 32 32 0 1 1 64 0zm65.8-96a32 32 0 1 1 -64 0 32 32 0 1 1 64 0zm104.9 0a32 32 0 1 1 -64 0 32 32 0 1 1 64 0zm64 96a32 32 0 1 1 -64 0 32 32 0 1 1 64 0z"/><path class="fa-primary" d="M172.5 149.3a32 32 0 1 1 64 0 32 32 0 1 1 -64 0zm-33.8 128a32 32 0 1 0 0-64 32 32 0 1 0 0 64zm234.7 0a32 32 0 1 0 0-64 32 32 0 1 0 0 64zm-64-96a32 32 0 1 0 0-64 32 32 0 1 0 0 64z"/></svg>