<svg xmlns="http://www.w3.org/2000/svg" viewBox="0 0 512 512"><!--!Font Awesome Pro 6.6.0 by @fontawesome - https://fontawesome.com License - https://fontawesome.com/license (Commercial License) Copyright 2024 Fonticons, Inc.--><path d="M294.5 113.8c0-39.3 32-71.1 71.4-71.1s71.4 31.8 71.4 71.1s-32 71.1-71.4 71.1c-19.9 0-37.9-8.1-50.9-21.2L216.1 231c.9 4.5 1.4 9.2 1.4 14c0 9.5-1.9 18.6-5.3 26.9l108.4 71.2c12.3-10 28.1-16.1 45.2-16.1c39.5 0 71.4 31.8 71.4 71.1s-32 71.1-71.4 71.1s-71.4-31.8-71.4-71.1c0-10.3 2.2-20.1 6.2-28.9L193.1 298.6c-12.5 10.9-29 17.5-47 17.5c-39.5 0-71.4-31.8-71.4-71.1s32-71.1 71.4-71.1c22.7 0 42.9 10.5 56 26.9l95.8-65.3c-2.2-6.9-3.4-14.2-3.4-21.8z"/></svg>