<svg xmlns="http://www.w3.org/2000/svg" viewBox="0 0 512 512"><!--!Font Awesome Pro 6.6.0 by @fontawesome - https://fontawesome.com License - https://fontawesome.com/license (Commercial License) Copyright 2024 Fonticons, Inc.--><path class="fa-secondary" opacity=".4" d="M64 221.8l0 .4 0 33.6c0 120.3 90.4 178.6 147.2 203.4c15.4 6.7 23.1 10.1 44.8 10.1s29.4-3.4 44.8-10.1C357.6 434.5 448 376.1 448 255.8l0-33.6c0-68.2 0-102.3-8.1-113.8S399.8 86 335.7 64l-12.2-4.2C290 48.4 273.3 42.7 256 42.7s-34 5.7-67.5 17.2L176.3 64C112.2 86 80.1 97 72.1 108.4C64 119.9 64 153.9 64 221.8zM176 256c0-8.8 7.2-16 16-16l48 0 0-48c0-8.8 7.2-16 16-16s16 7.2 16 16l0 48 48 0c8.8 0 16 7.2 16 16s-7.2 16-16 16l-48 0 0 48c0 8.8-7.2 16-16 16s-16-7.2-16-16l0-48-48 0c-8.8 0-16-7.2-16-16z"/><path class="fa-primary" d="M272 192c0-8.8-7.2-16-16-16s-16 7.2-16 16l0 48H192c-8.8 0-16 7.2-16 16s7.2 16 16 16h48v48c0 8.8 7.2 16 16 16s16-7.2 16-16V272h48c8.8 0 16-7.2 16-16s-7.2-16-16-16H272l0-48z"/></svg>