<svg xmlns="http://www.w3.org/2000/svg" viewBox="0 0 512 512"><!--!Font Awesome Pro 6.6.0 by @fontawesome - https://fontawesome.com License - https://fontawesome.com/license (Commercial License) Copyright 2024 Fonticons, Inc.--><path class="fa-secondary" opacity=".4" d="M42.7 298.7c0-80.5 0-120.7 25-145.7c18-18 43.9-23 87-24.4c9.7-.3 20.4-.5 32-.5c8.2 0 16.9 0 26.2 0l.5 0 85.3 0 26.7 0c11.6 .1 22.3 .2 32 .5c43.1 1.4 69 6.4 87 24.4c24.9 24.9 25 65.1 25 145.2l0 .5c0 80.5 0 120.7-25 145.7c-24.9 24.9-65.1 25-145.2 25l-.5 0-85.3 0c-80.5 0-120.7 0-145.7-25s-25-65.2-25-145.7zm128 0a85.3 85.3 0 1 0 170.7 0 85.3 85.3 0 1 0 -170.7 0z"/><path class="fa-primary" d="M257.1 26.7h-2.2c-19.2 0-35.2 0-47.8 1.7c-13.4 1.8-25.5 5.8-35.2 15.5s-13.7 21.8-15.5 35.2c-1.7 12.7-1.7 28.7-1.7 47.8l0 1.7c9.7-.3 20.4-.5 32-.5v0c0-20.6 0-34.4 1.4-44.7c1.3-9.8 3.6-14.1 6.4-16.8s7-5.1 16.8-6.4c10.3-1.4 24.1-1.4 44.7-1.4s34.4 0 44.7 1.4c9.8 1.3 14.1 3.6 16.8 6.4s5.1 7 6.4 16.8c1.4 10.3 1.4 24.1 1.4 44.7v0c11.6 .1 22.3 .2 32 .5v-1.7c0-19.2 0-35.2-1.7-47.8c-1.8-13.4-5.8-25.5-15.5-35.2s-21.8-13.7-35.2-15.5c-12.7-1.7-28.7-1.7-47.8-1.7zM256 384a85.3 85.3 0 1 0 0-170.7A85.3 85.3 0 1 0 256 384zm16-117.3l0 16 16 0c8.8 0 16 7.2 16 16s-7.2 16-16 16l-16 0 0 16c0 8.8-7.2 16-16 16s-16-7.2-16-16l0-16-16 0c-8.8 0-16-7.2-16-16s7.2-16 16-16l16 0 0-16c0-8.8 7.2-16 16-16s16 7.2 16 16z"/></svg>