<svg xmlns="http://www.w3.org/2000/svg" viewBox="0 0 512 512"><!--!Font Awesome Pro 6.6.0 by @fontawesome - https://fontawesome.com License - https://fontawesome.com/license (Commercial License) Copyright 2024 Fonticons, Inc.--><path class="fa-secondary" opacity=".4" d="M320.3 170.7c0 14.2 0 28.4 0 42.7c11.8 0 21.4 9.5 21.4 21.3l0 42.7c0 11.8-9.6 21.3-21.4 21.3c0 14.2 0 28.4 0 42.7c11.8 0 21.4 9.5 21.4 21.3l0 42.2c0 10.3 0 15.4 3.3 18.6s8.3 2.9 18.4 2.5c39.7-1.7 64.2-7.1 81.4-24.2c17.3-17.2 22.6-41.6 24.3-81.4c.1-3 .2-5.4 .2-7.4c0-3.3-.3-5.5-1.2-7.1c-1.5-2.6-7.4-5.9-19.1-12.5C435.9 286 427.1 272 427.1 256s8.8-30 21.9-37.3c11.8-6.6 17.7-9.9 19.1-12.5c.9-1.6 1.2-3.8 1.2-7.1c0-2-.1-4.4-.2-7.4c-1.7-39.8-7-64.2-24.3-81.4c-18.7-18.7-46-23.4-92.2-24.6c-6-.2-10.9 4.7-10.9 10.6l0 53c0 11.8-9.6 21.3-21.4 21.3z"/><path class="fa-primary" d="M299 362.7l-.1 42.7c0 10 0 15-3.2 18.2s-8.2 3.1-18.2 3.1l-64.2 0c-80.7 0-121 0-146-25C49.9 384.5 44.6 360 42.9 320.2c-.3-7.9-.5-11.8 1-14.5s7.4-5.9 19.1-12.5C76.1 286 84.9 272 84.9 256s-8.8-30-21.9-37.3c-11.8-6.6-17.7-9.9-19.1-12.5s-1.3-6.6-1-14.5c1.7-39.8 7-64.2 24.3-81.4c25.1-25 65.4-25 146-25l74.9 0c5.9 0 10.7 4.8 10.7 10.6l.2 53.4c0 11.8 9.6 21.3 21.4 21.3l0 42.7c-11.8 0-21.4 9.6-21.4 21.3l0 42.7c0 11.8 9.6 21.3 21.4 21.3l0 42.7c-11.8 0-21.4 9.6-21.4 21.3z"/></svg>