<svg xmlns="http://www.w3.org/2000/svg" viewBox="0 0 512 512"><!--!Font Awesome Pro 6.6.0 by @fontawesome - https://fontawesome.com License - https://fontawesome.com/license (Commercial License) Copyright 2024 Fonticons, Inc.--><path class="fa-secondary" opacity=".4" d="M128 85.3C128 214.9 233.1 320 362.7 320c38.2 0 74.3-9.1 106.1-25.3c.5-13.2 .5-29.2 .5-49.2l0-21.5c0-69.8 0-104.7-15.7-130.4c-8.8-14.4-20.9-26.4-35.2-35.2c-25.6-15.7-60.4-15.7-130-15.7l-.4 0-64 0c-41.4 0-70.5 0-92.7 3.3c-2.2 12.8-3.3 26-3.3 39.4z"/><path class="fa-primary" d="M468.8 294.7C436.9 310.9 400.9 320 362.7 320C233.1 320 128 214.9 128 85.3c0-13.4 1.1-26.6 3.3-39.4C116 48.2 104 52 93.6 58.4C79.2 67.2 67.2 79.2 58.4 93.6C42.7 119.2 42.7 154.2 42.7 224v21.3c0 49.7 0 74.6 8.1 94.2c10.8 26.1 31.6 46.9 57.7 57.7c14.1 5.8 30.9 7.5 57.7 7.9c18.1 .3 27.2 .5 34.4 4.7s11.7 11.8 20.7 26.9l11.6 19.5c10.3 17.4 36.1 17.4 46.4 0l11.6-19.5c9-15.2 13.5-22.7 20.7-26.9s16.3-4.3 34.4-4.7c26.8-.5 43.6-2.1 57.7-7.9c26.1-10.8 46.9-31.6 57.7-57.7c4.8-11.7 6.8-25.2 7.6-44.8zM279.2 456.3l11.6-19.5c9-15.2 13.5-22.7 20.7-26.9s16.3-4.3 34.4-4.7c26.8-.5 43.6-2.1 57.7-7.9c26.1-10.8 46.9-31.6 57.7-57.7c4.8-11.7 6.8-25.2 7.6-44.8C436.9 310.9 400.9 320 362.7 320C233.1 320 128 214.9 128 85.3c0-13.4 1.1-26.6 3.3-39.4C116 48.2 104 52 93.6 58.4C79.2 67.2 67.2 79.2 58.4 93.6C42.7 119.2 42.7 154.2 42.7 224l0 21.3c0 49.7 0 74.6 8.1 94.2c10.8 26.1 31.6 46.9 57.7 57.7c14.1 5.8 30.9 7.5 57.7 7.9c18.1 .3 27.2 .5 34.4 4.7s11.7 11.8 20.7 26.9l11.6 19.5c10.3 17.4 36.1 17.4 46.4 0z"/></svg>