<svg xmlns="http://www.w3.org/2000/svg" viewBox="0 0 512 512"><!--!Font Awesome Pro 6.6.0 by @fontawesome - https://fontawesome.com License - https://fontawesome.com/license (Commercial License) Copyright 2024 Fonticons, Inc.--><path class="fa-secondary" opacity=".4" d="M64 236.7l0 106.5 0 .4c0 65.8 0 98.7 15.7 113.1c7.5 6.9 16.9 11.2 26.9 12.4c1.1 .1 2.1 .2 3.2 .2c20.4 0 44.9-21.7 91.6-63c21.7-19.2 32.6-28.8 45.2-31.4c6.2-1.2 12.6-1.2 18.8 0c12.6 2.5 23.4 12.1 45.2 31.4c46.7 41.3 71.3 63 91.6 63c1.1 0 2.1-.1 3.2-.2c10-1.1 19.5-5.5 26.9-12.4C448 442.4 448 409.3 448 343.3l0-106.5 0-.6c0-91.1-.1-136.7-28.1-165.1C391.8 42.7 346.5 42.7 256 42.7s-135.8 0-163.9 28.4S64 145.3 64 236.7zM176 128c0-8.8 7.2-16 16-16l128 0c8.8 0 16 7.2 16 16s-7.2 16-16 16l-128 0c-8.8 0-16-7.2-16-16z"/><path class="fa-primary" d="M192 112c-8.8 0-16 7.2-16 16s7.2 16 16 16H320c8.8 0 16-7.2 16-16s-7.2-16-16-16H192z"/></svg>