<svg xmlns="http://www.w3.org/2000/svg" viewBox="0 0 512 512"><!--!Font Awesome Pro 6.6.0 by @fontawesome - https://fontawesome.com License - https://fontawesome.com/license (Commercial License) Copyright 2024 Fonticons, Inc.--><path class="fa-secondary" opacity=".4" d="M110.7 224.5c0 8.2 .6 18.1 1.4 30.4l5.5 87.1c3.8 60.4 5.8 90.6 24.5 109s47.7 18.4 105.4 18.4l16.8 0c57.8 0 86.6 0 105.4-18.4s20.7-48.6 24.5-109l5.5-87.1c.8-12.2 1.4-22.2 1.4-30.4c0-13.8-1.8-22.7-7.7-29.2c-9.4-10.4-25.3-10.4-57.1-10.4l-160.9 0c-31.8 0-47.7 0-57.1 10.4c-5.9 6.5-7.7 15.4-7.7 29.2z"/><path class="fa-primary" d="M64 139.2c0-8.4 7-15.2 15.6-15.2H181.7c.1-17.9 2.1-42.5 19.9-59.6c14-13.4 33.2-21.7 54.4-21.7s40.4 8.3 54.4 21.7c17.8 17 19.8 41.6 19.9 59.6H432.4c8.6 0 15.6 6.8 15.6 15.2s-7 15.2-15.6 15.2H79.6c-8.6 0-15.6-6.8-15.6-15.2z"/></svg>