<svg xmlns="http://www.w3.org/2000/svg" viewBox="0 0 512 512"><!--!Font Awesome Pro 6.6.0 by @fontawesome - https://fontawesome.com License - https://fontawesome.com/license (Commercial License) Copyright 2024 Fonticons, Inc.--><path class="fa-secondary" opacity=".4" d="M213.4 368l58.6 0 0-69.1c-23.2 .6-36.8 2.9-46.2 12.3c-10.7 10.7-12.2 27-12.5 56.8zm0 32c.2 29.8 1.7 46.1 12.5 56.8c9.4 9.4 23 11.7 46.2 12.3l0-69.1-58.6 0zM304 298.7l0 170.7 53.3 0 0-170.7-53.3 0zM368 128c0 8.8 7.2 16 16 16c10.2 0 17 0 22.3 .4c5.1 .4 7.6 1 9.3 1.7c6.5 2.7 11.7 7.9 14.4 14.4c.1 .7 .4 2.2 .7 5.3c.4 3.8 .7 8.7 .9 14.2c.2 5.9 .3 12.2 .4 18.3c-5.6-2-12.1-.7-16.6 3.8c-6.2 6.2-6.2 16.4 0 22.6L436.7 246c6.2 6.2 16.4 6.2 22.6 0l21.3-21.3c3.1-3.1 4.7-7.2 4.7-11.3s-1.6-8.2-4.7-11.3c-4.5-4.5-11-5.8-16.7-3.8c0-6.4-.2-13.2-.4-19.5c-.2-5.8-.5-11.5-1-16.3c-.5-4.3-1.2-9.8-3-14.2c-6-14.4-17.4-25.8-31.8-31.8c-6.2-2.6-12.6-3.6-19.3-4c-6.4-.4-14.1-.4-23.3-.4l-.6 0-.5 0c-8.8 0-16 7.2-16 16zm21.3 170.9l0 69.1 58.6 0c-.2-29.8-1.7-46.1-12.5-56.8c-9.4-9.4-23-11.7-46.2-12.3zm0 101.1l0 69.1c23.2-.6 36.8-2.9 46.2-12.3c10.7-10.7 12.2-27 12.5-56.8l-58.6 0z"/><path class="fa-primary" d="M112 42.7c-29.8 .2-46.1 1.7-56.8 12.5S42.9 82.2 42.7 112H112V42.7zM42.7 144c.2 29.8 1.7 46.1 12.5 56.8s27 12.2 56.8 12.5V144H42.7zM144 213.3h74.7V42.7H144V213.3zM250.7 42.7V112H320c-.2-29.8-1.7-46.1-12.5-56.8s-27-12.2-56.8-12.5zM320 144H250.7v69.3c29.8-.2 46.1-1.7 56.8-12.5s12.2-27 12.5-56.8zM52.7 266c6.2-6.2 16.4-6.2 22.6 0l21.3 21.3c6.2 6.2 6.2 16.4 0 22.6c-4.5 4.5-11 5.8-16.6 3.8c0 6.1 .1 12.5 .4 18.3c.2 5.5 .5 10.3 .9 14.2c.3 3 .6 4.6 .7 5.1c0 .2 .1 .3 0 .1c2.7 6.5 7.9 11.7 14.4 14.4c1.6 .7 4.1 1.3 9.3 1.7c5.3 .4 12.1 .4 22.3 .4c8.8 0 16 7.2 16 16s-7.2 16-16 16l-.5 0c-9.5 0-17.4 0-23.9-.4c-6.8-.5-13.2-1.5-19.3-4c-14.4-6-25.8-17.4-31.8-31.8c-1.8-4.3-2.6-9.9-3-14.2c-.5-4.9-.8-10.5-1-16.3c-.2-6.3-.3-13.1-.4-19.5c-5.6 2-12.2 .8-16.7-3.8c-6.2-6.2-6.2-16.4 0-22.6L52.7 266z"/></svg>