<svg xmlns="http://www.w3.org/2000/svg" viewBox="0 0 512 512"><!--!Font Awesome Pro 6.6.0 by @fontawesome - https://fontawesome.com License - https://fontawesome.com/license (Commercial License) Copyright 2024 Fonticons, Inc.--><path class="fa-secondary" opacity=".4" d="M42.7 256C42.7 138.2 138.2 42.7 256 42.7s213.3 95.5 213.3 213.3c0 76.6-40.3 143.7-100.9 181.3l84.9 0c8.8 0 16 7.2 16 16s-7.2 16-16 16l-197.3 0C138.2 469.3 42.7 373.8 42.7 256zm85.3 0a32 32 0 1 0 64 0 32 32 0 1 0 -64 0zm96-96a32 32 0 1 0 64 0 32 32 0 1 0 -64 0zm0 192a32 32 0 1 0 64 0 32 32 0 1 0 -64 0zm96-96a32 32 0 1 0 64 0 32 32 0 1 0 -64 0z"/><path class="fa-primary" d="M352 288a32 32 0 1 1 0-64 32 32 0 1 1 0 64zM192 256a32 32 0 1 0 -64 0 32 32 0 1 0 64 0zm32-96a32 32 0 1 1 64 0 32 32 0 1 1 -64 0zm0 192a32 32 0 1 1 64 0 32 32 0 1 1 -64 0z"/></svg>