<svg xmlns="http://www.w3.org/2000/svg" viewBox="0 0 512 512"><!--!Font Awesome Pro 6.6.0 by @fontawesome - https://fontawesome.com License - https://fontawesome.com/license (Commercial License) Copyright 2024 Fonticons, Inc.--><path class="fa-secondary" opacity=".4" d="M42.7 437.9c0 17.6 16.5 31.4 36.6 31.4l22 0c0-7.5 1.8-16.8 4.3-26.5c2.7-10 6.5-21.6 11.3-34c9.6-24.8 23.2-53.6 39.5-81c16.3-27.3 35.6-53.9 56.9-73.9c.5-.5 1.1-1 1.6-1.5c-.5-.2-1-.3-1.5-.5c-6.1-2-13.6-5.1-20.5-10.4C127.8 283.1 69.8 358.3 44.6 427.3c-1.3 3.6-1.9 7.2-1.9 10.6zm90.7 31.4l60.4 0c0-24 8.3-68.4 23.3-112.9c11-32.7 26.3-67.3 46-94.7l-6.7-1.1c-6.8 4.2-13.9 9.7-21.1 16.5c-18.3 17.2-35.9 41.1-51.3 67c-15.4 25.8-28.2 52.9-37.2 76.1c-4.5 11.6-7.9 22-10.2 30.7c-2.4 8.9-3.3 15-3.3 18.3zm92.4 0l27.5 0c24 0 43.4-19.3 45-43.1c2.7-40.8 9.1-77.6 16.3-103.8c-7.1-4.2-12.6-9.7-16.7-14.4c-4.7-5.5-9.4-12.3-14.1-19.7c-14.4 22.3-26.7 50-36.3 78.4c-14.5 42.8-21.7 83.5-21.7 102.7z"/><path class="fa-primary" d="M361.5 60.7c30.1-14.9 45.1-22.3 55.2-15.6s8.7 23.2 5.8 56.2l-.7 8.5c-.8 9.4-1.2 14 .2 18.3s4.6 7.6 11 14.2l5.8 6.1c22.3 23.4 33.5 35.1 29.8 47.1s-19.8 16.3-52 25l-8.3 2.2c-9.1 2.5-13.7 3.7-17.4 6.6s-6 7-10.6 15.4l-4.2 7.6c-16.2 29.3-24.4 44-36.8 44.7s-20.9-13.1-37.9-40.7l-4.4-7.1c-4.8-7.8-7.3-11.8-11-14.2s-8.3-3.2-17.5-4.7l-8.4-1.4c-32.4-5.3-48.6-7.9-52.6-19.5s6.8-24.5 28.5-50.2l5.6-6.7c6.2-7.3 9.2-11 10.6-15.4s.8-9-.3-18.3l-1-8.4c-3.8-32.6-5.7-48.9 4.3-56.7s25.2-2 55.6 9.7l7.9 3c8.6 3.3 13 5 17.5 4.7s8.8-2.4 17.4-6.6l7.8-3.8z"/></svg>