<svg xmlns="http://www.w3.org/2000/svg" viewBox="0 0 512 512"><!--!Font Awesome Pro 6.6.0 by @fontawesome - https://fontawesome.com License - https://fontawesome.com/license (Commercial License) Copyright 2024 Fonticons, Inc.--><path class="fa-secondary" opacity=".4" d="M42.7 341.3l0 42.7c0 40.2 0 60.3 12.5 72.8s32.6 12.5 72.8 12.5l42.7 0 .2 0c40.1 0 60.1 0 72.6-12.5C256 444.3 256 424.2 256 384l0-21.3-21.3 0 42.7 0c40.2 0 60.3 0 72.8-12.5c12.5-12.5 12.5-32.5 12.5-72.6l0-.2 0-21.3-21.3 0-42.7 0c-23.6 0-42.7-19.1-42.7-42.7l0-42.7 0-21.3-21.3 0c-40.2 0-60.3 0-72.8 12.5s-12.5 32.6-12.5 72.8l0 42.7 0-21.3L128 256c-40.2 0-60.3 0-72.8 12.5S42.7 301.1 42.7 341.3z"/><path class="fa-primary" d="M298.7 42.7h128a42.7 42.7 0 0 1 42.7 42.7v128A42.7 42.7 0 0 1 426.7 256h-128A42.7 42.7 0 0 1 256 213.3v-128a42.7 42.7 0 0 1 42.7-42.7z"/></svg>