<svg xmlns="http://www.w3.org/2000/svg" viewBox="0 0 512 512"><!--!Font Awesome Pro 6.6.0 by @fontawesome - https://fontawesome.com License - https://fontawesome.com/license (Commercial License) Copyright 2024 Fonticons, Inc.--><path class="fa-secondary" opacity=".4" d="M42.7 256a213.3 213.3 0 1 0 426.7 0A213.3 213.3 0 1 0 42.7 256zM112 213.1c.2-18.1 .7-33.6 3.2-46.5c2.6-13.3 7.5-24.9 17-34.4s21.1-14.4 34.4-17c12.9-2.5 28.3-3.1 46.5-3.2c8.8-.1 16.1 7 16.1 15.9s-7 16.1-15.9 16.1c-18.3 .2-31 .8-40.6 2.6c-9.1 1.8-14.2 4.5-17.9 8.2s-6.5 8.8-8.2 17.9c-1.9 9.6-2.5 22.3-2.6 40.6c-.1 8.8-7.3 15.9-16.1 15.9s-15.9-7.3-15.9-16.1zm0 85.7c-.1-8.8 7-16.1 15.9-16.1s16.1 7 16.1 15.9c.2 18.3 .8 31 2.6 40.6c1.8 9.1 4.5 14.2 8.2 17.9s8.8 6.5 17.9 8.2c9.6 1.9 22.3 2.5 40.6 2.6c8.8 .1 15.9 7.3 15.9 16.1c-.1 8.8-7.2 15.9-16.1 15.9c-18.1-.2-33.6-.7-46.5-3.2c-13.3-2.6-24.9-7.5-34.4-17s-14.4-21.1-17-34.4c-2.5-12.9-3.1-28.3-3.2-46.5zm170.7-171c.1-8.8 7.3-15.9 16.1-15.9c18.1 .2 33.6 .7 46.5 3.2c13.3 2.6 24.9 7.5 34.4 17s14.4 21.1 17 34.4c2.5 12.9 3.1 28.3 3.2 46.5c.1 8.8-7 16.1-15.9 16.1s-16.1-7-16.1-15.9c-.2-18.3-.8-31-2.6-40.6c-1.8-9.1-4.5-14.2-8.2-17.9s-8.8-6.5-17.9-8.2c-9.6-1.9-22.3-2.5-40.6-2.6c-8.8-.1-15.9-7.3-15.9-16.1zm0 256.2c-.1-8.8 7-16.1 15.9-16.1c18.3-.2 31-.8 40.6-2.6c9.1-1.8 14.2-4.5 17.9-8.2s6.5-8.8 8.2-17.9c1.9-9.6 2.5-22.3 2.6-40.6c.1-8.8 7.3-15.9 16.1-15.9s15.9 7.3 15.9 16.1c-.2 18.1-.7 33.6-3.2 46.5c-2.6 13.3-7.5 24.9-17 34.4s-21.1 14.4-34.4 17c-12.9 2.5-28.3 3.1-46.6 3.2c-8.8 0-15.9-7.1-16-15.9z"/><path class="fa-primary" d="M213.4 144c8.8-.1 15.9-7.3 15.9-16.1s-7.3-15.9-16.1-15.9c-18.1 .2-33.6 .7-46.5 3.2c-13.3 2.6-24.9 7.5-34.4 17s-14.4 21.1-17 34.4c-2.5 12.9-3.1 28.3-3.2 46.5c-.1 8.8 7 16.1 15.9 16.1s16.1-7 16.1-15.9c.2-18.3 .8-31 2.6-40.6c1.8-9.1 4.5-14.2 8.2-17.9s8.8-6.5 17.9-8.2c9.6-1.9 22.3-2.5 40.6-2.6zm85.4-32c-8.8-.1-16.1 7-16.1 15.9s7 16.1 15.9 16.1c18.3 .2 31 .8 40.6 2.6c9.1 1.8 14.2 4.5 17.9 8.2s6.5 8.8 8.2 17.9c1.9 9.6 2.5 22.3 2.6 40.6c.1 8.8 7.3 15.9 16.1 15.9s15.9-7.3 15.9-16.1c-.2-18.1-.7-33.6-3.2-46.5c-2.6-13.3-7.5-24.9-17-34.4s-21.1-14.4-34.4-17c-12.9-2.5-28.3-3.1-46.5-3.2zM144 298.5c-.1-8.8-7.3-15.9-16.1-15.9s-15.9 7.3-15.9 16.1c.2 18.1 .7 33.6 3.2 46.5c2.6 13.3 7.5 24.9 17 34.4s21.1 14.4 34.4 17c12.9 2.5 28.3 3.1 46.5 3.2c8.8 .1 16.1-7 16.1-15.9s-7-16.1-15.9-16.1c-18.3-.2-31-.8-40.6-2.6c-9.1-1.8-14.2-4.5-17.9-8.2s-6.5-8.8-8.2-17.9c-1.9-9.6-2.5-22.3-2.6-40.6zm255.9 .3c.1-8.8-7-16.1-15.9-16.1s-16.1 7-16.1 15.9c-.2 18.3-.8 31-2.6 40.6c-1.8 9.1-4.5 14.2-8.2 17.9s-8.8 6.5-17.9 8.2c-9.6 1.9-22.3 2.5-40.6 2.6c-8.8 .1-15.9 7.3-15.9 16.1s7.3 15.9 16.1 15.9c18.1-.2 33.6-.7 46.5-3.2c13.3-2.6 24.9-7.5 34.4-17s14.4-21.1 17-34.4c2.5-12.9 3.1-28.3 3.2-46.5z"/></svg>