<svg xmlns="http://www.w3.org/2000/svg" viewBox="0 0 512 512"><!--!Font Awesome Pro 6.6.0 by @fontawesome - https://fontawesome.com License - https://fontawesome.com/license (Commercial License) Copyright 2024 Fonticons, Inc.--><path class="fa-secondary" opacity=".4" d="M64 212.9l0 .5 0 85.3c0 80.5 0 120.7 25 145.7c24.9 24.9 65.1 25 145.2 25l.5 0 42.7 0c80.5 0 120.7 0 145.7-25c24.9-24.9 25-65.1 25-145.2l0-.5 0-85.3c0-80.5 0-120.7-25-145.7s-65.2-25-145.7-25l-42.7 0c-80.5 0-120.7 0-145.7 25C64 92.6 64 132.7 64 212.9zM128 256c0-30.2 0-45.3 9.4-54.6s24.5-9.4 54.6-9.4l128 0c30.2 0 45.3 0 54.6 9.4c9.4 9.4 9.4 24.4 9.4 54.6l0 85.3c0 30.2 0 45.3-9.4 54.6s-24.5 9.4-54.6 9.4l-128 0c-30.2 0-45.3 0-54.6-9.4s-9.4-24.5-9.4-54.6l0-85.3zm5.3-128c0-8.8 7.2-16 16-16L256 112c8.8 0 16 7.2 16 16s-7.2 16-16 16l-106.7 0c-8.8 0-16-7.2-16-16z"/><path class="fa-primary" d="M128 256c0-30.2 0-45.3 9.4-54.6s24.5-9.4 54.6-9.4H320c30.2 0 45.3 0 54.6 9.4s9.4 24.5 9.4 54.6v85.3c0 30.2 0 45.3-9.4 54.6s-24.5 9.4-54.6 9.4H192c-30.2 0-45.3 0-54.6-9.4s-9.4-24.5-9.4-54.6V256zm21.3-144c-8.8 0-16 7.2-16 16s7.2 16 16 16H256c8.8 0 16-7.2 16-16s-7.2-16-16-16H149.3z"/></svg>