<svg xmlns="http://www.w3.org/2000/svg" viewBox="0 0 512 512"><!--!Font Awesome Pro 6.6.0 by @fontawesome - https://fontawesome.com License - https://fontawesome.com/license (Commercial License) Copyright 2024 Fonticons, Inc.--><path class="fa-secondary" opacity=".4" d="M42.7 256c0-100.6 0-150.8 31.2-182.1S155.4 42.7 256 42.7s150.9 0 182.1 31.2c31.2 31.2 31.2 81.3 31.2 181.3l0 .8c0 100.6 0 150.9-31.2 182.1s-81.5 31.2-182.1 31.2s-150.8 0-182.1-31.2S42.7 356.6 42.7 256zm48-85.3c0 8.8 7.2 16 16 16l106.7 0c8.8 0 16-7.2 16-16s-7.2-16-16-16l-106.7 0c-8.8 0-16 7.2-16 16zm0 170.7c0 8.8 7.2 16 16 16l21.3 0c8.8 0 16-7.2 16-16s-7.2-16-16-16l-21.3 0c-8.8 0-16 7.2-16 16zm64 0a58.7 58.7 0 1 0 117.3 0 58.7 58.7 0 1 0 -117.3 0zm85.3 0a26.7 26.7 0 1 1 -53.3 0 26.7 26.7 0 1 1 53.3 0zm0-170.7a58.7 58.7 0 1 0 117.3 0 58.7 58.7 0 1 0 -117.3 0zm85.3 0a26.7 26.7 0 1 1 -53.3 0 26.7 26.7 0 1 1 53.3 0zM282.7 341.3c0 8.8 7.2 16 16 16l106.7 0c8.8 0 16-7.2 16-16s-7.2-16-16-16l-106.7 0c-8.8 0-16 7.2-16 16zM368 170.7c0 8.8 7.2 16 16 16l21.3 0c8.8 0 16-7.2 16-16s-7.2-16-16-16l-21.3 0c-8.8 0-16 7.2-16 16z"/><path class="fa-primary" d="M282.7 341.3c0-8.8 7.2-16 16-16H405.3c8.8 0 16 7.2 16 16s-7.2 16-16 16H298.7c-8.8 0-16-7.2-16-16zM213.3 154.7c8.8 0 16 7.2 16 16s-7.2 16-16 16l-106.7 0c-8.8 0-16-7.2-16-16s7.2-16 16-16l106.7 0zM90.7 341.3c0-8.8 7.2-16 16-16H128c8.8 0 16 7.2 16 16s-7.2 16-16 16H106.7c-8.8 0-16-7.2-16-16zM405.3 154.7c8.8 0 16 7.2 16 16s-7.2 16-16 16H384c-8.8 0-16-7.2-16-16s7.2-16 16-16l21.3 0zM154.7 341.3a58.7 58.7 0 1 0 117.3 0 58.7 58.7 0 1 0 -117.3 0zm85.3 0a26.7 26.7 0 1 1 -53.3 0 26.7 26.7 0 1 1 53.3 0zm58.7-112a58.7 58.7 0 1 0 0-117.3 58.7 58.7 0 1 0 0 117.3zm0-85.3a26.7 26.7 0 1 1 0 53.3 26.7 26.7 0 1 1 0-53.3z"/></svg>