<svg xmlns="http://www.w3.org/2000/svg" viewBox="0 0 512 512"><!--!Font Awesome Pro 6.6.0 by @fontawesome - https://fontawesome.com License - https://fontawesome.com/license (Commercial License) Copyright 2024 Fonticons, Inc.--><path class="fa-secondary" opacity=".4" d="M42.7 256a213.3 213.3 0 1 0 426.7 0A213.3 213.3 0 1 0 42.7 256zm106.7-32.8c0-1.4 .2-2.7 .6-4c3.1-10 16.2-13 42.5-18.9l6.8-1.5c7.5-1.7 11.2-2.5 14.2-4.8s4.9-5.7 8.8-12.6l3.5-6.3c13.5-24.2 20.3-36.4 30.4-36.4s16.9 12.1 30.4 36.4l3.5 6.3c3.8 6.9 5.8 10.3 8.8 12.6s6.7 3.1 14.2 4.8l6.8 1.5c26.2 5.9 39.4 8.9 42.5 18.9c.4 1.3 .6 2.6 .6 4c0 9-8.8 19.2-24.3 37.4l-4.6 5.4c-5.1 5.9-7.6 8.9-8.8 12.6s-.8 7.6 0 15.6l.7 7.2c2.7 27.9 4.1 41.9-4.1 48.1s-20.5 .5-45-10.8l-6.4-2.9c-7-3.2-10.5-4.8-14.2-4.8s-7.2 1.6-14.2 4.8l-6.4 2.9c-24.6 11.3-36.8 17-45 10.8s-6.8-20.2-4.1-48.1l.7-7.2c.8-7.9 1.2-11.9 0-15.6s-3.7-6.6-8.8-12.6l-4.6-5.4c-15.5-18.2-24.3-28.4-24.3-37.4z"/><path class="fa-primary" d="M222.1 181.3l3.5-6.3c13.5-24.2 20.3-36.4 30.4-36.4s16.9 12.1 30.4 36.4l3.5 6.3c3.8 6.9 5.8 10.3 8.8 12.6s6.7 3.1 14.2 4.8l6.8 1.5c26.2 5.9 39.4 8.9 42.5 18.9s-5.8 20.5-23.7 41.4l-4.6 5.4c-5.1 5.9-7.6 8.9-8.8 12.6s-.8 7.6 0 15.6l.7 7.2c2.7 27.9 4.1 41.9-4.1 48.1s-20.5 .5-45-10.8l-6.4-2.9c-7-3.2-10.5-4.8-14.2-4.8s-7.2 1.6-14.2 4.8l-6.4 2.9c-24.6 11.3-36.8 17-45 10.8s-6.8-20.2-4.1-48.1l.7-7.2c.8-7.9 1.2-11.9 0-15.6s-3.7-6.6-8.8-12.6l-4.6-5.4c-17.9-20.9-26.8-31.4-23.7-41.4s16.2-13 42.5-18.9l6.8-1.5c7.5-1.7 11.2-2.5 14.2-4.8s4.9-5.7 8.8-12.6z"/></svg>