<svg xmlns="http://www.w3.org/2000/svg" viewBox="0 0 512 512"><!--!Font Awesome Pro 6.6.0 by @fontawesome - https://fontawesome.com License - https://fontawesome.com/license (Commercial License) Copyright 2024 Fonticons, Inc.--><path class="fa-secondary" opacity=".4" d="M42.7 256c0 100.6 0 150.9 31.2 182.1s81.5 31.2 182.1 31.2s150.9 0 182.1-31.2c31.2-31.2 31.2-81.3 31.2-181.3l0-.8c0-100.6 0-150.8-31.2-182.1S356.6 42.7 256 42.7s-150.8 0-182.1 31.2S42.7 155.4 42.7 256zm48-21.3c0-8.8 7.2-16 16-16l42.7 0 0-5.3c0-40.2 0-60.3 12.5-72.8S194.4 128 234.7 128l42.7 0c40.2 0 60.3 0 72.8 12.5s12.5 32.6 12.5 72.8l0 5.3 42.7 0c8.8 0 16 7.2 16 16s-7.2 16-16 16l-298.7 0c-8.8 0-16-7.2-16-16zm64 106.7c0-8.8 7.2-16 16-16l170.7 0c8.8 0 16 7.2 16 16s-7.2 16-16 16l-170.7 0c-8.8 0-16-7.2-16-16z"/><path class="fa-primary" d="M170.7 325.3c-8.8 0-16 7.2-16 16s7.2 16 16 16H341.3c8.8 0 16-7.2 16-16s-7.2-16-16-16H170.7zm192-106.7l-213.3 0-42.7 0c-8.8 0-16 7.2-16 16s7.2 16 16 16l298.7 0c8.8 0 16-7.2 16-16s-7.2-16-16-16l-42.7 0z"/></svg>