<svg xmlns="http://www.w3.org/2000/svg" viewBox="0 0 512 512"><!--!Font Awesome Pro 6.6.0 by @fontawesome - https://fontawesome.com License - https://fontawesome.com/license (Commercial License) Copyright 2024 Fonticons, Inc.--><path class="fa-secondary" opacity=".4" d="M82.3 296.9l66.4 66.4c6.2 6.2 16.4 6.2 22.6 0s6.2-16.4 0-22.6l-60.4-60.4c-9.8 4.7-19.4 10.2-28.6 16.6zm56.4-27.3L241.3 372.3c.3 .3 .7 .6 1 .9c3.7-12.7 6-25.6 6.9-38.3l-72.2-72.2c-12.8 .8-25.6 3.1-38.4 6.9zm48.5 107.1c-6.2 6.2-6.2 16.4 0 22.6l28.9 28.9c6.4-9.3 11.8-19 16.4-28.8l-22.7-22.7c-6.2-6.2-16.4-6.2-22.6 0zm72.4-202.9l78.6 78.6c12.1-1.6 24.3-4.5 36.2-8.6c-.6-.9-1.3-1.8-2.1-2.5L268.3 137.3c-4.1 12.1-7 24.3-8.7 36.6zm20.1-63.6l20.2 20.2c6.2 6.2 16.4 6.2 22.6 0s6.2-16.4 0-22.6L296.8 82.1c-6.5 9.1-12.2 18.5-17.1 28.2zM336 146.4c-6.2 6.2-6.2 16.4 0 22.6l64.2 64.2c9.7-4.8 19.2-10.5 28.3-16.9l-69.9-69.9c-6.2-6.2-16.4-6.2-22.6 0z"/><path class="fa-primary" d="M320.6 31.4c6.2 6.2 6.2 16.4 0 22.6c-54.6 54.6-75.2 130.4-55.3 192.7c62.2 19.9 138.1-.7 192.7-55.3c6.2-6.2 16.4-6.2 22.6 0s6.2 16.4 0 22.6c-55.9 56-133.6 82.2-203.9 68.5c16 67.7-8.5 143.9-62.8 198.1c-6.2 6.2-16.4 6.2-22.6 0s-6.2-16.4 0-22.6c51.6-51.6 70.4-123.5 50.4-181.7l-1.6-4.5-4.5-1.6c-58.2-20-130.1-1.2-181.7 50.4c-6.2 6.2-16.4 6.2-22.6 0s-6.2-16.4 0-22.6c54.3-54.3 130.4-78.8 198.1-62.8C215.8 165 242.1 87.3 298 31.4c6.2-6.2 16.4-6.2 22.6 0z"/></svg>