<svg xmlns="http://www.w3.org/2000/svg" viewBox="0 0 640 512"><!--!Font Awesome Pro 6.6.0 by @fontawesome - https://fontawesome.com License - https://fontawesome.com/license (Commercial License) Copyright 2024 Fonticons, Inc.--><path class="fa-secondary" opacity=".4" d="M0 320c0-53 43-96 96-96l298.8 0C349.6 255.9 320 308.5 320 368c0 16.6 2.3 32.7 6.6 48L64 416l0 32c0 17.7-14.3 32-32 32s-32-14.3-32-32L0 320zM32 80c0-26.5 21.5-48 48-48l352 0c26.5 0 48 21.5 48 48l0 112.7c-9.3 .8-18.4 2.4-27.2 4.6c-6.7-2-13.7-3.5-20.8-4.3l0-1 0-32c0-17.7-14.3-32-32-32l-96 0c-17.7 0-32 14.3-32 32l0 32-32 0 0-32c0-17.7-14.3-32-32-32l-96 0c-17.7 0-32 14.3-32 32l0 32 0 1c-17.3 2.2-33.6 7.8-48 16.1L32 80z"/><path class="fa-primary" d="M640 368c0-51.4-27.4-99-72-124.7s-99.4-25.7-144 0S352 316.6 352 368s27.4 99 72 124.7s99.4 25.7 144 0s72-73.3 72-124.7zM428.7 348.7l56-56c6.2-6.2 16.4-6.2 22.6 0l56 56c6.2 6.2 6.2 16.4 0 22.6s-16.4 6.2-22.6 0L512 342.6l0 89.4c0 8.8-7.2 16-16 16s-16-7.2-16-16l0-89.4-28.7 28.7c-6.2 6.2-16.4 6.2-22.6 0s-6.2-16.4 0-22.6z"/></svg>