<svg xmlns="http://www.w3.org/2000/svg" viewBox="0 0 512 512"><!--!Font Awesome Pro 6.6.0 by @fontawesome - https://fontawesome.com License - https://fontawesome.com/license (Commercial License) Copyright 2024 Fonticons, Inc.--><path class="fa-secondary" opacity=".4" d="M42.7 189.3c0 11.3 1.5 27 3.5 48l4.9 52c8.1 85.6 12.1 128.4 37.3 154.2s63 25.8 138.7 25.8l58 0c75.6 0 113.4 0 138.7-25.8s29.3-68.6 37.3-154.2l4.9-52c2-21.1 3.5-36.7 3.5-48c0-10.6-1.3-17.5-4.7-21.6c-3.8-4.6-8.9-7.4-14.4-7.8c-10.1-.9-22.9 13.6-48.4 42.6c-13.2 15-19.8 22.5-27.1 23.7c-4.1 .6-8.2 0-12-1.9c-6.8-3.4-11.3-12.7-20.4-31.2L294.7 95.3C277.6 60.2 269 42.7 256 42.7s-21.6 17.5-38.7 52.6L169.6 193c-9.1 18.6-13.6 27.8-20.4 31.2c-3.8 1.9-7.9 2.6-12 1.9c-7.4-1.2-13.9-8.7-27.1-23.7c-25.5-29-38.2-43.5-48.4-42.6c-5.5 .5-10.6 3.3-14.4 7.8c-3.4 4.1-4.7 11-4.7 21.6zM192.4 293.6c1.9-6 9.7-7.8 25.5-11.4l4.1-.9c4.5-1 6.7-1.5 8.5-2.9s2.9-3.4 5.3-7.6l2.1-3.8c8.1-14.5 12.2-21.8 18.2-21.8s10.1 7.3 18.2 21.8l2.1 3.8c2.3 4.1 3.5 6.2 5.3 7.6s4 1.9 8.5 2.9l4.1 .9c15.7 3.6 23.6 5.3 25.5 11.4s-3.5 12.3-14.2 24.8l-2.8 3.2c-3 3.6-4.6 5.3-5.3 7.6s-.5 4.6 0 9.3l.4 4.3c1.6 16.7 2.4 25.1-2.5 28.8s-12.3 .3-27-6.5l-3.8-1.8c-4.2-1.9-6.3-2.9-8.5-2.9s-4.3 1-8.5 2.9c-1.3 .6-2.5 1.2-3.8 1.8c-14.7 6.8-22.1 10.2-27 6.5s-4.1-12.1-2.5-28.8l.4-4.3c.5-4.8 .7-7.1 0-9.3s-2.2-4-5.3-7.6l-2.8-3.2c-10.7-12.6-16.1-18.8-14.2-24.8z"/><path class="fa-primary" d="M276.3 270.9l-2.1-3.8c-8.1-14.5-12.2-21.8-18.2-21.8s-10.1 7.3-18.2 21.8l-2.1 3.8c-2.3 4.1-3.5 6.2-5.3 7.6s-4 1.9-8.5 2.9l-4.1 .9c-15.7 3.6-23.6 5.3-25.5 11.4s3.5 12.3 14.2 24.8l2.8 3.2c3 3.6 4.6 5.3 5.3 7.6s.5 4.6 0 9.3l-.4 4.3c-1.6 16.7-2.4 25.1 2.5 28.8s12.3 .3 27-6.5l0 0 3.8-1.8 0 0c4.2-1.9 6.3-2.9 8.5-2.9s4.3 1 8.5 2.9l0 0 3.8 1.8c14.7 6.8 22.1 10.2 27 6.5s4.1-12.1 2.5-28.8l-.4-4.3c-.5-4.8-.7-7.1 0-9.3s2.2-4 5.3-7.6l2.8-3.2 0 0c10.7-12.6 16.1-18.8 14.2-24.8s-9.7-7.8-25.5-11.4l-4.1-.9c-4.5-1-6.7-1.5-8.5-2.9s-2.9-3.4-5.3-7.6z"/></svg>