<svg xmlns="http://www.w3.org/2000/svg" viewBox="0 0 512 512"><!--!Font Awesome Pro 6.6.0 by @fontawesome - https://fontawesome.com License - https://fontawesome.com/license (Commercial License) Copyright 2024 Fonticons, Inc.--><path class="fa-secondary" opacity=".4" d="M48 85.3c0-8.8 7.2-16 16-16l362.7 0c8.8 0 16 7.2 16 16s-7.2 16-16 16L64 101.3c-8.8 0-16-7.2-16-16zM48 192c0-8.8 7.2-16 16-16l192 0c8.8 0 16 7.2 16 16s-7.2 16-16 16L64 208c-8.8 0-16-7.2-16-16zm0 106.7c0-8.8 7.2-16 16-16l106.7 0c8.8 0 16 7.2 16 16s-7.2 16-16 16L64 314.7c-8.8 0-16-7.2-16-16z"/><path class="fa-primary" d="M412.7 149.2c5.9-2.2 13-4.1 20.7-2.7c9.4 1.7 17.8 7 23.5 14.8c4.6 6.3 6 13.5 6.6 19.8c.6 6.1 .6 13.8 .6 22.5l0 .7 0 1.6c0 6.4 0 13.2-2.3 19.5c-1.8 5-4.7 9.5-8.4 13.3c-4.7 4.8-10.9 7.7-16.6 10.5l-1.5 .7-38.1 18.3c-7.9 3.8-14.8 7.1-20.5 9.2c-5.6 2.1-12.2 3.8-19.3 2.9v91.4c0 38.7-30.6 70.9-69.3 70.9s-69.3-32.2-69.3-70.9s30.6-70.9 69.3-70.9c13.8 0 26.6 4.1 37.3 11.1V234.7h.1c-.1-3.6-.1-7.5-.1-11.6l0-.7 0-1.6c0-6.4 0-13.2 2.3-19.5c1.8-5 4.7-9.5 8.4-13.3c4.7-4.8 10.9-7.7 16.6-10.5l1.5-.7 38.1-18.3c7.9-3.8 14.8-7.1 20.5-9.2z"/></svg>