<svg xmlns="http://www.w3.org/2000/svg" viewBox="0 0 640 512"><!--!Font Awesome Pro 6.6.0 by @fontawesome - https://fontawesome.com License - https://fontawesome.com/license (Commercial License) Copyright 2024 Fonticons, Inc.--><path d="M0 64C0 28.7 28.7 0 64 0L512 0c35.3 0 64 28.7 64 64l0 147.2c-19.5-10-41.1-16.4-64-18.5L512 64 64 64l0 288 256.7 0c-.5 5.3-.7 10.6-.7 16c0 59.5 29.6 112.1 74.8 144L160 512c-17.7 0-32-14.3-32-32s14.3-32 32-32l69.3 0L240 416 64 416c-35.3 0-64-28.7-64-64L0 64zM371.3 296c25.7-44.6 73.3-72 124.7-72s99 27.4 124.7 72s25.7 99.4 0 144S547.4 512 496 512s-99-27.4-124.7-72s-25.7-99.4 0-144zm49.4 60.7c-6.3 6.2-6.3 16.4 0 22.6c18.7 18.7 37.3 37.3 56 56c6.2 6.2 16.4 6.2 22.6 0s6.2-16.4 0-22.6L470.6 384l89.4 0c8.8 0 16-7.2 16-16s-7.2-16-16-16l-89.4 0 28.7-28.7c6.2-6.2 6.2-16.4 0-22.6s-16.4-6.2-22.6 0l-56 56z"/></svg>