<svg xmlns="http://www.w3.org/2000/svg" viewBox="0 0 512 512"><!--!Font Awesome Pro 6.6.0 by @fontawesome - https://fontawesome.com License - https://fontawesome.com/license (Commercial License) Copyright 2024 Fonticons, Inc.--><path class="fa-secondary" opacity=".4" d="M42.7 256c0-100.6 0-150.8 31.2-182.1S155.4 42.7 256 42.7s150.9 0 182.1 31.2c31.2 31.2 31.2 81.3 31.2 181.3l0 .8 0 21.3-67.4 0c-19.3 0-29 0-37.5 3.9s-14.8 11.2-27.3 25.9l-12.9 15.1c-12.6 14.7-18.9 22-27.3 25.9s-18.1 3.9-37.5 3.9l-6.8 0c-19.3 0-29 0-37.5-3.9s-14.8-11.2-27.3-25.9l-12.9-15.1c-12.6-14.7-18.9-22-27.3-25.9s-18.1-3.9-37.5-3.9l-67.4 0c0-6.8 0-14 0-21.3zm112-106.7c0 8.8 7.2 16 16 16l170.7 0c8.8 0 16-7.2 16-16s-7.2-16-16-16l-170.7 0c-8.8 0-16 7.2-16 16zM197.3 224c0 8.8 7.2 16 16 16l85.3 0c8.8 0 16-7.2 16-16s-7.2-16-16-16l-85.3 0c-8.8 0-16 7.2-16 16z"/><path class="fa-primary" d="M73.9 438.1c31.2 31.2 81.5 31.2 182.1 31.2s150.9 0 182.1-31.2c28.9-28.9 31.1-74.2 31.2-160.8H401.9c-19.3 0-29 0-37.5 3.9s-14.8 11.2-27.3 25.9l-12.9 15.1 0 0c-12.6 14.7-18.9 22-27.3 25.9s-18.1 3.9-37.5 3.9h-6.8c-19.3 0-29 0-37.5-3.9s-14.8-11.2-27.3-25.9l-12.9-15.1c-12.6-14.7-18.9-22-27.3-25.9s-18.1-3.9-37.5-3.9H42.7c.2 86.5 2.3 131.8 31.2 160.8zm96.8-304.8c-8.8 0-16 7.2-16 16s7.2 16 16 16H341.3c8.8 0 16-7.2 16-16s-7.2-16-16-16H170.7zM213.3 208c-8.8 0-16 7.2-16 16s7.2 16 16 16h85.3c8.8 0 16-7.2 16-16s-7.2-16-16-16H213.3z"/></svg>