<svg xmlns="http://www.w3.org/2000/svg" viewBox="0 0 512 512"><!--!Font Awesome Pro 6.6.0 by @fontawesome - https://fontawesome.com License - https://fontawesome.com/license (Commercial License) Copyright 2024 Fonticons, Inc.--><path class="fa-secondary" opacity=".4" d="M133.3 181.3l0 32 32 0 26.7 0c8.8 0 16 7.2 16 16s-7.2 16-16 16l-25.3 0-32.4 0C142.2 305.5 193.7 352 256 352s113.8-46.5 121.6-106.7l-32.4 0-57.3 0c-8.8 0-16-7.2-16-16s7.2-16 16-16l58.7 0 32 0 0-32-32 0-58.7 0c-8.8 0-16-7.2-16-16s7.2-16 16-16l57.3 0 32.4 0C369.8 89.1 318.3 42.7 256 42.7s-113.8 46.5-121.6 106.7l32.4 0 25.3 0c8.8 0 16 7.2 16 16s-7.2 16-16 16l-26.7 0-32 0z"/><path class="fa-primary" d="M85.3 192c8.8 0 16 7.2 16 16l0 21.3C101.3 314.8 170.6 384 256 384s154.7-69.2 154.7-154.7l0-21.3c0-8.8 7.2-16 16-16s16 7.2 16 16l0 21.3c0 97.7-75.1 177.9-170.7 186l0 48.7c0 8.8-7.2 16-16 16s-16-7.2-16-16l0-48.7c-95.6-8.1-170.7-88.3-170.7-186l0-21.3c0-8.8 7.2-16 16-16zM272 229.3c0 8.8 7.2 16 16 16h57.3 32.4l1-32h-32H288c-8.8 0-16 7.2-16 16zm0-64c0 8.8 7.2 16 16 16l58.7 0h32l-1-32H345.3l-57.3 0c-8.8 0-16 7.2-16 16zm-64 0c0-8.8-7.2-16-16-16H166.7 134.4l-1 32h32H192c8.8 0 16-7.2 16-16zm0 64c0-8.8-7.2-16-16-16H165.3h-32l1 32h32.4H192c8.8 0 16-7.2 16-16z"/></svg>