<svg xmlns="http://www.w3.org/2000/svg" viewBox="0 0 512 512"><!--!Font Awesome Pro 6.6.0 by @fontawesome - https://fontawesome.com License - https://fontawesome.com/license (Commercial License) Copyright 2024 Fonticons, Inc.--><path class="fa-secondary" opacity=".4" d="M85.3 206.4c0-90.4 71.6-163.7 160-163.7s160 73.3 160 163.7c0 48.5-20.6 92-53.3 122c-10.9 10-19 17.4-24.7 22.7c-2.9 2.7-5 4.8-6.7 6.4c-.8 .8-1.4 1.4-1.9 1.9c-.2 .2-.4 .4-.5 .6s-.2 .2-.2 .2c-5 6.4-6.1 8-6.8 9.5s-1.1 3.4-2.4 11.5c-.5 3.2-.6 8.7-.6 23.6l0 .6c0 8.7 0 16.3-.5 22.4c-.6 6.5-1.9 13-5.3 19.1c-3.8 6.8-9.3 12.4-16 16.3c-6 3.5-12.3 4.8-18.7 5.4c-6 .6-13.4 .6-21.9 .6l-1.3 0c-8.5 0-15.9 0-21.9-.6c-6.4-.6-12.7-1.9-18.7-5.4c-6.6-3.9-12.1-9.6-16-16.3c-3.4-6.1-4.7-12.6-5.3-19.1c-.5-6.2-.5-13.7-.5-22.4l0-.6c0-14.9-.1-20.4-.6-23.6c-1.3-8.1-1.7-10-2.4-11.5s-1.7-3.1-6.8-9.5c0 0-.1-.1-.2-.2s-.3-.3-.5-.6c-.5-.5-1.1-1.1-1.9-1.9c-1.6-1.6-3.8-3.7-6.7-6.4c-5.7-5.4-13.8-12.8-24.7-22.7c-32.7-30-53.3-73.5-53.3-122zm120.7 46.5c2.5 5 7.5 8.1 12.9 8.1l29.9 0-25.1 36c-4.7 6.7-3.2 16 3.4 20.8s15.6 3.2 20.3-3.5L289 254.7c1.8-2.6 2.7-5.6 2.7-8.7c0-2.3-.5-4.7-1.6-6.8c-2.5-5-7.5-8.1-12.9-8.1l-29.9 0 25.1-36c4.7-6.7 3.2-16-3.4-20.8s-15.6-3.2-20.3 3.5l-41.6 59.5c-3.2 4.5-3.6 10.5-1.1 15.5zm5.4 166.8c.1 2.1 .2 3.9 .3 5.5c.4 4.5 1.1 6.1 1.5 6.9c1.3 2.3 3.1 4.1 5.3 5.4c.8 .5 2.4 1.2 6.7 1.6c4.6 .4 10.6 .4 19.9 .4s15.4 0 19.9-.4c4.4-.4 5.9-1.1 6.7-1.6c2.2-1.3 4-3.2 5.3-5.4c.5-.8 1.1-2.4 1.5-6.9c.1-1.6 .2-3.4 .3-5.5l-67.6 0z"/><path class="fa-primary" d="M279.2 419.7H211.5c.1 2.1 .2 3.9 .3 5.5c.4 4.5 1.1 6.1 1.5 6.9c1.3 2.3 3.1 4.1 5.3 5.4c.8 .5 2.4 1.2 6.7 1.6c4.6 .4 10.6 .4 19.9 .4s15.4 0 19.9-.4c4.4-.4 5.9-1.1 6.7-1.6c2.2-1.3 4-3.2 5.3-5.4c.5-.8 1.1-2.4 1.5-6.9c.1-1.6 .2-3.4 .3-5.5zM269 174.4c6.5 4.8 8.1 14.1 3.4 20.8l-25.1 36h29.9c5.4 0 10.4 3.1 12.9 8.1s2.1 10.9-1.1 15.5l-41.6 59.5c-4.7 6.7-13.8 8.2-20.3 3.5s-8.1-14.1-3.4-20.8l25.1-36H219c-5.4 0-10.4-3.1-12.9-8.1s-2.1-10.9 1.1-15.5l41.6-59.5c4.7-6.7 13.8-8.2 20.3-3.5z"/></svg>