<svg xmlns="http://www.w3.org/2000/svg" viewBox="0 0 512 512"><!--!Font Awesome Pro 6.6.0 by @fontawesome - https://fontawesome.com License - https://fontawesome.com/license (Commercial License) Copyright 2024 Fonticons, Inc.--><path class="fa-secondary" opacity=".4" d="M42.7 309.3a160 160 0 1 0 320 0 160 160 0 1 0 -320 0zM303.9 185.4c8.3 6.8 15.9 14.4 22.6 22.6l47.6-47.6c-1.5-3.8-3-7.6-4.5-11.4c-1.2-3.1-3.6-5.5-6.7-6.7c-3.8-1.5-7.6-3-11.4-4.5l-47.6 47.6z"/><path class="fa-primary" d="M383.6 50.2c4-10 18.2-10 22.1 0l14 35.4c1.2 3.1 3.6 5.5 6.7 6.7l35.4 14c10 4 10 18.2 0 22.1l-35.4 14c-3.1 1.2-5.5 3.6-6.7 6.7l-14 35.4c-4 10-18.2 10-22.1 0l-14-35.4c-1.2-3.1-3.6-5.5-6.7-6.7l-35.4-14c-10-4-10-18.2 0-22.1l35.4-14c3.1-1.2 5.5-3.6 6.7-6.7l14-35.4z"/></svg>