<svg xmlns="http://www.w3.org/2000/svg" viewBox="0 0 512 512"><!--!Font Awesome Pro 6.6.0 by @fontawesome - https://fontawesome.com License - https://fontawesome.com/license (Commercial License) Copyright 2024 Fonticons, Inc.--><path class="fa-secondary" opacity=".4" d="M64 213l0 .3 0 128c0 60.3 0 90.5 18.7 109.3c18.7 18.7 48.8 18.7 108.9 18.7l.4 0 128 0c60.3 0 90.5 0 109.3-18.7S448 401.6 448 341.3l0-128c0-60.3 0-90.5-18.7-109.3c-16.4-16.4-41.5-18.4-87.9-18.7l0 10.7c0 17.7-14.3 32-32 32l-106.7 0c-17.7 0-32-14.3-32-32l0-10.7c-46.4 .3-71.5 2.3-87.9 18.7C64 122.8 64 152.9 64 213zm69.3 11c0-8.8 7.2-16 16-16l213.3 0c8.8 0 16 7.2 16 16s-7.2 16-16 16l-213.3 0c-8.8 0-16-7.2-16-16zm21.3 74.7c0-8.8 7.2-16 16-16l170.7 0c8.8 0 16 7.2 16 16s-7.2 16-16 16l-170.7 0c-8.8 0-16-7.2-16-16zM176 373.3c0-8.8 7.2-16 16-16l128 0c8.8 0 16 7.2 16 16s-7.2 16-16 16l-128 0c-8.8 0-16-7.2-16-16z"/><path class="fa-primary" d="M170.7 74.7c0-17.7 14.3-32 32-32H309.3c17.7 0 32 14.3 32 32V96c0 17.7-14.3 32-32 32H202.7c-17.7 0-32-14.3-32-32V74.7zM133.3 224c0-8.8 7.2-16 16-16l213.3 0c8.8 0 16 7.2 16 16s-7.2 16-16 16l-213.3 0c-8.8 0-16-7.2-16-16zm21.3 74.7c0-8.8 7.2-16 16-16l170.7 0c8.8 0 16 7.2 16 16s-7.2 16-16 16l-170.7 0c-8.8 0-16-7.2-16-16zM176 373.3c0-8.8 7.2-16 16-16l128 0c8.8 0 16 7.2 16 16s-7.2 16-16 16l-128 0c-8.8 0-16-7.2-16-16z"/></svg>