<svg xmlns="http://www.w3.org/2000/svg" viewBox="0 0 512 512"><!--!Font Awesome Pro 6.6.0 by @fontawesome - https://fontawesome.com License - https://fontawesome.com/license (Commercial License) Copyright 2024 Fonticons, Inc.--><path class="fa-secondary" opacity=".4" d="M42.7 256a213.3 213.3 0 1 0 426.7 0A213.3 213.3 0 1 0 42.7 256zM176 263.9c0-39.8 32.3-72.1 72.1-72.1c14.9 0 28.7 4.5 40.1 12.2l0-118.6c0-5.1 2.4-9.9 6.5-12.9s9.4-3.9 14.3-2.4c63.2 19.8 113 69.7 132.9 132.9c.5 1.6 .7 3.2 .7 4.8c0 6.8-4.4 13.1-11.2 15.3c-8.4 2.6-17.4-2-20.1-10.5c-14.5-46.1-47.9-83.7-91.1-103.9l0 155.2c0 39.8-32.3 72.1-72.1 72.1s-72.1-32.3-72.1-72.1z"/><path class="fa-primary" d="M294.8 72.4c4.1-3 9.4-3.9 14.3-2.4c63.2 19.8 113 69.7 132.9 132.9c2.6 8.4-2 17.4-10.5 20.1s-17.4-2-20.1-10.5c-14.5-46.1-47.9-83.7-91.1-103.9l0 155.2c0 39.8-32.3 72.1-72.1 72.1s-72.1-32.3-72.1-72.1s32.3-72.1 72.1-72.1c14.9 0 28.7 4.5 40.1 12.2l0-118.6c0-5.1 2.4-9.9 6.5-12.9z"/></svg>