<svg xmlns="http://www.w3.org/2000/svg" viewBox="0 0 512 512"><!--!Font Awesome Pro 6.6.0 by @fontawesome - https://fontawesome.com License - https://fontawesome.com/license (Commercial License) Copyright 2024 Fonticons, Inc.--><path class="fa-secondary" opacity=".4" d="M85.3 230.7c0 7.9 1.2 18.9 2.8 33.6L92 300.7c.7 6.1 1.3 12.2 1.9 18.1c1.4 13.6 2.7 26.5 4.3 38.6l315.6 0c1.5-12 2.9-25 4.3-38.6c.6-5.9 1.2-12 1.9-18.1l3.9-36.4c1.6-14.7 2.8-25.7 2.8-33.6c0-2.5-.1-4.7-.4-6.7c-9.5-.1-18.1-4.4-23.8-11.1c-7 4.3-16 13.4-29.7 27c-10.5 10.5-15.8 15.8-21.7 16.6c-3.3 .5-6.6 0-9.6-1.3c-5.4-2.4-9.1-8.9-16.3-21.9l-38.2-68.5c-4.5-8-8.2-14.7-11.6-20.1c-5.8 3-12.4 4.6-19.4 4.6s-13.6-1.7-19.4-4.6c-3.4 5.4-7.1 12.1-11.6 20.1l-38.2 68.5c-7.2 13-10.9 19.5-16.3 21.9c-3 1.3-6.3 1.8-9.6 1.3c-5.9-.8-11.2-6.1-21.7-16.6c-13.7-13.6-22.8-22.7-29.7-27c-5.8 6.7-14.3 11-23.8 11.1c-.3 1.9-.4 4.2-.4 6.7zm18.1 158.7c4 18.5 9.6 32.7 18.4 40.6C142 448 172.2 448 232.5 448l.3 0 46.4 0c60.5 0 90.7 0 110.9-18.1c8.8-7.9 14.4-22.1 18.4-40.6l-305.1 0z"/><path class="fa-primary" d="M426.7 224c17.7 0 32-14.3 32-32s-14.3-32-32-32s-32 14.3-32 32c0 8 2.9 15.3 7.8 20.9c5.8 6.7 14.3 11 23.8 11.1l.4 0zM256 64a42.6 42.6 0 1 0 0 85.2A42.6 42.6 0 1 0 256 64zM53.3 192c0 17.7 14.3 32 32 32l.4 0c9.5-.1 18.1-4.4 23.8-11.1c4.8-5.6 7.8-12.9 7.8-20.9c0-17.7-14.3-32-32-32s-32 14.3-32 32zm50.1 197.3c-2.1-9.6-3.8-20.4-5.2-32H413.8c-1.5 11.6-3.2 22.4-5.2 32H103.4z"/></svg>