<svg xmlns="http://www.w3.org/2000/svg" viewBox="0 0 512 512"><!--!Font Awesome Pro 6.6.0 by @fontawesome - https://fontawesome.com License - https://fontawesome.com/license (Commercial License) Copyright 2024 Fonticons, Inc.--><path class="fa-secondary" opacity=".4" d="M64 221.8l0 .4 0 33.6c0 120.3 90.4 178.6 147.2 203.4c15.4 6.7 23.1 10.1 44.8 10.1s29.4-3.4 44.8-10.1C357.6 434.5 448 376.1 448 255.8l0-33.6c0-68.2 0-102.3-8.1-113.8S399.8 86 335.7 64l-12.2-4.2C290 48.4 273.3 42.7 256 42.7s-34 5.7-67.5 17.2L176.3 64C112.2 86 80.1 97 72.1 108.4C64 119.9 64 153.9 64 221.8zm122.7 42.7c0-4.4 1.8-8.8 5.3-11.9c6.6-5.9 16.7-5.3 22.6 1.3l18.5 20.8 64.3-72c3.2-3.5 7.5-5.3 11.9-5.3c3.8 0 7.6 1.3 10.7 4.1c3.5 3.2 5.3 7.5 5.3 11.9c0 3.8-1.3 7.6-4.1 10.7l-76.2 85.3c-3 3.4-7.4 5.3-11.9 5.3s-8.9-1.9-11.9-5.3l-30.5-34.1c-2.7-3.1-4.1-6.9-4.1-10.7z"/><path class="fa-primary" d="M321.3 224c5.9-6.6 5.3-16.7-1.3-22.6s-16.7-5.3-22.6 1.3l-64.3 72-18.5-20.8c-5.9-6.6-16-7.2-22.6-1.3s-7.2 16-1.3 22.6l30.5 34.1c3 3.4 7.4 5.3 11.9 5.3s8.9-1.9 11.9-5.3L321.3 224z"/></svg>