<svg xmlns="http://www.w3.org/2000/svg" viewBox="0 0 512 512"><!--!Font Awesome Pro 6.6.0 by @fontawesome - https://fontawesome.com License - https://fontawesome.com/license (Commercial License) Copyright 2024 Fonticons, Inc.--><path class="fa-secondary" opacity=".4" d="M42.7 260.3l0 1c0 8.8 7.2 16 16 16c97.3 0 176.1 78.8 176.1 176c0 8.8 7.2 16 16 16l47.8 0c80.5 0 120.7 0 145.7-25.9s25-67.5 25-150.7l0-32.5c0-48.8 0-73.2-11.1-93.5s-31.3-32.8-71.8-57.9L343.8 82.5C301 55.9 279.6 42.7 256 42.7s-45 13.3-87.8 39.8L125.5 109c-40.5 25.1-60.7 37.7-71.8 57.9s-11.1 44.6-11.1 93.5zm0 1l0 31.5 0 .5c0 10.9 0 21.1 .1 30.6c.7-8.2 7.6-14.5 16-14.5c79.6 0 144.1 64.5 144.1 144c0 8.5-6.6 15.4-14.9 16c8 0 16.5 0 25.4 0l37.5 0c8.8 0 16-7.2 16-16c0-114.9-93.2-208-208.2-208c-8.8 0-16 7.2-16 16zm.1 65.7c.2 21.2 .6 39 2.1 54.3c2.8-4.7 7.9-7.9 13.8-7.9c44.2 0 80.1 35.8 80.1 80c0 6-3.3 11.3-8.3 14c15.4 1.4 33.5 1.8 55 2c-8.3-.6-14.8-7.5-14.8-16c0-61.9-50.2-112-112.1-112c-8.3 0-15.1-6.3-15.9-14.3zm4.8 73.9c3.5 18.2 9.6 31.8 20.1 42.6c11 11.4 24.9 17.7 43.9 21.3c-3-2.9-4.8-7-4.8-11.4c0-26.5-21.5-48-48-48c-4.3 0-8.2-1.7-11.1-4.5z"/><path class="fa-primary" d="M42.7 261.3c0-8.8 7.2-16 16-16c115 0 208.2 93.1 208.2 208c0 8.8-7.2 16-16 16s-16-7.2-16-16c0-97.2-78.9-176-176.1-176c-8.8 0-16-7.2-16-16zm16 48c79.6 0 144.1 64.5 144.1 144c0 8.8-7.2 16-16 16s-16-7.2-16-16c0-61.9-50.2-112-112.1-112c-8.8 0-16-7.2-16-16s7.2-16 16-16zm-16 80c0-8.8 7.2-16 16-16c44.2 0 80.1 35.8 80.1 80c0 8.8-7.2 16-16 16s-16-7.2-16-16c0-26.5-21.5-48-48-48c-8.8 0-16-7.2-16-16z"/></svg>