<svg xmlns="http://www.w3.org/2000/svg" viewBox="0 0 512 512"><!--!Font Awesome Pro 6.6.0 by @fontawesome - https://fontawesome.com License - https://fontawesome.com/license (Commercial License) Copyright 2024 Fonticons, Inc.--><path class="fa-secondary" opacity=".4" d="M35.3 252.5l0 .4c.3 4.3 1.3 8.5 2.9 12.5c2.7 7.1 7.1 13.5 12.3 19.2c9.3 10.2 22.3 19.2 37.4 27.1c3.6 1.9 7.3 3.7 11.2 5.5c6.4 3 13.3 5.8 20.4 8.5l10.8 3.8c-5.1 12.7-9.1 24.9-12.1 36.3c-5.3 20.1-7.5 38.9-5.4 54.7c2.2 15.9 9.3 31.1 24.9 38.8l.3 .2c3.9 1.9 8 3.1 12.2 3.8c7.5 1.2 15.2 .7 22.8-.9c13.5-2.9 27.8-9.6 42.3-18.6c3.4-2.1 6.9-4.4 10.4-6.9c5.8-4.1 11.7-8.5 17.6-13.4l25.1-20.4c1.8-1.5 3.2-3.3 4.2-5.3c-.4-.9-.9-1.9-1.3-2.9l-2.1-4.6c-2.3-5.1-3.5-7.6-5.4-9.4s-4.6-2.7-9.7-4.6l-1.6-.6c-1.5 .6-2.9 1.4-4.3 2.5l-25.1 20.4c-5.4 4.4-10.7 8.4-15.8 12c-3.1 2.1-6.1 4.1-9 6c-12.7 7.9-23.5 12.6-32 14.5c-4.7 1-8.3 1.1-10.9 .6c-1.4-.2-2.6-.6-3.5-1.1c-1.6-.8-3.4-2.3-4.9-5.3c-1-2-1.8-4.7-2.4-8.3c-1.5-9.3-.5-22.7 3.6-39.7c.3-1.3 .6-2.4 .9-3.4c2.7-10.4 6.5-21.7 11.4-33.8c8.1 2.7 17-1.4 20.1-9.5c2.8-7.5-.3-15.7-7-19.5c10.6-21.5 23.9-44.3 39.8-67.6c8.5-12.5 17.3-24.4 26.2-35.6c6.6 .2 13.4 .6 20.2 1.1c55.1 3.8 105.2 14.6 142.6 28.6L430 249.7c5.4 2.8 10.2 5.6 14.4 8.4c16.4 10.9 21.3 19.8 21.7 24.9c.2 2.2-.3 4.6-2.6 7.6c-2.3 3.1-6.2 6.7-12.5 10.4c-7.3 4.3-17 8.5-29.1 12c-9.5 2.8-20.3 5.3-32.3 7.2c-8.7 1.4-14.6 9.7-13.2 18.4s9.7 14.6 18.4 13.2c17.5-2.9 33.6-6.8 47.5-11.9c9.2-3.3 17.7-7.2 25-11.5c8.7-5.2 16.4-11.4 21.9-19c5.5-7.5 8.8-16.2 8.8-25.8c0-1.1 0-2.2-.1-3.3c-1.6-20.4-17.4-36.7-35.8-49c-5.3-3.6-11.2-7-17.4-10.2c-6.1-3.2-12.6-6.2-19.6-9.1c-2.7-1.1-5.5-2.3-8.4-3.4c-1-.4-2.1-.8-3.1-1.2c-3.8-1.4-7.6-2.8-11.6-4.1c1.1-1.3 2.1-2.9 2.7-4.6c6.3-16.6 11-32.4 13.7-47c1.8-9.7 2.7-18.8 2.7-27.4c-.1-10.1-1.6-19.9-5.3-28.5c-4.1-9.5-10.9-17.4-20.7-22.2c-6.5-3.2-13.5-4.5-20.7-4.5c-13.1 0-26.8 4.5-39.7 10.7c-5.8 2.8-11.6 6.1-17.6 9.9c-5.8 3.7-11.7 7.8-17.7 12.3c-2.4 1.8-4.7 3.6-7.1 5.5c-.8 .7-1.7 1.4-2.6 2.1c-21.4 17.4-43.7 39.8-65.3 65.7c-45.7-.5-86.7 4.1-118.4 13c-20 5.6-37.4 13.1-49.9 22.9c-12.7 9.9-22.2 23.8-21 41.1zm31.9-2.2c-.1-1.7 .2-4 2.1-6.8c1.2-1.9 3.1-3.9 5.9-6.3c7.3-6 19.3-11.9 36.3-17c1.1-.3 2.1-.6 3.2-.9c22.7-6.3 51.6-10.4 84.7-11.5c-4.2 5.8-8.4 11.7-12.5 17.7c-17.3 25.4-32 50.7-43.6 74.7l-12.6-4.4c-6.5-2.4-12.6-5-18.3-7.6c-3.4-1.6-6.6-3.2-9.7-4.8C89.5 276.5 80 269.5 74.1 263c-3.3-3.6-5.1-6.6-6.1-9.1c-.5-1.4-.8-2.5-.9-3.6zm198.3-73c15.1-16.6 30.2-30.9 44.5-42.5L334.4 117c5.1-3.2 10-6 14.5-8.2c17.7-8.7 27.9-8.4 32.4-6.2c2 .9 3.8 2.6 5.3 6.1c1.5 3.5 2.6 8.7 2.7 16c.1 8.5-1.3 19-4.3 31.3c-2.3 9.5-5.7 20-10 31.4c-1 2.5-1.2 5.1-.9 7.6c-32.6-8.6-69.6-14.9-108.6-17.8z"/><path class="fa-primary" d="M251 304.7c-.3-19.4-.4-29.1 5.7-32.7s14.5 1.4 31.1 11.4l4.3 2.6c4.7 2.8 7.1 4.2 9.7 4.6s5.2-.5 10.3-2.1l4.7-1.4c18-5.6 27-8.4 32.4-3.4s3.6 14.5 .1 33.4l-.9 4.9c-1 5.4-1.5 8.1-.9 10.7s2.2 4.9 5.5 9.4l3 4.1c11.4 16 17.1 24 14.3 30.6s-12.2 7.5-31.1 9.2l-4.9 .5c-5.4 .5-8 .7-10.3 2s-3.8 3.5-6.9 7.9l-2.8 4c-10.9 15.5-16.4 23.2-23.5 22.3s-11.2-9.8-19.3-27.7l-2.1-4.6c-2.3-5.1-3.5-7.6-5.4-9.4s-4.6-2.7-9.7-4.6l-4.7-1.7c-18.2-6.4-27.2-9.6-28.9-16.8s5.3-13.6 19.1-26.3l3.6-3.3c3.9-3.6 5.9-5.4 6.9-7.9s1-5.2 .9-10.7l-.1-5z"/></svg>