<svg xmlns="http://www.w3.org/2000/svg" viewBox="0 0 512 512"><!--!Font Awesome Pro 6.6.0 by @fontawesome - https://fontawesome.com License - https://fontawesome.com/license (Commercial License) Copyright 2024 Fonticons, Inc.--><path class="fa-secondary" opacity=".4" d="M42.7 256c0 9.5 .6 18.8 1.8 28c12.8-4.3 26.6-6.7 40.8-6.7c70.7 0 128 57.3 128 128c0 20.3-4.7 39.5-13.2 56.6c17.8 4.8 36.5 7.4 55.8 7.4c104.1 0 190.7-74.5 209.6-173.1c-58.7-11.7-102.9-63.4-102.9-125.5c0-30.3 10.5-58.1 28.1-80c-36.7-30-83.7-48-134.8-48C138.2 42.7 42.7 138.2 42.7 256zm234.7-74.7a53.3 53.3 0 1 1 -106.7 0 53.3 53.3 0 1 1 106.7 0zm64 160a21.3 21.3 0 1 1 -42.7 0 21.3 21.3 0 1 1 42.7 0z"/><path class="fa-primary" d="M44.5 284c11.3 85.9 73.7 155.8 155.7 178c8.4-17.1 13.2-36.3 13.2-56.6c0-70.7-57.3-128-128-128c-14.3 0-28 2.3-40.9 6.7zm421.1 12.2c2.5-13 3.8-26.5 3.8-40.2c0-66.7-30.6-126.3-78.6-165.4c-17.6 21.9-28.1 49.8-28.1 80c0 62.1 44.2 113.9 102.9 125.5zM298.7 341.3a21.3 21.3 0 1 1 42.7 0 21.3 21.3 0 1 1 -42.7 0zm-128-160a53.3 53.3 0 1 1 106.7 0 53.3 53.3 0 1 1 -106.7 0z"/></svg>