<svg xmlns="http://www.w3.org/2000/svg" viewBox="0 0 512 512"><!--!Font Awesome Pro 6.6.0 by @fontawesome - https://fontawesome.com License - https://fontawesome.com/license (Commercial License) Copyright 2024 Fonticons, Inc.--><path class="fa-secondary" opacity=".4" d="M64 137.2l0 116.7c0 121.4 90.4 180.3 147.2 205.3c15.4 6.8 23.1 10.2 44.8 10.2s29.4-3.4 44.8-10.2c56.7-25 147.2-83.9 147.2-205.3l0-116.7 0-.3c0-48.2 0-72.3-15.1-85.5c-7.1-6.2-15.9-8.6-28-8.6c-13.7 0-31.7 3.1-56.2 7.3l-22.5 3.9c-35 6-52.5 9.1-70.1 9.1s-35.2-3-70.1-9.1L163.4 50c-46.1-8-69.2-11.9-84.3 1.3S64 88.7 64 137.2zm58.7 50.4c0-2.5 .5-5 1.7-7.4c9.8-20.3 33.4-31.3 57-31.3s47.2 11 57 31.3c3.9 8.2 .7 18.1-7.2 22.2s-17.5 .8-21.5-7.4c-2.6-5.5-12.5-12.9-28.4-12.9s-25.7 7.5-28.4 12.9c-4 8.2-13.6 11.5-21.5 7.4c-5.6-2.9-8.9-8.8-8.9-14.8zm47.1 99.1c6-6.6 16.4-6.6 22.8-.5c.4 .3 1.4 1.1 2.2 1.7c2.1 1.5 5.7 3.8 10.8 6.1c10.1 4.6 26.6 9.7 50.5 9.7s40.4-5 50.5-9.7c5.1-2.3 8.7-4.6 10.8-6.1c1.1-.8 1.8-1.4 2.2-1.7c.2-.1 .3-.2 .3-.3c6.4-6.1 16.4-5.8 22.4 .7c6.1 6.6 5.8 17.1-.7 23.6l-.2 .2-.4 .4c-.3 .3-.8 .7-1.3 1.1c-1 .9-2.5 2-4.3 3.3c-3.7 2.6-9 5.9-16 9.1c-14.1 6.4-35 12.5-63.4 12.5s-49.2-6-63.4-12.5c-7-3.2-12.3-6.5-16-9.1c-1.8-1.3-3.3-2.5-4.3-3.3c-.5-.4-1.6-1.4-1.9-1.7c-6.4-6.3-6.8-16.9-.7-23.6zM273.7 180.2c9.8-20.3 33.4-31.3 57-31.3s47.2 11 57 31.3c1.1 2.4 1.7 4.9 1.7 7.4c0 6.1-3.2 11.9-8.9 14.8c-7.9 4.1-17.5 .8-21.5-7.4c-2.6-5.5-12.5-12.9-28.4-12.9s-25.7 7.5-28.4 12.9c-4 8.2-13.6 11.5-21.5 7.4s-11.1-14.1-7.2-22.2z"/><path class="fa-primary" d="M153 195c2.6-5.5 12.5-12.9 28.4-12.9s25.7 7.5 28.4 12.9c3.9 8.2 13.6 11.5 21.5 7.4s11.1-14.1 7.2-22.2c-9.8-20.3-33.4-31.3-57-31.3s-47.2 11-57 31.3c-3.9 8.2-.7 18.1 7.2 22.2s17.5 .8 21.5-7.4zm177.7-12.9c-15.9 0-25.7 7.5-28.4 12.9c-4 8.2-13.6 11.5-21.5 7.4s-11.1-14.1-7.2-22.2c9.8-20.3 33.4-31.3 57-31.3s47.2 11 57 31.3c3.9 8.2 .7 18.1-7.2 22.2s-17.5 .8-21.5-7.4c-2.6-5.5-12.5-12.9-28.4-12.9zM170.4 310.2c-6.4-6.3-6.8-16.9-.7-23.6c6-6.6 16.4-6.6 22.8-.5c.4 .3 1.4 1.1 2.2 1.7c2.1 1.5 5.7 3.8 10.8 6.1c10.1 4.6 26.6 9.7 50.5 9.7s40.4-5 50.5-9.7c5.1-2.3 8.7-4.6 10.8-6.1c1.1-.8 1.8-1.4 2.2-1.7c.2-.1 .3-.2 .3-.3l0 0c6.4-6.1 16.4-5.8 22.4 .7c6.1 6.6 5.8 17.1-.6 23.4l0 0 0 0-.1 .1-.2 .2-.4 .4c-.3 .3-.8 .7-1.3 1.1c-1 .9-2.5 2-4.3 3.3c-3.7 2.6-9 5.9-16 9.1c-14.1 6.4-35 12.5-63.4 12.5s-49.2-6-63.4-12.5c-7-3.2-12.3-6.5-16-9.1c-1.8-1.3-3.3-2.5-4.3-3.3c-.5-.4-1.6-1.4-1.8-1.6l0 0z"/></svg>