<svg xmlns="http://www.w3.org/2000/svg" viewBox="0 0 512 512"><!--!Font Awesome Pro 6.6.0 by @fontawesome - https://fontawesome.com License - https://fontawesome.com/license (Commercial License) Copyright 2024 Fonticons, Inc.--><path class="fa-secondary" opacity=".4" d="M256.1 126.3c18.4 10.5 38.7 30.8 68.7 60.9c3.8 3.8 7.5 7.5 10.9 10.9s6.8 6.9 10 10.1c6.3 6.5 12.1 12.4 17.2 18.1c10.2 11.2 17.9 21 23.1 30.2l1.9 1.9 2.4-2.4L423 222.7c30.9-31.4 46.3-47 46.3-66.5s-15.4-35.2-46.3-66.5s-46.3-47-65.5-47s-34.6 15.7-65.5 47l-36 36.6zm71.5-9.8l15.1-15.1c3.1-3.1 7.2-4.7 11.3-4.7s8.2 1.6 11.3 4.7c6.2 6.2 6.2 16.4 0 22.6l-15.1 15.1c-6.2 6.2-16.4 6.2-22.6 0s-6.2-16.4 0-22.6zm45.2 45.2L388 146.6c6.2-6.2 16.4-6.2 22.6 0c3.1 3.1 4.7 7.2 4.7 11.3s-1.6 8.2-4.7 11.3l-15.1 15.1c-6.2 6.2-16.4 6.2-22.6 0s-6.2-16.4 0-22.6z"/><path class="fa-primary" d="M42.7 301.7c0 28.8 23.1 51.9 69.4 98.2s69.4 69.4 98.2 69.4s51.9-23.1 98.2-69.4l16.4-16.4c46.3-46.3 69.4-69.4 69.4-98.2s-23.1-51.9-69.4-98.2s-69.4-69.4-98.2-69.4s-51.9 23.1-98.2 69.4l-16.4 16.4c-46.3 46.3-69.4 69.4-69.4 98.2zm80.8-11.3l98.2 98.2c6.2 6.2 6.2 16.4 0 22.6s-16.4 6.2-22.6 0L100.8 313c-6.2-6.2-6.2-16.4 0-22.6s16.4-6.2 22.6 0zM410.6 146.6c6.2 6.2 6.2 16.4 0 22.6l-15.1 15.1c-6.2 6.2-16.4 6.2-22.6 0s-6.2-16.4 0-22.6L388 146.6c6.2-6.2 16.4-6.2 22.6 0zm-45.3-45.2c6.2 6.2 6.2 16.4 0 22.6l-15.1 15.1c-6.2 6.2-16.4 6.2-22.6 0s-6.2-16.4 0-22.6l15.1-15.1c6.2-6.2 16.4-6.2 22.6 0z"/></svg>