<svg xmlns="http://www.w3.org/2000/svg" viewBox="0 0 512 512"><!--!Font Awesome Pro 6.6.0 by @fontawesome - https://fontawesome.com License - https://fontawesome.com/license (Commercial License) Copyright 2024 Fonticons, Inc.--><path d="M505.7 400.2l-44.9-67.4V102.4c0-28.2-23-51.2-51.2-51.2H102.4c-28.2 0-51.2 23-51.2 51.2v230.4L6.3 400.2C0 409.6 0 415.1 0 422.4v12.8c0 12.8 12.8 25.6 25.6 25.6h460.9c12.8 0 25.6-12.8 25.6-25.6v-12.8c0-7.3 0-12.8-6.3-22.2m-326.5 9.4l15.4-25.6h122.9l15.4 25.6zm230.4-102.4H102.4V102.4h307.2z"/></svg>