<svg xmlns="http://www.w3.org/2000/svg" viewBox="0 0 512 512"><!--!Font Awesome Pro 6.6.0 by @fontawesome - https://fontawesome.com License - https://fontawesome.com/license (Commercial License) Copyright 2024 Fonticons, Inc.--><path class="fa-secondary" opacity=".4" d="M42.7 426.7c0-8.8 7.2-16 16-16l154.7 0 3.1 0c-2 4.9-3.1 10.3-3.1 16s1.1 11.1 3.1 16l-3.1 0-154.7 0c-8.8 0-16-7.2-16-16zM240 320l32 0 0 64 0 3.1c-4.9-2-10.3-3.1-16-3.1s-11.1 1.1-16 3.1l0-3.1 0-64zm55.6 90.7l3.1 0 154.7 0c8.8 0 16 7.2 16 16s-7.2 16-16 16l-154.7 0-3.1 0c2-4.9 3.1-10.3 3.1-16s-1.1-11.1-3.1-16z"/><path class="fa-primary" d="M405.3 209.1l0-30.5c0-36.5 0-54.8-11.5-66.6c-1.1-1.1-2.2-2.1-3.4-3.1c-12.8-10.7-32.4-10.7-71.7-10.7l-5.6 0c-17.2 0-25.8 0-33.9-2.1c-4.4-1.2-8.7-2.8-12.7-4.9c-7.3-3.8-13.4-9.4-25.6-20.7l-8.2-7.6c-4.1-3.8-6.1-5.7-8.3-7.3C215.3 48.3 204 43.9 192 42.9c-2.8-.2-5.7-.2-11.4-.2c-13.2 0-19.8 0-25.3 1c-24.2 4.2-43.1 21.8-47.6 44.2c-1 5.1-1 11.2-1 23.5l0 97.8c0 52.3 0 78.4 17.5 94.7s45.7 16.2 102 16.2l13.9 0 32 0 13.9 0c56.3 0 84.5 0 102-16.2s17.5-42.4 17.5-94.7zM288 144l64 0c8.8 0 16 7.2 16 16s-7.2 16-16 16l-64 0c-8.8 0-16-7.2-16-16s7.2-16 16-16zM256 384a42.7 42.7 0 1 0 0 85.3 42.7 42.7 0 1 0 0-85.3z"/></svg>