<svg xmlns="http://www.w3.org/2000/svg" viewBox="0 0 512 512"><!--!Font Awesome Pro 6.6.0 by @fontawesome - https://fontawesome.com License - https://fontawesome.com/license (Commercial License) Copyright 2024 Fonticons, Inc.--><path class="fa-secondary" opacity=".4" d="M42.7 341.3c0 70.7 57.3 128 128 128c35.3 0 67.3-14.3 90.5-37.5c17-17 29.2-38.8 34.6-63.1c-8.7-5-16.9-11.2-24.4-18.7c-22.8-22.8-45.6-45.6-68.3-68.3c-13.7-13.7-27.3-27.3-41-41c-.9-.9-1.8-1.9-2.7-2.8s-1.8-1.9-2.6-2.9c-1.7-2-3.3-4-4.9-6c-3.1-4.1-5.9-8.3-8.4-12.7c-24.4 5.3-46.2 17.6-63.1 34.6C57 274 42.7 306 42.7 341.3z"/><path class="fa-primary" d="M213.6 279.7l-10.6 2-41-41c-45.3-45.3-45.3-118.7 0-164s118.7-45.3 164 0l41 41-2 10.6 0 .2c0 .2-.1 .6-.3 1.2c-.3 1.1-.8 2.9-1.5 5.2c-1.5 4.7-4 11.6-8.2 20.2c-8.3 17.2-23 41-48.3 66.4s-49.2 40-66.4 48.3c-8.6 4.1-15.6 6.7-20.2 8.2c-2.3 .7-4.1 1.2-5.2 1.5c-.6 .1-.9 .2-1.2 .3l-.2 0zM288.6 95.4c-6.2-6.2-16.4-6.2-22.6 0s-6.2 16.4 0 22.6l32 32c6.2 6.2 16.4 6.2 22.6 0s6.2-16.4 0-22.6l-32-32zM435.4 186l-41.7-41.7-.1 .2c-1.9 6-5 14.3-9.8 24.4c-9.7 20.1-26.4 47-54.5 75.1s-55 44.8-75.1 54.5c-10 4.8-18.4 7.9-24.4 9.8l-.2 0L271.3 350c45.3 45.3 118.7 45.3 164 0s45.3-118.7 0-164z"/></svg>