<svg xmlns="http://www.w3.org/2000/svg" viewBox="0 0 512 512"><!--!Font Awesome Pro 6.6.0 by @fontawesome - https://fontawesome.com License - https://fontawesome.com/license (Commercial License) Copyright 2024 Fonticons, Inc.--><path class="fa-secondary" opacity=".4" d="M26.7 224c0 38.3 31 69.3 69.3 69.3s69.3-31 69.3-69.3l0-117.2c14.9 10.8 32.6 15.9 48 15.9c8.8 0 16-7.2 16-16s-7.2-16-16-16c-9.7 0-22.1-3.8-31.8-11.8c-9.2-7.6-16.2-19.2-16.2-36.2c0-8.8-7.2-16-16-16s-16 7.2-16 16l0 122.9c-10.8-6.9-23.6-10.9-37.3-10.9c-38.3 0-69.3 31-69.3 69.3z"/><path class="fa-primary" d="M272 266.8l181.3-72.5V314.9C442.6 308 429.7 304 416 304c-38.3 0-69.3 31-69.3 69.3s31 69.3 69.3 69.3s69.3-31 69.3-69.3c0 0 0 0 0 0l0-203.8c0-24.4 0-44.8-1.7-61.1c-.2-2.3-.5-4.6-.8-6.7c-1.7-11.1-4.6-21.5-10.2-30.2c-2.8-4.3-6.3-8.2-10.7-11.6c-.8-.6-1.7-1.2-2.5-1.8l-.2-.1c-15.1-10-32-9.3-49.5-4.9c-16.9 4.3-37.8 13.1-63.5 23.8L301.4 95.6c-12 5-22.2 9.3-30.3 13.7c-8.5 4.7-15.9 10.3-21.4 18.5s-7.8 17.2-8.8 26.9c-1 9.1-1 20.2-1 33.2V357.6c-10.8-6.9-23.6-10.9-37.3-10.9c-38.3 0-69.3 31-69.3 69.3s31 69.3 69.3 69.3s69.3-31 69.3-69.3c0 0 0 0 0 0l0-149.2z"/></svg>