<svg xmlns="http://www.w3.org/2000/svg" viewBox="0 0 512 512"><!--!Font Awesome Pro 6.6.0 by @fontawesome - https://fontawesome.com License - https://fontawesome.com/license (Commercial License) Copyright 2024 Fonticons, Inc.--><path class="fa-secondary" opacity=".4" d="M208.6 448h94.8c66.6 0 99.9 0 123.8-15.4c10.4-6.7 19.2-15.2 26.2-25.2c16-23.1 16-55.2 16-119.4s0-96.3-16-119.4c-6.9-10-15.8-18.6-26.2-25.2C403.3 128 370 128 303.4 128H208.6c-66.6 0-99.9 0-123.8 15.4c-10.4 6.7-19.2 15.2-26.2 25.2c-16 23.1-16 55.1-16 119.3l0 0c0 64.2 0 96.3 16 119.4c6.9 10 15.8 18.6 26.2 25.2C108.7 448 142 448 208.6 448z"/><path class="fa-primary" d="M170.7 85.3c0-11.8 8.8-21.3 19.7-21.3l131.3 0c10.9 0 19.7 9.6 19.7 21.3s-8.8 21.3-19.7 21.3l-131.3 0c-10.9 0-19.7-9.6-19.7-21.3zM368.6 219.4c0-9.5 8-17.1 17.8-17.1l11.9 0c9.8 0 17.8 7.7 17.8 17.1s-8 17.1-17.8 17.1l-11.9 0c-9.8 0-17.8-7.7-17.8-17.1zM167.1 288c0-47.3 39.8-85.7 88.9-85.7s88.9 38.4 88.9 85.7s-39.8 85.7-88.9 85.7s-88.9-38.4-88.9-85.7zm35.6 0c0 28.4 23.9 51.4 53.3 51.4s53.3-23 53.3-51.4s-23.9-51.4-53.3-51.4s-53.3 23-53.3 51.4zm183.7-85.7c-9.8 0-17.8 7.7-17.8 17.1s8 17.1 17.8 17.1l11.9 0c9.8 0 17.8-7.7 17.8-17.1s-8-17.1-17.8-17.1l-11.9 0z"/></svg>