<svg xmlns="http://www.w3.org/2000/svg" viewBox="0 0 512 512"><!--!Font Awesome Pro 6.6.0 by @fontawesome - https://fontawesome.com License - https://fontawesome.com/license (Commercial License) Copyright 2024 Fonticons, Inc.--><path class="fa-secondary" opacity=".4" d="M42.7 213.3c0-58.9 47.8-106.7 106.7-106.7c5.3 0 10.6 .4 15.7 1.2c12.8-37.9 48.7-65.2 90.9-65.2s78.1 27.3 90.9 65.2c5.1-.8 10.4-1.2 15.7-1.2c58.9 0 106.7 47.8 106.7 106.7c0 43.7-26.3 81.3-64 97.8l0 72.9c0 40.2 0 60.3-12.5 72.8c-12.5 12.5-32.5 12.5-72.6 12.5l-.2 0-128 0c-40.2 0-60.3 0-72.8-12.5s-12.5-32.6-12.5-72.8l0-72.9c-37.7-16.5-64-54.1-64-97.8zM176 384c0 8.8 7.2 16 16 16l128 0c8.8 0 16-7.2 16-16s-7.2-16-16-16l-128 0c-8.8 0-16 7.2-16 16z"/><path class="fa-primary" d="M192 368c-8.8 0-16 7.2-16 16s7.2 16 16 16H320c8.8 0 16-7.2 16-16s-7.2-16-16-16H192z"/></svg>