<svg xmlns="http://www.w3.org/2000/svg" viewBox="0 0 512 512"><!--!Font Awesome Pro 6.6.0 by @fontawesome - https://fontawesome.com License - https://fontawesome.com/license (Commercial License) Copyright 2024 Fonticons, Inc.--><path class="fa-secondary" opacity=".4" d="M69.3 256c0-8.8 7.2-16 16-16L320 240c8.8 0 16 7.2 16 16s-7.2 16-16 16L85.3 272c-8.8 0-16-7.2-16-16zm0 106.7c0-8.8 7.2-16 16-16l106.7 0c8.8 0 16 7.2 16 16s-7.2 16-16 16l-106.7 0c-8.8 0-16-7.2-16-16z"/><path class="fa-primary" d="M69.3 149.3c0-8.8 7.2-16 16-16l341.3 0c8.8 0 16 7.2 16 16s-7.2 16-16 16l-341.3 0c-8.8 0-16-7.2-16-16z"/></svg>