<svg xmlns="http://www.w3.org/2000/svg" viewBox="0 0 512 512"><!--!Font Awesome Pro 6.6.0 by @fontawesome - https://fontawesome.com License - https://fontawesome.com/license (Commercial License) Copyright 2024 Fonticons, Inc.--><path class="fa-secondary" opacity=".4" d="M42.7 238a195.3 195.3 0 1 0 390.7 0A195.3 195.3 0 1 0 42.7 238zm128.5 0c0-8.5 6.9-15.4 15.4-15.4l102.8 0c8.5 0 15.4 6.9 15.4 15.4s-6.9 15.4-15.4 15.4l-102.8 0c-8.5 0-15.4-6.9-15.4-15.4z"/><path class="fa-primary" d="M171.2 238c0-8.5 6.9-15.4 15.4-15.4l102.8 0c8.5 0 15.4 6.9 15.4 15.4s-6.9 15.4-15.4 15.4l-102.8 0c-8.5 0-15.4-6.9-15.4-15.4zM401.9 401.9c6-6 15.8-6 21.8 0L464.8 443c6 6 6 15.8 0 21.8s-15.8 6-21.8 0l-41.1-41.1c-6-6-6-15.8 0-21.8z"/></svg>