<svg xmlns="http://www.w3.org/2000/svg" viewBox="0 0 512 512"><!--!Font Awesome Pro 6.6.0 by @fontawesome - https://fontawesome.com License - https://fontawesome.com/license (Commercial License) Copyright 2024 Fonticons, Inc.--><path class="fa-secondary" opacity=".4" d="M64 221.8l0 .4 0 33.6c0 120.3 90.4 178.6 147.2 203.4c15.4 6.7 23.1 10.1 44.8 10.1s29.4-3.4 44.8-10.1C357.6 434.5 448 376.1 448 255.8l0-33.6c0-68.2 0-102.3-8.1-113.8S399.8 86 335.7 64l-12.2-4.2C290 48.4 273.3 42.7 256 42.7s-34 5.7-67.5 17.2L176.3 64C112.2 86 80.1 97 72.1 108.4C64 119.9 64 153.9 64 221.8zm112 2.2c0-27.6 14.3-54.5 40-69.3c12.6-7.3 26.4-10.7 39.9-10.7c3.2 0 6.4 .2 9.6 .6c24.1 2.9 46.6 16.8 59.7 39.4c7.3 12.6 10.7 26.4 10.7 39.9c0 10.8-2.2 21.6-6.4 31.5c-6.6 15.4-18 28.9-33.6 37.9c-7.7 4.4-15.8 7.4-24 9.1l0 49.6c0 8.8-7.2 16-16 16s-16-7.2-16-16l0-49.6c-21.6-4.4-41.4-17.7-53.3-38.4c-7.3-12.6-10.7-26.3-10.7-39.9zM214.4 248a48 48 0 1 0 83.1-48 48 48 0 1 0 -83.1 48z"/><path class="fa-primary" d="M216 154.7c15.6-9 33-12.2 49.6-10.1c24.1 2.9 46.6 16.8 59.7 39.4s13.8 49.1 4.3 71.4c-6.6 15.4-18 28.9-33.6 37.9c-7.7 4.4-15.8 7.4-24 9.1l0 49.6c0 8.8-7.2 16-16 16s-16-7.2-16-16l0-49.6c-21.6-4.4-41.4-17.7-53.3-38.4c-22.1-38.3-9-87.2 29.3-109.3zm16 27.7a48 48 0 1 0 48 83.1 48 48 0 1 0 -48-83.1z"/></svg>