<svg xmlns="http://www.w3.org/2000/svg" viewBox="0 0 512 512"><!--!Font Awesome Pro 6.6.0 by @fontawesome - https://fontawesome.com License - https://fontawesome.com/license (Commercial License) Copyright 2024 Fonticons, Inc.--><path class="fa-secondary" opacity=".4" d="M42.7 315c0 49.9 40.9 90.4 91.4 90.4l70.1 0L224 393.9l-40-23.1c-7.7-4.4-10.3-14.2-5.9-21.9s14.2-10.3 21.9-5.9l40 23.1 0-46.2c0-8.8 7.2-16 16-16s16 7.2 16 16l0 46.2 40-23.1c7.7-4.4 17.4-1.8 21.9 5.9s1.8 17.4-5.9 21.9l-40 23.1 19.9 11.5 39.5 0c67.3 0 121.9-53.9 121.9-120.5c0-52.7-34.3-97.6-82-113.9c-6.8-60.2-58.4-107-121.1-107c-67.3 0-121.9 53.9-121.9 120.5c0 14.7 2.7 28.8 7.6 41.9c-5.7-1.1-11.7-1.7-17.7-1.7c-50.5 0-91.4 40.5-91.4 90.4z"/><path class="fa-primary" d="M256 304c8.8 0 16 7.2 16 16l0 46.2 40-23.1c7.7-4.4 17.4-1.8 21.9 5.9s1.8 17.4-5.9 21.9l-40 23.1L328 417c7.7 4.4 10.3 14.2 5.9 21.9s-14.2 10.3-21.9 5.9l-40-23.1 0 47.8c0 8.8-7.2 16-16 16s-16-7.2-16-16l0-47.8-40 23.1c-7.7 4.4-17.4 1.8-21.9-5.9s-1.8-17.4 5.9-21.9l40-23.1-40-23.1c-7.7-4.4-10.3-14.2-5.9-21.9s14.2-10.3 21.9-5.9l40 23.1 0-46.2c0-8.8 7.2-16 16-16z"/></svg>