<svg xmlns="http://www.w3.org/2000/svg" viewBox="0 0 512 512"><!--!Font Awesome Pro 6.6.0 by @fontawesome - https://fontawesome.com License - https://fontawesome.com/license (Commercial License) Copyright 2024 Fonticons, Inc.--><path class="fa-secondary" opacity=".4" d="M42.7 256c0 100.6 0 150.9 31.2 182.1s81.5 31.2 182.1 31.2s150.9 0 182.1-31.2c31.2-31.2 31.2-81.3 31.2-181.3l0-.8c0-100.6 0-150.8-31.2-182.1S356.6 42.7 256 42.7s-150.8 0-182.1 31.2S42.7 155.4 42.7 256zM80 192c0-5.2 2.5-10.2 7.1-13.3c7.4-4.9 17.3-2.9 22.2 4.4l29.4 44 29.4-44c3.1-4.6 8.2-7.1 13.3-7.1c3 0 6.1 .9 8.9 2.7c4.6 3 7.1 8 7.1 13.1c.1-5.1 2.6-10.1 7.1-13.1c7.4-4.9 17.3-2.9 22.2 4.4l29.4 44 29.4-44c3.1-4.6 8.2-7.1 13.3-7.1c3 0 6.1 .9 8.9 2.7c4.6 3 7.1 8 7.1 13.1c.1-5.1 2.6-10.1 7.1-13.1c7.4-4.9 17.3-2.9 22.2 4.4l29.4 44 29.4-44c3.1-4.6 8.2-7.1 13.3-7.1c3 0 6.1 .9 8.9 2.7c7.4 4.9 9.3 14.8 4.4 22.2L392.6 256l36.7 55.1c4.9 7.4 2.9 17.3-4.4 22.2c-2.7 1.8-5.8 2.7-8.9 2.7c-5.2 0-10.2-2.5-13.3-7.1l-29.4-44-29.4 44c-3.1 4.6-8.2 7.1-13.3 7.1c-3 0-6.1-.9-8.9-2.7c-4.6-3-7.1-8-7.1-13.1c-.1 5.1-2.6 10.1-7.1 13.1c-2.7 1.8-5.8 2.7-8.9 2.7c-5.2 0-10.2-2.5-13.3-7.1l-29.4-44-29.4 44c-3.1 4.6-8.2 7.1-13.3 7.1c-3.1 0-6.1-.9-8.9-2.7c-4.6-3-7.1-8-7.1-13.1c-.1 5.1-2.6 10.1-7.1 13.1c-2.7 1.8-5.8 2.7-8.9 2.7c-5.2 0-10.2-2.5-13.3-7.1l-29.4-44-29.4 44c-3.1 4.6-8.2 7.1-13.3 7.1c-3 0-6.1-.9-8.9-2.7c-4.6-3.1-7.1-8.2-7.1-13.3c0-3 .9-6.1 2.7-8.9L119.4 256 82.7 200.9c-1.8-2.7-2.7-5.8-2.7-8.9zm77.9 64l36.7 55.1c1.8 2.7 2.6 5.7 2.7 8.6c0-3 .9-6 2.7-8.6L236.8 256 200 200.9c-1.8-2.7-2.6-5.7-2.7-8.6c0 3-.9 6-2.7 8.6L157.9 256zm117.3 0L312 311.1c1.8 2.7 2.6 5.7 2.7 8.6c0-3 .9-6 2.7-8.6L354.1 256l-36.8-55.1c-1.8-2.7-2.6-5.7-2.7-8.6c0 3-.9 6-2.7 8.6L275.2 256z"/><path class="fa-primary" d="M87.1 178.7c7.4-4.9 17.3-2.9 22.2 4.4l29.4 44 29.4-44c4.9-7.4 14.8-9.3 22.2-4.4c4.6 3 7.1 8 7.1 13.1c.1-5.1 2.6-10.1 7.1-13.1c7.4-4.9 17.3-2.9 22.2 4.4l29.4 44 29.4-44c4.9-7.4 14.8-9.3 22.2-4.4c4.6 3 7.1 8 7.1 13.1c.1-5.1 2.6-10.1 7.1-13.1c7.4-4.9 17.3-2.9 22.2 4.4l29.4 44 29.4-44c4.9-7.4 14.8-9.3 22.2-4.4s9.3 14.8 4.4 22.2L392.6 256l36.7 55.1c4.9 7.4 2.9 17.3-4.4 22.2s-17.3 2.9-22.2-4.4l-29.4-44-29.4 44c-4.9 7.4-14.8 9.3-22.2 4.4c-4.6-3-7.1-8-7.1-13.1c-.1 5.1-2.6 10.1-7.1 13.1c-7.4 4.9-17.3 2.9-22.2-4.4l-29.4-44-29.4 44c-4.9 7.4-14.8 9.3-22.2 4.4c-4.6-3-7.1-8-7.1-13.1c-.1 5.1-2.6 10.1-7.1 13.1c-7.4 4.9-17.3 2.9-22.2-4.4l-29.4-44-29.4 44c-4.9 7.4-14.8 9.3-22.2 4.4s-9.3-14.8-4.4-22.2L119.4 256 82.7 200.9c-4.9-7.4-2.9-17.3 4.4-22.2zM312 200.9L275.2 256 312 311.1c1.8 2.7 2.6 5.7 2.7 8.6c0-3 .9-6 2.7-8.6L354.1 256l-36.8-55.1c-1.8-2.7-2.6-5.7-2.7-8.6c0 3-.9 6-2.7 8.6zM157.9 256l36.7 55.1c1.8 2.7 2.6 5.7 2.7 8.6c0-3 .9-6 2.7-8.6L236.8 256 200 200.9c-1.8-2.7-2.6-5.7-2.7-8.6c0 3-.9 6-2.7 8.6L157.9 256z"/></svg>