<svg xmlns="http://www.w3.org/2000/svg" viewBox="0 0 512 512"><!--!Font Awesome Pro 6.6.0 by @fontawesome - https://fontawesome.com License - https://fontawesome.com/license (Commercial License) Copyright 2024 Fonticons, Inc.--><path class="fa-secondary" opacity=".4" d="M42.7 256c0 100.6 0 150.9 31.2 182.1s81.5 31.2 182.1 31.2s150.9 0 182.1-31.2s31.2-81.5 31.2-182.1l0-.8c0-100.1-.1-150.2-31.2-181.3C406.9 42.7 356.6 42.7 256 42.7s-150.8 0-182.1 31.2S42.7 155.4 42.7 256zm112 0c0-4.2 1.7-8.3 4.7-11.3l64-64c3.1-3.1 7.2-4.7 11.3-4.7s8.2 1.6 11.3 4.7c6.2 6.2 6.2 16.4 0 22.6L209.3 240l132 0c8.8 0 16 7.2 16 16s-7.2 16-16 16l-132 0L246 308.7c6.2 6.2 6.2 16.4 0 22.6c-3.1 3.1-7.2 4.7-11.3 4.7s-8.2-1.6-11.3-4.7l-64-64c-3-3-4.7-7.1-4.7-11.3z"/><path class="fa-primary" d="M341.3 240c8.8 0 16 7.2 16 16s-7.2 16-16 16h-132L246 308.7c6.2 6.2 6.2 16.4 0 22.6s-16.4 6.2-22.6 0l-64-64c-3-3-4.7-7.1-4.7-11.3s1.7-8.3 4.7-11.3l64-64c6.2-6.2 16.4-6.2 22.6 0s6.2 16.4 0 22.6L209.3 240h132z"/></svg>