<svg xmlns="http://www.w3.org/2000/svg" viewBox="0 0 512 512"><!--!Font Awesome Pro 6.6.0 by @fontawesome - https://fontawesome.com License - https://fontawesome.com/license (Commercial License) Copyright 2024 Fonticons, Inc.--><path class="fa-secondary" opacity=".4" d="M42.7 256c0 8.5 1.9 17.1 5.7 25c3.3 6.8 8.8 13.4 19.9 26.4c4.4 5.2 6.6 7.8 8.5 10.6c4.3 6.4 7.2 13.5 8.7 21c.6 3.3 .9 6.7 1.5 13.5c1.4 17.1 2 25.6 4.6 32.8c5.8 16.5 18.8 29.5 35.3 35.3c7.1 2.5 15.7 3.2 32.8 4.6c6.8 .5 10.2 .8 13.5 1.5c7.5 1.5 14.7 4.4 21 8.7c2.8 1.9 5.4 4.1 10.6 8.5c13.1 11.1 19.6 16.7 26.4 19.9c7.9 3.8 16.4 5.7 25 5.7s17.1-1.9 25-5.7c6.8-3.3 13.4-8.8 26.4-19.9c5.2-4.4 7.8-6.6 10.6-8.5c6.4-4.3 13.5-7.2 21-8.7c3.3-.6 6.7-.9 13.5-1.5c17.1-1.4 25.6-2 32.8-4.6c16.5-5.8 29.5-18.8 35.3-35.3c2.5-7.1 3.2-15.7 4.6-32.8c.5-6.8 .8-10.2 1.5-13.5c1.5-7.5 4.4-14.7 8.7-21c1.9-2.8 4.1-5.4 8.5-10.6c11.1-13.1 16.7-19.6 19.9-26.4c3.8-7.9 5.7-16.4 5.7-25s-1.9-17.1-5.7-25c-3.3-6.8-8.8-13.4-19.9-26.4c-4.4-5.2-6.6-7.8-8.5-10.6c-4.3-6.4-7.2-13.5-8.7-21c-.6-3.3-.9-6.7-1.5-13.5c-1.4-17.1-2-25.6-4.6-32.8c-5.8-16.5-18.8-29.5-35.3-35.3c-7.1-2.5-15.7-3.2-32.8-4.6c-6.8-.5-10.2-.8-13.5-1.5c-7.5-1.5-14.7-4.4-21-8.7c-2.8-1.9-5.4-4.1-10.6-8.5C294.3 57.1 287.8 51.6 281 48.3c-7.9-3.8-16.4-5.7-25-5.7s-17.1 1.9-25 5.7c-6.8 3.3-13.4 8.8-26.4 19.9c-5.2 4.4-7.8 6.6-10.6 8.5c-6.4 4.3-13.5 7.2-21 8.7c-3.3 .6-6.7 .9-13.5 1.5c-17.1 1.4-25.6 2-32.8 4.6c-16.5 5.8-29.5 18.8-35.3 35.3c-2.5 7.1-3.2 15.7-4.6 32.8c-.5 6.8-.8 10.2-1.5 13.5c-1.5 7.5-4.4 14.7-8.7 21c-1.9 2.8-4.1 5.4-8.5 10.6C57.1 217.7 51.6 224.2 48.3 231c-3.8 7.9-5.7 16.4-5.7 25zm114.9 11.6c0-4.4 1.7-8.9 5.1-12.3c6.8-6.8 17.8-6.8 24.6 0l34 34L324.7 185.9c3.4-3.4 7.8-5.1 12.3-5.1s8.9 1.7 12.3 5.1s5.1 7.8 5.1 12.3s-1.7 8.9-5.1 12.3L233.6 326.2c-3.4 3.4-7.8 5.1-12.3 5.1s-8.9-1.7-12.3-5.1l-46.3-46.3c-3.4-3.4-5.1-7.8-5.1-12.3z"/><path class="fa-primary" d="M349.3 210.4c6.8-6.8 6.8-17.8 0-24.6s-17.8-6.8-24.6 0L221.3 289.3l-34-34c-6.8-6.8-17.8-6.8-24.6 0s-6.8 17.8 0 24.6L209 326.2c6.8 6.8 17.8 6.8 24.6 0L349.3 210.4z"/></svg>