<svg xmlns="http://www.w3.org/2000/svg" viewBox="0 0 512 512"><!--!Font Awesome Pro 6.6.0 by @fontawesome - https://fontawesome.com License - https://fontawesome.com/license (Commercial License) Copyright 2024 Fonticons, Inc.--><path class="fa-secondary" opacity=".4" d="M26.7 256c0 8.8 7.2 16 16 16l64 0 0-32-64 0c-8.8 0-16 7.2-16 16zm186.7-16l0 32 85.3 0 0-32-85.3 0zm192 0l0 32 64 0c8.8 0 16-7.2 16-16s-7.2-16-16-16l-64 0z"/><path class="fa-primary" d="M298.7 202.7l0 37.3 0 32 0 37.3c0 19.9 0 29.9 4.3 37.3c2.8 4.9 6.8 8.9 11.7 11.7c7.4 4.3 17.4 4.3 37.3 4.3s29.9 0 37.3-4.3c4.9-2.8 8.9-6.8 11.7-11.7c4.3-7.4 4.3-17.4 4.3-37.3l0-37.3 0-32 0-37.3c0-19.9 0-29.9-4.3-37.3c-2.8-4.9-6.8-8.9-11.7-11.7c-7.4-4.3-17.4-4.3-37.3-4.3s-29.9 0-37.3 4.3c-4.9 2.8-8.9 6.8-11.7 11.7c-4.3 7.4-4.3 17.4-4.3 37.3zM160 106.7c-19.9 0-29.9 0-37.3 4.3c-4.9 2.8-8.9 6.8-11.7 11.7c-4.3 7.4-4.3 17.4-4.3 37.3l0 80v32l0 80c0 19.9 0 29.9 4.3 37.3c2.8 4.9 6.8 8.9 11.7 11.7c7.4 4.3 17.4 4.3 37.3 4.3s29.9 0 37.3-4.3c4.9-2.8 8.9-6.8 11.7-11.7c4.3-7.4 4.3-17.4 4.3-37.3V272l0-32V160c0-19.9 0-29.9-4.3-37.3c-2.8-4.9-6.8-8.9-11.7-11.7c-7.4-4.3-17.4-4.3-37.3-4.3z"/></svg>