<svg xmlns="http://www.w3.org/2000/svg" viewBox="0 0 512 512"><!--!Font Awesome Pro 6.6.0 by @fontawesome - https://fontawesome.com License - https://fontawesome.com/license (Commercial License) Copyright 2024 Fonticons, Inc.--><path class="fa-secondary" opacity=".4" d="M42.7 256c0 80.5 0 120.7 25 145.7c24.9 24.9 65.1 25 145.2 25l.5 0 85.3 0c80.5 0 120.7 0 145.7-25c24.9-24.9 25-65.1 25-145.2l0-.5c0-80.5 0-120.7-25-145.7c-24.9-24.9-65.1-25-145.2-25l-.5 0-85.3 0c-80.5 0-120.7 0-145.7 25s-25 65.2-25 145.7zM192 256a21.3 21.3 0 1 1 -42.7 0 21.3 21.3 0 1 1 42.7 0zm85.3 0a21.3 21.3 0 1 1 -42.7 0 21.3 21.3 0 1 1 42.7 0zm85.3 0A21.3 21.3 0 1 1 320 256a21.3 21.3 0 1 1 42.7 0z"/><path class="fa-primary" d="M170.7 277.3a21.3 21.3 0 1 0 0-42.7 21.3 21.3 0 1 0 0 42.7zm64-21.3a21.3 21.3 0 1 1 42.7 0 21.3 21.3 0 1 1 -42.7 0zm106.7 21.3a21.3 21.3 0 1 0 0-42.7 21.3 21.3 0 1 0 0 42.7z"/></svg>