<svg xmlns="http://www.w3.org/2000/svg" viewBox="0 0 512 512"><!--!Font Awesome Pro 6.6.0 by @fontawesome - https://fontawesome.com License - https://fontawesome.com/license (Commercial License) Copyright 2024 Fonticons, Inc.--><path class="fa-secondary" opacity=".4" d="M339.7 335.4c0 5.5 3 10.7 8.2 13.3c7.3 3.7 16.2 .7 19.8-6.7c.1-.1 .1-.2 .1-.2l.2-.4c.2-.4 .4-.9 .7-1.5c.6-1.3 1.4-3.1 2.4-5.5c2-4.6 4.6-11.2 7.2-19.1c5.2-15.6 10.6-37.2 10.6-59.3s-5.4-43.7-10.6-59.3c-2.6-7.9-5.2-14.5-7.2-19.1c-1-2.3-1.8-4.2-2.4-5.5c-.3-.6-.5-1.2-.7-1.5l-.2-.4c-.1-.2-.1-.2-.1-.2c-3.6-7.4-12.5-10.3-19.8-6.7s-10.3 12.6-6.6 20l.1 .3c.1 .2 .3 .6 .5 1.1c.5 1 1.2 2.6 2 4.6c1.7 4 4 9.8 6.3 16.8c4.7 14.1 9.1 32.3 9.1 49.9s-4.4 35.7-9.1 49.9c-2.3 7-4.6 12.8-6.3 16.8c-.9 2-1.6 3.6-2 4.6c-.2 .5-.4 .9-.5 1.1l-.1 .3c-1.1 2.2-1.6 4.4-1.6 6.7zm43.4-208.1c.3 .3 .6 .7 1 1.2c.8 1 2.1 2.7 3.7 5.1c3.2 4.7 7.7 12.2 12.2 22.5c9 20.7 18.4 53.4 18.4 99.9s-9.4 79.2-18.4 99.9c-4.5 10.4-9 17.8-12.2 22.5c-1.6 2.4-2.9 4-3.7 5.1c-.4 .5-.7 .9-.9 1c-5.7 6.1-5.4 15.5 .4 21.1c5.9 5.7 15.3 5.4 20.9-.5c.2-.2 .2-.2 .3-.3c.1-.1 .3-.3 .5-.6c.4-.5 1-1.1 1.6-1.9c1.3-1.6 3.1-4 5.2-7c4.2-6.1 9.6-15.2 14.9-27.4C437.7 343.5 448 306.7 448 256s-10.3-87.5-20.9-111.9c-5.3-12.2-10.7-21.2-14.9-27.4c-2.1-3.1-3.9-5.4-5.2-7c-.7-.8-1.2-1.5-1.6-1.9c-.2-.2-.4-.4-.5-.6l-.2-.2c-5.7-6.1-15.1-6.3-21-.6c-5.9 5.6-6.1 15-.6 21z"/><path class="fa-primary" d="M202.9 256.1l87.4 62.6c10.6 7.6 19.9 14.3 26.4 20.5c6.9 6.7 13.1 15.2 13.1 26.8s-6.2 20.1-13.1 26.8c-6.5 6.3-15.8 12.9-26.4 20.5l-36.1 25.8c-14.4 10.3-26.5 19-36.6 24.1c-10.2 5.3-22.7 9.2-35.3 2.8c-12.5-6.5-16.6-19-18.3-30.5c-1.6-11.2-1.6-26.2-1.6-43.8l0-107.1L87.2 337.7c-6.7 4.7-15.9 3.1-20.6-3.7s-3.1-16 3.6-20.7L151.5 256 70.3 198.7c-6.7-4.7-8.3-14-3.6-20.7s13.9-8.4 20.6-3.7l75.2 53.1 0-107.1c0-17.7 0-32.6 1.6-43.8c1.7-11.4 5.8-24 18.3-30.5c12.5-6.4 25-2.5 35.3 2.8c10.1 5.2 22.2 13.9 36.6 24.1l36.1 25.8c10.6 7.6 19.9 14.3 26.4 20.5c6.9 6.7 13.1 15.2 13.1 26.8s-6.2 20.1-13.1 26.8c-6.5 6.3-15.8 12.9-26.4 20.5l-87.5 62.6 .1 .1-.1 .1z"/></svg>