<svg xmlns="http://www.w3.org/2000/svg" viewBox="0 0 512 512"><!--!Font Awesome Pro 6.6.0 by @fontawesome - https://fontawesome.com License - https://fontawesome.com/license (Commercial License) Copyright 2024 Fonticons, Inc.--><path class="fa-secondary" opacity=".4" d="M80.1 254.4c0 .5-.1 1-.1 1.6c0-.5 0-1 .1-1.6zm.2-1.6c.2-.9 .5-2 .9-2.9c-.2 .5-.4 1-.5 1.4c-.2 .5-.3 1-.4 1.5zm38.3 3.2l16 16 174.7 0c15.2 0 38.4 4.7 57.3 18.3c18.1 13 33.3 34.9 33.3 72.3c0 8.8 7.2 16 16 16s16-7.2 16-16c0-47.9-20.3-79.4-46.7-98.3c-25.5-18.4-55.7-24.3-76-24.3l-174.7 0-16 16z"/><path class="fa-primary" d="M214 138c-6.2-6.2-16.4-6.2-22.6 0L84.7 244.7c-6.2 6.2-6.2 16.4 0 22.6L191.4 374c6.2 6.2 16.4 6.2 22.6 0s6.2-16.4 0-22.6L118.6 256 214 160.6c6.2-6.2 6.2-16.4 0-22.6z"/></svg>