<svg xmlns="http://www.w3.org/2000/svg" viewBox="0 0 512 512"><!--!Font Awesome Pro 6.6.0 by @fontawesome - https://fontawesome.com License - https://fontawesome.com/license (Commercial License) Copyright 2024 Fonticons, Inc.--><path class="fa-secondary" opacity=".4" d="M80 59.1c0 9.1 7.2 16.4 16 16.4l320 0c8.8 0 16-7.3 16-16.4s-7.2-16.4-16-16.4l-320 0c-8.8 0-16 7.3-16 16.4zm0 393.8c0 9.1 7.2 16.4 16 16.4l320 0c8.8 0 16-7.3 16-16.4s-7.2-16.4-16-16.4l-320 0c-8.8 0-16 7.3-16 16.4z"/><path class="fa-primary" d="M341.3 124.7c60.3 0 90.5 0 109.3 19.2s18.7 50.2 18.7 112.1s0 92.8-18.7 112.1s-48.9 19.2-109.3 19.2l-170.7 0c-60.3 0-90.5 0-109.3-19.2S42.7 317.9 42.7 256s0-92.8 18.7-112.1s48.9-19.2 109.3-19.2l170.7 0z"/></svg>