<svg xmlns="http://www.w3.org/2000/svg" viewBox="0 0 512 512"><!--!Font Awesome Pro 6.6.0 by @fontawesome - https://fontawesome.com License - https://fontawesome.com/license (Commercial License) Copyright 2024 Fonticons, Inc.--><path class="fa-secondary" opacity=".4" d="M85.3 256c0 6.2 .3 12.3 1 18.3c.7 4.7 1.6 10 2.6 15.1c.8 4.3 1.7 8.4 2.4 11.5c6.5 23.8 18 45.6 33.3 64.1c2.5-.4 5.1-.9 7.7-1.4c43.1-8.5 98.4-28.8 155.3-59.1C344.4 274 391 240 420.5 210c-6.6-23.3-18-44.6-33-62.8c-.1 0-.2 0-.3 .1c-9.1-8.8-18.2-17.7-27.2-26.5c-28.8-22.1-64.8-35.3-104-35.3C161.7 85.3 85.3 161.7 85.3 256zm67.2 135.8c28.7 21.9 64.6 34.9 103.4 34.9c94.3 0 170.7-76.4 170.7-170.7c0-2.6-.1-5.1-.2-7.7c-31.6 28.4-74.4 57.9-123.9 84.2c-53.2 28.3-105.8 48.7-150 59.2z"/><path class="fa-primary" d="M377.9 116.3c22.3-4.1 42.8-5.5 59.7-3.3c16.4 2.2 32.8 8.4 41.7 22.7c9.5 15.2 6.7 32.9-.3 48.2c-7 15.5-19.6 32-35.7 48.4c-32.3 33-81.8 68.8-140.7 100.2c-58.9 31.4-117.2 53-164.1 62.3c-23.4 4.6-44.8 6.4-62.4 4.3C59 397.1 42 391 32.7 376.2c-10-16.1-6.3-34.8 1.5-50.8c8-16.4 22-33.8 39.9-51.3l11.2-9.3c0 4.7 1.8 15.1 3.6 24.4c.9 4.9 1.9 9.5 2.6 12.7C77.6 316.2 68.1 329 63 339.5c-5.9 12.1-4.4 17.6-3.1 19.7c1.6 2.5 6.5 6.5 20 8.1c13 1.5 30.7 .4 52.4-3.9c43.1-8.5 98.4-28.8 155.3-59.1C344.4 274 391 240 420.5 210c14.8-15.1 24.5-28.5 29.4-39.2c5-11 3.6-16 2.3-18c-1.5-2.4-6.2-6.3-18.9-8c-11.5-1.6-27.1-.9-46.1 2.4l-27.2-26.5c7.2-2.2 14-3.6 18-4.3z"/></svg>