<svg xmlns="http://www.w3.org/2000/svg" viewBox="0 0 512 512"><!--!Font Awesome Pro 6.6.0 by @fontawesome - https://fontawesome.com License - https://fontawesome.com/license (Commercial License) Copyright 2024 Fonticons, Inc.--><path class="fa-secondary" opacity=".4" d="M29.8 325.1c7.1 18.5 25.5 32.2 49.2 32.2l49.2 0c.3-13.6 1.3-23.9 3.9-32l-53.1 0c-10.7 0-17.1-5.8-19.3-11.7c-2.1-5.6-1.2-12.3 6.2-17.5L217.2 189.7c10-7.1 22.3-10.8 34.7-10.9c12.6-.1 25 3.4 35.3 10.3L445.8 296c7.6 5.1 8.7 11.9 6.6 17.5c-2.2 5.9-8.5 11.8-19.4 11.8l-53.1 0c2.6 8.1 3.6 18.4 3.9 32l49.2 0c24 0 42.5-14 49.4-32.7c7-19 1.6-41.5-18.7-55.2L305.1 162.5c-10.5-7.1-22.3-11.8-34.4-14.1c1.1-1.7 2.5-3.7 4.4-5.9c2.7-3.2 5.8-6.4 9.4-9.9l1.6-1.6c3-3 6.3-6.2 9.3-9.5c9.4-10.3 14.7-23.8 14.7-38.3c0-32.9-29.1-56.7-61.3-56.7s-61.3 23.8-61.3 56.7c0 8.8 7.2 16 16 16s16-7.2 16-16c0-12.1 11.5-24.7 29.3-24.7s29.3 12.6 29.3 24.7c0 6.7-2.4 12.4-6.3 16.6c-2.4 2.6-5.1 5.2-8.1 8.2L262 110c-3.6 3.6-7.6 7.6-11.3 11.9c-5.7 6.7-11.8 15.4-14 26.2c-13.4 2.3-26.4 7.4-37.8 15.4L47.4 270c-19.8 13.9-24.9 36.3-17.7 55.1z"/><path class="fa-primary" d="M128 384c0-40.2 0-60.3 12.5-72.8s32.6-12.5 72.8-12.5h85.3c40.2 0 60.3 0 72.8 12.5S384 343.8 384 384s0 60.3-12.5 72.8s-32.6 12.5-72.8 12.5H213.3c-40.2 0-60.3 0-72.8-12.5S128 424.2 128 384z"/></svg>