<svg xmlns="http://www.w3.org/2000/svg" viewBox="0 0 512 512"><!--!Font Awesome Pro 6.6.0 by @fontawesome - https://fontawesome.com License - https://fontawesome.com/license (Commercial License) Copyright 2024 Fonticons, Inc.--><path class="fa-secondary" opacity=".4" d="M42.7 298.7c0-80.5 0-120.7 25-145.7c24.9-24.9 65.1-25 145.2-25l.5 0 85.3 0c80.5 0 120.7 0 145.7 25c24.9 24.9 25 65.1 25 145.2l0 .5c0 80.5 0 120.7-25 145.7c-24.9 24.9-65.1 25-145.2 25l-.5 0-85.3 0c-80.5 0-120.7 0-145.7-25s-25-65.2-25-145.7zm64 42.7c0 35.3 28.7 64 64 64s64-28.7 64-64c0-29.8-20.4-54.9-48-62l0 40.7c0 8.8-7.2 16-16 16s-16-7.2-16-16l0-40.7c-27.6 7.1-48 32.2-48 62zM112 202.7c0 8.8 7.2 16 16 16l256 0c8.8 0 16-7.2 16-16s-7.2-16-16-16l-256 0c-8.8 0-16 7.2-16 16zm184.1 93.4c-25 25-25 65.5 0 90.5s65.5 25 90.5 0c12.5-12.5 18.7-28.9 18.7-45.3c0-11.3-3-22.5-8.9-32.5l-28.7 28.7c-6.2 6.2-16.4 6.2-22.6 0s-6.2-16.4 0-22.6l28.8-28.7c-24.5-14.5-56.7-11.2-77.8 9.9z"/><path class="fa-primary" d="M112 202.7c0-8.8 7.2-16 16-16l256 0c8.8 0 16 7.2 16 16s-7.2 16-16 16l-256 0c-8.8 0-16-7.2-16-16zm142.9-176l2.2 0c19.2 0 35.2 0 47.8 1.7c13.4 1.8 25.5 5.8 35.2 15.5s13.7 21.8 15.5 35.2c1.7 12.7 1.7 28.7 1.7 47.8l0 1.1-32 0c0-20.6 0-34.4-1.4-44.7c-1.3-9.8-3.6-14.1-6.4-16.8s-7-5.1-16.8-6.4c-10.3-1.4-24.1-1.4-44.7-1.4s-34.4 0-44.7 1.4c-9.8 1.3-14.1 3.6-16.8 6.4s-5.1 7-6.4 16.8c-1.4 10.3-1.4 24.1-1.4 44.7l-32 0 0-1.1c0-19.2 0-35.2 1.7-47.8c1.8-13.4 5.8-25.5 15.5-35.2s21.8-13.7 35.2-15.5c12.7-1.7 28.7-1.7 47.8-1.7zM154.7 279.4c-27.6 7.1-48 32.2-48 62c0 35.3 28.7 64 64 64s64-28.7 64-64c0-29.8-20.4-54.9-48-62V320c0 8.8-7.2 16-16 16s-16-7.2-16-16V279.4zM296.1 386.6c25 25 65.5 25 90.5 0c21.1-21.1 24.4-53.2 9.9-77.8l-28.7 28.7c-6.2 6.2-16.4 6.2-22.6 0s-6.2-16.4 0-22.6l28.8-28.7c-24.5-14.5-56.7-11.2-77.8 9.9c-25 25-25 65.5 0 90.5z"/></svg>