<svg xmlns="http://www.w3.org/2000/svg" viewBox="0 0 512 512"><!--!Font Awesome Pro 6.6.0 by @fontawesome - https://fontawesome.com License - https://fontawesome.com/license (Commercial License) Copyright 2024 Fonticons, Inc.--><path class="fa-secondary" opacity=".4" d="M42.7 256c0 12.6 7.1 25.1 21.2 31.4l102.9 45.9c1.4 .6 2.9 .9 4.3 .9c3.9 0 7.7-2.2 9.5-5.9l86.9-173.9c3.7-7.5-2.1-15.5-9.5-15.5c-1.4 0-2.9 .3-4.4 1L63.8 224.6c-14.1 6.3-21.2 18.9-21.2 31.4z"/><path class="fa-primary" d="M210.3 340.5c-2.7 5.4-.4 12 5.2 14.5L416 444.5c31.9 14.2 65-17.4 49.2-47L398 271.6c-5.2-9.8-5.2-21.3 0-31.1l67.2-125.9c15.8-29.6-17.3-61.2-49.2-47L340.8 101c-9 4-16.4 11.1-20.8 19.9L210.3 340.5z"/></svg>