<svg xmlns="http://www.w3.org/2000/svg" viewBox="0 0 512 512"><!--!Font Awesome Pro 6.6.0 by @fontawesome - https://fontawesome.com License - https://fontawesome.com/license (Commercial License) Copyright 2024 Fonticons, Inc.--><path class="fa-secondary" opacity=".4" d="M42.7 187.7c0 37.1 14.2 74.2 42.5 102.5c18.2 18.2 36.5 36.5 54.7 54.7c3.5-.7 7-1.4 10.6-2l.3-.1c.3-.1 .8-.2 1.6-.4c1.5-.4 3.7-1 6.7-1.9c6-1.9 14.9-5.2 25.8-10.4c21.8-10.5 52-29.1 84-61.1s50.6-62.2 61.1-84c5.3-10.9 8.5-19.8 10.4-25.8c1-3 1.6-5.3 1.9-6.7c.2-.7 .3-1.3 .4-1.6l.1-.3 2-10.6c-18.2-18.2-36.5-36.5-54.7-54.7c-28.3-28.3-65.4-42.5-102.5-42.5s-74.2 14.2-102.5 42.5s-42.5 65.4-42.5 102.5zM166.6 371.6c18.4 18.4 36.8 36.8 55.3 55.3c28.3 28.3 65.4 42.5 102.5 42.5s74.2-14.2 102.5-42.5s42.5-65.4 42.5-102.5s-14.2-74.2-42.5-102.5c-18.4-18.4-36.8-36.8-55.3-55.3c-.2 .7-.4 1.4-.7 2.2c-2.3 7.3-6.1 17.6-12.1 30c-11.9 24.8-32.5 58-67.3 92.8s-68 55.4-92.8 67.3c-12.4 6-22.6 9.8-30 12.1c-.8 .2-1.5 .5-2.2 .7z"/><path class="fa-primary" d="M166.6 371.6l-26.7-26.7 10.6-2s0 0 0 0l.3-.1c.3-.1 .8-.2 1.6-.4c1.5-.4 3.7-1 6.7-1.9c6-1.9 14.9-5.2 25.8-10.4c21.8-10.5 52-29.1 84-61.1s50.6-62.2 61.1-84c5.3-10.9 8.5-19.8 10.4-25.8c1-3 1.6-5.3 1.9-6.7c.2-.7 .3-1.3 .4-1.6l.1-.3c0 0 0 0 0 0l2-10.6 26.7 26.7c-.2 .7-.4 1.4-.7 2.2c-2.3 7.3-6.1 17.6-12.1 30c-11.9 24.8-32.5 58-67.3 92.8s-68 55.4-92.8 67.3c-12.4 6-22.6 9.8-30 12.1c-.8 .2-1.5 .5-2.2 .7z"/></svg>