<svg xmlns="http://www.w3.org/2000/svg" viewBox="0 0 512 512"><!--!Font Awesome Pro 6.6.0 by @fontawesome - https://fontawesome.com License - https://fontawesome.com/license (Commercial License) Copyright 2024 Fonticons, Inc.--><path class="fa-secondary" opacity=".4" d="M42.7 256c0-66.6 30.6-126.1 78.4-165.3c54.4 58.7 108.8 117.4 163.3 176.1c4.5 4.8 11.4 6.4 17.6 4s10.2-8.3 10.2-14.9l0-96c0-8.8-7.2-16-16-16s-16 7.2-16 16l0 55.2c-44.2-47.7-88.3-95.3-132.5-143C179.3 53.5 216.4 42.7 256 42.7c117.8 0 213.3 95.5 213.3 213.3c0 66.7-30.6 126.2-78.5 165.3C334.6 362.5 278.5 303.7 222.3 245c-4.5-4.7-11.5-6.2-17.5-3.8s-10 8.3-10 14.9l0 96c0 8.8 7.2 16 16 16s16-7.2 16-16l0-56.1c45.9 48 91.7 96 137.5 143.9c-31.7 18.7-68.7 29.5-108.3 29.5C138.2 469.3 42.7 373.8 42.7 256z"/><path class="fa-primary" d="M280.1 160v55.2L147.6 72.3c-9.3 5.5-18.2 11.7-26.5 18.5L284.3 266.9c4.5 4.8 11.4 6.4 17.6 4s10.2-8.3 10.2-14.9V160c0-8.8-7.2-16-16-16s-16 7.2-16 16zM222.3 245c-4.5-4.7-11.5-6.2-17.5-3.8s-10 8.3-10 14.9v96c0 8.8 7.2 16 16 16s16-7.2 16-16V295.9L364.3 439.9c9.3-5.5 18.2-11.7 26.6-18.5L222.3 245z"/></svg>