<svg xmlns="http://www.w3.org/2000/svg" viewBox="0 0 512 512"><!--!Font Awesome Pro 6.6.0 by @fontawesome - https://fontawesome.com License - https://fontawesome.com/license (Commercial License) Copyright 2024 Fonticons, Inc.--><path class="fa-secondary" opacity=".4" d="M42.7 256c0-100.6 0-150.8 31.2-182.1S155.4 42.7 256 42.7c32.8 0 60.2 0 83.4 1.1c.6 8.3 7.5 14.9 16 14.9l61.5 0c3.1 1.5 6 3.2 8.8 5.1L272 217.4l0-46.7c0-8.8-7.2-16-16-16s-16 7.2-16 16l0 85.3c0 8.8 7.2 16 16 16l85.3 0c8.8 0 16-7.2 16-16s-7.2-16-16-16l-46.7 0L448.3 86.4c1.8 2.8 3.5 5.7 5.1 8.8l0 61.5c0 8.5 6.6 15.4 14.9 15.9c1.1 23 1.1 50.2 1.1 82.6l0 .8c0 100.6 0 150.9-31.2 182.1s-81.5 31.2-182.1 31.2s-150.8 0-182.1-31.2S42.7 356.6 42.7 256z"/><path class="fa-primary" d="M355.3 58.7c-8.8 0-16-7.2-16-16s7.2-16 16-16l114 0c8.8 0 16 7.2 16 16l0 114c0 8.8-7.2 16-16 16s-16-7.2-16-16l0-75.4L294.6 240l46.7 0c8.8 0 16 7.2 16 16s-7.2 16-16 16L256 272c-8.8 0-16-7.2-16-16l0-85.3c0-8.8 7.2-16 16-16s16 7.2 16 16l0 46.7L430.7 58.7l-75.4 0z"/></svg>