<svg xmlns="http://www.w3.org/2000/svg" viewBox="0 0 512 512"><!--!Font Awesome Pro 6.6.0 by @fontawesome - https://fontawesome.com License - https://fontawesome.com/license (Commercial License) Copyright 2024 Fonticons, Inc.--><path class="fa-secondary" opacity=".4" d="M42.7 293.2c0 17.4 14.4 31.5 43.1 59.5l76.1 74.4c28.7 28.1 43.1 42.1 60.9 42.1c17.4 0 31.4-13.3 58.7-39.9C215.3 363.2 149.1 297 82.9 230.9c-2.9 7.1-9.2 14-21.7 27.5c-12.4 13.4-18.5 23.4-18.5 34.9z"/><path class="fa-primary" d="M283.7 427.2L428.3 285.8c54.7-53.4 54.7-140.1 0-193.5s-143.3-53.4-197.9 0l-9.9 9.7c-8.9-34.7-35.6-59.8-66.6-59.3C116.1 43.2 86 81.4 86.8 128l-.7 71.3c-.2 16.1-.2 24.2-3.1 31.4l-.1 .2L281.5 429.4l2.2-2.2z"/></svg>