<svg xmlns="http://www.w3.org/2000/svg" viewBox="0 0 512 512"><!--!Font Awesome Pro 6.6.0 by @fontawesome - https://fontawesome.com License - https://fontawesome.com/license (Commercial License) Copyright 2024 Fonticons, Inc.--><path class="fa-secondary" opacity=".4" d="M201.1 445.1C244.9 312 288.7 179 332.5 45.9c4.6-2.2 9.6-3.3 14.6-3.3c5.2 0 10.4 1.2 15.1 3.6c12.5 6.4 30.2 16.1 42.4 24.9c3.2 2.3 6.6 4.9 10 7.7c22.4 18.5 33.5 27.7 33.5 42.5s-12.7 24.9-37.9 45.3l-4.4 3.6c-11.8 9.5-17.7 14.3-20.8 20.7s-3.1 13.7-3.1 28.3l0 112.3c0 15 0 22.4-2.6 29.3s-7.5 12.8-17.5 24.4l-50.8 59.8c-10.1 11.9-15.2 17.9-22.2 21s-15.1 3.2-31.3 3.2l-2.7 0c-16.2 0-24.3 0-31.3-3.2c-7-3.2-12.1-9.1-22.2-21z"/><path class="fa-primary" d="M150.3 385.3l50.8 59.8L332.5 45.9l-5.6 2.7c-1.5 .7-2.7 1.7-3.7 3c-32 45.1-102.4 45.1-134.3 0c-.9-1.3-2.2-2.3-3.7-3l-5.6-2.7c-9.4-4.4-20.5-4.4-29.7 .4c-12.5 6.4-30.2 16.1-42.4 24.9c-3.2 2.3-6.6 4.9-10 7.7C75.1 97.4 63.9 106.7 64 121.4s12.7 24.9 37.9 45.3l4.4 3.6c11.8 9.5 17.7 14.3 20.8 20.7s3.1 13.7 3.1 28.3l0 112.3c0 15 0 22.4 2.6 29.3s7.5 12.8 17.5 24.4z"/></svg>