<svg xmlns="http://www.w3.org/2000/svg" viewBox="0 0 512 512"><!--!Font Awesome Pro 6.6.0 by @fontawesome - https://fontawesome.com License - https://fontawesome.com/license (Commercial License) Copyright 2024 Fonticons, Inc.--><path class="fa-secondary" opacity=".4" d="M52.4 398.6c-7.3 7.3-17.6 26.2 0 43.7l18.8 18.7c7.3 6.2 25.7 15 40.8 0l21.9-21.9c21.9 21.9 47 9.4 56.4-3.1c15.7-21.9-3.1-43.7-3.1-43.7l6.3-6.2c30.1 30 56.4 12.5 65.8 0c15.7-21.9 0-43.7 0-43.7c-1.8-3.7-4.2-6.3-6.3-8.5c-4.9-5.3-7.9-8.6 3.2-19.6L275 295.6c15 12.5 46 15.6 59.6 15.6c74.5 0 134.8-60.1 134.8-134.3s-60.4-134.3-134.8-134.3s-134.8 60.1-134.8 134.3c0 34.3 15.7 59.3 15.7 59.3L52.4 398.6zM381.6 176.9a47 47 0 1 1 -94.1 0 47 47 0 1 1 94.1 0z"/><path class="fa-primary" d="M287.5 176.9a47 47 0 1 1 94.1 0 47 47 0 1 1 -94.1 0z"/></svg>