<svg xmlns="http://www.w3.org/2000/svg" viewBox="0 0 512 512"><!--!Font Awesome Pro 6.6.0 by @fontawesome - https://fontawesome.com License - https://fontawesome.com/license (Commercial License) Copyright 2024 Fonticons, Inc.--><path class="fa-secondary" opacity=".4" d="M42.7 224l0 21.3c0 49.7 0 74.6 8.1 94.2c10.8 26.1 31.6 46.9 57.7 57.7c14.1 5.8 30.9 7.5 57.7 7.9c18.1 .3 27.2 .5 34.4 4.7s11.7 11.8 20.7 26.9l11.6 19.5C238 465 247 469.3 256 469.3s18-4.4 23.2-13.1l11.6-19.5c9-15.2 13.5-22.7 20.7-26.9s16.3-4.3 34.4-4.7c26.8-.5 43.6-2.1 57.7-7.9c26.1-10.8 46.9-31.6 57.7-57.7c8.1-19.6 8.1-44.5 8.1-94.2l0-21.3c0-17.2 0-32.2-.2-45.6c-17 15.1-39.3 24.2-63.8 24.2c-53 0-96-43-96-96c0-24.5 9.2-46.8 24.2-63.8c-13.3-.2-28.4-.2-45.6-.2l-64 0c-69.8 0-104.7 0-130.4 15.7C79.2 67.2 67.2 79.2 58.4 93.6C42.7 119.3 42.7 154.2 42.7 224z"/><path class="fa-primary" d="M341.3 106.7a64 64 0 1 1 128 0 64 64 0 1 1 -128 0z"/></svg>