<svg xmlns="http://www.w3.org/2000/svg" viewBox="0 0 512 512"><!--!Font Awesome Pro 6.6.0 by @fontawesome - https://fontawesome.com License - https://fontawesome.com/license (Commercial License) Copyright 2024 Fonticons, Inc.--><path class="fa-secondary" opacity=".4" d="M122.3 94.1l0 35.2c14.5-.6 31.8-.6 52.8-.6c18.1 0 36.2 0 54.3 0c.1 0 .2 0 .3 0c59 0 88.6 0 110.3 13.3c12.2 7.4 22.4 17.7 29.9 29.9c1.7 2.8 3.2 5.7 4.4 8.7s2.3 6.1 3.3 9.5c1.9 6.8 3.1 14.3 3.9 23.1c.8 8.8 1.3 18.7 1.5 30.2c.2 11.5 .2 24.4 .2 39.2l0 18.1 0 .3c0 15.4 0 28-.3 38.6l35.2 0c2.3-.7 4.8-1.7 7.9-2.9c.6-.2 1.3-.5 1.9-.7c24.9-10.3 44.8-30.1 55.1-55.1c4.2-10.2 6-21.1 6.9-33.8c.8-12.4 .8-27.7 .8-46.9l0-18.5c0-27.1 0-48.6-1.6-65.8c-1.7-17.7-5.2-32.6-13.4-45.9c-8.4-13.7-19.9-25.2-33.6-33.6c-13.3-8.2-28.3-11.7-45.9-13.4c-17.2-1.6-38.7-1.6-65.8-1.6l-52.6 0-.8 0c-26.6 0-47.9 0-64.9 1.6c-17.7 1.7-32.6 5.2-45.9 13.4c-13.7 8.4-25.2 19.9-33.6 33.6c-3.1 5-5.5 10.2-7.4 15.8c-1.1 3.3-2.1 6-2.8 8.4z"/><path class="fa-primary" d="M221.9 479.6l5.9-9.9c9.4-15.9 14.1-23.8 21.6-28.3s17.3-4.7 36.8-5.4c18.3-.6 30.6-2.2 41.2-6.5c22.2-9.2 39.8-26.8 49-49c6.9-16.6 6.9-37.7 6.9-79.9l0-18.1c0-59.2 0-88.8-13.3-110.6c-7.5-12.2-17.7-22.4-29.9-29.9c-21.8-13.3-51.4-13.3-110.6-13.3l-54.3 0c-59.2 0-88.8 0-110.6 13.3c-12.2 7.5-22.4 17.7-29.9 29.9c-13.3 21.8-13.3 51.4-13.3 110.6l0 18.1c0 42.2 0 63.2 6.9 79.9c9.2 22.2 26.8 39.8 49 49c10.5 4.4 22.8 6 41.2 6.5c19.5 .6 29.3 .9 36.8 5.4s12.2 12.4 21.6 28.3l5.9 9.9c8.7 14.8 30.6 14.8 39.3 0zm59.5-215.1a22.6 22.6 0 1 1 0 45.2 22.6 22.6 0 1 1 0-45.2zM179.7 287.1a22.6 22.6 0 1 1 45.2 0 22.6 22.6 0 1 1 -45.2 0zm-56.5-22.6a22.6 22.6 0 1 1 0 45.2 22.6 22.6 0 1 1 0-45.2z"/></svg>