<svg xmlns="http://www.w3.org/2000/svg" viewBox="0 0 512 512"><!--!Font Awesome Pro 6.6.0 by @fontawesome - https://fontawesome.com License - https://fontawesome.com/license (Commercial License) Copyright 2024 Fonticons, Inc.--><path class="fa-secondary" opacity=".4" d="M138.7 352c0 64.8 52.5 117.3 117.3 117.3s117.3-52.5 117.3-117.3c0-37-17.2-70.1-44-91.6c-5.6-4.5-9.4-11.1-9.4-18.3l0-135.4c0-35.3-28.7-64-64-64s-64 28.7-64 64l0 135.4c0 7.2-3.7 13.8-9.4 18.3c-26.8 21.5-44 54.5-44 91.6zm64 0c0-18.3 9.2-34.5 23.3-44.1c7.7-5.3 14-13.2 14-22.5l0-178.8c0-8.8 7.2-16 16-16s16 7.2 16 16l0 178.8c0 9.3 6.3 17.2 14 22.5c14.1 9.6 23.3 25.8 23.3 44.1c0 29.5-23.9 53.3-53.3 53.3s-53.3-23.9-53.3-53.3z"/><path class="fa-primary" d="M272 106.7c0-8.8-7.2-16-16-16s-16 7.2-16 16V285.4c0 9.3-6.3 17.2-14 22.5c-14.1 9.6-23.3 25.8-23.3 44.1c0 29.5 23.9 53.3 53.3 53.3s53.3-23.9 53.3-53.3c0-18.3-9.2-34.5-23.3-44.1c-7.7-5.3-14-13.2-14-22.5V106.7z"/></svg>