<svg xmlns="http://www.w3.org/2000/svg" viewBox="0 0 512 512"><!--!Font Awesome Pro 6.6.0 by @fontawesome - https://fontawesome.com License - https://fontawesome.com/license (Commercial License) Copyright 2024 Fonticons, Inc.--><path class="fa-secondary" opacity=".4" d="M106.7 205.6c0 62.8 1.4 83.5 19.8 103c18.5 19.5 48.1 19.5 107.4 19.5l.3 0 113.1 0c33.3 0 50 0 61.7-9.6s15.1-25.9 21.9-58.5l10.7-51.7 .5-2.6c-111.8 0-223.6 0-335.4 0z"/><path class="fa-primary" d="M64.9 48.9c-8.3-2.9-17.5 1.5-20.4 9.8s1.5 17.5 9.8 20.4l5.6 2c14.2 5 23.6 8.3 30.5 11.7c6.5 3.2 9.3 5.7 11.2 8.5c1.9 2.8 3.4 6.7 4.3 14.4c.9 8.1 .9 18.7 .9 34.5l0 55.5 335.4 0c7.1-35.4 10.4-53.3 1.1-65.3C433.8 128 401.4 128 365.5 128l-226.9 0c-.1-5.8-.4-11-.9-15.8c-1.1-10.6-3.6-20.2-9.6-29.1c-6.1-8.9-14.1-14.6-23.5-19.2c-8.8-4.3-20-8.2-33.1-12.9l-6.4-2.3zM160 448a32 32 0 1 1 0-64 32 32 0 1 1 0 64zm192 0a32 32 0 1 1 0-64 32 32 0 1 1 0 64z"/></svg>