<svg xmlns="http://www.w3.org/2000/svg" viewBox="0 0 512 512"><!--!Font Awesome Pro 6.6.0 by @fontawesome - https://fontawesome.com License - https://fontawesome.com/license (Commercial License) Copyright 2024 Fonticons, Inc.--><path class="fa-secondary" opacity=".4" d="M170.7 167.1c0 49.1 38.2 88.9 85.3 88.9s85.3-39.8 85.3-88.9c0-30.7-33.4-71.7-58.4-98.1c-7.4-7.8-17.2-11.7-26.9-11.7s-19.5 3.9-26.9 11.7c-25 26.4-58.4 67.4-58.4 98.1zm128 213.3c0 49.1 38.2 88.9 85.3 88.9s85.3-39.8 85.3-88.9c0-30.7-33.4-71.7-58.4-98.1c-14.8-15.6-39-15.6-53.8 0c-25 26.4-58.4 67.4-58.4 98.1z"/><path class="fa-primary" d="M213.3 380.4c0 49.1-38.2 88.9-85.3 88.9s-85.3-39.8-85.3-88.9c0-30.7 33.4-71.7 58.4-98.1c14.8-15.6 39-15.6 53.8 0c25 26.4 58.4 67.4 58.4 98.1z"/></svg>