<svg xmlns="http://www.w3.org/2000/svg" viewBox="0 0 512 512"><!--!Font Awesome Pro 6.6.0 by @fontawesome - https://fontawesome.com License - https://fontawesome.com/license (Commercial License) Copyright 2024 Fonticons, Inc.--><path class="fa-secondary" opacity=".4" d="M42.7 293.2c0 17.4 14.4 31.5 43.1 59.5l76.1 74.4c28.7 28.1 43.1 42.1 60.9 42.1s32.2-14 60.9-42.1L428.3 285.8c54.7-53.4 54.7-140.1 0-193.5s-143.3-53.4-197.9 0l-9.9 9.7c-8.9-34.7-35.6-59.8-66.6-59.3C116.1 43.2 86 81.4 86.8 128l-.7 71.3c-.2 16.1-.2 24.2-3.1 31.4s-9.2 14-21.8 27.7c-12.4 13.4-18.5 23.4-18.5 34.9zm84.9-18.6c3.1-3.2 7.3-4.8 11.4-4.8c4 0 8.1 1.5 11.2 4.6l91.4 89.3c3.2 3.1 4.8 7.3 4.8 11.4c0 4-1.5 8.1-4.6 11.2c-6.2 6.3-16.3 6.4-22.6 .3l-91.4-89.3c-6.3-6.2-6.4-16.3-.3-22.6z"/><path class="fa-primary" d="M150.2 274.4c-6.3-6.2-16.4-6.1-22.6 .3s-6.1 16.4 .3 22.6l91.4 89.3c6.3 6.2 16.4 6.1 22.6-.3s6.1-16.4-.3-22.6l-91.4-89.3z"/></svg>