<svg xmlns="http://www.w3.org/2000/svg" viewBox="0 0 512 512"><!--!Font Awesome Pro 6.6.0 by @fontawesome - https://fontawesome.com License - https://fontawesome.com/license (Commercial License) Copyright 2024 Fonticons, Inc.--><path class="fa-secondary" opacity=".4" d="M42.7 256c0 100.6 0 150.9 31.2 182.1s81.5 31.2 182.1 31.2s150.9 0 182.1-31.2c31.2-31.2 31.2-81.3 31.2-181.3l0-.8c0-100.6 0-150.8-31.2-182.1S356.6 42.7 256 42.7s-150.8 0-182.1 31.2S42.7 155.4 42.7 256zM128 245.1c0-7.9 4.6-16 13.6-19.5l195.5-74.9c13.2-5.1 25.5 4.4 25.5 16.8c0 2.3-.4 4.8-1.4 7.3L286.4 370.4c-6.8 17.7-31.6 18.3-36.9 .9l-22.5-74.2c-1.8-5.8-6.2-10.2-11.9-11.9l-74.2-22.5c-8.5-2.6-12.8-9.9-12.8-17.4z"/><path class="fa-primary" d="M286.4 370.4l74.9-195.5c6-15.7-8.4-30.1-24.1-24.1L141.6 225.6c-17.7 6.8-18.3 31.6-.9 36.9l74.2 22.5c5.8 1.8 10.2 6.2 11.9 11.9l22.5 74.2c5.3 17.4 30.1 16.9 36.9-.9z"/></svg>