<svg xmlns="http://www.w3.org/2000/svg" viewBox="0 0 512 512"><!--!Font Awesome Pro 6.6.0 by @fontawesome - https://fontawesome.com License - https://fontawesome.com/license (Commercial License) Copyright 2024 Fonticons, Inc.--><path class="fa-secondary" opacity=".4" d="M37.3 384.4c0-4.1 1.6-8.2 4.7-11.3c6.2-6.2 16.4-6.2 22.6 0l66.2 66.2c6.2 6.2 6.2 16.4 0 22.6c-3.1 3.1-7.2 4.7-11.3 4.7s-8.2-1.6-11.3-4.7L42 395.7c-3.1-3.1-4.7-7.2-4.7-11.3zM178.2 259.5c27.1-27.1 54.2-54.2 81.3-81.3c22.1 22.1 44.1 44.1 66.2 66.2l-81.3 81.3c-22.1-22.1-44.1-44.1-66.2-66.2zM373.1 42c3.1-3.1 7.2-4.7 11.3-4.7s8.2 1.6 11.3 4.7l66.2 66.2c3.1 3.1 4.7 7.2 4.7 11.3s-1.6 8.2-4.7 11.3c-6.2 6.2-16.4 6.2-22.6 0L373.1 64.6c-6.2-6.2-6.2-16.4 0-22.6z"/><path class="fa-primary" d="M73.2 333.2L178.8 438.8c19.3 19.3 28.9 28.9 40.7 30.3c2.6 .3 5.3 .3 7.9 0c11.8-1.4 21.4-11 40.7-30.3s28.9-28.9 30.3-40.7c.3-2.6 .3-5.3 0-7.9c-1.4-11.8-11-21.4-30.3-40.7l-23.7-23.7-66.2-66.2-15.6-15.6c-19.3-19.3-28.9-28.9-40.7-30.3c-2.6-.3-5.3-.3-7.9 0c-11.8 1.4-21.4 11-40.7 30.3s-28.9 28.9-30.3 40.7c-.3 2.6-.3 5.3 0 7.9c1.4 11.8 11 21.4 30.3 40.7zm186.3-155l66.2 66.2 23.7 23.7c19.3 19.3 28.9 28.9 40.7 30.3c2.6 .3 5.3 .3 7.9 0c11.8-1.4 21.4-11 40.7-30.3s28.9-28.9 30.3-40.7c.3-2.6 .3-5.3 0-7.9c-1.4-11.8-11-21.4-30.3-40.7L333.2 73.2c-19.3-19.3-28.9-28.9-40.7-30.3c-2.6-.3-5.3-.3-7.9 0c-11.8 1.4-21.4 11-40.7 30.3s-28.9 28.9-30.3 40.7c-.3 2.6-.3 5.3 0 7.9c1.4 11.8 11 21.4 30.3 40.7l15.6 15.6z"/></svg>