<svg xmlns="http://www.w3.org/2000/svg" viewBox="0 0 512 512"><!--!Font Awesome Pro 6.6.0 by @fontawesome - https://fontawesome.com License - https://fontawesome.com/license (Commercial License) Copyright 2024 Fonticons, Inc.--><path class="fa-secondary" opacity=".4" d="M64 258.1c0-47.5 29.1-87.7 69.3-102.6c10.1-3.7 20.8-5.9 32-6.2c29.1-.7 61 11.4 90.7 41.2c29.6-29.8 61.5-41.9 90.7-41.2c11.2 .3 21.9 2.4 32 6.1c40.2 14.9 69.3 55.1 69.3 102.6c0 81.9-63.3 129.1-117.2 169.3c-5.6 4.2-11.1 8.3-16.4 12.3c-19.9 15.2-39.1 29.5-58.3 29.5s-38.4-14.3-58.3-29.5c-5.3-4.1-10.8-8.2-16.4-12.3C127.3 387.2 64 340 64 258.1zM240 256l0 53.3c0 8.8 7.2 16 16 16s16-7.2 16-16l0-53.3c0-8.8-7.2-16-16-16s-16 7.2-16 16z"/><path class="fa-primary" d="M256 240c8.8 0 16 7.2 16 16v53.3c0 8.8-7.2 16-16 16s-16-7.2-16-16V256c0-8.8 7.2-16 16-16zm-90.7-90.7c0-32.1 9.5-54.2 24.3-68.3c14.9-14.2 37.1-22.4 66.4-22.4s51.5 8.2 66.4 22.4c14.8 14.1 24.3 36.2 24.3 68.3v0c11.2 .3 21.9 2.4 32 6.1v-6.2c0-38.6-11.7-69.9-34.2-91.4C322.1 36.5 291 26.7 256 26.7s-66.1 9.8-88.5 31.3c-22.5 21.5-34.2 52.8-34.2 91.4v6.2c10.1-3.7 20.8-5.9 32-6.1v0z"/></svg>