<svg xmlns="http://www.w3.org/2000/svg" viewBox="0 0 512 512"><!--!Font Awesome Pro 6.6.0 by @fontawesome - https://fontawesome.com License - https://fontawesome.com/license (Commercial License) Copyright 2024 Fonticons, Inc.--><path class="fa-secondary" opacity=".4" d="M44.4 383c-4.6 15.3 0 31.7 13.9 40c21 12.6 58 30 113.2 39.4c24.5 4.2 52.6 6.9 84.5 6.9s60-2.7 84.5-6.9c55.2-9.5 92.2-26.8 113.2-39.4c10.5-6.3 15.7-17.1 15.7-28.6c0-3.8-.6-7.7-1.7-11.5c-26.7-88.6-53.4-177.1-80.1-265.7l-88.8 0-85.3 0-88.8 0C97.8 205.9 71.1 294.5 44.4 383z"/><path class="fa-primary" d="M343.7 42.7H168.4c-20.7 0-31 0-37.4 6.2s-6.4 16.3-6.4 36.4v32h88.8 85.3 88.8v-32c0-20.1 0-30.2-6.4-36.4s-16.7-6.2-37.4-6.2z"/></svg>