<svg xmlns="http://www.w3.org/2000/svg" viewBox="0 0 512 512"><!--!Font Awesome Pro 6.5.2 by @fontawesome - https://fontawesome.com License - https://fontawesome.com/license (Commercial License) Copyright 2024 Fonticons, Inc.--><path d="M279.2 456.3l13.8 8.1zm11.6-19.5l-13.8-8.1zm-69.5 0l-13.8 8.1zm11.6 19.5l13.8-8.1zm-182-116.8l14.8-6.1zm115.4 65.7l-.3 16zm-57.7-7.9l-6.1 14.8zm352.7-57.7l14.8 6.1zm-115.4 65.7l-.3-16zm57.7-7.9l6.1 14.8zm14.9-338.8L410 72zm35.2 35.2l13.7-8.3zM93.6 58.4l-8.4-13.7zM58.4 93.6l-13.7-8.3zM200.6 409.8l8-13.8zm92.4 54.6l11.5-19.5L277 428.6l-11.6 19.5zm-85.5-19.5l11.6 19.5 27.5-16.3L235 428.6zm57.9 3.2a11.1 11.1 0 0 1 -18.8 0l-27.5 16.3c16.5 27.9 57.4 27.9 73.9 0zM224 58.7h64v-32h-64zM453.3 224v21.3h32V224zM58.7 245.3V224h-32v21.3zm-32 0c0 24.6 0 43.9 1.1 59.5c1.1 15.7 3.3 28.7 8.3 40.8l29.6-12.2c-3.1-7.5-5-16.7-5.9-30.7c-1-14.2-1-32.2-1-57.3zm139.8 143.8c-26.8-.5-40.8-2.2-51.8-6.7L102.4 412c17.2 7.1 36.7 8.7 63.5 9.2zM36 345.6A122.7 122.7 0 0 0 102.4 412l12.2-29.6a90.7 90.7 0 0 1 -49.1-49.1zm417.3-100.3c0 25.1 0 43.1-1 57.3c-1 14.1-2.8 23.2-5.9 30.7l29.5 12.2c5-12.1 7.2-25.1 8.3-40.8c1.1-15.6 1-34.8 1-59.5zM346.1 421.1c26.8-.4 46.3-2 63.5-9.2l-12.2-29.6c-11 4.6-25 6.3-51.8 6.7zm100.4-87.8a90.7 90.7 0 0 1 -49.1 49.1l12.2 29.6a122.7 122.7 0 0 0 66.4-66.4zM288 58.7c35.2 0 60.5 0 80.3 1.9C387.8 62.4 400.1 66 410 72l16.7-27.3c-15.8-9.6-33.6-14-55.5-16c-21.6-2-48.7-2-83.3-2zM485.3 224c0-34.6 0-61.7-2-83.3c-2.1-21.8-6.4-39.7-16-55.5L440 102c6.1 9.9 9.6 22.3 11.5 41.8c1.9 19.7 1.9 45 1.9 80.2zM410 72a90.7 90.7 0 0 1 30 29.9l27.3-16.7a122.7 122.7 0 0 0 -40.5-40.5zM224 26.7c-34.6 0-61.7 0-83.3 2c-21.8 2.1-39.7 6.4-55.5 16L102 72c9.9-6.1 22.3-9.6 41.8-11.5c19.7-1.9 45-1.9 80.2-1.9zM58.7 224c0-35.2 0-60.5 1.9-80.3C62.4 124.2 66 111.9 72 102L44.7 85.2c-9.6 15.7-14 33.6-16 55.5c-2 21.6-2 48.7-2 83.3zM85.2 44.7A122.7 122.7 0 0 0 44.7 85.2L72 102A90.7 90.7 0 0 1 102 72zM235 428.6c-4.3-7.3-8.1-13.8-11.8-18.9A47.6 47.6 0 0 0 208.6 396l-16.1 27.7c1 .6 2.4 1.7 4.8 4.9c2.6 3.5 5.5 8.4 10.2 16.3zm-69.1-7.4c9.4 .2 15.3 .3 19.8 .8c4.2 .5 5.9 1.2 6.8 1.7l16.1-27.7a47.9 47.9 0 0 0 -19.4-5.8c-6.4-.7-14-.8-22.8-1zm138.6 23.7c4.7-7.8 7.6-12.8 10.2-16.3c2.4-3.3 3.8-4.4 4.8-4.9L303.4 396c-6.2 3.6-10.7 8.4-14.5 13.8c-3.7 5.1-7.5 11.5-11.8 18.9zm41-55.7c-8.8 .1-16.4 .3-22.8 1c-6.6 .7-13.1 2.2-19.4 5.8l16.1 27.7c1-.6 2.6-1.2 6.8-1.7c4.5-.5 10.5-.6 19.8-.8z"/></svg>