<svg xmlns="http://www.w3.org/2000/svg" viewBox="0 0 512 512"><!--!Font Awesome Pro 6.6.0 by @fontawesome - https://fontawesome.com License - https://fontawesome.com/license (Commercial License) Copyright 2024 Fonticons, Inc.--><path class="fa-secondary" opacity=".4" d="M42.7 256c0-100.6 0-150.8 31.2-182.1S155.4 42.7 256 42.7s150.9 0 182.1 31.2c31.2 31.2 31.2 81.3 31.2 181.3l0 .8c0 100.6 0 150.9-31.2 182.1s-81.5 31.2-182.1 31.2c-55.8 0-96.1 0-126.3-5.3l62.3 0c8.8 0 16-7.2 16-16s-7.2-16-16-16l-89.4 0L246 288.6c3.1-3.1 4.7-7.2 4.7-11.3s-1.6-8.2-4.7-11.3s-7.2-4.7-11.3-4.7s-8.2 1.6-11.3 4.7L80 409.4 80 320c0-8.8-7.2-16-16-16s-16 7.2-16 16l0 62.3c-5.3-30.2-5.3-70.5-5.3-126.3z"/><path class="fa-primary" d="M208 448c0 8.8-7.2 16-16 16L64 464c-8.8 0-16-7.2-16-16l0-128c0-8.8 7.2-16 16-16s16 7.2 16 16l0 89.4L223.4 266c6.2-6.2 16.4-6.2 22.6 0s6.2 16.4 0 22.6L102.6 432l89.4 0c8.8 0 16 7.2 16 16z"/></svg>