<svg xmlns="http://www.w3.org/2000/svg" viewBox="0 0 512 512"><!--!Font Awesome Pro 6.6.0 by @fontawesome - https://fontawesome.com License - https://fontawesome.com/license (Commercial License) Copyright 2024 Fonticons, Inc.--><path class="fa-secondary" opacity=".4" d="M64 222.2c0-68.2 0-102.3 8.1-113.8S112.2 86 176.3 64l12.2-4.2C222 48.4 238.7 42.7 256 42.7s34 5.7 67.5 17.2L335.7 64c64.1 22 96.2 32.9 104.3 44.4c8 11.5 8.1 45.5 8.1 113.5l0 .3 0 33.6c0 120.3-90.4 178.6-147.2 203.4c-15.4 6.7-23.1 10.1-44.8 10.1s-29.4-3.4-44.8-10.1C154.4 434.5 64 376.1 64 255.8l0-33.6zm90.7 24.2c0 3.3 1 6.7 3.2 9.6c5.3 7.1 15.3 8.5 22.4 3.2l72.5-54.4c1.9-1.4 4.5-1.4 6.4 0l72.5 54.4c7.1 5.3 17.1 3.9 22.4-3.2c2.2-2.9 3.2-6.2 3.2-9.6c0-4.9-2.2-9.7-6.4-12.8l-72.5-54.4c-13.3-10-31.5-10-44.8 0l-72.5 54.4c-4.2 3.1-6.4 7.9-6.4 12.8zm45.9 62.9c5.3 7.1 15.3 8.5 22.4 3.2L256 287.7l33.1 24.8c7.1 5.3 17.1 3.9 22.4-3.2s3.9-17.1-3.2-22.4l-42.7-32c-5.7-4.3-13.5-4.3-19.2 0l-42.7 32c-7.1 5.3-8.5 15.3-3.2 22.4z"/><path class="fa-primary" d="M233.6 179.2c13.3-10 31.5-10 44.8 0l72.5 54.4c7.1 5.3 8.5 15.3 3.2 22.4s-15.3 8.5-22.4 3.2l-72.5-54.4c-1.9-1.4-4.5-1.4-6.4 0l-72.5 54.4c-7.1 5.3-17.1 3.9-22.4-3.2s-3.9-17.1 3.2-22.4l72.5-54.4zm12.8 75.7c5.7-4.3 13.5-4.3 19.2 0l42.7 32c7.1 5.3 8.5 15.3 3.2 22.4s-15.3 8.5-22.4 3.2L256 287.7l-33.1 24.8c-7.1 5.3-17.1 3.9-22.4-3.2s-3.9-17.1 3.2-22.4l42.7-32z"/></svg>