<svg xmlns="http://www.w3.org/2000/svg" viewBox="0 0 512 512"><!--!Font Awesome Pro 6.6.0 by @fontawesome - https://fontawesome.com License - https://fontawesome.com/license (Commercial License) Copyright 2024 Fonticons, Inc.--><path class="fa-secondary" opacity=".4" d="M289.9 58.7c0-8.8 7.2-16 16-16l19.4 0c9.3 0 17.9 0 25.9 .1c8.8 .1 15.9 7.3 15.9 16.1s-7.3 15.9-16.1 15.9c-7.8-.1-16.3-.1-25.7-.1l-19.4 0c-8.8 0-16-7.2-16-16zm0 384c0-8.8 7.2-16 16-16l19.4 0c9.3 0 17.8 0 25.7-.1c8.8-.1 16.1 7 16.1 15.9s-7 16.1-15.9 16.1c-8 .1-16.6 .1-25.9 .1l-19.4 0c-8.8 0-16-7.2-16-16zM397.3 59.8c2.6-8.4 11.6-13.2 20-10.5c11 3.4 20.5 8.7 28.6 16.8s13.4 17.6 16.8 28.6c2.6 8.4-2.1 17.4-10.5 20s-17.4-2.1-20-10.5c-2.1-6.9-5-11.6-8.9-15.5s-8.6-6.7-15.5-8.9c-8.4-2.6-13.2-11.6-10.5-20zm0 381.7c-2.6-8.4 2.1-17.4 10.5-20c6.9-2.1 11.6-5 15.5-8.9s6.7-8.6 8.9-15.5c2.6-8.4 11.6-13.2 20-10.5s13.2 11.6 10.5 20c-3.4 11-8.7 20.5-16.8 28.6s-17.6 13.4-28.6 16.8c-8.4 2.6-17.4-2.1-20-10.5zm40-280.5c-.1-8.8 7-16.1 15.9-16.1s16.1 7 16.1 15.9c.1 8 .1 16.6 .1 25.9l0 29.1c0 8.8-7.2 16-16 16s-16-7.2-16-16l0-29.1c0-9.3 0-17.8-.1-25.7zm.1 124.6c0-8.8 7.2-16 16-16s16 7.2 16 16l0 29.2c0 9.2 0 17.8-.1 25.8c-.1 8.8-7.3 15.9-16.1 15.9s-15.9-7.3-15.9-16.1c.1-7.8 .1-16.3 .1-25.7l0-29.1z"/><path class="fa-primary" d="M69.3 272V229.3c0-80.5 0-120.7 25-145.7c23.3-23.3 78.4-24.9 151-25c0-8.8 7.2-16 16-16s16 7.2 16 16l0 384c0 8.8-7.2 16-16 16s-16-7.2-16-16c-72.6-.1-127.7-1.7-151-25c-25-25-25-65.2-25-145.7z"/></svg>