<svg xmlns="http://www.w3.org/2000/svg" viewBox="0 0 512 512"><!--!Font Awesome Pro 6.6.0 by @fontawesome - https://fontawesome.com License - https://fontawesome.com/license (Commercial License) Copyright 2024 Fonticons, Inc.--><path class="fa-secondary" opacity=".4" d="M42.7 256c0 117.8 95.5 213.3 213.3 213.3s213.3-95.5 213.3-213.3c0-9.9-14.8-11.5-19.9-3.1C425.1 293.1 381 320 330.7 320C254.1 320 192 257.9 192 181.3c0-50.4 26.9-94.5 67.1-118.8c8.4-5.1 6.8-19.9-3.1-19.9C138.2 42.7 42.7 138.2 42.7 256z"/><path class="fa-primary" d="M384 58.7c-8.8 0-16-7.2-16-16s7.2-16 16-16l85.3 0c6.5 0 12.3 3.9 14.8 9.9s1.1 12.9-3.5 17.4l-58 58 46.7 0c8.8 0 16 7.2 16 16s-7.2 16-16 16L384 144c-6.5 0-12.3-3.9-14.8-9.9s-1.1-12.9 3.5-17.4l58-58-46.7 0zm-96 128c-8.8 0-16-7.2-16-16s7.2-16 16-16l64 0c6.5 0 12.3 3.9 14.8 9.9s1.1 12.9-3.5 17.4l-36.7 36.7 25.4 0c8.8 0 16 7.2 16 16s-7.2 16-16 16l-64 0c-6.5 0-12.3-3.9-14.8-9.9s-1.1-12.9 3.5-17.4l36.7-36.7-25.4 0z"/></svg>