<svg xmlns="http://www.w3.org/2000/svg" viewBox="0 0 512 512"><!--!Font Awesome Pro 6.6.0 by @fontawesome - https://fontawesome.com License - https://fontawesome.com/license (Commercial License) Copyright 2024 Fonticons, Inc.--><path class="fa-secondary" opacity=".4" d="M42.7 256c0-100.6 0-150.8 31.2-182.1S155.4 42.7 256 42.7s150.9 0 182.1 31.2s31.2 81.5 31.2 182.1s0 150.9-31.2 182.1s-81.5 31.2-182.1 31.2s-150.8 0-182.1-31.2S42.7 356.6 42.7 256z"/><path class="fa-primary" d="M73.9 438.1c31.2 31.2 81.5 31.2 182.1 31.2s150.9 0 182.1-31.2c28.9-28.9 31.1-74.2 31.2-160.8H401.9c-19.3 0-29 0-37.5 3.9s-14.8 11.2-27.3 25.9l-12.9 15.1c-12.6 14.7-18.9 22-27.3 25.9s-18.1 3.9-37.5 3.9h-6.8c-19.3 0-29 0-37.5-3.9s-14.8-11.2-27.3-25.9l-12.9-15.1c-12.6-14.7-18.9-22-27.3-25.9s-18.1-3.9-37.5-3.9H42.7c.2 86.5 2.3 131.8 31.2 160.8zM267.3 127.4c-3-3-7.1-4.7-11.3-4.7s-8.3 1.7-11.3 4.7l-70.4 70.4c-6.2 6.2-6.2 16.4 0 22.6s16.4 6.2 22.6 0L240 177.3l0 174.6c-11.4-.2-18.5-.9-24.9-3.8c-8.5-3.9-14.8-11.2-27.3-25.9l-12.9-15.1c-12.6-14.7-18.9-22-27.3-25.9s-18.1-3.9-37.5-3.9H42.7c.2 86.5 2.3 131.8 31.2 160.8c31.2 31.2 81.5 31.2 182.1 31.2s150.9 0 182.1-31.2c28.9-28.9 31.1-74.2 31.2-160.8H401.9c-19.3 0-29 0-37.5 3.9s-14.8 11.2-27.3 25.9l-12.9 15.1c-12.6 14.7-18.9 22-27.3 25.9c-6.4 2.9-13.5 3.7-24.9 3.8V177.3l43.1 43.1c6.2 6.2 16.4 6.2 22.6 0s6.2-16.4 0-22.6l-70.4-70.4z"/></svg>