<svg xmlns="http://www.w3.org/2000/svg" viewBox="0 0 512 512"><!--!Font Awesome Pro 6.6.0 by @fontawesome - https://fontawesome.com License - https://fontawesome.com/license (Commercial License) Copyright 2024 Fonticons, Inc.--><path class="fa-secondary" opacity=".4" d="M42.7 256c0 100.6 0 150.9 31.2 182.1s81.5 31.2 182.1 31.2s150.9 0 182.1-31.2s31.2-81.5 31.2-182.1l0-.8c0-100.1-.1-150.2-31.2-181.3C406.9 42.7 356.6 42.7 256 42.7s-150.8 0-182.1 31.2S42.7 155.4 42.7 256zM112 271.7c0-16.7 5.1-33.5 15.4-47.9c4.4-6.1 10.4-12 19.5-20.8l1.2-1.2 47.7-46.5 2.1-2.1c16.1-15.7 27-26.3 39-32.2c12.1-6 25.3-9 38.5-9s26.4 3 38.5 9c12.1 6 22.9 16.5 39 32.2l2.1 2.1 2.2 2.1c16.1 15.7 26.9 26.2 33.1 38c6.2 11.9 9.4 25 9.4 38s-3.1 26.1-9.4 38c-6.2 11.8-17 22.4-33.1 38l-2.2 2.1-47 45.8-.7 .7c-3.8 3.7-6.8 6.6-9.8 8.9c-10.3 7.7-22.6 11.5-34.9 11.5s-24.6-3.8-34.9-11.5c-3-2.3-6-5.2-9.8-8.9l-.7-.7-.7-.7c-3.8-3.7-6.8-6.6-9.1-9.6c-16-20.3-16-48.7 0-69.1c2.3-3 5.3-5.9 9.1-9.6l.7-.7 36.2-35.3c6.3-6.2 16.5-6 22.6 .3s6 16.5-.3 22.6l-36.2 35.3c-4.9 4.8-6.2 6.1-7.1 7.2c-6.9 8.7-6.9 20.7 0 29.4c.8 1.1 2.2 2.4 7.1 7.2s6.3 6.1 7.4 6.9c9.2 6.9 22.2 6.9 31.4 0c1.1-.8 2.5-2.1 7.4-6.9l47-45.8c19.1-18.6 25.8-25.4 29.3-32.1c7.6-14.6 7.6-31.8 0-46.4c-3.5-6.7-10.2-13.5-29.3-32.1c-19.1-18.6-26.1-25.1-33.1-28.6c-15.3-7.6-33.4-7.6-48.7 0c-7 3.5-14 10-33.1 28.6l-47.7 46.5c-10.7 10.5-14.5 14.2-17 17.7c-12.6 17.6-12.6 40.9 0 58.5c2.5 3.4 6.3 7.2 17 17.7c6.3 6.2 6.5 16.3 .3 22.6s-16.3 6.5-22.6 .3l-1.2-1.2c-9.1-8.8-15.1-14.7-19.5-20.8c-10.3-14.4-15.4-31.1-15.4-47.9z"/><path class="fa-primary" d="M237 121c24.2-12 52.9-12 77.1 0c12.1 6 22.9 16.5 39 32.2l0 0 2.1 2.1 2.2 2.1c16.1 15.7 26.9 26.2 33.1 38c12.5 23.9 12.5 52.2 0 76c-6.2 11.8-17 22.4-33.1 38l-2.2 2.1-47 45.8-.7 .7c-3.8 3.7-6.8 6.6-9.8 8.9c-20.6 15.4-49.1 15.4-69.7 0c-3-2.3-6-5.2-9.8-8.9l-.7-.7-.7-.7c-3.8-3.7-6.8-6.6-9.1-9.6c-16-20.3-16-48.7 0-69.1c2.3-3 5.3-5.9 9.1-9.6l0 0 .7-.7 36.2-35.3c6.3-6.2 16.5-6 22.6 .3s6 16.5-.3 22.6l-36.2 35.3c-4.9 4.8-6.2 6.1-7.1 7.2c-6.9 8.7-6.9 20.7 0 29.4c.8 1.1 2.2 2.4 7.1 7.2s6.3 6.1 7.4 6.9c9.2 6.9 22.2 6.9 31.4 0c1.1-.8 2.5-2.1 7.4-6.9l47-45.8c19.1-18.6 25.8-25.4 29.3-32.1c7.6-14.6 7.6-31.8 0-46.4c-3.5-6.7-10.2-13.5-29.3-32.1c-19.1-18.6-26.1-25.1-33.1-28.6c-15.3-7.6-33.4-7.6-48.7 0c-7 3.5-14 10-33.1 28.6l-47.7 46.5c-10.7 10.5-14.5 14.2-17 17.7c-12.6 17.6-12.6 40.9 0 58.5c2.5 3.4 6.3 7.2 17 17.7c6.3 6.2 6.5 16.3 .3 22.6s-16.3 6.5-22.6 .3l-1.2-1.2c-9.1-8.8-15.1-14.7-19.5-20.8c-20.6-28.7-20.6-67 0-95.7c4.4-6.1 10.4-12 19.5-20.8l0 0 1.2-1.2 47.7-46.5 2.1-2.1 0 0c16.1-15.7 27-26.3 39-32.2z"/></svg>