<svg xmlns="http://www.w3.org/2000/svg" viewBox="0 0 512 512"><!--!Font Awesome Pro 6.6.0 by @fontawesome - https://fontawesome.com License - https://fontawesome.com/license (Commercial License) Copyright 2024 Fonticons, Inc.--><path class="fa-secondary" opacity=".4" d="M42.7 256c0 100.6 0 150.9 31.2 182.1s81.5 31.2 182.1 31.2s150.9 0 182.1-31.2s31.2-81.5 31.2-182.1l0-.8c0-100.1-.1-150.2-31.2-181.3C406.9 42.7 356.6 42.7 256 42.7s-150.8 0-182.1 31.2S42.7 155.4 42.7 256zM176 277.3c0-4.1 1.6-8.2 4.7-11.3c6.2-6.2 16.4-6.2 22.6 0L240 302.7l0-132c0-8.8 7.2-16 16-16s16 7.2 16 16l0 132L308.7 266c6.2-6.2 16.4-6.2 22.6 0c3.1 3.1 4.7 7.2 4.7 11.3s-1.6 8.2-4.7 11.3l-64 64c-3 3-7.1 4.7-11.3 4.7s-8.3-1.7-11.3-4.7l-64-64c-3.1-3.1-4.7-7.2-4.7-11.3z"/><path class="fa-primary" d="M240 170.7c0-8.8 7.2-16 16-16s16 7.2 16 16v132L308.7 266c6.2-6.2 16.4-6.2 22.6 0s6.2 16.4 0 22.6l-64 64c-3 3-7.1 4.7-11.3 4.7s-8.3-1.7-11.3-4.7l-64-64c-6.2-6.2-6.2-16.4 0-22.6s16.4-6.2 22.6 0L240 302.7l0-132z"/></svg>