<svg xmlns="http://www.w3.org/2000/svg" viewBox="0 0 512 512"><!--!Font Awesome Pro 6.6.0 by @fontawesome - https://fontawesome.com License - https://fontawesome.com/license (Commercial License) Copyright 2024 Fonticons, Inc.--><path class="fa-secondary" opacity=".4" d="M94.1 99.2c10.8-4.9 22.9-7.8 36.6-9.6c23.1-3 52.7-3 90-3l83.5 0c37.3 0 66.9 0 90 3c11.9 1.5 22.7 3.9 32.4 7.8c-3.3-8.3-8-15.6-14.8-22.1c-12.6-12-28.4-17.2-47.4-19.6c-18.3-2.4-41.7-2.4-70.8-2.4l-65.9 0c-29.1 0-52.5 0-70.8 2.4c-19 2.4-34.8 7.6-47.4 19.6c-7.2 6.9-12.1 14.9-15.4 23.9z"/><path class="fa-primary" d="M394.9 215c0 15.8-13.3 28.5-29.8 28.5s-29.8-12.8-29.8-28.5s13.3-28.5 29.8-28.5s29.8 12.8 29.8 28.5zm-10.1-97c-22.6-2.9-51.5-2.9-88-2.9l-81.6 0c-36.5 0-65.4 0-88 2.9c-23.3 3-42.1 9.3-56.9 23.6s-21.4 32.3-24.6 54.6c-3 21.7-3 49.4-3 84.3l0 2.1c0 35 0 62.6 3 84.3c3.1 22.3 9.7 40.4 24.6 54.6s33.7 20.6 56.9 23.6c22.6 2.9 51.5 2.9 88 2.9l81.6 0c36.5 0 65.4 0 88-2.9c23.3-3 42.1-9.3 56.9-23.6s21.4-32.3 24.6-54.6c3-21.7 3-49.4 3-84.3l0-2.1c0-35 0-62.6-3-84.3c-3.1-22.3-9.7-40.4-24.6-54.6S408 121 384.8 118zM131.2 146.3c20.4-2.6 47.3-2.7 85.1-2.7l79.4 0c37.8 0 64.7 0 85.1 2.7c20 2.6 31.5 7.4 39.9 15.4s13.4 19.1 16.1 38.2c2.7 19.5 2.8 45.3 2.8 81.6s0 62-2.8 81.6c-1.2 8.2-2.7 14.9-4.8 20.6l-51.4-44.3c-25.8-22.2-64.2-24.5-92.6-5.3l-5.9 4c-9.9 6.6-23.3 5.5-31.8-2.6l-85.1-81.6c-22.5-21.6-58.7-22.8-82.7-2.6l-10 8.4c.1-25.1 .6-44.3 2.7-59.6c2.7-19.1 7.7-30.2 16.1-38.2s19.9-12.9 39.9-15.4z"/></svg>