<svg xmlns="http://www.w3.org/2000/svg" viewBox="0 0 512 512"><!--!Font Awesome Pro 6.6.0 by @fontawesome - https://fontawesome.com License - https://fontawesome.com/license (Commercial License) Copyright 2024 Fonticons, Inc.--><path class="fa-secondary" opacity=".4" d="M42.7 256a213.3 213.3 0 1 0 426.7 0A213.3 213.3 0 1 0 42.7 256zM160 189.2c0-17 19-27.2 33.2-17.8l100.2 66.8c12.7 8.4 12.7 27.1 0 35.5L193.2 340.6C179 350 160 339.9 160 322.8l0-133.6zm104.3-26.3c5.1-7.2 15.1-8.9 22.3-3.7l68.7 49.1C371.7 220 379.9 238 379.9 256s-8.2 36-24.6 47.7l-68.7 49.1c-2.8 2-6.1 3-9.3 3c-5 0-9.9-2.3-13-6.7c-5.1-7.2-3.5-17.2 3.7-22.3l68.7-49.1c14.9-10.6 14.9-32.8 0-43.4L268 185.2c-7.2-5.1-8.9-15.1-3.7-22.3z"/><path class="fa-primary" d="M286.6 159.2c-7.2-5.1-17.2-3.5-22.3 3.7s-3.5 17.2 3.7 22.3l68.7 49.1c14.9 10.6 14.9 32.8 0 43.4L268 326.8c-7.2 5.1-8.9 15.1-3.7 22.3s15.1 8.9 22.3 3.7l68.7-49.1c32.8-23.4 32.8-72.1 0-95.5l-68.7-49.1zM160 322.8V189.2c0-17 19-27.2 33.2-17.8l100.2 66.8c12.7 8.4 12.7 27.1 0 35.5L193.2 340.6C179 350 160 339.9 160 322.8z"/></svg>