<svg xmlns="http://www.w3.org/2000/svg" viewBox="0 0 512 512"><!--!Font Awesome Pro 6.6.0 by @fontawesome - https://fontawesome.com License - https://fontawesome.com/license (Commercial License) Copyright 2024 Fonticons, Inc.--><path class="fa-secondary" opacity=".4" d="M21.3 254.2c0 130.6 105.1 236.5 234.7 236.5s234.7-105.9 234.7-236.5c0-93.6-54-174.5-132.2-212.8c-8.1-4-17.9-.6-21.9 7.6s-.6 18.1 7.6 22c67.4 33 113.8 102.6 113.8 183.1c0 112.4-90.4 203.5-201.9 203.5s-201.9-91.1-201.9-203.5c0-98.5 69.5-180.7 161.8-199.4c11.2-2.3 23.8 7.2 23.8 23.5c0 14.7 0 29.3 0 44l0 77-69.4 0c4.6-24.4 19-48.4 39-63.2c-24.4 15.7-40.6 43.3-40.6 74.8l0 15 174.6 0 0-15c0-31.4-16.2-59.1-40.6-74.8c20 14.8 34.5 38.8 39 63.2l-69.4 0 0-75.4c0-15.2 0-30.4 0-45.5c0-32.3-27-63.1-63-55.8C102.1 44.2 21.3 139.7 21.3 254.2zm147.4 43.5l0 1c0 48.9 39.1 88.5 87.3 88.5s87.3-39.6 87.3-88.5l0-72.9 0 71.9c0 48.9-39.1 88.5-87.3 88.5s-87.3-39.6-87.3-88.5z"/><path class="fa-primary" d="M168.7 297.7c0 48.9 39.1 88.5 87.3 88.5s87.3-39.6 87.3-88.5V225.8H168.7v71.9zm103.7-98.5h69.4c-6.7-35.6-34.3-70.2-69.4-77v77zm-32.7 0v-77c-35.1 6.7-62.8 41.4-69.4 77h69.4z"/></svg>