<svg xmlns="http://www.w3.org/2000/svg" viewBox="0 0 512 512"><!--!Font Awesome Pro 6.6.0 by @fontawesome - https://fontawesome.com License - https://fontawesome.com/license (Commercial License) Copyright 2024 Fonticons, Inc.--><path class="fa-secondary" opacity=".4" d="M42.7 213.3l0 21.3 426.7 0 0-21.3c0-80.5 0-120.7-25-145.7c-24.9-24.9-65.1-25-145.2-25l-.4 0-85.3 0c-80.5 0-120.7 0-145.7 25s-25 65.2-25 145.7zM176 138.7c0-8.8 7.2-16 16-16l128 0c8.8 0 16 7.2 16 16s-7.2 16-16 16l-128 0c-8.8 0-16-7.2-16-16z"/><path class="fa-primary" d="M42.7 234.7l426.7 0 0 21.3c0 80.5 0 120.7-25 145.7c-6.5 6.5-14 11.3-23 14.9l0 52.8c0 8.8-7.2 16-16 16s-16-7.2-16-16l0-45.4c-22.8 2.7-52.1 2.7-90.7 2.7l-85.3 0c-38.5 0-67.8 0-90.7-2.7l0 45.4c0 8.8-7.2 16-16 16s-16-7.2-16-16l0-52.8c-9-3.6-16.5-8.4-23-14.9c-25-25-25-65.2-25-145.7l0-21.3zm133.3 96c0 8.8 7.2 16 16 16l128 0c8.8 0 16-7.2 16-16s-7.2-16-16-16l-128 0c-8.8 0-16 7.2-16 16zm16-208c-8.8 0-16 7.2-16 16s7.2 16 16 16H320c8.8 0 16-7.2 16-16s-7.2-16-16-16H192z"/></svg>