<svg xmlns="http://www.w3.org/2000/svg" viewBox="0 0 512 512"><!--!Font Awesome Pro 6.6.0 by @fontawesome - https://fontawesome.com License - https://fontawesome.com/license (Commercial License) Copyright 2024 Fonticons, Inc.--><path class="fa-secondary" opacity=".4" d="M42.8 216.4c1.1-7.7 7.8-13.8 15.9-13.8c114.9 0 208 93.1 208 208c0 8.8-7.2 16-16 16l48 0c80.5 0 120.7 0 145.7-25c24.9-24.9 25-65.1 25-145.2l0-.5c0-80.5 0-120.7-25-145.7c-24.9-24.9-65.1-25-145.2-25l-.5 0-85.3 0c-80.5 0-120.7 0-145.7 25c-20.5 20.5-24.2 51.3-24.8 106.1zm0 4.1c-.1 10.9-.1 22.6-.1 35.4c0 9 0 17.5 0 25.5c.6-8.3 7.5-14.9 16-14.9c79.5 0 144 64.5 144 144c0 8.5-6.6 15.4-14.9 16c7.9 0 16.2 0 25.1 0l.5 0 37.3 0c-8.8 0-16-7.2-16-16c0-97.2-78.8-176-176-176c-8.2 0-14.9-6.2-15.9-14.1zm-.1 63.4c.1 21.6 .5 39.7 1.9 55.1c2.7-5 8-8.3 14.1-8.3c44.2 0 80 35.8 80 80c0 6.1-3.4 11.3-8.3 14.1c15.4 1.4 33.5 1.8 55.1 1.9c-8.3-.6-14.8-7.5-14.8-16c0-61.9-50.1-112-112-112c-8.4 0-15.3-6.5-16-14.7zM47 357.7c3.4 19 9.6 33 20.6 44s25 17.2 44 20.6c-3.1-2.9-5-7-5-11.6c0-26.5-21.5-48-48-48c-4.6 0-8.7-1.9-11.6-5z"/><path class="fa-primary" d="M58.7 202.7c-8.8 0-16 7.2-16 16s7.2 16 16 16c97.2 0 176 78.8 176 176c0 8.8 7.2 16 16 16s16-7.2 16-16c0-114.9-93.1-208-208-208zm0 64c-8.8 0-16 7.2-16 16s7.2 16 16 16c61.9 0 112 50.1 112 112c0 8.8 7.2 16 16 16s16-7.2 16-16c0-79.5-64.5-144-144-144zm0 64c-8.8 0-16 7.2-16 16s7.2 16 16 16c26.5 0 48 21.5 48 48c0 8.8 7.2 16 16 16s16-7.2 16-16c0-44.2-35.8-80-80-80z"/></svg>