<svg xmlns="http://www.w3.org/2000/svg" viewBox="0 0 512 512"><!--!Font Awesome Pro 6.6.0 by @fontawesome - https://fontawesome.com License - https://fontawesome.com/license (Commercial License) Copyright 2024 Fonticons, Inc.--><path class="fa-secondary" opacity=".4" d="M42.7 256c0 100.6 0 150.9 31.2 182.1s81.5 31.2 182.1 31.2s150.9 0 182.1-31.2c31.2-31.2 31.2-81.3 31.2-181.3l0-.8c0-100.6 0-150.8-31.2-182.1S356.6 42.7 256 42.7s-150.8 0-182.1 31.2S42.7 155.4 42.7 256zm69.3 0c0-79.5 64.5-144 144-144s144 64.5 144 144c0 17.3-3.1 33.9-8.7 49.3c-2.8 7.8-7.6 14.1-13 19.1l-1.7 1.6c-17.3 15.9-43.2 18-62.8 4.9c-7.9-5.3-14-12.5-17.9-20.9c-11.2 8.3-25 13.2-40 13.2c-37.1 0-67.2-30.1-67.2-67.2s30.1-67.2 67.2-67.2s67.2 30.1 67.2 67.2l0 32.5c0 6.3 3.2 12.2 8.4 15.7c7.3 4.8 16.9 4.1 23.3-1.8l1.7-1.6c2.4-2.2 3.9-4.4 4.6-6.5c4.3-11.9 6.7-24.8 6.7-38.3c0-61.9-50.1-112-112-112s-112 50.1-112 112s50.1 112 112 112c8.8 0 16 7.2 16 16s-7.2 16-16 16c-79.5 0-144-64.5-144-144zm108.8 0a35.2 35.2 0 1 0 70.4 0 35.2 35.2 0 1 0 -70.4 0z"/><path class="fa-primary" d="M256 144c-61.9 0-112 50.1-112 112s50.1 112 112 112c8.8 0 16 7.2 16 16s-7.2 16-16 16c-79.5 0-144-64.5-144-144s64.5-144 144-144s144 64.5 144 144c0 17.3-3.1 33.9-8.7 49.3c-2.8 7.8-7.6 14.1-13 19.1l-1.7 1.6c-17.3 15.9-43.2 18-62.8 4.9c-7.9-5.3-14-12.5-17.9-20.9c-11.2 8.3-25 13.2-40 13.2c-37.1 0-67.2-30.1-67.2-67.2s30.1-67.2 67.2-67.2s67.2 30.1 67.2 67.2l0 32.5c0 6.3 3.2 12.2 8.4 15.7c7.3 4.8 16.9 4.1 23.3-1.8l1.7-1.6c2.4-2.2 3.9-4.4 4.6-6.5c4.3-11.9 6.7-24.8 6.7-38.3c0-61.9-50.1-112-112-112zm0 76.8a35.2 35.2 0 1 0 0 70.4 35.2 35.2 0 1 0 0-70.4z"/></svg>