<svg xmlns="http://www.w3.org/2000/svg" viewBox="0 0 512 512"><!--!Font Awesome Pro 6.6.0 by @fontawesome - https://fontawesome.com License - https://fontawesome.com/license (Commercial License) Copyright 2024 Fonticons, Inc.--><path class="fa-secondary" opacity=".4" d="M202.5 128.3c3.6-.2 7.2-.3 10.8-.3C307.6 128 384 204.4 384 298.7c0 .1 0 .2 0 .3c0 1.7 0 3.3-.1 5c0 .3 0 .5 0 .6c-.1 1.7-.1 3.3-.2 5c2.3-.9 4.6-1.9 6.8-3c6.2-3 13.3-4 19.9-2.2l21.3 5.7c16.7 4.5 32.1-10.8 27.6-27.6l-5.7-21.3c-1.8-6.7-.7-13.7 2.2-19.9c8.7-18.1 13.5-38.4 13.5-59.8c0-76.6-62.1-138.7-138.7-138.7c-57.8 0-107.4 35.4-128.2 85.7z"/><path class="fa-primary" d="M384 298.7c0 94.3-76.4 170.7-170.7 170.7c-26.4 0-51.3-6-73.6-16.6c-7.7-3.7-16.3-5-24.5-2.8l-26.2 7c-20.6 5.5-39.5-13.3-34-34l7-26.2c2.2-8.2 .9-16.9-2.8-24.5C48.6 350 42.7 325 42.7 298.7c0-94.3 76.4-170.7 170.7-170.7S384 204.4 384 298.7zM138.7 320a21.3 21.3 0 1 0 0-42.7 21.3 21.3 0 1 0 0 42.7zm74.7 0a21.3 21.3 0 1 0 0-42.7 21.3 21.3 0 1 0 0 42.7zm74.7 0a21.3 21.3 0 1 0 0-42.7 21.3 21.3 0 1 0 0 42.7z"/></svg>