<svg xmlns="http://www.w3.org/2000/svg" viewBox="0 0 512 512"><!--!Font Awesome Pro 6.6.0 by @fontawesome - https://fontawesome.com License - https://fontawesome.com/license (Commercial License) Copyright 2024 Fonticons, Inc.--><path class="fa-secondary" opacity=".4" d="M42.7 256c0 100.6 0 150.9 31.2 182.1s81.5 31.2 182.1 31.2s150.9 0 182.1-31.2c31.2-31.2 31.2-81.3 31.2-181.3l0-.8c0-100.6 0-150.8-31.2-182.1S356.6 42.7 256 42.7s-150.8 0-182.1 31.2S42.7 155.4 42.7 256zm48-64.1c.2-19.7 .7-34.7 3.9-46.9c3.5-13.5 10-22.8 19.7-32.1c11.2-10.7 24.9-16 41-18.8c15.6-2.7 34.8-3.3 57.9-3.4c8.8 0 16 7.1 16.1 15.9s-7.1 16-15.9 16.1c-23.3 .1-39.9 .7-52.5 2.9c-12.2 2.1-19.3 5.6-24.4 10.5c-6.5 6.2-9.2 10.6-10.9 17c-2 7.7-2.7 18.8-2.9 39c-.1 8.8-7.3 15.9-16.1 15.9s-15.9-7.3-15.9-16.1zm0 64.1c0-8.8 7.2-16 16-16l298.7 0c8.8 0 16 7.2 16 16s-7.2 16-16 16l-298.7 0c-8.8 0-16-7.2-16-16zm0 64.1c-.1-8.8 7-16.1 15.9-16.1s16.1 7 16.1 15.9c.2 20.2 .8 31.3 2.9 39c1.7 6.5 4.4 10.9 10.9 17c5.2 4.9 12.2 8.4 24.4 10.5c12.6 2.2 29.2 2.8 52.5 2.9c8.8 0 16 7.2 15.9 16.1c0 8.8-7.2 15.9-16.1 15.9c-23.1-.1-42.2-.6-57.9-3.4c-16-2.8-29.8-8.1-41-18.8c-9.7-9.2-16.2-18.6-19.7-32.1c-3.2-12.2-3.8-27.2-3.9-46.9zm192-213.5c0-8.8 7.2-15.9 16.1-15.9c23.1 .1 42.2 .6 57.9 3.4c16 2.8 29.8 8.1 41 18.8c9.7 9.2 16.2 18.6 19.7 32.1c3.2 12.2 3.8 27.2 3.9 46.9c.1 8.8-7 16.1-15.9 16.1s-16.1-7-16.1-15.9c-.2-20.2-.8-31.3-2.9-39c-1.7-6.5-4.4-10.9-10.9-17c-5.2-4.9-12.2-8.4-24.4-10.5c-12.6-2.2-29.2-2.8-52.5-2.9c-8.8 0-16-7.2-15.9-16.1zm0 298.8c0-8.8 7.1-16 15.9-16.1c23.3-.1 39.9-.7 52.5-2.9c12.2-2.1 19.3-5.6 24.4-10.5c6.5-6.2 9.2-10.6 10.9-17c2-7.7 2.7-18.8 2.9-39c.1-8.8 7.3-15.9 16.1-15.9s15.9 7.3 15.9 16.1c-.2 19.7-.7 34.7-3.9 46.9c-3.5 13.5-10 22.8-19.7 32.1c-11.2 10.7-24.9 16-41 18.8c-15.6 2.7-34.8 3.3-58 3.4c-8.8 0-16-7.1-16-15.9z"/><path class="fa-primary" d="M213.4 122.7c8.8 0 16-7.2 15.9-16.1s-7.2-16-16.1-15.9c-23.1 .1-42.2 .6-57.9 3.4c-16 2.8-29.8 8.1-41 18.8c-9.7 9.2-16.2 18.6-19.7 32.1c-3.2 12.2-3.8 27.2-3.9 46.9c-.1 8.8 7 16.1 15.9 16.1s16.1-7 16.1-15.9c.2-20.2 .8-31.3 2.9-39c1.7-6.5 4.4-10.9 10.9-17c5.2-4.9 12.2-8.4 24.4-10.5c12.6-2.2 29.2-2.8 52.5-2.9zm85.3-32c-8.8 0-16 7.1-16.1 15.9s7.1 16 15.9 16.1c23.3 .1 39.9 .7 52.5 2.9c12.2 2.1 19.3 5.6 24.4 10.5c6.5 6.2 9.2 10.6 10.9 17c2 7.7 2.7 18.8 2.9 39c.1 8.8 7.3 15.9 16.1 15.9s15.9-7.3 15.9-16.1c-.2-19.7-.7-34.7-3.9-46.9c-3.5-13.5-10-22.8-19.7-32.1c-11.2-10.7-24.9-16-41-18.8c-15.6-2.7-34.8-3.3-57.9-3.4zM106.7 240c-8.8 0-16 7.2-16 16s7.2 16 16 16H405.3c8.8 0 16-7.2 16-16s-7.2-16-16-16H106.7zm16 79.9c-.1-8.8-7.3-15.9-16.1-15.9s-15.9 7.3-15.9 16.1c.2 19.7 .7 34.7 3.9 46.9c3.5 13.5 10 22.8 19.7 32.1c11.2 10.7 24.9 16 41 18.8c15.6 2.7 34.8 3.3 57.9 3.4c8.8 0 16-7.1 16.1-15.9s-7.1-16-15.9-16.1c-23.3-.1-39.9-.7-52.5-2.9c-12.2-2.1-19.3-5.6-24.4-10.5c-6.5-6.2-9.2-10.6-10.9-17c-2-7.7-2.7-18.8-2.9-39zm298.6 .2c.1-8.8-7-16.1-15.9-16.1s-16.1 7-16.1 15.9c-.2 20.2-.8 31.3-2.9 39c-1.7 6.5-4.4 10.9-10.9 17c-5.2 4.9-12.2 8.4-24.4 10.5c-12.6 2.2-29.2 2.8-52.5 2.9c-8.8 0-16 7.2-15.9 16.1s7.2 16 16.1 15.9c23.1-.1 42.2-.6 57.9-3.4c16-2.8 29.8-8.1 41-18.8c9.7-9.2 16.2-18.6 19.7-32.1c3.2-12.2 3.8-27.2 3.9-46.9z"/></svg>