<svg xmlns="http://www.w3.org/2000/svg" viewBox="0 0 512 512"><!--!Font Awesome Pro 6.6.0 by @fontawesome - https://fontawesome.com License - https://fontawesome.com/license (Commercial License) Copyright 2024 Fonticons, Inc.--><path class="fa-secondary" opacity=".4" d="M69.3 124.9c2.5 1 5.1 1.8 7.7 2.3c1.3 .3 2.7 .5 4.1 .6c.7 .1 1.4 .1 2.1 .2s1.4 .1 2.1 .1c5.7 0 11.1-1.1 16-3.1l0 262.2c-2.5-1-5.1-1.8-7.7-2.3c-1.3-.3-2.7-.5-4.1-.6c-.7-.1-1.4-.1-2.1-.2s-1.4-.1-2.1-.1c-5.7 0-11.1 1.1-16 3.1l0-262.2zm55.6-55.6l262.2 0c-1 2.5-1.8 5.1-2.3 7.7c-.3 1.3-.5 2.7-.6 4.1c-.1 .7-.1 1.4-.2 2.1s-.1 1.4-.1 2.1c0 5.7 1.1 11.1 3.1 16l-262.2 0c1-2.5 1.8-5.1 2.3-7.7c.3-1.3 .5-2.7 .6-4.1c.1-.7 .1-1.4 .2-2.1s.1-1.4 .1-2.1c0-5.7-1.1-11.1-3.1-16zm0 341.3l262.2 0c-1 2.5-1.8 5.1-2.3 7.7c-.3 1.3-.5 2.7-.6 4.1c-.1 .7-.1 1.4-.2 2.1s-.1 1.4-.1 2.1c0 5.7 1.1 11.1 3.1 16l-262.2 0c1-2.5 1.8-5.1 2.3-7.7c.3-1.3 .5-2.7 .6-4.1c.1-.7 .1-1.4 .2-2.1s.1-1.4 .1-2.1c0-5.7-1.1-11.1-3.1-16zM410.7 124.9c2.5 1 5.1 1.8 7.7 2.3c1.3 .3 2.7 .5 4.1 .6c.7 .1 1.4 .1 2.1 .2s1.4 .1 2.1 .1c5.7 0 11.1-1.1 16-3.1l0 262.2c-2.5-1-5.1-1.8-7.7-2.3c-1.3-.3-2.7-.5-4.1-.6c-.7-.1-1.4-.1-2.1-.2s-1.4-.1-2.1-.1c-5.7 0-11.1 1.1-16 3.1l0-262.2z"/><path class="fa-primary" d="M176 192c0-8.8 7.2-16 16-16l128 0c8.8 0 16 7.2 16 16s-7.2 16-16 16l-48 0 0 112c0 8.8-7.2 16-16 16s-16-7.2-16-16l0-112-48 0c-8.8 0-16-7.2-16-16zM85.3 128a42.7 42.7 0 1 0 0-85.3 42.7 42.7 0 1 0 0 85.3zm0 341.3a42.7 42.7 0 1 0 0-85.3 42.7 42.7 0 1 0 0 85.3zM384 85.3a42.7 42.7 0 1 1 85.3 0 42.7 42.7 0 1 1 -85.3 0zm42.7 384a42.7 42.7 0 1 0 0-85.3 42.7 42.7 0 1 0 0 85.3z"/></svg>