<svg xmlns="http://www.w3.org/2000/svg" viewBox="0 0 512 512"><!--!Font Awesome Pro 6.6.0 by @fontawesome - https://fontawesome.com License - https://fontawesome.com/license (Commercial License) Copyright 2024 Fonticons, Inc.--><path class="fa-secondary" opacity=".4" d="M42.7 194.9c0 94 70.4 148.2 130.3 194.3c6.2 4.8 12.3 9.5 18.2 14.2c22.1 17.5 43.5 33.9 64.8 33.9l18.4-73.6c1.4-5.7 2.1-8.6 1.4-11.3s-2.8-4.8-7-9l-20.2-20.2c-6.6-6.6-9.9-9.9-10.1-14.1s2.9-7.7 9-14.9l36-42c1.7-2 3.2-3.7 4.4-5.2s2.3-2.9 3.1-4.1c.2-.3 .4-.6 .6-.9s.4-.6 .5-.9c.3-.6 .6-1.2 .8-1.7c.4-1.1 .7-2.2 .7-3.2c0-.3 0-.6-.1-1c-.6-4.7-5-7.8-13.9-14.2l-40.9-29.2c-7.1-5.1-10.6-7.6-11.6-11.4c-.2-.6-.2-1.3-.2-2c0-3.3 1.9-7.1 5.1-13.5L256 117.4C160 17.6 42.7 91.2 42.7 194.9z"/><path class="fa-primary" d="M320.8 403.4C383.6 354 469.3 298.7 469.3 194.9S352 17.6 256 117.4L232.2 165c-3.9 7.8-5.8 11.7-4.9 15.5s4.5 6.3 11.6 11.4l40.9 29.2c8.9 6.3 13.3 9.5 13.9 14.2s-3 8.8-10.1 17.1l-36 42c-6.1 7.1-9.1 10.7-9 14.9s3.5 7.5 10.1 14.1l20.2 20.2c4.2 4.2 6.3 6.3 7 9s0 5.6-1.4 11.3L256 437.3c21.3 0 42.7-16.4 64.8-33.9z"/></svg>