<svg xmlns="http://www.w3.org/2000/svg" viewBox="0 0 512 512"><!--!Font Awesome Pro 6.6.0 by @fontawesome - https://fontawesome.com License - https://fontawesome.com/license (Commercial License) Copyright 2024 Fonticons, Inc.--><path class="fa-secondary" opacity=".4" d="M85.5 169.2c-.1 2.4-.1 4.8-.1 7.4c0 41.4 12.9 106.5 78.2 171.8s130.4 78.2 171.8 78.2c2.6 0 5 0 7.4-.1c24.2-.9 46.1-14.8 63.9-32.7c29.7-29.7 25.7-77.1-8.1-96L373.8 284c-22.4-12.5-51.8-7.5-71.4 12.2c0 0-23.9 23.9-67.2-19.4c-43.3-43.3-19.4-67.1-19.4-67.2c19.7-19.7 24.7-49.1 12.2-71.4l-13.8-24.8c-10.3-18.5-29.2-28.1-49.1-28.1c-16.4 0-33.5 6.5-46.9 20c-17.9 17.9-31.8 39.7-32.7 63.9z"/><path class="fa-primary" d="M330 74c6.2-6.2 16.4-6.2 22.6 0L384 105.4 415.4 74c6.2-6.2 16.4-6.2 22.6 0s6.2 16.4 0 22.6L406.6 128 438 159.4c6.2 6.2 6.2 16.4 0 22.6s-16.4 6.2-22.6 0L384 150.6 352.6 182c-6.2 6.2-16.4 6.2-22.6 0s-6.2-16.4 0-22.6L361.4 128 330 96.6c-6.2-6.2-6.2-16.4 0-22.6z"/></svg>