<svg xmlns="http://www.w3.org/2000/svg" viewBox="0 0 512 512"><!--!Font Awesome Pro 6.6.0 by @fontawesome - https://fontawesome.com License - https://fontawesome.com/license (Commercial License) Copyright 2024 Fonticons, Inc.--><path class="fa-secondary" opacity=".4" d="M90.7 469.3c0 8.8 7.2 16 16 16c109.5 0 194-90.3 194-198.7c0-28.2-5.5-49.9-15.6-65.9c-10.3-16.3-24.7-25.3-39.7-29.3c-14.6-3.9-29.4-2.9-41.5-.3c-11.9 2.6-22.8 7.2-29.8 12.2c-12.5 8.9-23.8 23.9-28.8 40.4c-5.1 17-4 37.9 12.6 53.9l.5 .5c6.4 6.1 16.5 6 22.6-.4s6-16.5-.4-22.6l-.5-.5c-5.6-5.4-7-12.6-4.2-21.6c2.9-9.6 9.8-18.7 16.7-23.5c2.7-1.9 9.3-5.1 18.2-7c8.7-1.9 18.1-2.3 26.4-.1c7.9 2.1 15.3 6.6 20.9 15.5c5.9 9.2 10.6 24.3 10.6 48.7c0 91.9-71.3 166.7-162 166.7c-8.8 0-16 7.2-16 16z"/><path class="fa-primary" d="M256 96a53.3 53.3 0 1 1 106.7 0A53.3 53.3 0 1 1 256 96zm74.8 212.6c47.3-7.6 90.5 28.6 90.5 76.5l0 84.2c0 8.8-7.2 16-16 16s-16-7.2-16-16l0-84.2c0-27.9-25.3-49.4-53.4-44.9c-8.7 1.4-16.9-4.5-18.3-13.3s4.5-16.9 13.3-18.3z"/></svg>