<svg xmlns="http://www.w3.org/2000/svg" viewBox="0 0 512 512"><!--!Font Awesome Pro 6.6.0 by @fontawesome - https://fontawesome.com License - https://fontawesome.com/license (Commercial License) Copyright 2024 Fonticons, Inc.--><path class="fa-secondary" opacity=".4" d="M42.7 284.8l0 .3c0 65.4 0 98.1 16 121.5c6.9 10.2 15.8 18.9 26.2 25.7C108.7 448 142 448 208.6 448l94.8 0c66.6 0 99.9 0 123.8-15.7c10.4-6.8 19.2-15.5 26.2-25.7c16-23.5 16-56.2 16-121.5s0-98.1-16-121.5c-6.9-10.2-15.8-18.9-26.2-25.7c-15.4-10.1-34.6-13.7-64.1-15c-14.1 0-26.2-10.5-28.9-24C330.1 78.6 311.9 64 290.9 64l-69.7 0c-21.1 0-39.2 14.6-43.4 34.9c-2.8 13.5-14.9 24-28.9 24c-29.5 1.3-48.7 4.9-64.1 15c-10.4 6.8-19.2 15.5-26.2 25.7c-16 23.4-16 56.1-16 121.2zm298.7-7.5a85.3 85.3 0 1 1 -170.7 0 85.3 85.3 0 1 1 170.7 0zm26.7-64c0-8.8 7.2-16 16-16l21.3 0c8.8 0 16 7.2 16 16s-7.2 16-16 16l-21.3 0c-8.8 0-16-7.2-16-16z"/><path class="fa-primary" d="M170.7 277.3a85.3 85.3 0 1 1 170.7 0 85.3 85.3 0 1 1 -170.7 0zM272 234.7c0-8.8-7.2-16-16-16s-16 7.2-16 16l0 26.7-26.7 0c-8.8 0-16 7.2-16 16s7.2 16 16 16l26.7 0 0 26.7c0 8.8 7.2 16 16 16s16-7.2 16-16l0-26.7 26.7 0c8.8 0 16-7.2 16-16s-7.2-16-16-16l-26.7 0 0-26.7zm112-37.3c-8.8 0-16 7.2-16 16s7.2 16 16 16h21.3c8.8 0 16-7.2 16-16s-7.2-16-16-16H384z"/></svg>