<svg xmlns="http://www.w3.org/2000/svg" viewBox="0 0 512 512"><!--!Font Awesome Pro 6.6.0 by @fontawesome - https://fontawesome.com License - https://fontawesome.com/license (Commercial License) Copyright 2024 Fonticons, Inc.--><path class="fa-secondary" opacity=".4" d="M188.2 341.3c.2 .4 .4 .9 .6 1.3c3.2 7.8 3.2 16.6 3.2 34l0 28.7 0 21.3c0 20.1 0 30.2 6.2 36.4s16.3 6.2 36.4 6.2l42.7 0c20.2 0 30.2 0 36.4-6.2c6.2-6.2 6.2-16.3 6.2-36.4l0-50c0-17.4 0-26.2 3.2-34c.2-.5 .4-.9 .6-1.3l-135.7 0zm51.8 64c0-8.8 7.2-16 16-16s16 7.2 16 16l0 21.3c0 8.8-7.2 16-16 16s-16-7.2-16-16l0-21.3z"/><path class="fa-primary" d="M256 389.3c8.8 0 16 7.2 16 16l0 21.3c0 8.8-7.2 16-16 16s-16-7.2-16-16l0-21.3c0-8.8 7.2-16 16-16zm89-73l69.2-69.2c5.8-5.8 8.9-8.9 10.6-12.5H87.2c1.7 3.6 4.8 6.7 10.6 12.5L167 316.3c11.6 11.6 17.8 17.8 21.2 25H323.8c3.4-7.2 9.5-13.4 21.2-25zM272 42.7c0-8.8-7.2-16-16-16s-16 7.2-16 16v64c0 8.8 7.2 16 16 16s16-7.2 16-16v-64zm-132.7 10c-6.2-6.2-16.4-6.2-22.6 0s-6.2 16.4 0 22.6L159.4 118c6.2 6.2 16.4 6.2 22.6 0s6.2-16.4 0-22.6L139.3 52.7zm256 0c-6.2-6.2-16.4-6.2-22.6 0L330 95.4c-6.2 6.2-6.2 16.4 0 22.6s16.4 6.2 22.6 0l42.7-42.7c6.2-6.2 6.2-16.4 0-22.6z"/></svg>