<svg xmlns="http://www.w3.org/2000/svg" viewBox="0 0 512 512"><!--!Font Awesome Pro 6.6.0 by @fontawesome - https://fontawesome.com License - https://fontawesome.com/license (Commercial License) Copyright 2024 Fonticons, Inc.--><path class="fa-secondary" opacity=".4" d="M42.7 256c0 100.6 0 150.9 31.2 182.1s81.5 31.2 182.1 31.2s150.9 0 182.1-31.2c31.2-31.2 31.2-81.3 31.2-181.3l0-.8c0-100.6 0-150.8-31.2-182.1S356.6 42.7 256 42.7s-150.8 0-182.1 31.2S42.7 155.4 42.7 256zm112 0c0-8.8 7.2-16 16-16l132 0L266 203.3c-6.2-6.2-6.2-16.4 0-22.6c3.1-3.1 7.2-4.7 11.3-4.7s8.2 1.6 11.3 4.7l64 64c3 3 4.7 7.1 4.7 11.3s-1.7 8.3-4.7 11.3l-64 64c-3.1 3.1-7.2 4.7-11.3 4.7s-8.2-1.6-11.3-4.7c-6.2-6.2-6.2-16.4 0-22.6L302.7 272l-132 0c-8.8 0-16-7.2-16-16z"/><path class="fa-primary" d="M170.7 240c-8.8 0-16 7.2-16 16s7.2 16 16 16h132L266 308.7c-6.2 6.2-6.2 16.4 0 22.6s16.4 6.2 22.6 0l64-64c3-3 4.7-7.1 4.7-11.3s-1.7-8.3-4.7-11.3l-64-64c-6.2-6.2-16.4-6.2-22.6 0s-6.2 16.4 0 22.6L302.7 240h-132z"/></svg>