<svg xmlns="http://www.w3.org/2000/svg" viewBox="0 0 512 512"><!--!Font Awesome Pro 6.5.2 by @fontawesome - https://fontawesome.com License - https://fontawesome.com/license (Commercial License) Copyright 2024 Fonticons, Inc.--><path d="M371.6 296.8l-64-32a8 8 0 0 0 -8 .5l-33.3 22.2a89.1 89.1 0 0 1 -41.8-41.8l22.2-33.3a8 8 0 0 0 .5-8l-32-64A8 8 0 0 0 208 136a72 72 0 0 0 -72 72 168.2 168.2 0 0 0 168 168 72 72 0 0 0 72-72 8 8 0 0 0 -4.4-7.2M304 360A152.2 152.2 0 0 1 152 208a56 56 0 0 1 51.2-55.8l27.6 55.2-22 33.1A8 8 0 0 0 208 248a104.9 104.9 0 0 0 56 56 8 8 0 0 0 7.5-.7l33.1-22 55.2 27.6A56 56 0 0 1 304 360M256 56A200 200 0 0 0 81.1 353l-23.8 71.4a24 24 0 0 0 30.4 30.4l71.4-23.8A200 200 0 1 0 256 56m0 384a184 184 0 0 1 -92.1-24.7 8.1 8.1 0 0 0 -4-1.1 7.9 7.9 0 0 0 -2.5 .4l-74.8 24.9a8 8 0 0 1 -10.1-10.1l24.9-74.8a8 8 0 0 0 -.7-6.5A184 184 0 1 1 256 440"/></svg>