<svg xmlns="http://www.w3.org/2000/svg" viewBox="0 0 512 512"><!--!Font Awesome Pro 6.6.0 by @fontawesome - https://fontawesome.com License - https://fontawesome.com/license (Commercial License) Copyright 2024 Fonticons, Inc.--><path class="fa-secondary" opacity=".4" d="M47.5 171.2c23.9-23.8 52.6-52.4 66.4-58.2c9-3.7 18.5-5.6 27.9-5.6c3.4 0 6.8 .2 10.2 .7c11.7 1.7 22.7 7.7 40.7 19.1l-54.3 54.1c-10 9.9-19.1 19.1-26.3 27.3c-4.6 5.3-9.3 11.1-13.2 17.5l-.5-.5c-1-1-1.5-1.5-2-2c-9.4-9.1-20.5-16.4-32.7-21.4c-.6-.3-1.3-.5-2.6-1.1L53 197.9c-10.9-4.3-13.9-18.4-5.5-26.7zM285.4 412c6.1-3.7 11.7-8.1 16.7-12.5c8.5-7.3 17.8-16.6 28-26.8l54.4-54.3c11.4 18 17.4 28.9 19.1 40.6c.5 3.4 .7 6.8 .7 10.2c0 9.4-1.9 18.9-5.6 27.8c-5.8 13.8-34.5 42.4-58.4 66.2l-1.8 1.8c-7.4 7.4-20.2 4.8-24-4.8c-4.7-11.8-7.1-17.8-10.1-23.3c-2.7-4.9-5.8-9.6-9.3-14c-2.6-3.3-5.5-6.5-9.9-10.9z"/><path class="fa-primary" d="M308.2 349.4L432.9 225c18-17.9 26.9-26.9 31.7-38.3s4.7-24.1 4.7-49.4l0-12.1c0-38.9 0-58.4-12.1-70.5s-31.7-12.1-70.7-12.1l-12.1 0c-25.4 0-38.1 0-49.5 4.7s-20.4 13.7-38.4 31.6L161.7 203.3c-21 20.9-34 33.9-39 46.4c-1.6 4-2.4 7.9-2.4 12c0 17.1 13.8 30.9 41.4 58.4l3.7 3.7 43.5-44.1c6.2-6.3 16.3-6.4 22.6-.2s6.4 16.3 .2 22.6l-43.6 44.3 2.9 2.9c27.6 27.5 41.4 41.3 58.6 41.3c3.8 0 7.4-.7 11.1-2c12.9-4.7 26-17.8 47.5-39.3zm0-204.5a41.4 41.4 0 1 1 58.6 58.4 41.4 41.4 0 1 1 -58.6-58.4z"/></svg>