<svg xmlns="http://www.w3.org/2000/svg" viewBox="0 0 512 512"><!--!Font Awesome Pro 6.6.0 by @fontawesome - https://fontawesome.com License - https://fontawesome.com/license (Commercial License) Copyright 2024 Fonticons, Inc.--><path class="fa-secondary" opacity=".4" d="M42.9 276.7c-.3 1.2-.5 3.2 1.5 7.8c2.1 4.9 5.8 11.2 11.5 20.8s9.4 15.8 12.8 20.1c3.2 4 5 4.9 6.4 5.3c1.4 .4 3.6 .5 8.4-1.5c5.1-2 11.6-5.6 21.5-11.2l72-40.4c-3.4-4.8-6.9-10.7-10.8-17.2l-14.1-23.7c-4.3-7.2-8-13.5-10.7-19.1L68.9 258.1c-9.9 5.5-16.3 9.2-20.7 12.5c-4.1 3.1-5 4.9-5.4 6.1zM275.6 119.7c-.3 1.2-.5 3 1.5 7.5c2.1 4.8 5.7 10.9 11.2 20.3l25.2 42.3c5.4 9.2 9 15.1 12.2 19.1c3 3.8 4.6 4.5 5.8 4.8s3 .5 7.5-1.3c4.8-1.9 10.8-5.3 20.2-10.5l83.9-47c9.9-5.5 16.3-9.2 20.7-12.5c4.1-3.1 5-4.9 5.4-6.1c.1-.4 .2-.9 .2-1.5c0-1.3-.4-3.2-1.7-6.3c-2.1-5-5.8-11.2-11.5-20.8L432.6 68.2c-5.7-9.6-9.4-15.8-12.8-20.1c-3.2-4-5-4.9-6.4-5.3c-.5-.1-1-.2-1.7-.2c-1.4 0-3.4 .4-6.7 1.7c-5.1 2-11.6 5.6-21.5 11.2l-82.7 46.3c-9.6 5.4-15.8 8.9-20 12.1c-4 3-4.8 4.7-5.1 5.8z"/><path class="fa-primary" d="M184.3 180.3l73.6-41.2c2.7 5.6 6.5 12 10.7 19.1l25.9 43.5c3.9 6.6 7.4 12.4 10.8 17.2l-33 18.5 89.1 208.8c3.6 8.5-.4 18.2-9 21.8s-18.4-.4-22.1-8.9L256 285 181.7 459.2c-3.6 8.5-13.5 12.4-22.1 8.9s-12.6-13.3-9-21.8l78.9-184.9c-8.6 4.8-14.3 7.9-18.8 9.7c-4.5 1.8-6.3 1.6-7.5 1.3s-2.8-1.1-5.8-4.8c-3.2-4-6.7-9.9-12.2-19.1L171.9 226c-5.6-9.4-9.2-15.5-11.2-20.3c-1.9-4.5-1.8-6.4-1.5-7.5s1.1-2.8 5.1-5.8c4.2-3.2 10.4-6.7 20-12.1z"/></svg>