<svg xmlns="http://www.w3.org/2000/svg" viewBox="0 0 512 512"><!--!Font Awesome Pro 6.6.0 by @fontawesome - https://fontawesome.com License - https://fontawesome.com/license (Commercial License) Copyright 2024 Fonticons, Inc.--><path class="fa-secondary" opacity=".4" d="M72 143.9c8.5-2.6 17.3-4.3 26.3-5.4c23-3 52.2-3 86-3l147 0c33.8 0 63 0 86 3c8.9 1.1 17.8 2.8 26.3 5.4c-.2-.5-.3-1-.5-1.5c-8.1-23.8-32.4-41.7-62.1-41.7l-246.4 0c-29.7 0-54 17.9-62.1 41.7c-.2 .5-.3 1-.5 1.5zm46.3-65.3l275.4 0c-8.2-19.1-27.5-33.3-51.2-35.7c-3.3-.3-7.1-.3-12.1-.3l-148.9 0-.9 0c-4.5 0-8.1 0-11.2 .3c-23.6 2.3-43 16.5-51.2 35.7z"/><path class="fa-primary" d="M327 160.9l-142 0c-72 0-108 0-128.2 21.1S41.3 235.5 50.8 300.6l9 61.7c7.5 51 11.2 76.5 30.3 91.8s47.4 15.3 103.8 15.3l123.9 0c56.5 0 84.7 0 103.8-15.3s22.9-40.8 30.3-91.8l9-61.7c9.5-65 14.3-97.6-5.9-118.6S399 160.9 327 160.9zm-15.9 176l-71.9 44.6c-11.6 7.2-25.8-2.2-25.8-16.9l0-89.2c0-14.8 14.2-24.1 25.8-16.9l71.9 44.6c11.9 7.4 11.9 26.5 0 33.9z"/></svg>