<svg xmlns="http://www.w3.org/2000/svg" viewBox="0 0 512 512"><!--!Font Awesome Pro 6.6.0 by @fontawesome - https://fontawesome.com License - https://fontawesome.com/license (Commercial License) Copyright 2024 Fonticons, Inc.--><path class="fa-secondary" opacity=".4" d="M149.3 128l0 1.6c16.5-1.6 37.3-1.6 64-1.6l85.3 0c26.7 0 47.5 0 64 1.6l0-1.6c0-40.2 0-60.3-12.5-72.8c-12.5-12.5-32.5-12.5-72.6-12.5l-.3 0-42.7 0c-40.2 0-60.3 0-72.8 12.5s-12.5 32.6-12.5 72.8z"/><path class="fa-primary" d="M213.3 128l85.3 0c60.3 0 90.5 0 109.3 18.7s18.7 48.9 18.7 109.3l0 22.5c0 51.3 0 77-12.7 97.6s-35.7 32.1-81.6 55c-37.5 18.7-56.2 28.1-76.3 28.1s-38.9-9.4-76.3-28.1c-45.9-23-68.9-34.4-81.6-55s-12.7-46.3-12.7-97.6l0-22.5c0-60.3 0-90.5 18.7-109.3S153 128 213.3 128zM256 213.3c-6.1 0-10.1 7.3-18.2 21.8l-2.1 3.8c-2.3 4.1-3.5 6.2-5.3 7.6s-4 1.9-8.5 2.9l-4.1 .9c-15.7 3.6-23.6 5.3-25.5 11.4s3.5 12.3 14.2 24.8l2.8 3.2c3 3.6 4.6 5.3 5.3 7.6s.5 4.6 0 9.3l-.4 4.3c-1.6 16.7-2.4 25.1 2.5 28.8s12.3 .3 27-6.5l3.8-1.8c4.2-1.9 6.3-2.9 8.5-2.9s4.3 1 8.5 2.9l3.8 1.8c14.7 6.8 22.1 10.2 27 6.5s4.1-12.1 2.5-28.8l-.4-4.3c-.5-4.8-.7-7.1 0-9.3s2.2-4 5.3-7.6l2.8-3.2c10.7-12.6 16.1-18.8 14.2-24.8s-9.7-7.8-25.5-11.4l-4.1-.9c-4.5-1-6.7-1.5-8.5-2.9s-2.9-3.4-5.3-7.6l-2.1-3.8c-8.1-14.5-12.2-21.8-18.2-21.8z"/></svg>