<svg xmlns="http://www.w3.org/2000/svg" viewBox="0 0 512 512"><!--!Font Awesome Pro 6.6.0 by @fontawesome - https://fontawesome.com License - https://fontawesome.com/license (Commercial License) Copyright 2024 Fonticons, Inc.--><path class="fa-secondary" opacity=".4" d="M42.7 96l0 320c0 8.8 7.3 16 16.4 16s16.4-7.2 16.4-16l0-320c0-8.8-7.3-16-16.4-16S42.7 87.2 42.7 96zm393.8 0l0 320c0 8.8 7.3 16 16.4 16s16.4-7.2 16.4-16l0-320c0-8.8-7.3-16-16.4-16s-16.4 7.2-16.4 16z"/><path class="fa-primary" d="M124.7 170.7c0-60.3 0-90.5 19.2-109.3S194.1 42.7 256 42.7s92.8 0 112.1 18.7s19.2 48.9 19.2 109.3V341.3c0 60.3 0 90.5-19.2 109.3s-50.2 18.7-112.1 18.7s-92.8 0-112.1-18.7s-19.2-48.9-19.2-109.3V170.7z"/></svg>