<svg xmlns="http://www.w3.org/2000/svg" viewBox="0 0 512 512"><!--!Font Awesome Pro 6.5.2 by @fontawesome - https://fontawesome.com License - https://fontawesome.com/license (Commercial License) Copyright 2024 Fonticons, Inc.--><path class="fa-secondary" opacity=".4" d="M70.5 145c-8.7 75.8-8.7 152.3 0 228.1c5.3 46.1 41.5 82.5 87.6 88.2l21.7 2.7c10.6 1.3 15.8 2 21.1 2.5c18.3 1.9 36.7 2.9 55.1 2.9s36.8-1 55.2-2.9c5.2-.5 10.5-1.2 21.1-2.5l19.3-2.4c47.4-5.8 84.6-43.4 89.9-90.9l.4-3.3c8.4-75.7 8.2-152.1-.7-227.7c-5.2-43.6-38.1-78.7-81.3-86.7L353 51.6c-64.1-12-129.8-12-193.9 0l-4.6 .9C109.9 60.8 76 97.1 70.8 142l-.3 2.9zm62.8-17c0-3.6 1.2-7.3 3.7-10.3c5.7-6.8 15.8-7.7 22.5-2C171.9 126 206.4 144 256 144s84.1-18 96.4-28.3c6.8-5.6 16.8-4.7 22.4 2.1c2.5 3 3.7 6.6 3.7 10.3c0 4.5-1.9 9-5.6 12.2C354.6 155.7 312.7 176 256 176s-98.6-20.3-116.9-35.7c-3.8-3.2-5.7-7.7-5.7-12.3z"/><path class="fa-primary" d="M159.6 115.7a16 16 0 1 0 -20.6 24.5C157.4 155.7 199.3 176 256 176s98.6-20.3 116.9-35.7a16 16 0 0 0 -20.5-24.5C340.1 126 305.6 144 256 144s-84.1-18-96.4-28.3"/></svg>