<svg xmlns="http://www.w3.org/2000/svg" viewBox="0 0 512 512"><!--!Font Awesome Pro 6.6.0 by @fontawesome - https://fontawesome.com License - https://fontawesome.com/license (Commercial License) Copyright 2024 Fonticons, Inc.--><path class="fa-secondary" opacity=".4" d="M240 138.7a101.3 101.3 0 1 1 -202.7 0 101.3 101.3 0 1 1 202.7 0zM474.7 373.3a101.3 101.3 0 1 1 -202.7 0 101.3 101.3 0 1 1 202.7 0z"/><path class="fa-primary" d="M474.7 138.7a101.3 101.3 0 1 0 -202.7 0 101.3 101.3 0 1 0 202.7 0zM240 373.3a101.3 101.3 0 1 0 -202.7 0 101.3 101.3 0 1 0 202.7 0z"/></svg>