<svg xmlns="http://www.w3.org/2000/svg" viewBox="0 0 640 512"><!--!Font Awesome Pro 6.6.0 by @fontawesome - https://fontawesome.com License - https://fontawesome.com/license (Commercial License) Copyright 2024 Fonticons, Inc.--><path class="fa-secondary" opacity=".4" d="M0 403.2C0 445.6 34.4 480 76.8 480l410.6 0L365.5 384 19.2 384C8.6 384 0 392.6 0 403.2zM64 146.4L64 352l64 0 0-155.1L64 146.4zM75.1 60.1L128 102.4l0-6.4 384 0 0 256 64 0 0-256c0-35.3-28.7-64-64-64L128 32c-22 0-41.4 11.1-52.9 28.1zM480 384l112.7 90.1c27.8-11.6 47.3-39 47.3-70.9c0-10.6-8.6-19.2-19.2-19.2L480 384z"/><path class="fa-primary" d="M5.1 9.2C13.3-1.2 28.4-3.1 38.8 5.1l592 464c10.4 8.2 12.3 23.3 4.1 33.7s-23.3 12.3-33.7 4.1L9.2 42.9C-1.2 34.7-3.1 19.6 5.1 9.2z"/></svg>