<svg xmlns="http://www.w3.org/2000/svg" viewBox="0 0 512 512"><!--!Font Awesome Pro 6.6.0 by @fontawesome - https://fontawesome.com License - https://fontawesome.com/license (Commercial License) Copyright 2024 Fonticons, Inc.--><path class="fa-secondary" opacity=".4" d="M256 42.7a213.3 213.3 0 1 0 0 426.7 213.3 213.3 0 1 0 0-426.7zm16 106.7l0 213.3c0 8.8-7.2 16-16 16s-16-7.2-16-16l0-213.3c0-8.8 7.2-16 16-16s16 7.2 16 16zM165.3 192l0 128c0 8.8-7.2 16-16 16s-16-7.2-16-16l0-128c0-8.8 7.2-16 16-16s16 7.2 16 16zm213.3 21.3l0 85.3c0 8.8-7.2 16-16 16s-16-7.2-16-16l0-85.3c0-8.8 7.2-16 16-16s16 7.2 16 16zM256 133.3c8.8 0 16 7.2 16 16V362.7c0 8.8-7.2 16-16 16s-16-7.2-16-16V149.3c0-8.8 7.2-16 16-16zM149.3 176c8.8 0 16 7.2 16 16V320c0 8.8-7.2 16-16 16s-16-7.2-16-16V192c0-8.8 7.2-16 16-16zm213.3 21.3c8.8 0 16 7.2 16 16v85.3c0 8.8-7.2 16-16 16s-16-7.2-16-16V213.3c0-8.8 7.2-16 16-16z"/><path class="fa-primary" d="M256 133.3c8.8 0 16 7.2 16 16V362.7c0 8.8-7.2 16-16 16s-16-7.2-16-16V149.3c0-8.8 7.2-16 16-16zM149.3 176c8.8 0 16 7.2 16 16V320c0 8.8-7.2 16-16 16s-16-7.2-16-16V192c0-8.8 7.2-16 16-16zm213.3 21.3c8.8 0 16 7.2 16 16v85.3c0 8.8-7.2 16-16 16s-16-7.2-16-16V213.3c0-8.8 7.2-16 16-16z"/></svg>