<svg xmlns="http://www.w3.org/2000/svg" viewBox="0 0 512 512"><!--!Font Awesome Pro 6.6.0 by @fontawesome - https://fontawesome.com License - https://fontawesome.com/license (Commercial License) Copyright 2024 Fonticons, Inc.--><path class="fa-secondary" opacity=".4" d="M42.7 169.9C44.7 205.8 60 282.9 145.4 372.8C236 468.2 321 472 355.8 468.5c11-1.1 20.6-7 28.3-15.1l30.3-31.9c8.4-8.8 12.3-20.2 12.3-31.6c0-16.5-8.3-33.1-23.8-42l-40.8-23.5c-17.2-9.9-38.1-7-51.6 7.2l-9.7 10.2s-23.1 24.3-86.1-42.1s-39.9-90.7-39.9-90.7l6.1-6.4c15.1-15.9 16.5-41.3 3.3-59.9l-26.9-38c-16.3-23-47.7-26.1-66.4-6.4L57.4 133.6c-9.3 9.7-15.4 22.4-14.7 36.4z"/><path class="fa-primary" d="M469.3 149.3c0 58.9-47.8 106.7-106.7 106.7c-17.1 0-33.2-4-47.5-11.1c-3.8-1.9-8.1-2.5-12.2-1.4l-23.7 6.4c-10.3 2.8-19.7-6.7-17-17l6.4-23.7c1.1-4.1 .5-8.4-1.4-12.2C260 182.5 256 166.4 256 149.3c0-58.9 47.8-106.7 106.7-106.7s106.7 47.8 106.7 106.7zM362.7 102.7c-11 0-20 9-20 20l0 6.7-6.7 0c-11 0-20 9-20 20s9 20 20 20l6.7 0 0 6.7c0 11 9 20 20 20s20-9 20-20l0-6.7 6.7 0c11 0 20-9 20-20s-9-20-20-20l-6.7 0 0-6.7c0-11-9-20-20-20z"/></svg>