<svg xmlns="http://www.w3.org/2000/svg" viewBox="0 0 512 512"><!--!Font Awesome Pro 6.6.0 by @fontawesome - https://fontawesome.com License - https://fontawesome.com/license (Commercial License) Copyright 2024 Fonticons, Inc.--><path class="fa-secondary" opacity=".4" d="M350.3 273.9a29.8 29.8 0 1 0 59.5 0 29.8 29.8 0 1 0 -59.5 0z"/><path class="fa-primary" d="M393.5 65.6c-22.6-7.1-43.3 11-43.3 33l0 77.3c-27.7 5.4-59.8 8.5-94.3 8.5s-66.6-3.1-94.3-8.5l0-77.3c0-22-20.7-40.1-43.3-33C97.5 72.1 79.4 80.4 66.2 90.5c-13 9.9-23.5 23.4-23.5 40.3l0 254.9c0 4.6 .8 9 2.2 13.1c1.3 3.7 3.1 7.2 5.2 10.5C57 419.8 68 428.4 80.8 435.4c13 7.1 28.8 13.2 46.6 18.2c35.6 9.9 80.3 15.8 128.6 15.8c40.6 0 78.5-4.1 110.7-11.3c31.8-7.1 59.2-17.5 77.4-30.8c4.4-3.2 8.6-6.9 12.3-10.9c7.7-8.5 12.9-18.7 12.9-30.6l0-254.9c0-16.9-10.5-30.4-23.5-40.3c-13.2-10.1-31.3-18.4-52.3-24.9zm46 109.9l0 210.2c0 2.2-.9 5.3-4.2 9.3l-40.6-35.3c-21.1-18.3-52.2-20.1-75.4-4.4l-4.6 3.1c-6.5 4.4-15.4 3.6-20.8-1.7l-65.9-63.7c-18.7-18-48.3-18.9-68.1-2.2l-27.2 23L72.4 371l0-195.5c.6 .4 1.2 .7 1.7 1.1c17.5 11 41.6 19.8 69.4 26.2c32.5 7.4 71.1 11.7 112.4 11.7s79.9-4.3 112.4-11.7c27.8-6.3 51.9-15.2 69.4-26.2c.6-.4 1.2-.7 1.7-1.1z"/></svg>