<svg xmlns="http://www.w3.org/2000/svg" viewBox="0 0 512 512"><!--!Font Awesome Pro 6.6.0 by @fontawesome - https://fontawesome.com License - https://fontawesome.com/license (Commercial License) Copyright 2024 Fonticons, Inc.--><path class="fa-secondary" opacity=".4" d="M42.7 253.8l0 1 0 1.2c0 10.5 0 20.4 0 29.8c.2 36.9 .9 66.6 5.2 90.5c4.3 24.3 12.5 43.9 28.2 59.6c17.8 17.8 40.4 25.8 69.1 29.7c28 3.8 63.8 3.8 109.4 3.8l.3 0 2.3 0c45.8 0 81.7 0 109.7-3.8c28.7-3.9 51.3-11.9 69.1-29.7c6.3-6.3 11.4-13.2 15.6-21c9.5-17.6 13.7-38.8 15.8-64.2c1.8-21.9 2-48.5 2.1-79.9c0-8.2-6.7-14.9-14.9-14.9s-14.9 6.7-14.9 14.9c0 31.5-.3 56.7-2 77.4c-1.8 22-5.1 37.6-10.8 49.5l-56.2-50.6c-20.6-18.6-51.4-20.4-74.1-4.5l-5.9 4.2c-15.8 11.1-37.2 9.2-50.9-4.4l-85.1-85.1c-17-17-44.2-17.9-62.3-2.1L72.4 272.7c0-5.4 0-11 0-16.7c0-47.2 0-81.1 3.5-106.9c3.4-25.4 9.9-40.7 21.2-52s26.6-17.8 52-21.2c23-3.1 52.4-3.5 92-3.5c8.2 0 14.9-6.7 14.9-14.9s-6.7-14.9-14.9-14.9c-39 0-71.1 .4-96 3.8c-28.7 3.9-51.3 11.9-69.1 29.7s-25.8 40.4-29.7 69.1c-3.7 27.8-3.8 63.4-3.8 108.7z"/><path class="fa-primary" d="M373.3 234.7c-45.3 0-67.9 0-81.9-14.1s-14.1-36.7-14.1-81.9s0-67.9 14.1-81.9s36.7-14.1 81.9-14.1s67.9 0 81.9 14.1s14.1 36.7 14.1 81.9s0 67.9-14.1 81.9s-36.7 14.1-81.9 14.1zm-31-59.4c12.7 11.2 19.1 16.7 31 16.7s18.3-5.6 31-16.7c16.3-14.3 33-33.4 33-51.6c0-37.8-35.2-51.9-64-22.7c-28.8-29.2-64-15.1-64 22.7c0 18.2 16.7 37.3 33 51.6z"/></svg>