<svg xmlns="http://www.w3.org/2000/svg" viewBox="0 0 512 512"><!--!Font Awesome Pro 6.6.0 by @fontawesome - https://fontawesome.com License - https://fontawesome.com/license (Commercial License) Copyright 2024 Fonticons, Inc.--><path class="fa-secondary" opacity=".4" d="M162.4 377.5c8.4 10.1 30.1 23.8 36.8 27.8c22.2 14.5 40.5 26.1 56.1 33c10.4 4.6 20.8 7.7 31.3 7.7c5.4 0 10.8-.8 16.1-2.7c5.8-2 11.4-4.8 16.4-8.3c15.1-10.6 21.4-27.3 24.9-46.5c3.4-18.9 4.6-43.9 6-75l.1-1.2c1.1-23.8 1.9-44.5 1.9-56.3c0-.6 0-1.4 0-2.3c.1-12.1 .3-51.8-5.6-60.1l-184 184zm212.9-65.3l-.1 .2c-4.1 7.7-1.3 17.3 6.3 21.6c7.7 4.3 17.5 1.5 21.8-6.2c.1-.2 .1-.2 .1-.3l.2-.4c.2-.3 .3-.7 .6-1.1c.4-.9 1-2.2 1.6-3.7c1.3-3.1 2.8-7.6 4.3-13.5c3-11.8 5.8-29.1 5.8-52.8c0-19.4-1.9-34.6-4.2-45.9c-1.8-8.7-10.3-14.2-18.9-12.4s-14.2 10.3-12.4 18.9c1.9 9.1 3.6 22.1 3.6 39.4c0 21.1-2.5 35.8-4.8 44.8c-1.2 4.5-2.3 7.7-3 9.5c-.4 .9-.7 1.5-.8 1.8zm44.4 61.6c-5.6 6.9-4.7 16.9 2.1 22.5c6.8 5.7 16.9 4.7 22.5-2.1c.2-.2 .2-.3 .3-.3c.1-.2 .3-.3 .5-.6c.4-.5 .8-1.1 1.4-1.9c1.1-1.6 2.6-3.8 4.3-6.6c3.5-5.8 7.9-14.2 12.2-25.5C471.6 336.7 480 302.8 480 256c0-54.2-11.2-91.2-21.2-113.2c-3.6-8.1-13.1-11.6-21.2-8s-11.6 13.1-8 21.2c8.1 18 18.4 50.5 18.4 100.1c0 42.8-7.6 72.9-14.9 91.9c-3.7 9.5-7.2 16.3-9.8 20.5c-1.3 2.1-2.3 3.6-2.9 4.5c-.2 .2-.3 .4-.4 .6l-.2 .3z"/><path class="fa-primary" d="M464.6 75.3c6.2-6.2 6.2-16.4 0-22.6s-16.4-6.2-22.6 0l-94.9 94.9c-1-11.2-2.3-21.1-4.1-29.6c-3.7-16.8-10.2-31.4-23.8-41c-5-3.5-10.6-6.4-16.4-8.3c-17.5-6-34.8-1.2-52.4 7.4c-17.4 8.4-38.4 22.3-64.7 39.6l-5.7 3.8c-9.6 6.3-12.8 8.4-16.2 9.9c-3.6 1.6-7.5 2.8-11.4 3.4c-3.7 .6-7.6 .7-19 .7l-3.4 0c-26 0-44 0-60 7.4C55 147.6 40.8 161 33 175.4c-8.4 15.5-9.4 31.8-10.8 54.9l-.2 2.8c-.5 7.9-.8 15.6-.8 22.9s.3 15.1 .8 22.9l.2 2.8c1.4 23.1 2.4 39.4 10.8 54.9c7.7 14.4 22 27.8 36.8 34.7c13 6 27.4 7.2 46.2 7.4L58 436.7c-6.2 6.2-6.2 16.4 0 22.6s16.4 6.2 22.6 0l384-384z"/></svg>