<svg xmlns="http://www.w3.org/2000/svg" viewBox="0 0 512 512"><!--!Font Awesome Pro 6.6.0 by @fontawesome - https://fontawesome.com License - https://fontawesome.com/license (Commercial License) Copyright 2024 Fonticons, Inc.--><path class="fa-secondary" opacity=".4" d="M234.7 85.3l0 341.3 42.7 0 0-341.3-42.7 0z"/><path class="fa-primary" d="M170.7 42.7l-1.4 0c-18.9 0-35.2 0-48.3 1.8c-14 1.9-27.4 6.1-38.3 17s-15.1 24.3-17 38.3C64 112.7 64 129 64 147.9l0 1.4 0 20.3c0 11.8 9.6 21.3 21.3 21.3s21.3-9.6 21.3-21.3l0-20.3c0-20.7 0-34.1 1.4-44c1.2-9.3 3.3-12.2 4.9-13.8s4.5-3.6 13.8-4.9c9.9-1.3 23.3-1.4 44-1.4l64 0 42.7 0 64 0c20.7 0 34.1 0 44 1.4c9.3 1.2 12.2 3.3 13.8 4.9s3.6 4.5 4.9 13.8c1.3 9.9 1.4 23.3 1.4 44l0 20.3c0 11.8 9.6 21.3 21.3 21.3s21.3-9.6 21.3-21.3l0-21.7c0-18.9 0-35.2-1.8-48.3c-1.9-14-6.1-27.4-17-38.3S405 46.3 391 44.4c-13-1.8-29.3-1.8-48.3-1.8l-172.1 0zM128 448c0-11.8 9.6-21.3 21.3-21.3l213.3 0c11.8 0 21.3 9.6 21.3 21.3s-9.6 21.3-21.3 21.3l-213.3 0c-11.8 0-21.3-9.6-21.3-21.3z"/></svg>