<svg xmlns="http://www.w3.org/2000/svg" viewBox="0 0 512 512"><!--!Font Awesome Pro 6.6.0 by @fontawesome - https://fontawesome.com License - https://fontawesome.com/license (Commercial License) Copyright 2024 Fonticons, Inc.--><path class="fa-secondary" opacity=".4" d="M42.7 293.6c0 49.9 40.9 90.4 91.4 90.4l63.1 0c2.1-3.2 4.9-7 8.2-11.4l24.5-33.2c14.4-19.6 22.3-30.2 29.2-30.2c.7 0 1.3 .1 2 .3c7.4 2.3 7.4 15.4 7.4 41.7l0 2.5c0 9.5 0 14.2 3 17.2l.2 .2c3.1 2.9 8 2.9 17.9 2.9c17.8 0 26.6 0 29.6 5.4c0 .1 .1 .2 .1 .3c.5 1 .8 2.1 .8 3.2c0 .4 0 .8-.1 1.2l27.5 0c67.3 0 121.9-53.9 121.9-120.5c0-52.7-34.3-97.6-82-113.9c-6.8-60.2-58.4-107-121.1-107c-67.3 0-121.9 53.9-121.9 120.5c0 14.7 2.7 28.8 7.6 41.9c-5.7-1.1-11.7-1.7-17.7-1.7c-50.5 0-91.4 40.5-91.4 90.4z"/><path class="fa-primary" d="M205.4 372.6l24.5-33.2c15.8-21.4 23.8-32.2 31.1-29.9s7.4 15.4 7.4 41.7v2.5c0 9.5 0 14.2 3 17.2l.2 .2c3.1 2.9 8 2.9 17.9 2.9c17.8 0 26.6 0 29.6 5.4c0 .1 .1 .2 .1 .3c2.8 5.5-2.3 12.4-12.6 26.3l-24.5 33.2c-15.8 21.4-23.8 32.2-31.1 29.9s-7.4-15.4-7.4-41.7l0-2.5c0-9.5 0-14.2-3-17.2l-.2-.2c-3.1-2.9-8-2.9-17.9-2.9c-17.8 0-26.6 0-29.6-5.4c0-.1-.1-.2-.1-.3c-2.8-5.5 2.3-12.4 12.6-26.3z"/></svg>