<svg xmlns="http://www.w3.org/2000/svg" viewBox="0 0 512 512"><!--!Font Awesome Pro 6.6.0 by @fontawesome - https://fontawesome.com License - https://fontawesome.com/license (Commercial License) Copyright 2024 Fonticons, Inc.--><path class="fa-secondary" opacity=".4" d="M85.4 145.7c.1-22.3 .6-39.3 2.4-53c2.3-17.8 6.6-27.3 13.1-34c4.6-4.8 10.6-8.4 19.8-10.9l0 300c-2.6 .4-5.2 .9-7.6 1.6c-10.1 2.8-19.4 7.3-27.7 13.3l0 57.6c0-2.8 .5-5.6 2.1-9.8c2.7-7.3 3.9-8.5 6.2-10.8c6.9-6.8 16.5-11.9 27.4-14.2c6.2-1.3 14.3-1.5 37.4-1.5l268.2 0 0-37.8-270 0-.8 0 0-302.9c-8.3 .3-15.6 .9-22.2 1.8c-17.3 2.3-26.4 6.6-32.9 13.2s-10.8 15.8-13.1 33.2c-1.8 13.9-2.3 31.2-2.4 54.2zM378.2 45.1c17.3 2.4 26.4 6.8 32.9 13.5s10.8 16.2 13.1 34c1.8 13.7 2.3 30.8 2.4 53c-.1-22.9-.5-40.3-2.4-54.2c-2.3-17.4-6.6-26.6-13.1-33.2s-15.7-10.9-32.9-13.2z"/><path class="fa-primary" d="M158.4 384H426.7c-.1 19.8-.5 34.6-2.4 46.3c-2.3 13.9-6.6 21.3-13.1 26.5s-15.7 8.7-33.1 10.5c-17.8 1.9-41.5 2-75.4 2H208.1c-33.9 0-57.6 0-75.4-2c-17.3-1.9-26.5-5.3-33.1-10.5s-10.8-12.6-13.1-26.5c-.2-1-.3-2.1-.5-3.2c-.9-6.2-1.3-9.3 1.4-16.6s3.9-8.5 6.2-10.8c6.9-6.8 16.5-11.9 27.4-14.2c6.2-1.3 14.3-1.5 37.4-1.5zM156 346.2c.3 0 .5 0 .8 0l270 0V170.2c0-34.9 0-59.2-2.4-77.5c-2.3-17.8-6.6-27.3-13.1-34s-15.7-11.1-32.9-13.5c-17.8-2.5-41.3-2.5-75.1-2.5H208.9c-21.4 0-38.7 0-53 .7V346.2zM120.6 47.8c-9.2 2.5-15.2 6.1-19.8 10.9c-6.5 6.7-10.8 16.2-13.1 34c-2.4 18.3-2.4 42.7-2.4 77.5V362.7c8.3-6 17.6-10.5 27.7-13.3c2.4-.7 5-1.2 7.6-1.6V47.8z"/></svg>