<svg xmlns="http://www.w3.org/2000/svg" viewBox="0 0 512 512"><!--!Font Awesome Pro 6.6.0 by @fontawesome - https://fontawesome.com License - https://fontawesome.com/license (Commercial License) Copyright 2024 Fonticons, Inc.--><path class="fa-secondary" opacity=".4" d="M106.7 192c0 77.1 58.4 140.5 133.3 148.5c5.3 .6 10.6 .8 16 .8s10.7-.3 16-.8c75-8 133.3-71.4 133.3-148.5c0-82.5-66.9-149.3-149.3-149.3s-149.3 66.9-149.3 149.3z"/><path class="fa-primary" d="M240 340.5v38.2H202.7c-8.8 0-16 7.2-16 16s7.2 16 16 16H240v58.7c0 8.8 7.2 16 16 16s16-7.2 16-16V410.7h37.3c8.8 0 16-7.2 16-16s-7.2-16-16-16l-37.3 0V340.5c-5.3 .6-10.6 .8-16 .8s-10.7-.3-16-.8z"/></svg>