<svg xmlns="http://www.w3.org/2000/svg" viewBox="0 0 512 512"><!--!Font Awesome Pro 6.6.0 by @fontawesome - https://fontawesome.com License - https://fontawesome.com/license (Commercial License) Copyright 2024 Fonticons, Inc.--><path class="fa-secondary" opacity=".4" d="M42.7 256c0 18.4 10.6 34.9 31.8 67.8L89 346.5c25.2 39.2 37.8 58.8 57.6 69.5c19.8 10.7 43.5 10.7 90.9 10.7l.2 0 56.3 0c82.7 0 124 0 149.7-25c25.6-24.9 25.7-65 25.7-145.1l0-.5c0-80.5 0-120.7-25.7-145.7c-25.6-24.9-66.9-25-149.2-25l-.5 0-56.3 0c-47.5 0-71.3 0-91.1 10.7s-32.4 30.3-57.6 69.5L74.4 188.2c-21.2 33-31.8 49.5-31.8 67.8zM208 202.7c0-4.1 1.6-8.2 4.7-11.3s7.2-4.7 11.3-4.7s8.2 1.6 11.3 4.7l42 42 42-42c6.2-6.2 16.4-6.2 22.6 0c3.1 3.1 4.7 7.2 4.7 11.3s-1.6 8.2-4.7 11.3l-42 42 42 42c3.1 3.1 4.7 7.2 4.7 11.3s-1.6 8.2-4.7 11.3s-7.2 4.7-11.3 4.7s-8.2-1.6-11.3-4.7l-42-42-42 42c-3.1 3.1-7.2 4.7-11.3 4.7s-8.2-1.6-11.3-4.7c-6.2-6.2-6.2-16.4 0-22.6l42-42-42-42c-3.1-3.1-4.7-7.2-4.7-11.3z"/><path class="fa-primary" d="M235.3 191.4c-6.2-6.2-16.4-6.2-22.6 0s-6.2 16.4 0 22.6l42 42-42 42c-6.2 6.2-6.2 16.4 0 22.6s16.4 6.2 22.6 0l42-42 42 42c6.2 6.2 16.4 6.2 22.6 0s6.2-16.4 0-22.6l-42-42 42-42c6.2-6.2 6.2-16.4 0-22.6s-16.4-6.2-22.6 0l-42 42-42-42z"/></svg>