<svg xmlns="http://www.w3.org/2000/svg" viewBox="0 0 640 512"><!--!Font Awesome Pro 6.6.0 by @fontawesome - https://fontawesome.com License - https://fontawesome.com/license (Commercial License) Copyright 2024 Fonticons, Inc.--><path class="fa-secondary" opacity=".4" d="M32 384l0 64c0 35.3 28.7 64 64 64l432 0L284.3 320 96 320c-35.3 0-64 28.7-64 64zm64 32c0-17.7 14.3-32 32-32s32 14.3 32 32s-14.3 32-32 32s-32-14.3-32-32zm96 0c0-17.7 14.3-32 32-32s32 14.3 32 32s-14.3 32-32 32s-32-14.3-32-32zm4.8-312.2c8.8 10 23.9 10.9 33.9 2.1C271.5 69.8 325.2 48 384 48s112.5 21.8 153.4 57.9c9.9 8.8 25.1 7.8 33.9-2.1s7.8-25.1-2.1-33.9C519.8 26.4 454.9 0 384 0S248.2 26.4 198.9 69.9c-9.9 8.8-10.9 23.9-2.1 33.9zm78 79.4c8.4 10.3 23.5 11.9 33.8 3.5C329.1 170 355.4 160 384 160s54.9 10 75.5 26.7c10.3 8.3 25.4 6.8 33.8-3.5s6.8-25.4-3.5-33.8C460.8 126 424 112 384 112s-76.8 14-105.7 37.4c-10.3 8.3-11.9 23.5-3.5 33.8zM360 248l0 40L599.6 479.7c5.3-9.3 8.4-20.2 8.4-31.7l0-64c0-35.3-28.7-64-64-64l-136 0 0-72c0-13.3-10.7-24-24-24s-24 10.7-24 24z"/><path class="fa-primary" d="M5.1 9.2C13.3-1.2 28.4-3.1 38.8 5.1l592 464c10.4 8.2 12.3 23.3 4.1 33.7s-23.3 12.3-33.7 4.1L9.2 42.9C-1.2 34.7-3.1 19.6 5.1 9.2z"/></svg>