<svg xmlns="http://www.w3.org/2000/svg" viewBox="0 0 640 512"><!--!Font Awesome Pro 6.6.0 by @fontawesome - https://fontawesome.com License - https://fontawesome.com/license (Commercial License) Copyright 2024 Fonticons, Inc.--><path class="fa-secondary" opacity=".4" d="M144 64l0 51.2L496 396.8 496 64c0-35.3-28.7-64-64-64L208 0c-35.3 0-64 28.7-64 64zm0 145.5L144 448c0 35.3 28.7 64 64 64l224 0c23.6 0 44.3-12.9 55.4-32L144 209.5zM272 448c0-8.8 7.2-16 16-16l64 0c8.8 0 16 7.2 16 16s-7.2 16-16 16l-64 0c-8.8 0-16-7.2-16-16z"/><path class="fa-primary" d="M5.1 9.2C13.3-1.2 28.4-3.1 38.8 5.1l592 464c10.4 8.2 12.3 23.3 4.1 33.7s-23.3 12.3-33.7 4.1L9.2 42.9C-1.2 34.7-3.1 19.6 5.1 9.2z"/></svg>