<svg xmlns="http://www.w3.org/2000/svg" viewBox="0 0 512 512"><!--!Font Awesome Pro 6.5.2 by @fontawesome - https://fontawesome.com License - https://fontawesome.com/license (Commercial License) Copyright 2024 Fonticons, Inc.--><path class="fa-secondary" opacity=".4" d="M42.7 212.8l0 .5 0 21.3 426.7 0 0-21.3c0-80.4 0-120.7-25-145.7c-25-25-65.2-25-145.7-25l-85.3 0c-80.4 0-120.7 0-145.7 25c-25 24.9-25 65-25 145.2zM176 138.7c0-8.8 7.2-16 16-16l128 0c8.8 0 16 7.2 16 16s-7.2 16-16 16l-128 0c-8.8 0-16-7.2-16-16z"/><path class="fa-primary" d="M42.7 234.7l426.7 0 0 21.3c0 80.4 0 120.7-25 145.7c-6.5 6.5-14.4 11.6-23 14.9l0 52.8c0 8.8-7.2 16-16 16s-16-7.2-16-16l0-45.4c-22.8 2.8-52.1 2.8-90.7 2.8l-85.3 0c-38.5 0-67.8 0-90.7-2.8l0 45.4c0 8.8-7.2 16-16 16s-16-7.2-16-16l0-52.8c-8.6-3.3-16.5-8.4-23-14.9c-25-25-25-65.2-25-145.7zm133.3 96c0 8.8 7.2 16 16 16l128 0c8.8 0 16-7.2 16-16s-7.2-16-16-16l-128 0c-8.8 0-16 7.2-16 16zm16-208a16 16 0 0 0 0 32h128a16 16 0 0 0 0-32z"/></svg>