<svg xmlns="http://www.w3.org/2000/svg" viewBox="0 0 512 512"><!--!Font Awesome Pro 6.6.0 by @fontawesome - https://fontawesome.com License - https://fontawesome.com/license (Commercial License) Copyright 2024 Fonticons, Inc.--><path class="fa-secondary" opacity=".4" d="M42.7 234.7c0 80.5 0 120.7 25 145.7c18.3 18.3 44.7 23.2 89.1 24.5c8-15 27.1-34.1 55.5-62.4c19.9-19.9 29.8-29.8 42.1-30.4c.6 0 1.1 0 1.7 0s1.1 0 1.7 0c12.3 .6 22.2 10.6 42.1 30.4c28.4 28.4 47.4 47.4 55.5 62.4c44.4-1.3 70.9-6.2 89.1-24.5c24.9-24.9 25-65.1 25-145.2l0-.5c0-80.5 0-120.7-25-145.7C419.4 64 379.3 64 299.1 64l-.5 0-85.3 0C132.9 64 92.7 64 67.7 89s-25 65.2-25 145.7z"/><path class="fa-primary" d="M212.3 342.4c19.9-19.9 29.8-29.8 42.1-30.4c1.1-.1 2.2-.1 3.4 0c12.3 .6 22.2 10.6 42.1 30.4c43.2 43.2 64.8 64.8 58.8 83.5c-.5 1.6-1.2 3.2-1.9 4.7C347.7 448 317.1 448 256 448s-91.7 0-100.6-17.5c-.8-1.5-1.4-3.1-1.9-4.7c-6-18.6 15.6-40.3 58.8-83.5z"/></svg>