<svg xmlns="http://www.w3.org/2000/svg" viewBox="0 0 512 512"><!--!Font Awesome Pro 6.6.0 by @fontawesome - https://fontawesome.com License - https://fontawesome.com/license (Commercial License) Copyright 2024 Fonticons, Inc.--><path class="fa-secondary" opacity=".4" d="M136 33.8c4.9-7.4 14.8-9.3 22.2-4.4l62.2 41.5c-11 4.4-21 10.8-29.6 18.7L140.5 56c-7.4-4.9-9.3-14.8-4.4-22.2zM240 320c0-8.8 7.2-16 16-16s16 7.2 16 16l0 148.5 0 .8-32 0L240 320zM291.6 70.8l62.2-41.5c7.4-4.9 17.3-2.9 22.2 4.4s2.9 17.3-4.4 22.2L321.2 89.5c-8.6-7.9-18.6-14.3-29.6-18.7z"/><path class="fa-primary" d="M405.3 314.7v-32h64c8.8 0 16 7.2 16 16s-7.2 16-16 16h-64zm-32.1 97.8c6.6-8.4 12.4-17.5 17.1-27.2l54.1 27.1c7.9 4 11.1 13.6 7.2 21.5s-13.6 11.1-21.5 7.2l-56.9-28.5zM121.7 385.3c4.7 9.7 10.5 18.8 17.1 27.2L81.8 441c-7.9 4-17.5 .7-21.5-7.2s-.7-17.5 7.2-21.5l54.1-27.1zm-15-102.6h-64c-8.8 0-16 7.2-16 16s7.2 16 16 16h64v-32zm263.5-96.3l60-30c7.9-4 17.5-.7 21.5 7.2s.7 17.5-7.2 21.5l-51.5 25.8c-5.9-9.6-13.6-17.9-22.7-24.4zm-228.4 0c-9.1 6.5-16.9 14.8-22.7 24.4L67.5 185c-7.9-4-11.1-13.6-7.2-21.5s13.6-11.1 21.5-7.2l60 30zM352 176.4V160c0-53-43-96-96-96s-96 43-96 96v16.4c9.5-3.7 19.8-5.8 30.7-5.8H321.3c10.8 0 21.2 2 30.7 5.8zM256 304c8.8 0 16 7.2 16 16l0 149.3-32 0L240 320c0-8.8 7.2-16 16-16z"/></svg>