<svg xmlns="http://www.w3.org/2000/svg" viewBox="0 0 512 512"><!--!Font Awesome Pro 6.6.0 by @fontawesome - https://fontawesome.com License - https://fontawesome.com/license (Commercial License) Copyright 2024 Fonticons, Inc.--><path class="fa-secondary" opacity=".4" d="M42.7 132.5c0-42.3 0-63.5 14.1-76.7s36.7-13.2 81.9-13.2s67.9 0 81.9 13.2s14.1 34.3 14.1 76.7l0 247c0 42.3 0 63.5-14.1 76.7s-36.7 13.2-81.9 13.2s-67.9 0-81.9-13.2c-14-13.1-14.1-34.2-14.1-76.4l0-.2 0-247z"/><path class="fa-primary" d="M277.3 328.5c0-44.2 0-66.4 14.1-80.1s36.7-13.7 81.9-13.7s67.9 0 81.9 13.7s14.1 35.9 14.1 80.1v46.9c0 44.2 0 66.4-14.1 80.1s-36.7 13.7-81.9 13.7s-67.9 0-81.9-13.7s-14.1-35.9-14.1-80.1V328.5zm0-211.2c0-23.2 0-34.8 3.7-43.9c4.9-12.2 14.2-21.9 26-26.9c8.8-3.8 20-3.8 42.4-3.8h48c22.4 0 33.5 0 42.4 3.8c11.8 5.1 21.1 14.7 26 26.9c3.7 9.1 3.7 20.7 3.7 43.9s0 34.8-3.7 43.9c-4.9 12.2-14.2 21.9-26 26.9c-8.8 3.8-20 3.8-42.4 3.8h-48c-22.4 0-33.5 0-42.4-3.8c-11.8-5.1-21.1-14.7-26-26.9c-3.7-9.1-3.7-20.7-3.7-43.9z"/></svg>