<svg xmlns="http://www.w3.org/2000/svg" viewBox="0 0 512 512"><!--!Font Awesome Pro 6.6.0 by @fontawesome - https://fontawesome.com License - https://fontawesome.com/license (Commercial License) Copyright 2024 Fonticons, Inc.--><path class="fa-secondary" opacity=".4" d="M42.7 234.7l0 42.7c0 6.6 0 12.9 0 18.9c0 3.1 0 6.6 0 10.5c.3 57.1 2.8 89.9 20.8 111.7c1.3 1.6 2.6 3.1 4 4.5c22.4 22.4 57 24.7 121.9 25c7.5 0 15.4 0 23.8 0l85.3 0 .5 0c14.3 0 27.3 0 39.1-.1c-24.5-.5-38.8-2.7-48.4-12.4c-12.5-12.5-12.5-32.6-12.5-72.8s0-60.3 12.5-72.8s32.6-12.5 72.8-12.5l21.3 0c40.2 0 60.3 0 72.8 12.5c8.4 8.4 11.2 20.3 12.1 39.4c.4-15.2 .4-32.3 .4-51.9l0-42.7c0-6.6 0-12.9 0-18.9c0-1 0-2 0-3c0-2.3 0-4.8-.1-7.5c-.3-57.1-2.8-89.9-20.8-111.7c-1.3-1.6-2.6-3.1-4.1-4.5c-25-25-65.2-25-145.7-25l-85.3 0-.5 0c-80.1 0-120.2 .1-145.1 25c-25 25-25 65.2-25 145.7zM144 160c0-8.8 7.2-16 16-16l64 0c8.8 0 16 7.2 16 16s-7.2 16-16 16l-25.4 0 58 58c6.2 6.2 6.2 16.4 0 22.6s-16.4 6.2-22.6 0l-58-58 0 25.4c0 8.8-7.2 16-16 16s-16-7.2-16-16l0-64z"/><path class="fa-primary" d="M277.3 362.7c0-40.2 0-60.3 12.5-72.8s32.6-12.5 72.8-12.5H384c40.2 0 60.3 0 72.8 12.5s12.5 32.6 12.5 72.8s0 60.3-12.5 72.8S424.2 448 384 448H362.7c-40.2 0-60.3 0-72.8-12.5s-12.5-32.6-12.5-72.8zM234 256.6c6.2 6.2 16.4 6.2 22.6 0s6.2-16.4 0-22.6l-58-58H224c8.8 0 16-7.2 16-16s-7.2-16-16-16H160c-8.8 0-16 7.2-16 16v64c0 8.8 7.2 16 16 16s16-7.2 16-16V198.6l58 58z"/></svg>