<svg xmlns="http://www.w3.org/2000/svg" viewBox="0 0 512 512"><!--!Font Awesome Pro 6.6.0 by @fontawesome - https://fontawesome.com License - https://fontawesome.com/license (Commercial License) Copyright 2024 Fonticons, Inc.--><path class="fa-secondary" opacity=".4" d="M48 128c0-8.8 7.2-16 16-16l362.7 0c8.8 0 16 7.2 16 16s-7.2 16-16 16L64 144c-8.8 0-16-7.2-16-16zm0 106.7c0-8.8 7.2-16 16-16l362.7 0c8.8 0 16 7.2 16 16s-7.2 16-16 16L64 250.7c-8.8 0-16-7.2-16-16zm0 106.7c0-8.8 7.2-16 16-16l149.3 0c8.8 0 16 7.2 16 16s-7.2 16-16 16L64 357.3c-8.8 0-16-7.2-16-16z"/><path class="fa-primary" d="M362.9 396.1c6 5.1 14.8 5.1 20.8 0l74.7-64c6.7-5.8 7.5-15.9 1.7-22.6s-15.9-7.5-22.6-1.7l-64.3 55.1-64.3-55.1c-6.7-5.8-16.8-5-22.6 1.7s-5 16.8 1.7 22.6l74.7 64z"/></svg>