<svg xmlns="http://www.w3.org/2000/svg" viewBox="0 0 512 512"><!--!Font Awesome Pro 6.6.0 by @fontawesome - https://fontawesome.com License - https://fontawesome.com/license (Commercial License) Copyright 2024 Fonticons, Inc.--><path class="fa-secondary" opacity=".4" d="M176 170.7l0 42.7c0 8.8 7.2 16 16 16s16-7.2 16-16l0-42.7c0-8.8-7.2-16-16-16s-16 7.2-16 16zm64-32l0 106.7c0 8.8 7.2 16 16 16s16-7.2 16-16l0-106.7c0-8.8-7.2-16-16-16s-16 7.2-16 16zm64 32l0 42.7c0 8.8 7.2 16 16 16s16-7.2 16-16l0-42.7c0-8.8-7.2-16-16-16s-16 7.2-16 16z"/><path class="fa-primary" d="M42.7 258.6c0-119.3 95.5-216 213.3-216s213.3 96.7 213.3 216l0 111.9c0 17.4 0 29.4-3.1 39.9c-6 20.5-20.3 37.5-39.4 46.7c-9.8 4.7-21.4 6.6-38.4 9.3l-2.8 .4c-6 1-11.2 1.8-15.5 2.2c-4.5 .4-9 .6-13.7-.3c-15.3-3.1-27.9-14-33.3-28.8c-1.6-4.5-2.2-9.1-2.5-13.6c-.3-4.4-.3-9.6-.3-15.8l0-89c0-9.1 0-16.9 2.1-23.6c4.8-15.3 17.2-26.9 32.6-30.5c6.7-1.6 14.4-.9 23.4-.2l2 .2 2.3 .2c16.7 1.3 28.2 2.2 37.9 5.9c6.8 2.6 13.2 6.1 18.8 10.4v-25C439.6 156 357.4 72.8 256 72.8S72.4 156 72.4 258.6v25c5.7-4.3 12-7.8 18.8-10.4c9.7-3.6 21.1-4.5 37.9-5.9l2.3-.2 2-.2c8.9-.7 16.6-1.4 23.4 .2c15.4 3.6 27.8 15.2 32.6 30.5c2.1 6.7 2.1 14.5 2.1 23.6l0 89c0 6.2 0 11.5-.3 15.8c-.3 4.5-.8 9.1-2.5 13.6c-5.4 14.8-18 25.8-33.3 28.8c-4.7 .9-9.2 .8-13.7 .3c-4.3-.4-9.5-1.3-15.5-2.2l-2.8-.4c-17-2.7-28.7-4.6-38.4-9.3c-19.1-9.2-33.4-26.2-39.4-46.7c-2.5-8.7-3-18.3-3-31.2l0-4.1V258.6z"/></svg>