<svg xmlns="http://www.w3.org/2000/svg" viewBox="0 0 512 512"><!--!Font Awesome Pro 6.6.0 by @fontawesome - https://fontawesome.com License - https://fontawesome.com/license (Commercial License) Copyright 2024 Fonticons, Inc.--><path class="fa-secondary" opacity=".4" d="M42.7 256c0 100.6 0 150.9 31.2 182.1s81.5 31.2 182.1 31.2s150.9 0 182.1-31.2c31.2-31.2 31.2-81.3 31.2-181.3l0-.8c0-100.6 0-150.8-31.2-182.1S356.6 42.7 256 42.7s-150.8 0-182.1 31.2S42.7 155.4 42.7 256zm128-32c0-17.7 9.6-32 21.3-32s21.3 14.3 21.3 32s-9.6 32-21.3 32s-21.3-14.3-21.3-32zm8.5 148.2c-5.3-7.1-3.8-17.1 3.3-22.4c20.7-15.4 46.1-24.5 73.5-24.5s52.8 9.1 73.5 24.5c7.1 5.3 8.6 15.3 3.3 22.4c-3.1 4.2-8 6.5-12.9 6.5c-3.3 0-6.7-1-9.5-3.1c-15.5-11.5-34.3-18.2-54.5-18.2s-38.9 6.7-54.5 18.2c-2.9 2.1-6.2 3.1-9.5 3.1c-4.9 0-9.7-2.2-12.9-6.5zM298.7 224c0-17.7 9.6-32 21.3-32s21.3 14.3 21.3 32s-9.6 32-21.3 32s-21.3-14.3-21.3-32z"/><path class="fa-primary" d="M179.1 372.2c5.3 7.1 15.3 8.6 22.4 3.3c15.5-11.5 34.3-18.2 54.5-18.2s38.9 6.7 54.5 18.2c7.1 5.3 17.1 3.8 22.4-3.3s3.8-17.1-3.3-22.4c-20.7-15.4-46.1-24.5-73.5-24.5s-52.8 9.1-73.5 24.5c-7.1 5.3-8.6 15.3-3.3 22.4zM320 256c11.8 0 21.3-14.3 21.3-32s-9.6-32-21.3-32s-21.3 14.3-21.3 32s9.6 32 21.3 32zm-128 0c11.8 0 21.3-14.3 21.3-32s-9.6-32-21.3-32s-21.3 14.3-21.3 32s9.6 32 21.3 32z"/></svg>