<svg xmlns="http://www.w3.org/2000/svg" viewBox="0 0 512 512"><!--!Font Awesome Pro 6.6.0 by @fontawesome - https://fontawesome.com License - https://fontawesome.com/license (Commercial License) Copyright 2024 Fonticons, Inc.--><path class="fa-secondary" opacity=".4" d="M64.4 183.6c-1.5 11.2 1.6 22.6 8.5 31.5c3.2 4.1 7.6 7.5 14.5 11.9c10.2 6.3 16.7 17.1 16.7 29s-6.5 22.7-16.7 29c-6.9 4.3-11.4 7.8-14.5 11.9c-6.9 9-10 20.3-8.5 31.5c1.1 8.4 6.1 17 16.1 34.2s15 25.8 21.8 31c9 6.9 20.5 9.9 31.8 8.5c5.2-.7 10.4-2.8 17.6-6.6c10.6-5.6 23.3-5.8 33.7 .2s16.5 17 17 28.9c.3 8.1 1.1 13.6 3.1 18.4c4.4 10.5 12.7 18.8 23.3 23.1c7.9 3.2 17.9 3.2 37.9 3.2s30 0 37.9-3.2c10.5-4.3 18.9-12.6 23.3-23.1c2-4.8 2.8-10.3 3.1-18.4c.4-11.9 6.6-22.9 17-28.9s23.1-5.7 33.7-.2c7.2 3.8 12.4 5.9 17.6 6.6c11.3 1.5 22.7-1.6 31.8-8.5c6.8-5.2 11.8-13.8 21.8-31s15-25.8 16.1-34.2c1.5-11.2-1.6-22.6-8.5-31.5c-3.2-4.1-7.6-7.5-14.5-11.9c-10.2-6.3-16.7-17.1-16.7-29s6.5-22.7 16.7-29c6.9-4.3 11.4-7.8 14.5-11.9c6.9-9 10-20.3 8.5-31.5c-1.1-8.4-6.1-17-16.1-34.2s-15-25.8-21.8-31c-9-6.9-20.5-9.9-31.8-8.5c-5.2 .7-10.4 2.8-17.6 6.6c-10.6 5.6-23.3 5.8-33.7-.2s-16.5-17-17-28.9c-.3-8.1-1.1-13.6-3.1-18.4c-4.4-10.5-12.7-18.8-23.3-23.1c-7.9-3.2-17.9-3.2-37.9-3.2s-30 0-37.9 3.2c-10.5 4.3-18.9 12.6-23.3 23.1c-2 4.8-2.8 10.3-3.1 18.4c-.4 11.9-6.6 22.9-17 28.9s-23.1 5.7-33.7 .2c-7.2-3.8-12.5-5.9-17.6-6.6c-11.3-1.5-22.7 1.6-31.8 8.5c-6.8 5.2-11.8 13.8-21.8 31s-15 25.8-16.1 34.2zM202.2 256c0-35.3 28.9-64 64.5-64s64.5 28.7 64.5 64s-28.9 64-64.5 64s-64.5-28.7-64.5-64z"/><path class="fa-primary" d="M331.2 256c0 35.3-28.9 64-64.5 64s-64.5-28.7-64.5-64s28.9-64 64.5-64s64.5 28.7 64.5 64z"/></svg>