<svg xmlns="http://www.w3.org/2000/svg" viewBox="0 0 512 512"><!--!Font Awesome Pro 6.6.0 by @fontawesome - https://fontawesome.com License - https://fontawesome.com/license (Commercial License) Copyright 2024 Fonticons, Inc.--><path class="fa-secondary" opacity=".4" d="M42.7 88.2l0 146.4 32 0 0-146.4c0-19.3 15.6-34.9 34.9-34.9c14.3 0 27.1 8.7 32.4 21.9c1 2.5 2 5.1 3.1 7.6c9.7-4.6 19.3-9.1 29-13.7l-2.3-5.9c-10.2-25.4-34.8-42-62.1-42c-36.9 0-66.9 29.9-66.9 66.9zM87 456.8c-4 7.9-.7 17.5 7.2 21.5c2.3 1.1 4.7 1.7 7.1 1.7c5.9 0 11.5-3.2 14.3-8.8c6.9-13.8 13.8-27.5 20.6-41.3c-7.6-4.6-23.8-14.5-27.1-17.1c-.3 .5-.6 .9-.8 1.4L87 456.8zm278-27l20.6 41.3c4 7.9 13.6 11.1 21.5 7.2s11.1-13.6 7.2-21.5L393 414.2c-.2-.5-.5-1-.8-1.4c-4.4 3.5-19.9 12.9-27.1 17.1z"/><path class="fa-primary" d="M42.7 234.7l-5.3 0c-8.8 0-16 7.2-16 16s7.2 16 16 16l5.3 0 0 5.3 0 .2 0 1.2 0 .8c0 8 0 12.7 .3 17.9c3 47.7 28.8 91.8 66.2 120.6c3.4 2.7 19.5 12.5 27.1 17.1c17.1 8.7 35.7 14.4 55 16.3c5.2 .5 8.4 .6 13.8 .9l.1 0c15.8 .6 31.2 1 45.4 1s29.6-.4 45.4-1l.1 0c5.4-.2 8.6-.3 13.8-.9c19.3-2 37.9-7.7 55.1-16.3c7.2-4.2 22.7-13.6 27.1-17.1c37.4-28.8 63.1-72.9 66.2-120.6c.3-5.2 .3-9.9 .3-17.9l0-.8c0-1.3 0-2.6-.1-3.8c-.1-1-.2-2-.3-2.9l5.7 0c8.8 0 16-7.2 16-16s-7.2-16-16-16l-389.3 0-32 0zM145 82.9c-12.7 9.2-23 22.1-29.4 37.8c-9 22.1-8.5 45.8-.4 66.3c1.6 4 4.7 7.2 8.7 8.9s8.5 1.6 12.5-.1l127.2-54.7c7.9-3.4 11.7-12.5 8.6-20.6c-8.1-20.5-23.8-37.9-45.5-47.2C209.3 66 190.9 65 174 69.2L145 82.9z"/></svg>