<svg xmlns="http://www.w3.org/2000/svg" viewBox="0 0 512 512"><!--!Font Awesome Pro 6.6.0 by @fontawesome - https://fontawesome.com License - https://fontawesome.com/license (Commercial License) Copyright 2024 Fonticons, Inc.--><path class="fa-secondary" opacity=".4" d="M42.7 373.3c0 24.6 20.5 47 54.3 64c39.1 19.6 95.8 32 159 32c66.3 0 125.5-13.6 164.6-34.9c30.4-16.6 48.7-37.9 48.7-61.1c0-24.6-20.5-47-54.3-64c-12.1-6.1-25.8-11.4-40.9-15.9c-21.3 37.1-52.5 68.7-90.8 85.1c-8.7 3.7-18 5.6-27.3 5.6s-18.6-1.9-27.3-5.6c-38.3-16.4-69.6-47.9-90.8-85.1c-15.1 4.5-28.8 9.9-40.9 15.9c-33.8 17-54.3 39.4-54.3 64z"/><path class="fa-primary" d="M106.7 181.6c0-76.8 66.9-139 149.3-139s149.3 62.2 149.3 139c0 76.2-47.7 165-122 196.8c-17.3 7.4-37.3 7.4-54.6 0c-74.4-31.8-122-120.6-122-196.8zm149.3 53a42.7 42.7 0 1 0 0-85.3 42.7 42.7 0 1 0 0 85.3z"/></svg>