<svg xmlns="http://www.w3.org/2000/svg" viewBox="0 0 512 512"><!--!Font Awesome Pro 6.6.0 by @fontawesome - https://fontawesome.com License - https://fontawesome.com/license (Commercial License) Copyright 2024 Fonticons, Inc.--><path class="fa-secondary" opacity=".4" d="M26.7 256c0 126.7 102.7 229.3 229.3 229.3s229.3-102.7 229.3-229.3c0-94.1-56.6-174.9-137.6-210.2c-8.1-3.5-17.5 .2-21.1 8.3s.2 17.5 8.3 21.1c69.7 30.5 118.4 100 118.4 180.9c0 109-88.3 197.3-197.3 197.3S58.7 365 58.7 256c0-88.5 58.3-163.5 138.7-188.5l0 28.5c0 6.8 4.3 12.8 10.7 15.1s13.5 .2 17.8-5.1l42.7-53.3c3.8-4.8 4.6-11.4 1.9-16.9s-8.3-9.1-14.4-9.1c-15.7 0-31 1.6-45.8 4.6C105.5 52.5 26.7 145 26.7 256z"/><path class="fa-primary" d="M217.1 183.6c3.6-10.9 13.8-18.2 25.3-18.2h56.3c8.8 0 16 7.2 16 16s-7.2 16-16 16H246.2l-10.7 32H256c32.4 0 58.7 26.3 58.7 58.7s-26.3 58.7-58.7 58.7H213.3c-8.8 0-16-7.2-16-16s7.2-16 16-16H256c14.7 0 26.7-11.9 26.7-26.7s-11.9-26.7-26.7-26.7H228.1c-18.2 0-31.1-17.8-25.3-35.1l14.2-42.7z"/></svg>