<svg xmlns="http://www.w3.org/2000/svg" viewBox="0 0 512 512"><!--!Font Awesome Pro 6.5.2 by @fontawesome - https://fontawesome.com License - https://fontawesome.com/license (Commercial License) Copyright 2024 Fonticons, Inc.--><path class="fa-secondary" opacity=".4" d="M42.7 170.7l.5 0 196.6 0 0 250.7-26.4 0c-38.5 0-67.8 0-90.7-2.8l0 45.4c0 8.8-7.2 16-16 16s-16-7.2-16-16l0-52.8c-8.6-3.3-16.5-8.4-23-14.9c-25-24.9-25-65.1-25-145.3l0-.4 0-42.7c0-9.4 0-29 0-37.3zm133.3 80l0 64c0 8.8 7.2 16 16 16s16-7.2 16-16l0-64c0-8.8-7.2-16-16-16s-16 7.2-16 16zm95.8 170.6l.2 0 0-250.6 196.8 0 .6 0c0 8.4 0 27.9 0 37.3l0 42.7c0 80.4 0 120.7-25 145.7c-6.5 6.5-14.4 11.6-23 14.9l0 52.8c0 8.8-7.2 16-16 16s-16-7.2-16-16l0-45.4c-22.8 2.8-57.7 2.8-96.2 2.8c-7.1 0-14.2 0-21.3 0zM304 250.7l0 64c0 8.8 7.2 16 16 16s16-7.2 16-16l0-64c0-8.8-7.2-16-16-16s-16 7.2-16 16z"/><path class="fa-primary" d="M336 250.7a16 16 0 0 0 -32 0v64a16 16 0 0 0 32 0zm-128 0a16 16 0 0 0 -32 0v64a16 16 0 0 0 32 0zM67.6 62.3c-18 18-23 43.9-24.4 87v21.3H240v250.6h32V170.7h196.8V149.3c-1.4-43.1-6.4-69-24.4-87c-25-25-65.2-25-145.7-25h-85.3c-80.5 0-120.7 0-145.7 25"/></svg>