<svg xmlns="http://www.w3.org/2000/svg" viewBox="0 0 512 512"><!--!Font Awesome Pro 6.6.0 by @fontawesome - https://fontawesome.com License - https://fontawesome.com/license (Commercial License) Copyright 2024 Fonticons, Inc.--><path class="fa-secondary" opacity=".4" d="M42.7 256a213.3 213.3 0 1 0 426.7 0A213.3 213.3 0 1 0 42.7 256zm90.7-42.7c0-4.5 1.9-9 5.5-12.1l73.3-64c6.7-5.8 16.8-5.1 22.6 1.5s5.1 16.8-1.5 22.6L192 197.3l170.7 0c8.8 0 16 7.2 16 16s-7.2 16-16 16l-213.3 0c-6.7 0-12.6-4.1-15-10.4c-.7-1.8-1-3.7-1-5.6zm0 85.3c0-8.8 7.2-16 16-16l106.7 0 106.7 0c6.7 0 12.6 4.1 15 10.4s.6 13.3-4.5 17.7l-73.3 64c-6.7 5.8-16.8 5.1-22.6-1.5s-5.1-16.8 1.5-22.6L320 314.7l-170.7 0c-8.8 0-16-7.2-16-16z"/><path class="fa-primary" d="M233.2 161.4c6.7-5.8 7.3-15.9 1.5-22.6s-15.9-7.3-22.6-1.5l-73.3 64c-5 4.4-6.8 11.4-4.5 17.7s8.3 10.4 15 10.4H362.7c8.8 0 16-7.2 16-16s-7.2-16-16-16H192l41.2-35.9zM149.3 314.7l170.7 0-41.2 35.9c-6.7 5.8-7.3 15.9-1.5 22.6s15.9 7.3 22.6 1.5l73.3-64c5-4.4 6.8-11.4 4.5-17.7s-8.3-10.4-15-10.4H256l-106.7 0c-8.8 0-16 7.2-16 16s7.2 16 16 16z"/></svg>