<svg xmlns="http://www.w3.org/2000/svg" viewBox="0 0 512 512"><!--!Font Awesome Pro 6.6.0 by @fontawesome - https://fontawesome.com License - https://fontawesome.com/license (Commercial License) Copyright 2024 Fonticons, Inc.--><path class="fa-secondary" opacity=".4" d="M362.7 42.7l53.3 0c17.7 0 32 14.3 32 32l0 42.7c0 17.7-14.3 32-32 32l-53.3 0 0-106.7zm0 320l53.3 0c17.7 0 32 14.3 32 32l0 42.7c0 17.7-14.3 32-32 32l-53.3 0 0-106.7z"/><path class="fa-primary" d="M362.7 42.7H277.3C159.5 42.7 64 138.2 64 256s95.5 213.3 213.3 213.3h85.3V362.7H277.3c-58.9 0-106.7-47.8-106.7-106.7s47.8-106.7 106.7-106.7h85.3V42.7z"/></svg>