<svg xmlns="http://www.w3.org/2000/svg" viewBox="0 0 512 512"><!--!Font Awesome Pro 6.6.0 by @fontawesome - https://fontawesome.com License - https://fontawesome.com/license (Commercial License) Copyright 2024 Fonticons, Inc.--><path class="fa-secondary" opacity=".4" d="M21.3 148.4c0 8.8 7.2 16 16 16l204.5 0c-1.2-4.8-1.8-9.9-1.8-15.1c0-.7 0-1.5 0-2.2s.1-1.4 .1-2.2c.1-1.4 .2-2.9 .4-4.3c.4-2.8 .9-5.6 1.7-8.3l-204.9 0c-8.8 0-16 7.2-16 16zm0 213.3c0 8.8 7.2 16 16 16l97.8 0c-1.2-4.8-1.8-9.9-1.8-15.1c0-.7 0-1.5 0-2.2s.1-1.4 .1-2.2c.1-1.4 .2-2.9 .4-4.3c.4-2.8 .9-5.6 1.7-8.3l-98.3 0c-8.8 0-16 7.2-16 16zm237.7-16c1.5 5.4 2.3 11 2.3 16.9c0 .6 0 1.3 0 1.9s0 1.3-.1 1.9c-.1 1.3-.2 2.6-.3 3.8c-.3 2.5-.8 5-1.3 7.4l204.5 0c8.8 0 16-7.2 16-16s-7.2-16-16-16l-204.9 0zM365.7 132.4c1.5 5.4 2.3 11 2.3 16.9c0 .6 0 1.3 0 1.9s0 1.3-.1 1.9c-.1 1.3-.2 2.6-.3 3.8c-.3 2.5-.8 5-1.3 7.4l97.8 0c8.8 0 16-7.2 16-16s-7.2-16-16-16l-98.3 0z"/><path class="fa-primary" d="M197.3 426.7a64 64 0 1 1 0-128 64 64 0 1 1 0 128zM304 85.3a64 64 0 1 0 0 128 64 64 0 1 0 0-128z"/></svg>