<svg xmlns="http://www.w3.org/2000/svg" viewBox="0 0 512 512"><!--!Font Awesome Pro 6.6.0 by @fontawesome - https://fontawesome.com License - https://fontawesome.com/license (Commercial License) Copyright 2024 Fonticons, Inc.--><path class="fa-secondary" opacity=".4" d="M49.8 168c-11.5 24-7.5 52.2 .6 108.4l5.9 41.3C66.8 390 72 426.2 97 447.7s61.8 21.6 135.4 21.6l47.2 0 .5 0c73.2 0 109.9 0 134.9-21.6c25.1-21.6 30.3-57.7 40.7-130l5.9-41.3c4.5-31.4 7.8-54 7.8-72c0-14.3-2.1-25.8-7.2-36.4c-11.5-24.1-36.1-38.7-85.2-67.9L347.5 82.5C302.9 55.9 280.6 42.7 256 42.7s-46.9 13.3-91.5 39.8L135 100.1C85.9 129.3 61.4 143.9 49.8 168zM112 249.2c0-3.9 1.4-7.8 4.3-10.9c77-83.1 202.4-83.1 279.5 0c6 6.5 5.6 16.6-.9 22.6s-16.6 5.6-22.6-.9c-64.4-69.5-168.2-69.5-232.5 0c-6 6.5-16.1 6.9-22.6 .9c-3.4-3.2-5.1-7.4-5.1-11.7zm46.9 35.2c53.5-57.7 140.7-57.7 194.1 0c6 6.5 5.6 16.6-.9 22.6s-16.6 5.6-22.6-.9c-40.8-44-106.4-44-147.2 0c-6 6.5-16.1 6.9-22.6 .9s-6.9-16.1-.9-22.6zm42.7 46.1c29.9-32.3 78.9-32.3 108.8 0c6 6.5 5.6 16.6-.9 22.6s-16.6 5.6-22.6-.9c-17.2-18.6-44.6-18.6-61.9 0c-6 6.5-16.1 6.9-22.6 .9s-6.9-16.1-.9-22.6z"/><path class="fa-primary" d="M372.3 260.1c-64.4-69.5-168.2-69.5-232.5 0c-6 6.5-16.1 6.9-22.6 .9s-6.9-16.1-.9-22.6c77-83.1 202.4-83.1 279.5 0c6 6.5 5.6 16.6-.9 22.6s-16.6 5.6-22.6-.9zm-42.7 46c-40.8-44-106.4-44-147.2 0c-6 6.5-16.1 6.9-22.6 .9s-6.9-16.1-.9-22.6c53.5-57.7 140.7-57.7 194.1 0c6 6.5 5.6 16.6-.9 22.6s-16.6 5.6-22.6-.9zm-42.7 46.1c-17.2-18.6-44.6-18.6-61.9 0c-6 6.5-16.1 6.9-22.6 .9s-6.9-16.1-.9-22.6c29.9-32.3 78.9-32.3 108.8 0c6 6.5 5.6 16.6-.9 22.6s-16.6 5.6-22.6-.9z"/></svg>