<svg xmlns="http://www.w3.org/2000/svg" viewBox="0 0 512 512"><!--!Font Awesome Pro 6.6.0 by @fontawesome - https://fontawesome.com License - https://fontawesome.com/license (Commercial License) Copyright 2024 Fonticons, Inc.--><path class="fa-secondary" opacity=".4" d="M85.5 192c.2-7 .6-12.1 1.5-16.6c6.7-33.9 33.2-60.3 67-67c8.2-1.6 18.1-1.6 38-1.6l128 0c19.8 0 29.7 0 38 1.6c33.8 6.7 60.3 33.2 67 67c.9 4.6 1.3 9.7 1.6 16.6l0 21.3c-23.6 0-42.7 19.1-42.7 42.7l0 25.6c0 9.4-7.6 17.1-17.1 17.1l-221.9 0c-9.4 0-17.1-7.6-17.1-17.1l0-25.6c0-23.6-19.1-42.7-42.7-42.7c0-7.1 0-14.2 .1-21.3z"/><path class="fa-primary" d="M393.5 384h-275c-5.9 0-11.7-.7-17.2-2v23.3c0 8.8-7.2 16-16 16s-16-7.2-16-16V365.9C53 352 42.7 331.3 42.7 308.1V256c0-23.6 19.1-42.7 42.7-42.7s42.7 19.1 42.7 42.7v25.6c0 9.4 7.6 17.1 17.1 17.1H366.9c9.4 0 17.1-7.6 17.1-17.1V256c0-23.6 19.1-42.7 42.7-42.7s42.7 19.1 42.7 42.7v52.1c0 23.1-10.3 43.8-26.7 57.7v39.4c0 8.8-7.2 16-16 16s-16-7.2-16-16V382c-5.5 1.3-11.3 2-17.2 2z"/></svg>