<svg xmlns="http://www.w3.org/2000/svg" viewBox="0 0 512 512"><!--!Font Awesome Pro 6.6.0 by @fontawesome - https://fontawesome.com License - https://fontawesome.com/license (Commercial License) Copyright 2024 Fonticons, Inc.--><path class="fa-secondary" opacity=".4" d="M42.7 213.3l0 21.3c0 11.8-.1 22.4 0 32l0 10.7 224.3 0 1.8 0 0-10.7c2.2-14.5 7.2-29.6 19.7-42.1c13.2-13.2 29.2-18 44.4-20c13.8-1.9 30.7-1.8 49.2-1.8l3.8 0c18.5 0 35.4 0 49.2 1.8c11.5 1.5 23.4 4.7 34.3 11.8l0-3 0-.5c0-80.1 0-120.3-25-145.2c-25-25-65.2-25-145.7-25l-85.3 0-.4 0c-80.2 0-120.3 0-145.3 25c-25 25-25 65.2-25 145.7z"/><path class="fa-primary" d="M469.3 320l0 64c0 40.2 0 60.3-12.5 72.8s-32.6 12.5-72.8 12.5s-60.3 0-72.8-12.5s-12.5-32.6-12.5-72.8l0-64c0-40.2 0-60.3 12.5-72.8s32.6-12.5 72.8-12.5s60.3 0 72.8 12.5s12.5 32.6 12.5 72.8zM346.7 426.7c0 8.8 7.2 16 16 16l42.7 0c8.8 0 16-7.2 16-16s-7.2-16-16-16l-42.7 0c-8.8 0-16 7.2-16 16zm-176-64c-60.3 0-90.5 0-109.3-18.7C49.3 331.8 44.2 314.8 42.7 288V277.3H267V288c-.4 9.3-.4 19.4-.4 30.1v67.8c0 18.5 0 35.4 1.8 49.2c2 15.2 6.8 31.2 20 44.4l.5 .5H170.7c-8.8 0-16-7.2-16-16s7.2-16 16-16H240V362.7H170.7z"/></svg>