<svg xmlns="http://www.w3.org/2000/svg" viewBox="0 0 512 512"><!--!Font Awesome Pro 6.6.0 by @fontawesome - https://fontawesome.com License - https://fontawesome.com/license (Commercial License) Copyright 2024 Fonticons, Inc.--><path class="fa-secondary" opacity=".4" d="M42.7 256c0 100.6 0 150.9 31.2 182.1s81.5 31.2 182.1 31.2s150.9 0 182.1-31.2c31.2-31.2 31.2-81.3 31.2-181.3l0-.8c0-100.6 0-150.8-31.2-182.1S356.6 42.7 256 42.7s-150.8 0-182.1 31.2S42.7 155.4 42.7 256zm58.7 0c0-56 45.4-101.3 101.3-101.3c8.8 0 16 7.2 16 16s-7.2 16-16 16c-38.3 0-69.3 31-69.3 69.3s31 69.3 69.3 69.3s69.3-31 69.3-69.3c0-8.8 7.2-16 16-16s16 7.2 16 16c0 56-45.4 101.3-101.3 101.3s-101.3-45.4-101.3-101.3zM208 256c0-56 45.4-101.3 101.3-101.3s101.3 45.4 101.3 101.3s-45.4 101.3-101.3 101.3c-8.8 0-16-7.2-16-16s7.2-16 16-16c38.3 0 69.3-31 69.3-69.3s-31-69.3-69.3-69.3s-69.3 31-69.3 69.3c0 8.8-7.2 16-16 16s-16-7.2-16-16z"/><path class="fa-primary" d="M202.7 186.7c-38.3 0-69.3 31-69.3 69.3s31 69.3 69.3 69.3s69.3-31 69.3-69.3c0-8.8 7.2-16 16-16s16 7.2 16 16c0 56-45.4 101.3-101.3 101.3s-101.3-45.4-101.3-101.3s45.4-101.3 101.3-101.3c8.8 0 16 7.2 16 16s-7.2 16-16 16zm176 69.3c0 38.3-31 69.3-69.3 69.3c-8.8 0-16 7.2-16 16s7.2 16 16 16c56 0 101.3-45.4 101.3-101.3s-45.4-101.3-101.3-101.3S208 200 208 256c0 8.8 7.2 16 16 16s16-7.2 16-16c0-38.3 31-69.3 69.3-69.3s69.3 31 69.3 69.3z"/></svg>