<svg xmlns="http://www.w3.org/2000/svg" viewBox="0 0 512 512"><!--!Font Awesome Pro 6.6.0 by @fontawesome - https://fontawesome.com License - https://fontawesome.com/license (Commercial License) Copyright 2024 Fonticons, Inc.--><path class="fa-secondary" opacity=".4" d="M106.7 362.7c0 47.1 66.9 85.3 149.3 85.3c25 0 48.5-3.5 69.2-9.7C312.1 424 304 405 304 384c0-1.2 0-2.4 .1-3.6s.1-2.4 .2-3.5c.2-2.3 .5-4.7 .9-7c.8-4.6 2-9 3.6-13.3c3.1-8.5 7.6-16.4 13.3-23.3s12.4-12.8 20.1-17.5s16.1-8.1 25-10.2c-27.3-17.4-67-28.3-111.1-28.3c-82.5 0-149.3 38.2-149.3 85.3z"/><path class="fa-primary" d="M256 42.7a85.3 85.3 0 1 0 0 170.7 85.3 85.3 0 1 0 0-170.7zM384 336c-26.5 0-48 21.5-48 48c0 7.4 1.7 14.4 4.7 20.7l64-64c-6.3-3-13.3-4.7-20.7-4.7zm43.3 27.3l-64 64c6.3 3 13.3 4.7 20.7 4.7c26.5 0 48-21.5 48-48c0-7.4-1.7-14.4-4.7-20.7zM464 384a80 80 0 1 1 -160 0 80 80 0 1 1 160 0z"/></svg>