<svg xmlns="http://www.w3.org/2000/svg" viewBox="0 0 512 512"><!--!Font Awesome Pro 6.6.0 by @fontawesome - https://fontawesome.com License - https://fontawesome.com/license (Commercial License) Copyright 2024 Fonticons, Inc.--><path class="fa-secondary" opacity=".4" d="M54.1 187.2l1.6 .4c.2 .1 .5 .1 .8 .2c.7 .2 1.8 .5 3.2 1c2.9 1 7.2 2.5 12.5 4.8c8.1 3.5 17.5-.3 21-8.4s-.3-17.5-8.4-21c-6.2-2.6-11.2-4.5-14.8-5.7c-1.3-.4-2.4-.8-3.3-1.1c18.1-34.9 46.1-65.2 82.6-86.3c33.6-19.4 70.3-28.6 106.5-28.6c3.2 0 6.4 .1 9.6 .2c-.2 1.1-.5 2.1-.7 3.4c-.7 3.7-1.7 9-2.5 15.7c-1 8.8 5.2 16.7 14 17.8s16.7-5.2 17.8-14c.7-5.8 1.5-10.3 2.1-13.3c.3-1.5 .5-2.6 .7-3.3c.1-.4 .1-.6 .2-.7c.1-.3 .2-.6 .5-1.7c58.2 11.5 111.4 47.2 143.4 102.6c19.4 33.6 28.6 70.3 28.6 106.5c0 23.5-3.9 46.9-11.4 69l-1.6-.4c-.2-.1-.5-.1-.8-.2c-.7-.2-1.8-.5-3.2-1c-2.9-1-7.2-2.5-12.5-4.8c-8.1-3.5-17.5 .3-21 8.4s.3 17.5 8.4 21c6.2 2.6 11.2 4.5 14.8 5.7c1.3 .4 2.4 .8 3.3 1.1c-18.1 34.9-46 65.2-82.6 86.3c-33.6 19.4-70.3 28.6-106.5 28.6c-3.2 0-6.4-.1-9.6-.2c.2-.9 .4-2 .7-3.4c.7-3.7 1.7-9 2.5-15.7c1.1-8.8-5.2-16.7-14-17.8s-16.7 5.2-17.8 14c-.7 5.8-1.5 10.3-2.1 13.3c-.3 1.5-.5 2.6-.7 3.3c-.1 .3-.1 .6-.2 .7c-.2 .7-.3 1.2-.5 1.7c-58.2-11.5-111.3-47.2-143.3-102.6s-36.3-119.3-17.2-175.5zm57.7 8.6c-5.1 7.2-3.4 17.2 3.8 22.3c9.4 6.6 19.2 14.5 28.9 23.9c6.4 6.1 16.5 5.9 22.6-.4s5.9-16.5-.4-22.6c-11-10.6-22.1-19.5-32.7-27c-7.2-5.1-17.2-3.4-22.3 3.8zm65 84.3c3.4 5 6.8 10.3 10 15.9s6.1 11.1 8.8 16.6c3.8 8 13.4 11.3 21.4 7.5s11.3-13.4 7.5-21.4c-3-6.2-6.3-12.5-9.9-18.7s-7.4-12.2-11.3-17.9c-5-7.3-14.9-9.2-22.2-4.2s-9.2 14.9-4.2 22.2zm35.6 79.4c3.2 13.1 5.2 25.5 6.2 37c.8 8.8 8.6 15.3 17.4 14.5s15.3-8.6 14.5-17.4c-1.2-12.9-3.4-27-7-41.8c-2.1-8.6-10.8-13.8-19.4-11.7s-13.8 10.8-11.7 19.4zm49.2-241.1c1.2 12.9 3.4 27 7 41.8c2.1 8.6 10.8 13.8 19.4 11.7s13.8-10.8 11.7-19.4c-3.2-13.1-5.2-25.5-6.2-37c-.8-8.8-8.6-15.3-17.4-14.5s-15.3 8.6-14.5 17.4zm20-74.2c5.3 .6 10.6 1.5 15.9 2.5c-5.3-1-10.6-1.9-15.9-2.5zm6.2 169.1c3 6.2 6.3 12.5 9.9 18.7s7.4 12.2 11.3 17.9c5 7.3 14.9 9.2 22.2 4.2s9.2-14.9 4.2-22.2c-3.4-5-6.8-10.3-10-15.9s-6.1-11.1-8.8-16.6c-3.8-8-13.4-11.3-21.4-7.5s-11.3 13.4-7.5 21.4zm57.2 57.1c-6.1 6.4-5.9 16.5 .4 22.6c11 10.6 22.1 19.5 32.7 27c7.2 5.1 17.2 3.4 22.3-3.9s3.4-17.2-3.9-22.3c-9.4-6.6-19.2-14.5-28.9-23.9c-6.4-6.1-16.5-5.9-22.6 .4zm110.4 61.8c.9-2.5 1.8-5 2.7-7.5c-.8 2.5-1.7 5-2.7 7.5z"/><path class="fa-primary" d="M297.4 46.7c-5.3-1-10.6-1.9-15.9-2.5c-5.3-.6-10.7-1.1-16.1-1.3c-.2 .9-.4 2-.7 3.4c-.7 3.7-1.7 9-2.5 15.7c-1 8.8 5.2 16.7 14 17.8s16.7-5.2 17.8-14c.7-5.8 1.5-10.3 2.1-13.3c.3-1.5 .5-2.6 .7-3.3c.1-.4 .1-.6 .2-.7l0-.1 0 0 .4-1.6zM54.1 187.2c1.7-5.1 3.6-10.1 5.8-15s4.4-9.8 6.9-14.6c.9 .3 2 .6 3.3 1.1c3.6 1.2 8.7 3.1 14.8 5.7c8.1 3.5 11.9 12.9 8.4 21s-12.9 11.9-21 8.4c-5.3-2.3-9.6-3.9-12.5-4.8c-1.4-.5-2.5-.8-3.2-1c-.3-.1-.6-.2-.7-.2l-.1 0-1.6-.4zM246.6 469.2c-5.4-.2-10.8-.7-16.1-1.3c-5.3-.6-10.6-1.5-15.9-2.5l.4-1.6 0 0 0-.1c0-.1 .1-.4 .2-.7c.2-.7 .4-1.8 .7-3.3c.6-3 1.4-7.5 2.1-13.3c1-8.8 9-15 17.8-14s15 9 14 17.8c-.8 6.7-1.7 12-2.5 15.7c-.3 1.3-.5 2.5-.7 3.4zM457.9 324.8c-1.7 5.1-3.6 10.1-5.7 15c-2.1 5-4.4 9.8-6.9 14.6c-.9-.3-2-.6-3.3-1.1c-3.6-1.2-8.7-3.1-14.8-5.7c-8.1-3.5-11.9-12.9-8.4-21s12.9-11.9 21-8.4c5.3 2.3 9.6 3.9 12.5 4.8c1.4 .5 2.5 .8 3.2 1c.3 .1 .6 .2 .7 .2l.1 0 1.6 .4zM293.4 115.5c-.8-8.8-8.6-15.3-17.4-14.5s-15.3 8.6-14.5 17.4c1.2 12.9 3.4 27 7 41.8c2.1 8.6 10.8 13.8 19.4 11.7s13.8-10.8 11.7-19.4c-3.2-13.1-5.2-25.5-6.2-37zM134.1 192c-7.2-5.1-17.2-3.4-22.3 3.8s-3.4 17.2 3.8 22.3c9.4 6.6 19.2 14.5 28.9 23.9c6.4 6.1 16.5 5.9 22.6-.4s5.9-16.5-.4-22.6c-11-10.6-22.1-19.5-32.7-27zm182.4 7.4c-3.8-8-13.4-11.3-21.4-7.5s-11.3 13.4-7.5 21.4c3 6.2 6.3 12.5 9.9 18.7s7.4 12.2 11.3 17.9c5 7.3 14.9 9.2 22.2 4.2s9.2-14.9 4.2-22.2c-3.4-5-6.8-10.3-10-15.9s-6.1-11.1-8.8-16.6zM203.2 262.1c-5-7.3-14.9-9.2-22.2-4.2s-9.2 14.9-4.2 22.2c3.4 5 6.8 10.3 10 15.9s6.1 11.1 8.8 16.6c3.8 8 13.4 11.3 21.4 7.5s11.3-13.4 7.5-21.4c-3-6.2-6.3-12.5-9.9-18.7s-7.4-12.2-11.3-17.9zM367.5 270c-6.4-6.1-16.5-5.9-22.6 .4s-5.9 16.5 .4 22.6c11 10.6 22.1 19.5 32.7 27c7.2 5.1 17.2 3.4 22.3-3.9s3.4-17.2-3.9-22.3c-9.4-6.6-19.2-14.5-28.9-23.9zm-124 81.8c-2.1-8.6-10.8-13.8-19.4-11.7s-13.8 10.8-11.7 19.4c3.2 13.1 5.2 25.5 6.2 37c.8 8.8 8.6 15.3 17.4 14.5s15.3-8.6 14.5-17.4c-1.2-12.9-3.4-27-7-41.8z"/></svg>