<svg xmlns="http://www.w3.org/2000/svg" viewBox="0 0 512 512"><!--!Font Awesome Pro 6.6.0 by @fontawesome - https://fontawesome.com License - https://fontawesome.com/license (Commercial License) Copyright 2024 Fonticons, Inc.--><path class="fa-secondary" opacity=".4" d="M42.7 170.7l0 21.3 426.7 0 0-21.3c-2.5-28.3-8.6-47-23.5-60.6s-35.2-19.2-66.2-21.5l0-31.1c0-8.2-7.2-14.8-16.1-14.8s-16.1 6.6-16.1 14.8l0 29.8C333.1 87 317 87 299 87l-86 0c-18 0-34.1 0-48.4 .3l0-29.8c0-8.2-7.2-14.8-16.1-14.8s-16.1 6.6-16.1 14.8l0 31.1c-31 2.3-51.3 7.8-66.2 21.5s-21 32.3-23.5 60.6zm0 21.3c0 4.8 0 11.6 0 19.2c0 14.9 .1 33 .1 44.8l0 42.7c0 80.5 0 120.7 25 145.7c24.9 24.9 65 25 145.2 25l.5 0 85.3 0c80.4 0 120.6 0 145.6-25c24.9-24.9 25-65 25-145.1l0-.6 0-42.7c0-17.9-.3-49.8-.5-64L42.7 192zM384 352a32 32 0 1 1 -64 0 32 32 0 1 1 64 0z"/><path class="fa-primary" d="M148.5 42.7c8.9 0 16.1 6.6 16.1 14.8V87.2C178.9 87 195 87 213 87h86c18 0 34.1 0 48.4 .3V57.4c0-8.2 7.2-14.8 16.1-14.8s16.1 6.6 16.1 14.8V88.5c31 2.3 51.3 7.8 66.2 21.5s21 32.3 23.5 60.6V192H42.7V170.7c2.5-28.3 8.6-47 23.5-60.6s35.2-19.2 66.2-21.5V57.4c0-8.2 7.2-14.8 16.1-14.8zM320 352a32 32 0 1 1 64 0 32 32 0 1 1 -64 0z"/></svg>