<svg xmlns="http://www.w3.org/2000/svg" viewBox="0 0 512 512"><!--!Font Awesome Pro 6.6.0 by @fontawesome - https://fontawesome.com License - https://fontawesome.com/license (Commercial License) Copyright 2024 Fonticons, Inc.--><path class="fa-secondary" opacity=".4" d="M42.7 256a213.3 213.3 0 1 0 426.7 0A213.3 213.3 0 1 0 42.7 256zm128-10c0-45.5 0-68.3 12.5-82.5c12.5-14.2 32.6-14.2 72.8-14.2l.2 0c40.1 0 60.1 0 72.6 14.2c12.5 14.2 12.5 37.1 12.5 82.8l0 53.3c0 33 0 49.5-7 56.8c-3.3 3.4-7.5 5.6-12 6.2c-.5 .1-.9 .1-1.4 .1c-9.1 0-20-10.8-40.7-31.5c-9.7-9.6-14.5-14.4-20.1-15.7c-2.8-.6-5.6-.6-8.3 0c-5.6 1.3-10.4 6.1-20.1 15.7c-20.8 20.7-31.7 31.5-40.7 31.5c-.5 0-.9 0-1.4-.1c-4.5-.6-8.7-2.7-12-6.2c-7-7.2-7-23.7-7-56.8l0-53.3 0-.3z"/><path class="fa-primary" d="M341.3 299.6V246.4c0-45.7 0-68.6-12.5-82.8s-32.6-14.2-72.8-14.2s-60.3 0-72.8 14.2s-12.5 37.1-12.5 82.8v53.3c0 33 0 49.5 7 56.8c3.3 3.4 7.5 5.6 12 6.2c9.4 1.2 20.3-9.7 42.1-31.4c9.7-9.6 14.5-14.4 20.1-15.7c2.8-.6 5.6-.6 8.3 0c5.6 1.3 10.4 6.1 20.1 15.7l0 0c21.9 21.8 32.8 32.6 42.1 31.4c4.5-.6 8.7-2.7 12-6.2c7-7.2 7-23.7 7-56.8z"/></svg>