<svg xmlns="http://www.w3.org/2000/svg" viewBox="0 0 512 512"><!--!Font Awesome Pro 6.6.0 by @fontawesome - https://fontawesome.com License - https://fontawesome.com/license (Commercial License) Copyright 2024 Fonticons, Inc.--><path class="fa-secondary" opacity=".4" d="M42.7 256c0 100.6 0 150.9 31.2 182.1s81.5 31.2 182.1 31.2s150.9 0 182.1-31.2s31.2-81.5 31.2-182.1l0-.8c0-100.1-.1-150.2-31.2-181.3C406.9 42.7 356.6 42.7 256 42.7s-150.8 0-182.1 31.2S42.7 155.4 42.7 256zM112 266.4c0-27.1 10.7-54.2 32.2-74.8l47-45.2c23.9-22.9 55.1-34.4 86.3-34.4s62.5 11.5 86.3 34.4C388 169.5 400 199.9 400 230.2s-12 60.7-36.1 83.8l-47 45.2c-13.5 13-31.1 19.4-48.7 19.4s-35.2-6.5-48.7-19.4c-27.3-26.3-27.3-69.1 0-95.4l37.6-36.1c6.4-6.1 16.5-5.9 22.6 .5s5.9 16.5-.5 22.6l-37.6 36.1c-14.2 13.7-14.2 35.5 0 49.2c14.6 14 38.5 14 53.1 0l47-45.2c35-33.6 35-87.9 0-121.5c-35.4-34-93-34-128.3 0l-47 45.2c-29.8 28.6-29.8 74.8 0 103.4c6.4 6.1 6.6 16.2 .5 22.6s-16.3 6.6-22.6 .5c-21.5-20.6-32.2-47.7-32.2-74.8z"/><path class="fa-primary" d="M191.2 146.4c47.8-45.9 124.9-45.9 172.7 0c48.1 46.2 48.1 121.4 0 167.7l-47 45.2c-27 25.9-70.5 25.9-97.4 0c-27.3-26.3-27.3-69.1 0-95.4l37.6-36.1c6.4-6.1 16.5-5.9 22.6 .5s5.9 16.5-.5 22.6l-37.6 36.1c-14.2 13.7-14.2 35.5 0 49.2c14.6 14 38.5 14 53.1 0l47-45.2c35-33.6 35-87.9 0-121.5c-35.4-34-93-34-128.3 0l-47 45.2c-29.8 28.6-29.8 74.8 0 103.4c6.4 6.1 6.6 16.2 .5 22.6s-16.3 6.6-22.6 .5c-42.9-41.2-42.9-108.4 0-149.6l47-45.2z"/></svg>