<svg xmlns="http://www.w3.org/2000/svg" viewBox="0 0 512 512"><!--!Font Awesome Pro 6.6.0 by @fontawesome - https://fontawesome.com License - https://fontawesome.com/license (Commercial License) Copyright 2024 Fonticons, Inc.--><path class="fa-secondary" opacity=".4" d="M42.7 256c0 117.8 95.5 213.3 213.3 213.3c28.3 0 55.3-5.5 80-15.5l0-32.8c-14 1.6-28.5-3-39.3-13.8c-18.7-18.7-18.7-49.1 0-67.9l53.3-53.3c18.7-18.7 49.1-18.7 67.9 0l39.7 39.7c7.6-21.9 11.7-45.3 11.7-69.8c0-117.8-95.5-213.3-213.3-213.3S42.7 138.2 42.7 256zM176 320c0-32.4 26.3-58.7 58.7-58.7c9.6 0 18.7 2.3 26.7 6.4l0-118.4c0-8.8 7.2-16 16-16s16 7.2 16 16c0 26.5 21.5 48 48 48c8.8 0 16 7.2 16 16s-7.2 16-16 16c-18 0-34.6-6-48-16l0 106.7c0 32.4-26.3 58.7-58.7 58.7s-58.7-26.3-58.7-58.7z"/><path class="fa-primary" d="M293.3 149.3c0-8.8-7.2-16-16-16s-16 7.2-16 16l0 118.4c-8-4.1-17.1-6.4-26.7-6.4c-32.4 0-58.7 26.3-58.7 58.7s26.3 58.7 58.7 58.7s58.7-26.3 58.7-58.7l0-106.7c13.4 10 30 16 48 16c8.8 0 16-7.2 16-16s-7.2-16-16-16c-26.5 0-48-21.5-48-48zm79.4 159.4c6.2-6.2 16.4-6.2 22.6 0L448.6 362c6.2 6.2 6.2 16.4 0 22.6s-16.4 6.2-22.6 0l-26-26 0 110.7c0 8.8-7.2 16-16 16s-16-7.2-16-16l0-110.7-26 26c-6.2 6.2-16.4 6.2-22.6 0s-6.2-16.4 0-22.6l53.3-53.3z"/></svg>