<svg xmlns="http://www.w3.org/2000/svg" viewBox="0 0 512 512"><!--!Font Awesome Pro 6.6.0 by @fontawesome - https://fontawesome.com License - https://fontawesome.com/license (Commercial License) Copyright 2024 Fonticons, Inc.--><path class="fa-secondary" opacity=".4" d="M48 42.7l0 426.7c0 8.8 7.2 16 16 16s16-7.2 16-16L80 42.7c0-8.8-7.2-16-16-16s-16 7.2-16 16zm384 0l0 426.7c0 8.8 7.2 16 16 16s16-7.2 16-16l0-426.7c0-8.8-7.2-16-16-16s-16 7.2-16 16z"/><path class="fa-primary" d="M256 426.7c40.2 0 60.3 0 72.8-12.5s12.5-32.6 12.5-72.8l0-170.7c0-40.2 0-60.3-12.5-72.8S296.2 85.3 256 85.3s-60.3 0-72.8 12.5s-12.5 32.6-12.5 72.8l0 170.7c0 40.2 0 60.3 12.5 72.8s32.6 12.5 72.8 12.5z"/></svg>