<svg xmlns="http://www.w3.org/2000/svg" viewBox="0 0 512 512"><!--!Font Awesome Pro 6.6.0 by @fontawesome - https://fontawesome.com License - https://fontawesome.com/license (Commercial License) Copyright 2024 Fonticons, Inc.--><path class="fa-secondary" opacity=".4" d="M94.2 256a161.8 161.8 0 1 0 323.5 0A161.8 161.8 0 1 0 94.2 256zm91-34.1c0-14.7 7.9-26.5 17.7-26.5s17.7 11.9 17.7 26.5s-7.9 26.5-17.7 26.5s-17.7-11.9-17.7-26.5zm5.5 88.3c5-6.7 14.5-8.1 21.2-3.2c12.6 9.3 27.7 14.7 44 14.7s31.5-5.4 44-14.7c6.7-5 16.2-3.6 21.2 3.2s3.6 16.2-3.2 21.2c-17.5 13-38.9 20.7-62.1 20.7s-44.6-7.7-62.1-20.7c-6.7-5-8.1-14.5-3.2-21.2zm100.6-88.3c0-14.7 7.9-26.5 17.7-26.5s17.7 11.9 17.7 26.5s-7.9 26.5-17.7 26.5s-17.7-11.9-17.7-26.5z"/><path class="fa-primary" d="M230.4 54.8c1.7 8.2-3.6 16.2-11.8 17.9c-73.3 14.9-131 72.6-145.9 145.9c-1.7 8.2-9.7 13.5-17.9 11.8s-13.5-9.7-11.8-17.9C60.3 127.3 127.3 60.3 212.5 43c8.2-1.7 16.2 3.6 17.9 11.8zM54.8 281.6c8.2-1.7 16.2 3.6 17.9 11.8c14.9 73.3 72.6 131 145.9 145.9c8.2 1.7 13.5 9.7 11.8 17.9s-9.7 13.5-17.9 11.8C127.3 451.7 60.3 384.7 43 299.5c-1.7-8.2 3.6-16.2 11.8-17.9zM281.6 54.8c1.7-8.2 9.7-13.5 17.9-11.8C384.7 60.3 451.7 127.3 469 212.5c1.7 8.2-3.6 16.2-11.8 17.9s-16.2-3.6-17.9-11.8c-14.9-73.3-72.6-131-145.9-145.9c-8.2-1.7-13.5-9.7-11.8-17.9zM457.2 281.6c8.2 1.7 13.5 9.7 11.8 17.9C451.7 384.7 384.7 451.7 299.5 469c-8.2 1.7-16.2-3.6-17.9-11.8s3.6-16.2 11.8-17.9c73.3-14.9 131-72.6 145.9-145.9c1.7-8.2 9.7-13.5 17.9-11.8zM190.7 310.2c5-6.7 14.5-8.1 21.2-3.2c12.6 9.3 27.7 14.7 44 14.7s31.5-5.4 44-14.7c6.7-5 16.2-3.6 21.2 3.2s3.6 16.2-3.2 21.2c-17.5 13-38.9 20.7-62.1 20.7s-44.6-7.7-62.1-20.7c-6.7-5-8.1-14.5-3.2-21.2zm118.3-61.7c9.8 0 17.7-11.9 17.7-26.5s-7.9-26.5-17.7-26.5s-17.7 11.9-17.7 26.5s7.9 26.5 17.7 26.5zm-106.2 0c9.8 0 17.7-11.9 17.7-26.5s-7.9-26.5-17.7-26.5s-17.7 11.9-17.7 26.5s7.9 26.5 17.7 26.5z"/></svg>