<svg xmlns="http://www.w3.org/2000/svg" viewBox="0 0 512 512"><!--!Font Awesome Pro 6.6.0 by @fontawesome - https://fontawesome.com License - https://fontawesome.com/license (Commercial License) Copyright 2024 Fonticons, Inc.--><path class="fa-secondary" opacity=".4" d="M72 143.9c8.5-2.6 17.3-4.3 26.3-5.4c23-3 52.2-3 86-3l147 0c33.8 0 63 0 86 3c8.9 1.1 17.8 2.8 26.3 5.4c-.2-.5-.3-1-.5-1.5c-8.1-23.8-32.4-41.7-62.1-41.7l-246.4 0c-29.7 0-54 17.9-62.1 41.7c-.2 .5-.3 1-.5 1.5zm46.3-65.3l275.4 0c-8.2-19.1-27.5-33.3-51.2-35.7c-3.3-.3-7.1-.3-12.1-.3l-148.9 0-.9 0c-4.5 0-8.1 0-11.2 .3c-23.6 2.3-43 16.5-51.2 35.7z"/><path class="fa-primary" d="M327 160.9l-142 0c-72 0-108 0-128.2 21.1S41.3 235.5 50.8 300.6l9 61.7c7.5 51 11.2 76.5 30.3 91.8s47.4 15.3 103.8 15.3l123.9 0c56.5 0 84.7 0 103.8-15.3s22.9-40.8 30.3-91.8l9-61.7c9.5-65 14.3-97.6-5.9-118.6S399 160.9 327 160.9zm-15.8 56c1.1 .5 2.5 1.2 4.2 2l24.7 12.3c.7 .3 1.3 .6 1.9 .9c12.4 6.6 20.2 18.8 20.6 32.1c0 .6 0 1.2 0 2l0 .6c0 1.8 0 3.2-.1 4.4c-1.8 26.9-31.9 43.8-58.2 32.6c-1.1-.5-2.5-1.2-4.2-2l-19.8-9.9 0 83.6c0 28.3-24.6 51.2-54.9 51.2s-54.9-22.9-54.9-51.2s24.6-51.2 54.9-51.2c10 0 19.4 2.5 27.4 6.9l0-75c0-.5 0-1.1 0-1.7l0-.6c0-1.8 0-3.2 .1-4.4c1.8-26.9 31.9-43.8 58.2-32.6zm-11.4 23.3C291 236.4 281 242 280.4 251c0 .3 0 .9 0 3.3c0 1 0 1.2 0 1.3c.2 4.4 2.7 8.5 6.9 10.7c.1 .1 .3 .2 1.2 .6l24.2 12c2.3 1.1 2.8 1.4 3.1 1.5c8.8 3.7 18.8-1.9 19.4-10.9c0-.3 0-.9 0-3.3c0-1 0-1.2 0-1.3c-.2-4.4-2.8-8.5-6.9-10.7l-28.6-14.2zM225.5 349.9c15.2 0 27.4 11.5 27.4 25.6s-12.3 25.6-27.4 25.6s-27.4-11.5-27.4-25.6s12.3-25.6 27.4-25.6z"/></svg>