<svg xmlns="http://www.w3.org/2000/svg" viewBox="0 0 512 512"><!--!Font Awesome Pro 6.6.0 by @fontawesome - https://fontawesome.com License - https://fontawesome.com/license (Commercial License) Copyright 2024 Fonticons, Inc.--><path class="fa-secondary" opacity=".4" d="M26.7 193.7c0 64.2 26.4 122.2 68.8 163.8c6.3 6.2 16.4 6.1 22.6-.2s6.1-16.4-.2-22.6c-36.6-35.8-59.2-85.7-59.2-140.9c0-54.6 22.1-103.9 57.9-139.7c6.3-6.2 6.3-16.4 0-22.6c-3.1-3.1-7.2-4.7-11.3-4.7c-4.1 0-8.2 1.6-11.3 4.7C52.4 72.8 26.7 130.3 26.7 193.7zm85.3-.4c0 38.4 16.8 72.9 43.6 97.5c6.5 6 16.6 5.6 22.6-1s5.6-16.6-1-22.6c-20.7-19-33.2-45.2-33.2-73.9c0-28.4 12.3-54.3 32.5-73.3c6.5-6 6.8-16.2 .7-22.6s-16.2-6.8-22.6-.8c-26.2 24.5-42.6 58.7-42.6 96.6zM334.9 289c6.1 6.4 16.2 6.8 22.6 .7c26.1-24.5 42.4-58.6 42.4-96.4c0-37.4-16-71.1-41.5-95.6c-6.4-6.1-16.5-5.9-22.6 .5s-5.9 16.5 .5 22.6c19.7 18.9 31.7 44.4 31.7 72.5c0 28.3-12.2 54.2-32.4 73.1c-6.4 6.1-6.8 16.2-.7 22.6zm60.7 44c-6.2 6.3-6.2 16.4 0 22.6s16.4 6.2 22.6 0c41.4-41.5 67-98.8 67-162c0-62.5-25-119.2-65.6-160.5c-6.2-6.3-16.3-6.4-22.6-.2s-6.4 16.3-.2 22.6c34.9 35.6 56.4 84.3 56.4 138.1c0 54.4-22 103.7-57.7 139.4z"/><path class="fa-primary" d="M231.1 226.6c-10.8-7.7-17.8-20.4-17.8-34.6c0-23.6 19.1-42.7 42.7-42.7s42.7 19.1 42.7 42.7c0 14.3-7 26.9-17.8 34.6l75.7 237.8c2.3 7.3-.8 15.2-7.5 18.9s-15 2.2-20-3.7L256 393.3l-73.1 86.4c-4.9 5.8-13.3 7.4-20 3.7s-9.8-11.6-7.5-18.9l75.7-237.8zM277 368.5l24.8 29.4-13.6-42.7L277 368.5zm-.2-49.2L256 253.9l-20.8 65.3c.3 .3 .7 .7 1 1.1L256 343.7l19.8-23.4c.3-.4 .7-.7 1-1.1zm-53 35.9l-13.6 42.7L235 368.5l-11.3-13.3z"/></svg>