<svg xmlns="http://www.w3.org/2000/svg" viewBox="0 0 512 512"><!--!Font Awesome Pro 6.6.0 by @fontawesome - https://fontawesome.com License - https://fontawesome.com/license (Commercial License) Copyright 2024 Fonticons, Inc.--><path class="fa-secondary" opacity=".4" d="M42.7 256c0-100.6 0-150.8 31.2-182.1C103.4 44.4 150 42.8 240 42.7l0 149.1-43.1-43.1c-6.2-6.2-16.4-6.2-22.6 0s-6.2 16.4 0 22.6l70.4 70.4c3 3 7.1 4.7 11.3 4.7s8.3-1.7 11.3-4.7l70.4-70.4c6.2-6.2 6.2-16.4 0-22.6s-16.4-6.2-22.6 0L272 191.8l0-149.1c90 .1 136.5 1.7 166.1 31.2c31.2 31.2 31.2 81.3 31.2 181.3l0 .8 0 21.3-67.4 0c-19.3 0-29 0-37.5 3.9s-14.8 11.2-27.3 25.9l-12.9 15.1c-12.6 14.7-18.9 22-27.3 25.9s-18.1 3.9-37.5 3.9l-6.8 0c-19.3 0-29 0-37.5-3.9s-14.8-11.2-27.3-25.9l-12.9-15.1c-12.6-14.7-18.9-22-27.3-25.9s-18.1-3.9-37.5-3.9l-67.4 0c0-6.8 0-14 0-21.3z"/><path class="fa-primary" d="M73.9 438.1c31.2 31.2 81.5 31.2 182.1 31.2s150.9 0 182.1-31.2c28.9-28.9 31.1-74.2 31.2-160.8H401.9c-19.3 0-29 0-37.5 3.9s-14.8 11.2-27.3 25.9l-12.9 15.1c-12.6 14.7-18.9 22-27.3 25.9s-18.1 3.9-37.5 3.9h-6.8c-19.3 0-29 0-37.5-3.9s-14.8-11.2-27.3-25.9l-12.9-15.1c-12.6-14.7-18.9-22-27.3-25.9s-18.1-3.9-37.5-3.9H42.7c.2 86.5 2.3 131.8 31.2 160.8zM267.3 241.7c-3 3-7.1 4.7-11.3 4.7s-8.3-1.7-11.3-4.7l-70.4-70.4c-6.2-6.2-6.2-16.4 0-22.6s16.4-6.2 22.6 0L240 191.8l0-149.1c5.2 0 10.5 0 16 0s10.8 0 16 0V191.8l43.1-43.1c6.2-6.2 16.4-6.2 22.6 0s6.2 16.4 0 22.6l-70.4 70.4z"/></svg>