<svg xmlns="http://www.w3.org/2000/svg" viewBox="0 0 512 512"><!--!Font Awesome Pro 6.6.0 by @fontawesome - https://fontawesome.com License - https://fontawesome.com/license (Commercial License) Copyright 2024 Fonticons, Inc.--><path class="fa-secondary" opacity=".4" d="M42.7 256c0 100.6 0 150.9 31.2 182.1s81.5 31.2 182.1 31.2s150.9 0 182.1-31.2c31.2-31.2 31.2-81.3 31.2-181.3l0-.8c0-100.6 0-150.8-31.2-182.1S356.6 42.7 256 42.7s-150.8 0-182.1 31.2S42.7 155.4 42.7 256zm52.3 38.8c-6-6.5-5.6-16.6 .8-22.6l17.3-16.1c26.2-24.3 67.1-23 91.6 3.1l56.5 60c5.9 6.3 15.6 7.1 22.5 2c25.6-19.1 61.2-16.9 84.3 5.1l48.4 46.2c3.3 3.1 4.9 7.4 4.9 11.6c0 4-1.5 8-4.4 11.1c-3.1 3.3-7.4 4.9-11.6 4.9c-4 0-8-1.5-11.1-4.4l-48.4-46.2c-11.8-11.3-30-12.4-43.1-2.6c-19.9 14.9-47.9 12.4-64.9-5.7l-56.5-60c-12.5-13.2-33.3-13.9-46.6-1.6l-17.3 16.1c-6.5 6-16.6 5.6-22.6-.8zM384 170.7a42.7 42.7 0 1 1 -85.3 0 42.7 42.7 0 1 1 85.3 0z"/><path class="fa-primary" d="M181.4 281.1c-12.5-13.2-33.3-13.9-46.6-1.6l-17.3 16.1c-6.5 6-16.6 5.6-22.6-.8s-5.6-16.6 .8-22.6l17.3-16.1c26.2-24.3 67.1-23 91.6 3.1l56.5 60c5.9 6.3 15.6 7.1 22.5 2c25.6-19.1 61.2-16.9 84.3 5.1l48.4 46.2c6.4 6.1 6.6 16.2 .5 22.6s-16.2 6.6-22.6 .5l-48.4-46.2c-11.8-11.3-30-12.4-43.1-2.6c-19.9 14.9-47.9 12.4-64.9-5.7l-56.5-60zM298.7 170.7a42.7 42.7 0 1 1 85.3 0 42.7 42.7 0 1 1 -85.3 0z"/></svg>