<svg xmlns="http://www.w3.org/2000/svg" viewBox="0 0 512 512"><!--!Font Awesome Pro 6.6.0 by @fontawesome - https://fontawesome.com License - https://fontawesome.com/license (Commercial License) Copyright 2024 Fonticons, Inc.--><path class="fa-secondary" opacity=".4" d="M42.7 256c0-64 28.2-121.5 72.9-160.6c.3 .4 .7 .8 1.1 1.2L138 118c6.2 6.2 16.4 6.2 22.6 0s6.2-16.4 0-22.6L141.4 76.1C174.5 54.9 213.8 42.7 256 42.7c64 0 121.5 28.2 160.6 72.9c-.5 .4-.9 .8-1.2 1.1L394 138c-6.2 6.2-6.2 16.4 0 22.6s16.4 6.2 22.6 0l19.3-19.3c21.1 33.1 33.4 72.4 33.4 114.6c0 18.7-2.4 36.8-6.9 54.1c-.7-.9-1.3-1.9-2-2.8c-10.1-12.6-28.2-29.9-51.2-29.9c-18 0-27 10.7-36 21.3s-18 21.3-36 21.3c-15.2 0-28.3-7.6-38.4-16.4c13-11.7 21.2-28.7 21.2-47.6c0-35.3-28.7-64-64-64s-64 28.7-64 64c0 11.6 3.1 22.4 8.5 31.8c-.1 .1-.1 .1-.2 .2c-16.7 12.6-46.4 32-72.3 32c-34.8 0-76.7-35.2-84.2-41.6c-.8-7.3-1.2-14.8-1.2-22.4zm18.2-64.4l1.7 30.1c.5 8.8 8 15.6 16.9 15.1s15.6-8 15.1-16.9l-1.7-30.1c-.5-8.8-8-15.6-16.9-15.1s-15.6 8-15.1 16.9zm47 68.7c-5.2 7.1-3.7 17.1 3.5 22.4s17.1 3.7 22.4-3.5l17.8-24.3c5.2-7.1 3.7-17.1-3.5-22.4s-17.1-3.7-22.4 3.5l-17.8 24.3zm9.9-86l12.5 27.5c3.7 8 13.1 11.6 21.2 7.9s11.6-13.1 7.9-21.2L147 161c-3.7-8-13.1-11.6-21.2-7.9s-11.6 13.1-7.9 21.2zm61.5-12.9c2.3 8.5 11.1 13.6 19.6 11.3l29.1-7.8c8.5-2.3 13.6-11.1 11.3-19.6s-11.1-13.6-19.6-11.3l-29.1 7.8c-8.5 2.3-13.6 11.1-11.3 19.6zM223.3 74c-6.2 6.2-6.2 16.4 0 22.6L244.7 118c6.2 6.2 16.4 6.2 22.6 0s6.2-16.4 0-22.6L246 74c-3.1-3.1-7.2-4.7-11.3-4.7s-8.2 1.6-11.3 4.7zm73.2 65.7c-5.3 7.1-3.9 17.1 3.2 22.4s17.1 3.9 22.4-3.2l32-42.7c5.3-7.1 3.9-17.1-3.2-22.4s-17.1-3.9-22.4 3.2l-32 42.7zm42.7 52.5l1.4 30.1c.4 8.8 7.9 15.6 16.7 15.2s15.6-7.9 15.2-16.7l-1.4-30.1c-.4-8.8-7.9-15.6-16.7-15.2s-15.6 7.9-15.2 16.7zm54.1 65c5.8 6.6 15.9 7.3 22.6 1.4l35.8-31.5c6.6-5.8 7.3-16 1.4-22.6s-16-7.3-22.6-1.4l-35.8 31.5c-6.6 5.8-7.3 16-1.4 22.6z"/><path class="fa-primary" d="M416.6 115.6c-.4 .3-.8 .7-1.2 1.1L394 138c-6.2 6.2-6.2 16.4 0 22.6s16.4 6.2 22.6 0l19.3-19.3c-5.8-9.1-12.3-17.7-19.3-25.8zm-301-20.2c.3 .4 .7 .8 1.1 1.2L138 118c6.2 6.2 16.4 6.2 22.6 0s6.2-16.4 0-22.6L141.3 76.1c-9.1 5.8-17.7 12.3-25.8 19.3zm107.8 1.2c-6.2-6.2-6.2-16.4 0-22.6s16.4-6.2 22.6 0l21.3 21.3c6.2 6.2 6.2 16.4 0 22.6s-16.4 6.2-22.6 0L223.3 96.6zm130.8 19.6c5.3-7.1 3.9-17.1-3.2-22.4s-17.1-3.9-22.4 3.2l-32 42.7c-5.3 7.1-3.9 17.1 3.2 22.4s17.1 3.9 22.4-3.2l32-42.7zm-174.7 45c2.3 8.5 11.1 13.6 19.6 11.3l29.1-7.8c8.5-2.3 13.6-11.1 11.3-19.6s-11.1-13.6-19.6-11.3l-29.1 7.8c-8.5 2.3-13.6 11.1-11.3 19.6zm193.2 59.6c.4 8.8-6.4 16.3-15.2 16.7s-16.3-6.4-16.7-15.2l-1.4-30.1c-.4-8.8 6.4-16.3 15.2-16.7s16.3 6.4 16.7 15.2l1.4 30.1zm20.7 36.4c5.8 6.6 15.9 7.3 22.6 1.4l35.8-31.5c6.6-5.8 7.3-16 1.4-22.6s-16-7.3-22.6-1.4l-35.8 31.5c-6.6 5.8-7.3 16-1.4 22.6zm-275.5-83c-3.7-8-.1-17.5 7.9-21.2s17.5-.1 21.2 7.9l12.5 27.5c3.7 8 .1 17.5-7.9 21.2s-17.5 .1-21.2-7.9l-12.5-27.5zm30.3 58.2c7.1 5.2 8.7 15.2 3.5 22.4l-17.8 24.3c-5.2 7.1-15.2 8.7-22.4 3.5s-8.7-15.2-3.5-22.4l17.8-24.3c5.2-7.1 15.2-8.7 22.4-3.5zM60.9 191.6c-.5-8.8 6.3-16.4 15.1-16.9s16.4 6.3 16.9 15.1l1.7 30.1c.5 8.8-6.3 16.4-15.1 16.9s-16.4-6.3-16.9-15.1l-1.7-30.1zM128 320c25.9 0 55.6-19.4 72.3-32l.2-.2C211.5 307 232.2 320 256 320c16.5 0 31.5-6.2 42.8-16.4c10 8.8 23.1 16.4 38.4 16.4c18 0 27-10.7 36-21.3s18-21.3 36-21.3c23 0 41.1 17.4 51.2 29.9l2 2.8c-.3 1.3-.7 2.6-1 3.9c-11.5-9.8-30.7-9.5-45.8 1.7c-12.8 9.5-19.1 24.1-16.9 36.8l-2.2 2.2-7.1-9.6c-13.1-17.8-41.1-19.3-62.5-3.5s-28.1 43-14.9 60.8l4 5.3-4 4c-10.9-3.4-24.5-1.1-35.7 7.2c-17 12.6-19.9 36.1-9.7 50.4c-3.5 .2-7 .3-10.5 .3c-110.3 0-201-83.7-212.2-191C51.3 284.8 93.2 320 128 320z"/></svg>