<svg xmlns="http://www.w3.org/2000/svg" viewBox="0 0 512 512"><!--!Font Awesome Pro 6.6.0 by @fontawesome - https://fontawesome.com License - https://fontawesome.com/license (Commercial License) Copyright 2024 Fonticons, Inc.--><path class="fa-secondary" opacity=".4" d="M83.8 362.7c0 2.9 .8 5.8 2.4 8.4c34.4 55.7 96.5 92.9 167.3 92.9c102.6 0 187-78.1 195.2-177.8l20.6 0c6.5 0 12.3-3.9 14.8-9.9c.8-2 1.2-4 1.2-6.1c0-4.2-1.7-8.3-4.8-11.4l-36-35.6c-3.1-3.1-7.2-4.6-11.2-4.6s-8.1 1.5-11.2 4.6l-36 35.6c-4.6 4.6-6 11.5-3.6 17.5s8.3 9.9 14.8 9.9l19.2 0C408.4 367.9 338.7 432 253.5 432c-59.4 0-111.3-31.1-140-77.7c-4.6-7.5-14.5-9.9-22-5.2c-4.9 3-7.6 8.3-7.6 13.6z"/><path class="fa-primary" d="M257.7 48C155.4 48 71.4 126.1 63.2 225.8H42.7c-6.5 0-12.3 3.9-14.8 9.9s-1.1 12.9 3.5 17.5l35.8 35.6c6.2 6.2 16.3 6.2 22.5 0l35.8-35.6c4.6-4.6 6-11.5 3.5-17.5s-8.3-9.9-14.8-9.9h-19C103.4 144 172.9 80 257.7 80c59.1 0 110.8 31.1 139.4 77.7c4.6 7.5 14.5 9.9 22 5.3s9.9-14.5 5.3-22c-34.3-55.7-96.1-93-166.7-93z"/></svg>