<svg xmlns="http://www.w3.org/2000/svg" viewBox="0 0 512 512"><!--!Font Awesome Pro 6.6.0 by @fontawesome - https://fontawesome.com License - https://fontawesome.com/license (Commercial License) Copyright 2024 Fonticons, Inc.--><path class="fa-secondary" opacity=".4" d="M42.7 315c0 42.6 29.8 78.2 69.8 87.8c-1.5-5.9 .4-12.1 5-16.1L209 307.9c3-2.6 6.7-3.9 10.4-3.9c4.5 0 9 1.9 12.1 5.6c5.8 6.7 5 16.8-1.7 22.6l-58.8 50.7 48.3 0c6.7 0 12.7 4.2 15 10.4c1.5 4 1.3 8.4-.4 12.1l106 0L351.4 394c6.2-6.2 16.4-6.2 22.6 0c2.1 2.1 3.5 4.7 4.2 7.4c52.4-13.5 91.1-60.6 91.1-116.6c0-52.7-34.3-97.6-82-113.9c-6.8-60.2-58.4-107-121.1-107c-67.3 0-121.9 53.9-121.9 120.5c0 14.7 2.7 28.8 7.6 41.9c-5.7-1.1-11.7-1.7-17.7-1.7c-50.5 0-91.4 40.5-91.4 90.4zM266 362l42.7-42.7c6.2-6.2 16.4-6.2 22.6 0s6.2 16.4 0 22.6l-42.7 42.7c-6.2 6.2-16.4 6.2-22.6 0s-6.2-16.4 0-22.6z"/><path class="fa-primary" d="M231.5 309.6c5.8 6.7 5 16.8-1.7 22.6l-58.8 50.7 48.3 0c6.7 0 12.7 4.2 15 10.4s.5 13.3-4.6 17.7l-91.4 78.8c-6.7 5.8-16.8 5-22.6-1.7s-5-16.8 1.7-22.6l58.8-50.6-48.3 0c-6.7 0-12.7-4.2-15-10.4s-.5-13.3 4.6-17.7L209 307.9c6.7-5.8 16.8-5 22.6 1.7zm99.8 9.8c6.2 6.2 6.2 16.4 0 22.6l-42.7 42.7c-6.2 6.2-16.4 6.2-22.6 0s-6.2-16.4 0-22.6l42.7-42.7c6.2-6.2 16.4-6.2 22.6 0zM374 394c6.2 6.2 6.2 16.4 0 22.6l-42.7 42.7c-6.2 6.2-16.4 6.2-22.6 0s-6.2-16.4 0-22.6L351.4 394c6.2-6.2 16.4-6.2 22.6 0zm-85.3 21.3c6.2 6.2 6.2 16.4 0 22.6L246 480.6c-6.2 6.2-16.4 6.2-22.6 0s-6.2-16.4 0-22.6L266 415.4c6.2-6.2 16.4-6.2 22.6 0z"/></svg>