<svg xmlns="http://www.w3.org/2000/svg" viewBox="0 0 512 512"><!--!Font Awesome Pro 6.6.0 by @fontawesome - https://fontawesome.com License - https://fontawesome.com/license (Commercial License) Copyright 2024 Fonticons, Inc.--><path class="fa-secondary" opacity=".4" d="M42.7 256c0-100.6 0-150.8 31.2-182.1S155.4 42.7 256 42.7c88.2 0 137.7 0 169.6 21.1l-111 111 0-41.4c0-8.8-7.2-16-16-16s-16 7.2-16 16l0 80c0 8.8 7.2 16 16 16l80 0c8.8 0 16-7.2 16-16s-7.2-16-16-16l-41.4 0 111-111c21 31.8 21.1 81.2 21.1 168.9l0 .8c0 100.6 0 150.9-31.2 182.1s-81.5 31.2-182.1 31.2c-88.2 0-137.7 0-169.6-21.1l111-111 0 41.4c0 8.8 7.2 16 16 16s16-7.2 16-16l0-80c0-8.8-7.2-16-16-16l-80 0c-8.8 0-16 7.2-16 16s7.2 16 16 16l41.4 0-111 111C42.7 393.7 42.7 344.2 42.7 256z"/><path class="fa-primary" d="M425.6 63.7c4.5 3 8.6 6.3 12.5 10.2s7.2 8 10.2 12.5l-111 111h41.4c8.8 0 16 7.2 16 16s-7.2 16-16 16h-80c-8.8 0-16-7.2-16-16v-80c0-8.8 7.2-16 16-16s16 7.2 16 16v41.4l111-111zM86.4 448.3c-4.5-3-8.6-6.3-12.5-10.2s-7.2-8-10.2-12.5l111-111H133.3c-8.8 0-16-7.2-16-16s7.2-16 16-16h80c8.8 0 16 7.2 16 16v80c0 8.8-7.2 16-16 16s-16-7.2-16-16V337.3l-111 111z"/></svg>