<svg xmlns="http://www.w3.org/2000/svg" viewBox="0 0 512 512"><!--!Font Awesome Pro 6.6.0 by @fontawesome - https://fontawesome.com License - https://fontawesome.com/license (Commercial License) Copyright 2024 Fonticons, Inc.--><path class="fa-secondary" opacity=".4" d="M106.7 177l0 1.8c.2 43.1 18.5 84.6 51.4 116.2l23.6 22.5c6.6 6.3 10.4 15.1 10.4 24.3c0 13.8 11.1 25 24.7 25l78.6 0c13.6 0 24.7-11.2 24.7-25c0-9.2 3.7-18 10.4-24.3L353.9 295c32.9-31.6 51.2-73.1 51.4-116.2l0-1.8c0-73.7-66.9-134.3-149.3-134.3s-149.3 60.6-149.3 134.3z"/><path class="fa-primary" d="M197.3 399.1c0-8.9 7.2-16.2 16-16.2l85.3 0c8.8 0 16 7.3 16 16.2s-7.2 16.2-16 16.2l-85.3 0c-8.8 0-16-7.3-16-16.2zm14.2 54c0-8.9 7.2-16.2 16-16.2l56.9 0c8.8 0 16 7.3 16 16.2s-7.2 16.2-16 16.2l-56.9 0c-8.8 0-16-7.3-16-16.2z"/></svg>