<svg xmlns="http://www.w3.org/2000/svg" viewBox="0 0 512 512"><!--!Font Awesome Pro 6.6.0 by @fontawesome - https://fontawesome.com License - https://fontawesome.com/license (Commercial License) Copyright 2024 Fonticons, Inc.--><path class="fa-secondary" opacity=".4" d="M213.8 200.8l.9-.4L246 184.7c20.4-10.2 44.8-7.6 62.6 6.6c15.5 12.4 36.2 16.1 55 9.8l34.1-11.4c0-1.4 .1-2.8 .1-4.2c0-2.5-.1-5-.2-7.5c-.1-1-.1-2-.3-4.1l-6-75.3-46.5-28L279.2 103c-1.8 .9-2.7 1.3-3.5 1.7c-30.5 15.7-52.2 45.2-58.8 80c-.2 1-.4 2-.7 4c-.3 2-.5 3-.7 3.9c-.5 2.8-1.1 5.5-1.7 8.2z"/><path class="fa-primary" d="M360.5 271.2c22.7-20.7 36.1-50.2 37.2-81.4l-34.1 11.4c-18.8 6.3-39.5 2.6-55-9.8c-17.8-14.2-42.2-16.8-62.6-6.6l-31.4 15.7-.9 .4c-7.3 31.4-23 60-45.3 82.5c-.7 .7-1.4 1.4-2.8 2.7l-16.9 16.7c-22.5 22.1-33.8 33.2-38.2 44.9c-6.8 17.9-4.5 38.1 6.1 53.9c7 10.3 20.4 18.4 47.3 34.6l14.3 8.6c26.9 16.2 40.3 24.3 52.4 25.4c18.4 1.7 36.4-6.3 47.8-21.4c7.5-9.9 11-25.6 18.2-57l5.4-23.6c.4-1.9 .7-2.9 .9-3.9c8.1-34.2 26.2-64.9 51.8-87.9c.7-.6 1.4-1.3 2.9-2.6c1.5-1.3 2.3-2 3-2.6zM344.6 70.8l46.5 28L401 81c2.8-5.1 4.2-7.7 4.4-10.2c.1-2.2-.5-4.4-1.7-6.3c-1.4-2.1-3.9-3.6-8.9-6.7L377.9 47.7c-5.4-3.2-8-4.8-10.7-5c-2.3-.1-4.6 .5-6.6 1.8c-2.2 1.5-3.7 4.2-6.8 9.7l-9.2 16.6z"/></svg>