<svg xmlns="http://www.w3.org/2000/svg" viewBox="0 0 512 512"><!--!Font Awesome Pro 6.6.0 by @fontawesome - https://fontawesome.com License - https://fontawesome.com/license (Commercial License) Copyright 2024 Fonticons, Inc.--><path class="fa-secondary" opacity=".4" d="M26.7 106.7c0 8.8 7.2 16 16 16l48 0 0-32-48 0c-8.8 0-16 7.2-16 16zm128 0c0 8.8 7.2 16 16 16l64 0c40.7 0 69.6 0 91.5 3c21.5 2.9 33.8 8.3 42.9 17.3s14.4 21.4 17.3 42.9c2.9 21.9 3 50.8 3 91.5l0 64c0 8.8 7.2 16 16 16s16-7.2 16-16l0-65.2 0-.3c0-39.1 0-70.1-3.3-94.3c-3.4-25-10.4-45.3-26.4-61.2s-36.2-23.1-61.2-26.4c-24.3-3.3-55.4-3.3-94.6-3.3l-65.2 0c-8.8 0-16 7.2-16 16zM389.3 421.3l0 48c0 8.8 7.2 16 16 16s16-7.2 16-16l0-48-32 0z"/><path class="fa-primary" d="M106.7 26.7c8.8 0 16 7.2 16 16l0 192c0 40.7 0 69.6 3 91.5c2.9 21.5 8.3 33.8 17.3 42.9s21.4 14.4 42.9 17.3c21.9 2.9 50.8 3 91.5 3l192 0c8.8 0 16 7.2 16 16s-7.2 16-16 16l-48 0-32 0-113.2 0c-39.2 0-70.3 0-94.6-3.3c-25-3.4-45.3-10.4-61.2-26.4s-23.1-36.2-26.4-61.2c-3.3-24.3-3.3-55.4-3.3-94.6l0-113.2 0-32 0-48c0-8.8 7.2-16 16-16zm74.7 218.7c0-30.2 0-45.3 9.4-54.6s24.5-9.4 54.6-9.4h21.3c30.2 0 45.3 0 54.6 9.4s9.4 24.5 9.4 54.6v21.3c0 30.2 0 45.3-9.4 54.6s-24.5 9.4-54.6 9.4H245.3c-30.2 0-45.3 0-54.6-9.4s-9.4-24.5-9.4-54.6V245.3z"/></svg>