<svg xmlns="http://www.w3.org/2000/svg" viewBox="0 0 512 512"><!--!Font Awesome Pro 6.6.0 by @fontawesome - https://fontawesome.com License - https://fontawesome.com/license (Commercial License) Copyright 2024 Fonticons, Inc.--><path class="fa-secondary" opacity=".4" d="M85.3 167.3l0 253c0-.4 0-.7 0-1.1s0-.7 .1-1.1c.1-.7 .2-1.5 .3-2.3c.3-1.6 .8-3.3 1.6-5.4c2.7-7.3 3.9-8.5 6.2-10.8c6.9-6.8 16.5-11.9 27.4-14.2c6.2-1.3 14.3-1.5 37.4-1.5l268.2 0 0-216.7c0-34.1 0-57.8-2.4-75.8c-2.3-17.4-6.6-26.6-13.1-33.2s-15.7-10.9-32.9-13.2c-17.8-2.4-41.3-2.4-75.1-2.4l-94.2 0c-33.8 0-57.4 0-75.1 2.4c-17.3 2.3-26.4 6.6-32.9 13.2s-10.8 15.8-13.1 33.2c-2.4 17.9-2.4 41.7-2.4 75.8zm69.3-18c0-8.8 7.2-16 16-16l170.7 0c8.8 0 16 7.2 16 16s-7.2 16-16 16l-170.7 0c-8.8 0-16-7.2-16-16zm0 74.7c0-8.8 7.2-16 16-16l106.7 0c8.8 0 16 7.2 16 16s-7.2 16-16 16l-106.7 0c-8.8 0-16-7.2-16-16z"/><path class="fa-primary" d="M158.4 384H426.7c-.1 19.8-.5 34.6-2.4 46.3c-2.3 13.9-6.6 21.3-13.1 26.5s-15.7 8.7-33.1 10.5c-17.8 1.9-41.5 2-75.4 2H208.1c-33.9 0-57.6 0-75.4-2c-17.3-1.9-26.5-5.3-33.1-10.5s-10.8-12.6-13.1-26.5c-.2-1-.3-2.1-.5-3.2c-.9-6.2-1.3-9.3 1.4-16.6s3.9-8.5 6.2-10.8c6.9-6.8 16.5-11.9 27.4-14.2c6.2-1.3 14.3-1.5 37.4-1.5zm-3.8-234.7c0-8.8 7.2-16 16-16H341.3c8.8 0 16 7.2 16 16s-7.2 16-16 16H170.7c-8.8 0-16-7.2-16-16zm16 58.7c-8.8 0-16 7.2-16 16s7.2 16 16 16H277.3c8.8 0 16-7.2 16-16s-7.2-16-16-16H170.7z"/></svg>