<svg xmlns="http://www.w3.org/2000/svg" viewBox="0 0 512 512"><!--!Font Awesome Pro 6.6.0 by @fontawesome - https://fontawesome.com License - https://fontawesome.com/license (Commercial License) Copyright 2024 Fonticons, Inc.--><path class="fa-secondary" opacity=".4" d="M42.7 256c0 7.4 0 14.5 0 21.3l67.4 0c19.3 0 29 0 37.5 3.9s14.8 11.2 27.3 25.9l12.9 15.1c12.6 14.7 18.9 22 27.3 25.9s18.1 3.9 37.5 3.9l6.8 0c19.3 0 29 0 37.5-3.9s14.8-11.2 27.3-25.9l12.9-15.1c12.6-14.7 18.9-22 27.3-25.9s18.1-3.9 37.5-3.9l67.4 0c0-6.6 0-13.5 0-20.6l0-.8c0-29.8 0-55.3-.8-77.1c-16.9 14.8-39 23.7-63.2 23.7c-53 0-96-43-96-96c0-24.2 9-46.3 23.7-63.2c-21.8-.8-47.1-.8-76.9-.8c-100.7 0-151 0-182.3 31.2S42.7 155.4 42.7 256z"/><path class="fa-primary" d="M341.3 106.7a64 64 0 1 1 128 0 64 64 0 1 1 -128 0zM73.9 438.1c31.2 31.2 81.5 31.2 182.1 31.2s150.9 0 182.1-31.2c28.9-28.9 31.1-74.2 31.2-160.8H401.9c-19.3 0-29 0-37.5 3.9s-14.8 11.2-27.3 25.9l-12.9 15.1c-12.6 14.7-18.9 22-27.3 25.9s-18.1 3.9-37.5 3.9h-6.8c-19.3 0-29 0-37.5-3.9s-14.8-11.2-27.3-25.9l-12.9-15.1c-12.6-14.7-18.9-22-27.3-25.9s-18.1-3.9-37.5-3.9H42.7c.2 86.5 2.3 131.8 31.2 160.8z"/></svg>