<svg xmlns="http://www.w3.org/2000/svg" viewBox="0 0 512 512"><!--!Font Awesome Pro 6.6.0 by @fontawesome - https://fontawesome.com License - https://fontawesome.com/license (Commercial License) Copyright 2024 Fonticons, Inc.--><path class="fa-secondary" opacity=".4" d="M268.5 90c5.7 11.4 8.9 24.3 8.9 38s-3.2 26.5-8.9 38c11.7 15.8 30.4 26 51.5 26c35.3 0 64-28.7 64-64s-28.7-64-64-64c-21.1 0-39.9 10.2-51.5 26zm31.4 213.6c25.7 15.3 41.5 36.1 41.5 59c0 22.9-15.8 43.7-41.4 59c12.7 3.2 26.7 5 41.4 5c58.9 0 106.7-28.7 106.7-64s-47.8-64-106.7-64c-14.7 0-28.7 1.8-41.4 5z"/><path class="fa-primary" d="M192 42.7a85.3 85.3 0 1 0 0 170.7 85.3 85.3 0 1 0 0-170.7zm0 234.7A149.3 85.3 0 1 0 192 448a149.3 85.3 0 1 0 0-170.7z"/></svg>