<svg xmlns="http://www.w3.org/2000/svg" viewBox="0 0 512 512"><!--!Font Awesome Pro 6.6.0 by @fontawesome - https://fontawesome.com License - https://fontawesome.com/license (Commercial License) Copyright 2024 Fonticons, Inc.--><path class="fa-secondary" opacity=".4" d="M133.3 96c0 8.8 7.2 16 16 16c37.5 0 59.3 15.2 72.3 33.3c13.6 18.9 18.3 42.1 18.3 57.3l0 174.7 16 16 16-16 0-174.7c0-20.3-6-50.5-24.3-76c-19-26.3-50.4-46.7-98.3-46.7c-8.8 0-16 7.2-16 16zM250.2 430.9c.9 .4 1.9 .6 2.9 .8c-1-.2-1.9-.5-2.9-.8zm2.9 .8c.5 .1 1 .2 1.5 .2c.5 0 1 .1 1.5 .1c-1 0-2-.1-3-.3z"/><path class="fa-primary" d="M374 298c6.2 6.2 6.2 16.4 0 22.6L267.3 427.3c-6.2 6.2-16.4 6.2-22.6 0L138 320.6c-6.2-6.2-6.2-16.4 0-22.6s16.4-6.2 22.6 0L256 393.4 351.4 298c6.2-6.2 16.4-6.2 22.6 0z"/></svg>