<svg xmlns="http://www.w3.org/2000/svg" viewBox="0 0 512 512"><!--!Font Awesome Pro 6.6.0 by @fontawesome - https://fontawesome.com License - https://fontawesome.com/license (Commercial License) Copyright 2024 Fonticons, Inc.--><path d="M432 32a48 48 0 0 1 48 48v96c0 21.1-8.3 41.6-23.4 56.6S421.1 256 400 256s-41.6-8.3-56.6-23.4S320 197.1 320 176V80a48 48 0 0 1 48-48zm-20.8 91.2c3.2-2.9 4.8-7 4.8-11.2V64h-32v48c0 4.2 1.6 8.3 4.8 11.2c2.9 3.2 7 4.8 11.2 4.8s8.3-1.6 11.2-4.8M400 288c30 0 58.1-11.6 79.2-32.8l.4-.5 .4-.5V360a56 56 0 0 1 -56 56H88A56 56 0 0 1 32 360V152c0-30.9 25.1-56 56-56H288v80c0 29.9 11.6 58 32.8 79.2A111 111 0 0 0 400 288M288 264a24 24 0 1 0 -48 0 24 24 0 0 0 48 0m-64-64a24 24 0 1 0 -48 0 24 24 0 0 0 48 0m-32 64a24 24 0 1 0 -48 0 24 24 0 0 0 48 0m-88-88a24 24 0 1 0 0 48 24 24 0 0 0 0-48m8 176h288a16 16 0 0 0 0-32H112a16 16 0 0 0 0 32"/></svg>