<svg xmlns="http://www.w3.org/2000/svg" viewBox="0 0 512 512"><!--!Font Awesome Pro 6.6.0 by @fontawesome - https://fontawesome.com License - https://fontawesome.com/license (Commercial License) Copyright 2024 Fonticons, Inc.--><path class="fa-secondary" opacity=".4" d="M42.7 256c0-100.6 0-150.8 31.2-182.1S155.4 42.7 256 42.7c29.6 0 54.9 0 76.5 .8c-26.6 3-52.4 14.8-72.8 35.2c-31.8 31.8-42.5 76.8-32.1 117.5c1.7 6.6 .2 13.7-4.6 18.4l-66 66c-5.7 5.7-8.4 13.6-7.5 21.5l4.1 37.1c.4 4 2.2 7.7 5 10.5l3.7 3.7c2.8 2.8 6.5 4.6 10.5 5l37.1 4.1c7.9 .9 15.9-1.9 21.5-7.5l10.7-10.7-31-30.7c-6.3-6.2-6.3-16.3-.1-22.6s16.3-6.3 22.6-.1l31.1 30.8c10.9-10.8 21.8-21.7 32.7-32.6c4.8-4.8 11.9-6.3 18.4-4.6c40.7 10.4 85.6-.3 117.5-32.1c20.3-20.3 32-46 35.2-72.8c.8 21.5 .8 46.5 .8 75.8l0 .8c0 100.6 0 150.9-31.2 182.1s-81.5 31.2-182.1 31.2s-150.8 0-182.1-31.2S42.7 356.6 42.7 256zM370 192.3A35.6 35.6 0 1 1 319.7 142 35.6 35.6 0 1 1 370 192.3zM382.6 48.1c24 4.3 41.6 12 55.5 25.8s21.5 31.4 25.8 55.5c-5.7-18.6-15.9-36-30.6-50.7s-32.2-24.9-50.7-30.6z"/><path class="fa-primary" d="M468.5 179.5c-3 26.6-14.8 52.4-35.2 72.8c-31.8 31.8-76.8 42.5-117.5 32.1c-6.6-1.7-13.6-.2-18.4 4.6l-32.6 32.6-.1-.1-31.1-30.8c-6.3-6.2-16.4-6.2-22.6 .1s-6.2 16.4 .1 22.6l31 30.7L231.5 355c-5.7 5.7-13.6 8.4-21.5 7.5l-37.1-4.1c-4-.4-7.6-2.2-10.5-5l-3.7-3.7c-2.8-2.8-4.6-6.5-5-10.5l-4.1-37.1c-.9-7.9 1.9-15.9 7.5-21.5l66-66c4.8-4.8 6.3-11.9 4.6-18.4c-10.4-40.7 .3-85.6 32.1-117.5c20.4-20.4 46.2-32.1 72.8-35.2c19.3 .7 35.9 2.1 50.1 4.6c18.6 5.7 36 15.9 50.7 30.6s24.9 32.2 30.6 50.7c2.5 14.2 3.9 30.8 4.6 50.1zM319.7 142A35.6 35.6 0 1 0 370 192.3 35.6 35.6 0 1 0 319.7 142z"/></svg>