<svg xmlns="http://www.w3.org/2000/svg" viewBox="0 0 512 512"><!--!Font Awesome Pro 6.6.0 by @fontawesome - https://fontawesome.com License - https://fontawesome.com/license (Commercial License) Copyright 2024 Fonticons, Inc.--><path class="fa-secondary" opacity=".4" d="M133.3 165.3l0 64C133.3 297.1 188.3 352 256 352c62.3 0 113.8-46.5 121.6-106.7l-100.3 0c-8.8 0-16-7.2-16-16s7.2-16 16-16l101.3 0 0-32-101.3 0c-8.8 0-16-7.2-16-16s7.2-16 16-16l100.3 0C369.8 89.1 318.3 42.7 256 42.7c-67.7 0-122.7 54.9-122.7 122.7z"/><path class="fa-primary" d="M85.3 192c8.8 0 16 7.2 16 16l0 21.3C101.3 314.8 170.6 384 256 384s154.7-69.2 154.7-154.7l0-21.3c0-8.8 7.2-16 16-16s16 7.2 16 16l0 21.3c0 97.7-75.1 177.9-170.7 186l0 48.7c0 8.8-7.2 16-16 16s-16-7.2-16-16l0-48.7c-95.6-8.1-170.7-88.3-170.7-186l0-21.3c0-8.8 7.2-16 16-16zm176 37.3c0 8.8 7.2 16 16 16l100.3 0 1-32-101.3 0c-8.8 0-16 7.2-16 16zm0-64c0 8.8 7.2 16 16 16H378.7l-1-32H277.3c-8.8 0-16 7.2-16 16z"/></svg>