<svg xmlns="http://www.w3.org/2000/svg" viewBox="0 0 512 512"><!--!Font Awesome Pro 6.6.0 by @fontawesome - https://fontawesome.com License - https://fontawesome.com/license (Commercial License) Copyright 2024 Fonticons, Inc.--><path class="fa-secondary" opacity=".4" d="M48 149.3c0-8.8 7.2-16 16-16l213.3 0c8.8 0 16 7.2 16 16s-7.2 16-16 16L64 165.3c-8.8 0-16-7.2-16-16zM48 256c0-8.8 7.2-16 16-16l149.3 0c8.8 0 16 7.2 16 16s-7.2 16-16 16L64 272c-8.8 0-16-7.2-16-16zm0 106.7c0-8.8 7.2-16 16-16l106.7 0c8.8 0 16 7.2 16 16s-7.2 16-16 16L64 378.7c-8.8 0-16-7.2-16-16z"/><path class="fa-primary" d="M366.6 142.8c-2.6-5.7-8.3-9.4-14.6-9.4s-12 3.7-14.6 9.4l-96 213.3c-3.6 8.1 0 17.5 8 21.2s17.5 0 21.2-8l30.7-68.1 101.5 0 30.7 68.1c3.6 8.1 13.1 11.7 21.2 8s11.7-13.1 8-21.2l-96-213.3zM352 188.3l36.3 80.8-72.7 0L352 188.3z"/></svg>