<svg xmlns="http://www.w3.org/2000/svg" viewBox="0 0 512 512"><!--!Font Awesome Pro 6.6.0 by @fontawesome - https://fontawesome.com License - https://fontawesome.com/license (Commercial License) Copyright 2024 Fonticons, Inc.--><path class="fa-secondary" opacity=".4" d="M21.3 277.3c0 117.8 95.5 213.3 213.3 213.3s213.3-95.5 213.3-213.3c0-43-12.7-83.1-34.6-116.6L392 173.1c-5.6 3.2-12.6 2.8-17.7-1.2s-7.4-10.6-5.7-16.8l9.6-35.7c-8.5-7.7-17.6-14.8-27.3-21.1l-1.5 .8c-7.7 4.4-17.4 1.8-21.9-5.9c-1.7-2.9-2.3-6.1-2.1-9.1C297.8 71.2 267.1 64 234.7 64C116.8 64 21.3 159.5 21.3 277.3zm80-21.3c0-4.4 1.8-8.7 5.3-11.9c6.6-5.9 16.7-5.4 22.6 1.2c9.9 11 20.6 16 30.8 16s20.9-5 30.8-16c5.9-6.6 16-7.1 22.6-1.2s7.1 16 1.2 22.6c-14.3 15.9-33 26.6-54.6 26.6s-40.3-10.8-54.6-26.6c-2.7-3.1-4.1-6.9-4.1-10.7zM256 362.7a21.3 21.3 0 1 1 -42.7 0 21.3 21.3 0 1 1 42.7 0zM241.2 152.2c.8-6.4 5.5-11.7 11.7-13.4l21-5.6-3.5-2c-7.7-4.4-10.3-14.2-5.9-21.9s14.2-10.3 21.9-5.9l36.9 21.3c5.6 3.2 8.7 9.5 7.9 15.9s-5.5 11.7-11.7 13.4l-21 5.6 3.5 2c7.7 4.4 10.3 14.2 5.9 21.9s-14.2 10.3-21.9 5.9L249 168.1c-5.6-3.2-8.7-9.5-7.9-15.9zm13.6 114.5c-5.9-6.6-5.4-16.7 1.2-22.6s16.7-5.4 22.6 1.2c9.9 11 20.6 16 30.8 16s20.9-5 30.8-16c5.9-6.6 16-7.1 22.6-1.2s7.1 16 1.2 22.6c-14.3 15.9-33 26.6-54.6 26.6s-40.3-10.8-54.6-26.6z"/><path class="fa-primary" d="M349.3 99.2c-7.7 4.4-17.4 1.8-21.9-5.9s-1.8-17.4 5.9-21.9l73.9-42.7c5.6-3.2 12.6-2.8 17.7 1.2s7.4 10.6 5.7 16.8l-21.2 79.3 40.4-23.4c7.7-4.4 17.4-1.8 21.9 5.9s1.8 17.4-5.9 21.9L392 173.1c-5.6 3.2-12.6 2.8-17.7-1.2s-7.4-10.6-5.7-16.8l21.2-79.3L349.3 99.2zm-79 32c-7.7-4.4-10.3-14.2-5.9-21.9s14.2-10.3 21.9-5.9l36.9 21.3c5.6 3.2 8.7 9.5 7.9 15.9s-5.5 11.7-11.7 13.4l-21 5.6 3.5 2c7.7 4.4 10.3 14.2 5.9 21.9s-14.2 10.3-21.9 5.9L249 168.1c-5.6-3.2-8.7-9.5-7.9-15.9s5.5-11.7 11.7-13.4l21-5.6-3.5-2zM234.7 384a21.3 21.3 0 1 0 0-42.7 21.3 21.3 0 1 0 0 42.7zM256 244.1c6.6-5.9 16.7-5.4 22.6 1.2c9.9 11 20.6 16 30.8 16s20.9-5 30.8-16c5.9-6.6 16-7.1 22.6-1.2s7.1 16 1.2 22.6c-14.3 15.9-33 26.6-54.6 26.6s-40.3-10.8-54.6-26.6c-5.9-6.6-5.4-16.7 1.2-22.6zm-126.7 1.2c-5.9-6.6-16-7.1-22.6-1.2s-7.1 16-1.2 22.6c14.3 15.9 33 26.6 54.6 26.6s40.3-10.8 54.6-26.6c5.9-6.6 5.4-16.7-1.2-22.6s-16.7-5.4-22.6 1.2c-9.9 11-20.6 16-30.8 16s-20.9-5-30.8-16z"/></svg>