<svg xmlns="http://www.w3.org/2000/svg" viewBox="0 0 512 512"><!--!Font Awesome Pro 6.6.0 by @fontawesome - https://fontawesome.com License - https://fontawesome.com/license (Commercial License) Copyright 2024 Fonticons, Inc.--><path class="fa-secondary" opacity=".4" d="M214.9 305c8.1 7.9 8.1 20.6 8.1 45.8l0 6.6c0 70.1 0 105.1 19.7 111.1s40.8-22.5 83-79.7l65.3-88.4c27.4-37.1 41.1-55.6 33.6-70.2c-.1-.2-.3-.5-.4-.7c-8-14.4-31.7-14.4-79-14.4c-26.3 0-39.5 0-47.7-7.8c-27.5 32.5-55.1 65-82.6 97.5z"/><path class="fa-primary" d="M186.3 123.1l-65.3 88.4c-27.4 37.1-41.1 55.6-33.6 70.2c.1 .2 .3 .5 .4 .7c8 14.4 31.7 14.4 79 14.4c26.3 0 39.5 0 47.7 7.8l.4 .4 82.6-97.5-.4-.4c-8.1-7.9-8.1-20.6-8.1-45.8l0-6.6c0-70.1 0-105.1-19.7-111.1s-40.8 22.5-83 79.7z"/></svg>