<svg xmlns="http://www.w3.org/2000/svg" viewBox="0 0 512 512"><!--!Font Awesome Pro 6.5.2 by @fontawesome - https://fontawesome.com License - https://fontawesome.com/license (Commercial License) Copyright 2024 Fonticons, Inc.--><path class="fa-secondary" opacity=".4" d="M85.3 233l0 141.4c0 3.2 .2 6.4 .5 9.6l166 0c3.9-9.1 9.6-17.7 17.1-25.2l47.2-47.2c30.6-30.6 78.3-30.7 110.5-4.7l0-74.2c0-6.6-.7-13.1-2.2-19.4l-336.8 0c-1.5 6.4-2.3 13-2.3 19.7zM128 74.7c0 9.9 0 14.9 1.6 18.8c2.2 5.2 6.3 9.4 11.5 11.5c3.9 1.6 8.9 1.6 18.8 1.6l32 0 128.4 0 31.6 0c9.9 0 14.9 0 18.8-1.6c5.2-2.2 9.4-6.3 11.5-11.5c1.6-3.9 1.6-8.9 1.6-18.8s0-14.9-1.6-18.8c-2.2-5.2-6.3-9.4-11.5-11.5c-3.9-1.6-8.9-1.6-18.8-1.6l-192 0c-10 0-14.9 0-18.8 1.6c-5.2 2.2-9.4 6.3-11.5 11.5c-1.6 3.9-1.6 8.9-1.6 18.8zm69.3 224c0-8.8 7.2-16 16-16l26.7 0 0-26.7c0-8.8 7.2-16 16-16s16 7.2 16 16l0 26.7 26.7 0c8.8 0 16 7.2 16 16s-7.2 16-16 16l-26.7 0 0 26.7c0 8.8-7.2 16-16 16s-16-7.2-16-16l0-26.7-26.7 0c-8.8 0-16-7.2-16-16zm94.3 82.7c-19.6 19.5-18.9 51.9 1.5 72.2s52.7 21 72.2 1.5L375.4 445l-2.1-10-.1-.2c-1-3.3-2.3-6.6-3.9-9.7c-3.4-6.9-9.6-16.7-20.3-27.4c-10.7-10.7-20.5-16.8-27.4-20.2c-3.1-1.6-6.4-2.9-9.7-3.9l-.2-.1-10-2.1c-3.3 3.4-6.7 6.7-10.1 10.1zm36.2-36.2c2.7 1.1 5.4 2.3 8 3.6c13.3 6.8 25.4 15.6 35.8 26.3c10.6 10.4 19.5 22.5 26.3 35.8c1.3 2.6 2.5 5.3 3.6 8c3.6-3.6 7.3-7.3 10.9-10.9c9.5-9.5 14.3-22.1 14.3-34.8c0-13.4-5.3-27-15.7-37.5c-20.4-20.4-52.7-21-72.2-1.5l-10.9 10.9z"/><path class="fa-primary" d="M256 240c8.8 0 16 7.2 16 16l0 26.7 26.7 0c8.8 0 16 7.2 16 16s-7.2 16-16 16l-26.7 0 0 26.7c0 8.8-7.2 16-16 16s-16-7.2-16-16l0-26.7-26.7 0c-8.8 0-16-7.2-16-16s7.2-16 16-16l26.7 0 0-26.7c0-8.8 7.2-16 16-16zM192 106.7l-74.6 59.7a85.3 85.3 0 0 0 -29.7 47h336.8A85.3 85.3 0 0 0 395 166.4l-50.3-40.7-24.4-19zM105.1 429.1A85.3 85.3 0 0 1 85.9 384h166c-11.9 27.9-7.2 61 12.4 85.3H191.1c-12.2 0-18.3 0-24-.8A85.3 85.3 0 0 1 121.1 447c-4.3-3.9-8.2-8.6-16-18m296.4-10.2a102.2 102.2 0 0 0 -3.6-8A137.8 137.8 0 0 0 371.6 375a137.9 137.9 0 0 0 -35.8-26.3 101.8 101.8 0 0 0 -8-3.6l-26.2 26.2 10 2.1 .2 .1a63.8 63.8 0 0 1 9.7 3.9c6.9 3.4 16.8 9.6 27.4 20.2c10.7 10.7 16.8 20.5 20.3 27.4a63.9 63.9 0 0 1 3.9 9.7l.1 .2 2.1 10z"/></svg>