<svg xmlns="http://www.w3.org/2000/svg" viewBox="0 0 512 512"><!--!Font Awesome Pro 6.6.0 by @fontawesome - https://fontawesome.com License - https://fontawesome.com/license (Commercial License) Copyright 2024 Fonticons, Inc.--><path class="fa-secondary" opacity=".4" d="M42.7 256a213.3 213.3 0 1 0 426.7 0A213.3 213.3 0 1 0 42.7 256zm89.4 0c0-18 8.2-36 24.6-47.7l68.7-49.1c7.2-5.1 17.2-3.5 22.3 3.7s3.5 17.2-3.7 22.3l-68.7 49.1c-14.9 10.6-14.9 32.8 0 43.4L244 326.8c7.2 5.1 8.9 15.1 3.7 22.3c-3.1 4.4-8 6.7-13 6.7c-3.2 0-6.5-1-9.3-3l-68.7-49.1C140.3 292 132.1 274 132.1 256zm86.6-17.7l100.2-66.8c14.2-9.5 33.2 .7 33.2 17.8l0 133.6c0 17-19 27.2-33.2 17.8L218.6 273.8c-12.7-8.4-12.7-27.1 0-35.5z"/><path class="fa-primary" d="M225.4 159.2c7.2-5.1 17.2-3.5 22.3 3.7s3.5 17.2-3.7 22.3l-68.7 49.1c-14.9 10.6-14.9 32.8 0 43.4L244 326.8c7.2 5.1 8.9 15.1 3.7 22.3s-15.1 8.9-22.3 3.7l-68.7-49.1c-32.8-23.4-32.8-72.1 0-95.5l68.7-49.1zM352 322.8V189.2c0-17-19-27.2-33.2-17.8L218.6 238.3c-12.7 8.4-12.7 27.1 0 35.5l100.2 66.8c14.2 9.5 33.2-.7 33.2-17.8z"/></svg>