<svg xmlns="http://www.w3.org/2000/svg" viewBox="0 0 512 512"><!--!Font Awesome Pro 6.6.0 by @fontawesome - https://fontawesome.com License - https://fontawesome.com/license (Commercial License) Copyright 2024 Fonticons, Inc.--><path class="fa-secondary" opacity=".4" d="M85.3 373.3c0 53 0 96 170.7 96c15.8 0 30.1-.4 43-1.1c-3.7-2.7-7.2-5.6-10.5-8.8c-16.8-16.4-27.2-39.4-27.2-64.8c0-50.1 40.6-90.7 90.7-90.7c.7 0 1.4 0 2.1 0s1.4 0 2.1 .1c1.4 .1 2.8 .2 4.1 .3c2.7 .3 5.5 .6 8.1 1.1c5.3 1 10.5 2.4 15.5 4.3c-31.3-19.9-77-32.5-127.9-32.5c-94.3 0-170.7 43-170.7 96z"/><path class="fa-primary" d="M256 213.3a85.3 85.3 0 1 0 0-170.7 85.3 85.3 0 1 0 0 170.7zM352 336c-32.4 0-58.7 26.3-58.7 58.7c0 10.7 2.8 20.7 7.8 29.3l80.1-80.1c-8.6-5-18.6-7.8-29.3-7.8zm51.6 30.8l-79.5 79.5c8.3 4.5 17.8 7 27.9 7c32.4 0 58.7-26.3 58.7-58.7c0-10.1-2.5-19.6-7-27.9zM261.3 394.7c0-50.1 40.6-90.7 90.7-90.7c25.4 0 48.3 10.4 64.8 27.2c16 16.3 25.9 38.8 25.9 63.5c0 50.1-40.6 90.7-90.7 90.7c-24.7 0-47.1-9.9-63.5-25.9c-16.8-16.4-27.2-39.4-27.2-64.8z"/></svg>