<svg xmlns="http://www.w3.org/2000/svg" viewBox="0 0 512 512"><!--!Font Awesome Pro 6.6.0 by @fontawesome - https://fontawesome.com License - https://fontawesome.com/license (Commercial License) Copyright 2024 Fonticons, Inc.--><path class="fa-secondary" opacity=".4" d="M45.3 273.4c6.1 21.4 22.6 37.9 55.6 70.8l39 39c57.4 57.4 86 86 121.7 86s64.3-28.7 121.7-86s86-86 86-121.7s-28.7-64.3-86-121.7c-13-13-26-26-39-39c-33-33-49.5-49.5-70.8-55.6s-44.1-.9-89.5 9.6l-26.2 6c-38.2 8.8-57.3 13.2-70.4 26.3s-17.5 32.2-26.3 70.4l-6 26.2c-10.5 45.4-15.7 68.2-9.6 89.5zm183.3-87.8a43 43 0 1 1 -86.1 0 43 43 0 1 1 86.1 0zm6.3 197.8L383.8 234.5c6.2-6.2 16.4-6.2 22.6 0s6.2 16.4 0 22.6L257.5 406c-6.2 6.2-16.4 6.2-22.6 0s-6.2-16.4 0-22.6z"/><path class="fa-primary" d="M155.1 216A43 43 0 1 1 216 155.1 43 43 0 1 1 155.1 216zm251.3 41.1L257.5 406c-6.2 6.2-16.4 6.2-22.6 0s-6.2-16.4 0-22.6L383.8 234.5c6.2-6.2 16.4-6.2 22.6 0s6.2 16.4 0 22.6z"/></svg>