<svg xmlns="http://www.w3.org/2000/svg" viewBox="0 0 512 512"><!--!Font Awesome Pro 6.6.0 by @fontawesome - https://fontawesome.com License - https://fontawesome.com/license (Commercial License) Copyright 2024 Fonticons, Inc.--><path class="fa-secondary" opacity=".4" d="M42.7 205.4c0 25.4 20.5 45.9 61.4 86.8L219.8 407.9c40.9 40.9 61.4 61.4 86.8 61.4s45.9-20.5 86.8-61.4l14.5-14.5c40.9-40.9 61.4-61.4 61.4-86.8s-20.5-45.9-61.4-86.8L292.2 104.1c-40.9-40.9-61.4-61.4-86.8-61.4s-45.9 20.5-86.8 61.4l-14.5 14.5c-40.9 40.9-61.4 61.4-61.4 86.8zm64.5-25.8l72.4-72.4c6.2-6.2 16.4-6.2 22.6 0s6.2 16.4 0 22.6l-72.4 72.4c-6.2 6.2-16.4 6.2-22.6 0s-6.2-16.4 0-22.6zM357.3 357.3a30.7 30.7 0 1 1 -43.4-43.4 30.7 30.7 0 1 1 43.4 43.4z"/><path class="fa-primary" d="M202.2 129.9c6.2-6.2 6.2-16.4 0-22.6s-16.4-6.2-22.6 0l-72.4 72.4c-6.2 6.2-6.2 16.4 0 22.6s16.4 6.2 22.6 0l72.4-72.4zM357.3 357.3a30.7 30.7 0 1 0 -43.4-43.4 30.7 30.7 0 1 0 43.4 43.4zM346.9 40c1.5-8.7 9.7-14.6 18.5-13.1c68.3 11.6 120 71.7 120 143.8c0 5.9-3.3 11.4-8.5 14.1s-11.6 2.4-16.5-.9l-32-21.6c-7.3-4.9-9.2-14.9-4.3-22.2s14.9-9.2 22.2-4.3l2.1 1.4C436.1 96.5 401.9 65.6 360 58.4c-8.7-1.5-14.6-9.7-13.1-18.5zM165.1 472c-1.5 8.7-9.7 14.6-18.5 13.1c-68.3-11.6-120-71.7-120-143.8c0-5.9 3.3-11.4 8.5-14.1s11.6-2.4 16.5 .9l32 21.6c7.3 4.9 9.2 14.9 4.3 22.2s-14.9 9.2-22.2 4.3l-2.1-1.4c12.3 40.7 46.5 71.6 88.4 78.8c8.7 1.5 14.6 9.7 13.1 18.5z"/></svg>