<svg xmlns="http://www.w3.org/2000/svg" viewBox="0 0 512 512"><!--!Font Awesome Pro 6.6.0 by @fontawesome - https://fontawesome.com License - https://fontawesome.com/license (Commercial License) Copyright 2024 Fonticons, Inc.--><path class="fa-secondary" opacity=".4" d="M42.7 256c0-100.6 0-150.8 31.2-182.1S155.4 42.7 256 42.7c54.7 0 94.5 0 124.4 5c-23 9.7-39.1 32.5-39.1 59c0 35.3 28.7 64 64 64c26.5 0 49.3-16.1 59-39.1c5 29.8 5 69.4 5 123.7l0 .8c0 100.6 0 150.9-31.2 182.1s-81.5 31.2-182.1 31.2s-150.8 0-182.1-31.2S42.7 356.6 42.7 256zm90.7-42.7c0 4.1 1.6 8.2 4.7 11.3l48.9 48.9c14.6 14.6 38.2 14.6 52.8 0l33.8-33.8c2.1-2.1 5.5-2.1 7.5 0L324 282.7l-14.7 0c-8.8 0-16 7.2-16 16s7.2 16 16 16l53.3 0c8.8 0 16-7.2 16-16l0-53.3c0-8.8-7.2-16-16-16s-16 7.2-16 16l0 14.7-42.9-42.9c-14.6-14.6-38.2-14.6-52.8 0l-33.8 33.8c-2.1 2.1-5.5 2.1-7.5 0L160.6 202c-6.2-6.2-16.4-6.2-22.6 0c-3.1 3.1-4.7 7.2-4.7 11.3z"/><path class="fa-primary" d="M341.3 106.7a64 64 0 1 1 128 0 64 64 0 1 1 -128 0zm-32 176c-8.8 0-16 7.2-16 16s7.2 16 16 16h53.3c8.8 0 16-7.2 16-16V245.3c0-8.8-7.2-16-16-16s-16 7.2-16 16V260l-42.9-42.9c-14.6-14.6-38.2-14.6-52.8 0l-33.8 33.8c-2.1 2.1-5.5 2.1-7.5 0L160.6 202c-6.2-6.2-16.4-6.2-22.6 0s-6.2 16.4 0 22.6l48.9 48.9c14.6 14.6 38.2 14.6 52.8 0l33.8-33.8c2.1-2.1 5.5-2.1 7.5 0L324 282.7H309.3z"/></svg>