<svg xmlns="http://www.w3.org/2000/svg" viewBox="0 0 512 512"><!--!Font Awesome Pro 6.6.0 by @fontawesome - https://fontawesome.com License - https://fontawesome.com/license (Commercial License) Copyright 2024 Fonticons, Inc.--><path class="fa-secondary" opacity=".4" d="M73.6 294.4C52 328 68.5 373.6 106 384.2c16 4.5 32.2 8.3 48.5 11.4c67.1 12.6 135.8 12.6 203 0c16.3-3.1 32.5-6.8 48.5-11.4c37.5-10.6 54-56.2 32.4-89.8l-23.6-36.8C405.1 242.7 400 225 400 207l0-15c0-82.5-64.5-149.3-144-149.3s-144 66.9-144 149.3l0 15c0 18-5.1 35.7-14.8 50.6L73.6 294.4zM199.4 192c0-8.8 6.9-16 15.4-16l82.3 0c6.2 0 11.9 3.9 14.3 9.9s1.1 12.9-3.3 17.4l-55.9 58 45 0c8.5 0 15.4 7.2 15.4 16s-6.9 16-15.4 16l-82.3 0c-6.2 0-11.9-3.9-14.3-9.9s-1.1-12.9 3.3-17.4l55.9-58-45 0c-8.5 0-15.4-7.2-15.4-16z"/><path class="fa-primary" d="M154.5 395.6c13.9 42.8 54.1 73.7 101.5 73.7s87.6-30.9 101.5-73.7c-67.1 12.6-135.8 12.6-203 0zM199.4 192c0 8.8 6.9 16 15.4 16h45L204 266c-4.4 4.6-5.7 11.5-3.3 17.4s8 9.9 14.3 9.9h82.3c8.5 0 15.4-7.2 15.4-16s-6.9-16-15.4-16h-45l55.9-58c4.4-4.6 5.7-11.5 3.3-17.4s-8-9.9-14.3-9.9H214.9c-8.5 0-15.4 7.2-15.4 16z"/></svg>