<svg xmlns="http://www.w3.org/2000/svg" viewBox="0 0 512 512"><!--!Font Awesome Pro 6.5.2 by @fontawesome - https://fontawesome.com License - https://fontawesome.com/license (Commercial License) Copyright 2024 Fonticons, Inc.--><path class="fa-secondary" opacity=".4" d="M42.7 192c0 9.7 0 27.7 0 43.8c0 7.4 0 14.5 0 20.2l0 42.7c0 80.4 0 120.7 25 145.7c24.9 25 65.1 25 145.2 25l.4 0 85.3 0c80.4 0 120.7 0 145.7-25c25-24.9 25-65 25-145.2l0-.5 0-42.7c0-17.9-.1-49.8-.4-64L42.7 192zm128 85.3a21.3 21.3 0 1 1 -42.7 0 21.3 21.3 0 1 1 42.7 0zm0 85.3a21.3 21.3 0 1 1 -42.7 0 21.3 21.3 0 1 1 42.7 0zm106.7-85.3a21.3 21.3 0 1 1 -42.7 0 21.3 21.3 0 1 1 42.7 0zm0 85.3a21.3 21.3 0 1 1 -42.7 0 21.3 21.3 0 1 1 42.7 0zM384 277.3a21.3 21.3 0 1 1 -42.7 0 21.3 21.3 0 1 1 42.7 0zm0 85.3a21.3 21.3 0 1 1 -42.7 0 21.3 21.3 0 1 1 42.7 0z"/><path class="fa-primary" d="M148.1 42.7c8.9 0 16.1 6.9 16.1 15.4v31.1c14.3-.3 30.2-.3 48.2-.3H298c18 0 33.9 0 48.2 .3V58.1c0-8.5 7.2-15.5 16.1-15.5s16.1 6.9 16.1 15.4V90.7c30.8 2.4 51.1 8.2 65.9 22.5c14.9 14.3 20.9 33.7 23.4 63.4l1.7 15.4H42.7v-15.4c2.5-29.7 8.5-49.1 23.4-63.4S101.2 93 132 90.6V58.1c0-8.5 7.2-15.4 16.1-15.4M384 362.7a21.3 21.3 0 1 1 -42.7 0 21.3 21.3 0 0 1 42.7 0m0-85.3a21.3 21.3 0 1 1 -42.7 0 21.3 21.3 0 0 1 42.7 0m-106.7 85.3a21.3 21.3 0 1 1 -42.7 0 21.3 21.3 0 0 1 42.7 0m0-85.3a21.3 21.3 0 1 1 -42.7 0 21.3 21.3 0 0 1 42.7 0m-106.7 85.3a21.3 21.3 0 1 1 -42.7 0 21.3 21.3 0 0 1 42.7 0m0-85.3a21.3 21.3 0 1 1 -42.7 0 21.3 21.3 0 0 1 42.7 0"/></svg>