<svg xmlns="http://www.w3.org/2000/svg" viewBox="0 0 512 512"><!--!Font Awesome Pro 6.6.0 by @fontawesome - https://fontawesome.com License - https://fontawesome.com/license (Commercial License) Copyright 2024 Fonticons, Inc.--><path class="fa-secondary" opacity=".4" d="M106.7 218c0 8.4 .6 18.6 1.4 31.2l5.7 89.3c3.9 62 5.9 93 25.2 111.9c19.3 18.9 48.8 18.9 107.9 18.9l.4 0 17.3 0c59.4 0 89 0 108.3-18.9s21.3-49.9 25.2-111.9l5.7-89.3c.8-12.5 1.4-22.7 1.4-31.2c0-14.2-1.8-23.3-7.9-30c-9.7-10.6-26-10.7-58.6-10.7l-165.5 0c-32.7 0-49 0-58.7 10.7c-6.1 6.7-7.9 15.8-7.9 30zm80.1 45.3c-.9-9.3 5.5-17.5 14.3-18.4s16.6 5.8 17.5 15.1l10.7 112.3c.9 9.3-5.5 17.5-14.3 18.4s-16.6-5.8-17.5-15.1L186.7 263.4zm96 108.9L293.4 260c.9-9.3 8.7-16 17.5-15.1s15.2 9.2 14.3 18.4L314.6 375.7c-.9 9.3-8.7 16-17.5 15.1s-15.2-9.2-14.3-18.4z"/><path class="fa-primary" d="M64 136.2c0-10.3 7.4-18.7 16.5-18.7l56.8 0c11.3-.3 21.3-8.5 25.1-20.6c.1-.3 .2-.7 .6-2.1l2.4-8.4c1.5-5.1 2.8-9.6 4.6-13.6c7.2-15.8 20.6-26.7 36-29.5c3.9-.7 8-.7 12.8-.7h74.2c4.7 0 8.9 0 12.8 .7c15.4 2.8 28.8 13.7 36 29.5c1.8 4 3.1 8.5 4.6 13.6l2.4 8.4c.4 1.4 .5 1.8 .6 2.1c3.8 12.1 15.8 20.3 27.1 20.6h54.9c9.1 0 16.5 8.4 16.5 18.7s-7.4 18.7-16.5 18.7H80.5c-9.1 0-16.5-8.4-16.5-18.7zM201.1 244.9c8.8-.9 16.6 5.8 17.5 15.1l10.7 112.3c.9 9.3-5.5 17.5-14.3 18.4s-16.6-5.8-17.5-15.1L186.7 263.4c-.9-9.3 5.5-17.5 14.3-18.4zm109.9 0c8.8 .9 15.2 9.2 14.3 18.4L314.6 375.7c-.9 9.3-8.7 16-17.5 15.1s-15.2-9.2-14.3-18.4L293.4 260c.9-9.3 8.7-16 17.5-15.1z"/></svg>