<svg xmlns="http://www.w3.org/2000/svg" viewBox="0 0 512 512"><!--!Font Awesome Pro 6.6.0 by @fontawesome - https://fontawesome.com License - https://fontawesome.com/license (Commercial License) Copyright 2024 Fonticons, Inc.--><path class="fa-secondary" opacity=".4" d="M42.7 202.5c-.2 5.9 4.7 10.7 10.5 12.2C71.5 219.5 85 236.2 85 256s-13.5 36.5-31.9 41.3c-5.8 1.5-10.6 6.2-10.5 12.2c1.2 46.3 5.9 73.5 24.6 92.2c25 24.9 65.2 25 145.5 25l.5 0 85.5 0c80.6 0 120.9 0 145.9-25c18.7-18.7 23.5-46 24.6-92.2c.2-5.9-4.7-10.7-10.5-12.2C440.5 292.5 427 275.8 427 256s13.5-36.5 31.9-41.3c5.8-1.5 10.6-6.2 10.5-12.2c-1.2-46.3-5.9-73.5-24.6-92.2c-25-24.9-65.2-25-145.5-25l-.5 0-85.5 0c-80.6 0-120.9 0-145.9 25c-18.7 18.7-23.5 46-24.6 92.2zm149.6 37.8c1.9-6 9.8-7.8 25.5-11.4l4.1-.9c4.5-1 6.7-1.5 8.5-2.9s3-3.4 5.3-7.6l2.1-3.8c8.1-14.5 12.2-21.8 18.3-21.8s10.1 7.3 18.3 21.8l2.1 3.8c2.3 4.1 3.5 6.2 5.3 7.6s4 1.9 8.5 2.9l4.1 .9c15.8 3.6 23.7 5.3 25.5 11.4c.2 .8 .4 1.6 .4 2.4c0 5.4-5.3 11.5-14.6 22.4l-2.8 3.2c-3.1 3.6-4.6 5.3-5.3 7.6s-.5 4.6 0 9.3l.4 4.3c1.6 16.7 2.4 25.1-2.5 28.8s-12.3 .3-27.1-6.5l-3.8-1.8c-4.2-1.9-6.3-2.9-8.5-2.9s-4.3 1-8.5 2.9l-3.8 1.8c-14.8 6.8-22.2 10.2-27.1 6.5s-4.1-12.1-2.5-28.8l.4-4.3c.5-4.8 .7-7.1 0-9.3s-2.2-4-5.3-7.6l-2.8-3.2c-10.8-12.6-16.1-18.8-14.3-24.8z"/><path class="fa-primary" d="M276.4 217.6l-2.1-3.8C266.1 199.3 262.1 192 256 192s-10.1 7.3-18.3 21.8l0 0-2.1 3.8c-2.3 4.1-3.5 6.2-5.3 7.6s-4 1.9-8.5 2.9l-4.1 .9c-15.8 3.6-23.7 5.3-25.5 11.4s3.5 12.3 14.3 24.8l2.8 3.2c3.1 3.6 4.6 5.3 5.3 7.6s.5 4.6 0 9.3l-.4 4.3c-1.6 16.7-2.4 25.1 2.5 28.8s12.3 .3 27.1-6.5l3.8-1.8c4.2-1.9 6.3-2.9 8.5-2.9s4.3 1 8.5 2.9l3.8 1.8 0 0c14.8 6.8 22.2 10.2 27.1 6.5s4.1-12.1 2.5-28.8v0l-.4-4.3v0c-.5-4.8-.7-7.1 0-9.3s2.2-4 5.3-7.6l2.8-3.2c10.8-12.6 16.1-18.8 14.3-24.8s-9.8-7.8-25.5-11.4l-4.1-.9c-4.5-1-6.7-1.5-8.5-2.9s-3-3.4-5.3-7.6z"/></svg>