<svg xmlns="http://www.w3.org/2000/svg" viewBox="0 0 512 512"><!--!Font Awesome Pro 6.6.0 by @fontawesome - https://fontawesome.com License - https://fontawesome.com/license (Commercial License) Copyright 2024 Fonticons, Inc.--><path class="fa-secondary" opacity=".4" d="M42.7 256c0 100.6 0 150.9 31.2 182.1s81.5 31.2 182.1 31.2s150.9 0 182.1-31.2s31.2-81.5 31.2-182.1l0-.8c0-100.1-.1-150.2-31.2-181.3C406.9 42.7 356.6 42.7 256 42.7s-150.8 0-182.1 31.2S42.7 155.4 42.7 256zM176 170.7c0-20.6 16.7-37.3 37.3-37.3l106.7 0c8.8 0 16 7.2 16 16s-7.2 16-16 16l-106.7 0c-2.9 0-5.3 2.4-5.3 5.3l0 69.3 112 0c8.8 0 16 7.2 16 16s-7.2 16-16 16l-112 0 0 69.3c0 2.9 2.4 5.3 5.3 5.3l106.7 0c8.8 0 16 7.2 16 16s-7.2 16-16 16l-106.7 0c-20.6 0-37.3-16.7-37.3-37.3l0-170.7z"/><path class="fa-primary" d="M176 170.7c0-20.6 16.7-37.3 37.3-37.3H320c8.8 0 16 7.2 16 16s-7.2 16-16 16H213.3c-2.9 0-5.3 2.4-5.3 5.3V240H320c8.8 0 16 7.2 16 16s-7.2 16-16 16H208v69.3c0 2.9 2.4 5.3 5.3 5.3H320c8.8 0 16 7.2 16 16s-7.2 16-16 16H213.3c-20.6 0-37.3-16.7-37.3-37.3V170.7z"/></svg>