<svg xmlns="http://www.w3.org/2000/svg" viewBox="0 0 512 512"><!--!Font Awesome Pro 6.6.0 by @fontawesome - https://fontawesome.com License - https://fontawesome.com/license (Commercial License) Copyright 2024 Fonticons, Inc.--><path class="fa-secondary" opacity=".4" d="M42.7 341.3c0-60.3 0-90.5 18.7-109.3c11.3-11.3 26.8-15.8 50.6-17.6c9.3-.7 19.9-1 32-1.1c8.1-.1 16.8-.1 26.3-.1l.3 0 170.7 0c60.3 0 90.5 0 109.3 18.7c18.7 18.7 18.7 48.8 18.7 108.9l0 .4c0 60.3 0 90.5-18.7 109.3c-18.7 18.7-48.8 18.7-108.9 18.7l-.3 0-170.7 0c-60.3 0-90.5 0-109.3-18.7c-18.7-18.7-18.7-48.8-18.7-108.9l0-.4z"/><path class="fa-primary" d="M144 170.7c0-61.9 50.1-112 112-112c52.2 0 96 35.7 108.5 84c2.2 8.6 10.9 13.7 19.5 11.5s13.7-10.9 11.5-19.5c-16-62.1-72.3-108-139.5-108c-79.5 0-144 64.5-144 144v43.8c9.3-.7 19.9-1 32-1.1V170.7z"/></svg>