<svg xmlns="http://www.w3.org/2000/svg" viewBox="0 0 512 512"><!--!Font Awesome Pro 6.6.0 by @fontawesome - https://fontawesome.com License - https://fontawesome.com/license (Commercial License) Copyright 2024 Fonticons, Inc.--><path class="fa-secondary" opacity=".4" d="M42.7 256c0 100.6 0 150.9 31.2 182.1s81.5 31.2 182.1 31.2s150.9 0 182.1-31.2c31.2-31.2 31.2-81.3 31.2-181.3l0-.8c0-100.6 0-150.8-31.2-182.1S356.6 42.7 256 42.7s-150.8 0-182.1 31.2S42.7 155.4 42.7 256zM112 149.3c0-8.8 7.2-16 16-16s16 7.2 16 16l0 213.3c0 8.8-7.2 16-16 16s-16-7.2-16-16l0-213.3zm90 10c6.2-6.2 16.4-6.2 22.6 0l29.9 29.9c12.6-8.4 27.8-13.3 44.1-13.3s31.5 4.9 44.1 13.3l29.9-29.9c6.2-6.2 16.4-6.2 22.6 0c3.1 3.1 4.7 7.2 4.7 11.3s-1.6 8.2-4.7 11.3l-29.9 29.9c8.4 12.6 13.3 27.8 13.3 44.1s-4.9 31.5-13.3 44.1L395.3 330c3.1 3.1 4.7 7.2 4.7 11.3s-1.6 8.2-4.7 11.3c-6.2 6.2-16.4 6.2-22.6 0l-29.9-29.9C330.1 331.1 315 336 298.7 336s-31.5-4.9-44.1-13.3l-29.9 29.9c-6.2 6.2-16.4 6.2-22.6 0s-6.2-16.4 0-22.6l29.9-29.9c-8.4-12.6-13.3-27.8-13.3-44.1s4.9-31.5 13.3-44.1L202 182c-6.2-6.2-6.2-16.4 0-22.6zM250.7 256a48 48 0 1 0 96 0 48 48 0 1 0 -96 0z"/><path class="fa-primary" d="M144 149.3c0-8.8-7.2-16-16-16s-16 7.2-16 16l0 213.3c0 8.8 7.2 16 16 16s16-7.2 16-16l0-213.3zm58 10c6.2-6.2 16.4-6.2 22.6 0l29.9 29.9c12.6-8.4 27.8-13.3 44.1-13.3s31.5 4.9 44.1 13.3l29.9-29.9c6.2-6.2 16.4-6.2 22.6 0s6.2 16.4 0 22.6l-29.9 29.9c8.4 12.6 13.3 27.8 13.3 44.1s-4.9 31.5-13.3 44.1L395.3 330c6.2 6.2 6.2 16.4 0 22.6s-16.4 6.2-22.6 0l-29.9-29.9C330.1 331.1 315 336 298.7 336s-31.5-4.9-44.1-13.3l-29.9 29.9c-6.2 6.2-16.4 6.2-22.6 0s-6.2-16.4 0-22.6l29.9-29.9c-8.4-12.6-13.3-27.8-13.3-44.1s4.9-31.5 13.3-44.1L202 182c-6.2-6.2-6.2-16.4 0-22.6zM250.7 256a48 48 0 1 0 96 0 48 48 0 1 0 -96 0z"/></svg>