<svg xmlns="http://www.w3.org/2000/svg" viewBox="0 0 512 512"><!--!Font Awesome Pro 6.6.0 by @fontawesome - https://fontawesome.com License - https://fontawesome.com/license (Commercial License) Copyright 2024 Fonticons, Inc.--><path class="fa-secondary" opacity=".4" d="M42.7 213.3l0 21.3c0 11.8-.1 33.1 0 42.7l426.4 0c.1-9.6 .3-30.9 .3-42.7l0-21.3c0-10 0-19.4 0-28.2c-8.8 2-16.7 .7-21.7-.6c-6.3-1.6-13.3-4.5-18.9-6.8l-1.2-.5-2.5-1c-1.8 2.7-4 5.2-6.4 7.7c-11.6 11.6-25.6 15.6-37.9 17.3c-10.9 1.5-24.1 1.5-37.6 1.5l-1.7 0-21.3 0-1.7 0c-13.6 0-26.8 0-37.6-1.5c-12.3-1.6-26.3-5.7-37.9-17.3s-15.6-25.6-17.3-37.9C224 135.2 224 122 224 108.4l0-1.7 0-1.7c0-13.6 0-26.8 1.5-37.6c1.1-7.9 3.1-16.4 7.5-24.6l-19.6 0-.6 0c-80.1 0-120.2 .1-145.1 25c-25 25-25 65.2-25 145.7z"/><path class="fa-primary" d="M341.3 42.7H320c-30.2 0-45.3 0-54.6 9.4s-9.4 24.5-9.4 54.6s0 45.3 9.4 54.6s24.5 9.4 54.6 9.4h21.3c30.2 0 45.3 0 54.6-9.4c6.1-6.1 8.2-14.5 9-28h.4l34.5 14.4c13.4 5.6 20 8.3 24.8 5.2s4.7-10.4 4.7-24.9V85.3c0-14.5 0-21.7-4.7-24.9s-11.4-.4-24.8 5.2L405.3 80h-.4c-.8-13.4-2.9-21.9-9-28c-9.4-9.4-24.5-9.4-54.6-9.4zm-171 330.7c-60.6 0-90.9 0-109.7-18.7c-12.2-12.1-16.5-29.1-18-55.9V277.3H469.3v21.3c-1.5 26.8-5.8 43.8-18 55.9c-18.8 18.7-49.1 18.7-109.7 18.7H272.1v85.3h69.6c8.9 0 16.1 7.2 16.1 16s-7.2 16-16.1 16H170.3c-8.9 0-16.1-7.2-16.1-16s7.2-16 16.1-16h69.6V373.3H170.3z"/></svg>