<svg xmlns="http://www.w3.org/2000/svg" viewBox="0 0 512 512"><!--!Font Awesome Pro 6.6.0 by @fontawesome - https://fontawesome.com License - https://fontawesome.com/license (Commercial License) Copyright 2024 Fonticons, Inc.--><path class="fa-secondary" opacity=".4" d="M42.7 213.3c0 43.7 26.3 81.3 64 97.8l0 72.9 298.6 0c0-24.3 0-48.6 0-72.9c37.7-16.5 64-54.1 64-97.8c0-58.9-47.8-106.7-106.7-106.7c-5.3 0-10.6 .4-15.7 1.2C334.1 69.9 298.2 42.7 256 42.7s-78.1 27.3-90.9 65.2c-5.1-.8-10.4-1.2-15.7-1.2c-58.9 0-106.7 47.8-106.7 106.7z"/><path class="fa-primary" d="M405.3 384H106.7c.2 29.8 1.7 62.1 12.5 72.8c12.5 12.5 32.6 12.5 72.8 12.5H320c40.2 0 60.3 0 72.8-12.5c10.7-10.7 12.2-43 12.5-72.8z"/></svg>