<svg xmlns="http://www.w3.org/2000/svg" viewBox="0 0 512 512"><!--!Font Awesome Pro 6.6.0 by @fontawesome - https://fontawesome.com License - https://fontawesome.com/license (Commercial License) Copyright 2024 Fonticons, Inc.--><path class="fa-secondary" opacity=".4" d="M85.3 233c0-6.7 .8-13.3 2.3-19.7l336.8 0c1.5 6.3 2.2 12.8 2.2 19.4l0 142c0 3.1-.2 6.2-.5 9.3L85.9 384c-.4-3.2-.5-6.4-.5-9.6l0-141.4zM128 74.7c0-9.9 0-14.9 1.6-18.8c2.2-5.2 6.3-9.4 11.5-11.5c3.9-1.6 8.9-1.6 18.8-1.6l192 0c9.9 0 14.9 0 18.8 1.6c5.2 2.2 9.4 6.3 11.5 11.5c1.6 3.9 1.6 8.9 1.6 18.8s0 14.9-1.6 18.8c-2.2 5.2-6.3 9.4-11.5 11.5c-3.9 1.6-8.9 1.6-18.8 1.6l-31.6 0-128.4 0-32 0c-9.9 0-14.9 0-18.8-1.6c-5.2-2.2-9.4-6.3-11.5-11.5c-1.6-3.9-1.6-8.9-1.6-18.8zm69.3 224c0 8.8 7.2 16 16 16l26.7 0 0 26.7c0 8.8 7.2 16 16 16s16-7.2 16-16l0-26.7 26.7 0c8.8 0 16-7.2 16-16s-7.2-16-16-16l-26.7 0 0-26.7c0-8.8-7.2-16-16-16s-16 7.2-16 16l0 26.7-26.7 0c-8.8 0-16 7.2-16 16z"/><path class="fa-primary" d="M117.4 166.4L192 106.7H320.4l24.3 19L395 166.4c14.9 12.1 25.1 28.6 29.4 46.9H87.6c4.3-18.3 14.7-34.9 29.7-47zM85.9 384c1.9 16.5 8.5 32.2 19.2 45.1c7.8 9.4 11.7 14 16 18c12.8 11.7 28.8 19.2 45.9 21.5c5.8 .8 11.9 .8 24.1 .8H333.7c25.5 0 49.7-11.4 65.9-31.1l7.6-9.3c10.6-12.9 17.2-28.5 19-45H85.9zM256 240c8.8 0 16 7.2 16 16l0 26.7 26.7 0c8.8 0 16 7.2 16 16s-7.2 16-16 16l-26.7 0 0 26.7c0 8.8-7.2 16-16 16s-16-7.2-16-16l0-26.7-26.7 0c-8.8 0-16-7.2-16-16s7.2-16 16-16l26.7 0 0-26.7c0-8.8 7.2-16 16-16z"/></svg>