<svg xmlns="http://www.w3.org/2000/svg" viewBox="0 0 512 512"><!--!Font Awesome Pro 6.6.0 by @fontawesome - https://fontawesome.com License - https://fontawesome.com/license (Commercial License) Copyright 2024 Fonticons, Inc.--><path class="fa-secondary" opacity=".4" d="M106.7 192a149.3 149.3 0 1 0 298.7-.2A149.3 149.3 0 1 0 106.7 192z"/><path class="fa-primary" d="M161 307.2L156.8 320l-13.6 49.6c-13.4 48.9-20.1 73.3-11.2 86.7c3.1 4.7 7.3 8.5 12.2 10.9c13.9 7.1 35.4-4.1 78.4-26.5c14.3-7.5 21.5-11.2 29.1-12c2.8-.3 5.7-.3 8.5 0c7.6 .8 14.8 4.5 29.1 12c43 22.4 64.5 33.6 78.4 26.5c4.9-2.5 9.1-6.2 12.2-10.9c8.9-13.4 2.2-37.8-11.2-86.7L355.2 320 351 307.2c-25.8 21.3-58.9 34.1-95 34.1s-69.2-12.8-95-34.1z"/></svg>