<svg xmlns="http://www.w3.org/2000/svg" viewBox="0 0 512 512"><!--!Font Awesome Pro 6.6.0 by @fontawesome - https://fontawesome.com License - https://fontawesome.com/license (Commercial License) Copyright 2024 Fonticons, Inc.--><path class="fa-secondary" opacity=".4" d="M42.7 292.1l0 2.4c0 39.2 0 70.3 3.3 94.6c3.4 25 10.4 45.3 26.4 61.2s36.2 23 61.2 26.4c24.3 3.3 55.2 3.3 94.4 3.3l45.3 0c39.2 0 70.3 0 94.6-3.3c25-3.4 45.3-10.4 61.2-26.4c4.4-4.4 8.1-9.1 11.2-14.1c9.6-15.3 10.8-34.2 10.8-52.3c-1 0-2.1 0-3.2 0l-.4 0-58.8 0c-48.5 0-89.9-37-89.9-85.3s41.5-85.3 89.9-85.3l58.8 0 .4 0c1.1 0 2.2 0 3.2 0c0-25.2-.9-52.2-17-71.6c-1.6-1.9-3.2-3.7-5-5.4c-12.8-12.8-28.5-19.9-47.1-24c-4.5-1-9.2-1.8-14.1-2.4c-24.3-3.3-55.4-3.3-94.6-3.3l-45.1 0c-39.1 0-70.2 0-94.4 3.3c-25.1 3.4-45.4 10.5-61.3 26.4s-23.1 36.2-26.4 61.2c-3.3 24.3-3.3 55.4-3.3 94.6zm61.7-87c0-8.6 6.9-15.5 15.4-15.5l82.2 0c8.5 0 15.4 7 15.4 15.5s-6.9 15.5-15.4 15.5l-82.2 0c-8.5 0-15.4-7-15.4-15.5z"/><path class="fa-primary" d="M104.4 205.1c0-8.6 6.9-15.5 15.4-15.5H202c8.5 0 15.4 7 15.4 15.5s-6.9 15.5-15.4 15.5H119.8c-8.5 0-15.4-7-15.4-15.5zM452 213.4c-1.3-.1-2.8-.1-4.3-.1l-.4 0-58.8 0c-48.5 0-89.9 37-89.9 85.3s41.5 85.3 89.9 85.3l58.8 0 .4 0c1.5 0 2.9 0 4.3-.1c19.7-1.2 37.1-16.2 38.6-37.1c.1-1.4 .1-2.8 .1-4.2l0-.4 0-87.2 0-.4c0-1.4 0-2.8-.1-4.2c-1.5-20.9-18.9-35.8-38.6-37.1zm-68.6 62.5a22.8 22.8 0 1 1 0 45.5 22.8 22.8 0 1 1 0-45.5zM215.5 54.9L170.7 85.2l-37 24.7c24.3-3.3 55.3-3.3 94.4-3.3h45.1c39.2 0 70.3 0 94.6 3.3c4.9 .7 9.6 1.5 14.1 2.4l-40.6-27L296.3 54.9c-24.1-16.3-56.7-16.3-80.8 0z"/></svg>