<svg xmlns="http://www.w3.org/2000/svg" viewBox="0 0 512 512"><!--!Font Awesome Pro 6.6.0 by @fontawesome - https://fontawesome.com License - https://fontawesome.com/license (Commercial License) Copyright 2024 Fonticons, Inc.--><path class="fa-secondary" opacity=".4" d="M177.8 340.9c0 1.5 .3 2.9 .9 4.3l45.9 102.9c6.3 14.1 18.9 21.2 31.4 21.2s25.1-7.1 31.4-21.2L372 258.3c.7-1.5 1-3 1-4.4c0-7.4-8-13.2-15.5-9.5L183.7 331.4c-3.7 1.9-5.9 5.6-5.9 9.5z"/><path class="fa-primary" d="M171.5 301.7c-5.4 2.7-12 .4-14.5-5.2L67.5 96c-14.2-31.9 17.4-65 47-49.2L240.4 114c9.8 5.2 21.3 5.2 31.1 0L397.5 46.8c29.6-15.8 61.2 17.3 47 49.2l-33.5 75.2c-4 9-11.1 16.4-19.9 20.8L171.5 301.7z"/></svg>