<svg xmlns="http://www.w3.org/2000/svg" viewBox="0 0 512 512"><!--!Font Awesome Pro 6.6.0 by @fontawesome - https://fontawesome.com License - https://fontawesome.com/license (Commercial License) Copyright 2024 Fonticons, Inc.--><path class="fa-secondary" opacity=".4" d="M42.7 197.6c0 14.1 2.7 28.3 7.4 42.4l63 0c13.9 0 16.5-.3 18.7-1.1s4.3-2.5 14.4-12.1c10.9-10.4 21.8-20.7 32.6-31.1c3.4-3.2 7-6.7 10.4-9.2c4-2.9 9.8-6 17.3-5.5s12.9 4.2 16.5 7.5c3.1 2.9 6.3 6.7 9.3 10.3c25.3 30.6 50.5 61.2 75.8 91.8c2.1 2.5 5.9 2.6 8.1 .2l22-24.4 1.6-1.8c7.8-8.7 14.7-16.4 24.1-20.6s19.7-4.2 31.4-4.2l2.4 0 64.4 0c4.7-14.2 7.4-28.4 7.4-42.4C469.3 71.5 352 14.1 256 117.3C160 14.1 42.7 71.5 42.7 197.6z"/><path class="fa-primary" d="M462 240H397.6l-2.4 0c-11.6 0-22 0-31.4 4.2s-16.3 11.9-24.1 20.6l-1.6 1.8-22 24.4c-2.2 2.4-6 2.4-8.1-.2l-75.8-91.8c-3-3.6-6.2-7.5-9.3-10.3c-3.6-3.3-9-7.1-16.5-7.5s-13.3 2.6-17.3 5.5c-3.4 2.5-7.1 5.9-10.4 9.2l-32.6 31.1c-10.1 9.6-12.2 11.2-14.4 12.1s-4.8 1.1-18.7 1.1H50c22.1 66.2 89.4 131.1 141.1 173.2C219.6 436.4 233.8 448 256 448s36.4-11.6 64.8-34.8c51.7-42.2 119-107 141.1-173.2z"/></svg>