<svg xmlns="http://www.w3.org/2000/svg" viewBox="0 0 512 512"><!--!Font Awesome Pro 6.6.0 by @fontawesome - https://fontawesome.com License - https://fontawesome.com/license (Commercial License) Copyright 2024 Fonticons, Inc.--><path class="fa-secondary" opacity=".4" d="M74.7 170.3l0 .4 0 74.7c0 40.2 0 60.3 12.5 72.8c12.5 12.5 32.5 12.5 72.6 12.5l.2 0 192 0c40.2 0 60.3 0 72.8-12.5c12.5-12.5 12.5-32.5 12.5-72.6l0-.3 0-74.7c0-60.3 0-90.5-18.7-109.3s-48.9-18.7-109.3-18.7l-106.7 0c-60.3 0-90.5 0-109.3 18.7C74.7 80.1 74.7 110.2 74.7 170.3z"/><path class="fa-primary" d="M106.7 469.3H405.3c35.3 0 64-28.7 64-64V384c0-11.8-9.6-21.3-21.3-21.3H355.6c-9.2 0-18.2 3-25.6 8.5L310 386.1c-7.4 5.5-16.4 8.5-25.6 8.5H227.6c-9.2 0-18.2-3-25.6-8.5L182 371.2c-7.4-5.5-16.4-8.5-25.6-8.5H64c-11.8 0-21.3 9.6-21.3 21.3v21.3c0 35.3 28.7 64 64 64z"/></svg>