<svg xmlns="http://www.w3.org/2000/svg" viewBox="0 0 512 512"><!--!Font Awesome Pro 6.5.2 by @fontawesome - https://fontawesome.com License - https://fontawesome.com/license (Commercial License) Copyright 2024 Fonticons, Inc.--><path class="fa-secondary" opacity=".4" d="M138.7 352c0 17.2 3.8 34.7 11.7 51c19.9 41.2 61.4 66.3 105.6 66.3c8.7 0 17.5-1 26.2-3c53.3-12.2 91.1-59.7 91.1-114.4c0-35.6-16.2-69.3-44-91.6c-5.6-4.5-9.4-11.1-9.4-18.3l0-135.4c0-35.3-28.7-64-64-64s-64 28.7-64 64l0 135.4c0 7.2-3.7 13.8-9.4 18.3c-28.5 22.9-44 56.9-44 91.6zM205 367.7c-6.9-22.4 1.6-46.6 20.9-59.8c7.7-5.2 14-13.2 14-22.5l0-178.8c0-8.8 7.2-16 16-16s16 7.2 16 16l0 178.8c0 9.3 6.4 17.2 14 22.5c19.3 13.2 27.8 37.4 20.9 59.8s-27.6 37.6-51 37.6s-44.1-15.3-51-37.6z"/><path class="fa-primary" d="M272 106.7a16 16 0 0 0 -32 0v178.8c0 9.3-6.3 17.2-14 22.5a53.3 53.3 0 1 0 60.1 0c-7.7-5.2-14-13.2-14-22.5z"/></svg>