<svg xmlns="http://www.w3.org/2000/svg" viewBox="0 0 512 512"><!--!Font Awesome Pro 6.6.0 by @fontawesome - https://fontawesome.com License - https://fontawesome.com/license (Commercial License) Copyright 2024 Fonticons, Inc.--><path class="fa-secondary" opacity=".4" d="M42.7 212.9l0 .4 0 85.3c0 80.5 0 120.7 25 145.7c24.9 24.9 65.1 25 145.2 25l.5 0 85.3 0c80.5 0 120.7 0 145.7-25c24.9-24.9 25-65.1 25-145.2l0-.5 0-85.3c0-80.5 0-120.7-25-145.7c-24.9-24.9-65.1-25-145.2-25l-.4 0-85.3 0c-80.5 0-120.7 0-145.7 25c-24.9 24.9-25 65.1-25 145.2zM112 170.7c0-8.8 7.2-16 16-16l26.7 0 0-26.7c0-8.8 7.2-16 16-16s16 7.2 16 16l0 128c0 20.6 0 34.4 1.4 44.7c1.3 9.8 3.6 14.1 6.4 16.8s7 5.1 16.8 6.4c10.3 1.4 24.1 1.4 44.7 1.4l128 0c8.8 0 16 7.2 16 16s-7.2 16-16 16l-26.7 0 0 26.7c0 8.8-7.2 16-16 16s-16-7.2-16-16l0-26.7-70.4 0c-19.2 0-35.2 0-47.8-1.7c-13.4-1.8-25.5-5.8-35.2-15.5s-13.7-21.8-15.5-35.2c-1.7-12.7-1.7-28.7-1.7-47.8l0-70.4-26.7 0c-8.8 0-16-7.2-16-16zm96.6 0c0-8.8 7.2-16 16-16l32.5 0c19.2 0 35.2 0 47.8 1.7c13.4 1.8 25.5 5.8 35.2 15.5s13.7 21.8 15.5 35.2c1.7 12.7 1.7 28.7 1.7 47.8l0 32.5c0 8.8-7.2 16-16 16s-16-7.2-16-16l0-31.4c0-20.6 0-34.4-1.4-44.7c-1.3-9.8-3.6-14.1-6.4-16.8s-7-5.1-16.8-6.4c-10.3-1.4-24.1-1.4-44.7-1.4l-31.4 0c-8.8 0-16-7.2-16-16z"/><path class="fa-primary" d="M186.7 128c0-8.8-7.2-16-16-16s-16 7.2-16 16v26.7H128c-8.8 0-16 7.2-16 16s7.2 16 16 16h26.7l0 70.4c0 19.2 0 35.2 1.7 47.8c1.8 13.4 5.8 25.5 15.5 35.2s21.8 13.7 35.2 15.5c12.7 1.7 28.7 1.7 47.8 1.7l70.4 0V384c0 8.8 7.2 16 16 16s16-7.2 16-16V357.3H384c8.8 0 16-7.2 16-16s-7.2-16-16-16H256c-20.6 0-34.4 0-44.7-1.4c-9.8-1.3-14.1-3.6-16.8-6.4s-5.1-7-6.4-16.8c-1.4-10.3-1.4-24.1-1.4-44.7V128zM256 186.7c20.6 0 34.4 0 44.7 1.4c9.8 1.3 14.1 3.6 16.8 6.4s5.1 7 6.4 16.8c1.4 10.3 1.4 24.1 1.4 44.7v31.4c0 8.8 7.2 16 16 16s16-7.2 16-16l0-32.5c0-19.2 0-35.2-1.7-47.8c-1.8-13.4-5.8-25.5-15.5-35.2s-21.8-13.7-35.2-15.5c-12.7-1.7-28.7-1.7-47.8-1.7l-32.5 0c-8.8 0-16 7.2-16 16s7.2 16 16 16H256z"/></svg>