<svg xmlns="http://www.w3.org/2000/svg" viewBox="0 0 512 512"><!--!Font Awesome Pro 6.6.0 by @fontawesome - https://fontawesome.com License - https://fontawesome.com/license (Commercial License) Copyright 2024 Fonticons, Inc.--><path class="fa-secondary" opacity=".4" d="M128 170.7c0 106 86 192 192 192c58.2 0 110.4-25.9 145.6-66.9c2.4-12.9 3.7-26.2 3.7-39.8c0-117.8-95.5-213.3-213.3-213.3c-33.1 0-64.5 7.6-92.5 21c-1.5 .7-3 1.5-4.4 2.2C139.4 96 128 132 128 170.7z"/><path class="fa-primary" d="M159.1 65.9C90 101.2 42.7 173.1 42.7 256c0 34.1 8 66.4 22.3 95c3.8 7.6 5 16.3 2.9 24.5L55.1 423c-5.5 20.6 13.3 39.5 34 34l47.5-12.7c8.2-2.2 16.9-.9 24.5 2.9c28.6 14.2 60.9 22.3 95 22.3c104.2 0 191-74.7 209.6-173.5c-35.2 40.9-87.4 66.9-145.6 66.9c-106 0-192-86-192-192C128 132 139.4 96 159.1 65.9z"/></svg>