<svg xmlns="http://www.w3.org/2000/svg" viewBox="0 0 512 512"><!--!Font Awesome Pro 6.5.2 by @fontawesome - https://fontawesome.com License - https://fontawesome.com/license (Commercial License) Copyright 2024 Fonticons, Inc.--><path class="fa-secondary" opacity=".4" d="M64 368c0 53 0 96 170.7 96c30.8 0 56-1.4 76.7-4c-.6-.5-1.2-1.1-1.7-1.6c-5.5-5.5-8.2-12.6-9.6-22.8c-.7-5.1-1-10.9-1.2-17.7s-.2-14.5-.2-23.2c0-35.3 0-52.9 10.9-63.8C320.5 320 338.1 320 373.3 320l9.2 0c-29.5-28.7-84.7-48-147.8-48C140.4 272 64 315 64 368z"/><path class="fa-primary" d="M234.7 42.7a85.3 85.3 0 1 0 0 170.7 85.3 85.3 0 1 0 0-170.7zm74.9 415.7c10.9 10.9 28.5 10.9 63.7 10.9s52.8 0 63.7-10.9C448 447.5 448 429.9 448 394.7s0-52.8-10.9-63.7C426.1 320 408.5 320 373.3 320s-52.8 0-63.7 10.9c-10.9 10.9-10.9 28.5-10.9 63.7s0 52.8 10.9 63.7zm43-32.2c-15-10.7-32.6-23.3-32.6-45.2c0-24.1 29.3-41.2 53.3-18c24-23.2 53.3-6.1 53.3 18c0 21.8-17.6 34.4-32.6 45.2l-4.5 3.3c-5.5 4.1-10.9 7.9-16.2 7.9s-10.7-3.8-16.2-7.9z"/></svg>