<svg xmlns="http://www.w3.org/2000/svg" viewBox="0 0 512 512"><!--!Font Awesome Pro 6.6.0 by @fontawesome - https://fontawesome.com License - https://fontawesome.com/license (Commercial License) Copyright 2024 Fonticons, Inc.--><path class="fa-secondary" opacity=".4" d="M65 250.7c127.3 0 254.7 0 382.1 0c-2.7 15.2-6.5 32.9-10.9 53.5L427 346.8c-10.4 48.5-15.6 72.7-33.2 87s-42.4 14.2-92 14.2l-91.7 0-.3 0c-49.4 0-74.1 0-91.7-14.2c-17.6-14.2-22.8-38.5-33.2-87l-9.1-42.7c-4.4-20.6-8.2-38.2-10.9-53.5zm132.4 48c0 8.8 7.2 16 16 16l85.3 0c8.8 0 16-7.2 16-16s-7.2-16-16-16l-85.3 0c-8.8 0-16 7.2-16 16z"/><path class="fa-primary" d="M197.3 298.7c0-8.8 7.2-16 16-16l85.3 0c8.8 0 16 7.2 16 16s-7.2 16-16 16l-85.3 0c-8.8 0-16-7.2-16-16zM177.7 56.8c4-7.9 13.6-11.1 21.5-7.2s11.1 13.6 7.2 21.5l-39.1 78.3c10.3-.1 21.6-.1 33.8-.1H311c12.3 0 23.5 0 33.8 .1L305.7 71.2c-4-7.9-.7-17.5 7.2-21.5s17.5-.7 21.5 7.2l47 93.9c28.9 2.2 47 7.9 58.7 22.3c9.3 11.5 12.3 25.8 11.2 45.6H448c1.1 0 2.1 .1 3.1 .3c-.5 9.3-2 19.7-4.1 31.7H65c-2.1-12-3.5-22.4-4.1-31.7c1-.2 2-.3 3.1-.3H60.9c-1.1-19.8 1.9-34.1 11.2-45.6c11.7-14.5 29.8-20.1 58.7-22.3l47-93.9z"/></svg>