<svg xmlns="http://www.w3.org/2000/svg" viewBox="0 0 512 512"><!--!Font Awesome Pro 6.6.0 by @fontawesome - https://fontawesome.com License - https://fontawesome.com/license (Commercial License) Copyright 2024 Fonticons, Inc.--><path class="fa-secondary" opacity=".4" d="M64 149.3c0-23.7 7.7-45.6 20.8-63.3L233.9 235.2c-17.7 13.1-39.6 20.8-63.3 20.8C111.8 256 64 208.2 64 149.3zm43.4-85.9c17.7-13.1 39.6-20.8 63.3-20.8c58.9 0 106.7 47.8 106.7 106.7c0 23.7-7.7 45.6-20.8 63.3L107.4 63.4zM257.2 346.7c3.3-21.7 13.3-42.7 30-59.4c41.7-41.7 109.2-41.7 150.8 0c16.7 16.7 26.8 37.7 30 59.4l-210.9 0zm0 32l210.9 0c-3.3 21.7-13.3 42.7-30 59.4c-20.8 20.8-48.1 31.2-75.4 31.2s-54.6-10.4-75.4-31.2c-16.7-16.7-26.8-37.7-30-59.4z"/><path class="fa-primary" d="M257.2 378.7H468.1c.8-5.3 1.2-10.6 1.2-16s-.4-10.7-1.2-16H257.2c-.8 5.3-1.2 10.6-1.2 16s.4 10.7 1.2 16zM84.8 86.1L233.9 235.2c4.3-3.2 8.4-6.7 12.2-10.5s7.3-7.8 10.5-12.2L107.4 63.4c-4.3 3.2-8.4 6.7-12.2 10.5s-7.3 7.8-10.5 12.2z"/></svg>