<svg xmlns="http://www.w3.org/2000/svg" viewBox="0 0 512 512"><!--!Font Awesome Pro 6.6.0 by @fontawesome - https://fontawesome.com License - https://fontawesome.com/license (Commercial License) Copyright 2024 Fonticons, Inc.--><path class="fa-secondary" opacity=".4" d="M42.7 255.4l0 .6c0 100.6 0 150.8 31.2 182.1C195.3 316.7 316.7 195.3 438.1 73.9C406.8 42.7 356.6 42.7 256 42.7s-150.8 0-182.1 31.2c-31.2 31.2-31.2 81.3-31.2 181.5zm58.7-84.7c0-8.8 7.2-16 16-16l37.3 0 0-37.3c0-8.8 7.2-16 16-16s16 7.2 16 16l0 37.3 37.3 0c8.8 0 16 7.2 16 16s-7.2 16-16 16l-37.3 0 0 37.3c0 8.8-7.2 16-16 16s-16-7.2-16-16l0-37.3-37.3 0c-8.8 0-16-7.2-16-16z"/><path class="fa-primary" d="M170.7 101.3c8.8 0 16 7.2 16 16l0 37.3H224c8.8 0 16 7.2 16 16s-7.2 16-16 16H186.7l0 37.3c0 8.8-7.2 16-16 16s-16-7.2-16-16l0-37.3H117.3c-8.8 0-16-7.2-16-16s7.2-16 16-16h37.3V117.3c0-8.8 7.2-16 16-16zm85.3 368c-100.6 0-150.8 0-182.1-31.2L438.1 73.9c31.2 31.2 31.2 81.5 31.2 182.1s0 150.9-31.2 182.1s-81.5 31.2-182.1 31.2zm128-90.7c8.8 0 16-7.2 16-16s-7.2-16-16-16l-106.7 0c-8.8 0-16 7.2-16 16s7.2 16 16 16l106.7 0z"/></svg>