<svg xmlns="http://www.w3.org/2000/svg" viewBox="0 0 512 512"><!--!Font Awesome Pro 6.6.0 by @fontawesome - https://fontawesome.com License - https://fontawesome.com/license (Commercial License) Copyright 2024 Fonticons, Inc.--><path class="fa-secondary" opacity=".4" d="M64 144c0-8.8 7.2-16 16-16l362.7 0c8.8 0 16 7.2 16 16s-7.2 16-16 16L80 160c-8.8 0-16-7.2-16-16zm0 106.7c0-8.8 7.2-16 16-16l149.3 0c8.8 0 16 7.2 16 16s-7.2 16-16 16L80 266.7c-8.8 0-16-7.2-16-16zm0 106.7c0-8.8 7.2-16 16-16l149.3 0c8.8 0 16 7.2 16 16s-7.2 16-16 16L80 373.3c-8.8 0-16-7.2-16-16z"/><path class="fa-primary" d="M452.5 238.1c7 5.4 8.2 15.5 2.8 22.5L372.1 367.2c-3 3.8-7.5 6.1-12.3 6.2s-9.4-2-12.5-5.7l-44.8-53.3c-5.7-6.8-4.8-16.9 2-22.5s16.9-4.8 22.5 2L359 331.9l71-91.1c5.4-7 15.5-8.2 22.5-2.8z"/></svg>