<svg xmlns="http://www.w3.org/2000/svg" viewBox="0 0 512 512"><!--!Font Awesome Pro 6.6.0 by @fontawesome - https://fontawesome.com License - https://fontawesome.com/license (Commercial License) Copyright 2024 Fonticons, Inc.--><path class="fa-secondary" opacity=".4" d="M123.1 176.6l0 99.2c0 74 59.5 134 132.9 134s132.9-60 132.9-134l0-99.2c0-74-59.5-134-132.9-134s-132.9 60-132.9 134zm82.8-40l.3-.3c.1-.1 .2-.2 .4-.4c.3-.2 .6-.5 .9-.8c.7-.6 1.6-1.3 2.7-2.1c2.3-1.6 5.3-3.3 9.3-4.9c8.1-3.3 19.8-6 36.5-6s28.4 2.8 36.5 6c4 1.6 7.1 3.4 9.3 4.9c1.1 .8 2 1.5 2.7 2.1c.4 .3 .7 .6 .9 .8c.1 .1 .2 .2 .4 .4c.1 .1 .1 .1 .3 .3c5.6 6 5.3 15.4-.6 21.1c-5.7 5.4-14.6 5.4-20.4-.1c-.4-.3-1.6-1-3.7-1.9c-4.1-1.7-12-3.9-25.4-3.9s-21.3 2.2-25.4 3.9c-2.1 .8-3.2 1.6-3.8 2c-5.6 5.4-14.6 5.4-20.3 0c-5.9-5.7-6.2-15.1-.5-21.1zm0 0c3.5 3.4 7.1 6.9 10.7 10.3c-.1-.1-.3-.3-.4-.4c-5.1-4.9-7.7-7.4-9-8.6c-.9-.9-1.2-1.2-1.3-1.3zm0 59.5l.3-.3c.1-.1 .2-.2 .4-.4c.3-.2 .6-.5 .9-.8c.7-.6 1.6-1.3 2.7-2.1c2.2-1.5 5.3-3.3 9.3-4.9c8.1-3.3 19.8-6 36.5-6s28.4 2.8 36.5 6c4 1.6 7.1 3.4 9.3 4.9c1.1 .8 2 1.5 2.7 2.1c.4 .3 .7 .6 .9 .8c.1 .1 .2 .2 .4 .4c.1 .1 .1 .1 .3 .3c5.6 6 5.3 15.4-.6 21.1c-5.7 5.4-14.6 5.4-20.5-.1c-.2-.2-.6-.4-1.2-.7c-.6-.3-1.4-.7-2.4-1.1c-4.1-1.7-12-3.9-25.4-3.9c-13.4 0-21.3 2.2-25.4 3.9c-2.1 .8-3.2 1.6-3.8 2c-5.7 5.4-14.6 5.4-20.3 0c-5.9-5.7-6.2-15.1-.5-21.1zm0 0c3.5 3.4 7.1 6.9 10.7 10.3c-.1-.1-.3-.3-.4-.4c-5.1-4.9-7.7-7.4-9-8.6c-.9-.9-1.2-1.2-1.3-1.3zm89.7-49.5c1.1-1 2.1-2 3.2-3c6.6-6.3 7.3-6.9 7.3-7c-3.5 3.4-7 6.7-10.5 10zm0 59.5c1.1-1 2.1-2 3.2-3c6.6-6.3 7.3-6.9 7.3-7c-3.5 3.4-7 6.7-10.5 10z"/><path class="fa-primary" d="M205.9 196.2c-5.6 6-5.3 15.4 .6 21c5.7 5.5 14.6 5.4 20.3 0l.2-.1c.5-.3 1.6-1 3.7-1.9c4.1-1.7 12-3.9 25.4-3.9s21.3 2.2 25.4 3.9c2.1 .8 3.2 1.6 3.7 1.9l.2 .1c5.7 5.4 14.6 5.4 20.3 0c5.9-5.6 6.2-15.1 .6-21l-10.5 10c10.5-10 10.5-10 10.5-10l0 0 0 0-.1-.1-.2-.2c-.1-.1-.2-.2-.4-.4c-.3-.3-.6-.5-.9-.8c-.7-.6-1.6-1.3-2.7-2.1c-2.2-1.5-5.3-3.3-9.3-4.9c-8.1-3.3-19.8-6-36.5-6s-28.4 2.8-36.5 6c-4 1.6-7.1 3.4-9.3 4.9c-1.1 .8-2 1.5-2.7 2.1c-.4 .3-.7 .6-.9 .8c-.1 .1-.2 .2-.4 .4l-.2 .2-.1 .1 0 0 0 0s0 0 10.7 10.2l-10.7-10.2zm0-59.5c-5.6 6-5.3 15.4 .6 21c5.7 5.5 14.6 5.4 20.3 0l.2-.1c.5-.3 1.6-1 3.7-1.9c4.1-1.7 12-3.9 25.4-3.9s21.3 2.2 25.4 3.9c2.1 .8 3.2 1.6 3.7 1.9l.2 .1c5.7 5.4 14.6 5.4 20.3 0c5.9-5.6 6.2-15.1 .6-21l-10.5 10c10.5-10 10.5-10 10.5-10l0 0 0 0-.1-.1-.2-.2c-.1-.1-.2-.2-.4-.4c-.3-.3-.6-.5-.9-.8c-.7-.6-1.6-1.3-2.7-2.1c-2.2-1.5-5.3-3.3-9.3-4.9c-8.1-3.3-19.8-6-36.5-6s-28.4 2.8-36.5 6c-4 1.6-7.1 3.4-9.3 4.9c-1.1 .8-2 1.5-2.7 2.1c-.4 .3-.7 .6-.9 .8c-.1 .1-.2 .2-.4 .4l-.2 .2-.1 .1 0 0 0 0s0 0 10.7 10.2l-10.7-10.2zM78.8 221.3c8.2 0 14.8 6.7 14.8 14.9l0 39.7c0 90.4 72.7 163.7 162.5 163.7s162.5-73.3 162.5-163.7l0-39.7c0-8.2 6.6-14.9 14.8-14.9s14.8 6.7 14.8 14.9l0 39.7c0 106.9-86 193.5-192 193.5s-192-86.6-192-193.5l0-39.7c0-8.2 6.6-14.9 14.8-14.9z"/></svg>