<svg xmlns="http://www.w3.org/2000/svg" viewBox="0 0 512 512"><!--!Font Awesome Pro 6.6.0 by @fontawesome - https://fontawesome.com License - https://fontawesome.com/license (Commercial License) Copyright 2024 Fonticons, Inc.--><path class="fa-secondary" opacity=".4" d="M223.7 104.4c3 9.5 5.9 21.6 9.2 35.8l2.4 10.2c2.6 11.2 3.4 13.7 4.7 15.6c1.2 1.7 2.9 2.9 12 8.1l6.5 3.7 128.3 35.5c-.6-2.2-1.1-4.5-1.7-7l-2.6-11c-4.3-18.4-7.2-31-10.5-39.7c-3.4-8.8-5.8-9.9-6.7-10.2L223.7 104.4zm4.2 271.7L351.5 412c7.7 2.2 12.3 3.5 15.8 3.9c2.9 .3 4.3 0 5.7-.9c3.4-2 4.6-3.9 9.1-18.1c2.6-8.1 5-17.6 6.7-28.3l1.7-11.2c.5-3.5 1-6.7 1.7-9.8L242.7 304.2c-.4 2.2-.8 5-1.4 8.7l-1.6 10.4c-2.7 17.8-5 32.3-8.1 42.9c-1 3.4-2.2 6.8-3.7 9.9zm29-90l145.2 42.1c3.1-3 6.7-5.7 10.7-8.7l8.5-6.3c14.3-10.7 24.1-17.9 30.4-24.2c5.8-5.9 7-9.2 7-11.9c0-.1 0-.2 0-.3c-.1-2.6-1.2-5.6-7.5-10.7c-6.6-5.3-16.8-11.1-31.9-19.7l-6.5-3.7L306 213.1c2.2 4 3.6 8.4 3.8 13.5c.4 11.4-5.4 20.2-13.2 28.1c-7.5 7.5-18.6 15.8-32 25.8l-7.7 5.7z"/><path class="fa-primary" d="M158 129.6c12.2-13.6 20.6-22.9 27.3-28.5c6.8-5.7 9.1-5.1 9.8-4.9c.9 .3 3.4 1.3 6.7 10.2c3.3 8.6 6.3 21.3 10.5 39.7l2.6 11c2 8.6 3.6 15.7 7.8 21.5c4.2 5.9 10.4 9.4 17.5 13.4l1.4 .8 7.6 4.3c15.1 8.6 25.2 14.4 31.9 19.7c6.3 5.1 7.4 8.1 7.5 10.7c.1 2.7-.9 6.1-7 12.2c-6.3 6.3-16 13.6-30.4 24.2l-8.5 6.3c-6.8 5-12.5 9.2-16.1 15.5c-3.6 6.2-4.7 13.4-6.1 22.3l-1.7 11.2c-2.9 18.9-4.9 31.9-7.6 41c-1.5 5.1-2.9 8-4.1 9.6c-2.3-.9-5.4-2.1-9-3.9c-8.6-4.1-20.4-11-32.3-21.8l-6.7-6-.3-.3c-3.4-3.1-6.4-5.8-9.2-7.9c-3-2.3-6.2-4.2-10.1-5.3c-6.9-2-14.1-.7-21.8 .8l-1.7 .3-8.5 1.6c-16.9 3.1-28.2 5.2-36.4 5.4c-7.8 .1-9.5-1.5-10.3-2.8c-1.2-1.7-2.4-5-.5-14.4c1.9-9.3 6.2-21.7 12.4-39.6l3.7-10.6c3-8.5 5.3-15.3 5.1-22.5c-.3-7.2-3.2-13.8-6.7-21.9l-4.4-10c-7.5-17-12.6-28.6-15.2-37.6c-2.5-8.8-1.7-12.4-.5-14.6c1.1-1.8 3-3.7 10.7-4.7c8.1-1 19.5-.6 36.6 .2l8.6 .4 1.6 .1c7.8 .3 15 .7 21.6-2.3c6.5-2.9 11.4-8.3 17-14.6l1.2-1.3 6.2-6.9z"/></svg>