<svg xmlns="http://www.w3.org/2000/svg" viewBox="0 0 512 512"><!--!Font Awesome Pro 6.6.0 by @fontawesome - https://fontawesome.com License - https://fontawesome.com/license (Commercial License) Copyright 2024 Fonticons, Inc.--><path class="fa-secondary" opacity=".4" d="M92.5 239.4c-5.1 19.2 1 39.8 15.9 53L152.9 332c6.6 5.9 16.7 5.3 22.6-1.3s5.3-16.7-1.3-22.6l-44.5-39.6c-5.8-5.2-8.3-13.3-6.2-20.8c2.3-8.6 9.8-14.7 18.6-15.3l51-3.1c8.8-.5 15.5-8.1 15-16.9s-8.1-15.5-16.9-15l-51 3.1c-22.6 1.4-41.8 17.1-47.6 38.9zm22.9 239.7c3.1 4.1 7.9 6.2 12.7 6.2c3.4 0 6.9-1.1 9.8-3.3c.2-.2 .3-.2 .4-.3l1.1-.8c.9-.7 2.2-1.7 3.8-3c3.1-2.6 7.5-6.2 12.2-10.5c9.2-8.4 21.2-20.2 28.8-31.9c7.3-11.1 13.1-26 17-37.2c2-5.8 3.6-10.9 4.7-14.6c.5-1.9 1-3.4 1.3-4.4l.3-1.2 .1-.3c.4-1.5 .6-2.9 .6-4.2c0-7.1-4.8-13.6-11.9-15.5c-8.5-2.2-17.3 2.9-19.5 11.4l-.1 .3-.3 1c-.3 .9-.6 2.2-1.1 3.9c-1 3.4-2.4 8-4.2 13.2c-3.7 10.8-8.5 22.5-13.5 30.2c-5.2 8-14.6 17.6-23.5 25.6c-4.3 3.9-8.2 7.2-11.1 9.5c-1.4 1.2-2.6 2.1-3.3 2.7l-.9 .7-.2 .2c-7 5.4-8.4 15.5-3 22.5z"/><path class="fa-primary" d="M192 96a53.3 53.3 0 1 1 106.7 0A53.3 53.3 0 1 1 192 96zm213.3 58.7c8.8 0 16 7.2 16 16l0 53.2 0 .2 0 245.2c0 8.8-7.2 16-16 16s-16-7.2-16-16l0-213.5c-36.1 21-80.9 22.9-119.2 3.8c-.4-.2-.7-.4-1.1-.6c-14.7-8.8-33.7 .7-35.4 17.8l-1.5 14.6c-1.2 12.4 4.7 24.4 15.2 31l7.1 4.4c37.3 23.3 61.6 62.8 65.5 106.7l3.1 34.3c.8 8.8-5.7 16.6-14.5 17.4s-16.6-5.7-17.4-14.5l-3.1-34.3c-3-33.9-21.7-64.4-50.6-82.4l-7.1-4.4c-20.9-13.1-32.6-36.8-30.1-61.4l1.5-14.6c4-40.2 48.3-62.7 83.1-42.4c33.1 16.3 72.7 11.6 101.1-12l3.3-2.7 0-45.8c0-8.8 7.2-16 16-16z"/></svg>