<svg xmlns="http://www.w3.org/2000/svg" viewBox="0 0 512 512"><!--!Font Awesome Pro 6.6.0 by @fontawesome - https://fontawesome.com License - https://fontawesome.com/license (Commercial License) Copyright 2024 Fonticons, Inc.--><path class="fa-secondary" opacity=".4" d="M165.3 85.3c24.1 0 48.3 0 72.4 0l9 15.8c4.1 7.2 14.4 7.2 18.5 0l9-15.8 72.4 0 0 341.3-72.4 0-9-15.8c-4.1-7.2-14.4-7.2-18.5 0l-9 15.8-72.4 0 0-341.3zM240 160l0 21.3c0 8.8 7.2 16 16 16s16-7.2 16-16l0-21.3c0-8.8-7.2-16-16-16s-16 7.2-16 16zm0 85.3l0 21.3c0 8.8 7.2 16 16 16s16-7.2 16-16l0-21.3c0-8.8-7.2-16-16-16s-16 7.2-16 16zm0 85.3l0 21.3c0 8.8 7.2 16 16 16s16-7.2 16-16l0-21.3c0-8.8-7.2-16-16-16s-16 7.2-16 16z"/><path class="fa-primary" d="M231.7 42.7l48.6 0c8.2 0 13.3 8.8 9.3 16L274.3 85.3l-36.6 0L222.5 58.6c-4.1-7.1 1.1-16 9.3-16zm6 384l36.6 0 15.3 26.7c4.1 7.1-1.1 16-9.3 16l-48.6 0c-8.2 0-13.3-8.8-9.3-16l15.3-26.7zM61.4 104.1C75.8 89.7 97 86.3 133.3 85.6l0 90.4-90.4 0c.8-36.4 4.1-57.5 18.5-71.9zM42.7 304l0-96 90.7 0 0 96-90.7 0zm.2 32l90.4 0 0 90.4c-36.4-.8-57.5-4.1-71.9-18.5S43.7 372.4 42.9 336zM378.7 85.6c36.4 .8 57.5 4.1 71.9 18.5s17.7 35.5 18.5 71.9l-90.4 0 0-90.4zm0 122.4l90.7 0 0 96-90.7 0 0-96zm90.4 128c-.8 36.4-4.1 57.5-18.5 71.9s-35.5 17.7-71.9 18.5l0-90.4 90.4 0zM265.3 101.1l9-15.8H237.7l9 15.8c4.1 7.2 14.4 7.2 18.5 0zM256 144c8.8 0 16 7.2 16 16v21.3c0 8.8-7.2 16-16 16s-16-7.2-16-16V160c0-8.8 7.2-16 16-16zm0 85.3c8.8 0 16 7.2 16 16v21.3c0 8.8-7.2 16-16 16s-16-7.2-16-16V245.3c0-8.8 7.2-16 16-16zm0 85.3c8.8 0 16 7.2 16 16V352c0 8.8-7.2 16-16 16s-16-7.2-16-16V330.7c0-8.8 7.2-16 16-16zm18.3 112l-9-15.8c-4.1-7.2-14.4-7.2-18.5 0l-9 15.8h36.6z"/></svg>