<svg xmlns="http://www.w3.org/2000/svg" viewBox="0 0 512 512"><!--!Font Awesome Pro 6.6.0 by @fontawesome - https://fontawesome.com License - https://fontawesome.com/license (Commercial License) Copyright 2024 Fonticons, Inc.--><path class="fa-secondary" opacity=".4" d="M315.5 96c0 4.3 1.7 8.6 5.1 11.7L431.9 211.1c13.7 12.7 21.5 30.5 21.5 49.2c0 19.7-8.6 38.4-23.6 51.1L321.1 403.8c-6.7 5.7-7.5 15.8-1.8 22.6s15.8 7.5 22.6 1.8l108.6-92.4c22.1-18.8 34.9-46.4 34.9-75.5c0-27.6-11.5-53.9-31.7-72.6L342.4 84.3c-3.1-2.9-7-4.3-10.9-4.3c-4.3 0-8.6 1.7-11.7 5.1c-2.9 3.1-4.3 7-4.3 10.9z"/><path class="fa-primary" d="M263.1 110.6L369.3 205c19.9 17.6 29.8 26.5 33.4 36.9c3.2 9.1 3.2 19.1 0 28.3c-3.7 10.4-13.6 19.2-33.4 36.9L263.1 401.4c-9 8-13.5 12-17.3 12.2c-3.3 .1-6.5-1.3-8.6-3.9c-2.4-3-2.4-9-2.4-21V329.1c-51.8 0-106.5 16.6-146.5 46.2C67.4 390.7 57 398.4 53.1 398.1c-3.9-.3-6.3-1.8-8.3-5.1c-2.1-3.4-.2-14 3.4-35.3C71.7 219.7 166.6 182.9 234.7 182.9V123.3c0-12.1 0-18.1 2.4-21c2.1-2.6 5.3-4 8.6-3.9c3.8 .1 8.3 4.1 17.3 12.2z"/></svg>