<svg xmlns="http://www.w3.org/2000/svg" viewBox="0 0 512 512"><!--!Font Awesome Pro 6.6.0 by @fontawesome - https://fontawesome.com License - https://fontawesome.com/license (Commercial License) Copyright 2024 Fonticons, Inc.--><path class="fa-secondary" opacity=".4" d="M42.7 293.6c0 11.1 2 21.8 5.8 31.7c134.5 0 269.1 0 403.7 0c11-18.1 17.2-39.2 17.2-61.8c0-52.7-34.3-97.6-82-113.9c-6.8-60.2-58.4-107-121.1-107c-67.3 0-121.9 53.9-121.9 120.5c0 14.7 2.7 28.8 7.6 41.9c-5.7-1.1-11.7-1.7-17.7-1.7c-50.5 0-91.4 40.5-91.4 90.4zm48 111.7c0 8.8 7.2 16 16 16l298.7 0c8.8 0 16-7.2 16-16s-7.2-16-16-16l-298.7 0c-8.8 0-16 7.2-16 16z"/><path class="fa-primary" d="M170.7 453.3c-8.8 0-16 7.2-16 16s7.2 16 16 16H341.3c8.8 0 16-7.2 16-16s-7.2-16-16-16H170.7zm-128-128c-8.8 0-16 7.2-16 16s7.2 16 16 16l426.7 0c8.8 0 16-7.2 16-16s-7.2-16-16-16l-426.7 0z"/></svg>