<svg xmlns="http://www.w3.org/2000/svg" viewBox="0 0 512 512"><!--!Font Awesome Pro 6.5.2 by @fontawesome - https://fontawesome.com License - https://fontawesome.com/license (Commercial License) Copyright 2024 Fonticons, Inc.--><path class="fa-secondary" opacity=".4" d="M122.3 94.1l0 35.2c14.5-.6 31.8-.6 52.9-.6c18.1 0 36.2 0 54.3 0l.4 0c59 0 88.5 0 110.2 13.3c12.2 7.5 22.4 17.7 29.9 29.9c13.3 21.8 13.3 51.4 13.3 110.6c0 6 0 12.1 0 18.1l0 .3c0 3.9 0 7.5 0 11c0 3.6 0 6.8 0 10l0 .4c0 2.9-.1 5.7-.1 8.5l0 .6c0 2.5-.1 4.9-.2 7.4c0 .1 0 .4 0 .7l35.2 0c2.3-.7 4.8-1.7 7.9-2.9c25.8-10.1 46.4-30.2 57-55.8c4.2-10.2 6-21.1 6.9-33.8c.9-12.4 .9-27.7 .9-46.9l0-18.5c0-27 0-48.5-1.6-65.7c-1.7-17.7-5.2-32.6-13.4-45.9c-8.4-13.7-19.9-25.2-33.6-33.6c-13.3-8.1-28.2-11.7-45.9-13.4c-17.2-1.6-38.7-1.6-65.7-1.6l-52.6 0c-27 0-48.5 0-65.7 1.6c-17.7 1.7-32.6 5.2-45.9 13.4c-13.7 8.4-25.2 19.9-33.6 33.6c-3.1 5-5.5 10.2-7.4 15.8c-1.1 3.2-2.1 6-2.8 8.4z"/><path class="fa-primary" d="M222 479.6l5.9-9.9c9.4-15.9 14.1-23.8 21.6-28.3c7.5-4.4 17.3-4.7 36.8-5.4c18.3-.6 30.6-2.2 41.2-6.5c22.2-9.2 39.8-26.8 49-49c6.9-16.6 6.9-37.7 6.9-79.9l0-18.1c0-59.2 0-88.9-13.3-110.6c-7.5-12.2-17.7-22.4-29.9-29.9c-21.8-13.3-51.4-13.3-110.6-13.3l-54.3 0c-59.2 0-88.9 0-110.6 13.3c-12.2 7.5-22.4 17.7-29.9 29.9c-13.3 21.8-13.3 51.4-13.3 110.6l0 18.1c0 42.2 0 63.2 6.9 79.9c9.2 22.2 26.8 39.8 49 49c10.5 4.4 22.8 6 41.2 6.5c19.5 .6 29.3 1 36.8 5.4c7.5 4.4 12.2 12.4 21.6 28.3l5.9 9.9c8.7 14.8 30.6 14.8 39.3 0zm59.5-215.1a22.6 22.6 0 1 1 0 45.2 22.6 22.6 0 1 1 0-45.2zm-56.5 22.6c0 12.5-10.1 22.6-22.6 22.6s-22.6-10.1-22.6-22.6s10.1-22.6 22.6-22.6s22.6 10.1 22.6 22.6zM123.1 264.5a22.6 22.6 0 1 1 0 45.2 22.6 22.6 0 1 1 0-45.2z"/></svg>