<svg xmlns="http://www.w3.org/2000/svg" viewBox="0 0 512 512"><!--!Font Awesome Pro 6.6.0 by @fontawesome - https://fontawesome.com License - https://fontawesome.com/license (Commercial License) Copyright 2024 Fonticons, Inc.--><path class="fa-secondary" opacity=".4" d="M42.7 128l0 256c0 29.9 0 44.8 5.8 56.2c5.1 10 13.3 18.2 23.3 23.3c11.4 5.8 26.3 5.8 56.1 5.8c9.8 0 18 0 25-.2c7-.2 12.8-.6 17.8-1.4c5.2-.9 9.6-2.2 13.5-4.2c10-5.1 18.2-13.3 23.3-23.3c2-3.9 3.3-8.3 4.2-13.5l70.4-70.4c18.4-19.2 36.9-38.5 55.3-57.7c23.1-24.1 46.2-48.2 69.2-72.2c20.8-21.4 31.1-32.1 34.9-44.4c3.2-10.5 3.1-21.7-.2-32.1c-4-12.2-14.6-22.9-35.9-44.2c-19.2-18.9-28.8-28.4-40.1-32.3c-9.3-3.2-19.3-3.9-28.9-1.8c-11.7 2.5-22.4 10.7-43.8 27.1l-15.2 13.1-64 64 0 208.2 0-256c0-29.9 0-44.8-5.8-56.2c-5.1-10-13.3-18.2-23.3-23.3c-11.4-5.8-26.3-5.8-56-5.8c-30.1 0-45 0-56.4 5.8c-10 5.1-18.2 13.3-23.3 23.3c-5.8 11.4-5.8 26.3-5.8 56.2zm48 277.3c0-8.8 7.2-16 16-16l42.7 0c8.8 0 16 7.2 16 16s-7.2 16-16 16l-42.7 0c-8.8 0-16-7.2-16-16z"/><path class="fa-primary" d="M165.3 405.3c0 8.8-7.2 16-16 16H106.7c-8.8 0-16-7.2-16-16s7.2-16 16-16h42.7c8.8 0 16 7.2 16 16zm172-106.7h44.5c29.9 0 44.8 0 56.2 5.8c10 5.1 18.2 13.3 23.3 23.3c5.8 11.4 5.8 26.3 5.8 56.2s0 44.8-5.8 56.2c-5.1 10-13.3 18.2-23.3 23.3c-11.4 5.8-26.3 5.8-56.2 5.8H128c19.6 0 32.7 0 42.7-1.6l0 .1 .1-.1c5.2-.9 9.6-2.2 13.5-4.2c10-5.1 18.2-13.3 23.3-23.3c2-3.9 3.3-8.3 4.2-13.5l70.4-70.4 55.3-57.7z"/></svg>