<svg xmlns="http://www.w3.org/2000/svg" viewBox="0 0 512 512"><!--!Font Awesome Pro 6.6.0 by @fontawesome - https://fontawesome.com License - https://fontawesome.com/license (Commercial License) Copyright 2024 Fonticons, Inc.--><path class="fa-secondary" opacity=".4" d="M42.7 256a213.3 213.3 0 1 0 426.7 0A213.3 213.3 0 1 0 42.7 256zM212.4 359c0-1.4 .2-2.8 .5-4.2l55.2-206.1c2.3-8.5 11.1-13.6 19.6-11.3s13.6 11.1 11.3 19.6L243.9 363.2c-1.9 7.1-8.4 11.9-15.4 11.9c-1.4 0-2.8-.2-4.2-.5c-7.1-1.9-11.9-8.4-11.9-15.4z"/><path class="fa-primary" d="M299.1 157.1c2.3-8.5-2.8-17.3-11.3-19.6s-17.3 2.8-19.6 11.3L212.9 354.9c-2.3 8.5 2.8 17.3 11.3 19.6s17.3-2.8 19.6-11.3l55.2-206.1z"/></svg>