<svg xmlns="http://www.w3.org/2000/svg" viewBox="0 0 512 512"><!--!Font Awesome Pro 6.6.0 by @fontawesome - https://fontawesome.com License - https://fontawesome.com/license (Commercial License) Copyright 2024 Fonticons, Inc.--><path class="fa-secondary" opacity=".4" d="M42.7 213.3c0 8.4 0 33.2 0 42.7l0 .4c0 80.2 0 120.3 25 145.2c25 25 65.2 25 145.7 25l49.5 0-8.7-8.7c-18.7-18.7-18.7-49.1 0-67.9c8-8 18.2-12.6 28.6-13.8l0-37.6c0-26.5 21.5-48 48-48c20.6 0 38.1 13 45 31.2l17.1-17.1c18.7-18.7 49.1-18.7 67.9 0l8.7 8.7c0-5.6 0-11.4 0-17.4c0-9.4 0-34.3 0-42.7l-426.7 0zm69.3 128c0-8.8 7.2-16 16-16l85.3 0c8.8 0 16 7.2 16 16s-7.2 16-16 16l-85.3 0c-8.8 0-16-7.2-16-16z"/><path class="fa-primary" d="M112 341.3c0-8.8 7.2-16 16-16h85.3c8.8 0 16 7.2 16 16s-7.2 16-16 16H128c-8.8 0-16-7.2-16-16zm101.2-256h85.6c80.7 0 121 0 146 23.8c18 17.1 23.1 41.8 24.5 82.9v21.3H42.7V192c1.4-41.1 6.5-65.7 24.5-82.9c25.1-23.8 65.4-23.8 146-23.8zm202.1 202c6.2-6.2 16.4-6.2 22.6 0L480.6 330c6.2 6.2 6.2 16.4 0 22.6s-16.4 6.2-22.6 0l-15.4-15.4v89.4c0 8.8-7.2 16-16 16s-16-7.2-16-16V337.3l-15.4 15.4c-6.2 6.2-16.4 6.2-22.6 0s-6.2-16.4 0-22.6l42.7-42.7zm-84.7-4.7c8.8 0 16 7.2 16 16l0 89.4L362 372.7c6.2-6.2 16.4-6.2 22.6 0s6.2 16.4 0 22.6L342 438c-6.2 6.2-16.4 6.2-22.6 0l-42.7-42.7c-6.2-6.2-6.2-16.4 0-22.6s16.4-6.2 22.6 0L314.7 388l0-89.4c0-8.8 7.2-16 16-16z"/></svg>