<svg xmlns="http://www.w3.org/2000/svg" viewBox="0 0 512 512"><!--!Font Awesome Pro 6.6.0 by @fontawesome - https://fontawesome.com License - https://fontawesome.com/license (Commercial License) Copyright 2024 Fonticons, Inc.--><path class="fa-secondary" opacity=".4" d="M90.7 85.3c0 8.8 7.2 16 16 16l152.4 0c-2-4.9-3.1-10.3-3.1-16c0-.7 0-1.4 .1-2.1s.1-1.4 .2-2.1c.1-1.4 .3-2.7 .6-4.1c.5-2.7 1.3-5.3 2.3-7.7l-152.4 0c-8.8 0-16 7.2-16 16zm0 170.7c0 8.8 7.2 16 16 16l109.8 0c-2-4.9-3.1-10.3-3.1-16c0-.7 0-1.4 .1-2.1s.1-1.4 .2-2.1c.1-1.4 .3-2.7 .6-4.1c.5-2.7 1.3-5.3 2.3-7.7l-109.8 0c-8.8 0-16 7.2-16 16zm0 170.7c0 8.8 7.2 16 16 16l67.1 0c-2-4.9-3.1-10.3-3.1-16c0-.7 0-1.4 .1-2.1s.1-1.4 .2-2.1c.1-1.4 .3-2.7 .6-4.1c.5-2.7 1.3-5.3 2.3-7.7l-67.1 0c-8.8 0-16 7.2-16 16zm162.2-16c2 4.9 3.1 10.3 3.1 16c0 .7 0 1.4-.1 2.1s-.1 1.4-.2 2.1c-.1 1.4-.3 2.7-.6 4.1c-.5 2.7-1.3 5.3-2.3 7.7l152.4 0c8.8 0 16-7.2 16-16s-7.2-16-16-16l-152.4 0zM295.6 240c2 4.9 3.1 10.3 3.1 16c0 .7 0 1.4-.1 2.1s-.1 1.4-.2 2.1c-.1 1.4-.3 2.7-.6 4.1c-.5 2.7-1.3 5.3-2.3 7.7l109.8 0c8.8 0 16-7.2 16-16s-7.2-16-16-16l-109.8 0zM338.2 69.3c2 4.9 3.1 10.3 3.1 16c0 .7 0 1.4-.1 2.1s-.1 1.4-.2 2.1c-.1 1.4-.3 2.7-.6 4.1c-.5 2.7-1.3 5.3-2.3 7.7l67.1 0c8.8 0 16-7.2 16-16s-7.2-16-16-16l-67.1 0z"/><path class="fa-primary" d="M341.3 85.3a42.7 42.7 0 1 1 -85.3 0 42.7 42.7 0 1 1 85.3 0zM256 298.7a42.7 42.7 0 1 1 0-85.3 42.7 42.7 0 1 1 0 85.3zM213.3 469.3a42.7 42.7 0 1 1 0-85.3 42.7 42.7 0 1 1 0 85.3z"/></svg>