<svg xmlns="http://www.w3.org/2000/svg" viewBox="0 0 512 512"><!--!Font Awesome Pro 6.6.0 by @fontawesome - https://fontawesome.com License - https://fontawesome.com/license (Commercial License) Copyright 2024 Fonticons, Inc.--><path class="fa-secondary" opacity=".4" d="M42.7 420.3c0 5.8 1.5 11.5 4.5 16.7c2.2 3.8 5.8 7.5 13.2 14.8s11 11 14.8 13.2c5.2 3 10.9 4.5 16.7 4.5s11.5-1.5 16.7-4.5c3.8-2.2 7.5-5.8 14.8-13.2L240.9 334c-21-21-41.9-41.9-62.8-62.8L60.3 388.9c-7.3 7.3-11 11-13.2 14.8c-3 5.2-4.5 10.9-4.5 16.7zM335.1 114L398 176.9l8-8c7.3-7.3 11-11 13.2-14.8c3-5.2 4.5-10.9 4.5-16.7s-1.5-11.5-4.5-16.7c-2.2-3.8-5.8-7.5-13.2-14.8s-11-11-14.8-13.2c-5.2-3-10.9-4.5-16.7-4.5s-11.5 1.5-16.7 4.5c-3.8 2.2-7.5 5.8-14.8 13.2l-8 8z"/><path class="fa-primary" d="M162.2 98.2c37-37 55.5-55.5 78.6-55.5s41.5 18.5 78.6 55.5l94.3 94.3c37 37 55.5 55.5 55.5 78.6s-18.5 41.5-55.5 78.6s-55.5 55.5-78.6 55.5s-41.5-18.5-78.6-55.5l-94.3-94.3c-37-37-55.5-55.5-55.5-78.6s18.5-41.5 55.5-78.6z"/></svg>