<svg xmlns="http://www.w3.org/2000/svg" viewBox="0 0 512 512"><!--!Font Awesome Pro 6.6.0 by @fontawesome - https://fontawesome.com License - https://fontawesome.com/license (Commercial License) Copyright 2024 Fonticons, Inc.--><path class="fa-secondary" opacity=".4" d="M208 106.7l0 85.3 0 128 0 85.3c32 0 64 0 96 0l0-85.3 0-128 0-85.3c-32 0-64 0-96 0z"/><path class="fa-primary" d="M304 405.3h32c49.4-.1 75.9-1.3 95.4-14.4c9.3-6.2 17.3-14.2 23.5-23.5c14.4-21.5 14.4-51.5 14.4-111.4s0-89.9-14.4-111.4c-6.2-9.3-14.2-17.3-23.5-23.5c-19.5-13-46-14.3-95.4-14.4H304V192h16c35.3 0 64 28.7 64 64s-28.7 64-64 64H304v85.3zm-96 0V320H192c-35.3 0-64-28.7-64-64s28.7-64 64-64h16V106.7H176c-49.4 .1-75.9 1.3-95.4 14.4c-9.3 6.2-17.3 14.2-23.5 23.5C42.7 166.1 42.7 196.1 42.7 256s0 89.9 14.4 111.4c6.2 9.3 14.2 17.3 23.5 23.5c19.5 13 46 14.3 95.4 14.4h32z"/></svg>