<svg xmlns="http://www.w3.org/2000/svg" viewBox="0 0 512 512"><!--!Font Awesome Pro 6.6.0 by @fontawesome - https://fontawesome.com License - https://fontawesome.com/license (Commercial License) Copyright 2024 Fonticons, Inc.--><path class="fa-secondary" opacity=".4" d="M26.7 335.2c0 1.2 .1 2.4 .4 3.7c2 8.6 10.6 13.9 19.2 11.9c42-9.9 62.3-35.7 78.1-60.3c1.1-1.7 2.6-2.4 4.2-2.4c1.7 0 3.7 .7 5.2 2.7C157.6 321.1 195.4 356 256 356c58.9 0 96.8-27.1 121.7-60.4c1.9-2.5 4.6-3.7 7.1-3.8c2.4 0 4.2 .9 5.4 2.7c15.5 23.4 35.9 46.8 75.4 56.1c8.6 2 17.2-3.3 19.2-11.9c.3-1.2 .4-2.5 .4-3.7c0-7.3-5-13.8-12.3-15.6c-28.2-6.7-42.7-22.5-56-42.6c-15.1-22.9-45.5-21.3-61.9-4c-1.1 1.1-2.1 2.3-3 3.6c-20 26.7-49 47.6-96.1 47.6c-46.3 0-75.8-26-96.9-53.1c-12.2-15.6-34-19.5-50-9.4c-4.4 2.8-8.4 6.7-11.6 11.7C83.4 295.3 68.9 312.6 39 319.6c-7.4 1.7-12.3 8.3-12.3 15.6zm0 108c0 1.2 .1 2.4 .4 3.7c2 8.6 10.6 13.9 19.2 11.9c42-9.9 62.3-35.7 78.1-60.3c1.1-1.7 2.6-2.4 4.2-2.4c1.7 0 3.7 .7 5.2 2.7C157.6 429 195.4 464 256 464c58.9 0 96.8-27.1 121.7-60.4c1.9-2.5 4.6-3.7 7.1-3.8c2.4 0 4.2 .9 5.4 2.7c15.5 23.4 35.9 46.8 75.4 56.1c8.6 2 17.2-3.3 19.2-11.9c.3-1.2 .4-2.5 .4-3.7c0-7.3-5-13.8-12.3-15.6c-28.2-6.7-42.7-22.5-56-42.6c-16.1-24.4-49.5-21-64.9-.5c-20 26.7-49 47.6-96.1 47.6c-46.3 0-75.8-26-96.9-53.1c-15.6-19.9-47-20.7-61.6 2.2C83.4 403.2 68.9 420.5 39 427.6c-7.4 1.7-12.3 8.3-12.3 15.6z"/><path class="fa-primary" d="M309.3 117.3a53.3 53.3 0 1 1 106.7 0 53.3 53.3 0 1 1 -106.7 0zm45.8 155.6l-24.4-27.6L192 88.2c-11.6-13.1-31.8-13.7-44.2-1.4C136.7 98 136 116 146.3 128l21.1 24.6c12.9 15-7.8 48.3-7.8 48.3l-50.4 60.7c16-10 37.8-6.2 50 9.4C180.2 298 209.7 324 256 324c47.1 0 76.2-20.9 96.1-47.6c.9-1.3 1.9-2.4 3-3.6z"/></svg>