<svg xmlns="http://www.w3.org/2000/svg" viewBox="0 0 512 512"><!--!Font Awesome Pro 6.6.0 by @fontawesome - https://fontawesome.com License - https://fontawesome.com/license (Commercial License) Copyright 2024 Fonticons, Inc.--><path class="fa-secondary" opacity=".4" d="M42.7 256c0 100.6 0 150.9 31.2 182.1s81.5 31.2 182.1 31.2s150.9 0 182.1-31.2s31.2-81.5 31.2-182.1l0-.8c0-32.2 0-59.3-1.1-82.2L374 267.3c-6.2 6.2-16.4 6.2-22.6 0s-6.2-16.4 0-22.6l79.4-79.4-132 0c-33.1 0-52.6 16.1-59.5 23l-4.1 4.1-4.1 4.1c-6.9 6.8-23 26.4-23 59.5l0 64c0 8.8-7.2 16-16 16s-16-7.2-16-16l0-64c0-44.5 21.9-71.7 32.5-82.2l4-4 4-4c10.5-10.5 37.7-32.5 82.2-32.5l132 0L351.4 54c-2.7-2.7-4.3-6.2-4.6-9.8c-24.7-1.5-54.4-1.5-90.7-1.5c-100.6 0-150.8 0-182.1 31.2S42.7 155.4 42.7 256zM392.8 50.2l69 69c-4.6-18.9-11.9-33.5-23.7-45.3s-26.3-19.2-45.3-23.7z"/><path class="fa-primary" d="M351.4 31.4c6.2-6.2 16.4-6.2 22.6 0L480.6 138c6.2 6.2 6.2 16.4 0 22.6L374 267.3c-6.2 6.2-16.4 6.2-22.6 0s-6.2-16.4 0-22.6l79.4-79.4-132 0c-33.1 0-52.6 16.1-59.5 23l-4.1 4.1-4.1 4.1c-6.9 6.8-23 26.4-23 59.5l0 64c0 8.8-7.2 16-16 16s-16-7.2-16-16l0-64c0-44.5 21.9-71.7 32.5-82.2l4-4 4-4c10.5-10.5 37.7-32.5 82.2-32.5l132 0L351.4 54c-6.2-6.2-6.2-16.4 0-22.6z"/></svg>