<svg xmlns="http://www.w3.org/2000/svg" viewBox="0 0 512 512"><!--!Font Awesome Pro 6.6.0 by @fontawesome - https://fontawesome.com License - https://fontawesome.com/license (Commercial License) Copyright 2024 Fonticons, Inc.--><path class="fa-secondary" opacity=".4" d="M69.3 277.3c0 8.8 7.2 16 16 16s16-7.2 16-16c0-46.2 20.2-87.6 52.4-116c6.6-5.8 7.3-16 1.4-22.6s-16-7.3-22.6-1.4c-38.7 34.2-63.2 84.2-63.2 140zM197.8 438.6c-2.2 8.6 2.9 17.3 11.5 19.5c14.9 3.8 30.6 5.9 46.7 5.9s31.7-2 46.7-5.9c8.6-2.2 13.7-10.9 11.5-19.5s-10.9-13.7-19.5-11.5c-12.3 3.2-25.3 4.9-38.7 4.9s-26.3-1.7-38.7-4.9c-8.6-2.2-17.3 2.9-19.5 11.5zM356.9 138.7c-5.8 6.6-5.2 16.7 1.4 22.6c32.1 28.4 52.4 69.8 52.4 116c0 8.8 7.2 16 16 16s16-7.2 16-16c0-55.8-24.5-105.8-63.2-140c-6.6-5.8-16.7-5.2-22.6 1.4z"/><path class="fa-primary" d="M192 128a64 64 0 1 0 128 0 64 64 0 1 0 -128 0zM53.3 384a64 64 0 1 0 128 0 64 64 0 1 0 -128 0zm341.3-64a64 64 0 1 1 0 128 64 64 0 1 1 0-128z"/></svg>