<svg xmlns="http://www.w3.org/2000/svg" viewBox="0 0 512 512"><!--!Font Awesome Pro 6.6.0 by @fontawesome - https://fontawesome.com License - https://fontawesome.com/license (Commercial License) Copyright 2024 Fonticons, Inc.--><path class="fa-secondary" opacity=".4" d="M89.1 105.1c0-4.1 1.6-8.2 4.7-11.3s7.2-4.7 11.3-4.7s8.2 1.6 11.3 4.7l8.4 8.4c6.2 6.2 6.2 16.4 0 22.6s-16.4 6.2-22.6 0l-8.4-8.4c-3.1-3.1-4.7-7.2-4.7-11.3zm0 301.7c0-4.1 1.6-8.2 4.7-11.3l8.4-8.4c6.2-6.2 16.4-6.2 22.6 0s6.2 16.4 0 22.6l-8.4 8.4c-3.1 3.1-7.2 4.7-11.3 4.7s-8.2-1.6-11.3-4.7s-4.7-7.2-4.7-11.3zm298-304.6l8.4-8.4c6.2-6.2 16.4-6.2 22.6 0c3.1 3.1 4.7 7.2 4.7 11.3s-1.6 8.2-4.7 11.3l-8.4 8.4c-6.2 6.2-16.4 6.2-22.6 0s-6.2-16.4 0-22.6zm0 284.9c6.2-6.2 16.4-6.2 22.6 0l8.4 8.4c3.1 3.1 4.7 7.2 4.7 11.3s-1.6 8.2-4.7 11.3c-6.2 6.2-16.4 6.2-22.6 0l-8.4-8.4c-6.2-6.2-6.2-16.4 0-22.6z"/><path class="fa-primary" d="M128 256a128 128 0 1 1 256 0 128 128 0 1 1 -256 0zM256 26.7c8.8 0 16 7.2 16 16L272 64c0 8.8-7.2 16-16 16s-16-7.2-16-16l0-21.3c0-8.8 7.2-16 16-16zM26.7 256c0-8.8 7.2-16 16-16L64 240c8.8 0 16 7.2 16 16s-7.2 16-16 16l-21.3 0c-8.8 0-16-7.2-16-16zM432 256c0-8.8 7.2-16 16-16l21.3 0c8.8 0 16 7.2 16 16s-7.2 16-16 16L448 272c-8.8 0-16-7.2-16-16zM256 432c8.8 0 16 7.2 16 16l0 21.3c0 8.8-7.2 16-16 16s-16-7.2-16-16l0-21.3c0-8.8 7.2-16 16-16z"/></svg>