<svg xmlns="http://www.w3.org/2000/svg" viewBox="0 0 512 512"><!--!Font Awesome Pro 6.6.0 by @fontawesome - https://fontawesome.com License - https://fontawesome.com/license (Commercial License) Copyright 2024 Fonticons, Inc.--><path class="fa-secondary" opacity=".4" d="M74.7 211.3c3-3.8 6.4-7.1 10.4-9.8c8.7-6 20-9.6 34.5-11.7c21.3-3.1 49.7-3.1 87.5-3.1l98.8 0c37.9 0 66.2 0 87.5 3.1c14.5 2.1 25.8 5.7 34.5 11.7c4 2.7 7.4 6 10.4 9.8c7.5 9.6 10.7 21 10.7 35.8c0 23-7.8 54-18.9 98.7c-11.6 46.6-17.5 69.8-34.8 83.4c-17.3 13.5-41.3 13.6-89.1 13.6l-.2 0-98.8 0c-48 0-72 0-89.4-13.6s-23.2-36.8-34.8-83.4c-18.3-73.2-27.5-109.8-8.2-134.4zM176.5 80c0-5.7 1.3-11.1 3.6-16c6-12.6 18.8-21.4 33.7-21.4l85.3 0c14.9 0 27.8 8.7 33.8 21.4c2.3 4.8 3.6 10.3 3.6 16c0 5.7-1.3 11.2-3.6 16c-6 12.6-18.8 21.3-33.7 21.3l-85.3 0c-14.9 0-27.7-8.7-33.7-21.3c-2.3-4.9-3.6-10.3-3.6-16z"/><path class="fa-primary" d="M332.9 96.1c2.3-4.9 3.6-10.3 3.6-16c0-5.7-1.3-11.1-3.6-16c14.6 .1 25.9 .8 36.1 4.7c12.1 4.7 22.7 12.8 30.4 23.2c7.8 10.5 11.5 24.1 16.6 42.6l1 3.6 10.9 63.2c-8.7-6-20-9.6-34.5-11.7l-7.7-44.5c-6.1-22.2-8.2-29.2-12-34.2c-4.2-5.6-9.9-10-16.4-12.5c-4.7-1.8-10.4-2.4-24.5-2.5zM180.1 64c-2.3 4.8-3.6 10.3-3.6 16c0 5.7 1.3 11.2 3.6 16c-14.1 .1-19.8 .7-24.5 2.5c-6.5 2.6-12.2 6.9-16.4 12.5c-3.7 5-5.9 12-12 34.2l-7.7 44.5c-14.5 2.1-25.8 5.7-34.5 11.7L96 138.3l1-3.6c5.1-18.6 8.7-32.1 16.6-42.6c7.8-10.4 18.3-18.5 30.4-23.2c10.1-4 21.5-4.6 36.1-4.7z"/></svg>