<svg xmlns="http://www.w3.org/2000/svg" viewBox="0 0 512 512"><!--!Font Awesome Pro 6.6.0 by @fontawesome - https://fontawesome.com License - https://fontawesome.com/license (Commercial License) Copyright 2024 Fonticons, Inc.--><path class="fa-secondary" opacity=".4" d="M42.7 298.7c0-80.5 0-120.7 25-145.7c11.1-11.1 25.1-17.2 44.3-20.7l0 189.2c3.2-1.6 8-1.6 16-1.6c-10.1 0-15.1 0-18.2 3.1s-3.1 8.1-3.1 18.1l0 21.4c0 10.1 0 15.1 3.1 18.2s8.2 3.1 18.2 3.1c-8 0-12.8 0-16-1.6l0 82.6c-19.2-3.4-33.3-9.6-44.3-20.7c-25-25-25-65.2-25-145.7zM128 320c5.3 0 10.7 0 16 0l0-191c19-1 41.6-1 68.9-1l.5 0 85.3 0c27.5 0 50.2 0 69.3 1l0 339.3c-19 1-41.6 1-68.9 1l-.5 0-85.3 0c-27.5 0-50.2 0-69.3-1l0-84.3c-5.3 0-10.7 0-16 0c28.5 0 56.9 0 85.3 0c10.1 0 15.1 0 18.2-3.1s3.1-8.2 3.1-18.2l0-21.3c0-10.1 0-15.1-3.1-18.2s-8.2-3.1-18.2-3.1c-28.5 0-56.9 0-85.3 0zM400 132.3c19.2 3.4 33.3 9.6 44.3 20.7c24.9 24.9 25 65.1 25 145.2l0 .5c0 80.5 0 120.7-25 145.7c-11.1 11.1-25.1 17.2-44.3 20.7l0-332.7z"/><path class="fa-primary" d="M254.9 26.7c-19.2 0-35.2 0-47.8 1.7c-13.4 1.8-25.5 5.8-35.2 15.5s-13.7 21.8-15.5 35.2c-1.7 12.7-1.7 28.7-1.7 47.8l0 1.1h32c0-20.6 0-34.4 1.4-44.7c1.3-9.8 3.6-14.1 6.4-16.8s7-5.1 16.8-6.4c10.3-1.4 24.1-1.4 44.7-1.4s34.4 0 44.7 1.4c9.8 1.3 14.1 3.6 16.8 6.4s5.1 7 6.4 16.8c1.4 10.3 1.4 24.1 1.4 44.7h32l0-1.1c0-19.2 0-35.2-1.7-47.8c-1.8-13.4-5.8-25.5-15.5-35.2s-21.8-13.7-35.2-15.5c-12.7-1.7-28.7-1.7-47.8-1.7h-2.2zM213.3 320H128c-10.1 0-15.1 0-18.2 3.1s-3.1 8.2-3.1 18.2v21.3c0 10.1 0 15.1 3.1 18.2s8.2 3.1 18.2 3.1h85.3c10.1 0 15.1 0 18.2-3.1s3.1-8.2 3.1-18.2V341.3c0-10.1 0-15.1-3.1-18.2s-8.2-3.1-18.2-3.1zM112 465c9.4 1.7 19.9 2.7 32 3.3V384H128c-8 0-12.8 0-16-1.6V465zm0-143.4V132.3c9.4-1.7 19.9-2.7 32-3.3V320H128c-8 0-12.8 0-16 1.6zM368 468.3c12.1-.6 22.6-1.7 32-3.3V132.3c-9.4-1.7-19.9-2.7-32-3.3V468.3z"/></svg>