<svg xmlns="http://www.w3.org/2000/svg" viewBox="0 0 512 512">
    <path class="fa-secondary" opacity=".4" d="M69.3 64c0-8.8 7.2-16 16-16l341.3 0c8.8 0 16 7.2 16 16s-7.2 16-16 16L85.3 80c-8.8 0-16-7.2-16-16zm0 384c0-8.8 7.2-16 16-16l341.3 0c8.8 0 16 7.2 16 16s-7.2 16-16 16L85.3 464c-8.8 0-16-7.2-16-16z" transform="rotate(90, 256, 256)"/>
    <path class="fa-primary" d="M267.3 106c-6.2-6.2-16.4-6.2-22.6 0l-64 64c-6.2 6.2-6.2 16.4 0 22.6s16.4 6.2 22.6 0L240 156V356l-36.7-36.7c-6.2-6.2-16.4-6.2-22.6 0s-6.2 16.4 0 22.6l64 64c6.2 6.2 16.4 6.2 22.6 0l64-64c6.2-6.2 6.2-16.4 0-22.6s-16.4-6.2-22.6 0L272 356V156l36.7 36.7c6.2 6.2 16.4 6.2 22.6 0s6.2-16.4 0-22.6l-64-64z" transform="rotate(90, 256, 256)"/>
</svg>
