<svg xmlns="http://www.w3.org/2000/svg" viewBox="0 0 512 512"><!--!Font Awesome Pro 6.6.0 by @fontawesome - https://fontawesome.com License - https://fontawesome.com/license (Commercial License) Copyright 2024 Fonticons, Inc.--><path class="fa-secondary" opacity=".4" d="M112 362.7c0-8.8 7.2-16 16-16s16 7.2 16 16l0 64c0 8.8-7.2 16-16 16s-16-7.2-16-16l0-64zm38.5-213.2c7.4-48.4 49.2-85.4 99.7-85.4l11.6 0c50.5 0 92.3 37.1 99.7 85.4c-.7 1.5-1.7 2.8-3.1 3.7c-8.8 6.1-34.4 17.5-102.4 17.5s-93.6-11.3-102.4-17.5c-1.4-1-2.4-2.3-3.1-3.7zM368 362.7c0-8.8 7.2-16 16-16s16 7.2 16 16l0 64c0 8.8-7.2 16-16 16s-16-7.2-16-16l0-64z"/><path class="fa-primary" d="M121.1 162c-47.8 16.3-78.4 41.2-78.4 69c0 49.2 95.5 89 213.3 89s213.3-39.9 213.3-89c0-27.8-30.5-52.6-78.4-69c-2.7 6.2-7.1 12.5-14.3 17.5c-16.8 11.7-50.3 23.2-120.7 23.2s-103.9-11.5-120.7-23.2c-7.2-5-11.6-11.3-14.3-17.5zM256 234.7a21.3 21.3 0 1 1 0 42.7 21.3 21.3 0 1 1 0-42.7zm-128 0a21.3 21.3 0 1 1 42.7 0 21.3 21.3 0 1 1 -42.7 0zm234.7-21.3a21.3 21.3 0 1 1 0 42.7 21.3 21.3 0 1 1 0-42.7zM256 368c8.8 0 16 7.2 16 16v64c0 8.8-7.2 16-16 16s-16-7.2-16-16V384c0-8.8 7.2-16 16-16z"/></svg>