<svg xmlns="http://www.w3.org/2000/svg" viewBox="0 0 512 512"><!--!Font Awesome Pro 6.6.0 by @fontawesome - https://fontawesome.com License - https://fontawesome.com/license (Commercial License) Copyright 2024 Fonticons, Inc.--><path class="fa-secondary" opacity=".4" d="M26.7 357.3c0 15.9 7.5 29.7 18.4 41c10.8 11.2 25.8 20.7 43.2 28.6c31.4 14.3 73.2 24.2 119.8 28.3l0 14.1c0 6.3 3.7 12 9.4 14.6s12.4 1.6 17.1-2.5l32-28c3.5-3 5.5-7.4 5.5-12s-2-9-5.5-12l-32-28c-4.7-4.1-11.4-5.1-17.1-2.5s-9.4 8.3-9.4 14.6l0 9.8c-42.8-4-79.8-13.2-106.5-25.3c-15.1-6.9-26.3-14.3-33.4-21.7c-7-7.3-9.4-13.6-9.4-18.8c0-6.5 3.9-15.1 16.1-24.8c6.9-5.5 8.1-15.6 2.6-22.5s-15.6-8.1-22.5-2.6c-16.1 12.8-28.2 29.6-28.2 49.9zm266.7 83c.9 8.8 8.7 15.2 17.5 14.3c47.3-4.8 89.3-15.7 120.1-31.1c29.4-14.7 54.3-36.8 54.3-66.2c0-20.3-12.1-37.1-28.2-49.9c-6.9-5.5-17-4.3-22.5 2.6s-4.3 17 2.6 22.5c12.2 9.7 16.1 18.2 16.1 24.8c0 9.7-9.1 23.7-36.7 37.6c-26.2 13.1-64.2 23.3-108.9 27.9c-8.8 .9-15.2 8.7-14.3 17.5z"/><path class="fa-primary" d="M128 173c0-72 57.3-130.3 128-130.3s128 58.3 128 130.3c0 71.4-40.9 154.7-104.6 184.5c-14.9 6.9-32 6.9-46.8 0C168.9 327.7 128 244.4 128 173zm128 40.4a42.7 42.7 0 1 0 0-85.3 42.7 42.7 0 1 0 0 85.3z"/></svg>