<svg xmlns="http://www.w3.org/2000/svg" viewBox="0 0 512 512"><!--!Font Awesome Pro 6.6.0 by @fontawesome - https://fontawesome.com License - https://fontawesome.com/license (Commercial License) Copyright 2024 Fonticons, Inc.--><path class="fa-secondary" opacity=".4" d="M42.7 256a213.3 213.3 0 1 0 426.7 0A213.3 213.3 0 1 0 42.7 256zM200 189.3c0-30.9 25.1-56 56-56s56 25.1 56 56c0 15.2-6 28.9-15.8 39c-2 2-3.8 3.9-5.6 5.7c-4.6 4.6-8.6 8.6-12.2 13.2c-4.7 6-6.4 10.4-6.4 14.1l0 16c0 8.8-7.2 16-16 16s-16-7.2-16-16l0-16c0-14 6.5-25.3 13.1-33.8c4.9-6.3 11-12.4 16-17.4c1.5-1.5 2.9-2.9 4.1-4.2c4.2-4.3 6.8-10.2 6.8-16.7c0-13.3-10.7-24-24-24s-24 10.7-24 24c0 8.8-7.2 16-16 16s-16-7.2-16-16zm77.3 152a21.3 21.3 0 1 1 -42.7 0 21.3 21.3 0 1 1 42.7 0z"/><path class="fa-primary" d="M256 165.3c-13.3 0-24 10.7-24 24c0 8.8-7.2 16-16 16s-16-7.2-16-16c0-30.9 25.1-56 56-56s56 25.1 56 56c0 15.2-6 28.9-15.8 39c-2 2-3.8 3.9-5.6 5.7c-4.6 4.6-8.6 8.6-12.2 13.2c-4.7 6-6.4 10.4-6.4 14.1v16c0 8.8-7.2 16-16 16s-16-7.2-16-16v-16c0-14 6.5-25.3 13.1-33.8c4.9-6.3 11-12.4 16-17.4c1.5-1.5 2.9-2.9 4.1-4.2c4.2-4.3 6.8-10.2 6.8-16.7c0-13.3-10.7-24-24-24zm0 197.3a21.3 21.3 0 1 0 0-42.7 21.3 21.3 0 1 0 0 42.7z"/></svg>