<svg xmlns="http://www.w3.org/2000/svg" viewBox="0 0 512 512"><!--!Font Awesome Pro 6.6.0 by @fontawesome - https://fontawesome.com License - https://fontawesome.com/license (Commercial License) Copyright 2024 Fonticons, Inc.--><path class="fa-secondary" opacity=".4" d="M64 222.2c0-68.2 0-102.3 8.1-113.8S112.2 86 176.3 64l12.2-4.2C222 48.4 238.7 42.7 256 42.7s34 5.7 67.5 17.2L335.7 64c64.1 22 96.2 32.9 104.3 44.4c8 11.5 8.1 45.5 8.1 113.5l0 .3 0 33.6c0 120.3-90.4 178.6-147.2 203.4c-15.4 6.7-23.1 10.1-44.8 10.1s-29.4-3.4-44.8-10.1C154.4 434.5 64 376.1 64 255.8l0-33.6zM234.7 320a21.3 21.3 0 1 0 42.7 0 21.3 21.3 0 1 0 -42.7 0zM240 170.7l0 85.3c0 8.8 7.2 16 16 16s16-7.2 16-16l0-85.3c0-8.8-7.2-16-16-16s-16 7.2-16 16z"/><path class="fa-primary" d="M256 154.7c8.8 0 16 7.2 16 16V256c0 8.8-7.2 16-16 16s-16-7.2-16-16V170.7c0-8.8 7.2-16 16-16zm0 186.7a21.3 21.3 0 1 0 0-42.7 21.3 21.3 0 1 0 0 42.7z"/></svg>