<svg xmlns="http://www.w3.org/2000/svg" viewBox="0 0 512 512"><!--!Font Awesome Pro 6.6.0 by @fontawesome - https://fontawesome.com License - https://fontawesome.com/license (Commercial License) Copyright 2024 Fonticons, Inc.--><path class="fa-secondary" opacity=".4" d="M114.9 172.2c-5.1 7.2-3.3 17.2 3.9 22.3L206.8 256l-87.9 61.6c-7.2 5.1-9 15-3.9 22.3c3.1 4.4 8.1 6.8 13.1 6.8c3.2 0 6.4-.9 9.2-2.9l81.5-57 0-61.5-81.5-57c-7.2-5.1-17.2-3.3-22.3 3.9z"/><path class="fa-primary" d="M262.4 256.1l94.7 67.3c11.5 8.2 21.6 15.3 28.6 22.1c7.5 7.2 14.2 16.3 14.2 28.8s-6.7 21.6-14.2 28.8c-7 6.7-17.1 13.9-28.6 22.1l-39.1 27.8c-15.6 11.1-28.7 20.4-39.6 25.9c-11.1 5.7-24.6 9.9-38.2 3c-13.6-7-18-20.5-19.8-32.8c-1.8-12.1-1.8-28.1-1.8-47.1l0-115.1 0-61.5 0-115.1c0-19 0-35.1 1.8-47.1c1.8-12.3 6.2-25.8 19.8-32.8c13.6-6.9 27.1-2.7 38.2 3c10.9 5.6 24 14.9 39.6 25.9l39.1 27.8c11.5 8.2 21.6 15.3 28.6 22.1c7.5 7.2 14.2 16.3 14.2 28.8s-6.7 21.6-14.2 28.8c-7 6.7-17.1 13.9-28.6 22.1l-94.7 67.3 .1 .1-.1 .1z"/></svg>