<svg xmlns="http://www.w3.org/2000/svg" viewBox="0 0 512 512"><!--!Font Awesome Pro 6.6.0 by @fontawesome - https://fontawesome.com License - https://fontawesome.com/license (Commercial License) Copyright 2024 Fonticons, Inc.--><path d="M423.5 100.3c-8.5-24-31.9-38.9-56.6-35.9c-5.6 .7-11 2.7-16.5 5.1c-5.4 2.4-12.1 5.8-20.2 10l-52.8 27.1c-6.1 3.1-10.8 5.5-14.9 8.7c-10.5 8.2-17.6 20.1-20.1 33.4c-1 5.2-1 10.6-1 17.6l0 1.7c0 2.2 0 4.4 0 6.4l0 130.7c-16.6-16-38.9-25.7-63.4-25.7c-51.2 0-92.6 42.5-92.6 95s41.5 95 92.6 95s92.6-42.5 92.6-95V238.6c9.2 4.8 19.8 6.9 30.6 5.6c5.6-.7 11-2.7 16.5-5.1c5.4-2.4 12.1-5.8 20.2-10L390.7 202c6.1-3.1 10.8-5.5 14.9-8.7c10.5-8.2 17.6-20.1 20.1-33.4c1-5.2 1-10.6 1-17.6l0-1.7c0-9.4 0-17-.3-23c-.3-6.1-1-12-2.9-17.4z"/></svg>