<svg xmlns="http://www.w3.org/2000/svg" viewBox="0 0 512 512"><!--!Font Awesome Pro 6.6.0 by @fontawesome - https://fontawesome.com License - https://fontawesome.com/license (Commercial License) Copyright 2024 Fonticons, Inc.--><path class="fa-secondary" opacity=".4" d="M199.4 199.4c-56.2 56.2-56.2 147.4 0 203.6c28.1 28.1 65 42.2 101.8 42.2s73.7-14.1 101.8-42.2l60.3-60.3c28.1-28.1 42.2-65 42.2-101.8s-14.1-73.7-42.2-101.8c-26.1-26.1-59.7-40.1-93.8-42c-.3 0-.6 0-.9 0c-8.4 0-15.5 6.6-16 15.1c-.5 8.8 6.3 16.4 15.1 16.9c26.6 1.5 52.7 12.3 73 32.6c43.7 43.7 43.7 114.7 0 158.4l-60.3 60.3c-43.7 43.7-114.7 43.7-158.4 0s-43.7-114.7 0-158.4l30.2-30.2c6.2-6.2 6.2-16.4 0-22.6s-16.4-6.2-22.6 0l-30.2 30.2z"/><path class="fa-primary" d="M48.6 169.3c-56.2 56.2-56.2 147.4 0 203.6c26.1 26.1 59.7 40.1 93.8 42c8.8 .5 16.4-6.3 16.9-15.1s-6.3-16.4-15.1-16.9c-26.6-1.5-52.7-12.3-73-32.6c-43.7-43.7-43.7-114.7 0-158.4l60.3-60.3c43.7-43.7 114.7-43.7 158.4 0s43.7 114.7 0 158.4l-30.2 30.2c-6.2 6.2-6.2 16.4 0 22.6s16.4 6.2 22.6 0l30.2-30.2c56.2-56.2 56.2-147.4 0-203.6s-147.4-56.2-203.6 0L48.6 169.3z"/></svg>