<svg xmlns="http://www.w3.org/2000/svg" viewBox="0 0 512 512"><!--!Font Awesome Pro 6.6.0 by @fontawesome - https://fontawesome.com License - https://fontawesome.com/license (Commercial License) Copyright 2024 Fonticons, Inc.--><path class="fa-secondary" opacity=".4" d="M42.7 213.3c0-58.9 47.8-106.7 106.7-106.7c5.3 0 10.6 .4 15.7 1.2c12.8-37.9 48.7-65.2 90.9-65.2s78.1 27.3 90.9 65.2c5.1-.8 10.4-1.2 15.7-1.2c58.9 0 106.7 47.8 106.7 106.7c0 43.7-26.3 81.3-64 97.8c0 24.3 0 48.6 0 72.9l-298.6 0 0-72.9c-37.7-16.5-64-54.1-64-97.8zM192 234.7c0 21 24.9 43.2 43.6 56.9c9 6.6 13.4 9.9 20.4 9.9s11.5-3.3 20.4-9.9c18.7-13.7 43.6-35.9 43.6-56.9c0-22.6-14.1-36.2-31.7-36.2c-10.3 0-21.7 4.6-32.3 14.7c-10.6-10.1-22-14.7-32.3-14.7c-17.6 0-31.7 13.6-31.7 36.2z"/><path class="fa-primary" d="M119.2 456.8c-10.7-10.7-12.2-43-12.5-72.8H405.3c-.2 29.8-1.7 62.1-12.5 72.8c-12.5 12.5-32.6 12.5-72.8 12.5H192c-40.2 0-60.3 0-72.8-12.5zM235.6 291.6c-18.7-13.7-43.6-35.9-43.6-56.9c0-35.7 35.2-49 64-21.4c28.8-27.6 64-14.2 64 21.4c0 21-24.8 43.2-43.6 56.9c-9 6.6-13.4 9.9-20.4 9.9s-11.5-3.3-20.4-9.9l0 0z"/></svg>