<svg xmlns="http://www.w3.org/2000/svg" viewBox="0 0 512 512"><!--!Font Awesome Pro 6.6.0 by @fontawesome - https://fontawesome.com License - https://fontawesome.com/license (Commercial License) Copyright 2024 Fonticons, Inc.--><path class="fa-secondary" opacity=".4" d="M90.8 168.7c2.5 .6 5.1 1.1 7.8 1.5c1.3 .2 2.7 .3 4 .4c.7 0 1.4 .1 2 .1s1.4 0 2 0c5.5 0 10.8-.7 15.9-2c.1 .7 .1 1.3 .1 2l0 170.7c0 .7 0 1.3-.1 2c-2.5-.6-5.1-1.1-7.8-1.5c-1.3-.2-2.7-.3-4-.4c-.7 0-1.4-.1-2-.1s-1.4 0-2 0c-5.5 0-10.8 .7-15.9 1.9c-.1-.6-.1-1.3-.1-1.9l0-170.7c0-.7 0-1.3 .1-2zm77.9-77.9c.7-.1 1.3-.1 2-.1l170.7 0c.7 0 1.3 0 2 .1c-.6 2.5-1.1 5.1-1.5 7.8c-.2 1.3-.3 2.7-.4 4c0 .7-.1 1.4-.1 2s0 1.4 0 2c0 5.5 .7 10.8 2 15.9c-.7 .1-1.3 .1-2 .1l-170.7 0c-.7 0-1.3 0-2-.1c.6-2.5 1.1-5.1 1.5-7.8c.2-1.3 .3-2.7 .4-4c0-.7 .1-1.4 .1-2s0-1.4 0-2c0-5.5-.7-10.8-2-15.9zm0 298.7c.7-.1 1.3-.1 2-.1l170.7 0c.7 0 1.3 0 2 .1c-.6 2.5-1.1 5.1-1.5 7.8c-.2 1.3-.3 2.7-.4 4c0 .7-.1 1.4-.1 2s0 1.4 0 2c0 5.5 .7 10.8 2 15.9c-.7 .1-1.3 .1-2 .1l-170.7 0c-.7 0-1.3 0-2-.1c.6-2.5 1.1-5.1 1.5-7.8c.2-1.3 .3-2.7 .4-4c0-.7 .1-1.4 .1-2s0-1.4 0-2c0-5.5-.7-10.8-2-15.9zM389.5 168.7c2.5 .6 5.1 1.1 7.8 1.5c1.3 .2 2.7 .3 4 .4c.7 0 1.4 .1 2 .1s1.4 0 2 0c5.5 0 10.8-.7 15.9-2c.1 .7 .1 1.3 .1 2l0 170.7c0 .7 0 1.3-.1 2c-2.5-.6-5.1-1.1-7.8-1.5c-1.3-.2-2.7-.3-4-.4c-.7 0-1.4-.1-2-.1s-1.4 0-2 0c-5.5 0-10.8 .7-15.9 2c-.1-.7-.1-1.3-.1-2l0-170.7c0-.7 0-1.3 .1-2z"/><path class="fa-primary" d="M42.7 106.7a64 64 0 1 1 128 0 64 64 0 1 1 -128 0zm298.7 0a64 64 0 1 1 128 0 64 64 0 1 1 -128 0zM42.7 405.3a64 64 0 1 1 128 0 64 64 0 1 1 -128 0zm298.7 0a64 64 0 1 1 128 0 64 64 0 1 1 -128 0z"/></svg>