<svg xmlns="http://www.w3.org/2000/svg" viewBox="0 0 512 512"><!--!Font Awesome Pro 6.6.0 by @fontawesome - https://fontawesome.com License - https://fontawesome.com/license (Commercial License) Copyright 2024 Fonticons, Inc.--><path class="fa-secondary" opacity=".4" d="M64 277.3a192 192 0 1 0 384 0 192 192 0 1 0 -384 0zm135.4-56.6c6.2-6.2 16.4-6.2 22.6 0L256 254.7l33.9-33.9c6.2-6.2 16.4-6.2 22.6 0s6.2 16.4 0 22.6l-33.9 33.9 33.9 33.9c6.2 6.2 6.2 16.4 0 22.6c-3.1 3.1-7.2 4.7-11.3 4.7s-8.2-1.6-11.3-4.7L256 300l-33.9 33.9c-3.1 3.1-7.2 4.7-11.3 4.7s-8.2-1.6-11.3-4.7c-6.2-6.2-6.2-16.4 0-22.6l33.9-33.9-33.9-33.9c-6.2-6.2-6.2-16.4 0-22.6z"/><path class="fa-primary" d="M312.6 220.8c6.2 6.2 6.2 16.4 0 22.6l-33.9 33.9 33.9 33.9c6.2 6.2 6.2 16.4 0 22.6s-16.4 6.2-22.6 0L256 300l-33.9 33.9c-6.2 6.2-16.4 6.2-22.6 0s-6.2-16.4 0-22.6l33.9-33.9-33.9-33.9c-6.2-6.2-6.2-16.4 0-22.6s16.4-6.2 22.6 0L256 254.7l33.9-33.9c6.2-6.2 16.4-6.2 22.6 0zM175.8 49.9c4.6 7.2 2.3 16.7-5 21.3l-83 51.4c-7.3 4.5-16.9 2.3-21.5-4.9s-2.3-16.7 5-21.3l83-51.4c7.3-4.5 16.9-2.3 21.5 4.9zm160.4 0c4.6-7.2 14.2-9.4 21.5-4.9l83 51.4c7.3 4.5 9.5 14 5 21.3s-14.2 9.4-21.5 4.9l-83-51.4c-7.3-4.5-9.5-14-5-21.3z"/></svg>