<svg xmlns="http://www.w3.org/2000/svg" viewBox="0 0 512 512"><!--!Font Awesome Pro 6.6.0 by @fontawesome - https://fontawesome.com License - https://fontawesome.com/license (Commercial License) Copyright 2024 Fonticons, Inc.--><path class="fa-secondary" opacity=".4" d="M73.7 263.4c.1 13.4 13.1 26.4 39.1 52.4l30.2 30.2 23 23 31.3 31.3c26.1 26.2 39.2 39.3 52.7 39.3c5.7 0 11.2-1.5 16.2-4.3c11.7-6.7 16.6-24.5 26.4-60.2c4.3-15.7 6.5-23.5 11-29.8c2-2.8 4.3-5.3 6.9-7.5c5.9-5.1 13.5-7.9 28.7-13.7l39.3-14.8c56.8-21.4 85.2-32 90.3-55.2s-16.5-44.6-59.4-87.6L346 103.2c-39.1-39.1-60.5-60.5-81.4-60.5c-2.2 0-4.5 .2-6.7 .7c-23.2 5.1-33.7 33.9-54.8 91.3l-14.3 38.9c-5.6 15.3-8.4 23-13.5 28.9c-2.3 2.7-4.8 5-7.7 7.1c-6.3 4.5-14.2 6.7-29.9 11c-35.4 9.8-53.1 14.6-59.8 26.2c-2.9 5-4.4 10.7-4.4 16.5z"/><path class="fa-primary" d="M70.5 464.6L165.9 369l-23-23L47.4 441.5c-6.4 6.4-6.4 16.7 0 23s16.7 6.4 23 0z"/></svg>