<svg xmlns="http://www.w3.org/2000/svg" viewBox="0 0 512 512"><!--!Font Awesome Pro 6.6.0 by @fontawesome - https://fontawesome.com License - https://fontawesome.com/license (Commercial License) Copyright 2024 Fonticons, Inc.--><path class="fa-secondary" opacity=".4" d="M85.3 256c0-5.4 .3-10.7 .7-16C93.6 158.5 158.5 93.6 240 86.1c5.3-.5 10.6-.7 16-.7s10.7 .3 16 .7c81.5 7.6 146.3 72.4 153.9 153.9c.5 5.3 .7 10.6 .7 16s-.2 10.7-.7 16c-7.6 81.5-72.4 146.4-153.9 153.9c-5.3 .5-10.6 .7-16 .7s-10.7-.2-16-.7C158.5 418.4 93.6 353.5 86.1 272c-.5-5.3-.7-10.6-.7-16zm96.3 0a74.4 74.4 0 1 0 148.8 0 74.4 74.4 0 1 0 -148.8 0z"/><path class="fa-primary" d="M256 181.6a74.4 74.4 0 1 0 0 148.8 74.4 74.4 0 1 0 0-148.8zM272 42.7c0-8.8-7.2-16-16-16s-16 7.2-16 16V86.1c5.3-.5 10.6-.7 16-.7s10.7 .3 16 .7V42.7zM425.9 272c.5-5.3 .7-10.6 .7-16s-.2-10.7-.7-16h43.4c8.8 0 16 7.2 16 16s-7.2 16-16 16H425.9zM240 425.9c5.3 .5 10.6 .7 16 .7s10.7-.2 16-.7v43.4c0 8.8-7.2 16-16 16s-16-7.2-16-16V425.9zM86.1 240c-.5 5.3-.7 10.6-.7 16s.3 10.7 .7 16H42.7c-8.8 0-16-7.2-16-16s7.2-16 16-16H86.1z"/></svg>