<svg xmlns="http://www.w3.org/2000/svg" viewBox="0 0 512 512"><!--!Font Awesome Pro 6.6.0 by @fontawesome - https://fontawesome.com License - https://fontawesome.com/license (Commercial License) Copyright 2024 Fonticons, Inc.--><path class="fa-secondary" opacity=".4" d="M27 297.6c1.9 8.6 10.5 14.1 19.1 12.2c41.7-9.2 62.2-33.4 78.1-56.8c.9-1.3 2.4-2.2 4.4-2.2c2.1 0 4.2 .8 5.6 2.5c23.9 28.8 61.6 61.5 121.8 61.5c58.5 0 96.4-25.3 121.4-56.8c1.7-2.2 4.5-3.5 7.4-3.5c2.8 0 4.6 1 5.7 2.5c15.6 22.2 36.1 44.2 75.3 52.9c8.6 1.9 17.2-3.5 19.1-12.2s-3.5-17.2-12.2-19.1c-28.5-6.3-42.9-21.3-56.1-40c-16.1-23-48.9-19.8-64.3-.5c-19.8 24.9-48.9 44.7-96.4 44.7c-46.7 0-76.3-24.7-97.2-49.9c-7.6-9.2-19-14.1-30.3-14.1c-11.7 0-23.3 5.2-30.8 16.2c-14 20.6-28.4 36.9-58.5 43.6c-8.6 1.9-14.1 10.5-12.2 19.1z"/><path class="fa-primary" d="M97.7 128.2c14.7-21.7 45.5-20.9 61.1-2.2C179.7 151.3 209.3 176 256 176c47.5 0 76.6-19.8 96.4-44.7c15.4-19.3 48.2-22.5 64.3 .5c13.2 18.8 27.6 33.7 56.1 40c8.6 1.9 14.1 10.5 12.2 19.1s-10.5 14.1-19.1 12.2c-39.3-8.7-59.7-30.6-75.3-52.9c-1-1.5-2.9-2.6-5.7-2.5c-2.9 .1-5.7 1.4-7.4 3.5C352.4 182.7 314.5 208 256 208c-60.2 0-97.9-32.7-121.8-61.5c-1.4-1.7-3.5-2.6-5.6-2.5c-2 0-3.5 .9-4.4 2.2c-15.9 23.4-36.3 47.6-78.1 56.8C37.5 205 29 199.5 27 190.9s3.5-17.2 12.2-19.1c30.1-6.7 44.5-23 58.5-43.6zm0 213.3c14.7-21.7 45.5-20.9 61.1-2.2c20.9 25.2 50.5 49.9 97.2 49.9c47.5 0 76.6-19.8 96.4-44.7c15.4-19.3 48.2-22.5 64.3 .5c13.2 18.8 27.6 33.7 56.1 40c8.6 1.9 14.1 10.5 12.2 19.1s-10.5 14.1-19.1 12.2c-39.3-8.7-59.7-30.6-75.3-52.9c-1-1.5-2.9-2.6-5.7-2.5c-2.9 .1-5.7 1.4-7.4 3.5c-25.1 31.5-63 56.8-121.4 56.8c-60.2 0-97.9-32.7-121.8-61.5c-1.4-1.7-3.5-2.6-5.6-2.5c-2 0-3.5 .9-4.4 2.2c-15.9 23.4-36.3 47.6-78.1 56.8c-8.6 1.9-17.2-3.5-19.1-12.2s3.5-17.2 12.2-19.1c30.1-6.7 44.5-23 58.5-43.6z"/></svg>