<svg xmlns="http://www.w3.org/2000/svg" viewBox="0 0 512 512"><!--!Font Awesome Pro 6.6.0 by @fontawesome - https://fontawesome.com License - https://fontawesome.com/license (Commercial License) Copyright 2024 Fonticons, Inc.--><path class="fa-secondary" opacity=".4" d="M42.7 256c0-100.6 0-150.8 31.2-182.1S155.4 42.7 256 42.7s150.9 0 182.1 31.2c31.2 31.2 31.2 81.3 31.2 181.3l0 .8c0 100.6 0 150.9-31.2 182.1s-81.5 31.2-182.1 31.2s-150.8 0-182.1-31.2S42.7 356.6 42.7 256zm90.7 106.7c0 4.1 1.6 8.2 4.7 11.3s7.2 4.7 11.3 4.7s8.2-1.6 11.3-4.7L208 326.6l0 25.4c0 8.8 7.2 16 16 16s16-7.2 16-16l0-64c0-8.8-7.2-16-16-16l-64 0c-8.8 0-16 7.2-16 16s7.2 16 16 16l25.4 0L138 351.4c-3.1 3.1-4.7 7.2-4.7 11.3zM272 160l0 64c0 8.8 7.2 16 16 16l64 0c8.8 0 16-7.2 16-16s-7.2-16-16-16l-25.4 0L374 160.6c3.1-3.1 4.7-7.2 4.7-11.3s-1.6-8.2-4.7-11.3s-7.2-4.7-11.3-4.7s-8.2 1.6-11.3 4.7L304 185.4l0-25.4c0-8.8-7.2-16-16-16s-16 7.2-16 16z"/><path class="fa-primary" d="M138 374c-6.2-6.2-6.2-16.4 0-22.6L185.4 304 160 304c-8.8 0-16-7.2-16-16s7.2-16 16-16l64 0c8.8 0 16 7.2 16 16l0 64c0 8.8-7.2 16-16 16s-16-7.2-16-16l0-25.4L160.6 374c-6.2 6.2-16.4 6.2-22.6 0zM368 224c0 8.8-7.2 16-16 16l-64 0c-8.8 0-16-7.2-16-16l0-64c0-8.8 7.2-16 16-16s16 7.2 16 16l0 25.4L351.4 138c6.2-6.2 16.4-6.2 22.6 0s6.2 16.4 0 22.6L326.6 208l25.4 0c8.8 0 16 7.2 16 16z"/></svg>