<svg xmlns="http://www.w3.org/2000/svg" viewBox="0 0 512 512"><!--!Font Awesome Pro 6.6.0 by @fontawesome - https://fontawesome.com License - https://fontawesome.com/license (Commercial License) Copyright 2024 Fonticons, Inc.--><path class="fa-secondary" opacity=".4" d="M44.3 220.9c-4.9 20.8 1.6 44.9 14.5 93l11 41.2c12.9 48.1 19.3 72.2 33.9 87.8c11.5 12.3 26.5 20.9 42.9 24.8c4.7 1.1 9.6 1.6 14.8 1.6c18.1 0 40.9-6.1 78.1-16.1c48.1-12.9 72.2-19.3 87.8-33.9c10.5-9.8 18.3-22.2 22.8-35.8c-2.8 .3-5.6 .5-8.6 .5c-18.1 0-40.9-6.1-78.1-16.1c-48.1-12.9-72.2-19.3-87.8-33.9c-12.3-11.5-20.9-26.5-24.8-42.9c-1.1-4.7-1.6-9.6-1.6-14.8c0-18.1 6.1-40.9 16.1-78.1c3.7-13.7 7.4-27.5 11-41.2c1.9-6.9 3.6-13.3 5.2-19.3c-7.5 1.9-15.8 4.1-24.9 6.6C108.7 157 84.7 163.4 69.1 178c-12.3 11.5-20.9 26.5-24.8 42.9z"/><path class="fa-primary" d="M444.4 228.6l-11 41.2c-12.9 48.1-19.3 72.2-33.9 87.8c-11.5 12.3-26.5 20.9-42.9 24.8c-2.1 .5-4.1 .8-6.3 1.1c-19.5 2.4-43.3-4-86.7-15.6c-48.1-12.9-72.2-19.3-87.8-33.9c-12.3-11.5-20.9-26.5-24.8-42.9c-4.9-20.8 1.6-44.9 14.5-93l11-41.2c1.9-6.9 3.6-13.3 5.2-19.3c9.7-35.5 16.2-55.1 28.7-68.5c11.5-12.3 26.5-20.9 42.9-24.8c20.8-4.9 44.9 1.6 93 14.5s72.2 19.3 87.8 33.9c12.3 11.5 20.9 26.5 24.8 42.9c4.9 20.8-1.6 44.9-14.5 93zM235.8 209.2c-2.3 8.5 2.8 17.3 11.3 19.6l103 27.6c8.5 2.3 17.3-2.8 19.6-11.3s-2.8-17.3-11.3-19.6l-103-27.6c-8.5-2.3-17.3 2.8-19.6 11.3zM219.2 271c-2.3 8.5 2.8 17.3 11.3 19.6l61.8 16.6c8.5 2.3 17.3-2.8 19.6-11.3s-2.8-17.3-11.3-19.6l-61.8-16.6c-8.5-2.3-17.3 2.8-19.6 11.3z"/></svg>