<svg xmlns="http://www.w3.org/2000/svg" viewBox="0 0 512 512"><!--!Font Awesome Pro 6.6.0 by @fontawesome - https://fontawesome.com License - https://fontawesome.com/license (Commercial License) Copyright 2024 Fonticons, Inc.--><path class="fa-secondary" opacity=".4" d="M21.3 453.3c0 8.8 7.2 16 16 16l426.7 0c8.8 0 16-7.2 16-16s-7.2-16-16-16l-5.3 0-32 0 0-144c0-8.8-7.2-16-16-16l-64 0c-8.8 0-16 7.2-16 16l0 144-32 0-96 0-32 0 0-250.7c0-8.8-7.2-16-16-16l-64 0c-8.8 0-16 7.2-16 16l0 250.7-32 0-5.3 0c-8.8 0-16 7.2-16 16z"/><path class="fa-primary" d="M298.7 437.3l0-346.7c0-15.5 0-25.6-1-33c-.9-6.9-2.4-9.1-3.7-10.3s-3.4-2.7-10.3-3.7c-7.4-1-17.4-1-33-1s-25.6 0-33 1c-6.9 .9-9.1 2.4-10.3 3.7s-2.7 3.4-3.7 10.3c-1 7.4-1 17.4-1 33l0 346.7 96 0z"/></svg>