<svg xmlns="http://www.w3.org/2000/svg" viewBox="0 0 512 512"><!--!Font Awesome Pro 6.6.0 by @fontawesome - https://fontawesome.com License - https://fontawesome.com/license (Commercial License) Copyright 2024 Fonticons, Inc.--><path class="fa-secondary" opacity=".4" d="M64 213.3c0-80.5 0-120.7 25-145.7s65.2-25 145.7-25l42.7 0c80.5 0 120.7 0 145.7 25c24.9 24.9 25 65.1 25 145.2l0 .5 0 85.3c0 80.5 0 120.7-25 145.7c-24.9 24.9-65.1 25-145.2 25l-.5 0-42.7 0c-80.5 0-120.7 0-145.7-25C64 419.4 64 379.3 64 299.1l0-.5 0-85.3zm85.3-44c0 4.1 .7 8.3 2.2 12.4L167.4 226c2.3 6.4 8.5 10 14.5 8.3c3.8-1.1 7.6-2 11.4-2.9l-13.6-42.4c-3.3-10.4 1.5-21.8 10.8-25.5s19.5 1.7 22.9 12.1l16.1 50c33.7-3.3 67.7-.3 100.8 8.9c6 1.7 12.2-1.9 14.5-8.3l15.9-44.3c7.1-19.7-4-41.7-22.8-45.2l-10.2-1.9c-47.4-8.8-95.8-8.8-143.2 0l-10.1 1.9c-14.9 2.8-24.9 17.1-24.9 32.8zM154.7 384c0 8.8 7.2 16 16 16l170.7 0c8.8 0 16-7.2 16-16s-7.2-16-16-16l-170.7 0c-8.8 0-16 7.2-16 16z"/><path class="fa-primary" d="M154.7 384c0-8.8 7.2-16 16-16H341.3c8.8 0 16 7.2 16 16s-7.2 16-16 16H170.7c-8.8 0-16-7.2-16-16zm29.8-249.4c47.4-8.8 95.8-8.8 143.2 0l10.2 1.9c18.8 3.5 29.9 25.5 22.8 45.2L344.6 226c-2.3 6.4-8.5 10-14.5 8.3c-33-9.2-67.1-12.2-100.8-8.9l-16.1-50c-3.3-10.4-13.6-15.8-22.9-12.1s-14.1 15.2-10.8 25.5l13.6 42.4c-3.8 .9-7.6 1.9-11.4 2.9c-6 1.7-12.2-1.9-14.5-8.3l-15.9-44.3c-7.1-19.7 4-41.7 22.8-45.2l10.1-1.9z"/></svg>