<svg xmlns="http://www.w3.org/2000/svg" viewBox="0 0 512 512"><!--!Font Awesome Pro 6.6.0 by @fontawesome - https://fontawesome.com License - https://fontawesome.com/license (Commercial License) Copyright 2024 Fonticons, Inc.--><path class="fa-secondary" opacity=".4" d="M48 128c0-8.8 7.2-16 16-16l362.7 0c8.8 0 16 7.2 16 16s-7.2 16-16 16L64 144c-8.8 0-16-7.2-16-16zm0 106.7c0-8.8 7.2-16 16-16l149.3 0c8.8 0 16 7.2 16 16s-7.2 16-16 16L64 250.7c-8.8 0-16-7.2-16-16zm0 106.7c0-8.8 7.2-16 16-16l149.3 0c8.8 0 16 7.2 16 16s-7.2 16-16 16L64 357.3c-8.8 0-16-7.2-16-16z"/><path class="fa-primary" d="M408 228c35 20.2 52.5 30.3 58.1 43.7c4.3 10.5 4.3 22.2 0 32.7C460.5 317.7 443 327.8 408 348s-52.5 30.3-66.9 28.4c-11.2-1.5-21.4-7.3-28.3-16.3C304 348.7 304 328.4 304 288s0-60.7 8.8-72.2c6.9-9 17.1-14.9 28.3-16.3c14.4-1.9 31.9 8.2 66.9 28.4z"/></svg>