<svg xmlns="http://www.w3.org/2000/svg" viewBox="0 0 512 512"><!--!Font Awesome Pro 6.6.0 by @fontawesome - https://fontawesome.com License - https://fontawesome.com/license (Commercial License) Copyright 2024 Fonticons, Inc.--><path class="fa-secondary" opacity=".4" d="M69.3 106.7c0-8.8 7.2-16 16-16s16 7.2 16 16l0 67.1c-2.5-1-5.1-1.8-7.7-2.3c-1.3-.3-2.7-.5-4.1-.6c-.7-.1-1.4-.1-2.1-.2s-1.4-.1-2.1-.1c-5.7 0-11.1 1.1-16 3.1l0-67.1zm0 146.2c2.5 1 5.1 1.8 7.7 2.3c1.3 .3 2.7 .5 4.1 .6c.7 .1 1.4 .1 2.1 .2s1.4 .1 2.1 .1c5.7 0 11.1-1.1 16-3.1l0 152.4c0 8.8-7.2 16-16 16s-16-7.2-16-16l0-152.4zM240 106.7c0-8.8 7.2-16 16-16s16 7.2 16 16l0 109.8c-2.5-1-5.1-1.8-7.7-2.3c-1.3-.3-2.7-.5-4.1-.6c-.7-.1-1.4-.1-2.1-.2s-1.4-.1-2.1-.1c-5.7 0-11.1 1.1-16 3.1l0-109.8zm0 188.9c2.5 1 5.1 1.8 7.7 2.3c1.3 .3 2.7 .5 4.1 .6c.7 .1 1.4 .1 2.1 .2s1.4 .1 2.1 .1c5.7 0 11.1-1.1 16-3.1l0 109.8c0 8.8-7.2 16-16 16s-16-7.2-16-16l0-109.8zM410.7 106.7c0-8.8 7.2-16 16-16s16 7.2 16 16l0 152.4c-2.5-1-5.1-1.8-7.7-2.3c-1.3-.3-2.7-.5-4.1-.6c-.7-.1-1.4-.1-2.1-.2s-1.4-.1-2.1-.1c-5.7 0-11.1 1.1-16 3.1l0-152.4zm0 231.6c2.5 1 5.1 1.8 7.7 2.3c1.3 .3 2.7 .5 4.1 .6c.7 .1 1.4 .1 2.1 .2s1.4 .1 2.1 .1c5.7 0 11.1-1.1 16-3.1l0 67.1c0 8.8-7.2 16-16 16s-16-7.2-16-16l0-67.1z"/><path class="fa-primary" d="M85.3 170.7a42.7 42.7 0 1 1 0 85.3 42.7 42.7 0 1 1 0-85.3zM298.7 256a42.7 42.7 0 1 1 -85.3 0 42.7 42.7 0 1 1 85.3 0zm170.7 42.7a42.7 42.7 0 1 1 -85.3 0 42.7 42.7 0 1 1 85.3 0z"/></svg>