<svg xmlns="http://www.w3.org/2000/svg" viewBox="0 0 512 512"><!--!Font Awesome Pro 6.5.2 by @fontawesome - https://fontawesome.com License - https://fontawesome.com/license (Commercial License) Copyright 2024 Fonticons, Inc.--><path class="fa-secondary" opacity=".4" d="M64 279.7c0 151.7 112.8 189.7 169.2 189.7c3.2 0 6.6-.1 10.2-.3c-27.9-2.4-72.8-19.8-72.8-75.5c0-43.7 31.9-73.3 56.1-87.7c6.5-3.9 14.1 1.2 14.1 8.7l0 12.6c0 9.6 3.7 24.7 12.6 34.9c10 11.6 24.7-.6 25.9-15.9c.4-4.8 5.2-7.9 9.4-5.5c13.7 8 31.1 25.1 31.1 52.8c0 43.7-24.1 63.8-46.3 71.6c66.7-13.4 152.9-61.3 152.9-185.4c0-112.9-82.6-188.1-142-222.6c-3.1-1.8-6.4-2.6-9.5-2.6C265 54.5 256 63.1 256 74.8l0 39c0 30.8-12.9 86.9-48.9 110.3c-18.3 11.9-38.2-5.9-40.4-27.7l-1.8-17.9c-2.1-20.8-23.3-33.4-39.9-20.7c-29.8 22.7-61 62.6-61 121.9z"/><path class="fa-primary" d="M170.7 393.5c0 55.9 45 73.2 72.9 75.6c9.5-1.2 0 2.1 30.2-3.9c22.2-7.8 46.3-27.9 46.3-71.6c0-27.7-17.5-44.8-31.1-52.8c-4.2-2.5-9 .6-9.4 5.5c-1.2 15.3-15.9 27.5-25.9 15.9c-8.9-10.3-12.6-25.3-12.6-34.9v-12.6c0-7.6-7.6-12.6-14.1-8.7c-24.2 14.4-56.1 43.9-56.1 87.7"/></svg>