<svg xmlns="http://www.w3.org/2000/svg" viewBox="0 0 512 512"><!--!Font Awesome Pro 6.6.0 by @fontawesome - https://fontawesome.com License - https://fontawesome.com/license (Commercial License) Copyright 2024 Fonticons, Inc.--><path class="fa-secondary" opacity=".4" d="M42.7 256c0 100.6 0 150.9 31.2 182.1s81.5 31.2 182.1 31.2s150.9 0 182.1-31.2c31.2-31.2 31.2-81.3 31.2-181.3l0-.8c0-100.6 0-150.8-31.2-182.1S356.6 42.7 256 42.7s-150.8 0-182.1 31.2S42.7 155.4 42.7 256zm128-32c0-17.7 9.6-32 21.3-32s21.3 14.3 21.3 32s-9.6 32-21.3 32s-21.3-14.3-21.3-32zM176 341.3c0-8.8 7.2-16 16-16l128 0c8.8 0 16 7.2 16 16s-7.2 16-16 16l-128 0c-8.8 0-16-7.2-16-16zM298.7 224c0-17.7 9.6-32 21.3-32s21.3 14.3 21.3 32s-9.6 32-21.3 32s-21.3-14.3-21.3-32z"/><path class="fa-primary" d="M192 357.3c-8.8 0-16-7.2-16-16s7.2-16 16-16H320c8.8 0 16 7.2 16 16s-7.2 16-16 16H192zM320 256c11.8 0 21.3-14.3 21.3-32s-9.6-32-21.3-32s-21.3 14.3-21.3 32s9.6 32 21.3 32zm-128 0c11.8 0 21.3-14.3 21.3-32s-9.6-32-21.3-32s-21.3 14.3-21.3 32s9.6 32 21.3 32z"/></svg>