<svg xmlns="http://www.w3.org/2000/svg" viewBox="0 0 512 512"><!--!Font Awesome Pro 6.6.0 by @fontawesome - https://fontawesome.com License - https://fontawesome.com/license (Commercial License) Copyright 2024 Fonticons, Inc.--><path class="fa-secondary" opacity=".4" d="M112 432.6c0 1.6 .3 3.2 .8 4.9c2.8 8 11.9 12.4 20.2 9.7L256 407.9l122.9 39.3c8.4 2.7 17.4-1.7 20.2-9.7s-1.7-16.7-10.1-19.4L272 380.6c0-16.8 0-33.6 0-50.4c-10.7 0-21.3 0-32 0l0 50.4L122.9 418.1c-6.7 2.1-10.9 8.1-10.9 14.6z"/><path class="fa-primary" d="M61.4 82c-18.7 18-18.7 47-18.7 104.9l0 20.5c0 57.9 0 86.9 18.7 104.9s48.9 18 109.3 18l69.3 0 32 0 69.3 0c60.3 0 90.5 0 109.3-18s18.7-47 18.7-104.9l0-20.5c0-57.9 0-86.9-18.7-104.9s-48.9-18-109.3-18L170.7 64c-60.3 0-90.5 0-109.3 18z"/></svg>