<svg xmlns="http://www.w3.org/2000/svg" viewBox="0 0 512 512"><!--!Font Awesome Pro 6.6.0 by @fontawesome - https://fontawesome.com License - https://fontawesome.com/license (Commercial License) Copyright 2024 Fonticons, Inc.--><path class="fa-secondary" opacity=".4" d="M96 234.7a53.3 53.3 0 1 0 106.7 0A53.3 53.3 0 1 0 96 234.7zm160 7.6l0 83c75.7 0 151.4 0 227 0c0-37-.4-56.6-6-72.6c-10.7-30.6-34.8-54.7-65.5-65.5c-17.1-6-38.3-6-80.7-6l-.3 0c-17.1 0-39.3 0-46.1 2.4c-12.3 4.3-21.9 13.9-26.2 26.2c-2.4 6.8-2.4 15.4-2.4 32.4z"/><path class="fa-primary" d="M42.7 112c8.8 0 16 7.2 16 16l0 197.3 197.3 0 227 0 0 8.4 0 7.6 0 42.7c0 8.8-7.2 16-16 16s-16-7.2-16-16l0-26.7-392.4 0 0 26.7c0 8.8-7.2 16-16 16s-16-7.2-16-16l0-256c0-8.8 7.2-16 16-16z"/></svg>