<svg xmlns="http://www.w3.org/2000/svg" viewBox="0 0 512 512"><!--!Font Awesome Pro 6.6.0 by @fontawesome - https://fontawesome.com License - https://fontawesome.com/license (Commercial License) Copyright 2024 Fonticons, Inc.--><path class="fa-secondary" opacity=".4" d="M42.7 138.7c0-45.3 0-67.9 14.1-81.9c14-14 36.6-14.1 81.7-14.1l.3 0c45.3 0 67.9 0 81.9 14.1s14.1 36.7 14.1 81.9s0 67.9-14.1 81.9s-36.7 14.1-81.9 14.1s-67.9 0-81.9-14.1c-14-14-14.1-36.6-14.1-81.7l0-.3zM277.3 373.3c0-45.3 0-67.9 14.1-81.9s36.7-14.1 81.9-14.1s67.9 0 81.9 14.1s14.1 36.7 14.1 81.9s0 67.9-14.1 81.9s-36.7 14.1-81.9 14.1s-67.9 0-81.9-14.1s-14.1-36.7-14.1-81.9z"/><path class="fa-primary" d="M42.7 373.3c0-45.3 0-67.9 14.1-81.9s36.7-14.1 81.9-14.1s67.9 0 81.9 14.1s14.1 36.7 14.1 81.9s0 67.9-14.1 81.9s-36.7 14.1-81.9 14.1s-67.9 0-81.9-14.1s-14.1-36.7-14.1-81.9zM277.3 138.7c0-45.3 0-67.9 14.1-81.9s36.7-14.1 81.9-14.1s67.9 0 81.9 14.1s14.1 36.7 14.1 81.9s0 67.9-14.1 81.9s-36.7 14.1-81.9 14.1s-67.9 0-81.9-14.1s-14.1-36.7-14.1-81.9z"/></svg>