<svg xmlns="http://www.w3.org/2000/svg" viewBox="0 0 512 512"><!--!Font Awesome Pro 6.6.0 by @fontawesome - https://fontawesome.com License - https://fontawesome.com/license (Commercial License) Copyright 2024 Fonticons, Inc.--><path class="fa-secondary" opacity=".4" d="M128 214.3l0 .9 0 19.5c23 .1 35.6 .9 45 7.2c4.7 3.1 8.7 7.1 11.8 11.8c7.2 10.8 7.2 25.7 7.2 55.7l0 85.3c0 30 0 44.9-7.2 55.7c-1.8 2.7-3.9 5.2-6.3 7.4c9.7 4.3 20.5 6.9 32.6 8.5c22.2 3 50.6 3 86.5 3l2.2 0 .2 0c35.7 0 64.1 0 86.2-3c22.9-3.1 41.4-9.7 56-24.6s21.1-33.7 24.1-56.9c3-22.6 3-51.5 3-88l0-81.6c0-36.5 0-65.4-3-88c-3.1-23.3-9.6-42.1-24.1-56.9s-33.1-21.4-56-24.6c-22-3-50.1-3-85.6-3l-.9 0-2.2 0-.9 0c-35.4 0-63.5 0-85.5 3c-22.9 3.1-41.4 9.7-56 24.6S134.1 104 131 127.2c-3 22.4-3 51-3 87zM240 405.3c0-8.8 7.2-16 16-16l106.7 0c8.8 0 16 7.2 16 16s-7.2 16-16 16l-106.7 0c-8.8 0-16-7.2-16-16z"/><path class="fa-primary" d="M256 389.3c-8.8 0-16 7.2-16 16s7.2 16 16 16H362.7c8.8 0 16-7.2 16-16s-7.2-16-16-16H256zm-213.3-80c0-30 0-44.9 7.2-55.7C53 249 57 245 61.6 241.9c10.8-7.2 25.7-7.2 55.7-7.2s44.9 0 55.7 7.2c4.7 3.1 8.7 7.1 11.8 11.8c7.2 10.8 7.2 25.7 7.2 55.7v85.3c0 30 0 44.9-7.2 55.7c-3.1 4.7-7.1 8.7-11.8 11.8c-10.8 7.2-25.7 7.2-55.7 7.2s-44.9 0-55.7-7.2C57 459 53 455 49.9 450.4c-7.2-10.8-7.2-25.7-7.2-55.7V309.3z"/></svg>