<svg xmlns="http://www.w3.org/2000/svg" viewBox="0 0 512 512"><!--!Font Awesome Pro 6.6.0 by @fontawesome - https://fontawesome.com License - https://fontawesome.com/license (Commercial License) Copyright 2024 Fonticons, Inc.--><path class="fa-secondary" opacity=".4" d="M48 330.7c0 8.8 7.2 16 16 16l8.1 0c33.2 0 65.1-13.2 88.6-36.7c6.2-6.2 6.2-16.4 0-22.6s-16.4-6.2-22.6 0c-17.5 17.5-41.2 27.3-65.9 27.3l-8.1 0c-8.8 0-16 7.2-16 16zM251.5 208.3c-2.8 8.4 1.7 17.4 10.1 20.2c24.1 8 50.1 8 74.1 0c6.7-2.2 10.9-8.5 10.9-15.2c0-1.7-.3-3.4-.8-5.1c-2.2-6.7-8.5-10.9-15.2-10.9c-1.7 0-3.4 .3-5.1 .8c-17.5 5.8-36.4 5.8-53.9 0c-8.4-2.8-17.4 1.7-20.2 10.1z"/><path class="fa-primary" d="M277.3 85.3a42.7 42.7 0 1 1 85.3 0 42.7 42.7 0 1 1 -85.3 0zM154.8 115c15.7-9.8 35.3-11.3 52.3-4c36.8 15.8 46.1 63.8 17.7 92.1l-7 7c-2.8 2.8-3.6 3.6-4.1 4.2c-9.3 10.7-8.6 26.8 1.7 36.7c.6 .6 1.5 1.3 4.5 3.9l.2 .2c1.7 1.4 2.9 2.4 4 3.4c16.1 14.5 25.6 34.8 26.4 56.5c.1 1.5 .1 3.1 .1 5.3l0 21.1c0 8.8-7.2 16-16 16s-16-7.2-16-16l0-20.8c0-2.7 0-3.6 0-4.4c-.5-13-6.2-25.2-15.9-33.9c-.6-.6-1.3-1.1-3.4-2.8c-.2-.1-.3-.3-.5-.4c-2.4-2-4.2-3.5-5.8-5c-22.5-21.6-24.1-57.1-3.7-80.7c1.4-1.6 3.1-3.3 5.3-5.5l.4-.4 7-7c12.3-12.3 8.3-33.2-7.7-40c-7.4-3.2-15.9-2.5-22.7 1.8l-67.3 42.1c-7.5 4.7-17.4 2.4-22-5.1s-2.4-17.4 5.1-22L154.8 115zm317.6 50c8.7-1.7 14.3-10.2 12.6-18.8s-10.2-14.3-18.8-12.6c-38.6 7.7-68.2 38.8-74.1 77.8L368.4 369.7 61.9 423.3c-11.1 1.9-19.2 11.6-19.2 22.8c0 12.8 10.4 23.2 23.2 23.2H415.8c29.6 0 53.6-24 53.6-53.6c0-33.3-30-58.5-62.8-52.8l-4.9 .9 22.2-147.7c3.8-25.6 23.3-46.1 48.7-51.1z"/></svg>