<svg xmlns="http://www.w3.org/2000/svg" viewBox="0 0 512 512"><!--!Font Awesome Pro 6.6.0 by @fontawesome - https://fontawesome.com License - https://fontawesome.com/license (Commercial License) Copyright 2024 Fonticons, Inc.--><path class="fa-secondary" opacity=".4" d="M85.3 234.7c23.5 0 42.5-18.9 42.7-42.2c0 .5 0 1 .1 1.7c0 .2 0 .3 0 .5c0 .4 .1 .9 .1 1.5c.1 1.5 .4 3 .7 4.5c.6 2.8 1.4 5.4 2.5 8c2.2 5.1 5.3 9.7 9.1 13.5s8.5 7 13.6 9.1c2.6 1.1 5.2 1.9 8 2.5c1.4 .3 2.8 .5 4.2 .6c.7 .1 1.4 .1 2.2 .2c.7 0 1.4 .1 2.2 .1c23.5 0 42.5-18.9 42.7-42.2c0 .5 0 1.1 .1 1.7c0 .1 0 .3 0 .4c0 .5 .1 1 .1 1.6c.1 1.5 .4 3 .7 4.4c.6 2.8 1.4 5.4 2.5 8c2.2 5.1 5.3 9.7 9.1 13.6s8.5 7 13.6 9.1c2.6 1.1 5.2 1.9 8 2.5c1.4 .3 2.8 .5 4.2 .6c.7 .1 1.4 .1 2.2 .2c.7 0 1.5 .1 2.2 .1c23.5 0 42.5-19 42.7-42.3c0 .6 0 1.1 .1 1.8c0 .1 0 .3 0 .4c0 .5 .1 1 .1 1.6c.1 1.5 .4 3 .7 4.4c.6 2.8 1.4 5.4 2.5 8c2.2 5.1 5.3 9.7 9.1 13.6s8.5 7 13.6 9.1c2.6 1.1 5.2 1.9 8 2.5c1.4 .3 2.8 .5 4.2 .6c.7 .1 1.4 .1 2.2 .2c.7 0 1.5 .1 2.2 .1c23.5 0 42.5-19 42.7-42.3c0 .6 0 1.1 .1 1.8c0 .1 0 .3 0 .4c0 .5 .1 1 .1 1.6c.1 1.5 .4 3 .7 4.4c.6 2.8 1.4 5.4 2.5 8c2.2 5.1 5.3 9.7 9.1 13.6s8.5 7 13.6 9.1c2.6 1.1 5.2 1.9 8 2.5c1.4 .3 2.8 .5 4.2 .6c.7 .1 1.4 .1 2.2 .2c.7 0 1.5 .1 2.2 .1l0 218.7-117.3 0 0-58.7c0-2.5 0-4.8 0-7s0-4.2-.1-6.2c-.1-3.9-.2-7.2-.5-10.2c-.5-5.9-1.6-10.3-3.8-14c-2.8-4.9-6.8-8.9-11.7-11.7c-7.4-4.3-17.4-4.3-37.3-4.3s-29.9 0-37.3 4.3c-4.9 2.8-8.9 6.8-11.7 11.7c-4.3 7.4-4.3 17.4-4.3 37.3l0 58.7-117.3 0 0-218.7z"/><path class="fa-primary" d="M352.6 42.7H159.4c-25.7 0-38.5 0-48.8 6.4s-16 17.8-27.5 40.8L53.1 165.5c-6.9 17.5-13 38.1-1.3 52.9c7.8 9.9 19.9 16.3 33.5 16.3c23.6 0 42.7-19.1 42.7-42.7c0 23.6 19.1 42.7 42.7 42.7s42.7-19.1 42.7-42.7c0 23.6 19.1 42.7 42.7 42.7s42.7-19.1 42.7-42.7c0 23.6 19.1 42.7 42.7 42.7s42.7-19.1 42.7-42.7c0 23.6 19.1 42.7 42.7 42.7c13.6 0 25.7-6.4 33.5-16.3c11.6-14.8 5.6-35.4-1.3-52.9L428.9 89.8c-11.5-23-17.2-34.4-27.5-40.8s-23.1-6.4-48.8-6.4zM202.7 453.3V394.7c0-19.9 0-29.9 4.3-37.3c2.8-4.9 6.8-8.9 11.7-11.7c7.4-4.3 17.4-4.3 37.3-4.3s29.9 0 37.3 4.3c4.9 2.8 8.9 6.8 11.7 11.7c4.3 7.4 4.3 17.4 4.3 37.3v58.7H202.7zm106.7 0H202.7l-117.3 0-42.7 0c-8.8 0-16 7.2-16 16s7.2 16 16 16H469.3c8.8 0 16-7.2 16-16s-7.2-16-16-16l-42.7 0-117.3 0z"/></svg>