<svg xmlns="http://www.w3.org/2000/svg" viewBox="0 0 512 512"><!--!Font Awesome Pro 6.6.0 by @fontawesome - https://fontawesome.com License - https://fontawesome.com/license (Commercial License) Copyright 2024 Fonticons, Inc.--><path class="fa-secondary" opacity=".4" d="M42.7 256c0 100.6 0 150.9 31.2 182.1s81.5 31.2 182.1 31.2s150.9 0 182.1-31.2c31.2-31.2 31.2-81.3 31.2-181.3l0-.8c0-100.6 0-150.8-31.2-182.1S356.6 42.7 256 42.7s-150.8 0-182.1 31.2S42.7 155.4 42.7 256zm48-44.8c0-23.7 0-43.1 2.1-58.5C95 136.4 99.7 122.3 111 111s25.4-16 41.7-18.2c15.4-2.1 34.8-2.1 58.5-2.1l1 0 1.1 0c8.8 0 16 7.2 16 16s-7.2 16-16 16c-25.6 0-43.2 0-56.4 1.8c-12.7 1.7-19 4.8-23.3 9.1s-7.4 10.6-9.1 23.3c-1.8 13.2-1.8 30.8-1.8 56.4c0 8.8-7.2 16-16 16s-16-7.2-16-16l0-1.1 0-1zm0 87.5c0-8.8 7.2-16 16-16s16 7.2 16 16c0 25.6 0 43.2 1.8 56.4c1.7 12.8 4.8 19 9.1 23.3s10.6 7.4 23.3 9.1c13.2 1.8 30.8 1.8 56.4 1.8c8.8 0 16 7.2 16 16s-7.2 16-16 16l-1.1 0c-24.2 0-43.9 0-59.5-2.1c-16.3-2.2-30.4-6.9-41.7-18.2s-16-25.4-18.2-41.7c-2.1-15.4-2.1-34.8-2.1-58.5l0-1 0-1.1zm66.5-29.9c.1-.2 .2-.4 .4-.6c.3-.5 .7-1.1 1.2-1.8c1.1-1.5 2.6-3.5 4.5-5.9c3.9-4.7 9.8-10.9 17.9-17.1c16.2-12.4 40.8-24.7 74.8-24.7s58.7 12.2 74.8 24.7c8 6.2 13.9 12.4 17.9 17.1c2 2.4 3.5 4.4 4.5 5.9c.5 .8 .9 1.4 1.2 1.8c.2 .2 .3 .4 .4 .6c0 .1 .1 .1 .2 .3c4.5 7.6 2.1 17.4-5.5 22c-7.5 4.5-17.3 2.1-22-5.5c-.1-.2-.3-.5-.6-.9c-.6-.8-1.5-2.1-2.9-3.8c-2.7-3.3-7-7.7-12.8-12.2c-11.6-8.9-29.6-18-55.3-18s-43.7 9.1-55.3 18c-5.8 4.5-10.1 9-12.8 12.2c-1.4 1.6-2.3 2.9-2.9 3.8c-.3 .4-.5 .7-.7 1c-4.6 7.5-14.3 9.9-21.9 5.4c-7.6-4.5-10-14.4-5.4-22l.2-.3zm-.2 .3c4.5 2.8 9.1 5.6 13.7 8.3c-13.7-8.2-13.7-8.3-13.7-8.3zM282.7 106.7c0-8.8 7.2-16 16-16l1.1 0 1 0c23.7 0 43.1 0 58.5 2.1C375.6 95 389.7 99.7 401 111s16 25.4 18.2 41.7c2.1 15.6 2.1 35.3 2.1 59.5l0 1.1c0 8.8-7.2 16-16 16s-16-7.2-16-16c0-25.6 0-43.2-1.8-56.4c-1.7-12.7-4.8-19-9.1-23.3s-10.6-7.4-23.3-9.1c-13.2-1.8-30.8-1.8-56.4-1.8c-8.8 0-16-7.2-16-16zm0 298.7c0-8.8 7.2-16 16-16c25.6 0 43.2 0 56.4-1.8c12.8-1.7 19-4.8 23.3-9.1s7.4-10.6 9.1-23.3c1.8-13.2 1.8-30.8 1.8-56.4c0-8.8 7.2-16 16-16s16 7.2 16 16l0 1.1c0 24.2 0 43.9-2.1 59.5c-2.2 16.3-6.9 30.4-18.2 41.7s-25.4 16-41.7 18.2c-15.6 2.1-35.3 2.1-59.5 2.1l-1.1 0c-8.8 0-16-7.2-16-16z"/><path class="fa-primary" d="M156.9 269.1c-4.5 7.6-2.1 17.4 5.5 22c7.5 4.5 17.3 2.1 21.9-5.4l.1-.1c.1-.2 .3-.5 .6-.9c.6-.8 1.5-2.1 2.9-3.8c2.7-3.3 7-7.7 12.8-12.2c11.6-8.9 29.6-18 55.3-18s43.7 9.1 55.3 18c5.8 4.5 10.1 9 12.8 12.2c1.4 1.6 2.3 2.9 2.9 3.8c.3 .4 .5 .7 .6 .9l.1 .1c4.6 7.5 14.3 9.9 21.9 5.4c7.6-4.5 10-14.4 5.5-22l0 0 0 0 0-.1-.1-.2c-.1-.2-.2-.4-.4-.6c-.3-.5-.7-1.1-1.2-1.8c-1-1.5-2.6-3.5-4.5-5.9c-3.9-4.7-9.8-10.9-17.9-17.1c-16.2-12.4-40.8-24.7-74.8-24.7s-58.7 12.2-74.8 24.7c-8 6.2-13.9 12.4-17.9 17.1c-2 2.4-3.5 4.4-4.5 5.9c-.5 .8-.9 1.4-1.2 1.8c-.2 .2-.3 .4-.4 .6l-.1 .2 0 .1 0 0s0 0 13.7 8.3l-13.7-8.2zm248.4 13.6c8.8 0 16 7.2 16 16v1.1 0c0 24.2 0 43.9-2.1 59.5c-2.2 16.3-6.9 30.4-18.2 41.7s-25.4 16-41.7 18.2c-15.6 2.1-35.3 2.1-59.5 2.1h0-1.1c-8.8 0-16-7.2-16-16s7.2-16 16-16c25.6 0 43.2 0 56.4-1.8c12.8-1.7 19-4.8 23.3-9.1s7.4-10.6 9.1-23.3c1.8-13.2 1.8-30.8 1.8-56.4c0-8.8 7.2-16 16-16zm-282.7 16c0-8.8-7.2-16-16-16s-16 7.2-16 16v1.1 0c0 24.2 0 43.9 2.1 59.5C95 375.6 99.7 389.7 111 401s25.4 16 41.7 18.2c15.6 2.1 35.3 2.1 59.5 2.1h0 1.1c8.8 0 16-7.2 16-16s-7.2-16-16-16c-25.6 0-43.2 0-56.4-1.8c-12.7-1.7-19-4.8-23.3-9.1s-7.4-10.6-9.1-23.3c-1.8-13.2-1.8-30.8-1.8-56.4zm89.5-208h1.1c8.8 0 16 7.2 16 16s-7.2 16-16 16c-25.6 0-43.2 0-56.4 1.8c-12.7 1.7-19 4.8-23.3 9.1s-7.4 10.6-9.1 23.3c-1.8 13.2-1.8 30.8-1.8 56.4c0 8.8-7.2 16-16 16s-16-7.2-16-16v-1.1 0c0-24.2 0-43.9 2.1-59.5C95 136.4 99.7 122.3 111 111s25.4-16 41.7-18.2c15.6-2.1 35.3-2.1 59.5-2.1h0zm86.5 32c25.6 0 43.2 0 56.4 1.8c12.8 1.7 19 4.8 23.3 9.1s7.4 10.6 9.1 23.3c1.8 13.2 1.8 30.8 1.8 56.4c0 8.8 7.2 16 16 16s16-7.2 16-16v-1.1 0c0-24.2 0-43.9-2.1-59.5c-2.2-16.3-6.9-30.4-18.2-41.7s-25.4-16-41.7-18.2c-15.6-2.1-35.3-2.1-59.5-2.1h0-1.1c-8.8 0-16 7.2-16 16s7.2 16 16 16z"/></svg>