<svg xmlns="http://www.w3.org/2000/svg" viewBox="0 0 512 512"><!--!Font Awesome Pro 6.6.0 by @fontawesome - https://fontawesome.com License - https://fontawesome.com/license (Commercial License) Copyright 2024 Fonticons, Inc.--><path class="fa-secondary" opacity=".4" d="M69.3 149.3c0-8.8 7.2-16 16-16l149.3 0c8.8 0 16 7.2 16 16s-7.2 16-16 16l-149.3 0c-8.8 0-16-7.2-16-16zm0 106.7c0-8.8 7.2-16 16-16l149.3 0c8.8 0 16 7.2 16 16s-7.2 16-16 16L85.3 272c-8.8 0-16-7.2-16-16zm0 106.7c0-8.8 7.2-16 16-16l149.3 0c8.8 0 16 7.2 16 16s-7.2 16-16 16l-149.3 0c-8.8 0-16-7.2-16-16z"/><path class="fa-primary" d="M362.7 69.3c5 0 9.8 2.4 12.8 6.4l64 85.3c5.3 7.1 3.9 17.1-3.2 22.4s-17.1 3.9-22.4-3.2l-35.2-46.9 0 245.3 35.2-46.9c5.3-7.1 15.3-8.5 22.4-3.2s8.5 15.3 3.2 22.4l-64 85.3c-3 4-7.8 6.4-12.8 6.4s-9.8-2.4-12.8-6.4l-64-85.3c-5.3-7.1-3.9-17.1 3.2-22.4s17.1-3.9 22.4 3.2l35.2 46.9 0-245.3-35.2 46.9c-5.3 7.1-15.3 8.5-22.4 3.2s-8.5-15.3-3.2-22.4l64-85.3c3-4 7.8-6.4 12.8-6.4z"/></svg>