<svg xmlns="http://www.w3.org/2000/svg" viewBox="0 0 512 512"><!--!Font Awesome Pro 6.6.0 by @fontawesome - https://fontawesome.com License - https://fontawesome.com/license (Commercial License) Copyright 2024 Fonticons, Inc.--><path class="fa-secondary" opacity=".4" d="M42.7 256c0 100.6 0 150.9 31.2 182.1s81.5 31.2 182.1 31.2s150.9 0 182.1-31.2s31.2-81.5 31.2-182.1l0-.8c0-100.1-.1-150.2-31.2-181.3C406.9 42.7 356.6 42.7 256 42.7s-150.8 0-182.1 31.2S42.7 155.4 42.7 256zm186.7-42.7a58.7 58.7 0 1 1 -117.3 0 58.7 58.7 0 1 1 117.3 0zm-85.3 0a26.7 26.7 0 1 0 53.3 0 26.7 26.7 0 1 0 -53.3 0zm10.7-106.7c0-8.8 7.2-16 16-16s16 7.2 16 16l0 21.3c0 8.8-7.2 16-16 16s-16-7.2-16-16l0-21.3zm0 192c0-8.8 7.2-16 16-16s16 7.2 16 16l0 106.7c0 8.8-7.2 16-16 16s-16-7.2-16-16l0-106.7zm245.3 0a58.7 58.7 0 1 1 -117.3 0 58.7 58.7 0 1 1 117.3 0zm-85.3 0a26.7 26.7 0 1 0 53.3 0 26.7 26.7 0 1 0 -53.3 0zm10.7-192c0-8.8 7.2-16 16-16s16 7.2 16 16l0 106.7c0 8.8-7.2 16-16 16s-16-7.2-16-16l0-106.7zm0 277.3c0-8.8 7.2-16 16-16s16 7.2 16 16l0 21.3c0 8.8-7.2 16-16 16s-16-7.2-16-16l0-21.3z"/><path class="fa-primary" d="M341.3 229.3c-8.8 0-16-7.2-16-16V106.7c0-8.8 7.2-16 16-16s16 7.2 16 16V213.3c0 8.8-7.2 16-16 16zM154.7 298.7c0-8.8 7.2-16 16-16s16 7.2 16 16l0 106.7c0 8.8-7.2 16-16 16s-16-7.2-16-16l0-106.7zM341.3 421.3c-8.8 0-16-7.2-16-16V384c0-8.8 7.2-16 16-16s16 7.2 16 16v21.3c0 8.8-7.2 16-16 16zM154.7 106.7c0-8.8 7.2-16 16-16s16 7.2 16 16V128c0 8.8-7.2 16-16 16s-16-7.2-16-16V106.7zM341.3 357.3a58.7 58.7 0 1 0 0-117.3 58.7 58.7 0 1 0 0 117.3zm0-85.3a26.7 26.7 0 1 1 0 53.3 26.7 26.7 0 1 1 0-53.3zm-112-58.7a58.7 58.7 0 1 0 -117.3 0 58.7 58.7 0 1 0 117.3 0zm-85.3 0a26.7 26.7 0 1 1 53.3 0 26.7 26.7 0 1 1 -53.3 0z"/></svg>