<svg xmlns="http://www.w3.org/2000/svg" viewBox="0 0 512 512"><!--!Font Awesome Pro 6.6.0 by @fontawesome - https://fontawesome.com License - https://fontawesome.com/license (Commercial License) Copyright 2024 Fonticons, Inc.--><path class="fa-secondary" opacity=".4" d="M26.7 256c0 17.5 2 34.6 5.7 51c2 8.6 10.5 14 19.1 12.1s14-10.5 12.1-19.1c-3.2-14.1-4.9-28.8-4.9-43.9s1.7-29.8 4.9-43.9c2-8.6-3.4-17.2-12.1-19.1s-17.2 3.4-19.1 12.1c-3.7 16.4-5.7 33.5-5.7 51zM61.8 134c-4.7 7.5-2.5 17.4 5 22.1s17.4 2.5 22.1-5c15.8-25.1 37.1-46.3 62.1-62.1c7.5-4.7 9.7-14.6 5-22.1s-14.6-9.7-22.1-5c-29.1 18.3-53.8 43-72.2 72.2zm0 244.1c18.3 29.1 43 53.8 72.2 72.2c2.6 1.7 5.6 2.5 8.5 2.5c5.3 0 10.5-2.6 13.6-7.5c1.7-2.6 2.5-5.6 2.5-8.5c0-5.3-2.6-10.5-7.5-13.6c-25.1-15.8-46.3-37.1-62.1-62.1c-4.7-7.5-14.6-9.7-22.1-5s-9.7 14.6-5 22.1z"/><path class="fa-primary" d="M205 32.4c16.4-3.7 33.5-5.7 51-5.7c126.7 0 229.3 102.7 229.3 229.3s-102.7 229.3-229.3 229.3c-17.5 0-34.6-2-51-5.7c-8.6-2-14-10.5-12.1-19.1s10.5-14 19.1-12.1c14.1 3.2 28.8 4.9 43.9 4.9c109 0 197.3-88.3 197.3-197.3S365 58.7 256 58.7c-15.1 0-29.8 1.7-43.9 4.9c-8.6 2-17.2-3.4-19.1-12.1s3.4-17.2 12.1-19.1zm123.9 201c16.7 9.8 16.7 35.3 0 45.2L228.1 338c-16.2 9.6-36.1-2.9-36.1-22.6l0-118.9c0-19.7 19.9-32.2 36.1-22.6l100.7 59.5z"/></svg>