<svg xmlns="http://www.w3.org/2000/svg" viewBox="0 0 512 512"><!--!Font Awesome Pro 6.6.0 by @fontawesome - https://fontawesome.com License - https://fontawesome.com/license (Commercial License) Copyright 2024 Fonticons, Inc.--><path class="fa-secondary" opacity=".4" d="M199.9 308.9c.3-11.8 12.9-22.7 32-31.5c28.2-13 70.8-21.4 109.5-21.4c65.2 0 128 23.9 128 53.3s-62.8 53.3-128 53.3c-49.6 0-105.6-13.8-129.6-33.4c-7.4-6-11.7-12.6-11.9-19.5c0-.1 0-.3 0-.4s0-.3 0-.4z"/><path class="fa-primary" d="M137.3 53.3c-34.6 0-62.6 28-62.6 62.6c0 8.8-7.2 16-16 16s-16-7.2-16-16c0-52.2 42.4-94.6 94.6-94.6s94.6 42.4 94.6 94.6V277.4c-19.1 8.8-31.7 19.7-32 31.5v-193c0-34.6-28-62.6-62.6-62.6zm62.6 256.4c.2 6.9 4.5 13.5 11.9 19.5c24 19.6 80 33.4 129.6 33.4c65.2 0 128-23.9 128-53.3v25.3c0 74.4-60.3 134.7-134.7 134.7s-134.7-60.3-134.7-134.7V309.3c0 .1 0 .3 0 .4z"/></svg>