<svg xmlns="http://www.w3.org/2000/svg" viewBox="0 0 512 512"><!--!Font Awesome Pro 6.6.0 by @fontawesome - https://fontawesome.com License - https://fontawesome.com/license (Commercial License) Copyright 2024 Fonticons, Inc.--><path class="fa-secondary" opacity=".4" d="M94.3 395.1L395.1 94.3c-83.8-72.2-210.5-68.6-290 10.9S22 311.3 94.3 395.1zm22.6 22.6c39.9 34.4 89.5 51.6 139.1 51.6c54.6 0 109.2-20.8 150.9-62.5c79.5-79.5 83.1-206.1 10.9-290L116.9 417.7z"/><path class="fa-primary" d="M395.1 94.3L94.3 395.1c3.5 4 7.1 7.9 10.9 11.7s7.7 7.4 11.7 10.9L417.7 116.9c-3.5-4-7.1-7.9-10.9-11.7s-7.7-7.4-11.7-10.9z"/></svg>