<svg xmlns="http://www.w3.org/2000/svg" viewBox="0 0 512 512"><!--!Font Awesome Pro 6.6.0 by @fontawesome - https://fontawesome.com License - https://fontawesome.com/license (Commercial License) Copyright 2024 Fonticons, Inc.--><path class="fa-secondary" opacity=".4" d="M42.7 256c0 100.6 0 150.9 31.2 182.1s81.5 31.2 182.1 31.2s150.9 0 182.1-31.2s31.2-81.5 31.2-182.1l0-.8c0-100.1-.1-150.2-31.2-181.3C406.9 42.7 356.6 42.7 256 42.7s-150.8 0-182.1 31.2S42.7 155.4 42.7 256zM112 160c0-4.1 1.6-8.2 4.7-11.3l32-32c3.1-3.1 7.2-4.7 11.3-4.7s8.2 1.6 11.3 4.7c6.2 6.2 6.2 16.4 0 22.6l-4.7 4.7 4 0c35.8 0 67.3 18.6 85.3 46.7c18-28.1 49.5-46.7 85.3-46.7l4 0-4.7-4.7c-6.2-6.2-6.2-16.4 0-22.6c3.1-3.1 7.2-4.7 11.3-4.7s8.2 1.6 11.3 4.7l32 32c3.1 3.1 4.7 7.2 4.7 11.3s-1.6 8.2-4.7 11.3l-32 32c-6.2 6.2-16.4 6.2-22.6 0s-6.2-16.4 0-22.6l4.7-4.7-4 0C303 176 272 207 272 245.3l0 128c0 8.8-7.2 16-16 16s-16-7.2-16-16l0-128c0-38.3-31-69.3-69.3-69.3l-4 0 4.7 4.7c6.2 6.2 6.2 16.4 0 22.6s-16.4 6.2-22.6 0l-32-32c-3.1-3.1-4.7-7.2-4.7-11.3z"/><path class="fa-primary" d="M272 373.3c0 8.8-7.2 16-16 16s-16-7.2-16-16v-128c0-38.3-31-69.3-69.3-69.3h-4l4.7 4.7c6.2 6.2 6.2 16.4 0 22.6s-16.4 6.2-22.6 0l-32-32c-6.2-6.2-6.2-16.4 0-22.6l32-32c6.2-6.2 16.4-6.2 22.6 0s6.2 16.4 0 22.6l-4.7 4.7h4c35.8 0 67.3 18.6 85.3 46.7c18-28.1 49.5-46.7 85.3-46.7h4l-4.7-4.7c-6.2-6.2-6.2-16.4 0-22.6s16.4-6.2 22.6 0l32 32c6.2 6.2 6.2 16.4 0 22.6l-32 32c-6.2 6.2-16.4 6.2-22.6 0s-6.2-16.4 0-22.6l4.7-4.7h-4C303 176 272 207 272 245.3v128z"/></svg>