<svg xmlns="http://www.w3.org/2000/svg" viewBox="0 0 512 512"><!--!Font Awesome Pro 6.6.0 by @fontawesome - https://fontawesome.com License - https://fontawesome.com/license (Commercial License) Copyright 2024 Fonticons, Inc.--><path class="fa-secondary" opacity=".4" d="M176 170.7l0 42.7c0 8.8 7.2 16 16 16s16-7.2 16-16l0-42.7c0-8.8-7.2-16-16-16s-16 7.2-16 16zm64-32l0 106.7c0 8.8 7.2 16 16 16s16-7.2 16-16l0-106.7c0-8.8-7.2-16-16-16s-16 7.2-16 16zm64 32l0 42.7c0 8.8 7.2 16 16 16s16-7.2 16-16l0-42.7c0-8.8-7.2-16-16-16s-16 7.2-16 16z"/><path class="fa-primary" d="M257.1 42.7c45.8 0 81.7 0 109.7 3.8c28.7 3.9 51.3 12 69.1 30s25.8 40.9 29.7 69.9c3.8 28.4 3.8 64.7 3.8 111.1l0 113c0 17.4 0 29.4-3.1 39.9c-6 20.5-20.3 37.5-39.4 46.7c-9.8 4.7-21.4 6.6-38.4 9.3l-2.8 .4c-6 1-11.2 1.8-15.5 2.2c-4.5 .4-9 .6-13.7-.3c-15.3-3.1-27.9-14-33.3-28.8c-1.6-4.5-2.2-9.1-2.5-13.6c-.3-4.4-.3-9.6-.3-15.8l0-89c0-9.1 0-16.9 2.1-23.6c4.8-15.3 17.2-26.9 32.6-30.5c6.7-1.6 14.4-.9 23.4-.2l2 .2 2.3 .2c16.7 1.3 28.2 2.2 37.9 5.9c6.8 2.6 13.2 6.1 18.8 10.4v-25c0-47.8 0-82.1-3.5-108.2c-3.4-25.7-9.9-41.2-21.2-52.6s-26.6-18-52-21.5c-25.8-3.5-59.7-3.5-106.9-3.5s-81.1 0-106.9 3.5c-25.4 3.5-40.7 10-52 21.5s-17.8 26.9-21.2 52.6c-3.5 26.1-3.5 60.4-3.5 108.2v25c5.7-4.3 12-7.8 18.8-10.4c9.7-3.6 21.1-4.5 37.9-5.9l2.3-.2 2-.2c8.9-.7 16.6-1.4 23.4 .2c15.4 3.6 27.8 15.2 32.6 30.5c2.1 6.7 2.1 14.5 2.1 23.6l0 89c0 6.2 0 11.5-.3 15.8c-.3 4.5-.8 9.1-2.5 13.6c-5.4 14.8-18 25.8-33.3 28.8c-4.7 .9-9.2 .8-13.7 .3c-4.3-.4-9.5-1.3-15.5-2.2l-2.8-.4c-17-2.7-28.7-4.6-38.4-9.3c-19.1-9.2-33.4-26.2-39.4-46.7c-3.1-10.5-3.1-22.4-3.1-39.9l0-113c0-46.4 0-82.7 3.8-111.1c3.9-29 11.9-51.9 29.7-69.9s40.4-26.1 69.1-30c28-3.8 63.9-3.8 109.7-3.8h2.3z"/></svg>