<svg xmlns="http://www.w3.org/2000/svg" viewBox="0 0 512 512"><!--!Font Awesome Pro 6.6.0 by @fontawesome - https://fontawesome.com License - https://fontawesome.com/license (Commercial License) Copyright 2024 Fonticons, Inc.--><path class="fa-secondary" opacity=".4" d="M52.9 138.7c-20.1 34.8-8.3 79.1 15.4 167.5S103.9 439 138.7 459.1c12.3 7.1 25.9 10.2 42.1 10.2c29.6 0 68.3-10.4 125.4-25.7C394.7 420 439 408.1 459.1 373.3c7.1-12.3 10.2-25.9 10.2-42.1c0-29.6-10.4-68.3-25.7-125.4C420 117.3 408.1 73 373.3 52.9s-79.1-8.3-167.5 15.4S73 103.9 52.9 138.7zm110.8 96.5c0-12.2 5.3-22.2 13.9-24.5c11.4-3 24.3 8.3 28.9 25.4s-.9 33.4-12.3 36.4s-24.3-8.3-28.9-25.4c-1.1-4.1-1.6-8.1-1.6-11.9zM174.6 336c2.1-8.6 10.8-13.8 19.4-11.6c24.1 6 51.8 6.1 79.9-1.4s52.1-21.4 69.9-38.7c6.3-6.1 16.5-6 22.6 .4s6 16.5-.4 22.6c-7.4 7.2-15.6 13.8-24.5 19.8l3.4 6.9c7.9 16 1.1 35.4-15 43c-4.4 2.1-9.1 3.1-13.7 3.1c-11.8 0-23.2-6.6-28.7-17.9l-4.2-8.5-1.1 .3c-33.2 8.9-66.4 9-96 1.5c-8.6-2.1-13.8-10.8-11.6-19.4zm114.3-122c-4.6-17.1 .9-33.4 12.3-36.4c1.2-.3 2.5-.5 3.8-.5c10.3 0 21 10.7 25.1 25.9c4.6 17.1-.9 33.4-12.3 36.4s-24.3-8.3-28.9-25.4z"/><path class="fa-primary" d="M317.8 239.4c11.4-3 16.9-19.4 12.3-36.4s-17.5-28.4-28.9-25.4s-16.9 19.4-12.3 36.4s17.5 28.4 28.9 25.4zM194.2 272.6c11.4-3.1 16.9-19.4 12.3-36.4s-17.5-28.4-28.9-25.4s-16.9 19.4-12.3 36.4s17.5 28.4 28.9 25.4zM174.6 336c2.1-8.6 10.8-13.8 19.4-11.6c24.1 6 51.8 6.1 79.9-1.4s52.1-21.4 69.9-38.7c6.3-6.1 16.5-6 22.6 .4s6 16.5-.4 22.6c-7.4 7.2-15.6 13.8-24.5 19.8l3.4 6.9c7.9 16 1.1 35.4-15 43c-15.8 7.5-34.7 .9-42.4-14.8l-4.2-8.5-1.1 .3c-33.2 8.9-66.4 9-96 1.5c-8.6-2.1-13.8-10.8-11.6-19.4z"/></svg>