<svg xmlns="http://www.w3.org/2000/svg" viewBox="0 0 512 512"><!--!Font Awesome Pro 6.6.0 by @fontawesome - https://fontawesome.com License - https://fontawesome.com/license (Commercial License) Copyright 2024 Fonticons, Inc.--><path class="fa-secondary" opacity=".4" d="M86.7 346.1c9 2.2 19.8 3.3 32.8 3.8s28.3 .5 46.5 .5c34.3 0 68.5 0 102.8 0c.1 0 .2 0 .4 0c57.9 0 86.9 0 104.9-17.9c18.1-17.9 18.1-46.6 18.1-104.1c0-.1 0-.2 0-.3c0-35.3 0-59.8-4.3-77.5c3 .3 5.9 .6 8.7 .9c17.6 2.3 32.5 7.2 44.6 18.2c1.9 1.5 3.7 3.1 5.5 4.8c12.4 12.2 17.7 27.6 20.2 45.9c2.4 17.6 2.4 40 2.4 67.8l0 2.2c0 27.8 0 50.2-2.4 67.8c-2.5 18.3-7.8 33.7-20.2 45.9s-28 17.5-46.5 19.9c-17.8 2.4-40.5 2.4-68.6 2.4l-105.2 0c-28 0-50.7 0-68.4-2.4c-17.6-2.3-32.5-7.2-44.6-18.2c-1.9-1.5-3.7-3.1-5.5-4.8c-12.4-12.2-17.7-27.6-20.2-45.9c-.4-2.9-.7-6-1-9.3z"/><path class="fa-primary" d="M181.5 228.6c0-19.6 16.1-35.6 36-35.6s36 15.9 36 35.6s-16.1 35.6-36 35.6s-36-15.9-36-35.6zm-138.8 0c0-57.5 0-86.2 18.1-104.1s47.1-17.9 105.3-17.9l102.8 0c58.2 0 87.2 0 105.3 17.9s18.1 46.6 18.1 104.1s0 86.2-18.1 104.1s-47.1 17.9-105.3 17.9l-102.8 0c-58.2 0-87.2 0-105.3-17.9S42.7 286 42.7 228.6zm107.9 0c0 36.5 29.9 66 66.8 66s66.8-29.6 66.8-66s-29.9-66-66.8-66s-66.8 29.6-66.8 66zM88.9 269.2c0 8.4 6.9 15.2 15.4 15.2s15.4-6.8 15.4-15.2l0-81.3c0-8.4-6.9-15.2-15.4-15.2s-15.4 6.8-15.4 15.2l0 81.3zm241.6 15.2c8.5 0 15.4-6.8 15.4-15.2l0-81.3c0-8.4-6.9-15.2-15.4-15.2s-15.4 6.8-15.4 15.2l0 81.3c0 8.4 6.9 15.2 15.4 15.2z"/></svg>