<svg xmlns="http://www.w3.org/2000/svg" viewBox="0 0 512 512"><!--!Font Awesome Pro 6.6.0 by @fontawesome - https://fontawesome.com License - https://fontawesome.com/license (Commercial License) Copyright 2024 Fonticons, Inc.--><path class="fa-secondary" opacity=".4" d="M48 128c0-8.8 7.2-16 16-16l384 0c8.8 0 16 7.2 16 16s-7.2 16-16 16L64 144c-8.8 0-16-7.2-16-16zm0 85.3c0-8.8 7.2-16 16-16l384 0c8.8 0 16 7.2 16 16s-7.2 16-16 16l-384 0c-8.8 0-16-7.2-16-16zm0 85.3c0-8.8 7.2-16 16-16l170.7 0c8.8 0 16 7.2 16 16s-7.2 16-16 16L64 314.7c-8.8 0-16-7.2-16-16zM48 384c0-8.8 7.2-16 16-16l170.7 0c8.8 0 16 7.2 16 16s-7.2 16-16 16L64 400c-8.8 0-16-7.2-16-16z"/><path class="fa-primary" d="M362 287.4c6.2-6.2 16.4-6.2 22.6 0L438 340.7c6.2 6.2 6.2 16.4 0 22.6s-16.4 6.2-22.6 0l-26-26v89.4c0 8.8-7.2 16-16 16s-16-7.2-16-16V337.3l-26 26c-6.2 6.2-16.4 6.2-22.6 0s-6.2-16.4 0-22.6L362 287.4z"/></svg>