<svg xmlns="http://www.w3.org/2000/svg" viewBox="0 0 512 512"><!--!Font Awesome Pro 6.6.0 by @fontawesome - https://fontawesome.com License - https://fontawesome.com/license (Commercial License) Copyright 2024 Fonticons, Inc.--><path class="fa-secondary" opacity=".4" d="M48 272c0 114.9 93.1 208 208 208s208-93.1 208-208c0-86.2-52.4-160.1-127.1-191.7c-8.1-3.4-17.5 .4-21 8.5s.4 17.5 8.5 21C387.7 136.5 432 199.1 432 272c0 97.2-78.8 176-176 176s-176-78.8-176-176c0-72.9 44.3-135.5 107.6-162.2c8.1-3.4 12-12.8 8.5-21s-12.8-12-21-8.5C100.4 111.9 48 185.8 48 272z"/><path class="fa-primary" d="M272 58.7c0-8.8-7.2-16-16-16s-16 7.2-16 16V144c0 8.8 7.2 16 16 16s16-7.2 16-16V58.7z"/></svg>