<svg xmlns="http://www.w3.org/2000/svg" viewBox="0 0 512 512"><!--!Font Awesome Pro 6.6.0 by @fontawesome - https://fontawesome.com License - https://fontawesome.com/license (Commercial License) Copyright 2024 Fonticons, Inc.--><path class="fa-secondary" opacity=".4" d="M261.3 42.7l0 267.4c19.7 18.5 32 44.8 32 73.9l0-250.8c-20-24.7-32-56.2-32-90.5z"/><path class="fa-primary" d="M192 282.7a101.3 101.3 0 1 0 0 202.7 101.3 101.3 0 1 0 0-202.7zm85.3-256c8.8 0 16 7.2 16 16c0 61.9 50.1 112 112 112c8.8 0 16 7.2 16 16s-7.2 16-16 16c-79.5 0-144-64.5-144-144c0-8.8 7.2-16 16-16z"/></svg>