<svg xmlns="http://www.w3.org/2000/svg" viewBox="0 0 512 512"><!--!Font Awesome Pro 6.6.0 by @fontawesome - https://fontawesome.com License - https://fontawesome.com/license (Commercial License) Copyright 2024 Fonticons, Inc.--><path class="fa-secondary" opacity=".4" d="M42.7 256c0-100.6 0-150.8 31.2-182.1S155.4 42.7 256 42.7s150.9 0 182.1 31.2c31.2 31.2 31.2 81.3 31.2 181.3l0 .8c0 100.6 0 150.9-31.2 182.1s-81.5 31.2-182.1 31.2s-150.8 0-182.1-31.2S42.7 356.6 42.7 256zm80-53.3c0 4.5 1.9 8.7 5.1 11.8l48 44.3c6.5 6 16.6 5.6 22.6-.9s5.6-16.6-.9-22.6l-17.9-16.6 119.9 0c31.9 0 57.8 25.9 57.8 57.8s-25.9 57.8-57.8 57.8l-96.8 0c-8.8 0-16 7.2-16 16s7.2 16 16 16l96.8 0c49.6 0 89.8-40.2 89.8-89.8s-40.2-89.8-89.8-89.8l-119.9 0 17.9-16.6c6.5-6 6.9-16.1 .9-22.6c-3.2-3.4-7.5-5.1-11.8-5.1c-3.9 0-7.8 1.4-10.8 4.2l-48 44.3c-3.3 3-5.1 7.3-5.1 11.8z"/><path class="fa-primary" d="M198.4 147.5c6 6.5 5.6 16.6-.9 22.6l-17.9 16.6 119.9 0c49.6 0 89.8 40.2 89.8 89.8s-40.2 89.8-89.8 89.8l-96.8 0c-8.8 0-16-7.2-16-16s7.2-16 16-16l96.8 0c31.9 0 57.8-25.9 57.8-57.8s-25.9-57.8-57.8-57.8l-119.9 0 17.9 16.6c6.5 6 6.9 16.1 .9 22.6s-16.1 6.9-22.6 .9l-48-44.3c-3.3-3-5.1-7.3-5.1-11.8s1.9-8.7 5.1-11.8l48-44.3c6.5-6 16.6-5.6 22.6 .9z"/></svg>