<svg xmlns="http://www.w3.org/2000/svg" viewBox="0 0 512 512"><!--!Font Awesome Pro 6.6.0 by @fontawesome - https://fontawesome.com License - https://fontawesome.com/license (Commercial License) Copyright 2024 Fonticons, Inc.--><path class="fa-secondary" opacity=".4" d="M170.7 159.5l0 114.9s0-31.3 85.3-31.3c85.1 0 85.3 31.1 85.3 31.3l0-116.9c-24.3-5-52.6-8.1-85.3-8.1s-61.1 3.9-85.3 10.2z"/><path class="fa-primary" d="M170.7 274.4l0 13.2c0 18.2-12.3 34.2-30.3 39.5L97.7 339.5c-27.4 8-55-11.8-55-39.5l0-41c0-10.4 2.7-20.7 9.4-28.9c15.6-18.9 52-53.5 118.6-70.6l0 114.9zm170.7 0l0-116.9c61.4 12.7 97.1 37.2 114.6 52.8c9.5 8.5 13.4 20.8 13.4 33.3l0 45.3c0 25.3-23.2 44.6-49.1 40.8l-42.7-6.3c-20.9-3.1-36.3-20.4-36.3-40.8l0-8.3z"/></svg>