<svg xmlns="http://www.w3.org/2000/svg" viewBox="0 0 512 512"><!--!Font Awesome Pro 6.6.0 by @fontawesome - https://fontawesome.com License - https://fontawesome.com/license (Commercial License) Copyright 2024 Fonticons, Inc.--><path class="fa-secondary" opacity=".4" d="M85.5 192l0 21.3c.7 0 1.5 0 2.2 .1c.7 0 1.5 .1 2.2 .2c1.4 .2 2.8 .4 4.2 .7c2.8 .6 5.4 1.4 8 2.5c5.1 2.2 9.7 5.3 13.5 9.2c7.7 7.7 12.4 18.4 12.4 30.1l0 25.6c0 9.4 7.6 17.1 17.1 17.1l94.9 0 0-192-48 0c-19.9 0-29.8 0-38 1.6c-33.9 6.7-60.3 33.2-67 67c-.9 4.6-1.3 9.7-1.5 16.6zM272 106.7l0 192 94.9 0c9.4 0 17.1-7.6 17.1-17.1l0-25.6c0-23.6 19.1-42.7 42.7-42.7l0-21.3c-.3-7-.7-12.1-1.6-16.6c-6.7-33.9-33.2-60.3-67-67c-8.2-1.6-18.2-1.6-38-1.6l-48 0z"/><path class="fa-primary" d="M272 298.7h94.9c9.4 0 17.1-7.6 17.1-17.1V256c0-23.6 19.1-42.7 42.7-42.7s42.7 19.1 42.7 42.7v52.1c0 23.1-10.3 43.8-26.7 57.7v39.4c0 8.8-7.2 16-16 16s-16-7.2-16-16V382c-5.5 1.3-11.3 2-17.2 2h-275c-5.9 0-11.7-.7-17.2-2v23.3c0 8.8-7.2 16-16 16s-16-7.2-16-16V365.9C53 352 42.7 331.3 42.7 308.1V256c0-23.6 19.1-42.7 42.7-42.7s42.7 19.1 42.7 42.7v25.6c0 9.4 7.6 17.1 17.1 17.1H240v-192h32v192z"/></svg>