<svg xmlns="http://www.w3.org/2000/svg" viewBox="0 0 512 512"><!--!Font Awesome Pro 6.6.0 by @fontawesome - https://fontawesome.com License - https://fontawesome.com/license (Commercial License) Copyright 2024 Fonticons, Inc.--><path class="fa-secondary" opacity=".4" d="M64 298.7a192 192 0 1 0 384 0 192 192 0 1 0 -384 0zm138.7 0c0-8 .3-17 .9-26.1c1.9-32.2 2.8-48.4 13.1-56.1s21.7-.7 44.6 13.2c5.9 3.6 11.7 7.3 16.7 10.8c5.8 4.1 12 8.9 18.4 14.1c22.9 18.7 34.4 28.1 34.4 44.1s-11.5 25.4-34.4 44.1c-6.3 5.2-12.6 10-18.4 14.1c-5.1 3.6-10.8 7.2-16.7 10.8c-22.9 13.9-34.3 20.9-44.6 13.2s-11.2-23.8-13.1-56.1c-.5-9.1-.9-18.1-.9-26.1z"/><path class="fa-primary" d="M197.3 58.7c0-8.8 7.2-16 16-16l85.3 0c8.8 0 16 7.2 16 16s-7.2 16-16 16l-85.3 0c-8.8 0-16-7.2-16-16zm80.6 181.9c-5.1-3.6-10.8-7.2-16.7-10.8l0 0c-22.9-13.9-34.3-20.9-44.6-13.2s-11.2 23.8-13.1 56.1c-.5 9.1-.9 18.1-.9 26.1s.3 17 .9 26.1c1.9 32.2 2.8 48.4 13.1 56.1s21.7 .7 44.6-13.2c5.9-3.6 11.7-7.3 16.7-10.8c5.8-4.1 12-8.9 18.4-14.1c22.9-18.7 34.4-28.1 34.4-44.1s-11.5-25.4-34.4-44.1c-6.3-5.2-12.6-10-18.4-14.1z"/></svg>