<svg xmlns="http://www.w3.org/2000/svg" viewBox="0 0 512 512"><!--!Font Awesome Pro 6.6.0 by @fontawesome - https://fontawesome.com License - https://fontawesome.com/license (Commercial License) Copyright 2024 Fonticons, Inc.--><path class="fa-secondary" opacity=".4" d="M145 127.8l0 37 76-41.4c9.5-5.2 20.1-7.8 30.6-7.8s21.1 2.6 30.6 7.8l76 41.5 0-36.8c0-40.2 0-60.3-12.5-72.8c-12.5-12.5-32.5-12.5-72.6-12.5l-.3 0-42.7 0c-40.2 0-60.3 0-72.8 12.5C145 67.6 145 87.7 145 127.8z"/><path class="fa-primary" d="M282.2 123.4c-19.1-10.4-42.2-10.4-61.3 0L118.7 179.1c-20.6 11.2-33.4 32.8-33.4 56.2l0 105.3c0 23.4 12.8 45 33.4 56.2L221 452.6c19.1 10.4 42.2 10.4 61.3 0l102.3-55.8c20.6-11.2 33.4-32.8 33.4-56.2l0-105.3c0-23.4-12.8-45-33.4-56.2L282.2 123.4zM251.6 224c6.1 0 10.1 7.3 18.2 21.8l2.1 3.8c2.3 4.1 3.5 6.2 5.3 7.6s4 1.9 8.5 2.9l4.1 .9c15.7 3.6 23.6 5.3 25.5 11.4s-3.5 12.3-14.2 24.8l-2.8 3.2c-3 3.6-4.6 5.3-5.3 7.6s-.5 4.6 0 9.3l.4 4.3c1.6 16.7 2.4 25.1-2.5 28.8s-12.3 .3-27-6.5l-3.8-1.8c-4.2-1.9-6.3-2.9-8.5-2.9s-4.3 1-8.5 2.9l-3.8 1.8c-14.7 6.8-22.1 10.2-27 6.5s-4.1-12.1-2.5-28.8l.4-4.3c.5-4.8 .7-7.1 0-9.3s-2.2-4-5.3-7.6l-2.8-3.2c-10.7-12.6-16.1-18.8-14.2-24.8s9.7-7.8 25.5-11.4l4.1-.9c4.5-1 6.7-1.5 8.5-2.9s2.9-3.4 5.3-7.6l2.1-3.8c8.1-14.5 12.2-21.8 18.2-21.8z"/></svg>