<svg xmlns="http://www.w3.org/2000/svg" viewBox="0 0 512 512"><!--!Font Awesome Pro 6.6.0 by @fontawesome - https://fontawesome.com License - https://fontawesome.com/license (Commercial License) Copyright 2024 Fonticons, Inc.--><path class="fa-secondary" opacity=".4" d="M42.7 256c0-100.6 0-150.8 31.2-182.1S155.4 42.7 256 42.7s150.9 0 182.1 31.2c31.2 31.2 31.2 81.3 31.2 181.3l0 .8c0 100.6 0 150.9-31.2 182.1s-81.5 31.2-182.1 31.2s-150.8 0-182.1-31.2S42.7 356.6 42.7 256zm90.7-2.5c0 32 11.9 64 35.8 88.4c47.9 49.1 125.8 49.1 173.7 0c27.8-28.5 39.4-67.1 34.8-104c-1.1-8.8-9.1-15-17.8-13.9s-15 9.1-13.9 17.8c3.4 27.7-5.3 56.6-26 77.7c-35.4 36.2-92.6 36.2-128 0c-35.6-36.4-35.6-95.6 0-132.1c24.4-25 59.3-32.7 90.1-23.2l-16.2 16.6c-4.5 4.6-5.8 11.5-3.3 17.4s8.3 9.8 14.7 9.8l56.6 0c8.8 0 16-7.2 16-16l0-57.9c0-6.5-3.9-12.4-10-14.8c-2-.8-4-1.2-6-1.2c-4.2 0-8.4 1.7-11.4 4.8l-16 16.4c-45.2-20.8-100.2-12.2-137.3 25.8c-23.9 24.4-35.8 56.4-35.8 88.4z"/><path class="fa-primary" d="M349.9 134.1c0-6.5-3.9-12.4-10-14.8s-12.9-1-17.5 3.6l-16 16.4c-45.2-20.8-100.2-12.2-137.3 25.8c-47.7 48.9-47.7 127.9 0 176.8c47.9 49.1 125.8 49.1 173.7 0c27.8-28.5 39.4-67.1 34.8-104c-1.1-8.8-9.1-15-17.8-13.9s-15 9.1-13.9 17.8c3.4 27.7-5.3 56.6-26 77.7c-35.4 36.2-92.6 36.2-128 0c-35.6-36.4-35.6-95.6 0-132.1c24.4-25 59.3-32.7 90.1-23.2l-16.2 16.6c-4.5 4.6-5.8 11.5-3.3 17.4s8.3 9.8 14.7 9.8h56.6c8.8 0 16-7.2 16-16V134.1z"/></svg>