<svg xmlns="http://www.w3.org/2000/svg" viewBox="0 0 512 512"><!--!Font Awesome Pro 6.6.0 by @fontawesome - https://fontawesome.com License - https://fontawesome.com/license (Commercial License) Copyright 2024 Fonticons, Inc.--><path class="fa-secondary" opacity=".4" d="M108.1 434.2c.8 2.5 1.7 5 2.8 7.4c12.8 27.7 56.7 27.7 144.5 27.7l.6 0c88.2 0 132.3 0 145.1-27.7c1.1-2.4 2-4.9 2.8-7.4c1-3.3 1.4-6.6 1.4-10c0-27.6-30.8-61.4-86.2-122.5L277.3 256l-42.7 0-41.8 45.7c-62.3 68.6-93.5 102.9-84.8 132.5z"/><path class="fa-primary" d="M256 42.7c-88.2 0-132.3 0-145.1 27.7c-1.1 2.4-2 4.9-2.8 7.4c-8.7 29.6 22.4 63.9 84.8 132.5L234.7 256l42.7 0 41.8-45.7c62.3-68.6 93.5-102.9 84.8-132.5c-.7-2.5-1.7-5-2.8-7.4C388.3 42.7 344.2 42.7 256 42.7z"/></svg>