<svg xmlns="http://www.w3.org/2000/svg" viewBox="0 0 512 512"><!--!Font Awesome Pro 6.6.0 by @fontawesome - https://fontawesome.com License - https://fontawesome.com/license (Commercial License) Copyright 2024 Fonticons, Inc.--><path class="fa-secondary" opacity=".4" d="M64 213l0 .3 0 128c0 60.3 0 90.5 18.7 109.3c18.7 18.7 48.8 18.7 108.9 18.7l.4 0 128 0c60.3 0 90.5 0 109.3-18.7S448 401.6 448 341.3l0-128c0-60.3 0-90.5-18.7-109.3c-16.4-16.4-41.5-18.4-87.9-18.7l0 10.7c0 17.7-14.3 32-32 32l-106.7 0c-17.7 0-32-14.3-32-32l0-10.7c-46.4 .3-71.5 2.3-87.9 18.7C64 122.8 64 152.9 64 213zm127.4 10.4c6.2-6.2 16.4-6.2 22.6 0l42 42 42-42c6.2-6.2 16.4-6.2 22.6 0s6.2 16.4 0 22.6l-42 42 42 42c6.2 6.2 6.2 16.4 0 22.6c-3.1 3.1-7.2 4.7-11.3 4.7s-8.2-1.6-11.3-4.7l-42-42-42 42c-3.1 3.1-7.2 4.7-11.3 4.7s-8.2-1.6-11.3-4.7c-6.2-6.2-6.2-16.4 0-22.6l42-42-42-42c-6.2-6.2-6.2-16.4 0-22.6z"/><path class="fa-primary" d="M170.7 74.7c0-17.7 14.3-32 32-32H309.3c17.7 0 32 14.3 32 32V96c0 17.7-14.3 32-32 32H202.7c-17.7 0-32-14.3-32-32V74.7zm20.7 148.7c6.2-6.2 16.4-6.2 22.6 0l42 42 42-42c6.2-6.2 16.4-6.2 22.6 0s6.2 16.4 0 22.6l-42 42 42 42c6.2 6.2 6.2 16.4 0 22.6s-16.4 6.2-22.6 0l-42-42-42 42c-6.2 6.2-16.4 6.2-22.6 0s-6.2-16.4 0-22.6l42-42-42-42c-6.2-6.2-6.2-16.4 0-22.6z"/></svg>