<svg xmlns="http://www.w3.org/2000/svg" viewBox="0 0 512 512"><!--!Font Awesome Pro 6.6.0 by @fontawesome - https://fontawesome.com License - https://fontawesome.com/license (Commercial License) Copyright 2024 Fonticons, Inc.--><path class="fa-secondary" opacity=".4" d="M389.3 405.3c0 4.1 1.6 8.2 4.7 11.3l42.7 42.7c3.1 3.1 7.2 4.7 11.3 4.7s8.2-1.6 11.3-4.7s4.7-7.2 4.7-11.3s-1.6-8.2-4.7-11.3L416.6 394c-3.1-3.1-7.2-4.7-11.3-4.7s-8.2 1.6-11.3 4.7s-4.7 7.2-4.7 11.3z"/><path class="fa-primary" d="M356.6 45.4c-17.8-9.2-41 5.6-87.4 35.2l-12 7.7c-13.2 8.4-19.8 12.6-27.2 13.8s-14.8-.7-29.5-4.6L187.2 94c-51.8-13.6-77.7-20.4-92.5-5.9s-8.8 40.7 3.4 93.1l3.1 13.5c3.4 14.9 5.2 22.3 3.8 29.7s-5.8 13.9-14.5 26.9l-7.9 11.8c-30.7 45.8-46.1 68.6-37.4 86.8s35.6 19.5 89.4 22.3l13.9 .7c15.3 .8 23 1.2 29.5 4.5s11.2 9.3 20.5 21.2l8.5 10.8c32.8 41.8 49.3 62.8 69.4 59.5s30.8-28.6 51.9-79.3l5.5-13.1c6-14.4 9-21.6 14.5-26.9s12.7-8.1 27.2-13.8l13.2-5.1c51-19.9 76.5-29.8 80.3-50s-16.6-37.2-57.3-71.3L401 200.6c-11.6-9.7-17.4-14.5-20.6-21.2s-3.4-14.3-3.7-29.7l-.3-14c-1.3-54.1-2-81.2-19.8-90.4z"/></svg>