<svg xmlns="http://www.w3.org/2000/svg" viewBox="0 0 512 512"><!--!Font Awesome Pro 6.6.0 by @fontawesome - https://fontawesome.com License - https://fontawesome.com/license (Commercial License) Copyright 2024 Fonticons, Inc.--><path class="fa-secondary" opacity=".4" d="M64 125.5c0 15.7 6 31.5 18 43.5l33.9 33.9c.3-.3 11.6 10.5 12.1 10.5c28.5-28.5 56.9-56.9 85.3-85.3c.1-.5-10.7-11.9-10.5-12.1L169 82c-24-24-63-24-87 0c-12 12-18 27.8-18 43.5zM91.9 344.3c-8.7 3.4-8.7 15.8 0 19.3l8.5 3.4c2.7 1.1 4.8 3.2 5.8 5.8l3.3 8.5c1.7 4.4 5.7 6.6 9.6 6.6s7.9-2.2 9.6-6.6l3.3-8.5c1-2.7 3.2-4.8 5.8-5.8l8.5-3.4c8.7-3.4 8.7-15.8 0-19.3l-8.5-3.4c-2.7-1.1-4.8-3.2-5.8-5.8l-3.3-8.5c-3.4-8.7-15.8-8.7-19.2 0l-3.3 8.5c-1 2.7-3.2 4.8-5.8 5.8l-8.5 3.4zM305.2 87.6c-8.7 3.4-8.7 15.8 0 19.3l23.3 9.2c2.7 1.1 4.8 3.2 5.8 5.8l9.2 23.4c3.4 8.7 15.8 8.7 19.2 0l9.2-23.4c1-2.7 3.2-4.8 5.8-5.8l23.3-9.2c8.7-3.4 8.7-15.8 0-19.3l-23.3-9.2c-2.7-1.1-4.8-3.2-5.8-5.8l-9.2-23.4c-3.4-8.7-15.8-8.7-19.2 0l-9.2 23.4c-1 2.7-3.2 4.8-5.8 5.8l-23.3 9.2zM408.3 212.5c-8.7 3.4-8.7 15.8 0 19.3l8.5 3.4c2.7 1.1 4.8 3.2 5.8 5.8l3.3 8.5c3.4 8.7 15.8 8.7 19.2 0l3.3-8.5c1-2.7 3.2-4.8 5.8-5.8l8.5-3.4c8.7-3.4 8.7-15.8 0-19.3l-8.5-3.4c-2.7-1.1-4.8-3.2-5.8-5.8l-3.3-8.5c-3.4-8.7-15.8-8.7-19.2 0l-3.3 8.5c-1 2.7-3.2 4.8-5.8 5.8l-8.5 3.4z"/><path class="fa-primary" d="M225.4 138.5c-.3 .3-11.8-10.7-12.1-10.5L128 213.3c-.3 .3 10.7 11.9 10.5 12.1L343 430c24 24 63 24 87 0s24-63 0-87L225.4 138.5z"/></svg>