<svg xmlns="http://www.w3.org/2000/svg" viewBox="0 0 512 512"><!--!Font Awesome Pro 6.6.0 by @fontawesome - https://fontawesome.com License - https://fontawesome.com/license (Commercial License) Copyright 2024 Fonticons, Inc.--><path class="fa-secondary" opacity=".4" d="M42.7 240c0 5.2 0 10.5 0 16c0-100.6 0-150.8 31.2-182.1C103.4 44.4 150 42.8 240 42.7l0 104.8c-9.4-7.5-20.4-13.1-32.6-16.1c-45.9-11.5-87.5 30.1-76.1 76.1c3.1 12.2 8.6 23.2 16.1 32.6L42.7 240zm0 32l170.4 0c.3 0 .7 0 1 0l2.7 0c-7.2 30.6-34.7 53.3-67.5 53.3c-8.8 0-16 7.2-16 16s7.2 16 16 16c39.7 0 74-22.8 90.7-56l0 168c-90-.1-136.6-1.7-166.1-31.2S42.8 362 42.7 272zm119.7-72.3c-5.6-22.5 14.8-42.9 37.2-37.2c23.4 5.9 40 26.8 40.3 50.9l0 26.7-26.7 0c-24.1-.4-45-16.9-50.9-40.3zM272 42.7c90 .1 136.6 1.7 166.1 31.2s31.1 76.1 31.2 166.1l-104.8 0c7.5-9.4 13.1-20.4 16.1-32.6c11.5-45.9-30.1-87.5-76.1-76.1c-12.2 3.1-23.2 8.6-32.6 16.1l0-104.8zm0 170.8c.3-24.2 16.8-45.2 40.3-51c22.5-5.6 42.9 14.8 37.2 37.2c-5.9 23.4-26.8 40-50.9 40.3L272 240l0-25.9 0-.6zm0 87.9c16.6 33.2 51 56 90.7 56c8.8 0 16-7.2 16-16s-7.2-16-16-16c-32.8 0-60.3-22.8-67.5-53.3l2.7 0c.3 0 .7 0 1 0l170.4 0c-.1 90-1.7 136.6-31.2 166.1S362 469.2 272 469.3l0-168z"/><path class="fa-primary" d="M147.5 240L42.7 240c0 5.2 0 10.5 0 16s0 10.8 0 16l170.4 0c.3 0 .7 0 1 0l2.7 0c-7.2 30.6-34.7 53.3-67.5 53.3c-8.8 0-16 7.2-16 16s7.2 16 16 16c39.7 0 74-22.8 90.7-56l0 168c5.2 0 10.5 0 16 0s10.8 0 16 0l0-168c16.6 33.2 51 56 90.7 56c8.8 0 16-7.2 16-16s-7.2-16-16-16c-32.8 0-60.3-22.8-67.5-53.3l2.7 0c.3 0 .7 0 1 0l170.4 0c0-5.2 0-10.5 0-16s0-10.8 0-16l-104.8 0c7.5-9.4 13.1-20.4 16.1-32.6c11.5-45.9-30.1-87.5-76.1-76.1c-12.2 3.1-23.2 8.6-32.6 16.1l0-104.8c-5.2 0-10.5 0-16 0s-10.8 0-16 0l0 104.8c-9.4-7.5-20.4-13.1-32.6-16.1c-45.9-11.5-87.5 30.1-76.1 76.1c3.1 12.2 8.6 23.2 16.1 32.6zm92.5 0l-26.7 0c-24.1-.4-45-16.9-50.9-40.3c-5.6-22.5 14.8-42.9 37.2-37.2c23.4 5.9 40 26.8 40.3 50.9l0 26.7zm58.7 0L272 240l0-25.9 0-.6c.3-24.2 16.8-45.2 40.3-51c22.5-5.6 42.9 14.8 37.2 37.2c-5.9 23.4-26.8 40-50.9 40.3z"/></svg>