<svg xmlns="http://www.w3.org/2000/svg" viewBox="0 0 512 512"><!--!Font Awesome Pro 6.6.0 by @fontawesome - https://fontawesome.com License - https://fontawesome.com/license (Commercial License) Copyright 2024 Fonticons, Inc.--><path class="fa-secondary" opacity=".4" d="M49.8 168c-11.5 24-7.5 52.2 .6 108.4l5.9 41.3C66.8 390 72 426.2 97 447.7s61.8 21.6 135.4 21.6l47.2 0 .5 0c73.2 0 109.9 0 134.9-21.6c25.1-21.6 30.3-57.7 40.7-130l5.9-41.3c4.5-31.4 7.8-54 7.8-72c0-14.3-2.1-25.8-7.2-36.4c-11.5-24.1-36.1-38.7-85.2-67.9L347.5 82.5C302.9 55.9 280.6 42.7 256 42.7s-46.9 13.3-91.5 39.8L135 100.1C85.9 129.3 61.4 143.9 49.8 168zM176 277.3c0-8.8 7.2-16 16-16l48 0 0-48c0-8.8 7.2-16 16-16s16 7.2 16 16l0 48 48 0c8.8 0 16 7.2 16 16s-7.2 16-16 16l-48 0 0 48c0 8.8-7.2 16-16 16s-16-7.2-16-16l0-48-48 0c-8.8 0-16-7.2-16-16z"/><path class="fa-primary" d="M256 197.3c8.8 0 16 7.2 16 16v48l48 0c8.8 0 16 7.2 16 16s-7.2 16-16 16l-48 0v48c0 8.8-7.2 16-16 16s-16-7.2-16-16v-48H192c-8.8 0-16-7.2-16-16s7.2-16 16-16h48v-48c0-8.8 7.2-16 16-16z"/></svg>