<svg xmlns="http://www.w3.org/2000/svg" viewBox="0 0 512 512"><!--!Font Awesome Pro 6.6.0 by @fontawesome - https://fontawesome.com License - https://fontawesome.com/license (Commercial License) Copyright 2024 Fonticons, Inc.--><path class="fa-secondary" opacity=".4" d="M304 230.7c0-8.8 7.2-16 16-16c34.5 0 63.9 27.1 62.6 63.2c-.3 8.8-7.7 15.7-16.6 15.4s-15.7-7.7-15.4-16.6c.6-16.4-12.7-30-30.6-30c-8.8 0-16-7.2-16-16z"/><path class="fa-primary" d="M304 230.7c0-8.8 7.2-16 16-16c34.5 0 63.9 27.1 62.6 63.2c-.3 8.8-7.7 15.7-16.6 15.4s-15.7-7.7-15.4-16.6c.6-16.4-12.7-30-30.6-30c-8.8 0-16-7.2-16-16zM85.3 453.3H42.7c-8.8 0-16 7.2-16 16s7.2 16 16 16H469.3c8.8 0 16-7.2 16-16s-7.2-16-16-16H426.7 85.3zM272 401.1c9.6-5.5 16-15.9 16-27.7c0-17.7-14.3-32-32-32s-32 14.3-32 32c0 11.8 6.4 22.2 16 27.7v52.3h32V401.1zM256 26.7c8.8 0 16 7.2 16 16v64c0 8.8-7.2 16-16 16s-16-7.2-16-16v-64c0-8.8 7.2-16 16-16zM459.3 118l-32 32c-6.2 6.2-16.4 6.2-22.6 0s-6.2-16.4 0-22.6l32-32c6.2-6.2 16.4-6.2 22.6 0s6.2 16.4 0 22.6zM75.3 95.4c-6.2-6.2-16.4-6.2-22.6 0s-6.2 16.4 0 22.6l32 32c6.2 6.2 16.4 6.2 22.6 0s6.2-16.4 0-22.6l-32-32z"/></svg>