<svg xmlns="http://www.w3.org/2000/svg" viewBox="0 0 512 512"><!--!Font Awesome Pro 6.6.0 by @fontawesome - https://fontawesome.com License - https://fontawesome.com/license (Commercial License) Copyright 2024 Fonticons, Inc.--><path class="fa-secondary" opacity=".4" d="M64 222.2c0-68.2 0-102.3 8.1-113.8S112.2 86 176.3 64l12.2-4.2C222 48.4 238.7 42.7 256 42.7s34 5.7 67.5 17.2L335.7 64c64.1 22 96.2 32.9 104.3 44.4c8 11.5 8.1 45.5 8.1 113.5l0 .3 0 33.6c0 120.3-90.4 178.6-147.2 203.4c-15.4 6.7-23.1 10.1-44.8 10.1s-29.4-3.4-44.8-10.1C154.4 434.5 64 376.1 64 255.8l0-33.6zm122.7-19.6c0 4.1 1.6 8.2 4.7 11.3l42 42-42 42c-6.2 6.2-6.2 16.4 0 22.6c3.1 3.1 7.2 4.7 11.3 4.7s8.2-1.6 11.3-4.7l42-42 42 42c3.1 3.1 7.2 4.7 11.3 4.7s8.2-1.6 11.3-4.7s4.7-7.2 4.7-11.3s-1.6-8.2-4.7-11.3l-42-42 42-42c3.1-3.1 4.7-7.2 4.7-11.3s-1.6-8.2-4.7-11.3c-6.2-6.2-16.4-6.2-22.6 0l-42 42-42-42c-3.1-3.1-7.2-4.7-11.3-4.7s-8.2 1.6-11.3 4.7s-4.7 7.2-4.7 11.3z"/><path class="fa-primary" d="M214 191.4c-6.2-6.2-16.4-6.2-22.6 0s-6.2 16.4 0 22.6l42 42-42 42c-6.2 6.2-6.2 16.4 0 22.6s16.4 6.2 22.6 0l42-42 42 42c6.2 6.2 16.4 6.2 22.6 0s6.2-16.4 0-22.6l-42-42 42-42c6.2-6.2 6.2-16.4 0-22.6s-16.4-6.2-22.6 0l-42 42-42-42z"/></svg>