<svg xmlns="http://www.w3.org/2000/svg" viewBox="0 0 512 512"><!--!Font Awesome Pro 6.6.0 by @fontawesome - https://fontawesome.com License - https://fontawesome.com/license (Commercial License) Copyright 2024 Fonticons, Inc.--><path class="fa-secondary" opacity=".4" d="M240 42.7c0-8.8 7.2-16 16-16s16 7.2 16 16l0 64-32 0 0-64zm0 170.7l32 0 0 85.3-32 0 0-85.3zm0 192l32 0 0 64c0 8.8-7.2 16-16 16s-16-7.2-16-16l0-64z"/><path class="fa-primary" d="M309.3 298.7l-106.7 0c-19.9 0-29.9 0-37.3 4.3c-4.9 2.8-8.9 6.8-11.7 11.7c-4.3 7.4-4.3 17.4-4.3 37.3s0 29.9 4.3 37.3c2.8 4.9 6.8 8.9 11.7 11.7c7.4 4.3 17.4 4.3 37.3 4.3l106.7 0c19.9 0 29.9 0 37.3-4.3c4.9-2.8 8.9-6.8 11.7-11.7c4.3-7.4 4.3-17.4 4.3-37.3s0-29.9-4.3-37.3c-2.8-4.9-6.8-8.9-11.7-11.7c-7.4-4.3-17.4-4.3-37.3-4.3zm96-138.7c0-19.9 0-29.9-4.3-37.3c-2.8-4.9-6.8-8.9-11.7-11.7c-7.4-4.3-17.4-4.3-37.3-4.3l-192 0c-19.9 0-29.9 0-37.3 4.3c-4.9 2.8-8.9 6.8-11.7 11.7c-4.3 7.4-4.3 17.4-4.3 37.3s0 29.9 4.3 37.3c2.8 4.9 6.8 8.9 11.7 11.7c7.4 4.3 17.4 4.3 37.3 4.3l192 0c19.9 0 29.9 0 37.3-4.3c4.9-2.8 8.9-6.8 11.7-11.7c4.3-7.4 4.3-17.4 4.3-37.3z"/></svg>