<svg xmlns="http://www.w3.org/2000/svg" viewBox="0 0 512 512"><!--!Font Awesome Pro 6.6.0 by @fontawesome - https://fontawesome.com License - https://fontawesome.com/license (Commercial License) Copyright 2024 Fonticons, Inc.--><path class="fa-secondary" opacity=".4" d="M42.7 244.9l0 .4 0 21.3c0 70.1 0 105.2 19.4 128.8c3.5 4.3 7.5 8.3 11.8 11.8c23.6 19.4 58.7 19.4 128.8 19.4s105.2 0 128.8-19.4c4.3-3.5 8.3-7.5 11.8-11.8c19.4-23.6 19.4-58.7 19.4-128.8l0-21.3c0-70.1 0-105.2-19.4-128.8c-3.5-4.3-7.5-8.3-11.8-11.8c-23.6-19.3-58.5-19.4-128.4-19.4l-.4 0c-70.1 0-105.2 0-128.8 19.4c-4.3 3.5-8.3 7.5-11.8 11.8c-19.3 23.6-19.4 58.5-19.4 128.4zm256-63.6a32 32 0 1 1 -64 0 32 32 0 1 1 64 0z"/><path class="fa-primary" d="M362.7 202.7l14-7c41.5-20.8 62.3-31.1 77.4-21.8s15.2 32.6 15.2 79v6.2c0 46.4 0 69.6-15.2 79s-35.9-1-77.4-21.8l-14-7V202.7zm-128-21.3a32 32 0 1 1 64 0 32 32 0 1 1 -64 0z"/></svg>