<svg xmlns="http://www.w3.org/2000/svg" viewBox="0 0 512 512"><!--!Font Awesome Pro 6.6.0 by @fontawesome - https://fontawesome.com License - https://fontawesome.com/license (Commercial License) Copyright 2024 Fonticons, Inc.--><path class="fa-secondary" opacity=".4" d="M42.7 255.4l0 .6c0 17.5 0 33.4 .2 48l63.8 0 2.3 0c11.2 0 21.2 0 30.3 3.9s16 11.1 23.7 19.3c.5 .6 1.1 1.1 1.6 1.7c8.1 8.5 16.2 17 24.4 25.6c2.3 2.4 6.2 2.2 8.1-.5l78-107.6c3.2-4.4 6.5-9 9.8-12.3c3.7-3.9 9.5-8.4 18-8.8s14.6 3.6 18.7 7.1c3.6 3.1 7.3 7.3 10.9 11.4c12.8 14.7 25.7 29.3 38.5 44c10.4 11.8 12.6 13.9 15 15s5.4 1.4 21.1 1.4l62.2 0c.2-14.6 .2-30.5 .2-47.9c0-100.7 0-151-31.2-182.2S356.6 42.7 256 42.7s-150.8 0-182.1 31.2c-31.2 31.2-31.2 81.3-31.2 181.5z"/><path class="fa-primary" d="M42.8 304c.8 69.5 5.3 108.3 31.1 134.1c31.2 31.2 81.5 31.2 182.1 31.2s150.9 0 182.1-31.2c25.8-25.8 30.3-64.6 31.1-134.1H406.9c-15.7 0-18.7-.3-21.1-1.4s-4.6-3.1-15-15l-38.5-44c-3.6-4.1-7.3-8.3-10.9-11.4c-4.1-3.5-10.3-7.5-18.7-7.1s-14.2 4.9-18 8.8c-3.3 3.4-6.6 7.9-9.8 12.3L197.1 353.9c-2 2.7-5.9 3-8.2 .5l-24.4-25.6-1.6-1.7c-7.7-8.1-14.6-15.4-23.7-19.3s-19.1-3.9-30.3-3.9l-2.3 0H42.8z"/></svg>