<svg xmlns="http://www.w3.org/2000/svg" viewBox="0 0 512 512"><!--!Font Awesome Pro 6.6.0 by @fontawesome - https://fontawesome.com License - https://fontawesome.com/license (Commercial License) Copyright 2024 Fonticons, Inc.--><path class="fa-secondary" opacity=".4" d="M325.3 95.8c0 .2 0 .4 0 .5c0 8.6 6.8 15.7 15.5 16l3.4 .1c8.5 11.1 13.8 24.4 15.3 38.6c.9 8.2 7.8 14.3 15.9 14.3c.6 0 1.1 0 1.7-.1c8.8-.9 15.2-8.8 14.2-17.6c-1.6-14.5-6-28.5-12.9-41.1c2.7-.9 5.3-2 7.8-3.2c2.3-1.1 4.6-2.3 6.8-3.6c4.8 13.3 12.2 25.7 21.8 36.2c5.9 6.5 16.1 7 22.6 1c3.5-3.2 5.2-7.5 5.2-11.8c0-3.8-1.4-7.7-4.2-10.8c-9.5-10.4-15.9-23.4-18.6-37.4l2.4-3c5.4-7 4.2-17-2.8-22.5c-2.9-2.3-6.4-3.4-9.8-3.4c-4.8 0-9.5 2.1-12.6 6.2l-5.5 7c-9 7.4-14 10.8-19 13.2c-5 2.4-10.8 4-22 6.2l-8.7-.3c-8.8-.3-16.2 6.6-16.5 15.5z"/><path class="fa-primary" d="M347.2 414.9c13.4 5.3 25.9 9.3 37.3 12.1l.2 0c20.3 5 36.5 6 48 4c3.2-.6 6-1.4 8.3-2.3c5.6-2.4 8.7-5.7 10.3-9.2c1.9-4 2.7-9.8 1.7-17.6c-.6-4.2-1.7-9-3.6-14.5c-.3-.8-.6-1.7-.9-2.5c-2.5-6.9-6-14.3-10.4-22.3l-.2-.4c-.6-1.1-1.3-2.3-2-3.4c-5.9-10.1-13.1-20.8-21.8-32.1l-.1-.1c-29.8-38.6-74.5-81.3-128.1-119.4c-56.9-40.4-111.9-67.3-154.5-78.5c-1.2-.3-2.4-.6-3.6-.9l-.2-.1c-20.3-5-36.5-6-48-4c-4.6 .8-8.2 2.1-10.9 3.6c-3.9 2.2-6.3 4.9-7.7 7.9c-2.4 5.1-3 13-.5 23.7c.8 3.4 1.9 7 3.3 11c1.6 4.4 3.6 9.1 6 13.9c.3 .7 .7 1.4 1 2.1l.6 1.2c.7 1.4 1.5 2.8 2.3 4.3C79.8 202.7 88 215.1 98 228l.1 .1c10.7 13.9 23.5 28.5 38 43.3c3.3 3.4 6.4 6.4 9.2 9.3l.5-6.6c2.1-27.4 3.2-41.2 12.5-46s20.7 2.3 43.4 16.6l5.9 3.7c6.5 4.1 9.7 6.1 13.4 6.6s7.5-.6 15.1-2.7l6.9-2c26.7-7.6 40-11.4 47.2-4.2s3.3 20.5-4.2 47.2l-2 6.9c-2.2 7.6-3.2 11.4-2.7 15.1s2.5 7 6.6 13.4l3.7 5.9c14.4 22.7 21.5 34.1 16.6 43.4s-18.6 10.4-46 12.5l-7.1 .6c-7.8 .6-11.7 .9-15.1 2.7s-5.9 4.9-11 11l-4.6 5.6c-17.8 21.6-26.7 32.5-36.9 31.1s-14.9-14.1-24.2-39.4l-2.4-6.6c-2.7-7.2-4-10.8-6.6-13.4s-6.2-3.9-13.4-6.6l-6.6-2.4C109 363.6 96.3 359 94.9 348.8s9.4-19.1 31.1-36.9l3-2.4c-4.6-4.5-9.8-9.7-15.6-15.6c-17.7-18-33.4-36.1-46.3-53.7c-2.6-3.6-5.1-7.1-7.5-10.6c-2.5-3.7-4.9-7.4-7.2-11.1c-1.2-1.9-2.3-3.8-3.4-5.7c-2.2-3.7-4.2-7.3-6-10.9c-.7-1.4-1.4-2.7-2.1-4.1c-2.8-5.7-5.2-11.3-7.2-16.8c-1.8-4.8-3.3-9.7-4.4-14.6c-3.8-15.9-3.6-31.3 2.7-44.7c5.3-11.3 13.9-19 24.3-23.9c6-2.8 12.5-4.7 19.4-5.8c18.4-2.9 40.3-.4 63.9 5.8c47.4 12.5 106 41.5 164.9 83.4c59 41.9 108.4 89.6 140.5 133.3c10.6 14.4 19.5 28.7 26.3 42.4c2.2 4.4 4.1 8.7 5.8 12.9c1 2.5 1.9 5 2.7 7.4c6.5 19.2 8.5 39.2 .6 56c-5.8 12.4-15.5 20.4-27.1 25.2c-4.7 1.9-9.7 3.3-14.8 4.3c-4.4 .8-9 1.3-13.8 1.4c-.7 0-1.5 0-2.2 .1c-3.1 .1-6.3 0-9.6-.2c-6.4-.4-13.1-1.2-20.1-2.4c-17.6-3.1-36.8-8.8-57-16.7c-8.2-3.2-12.3-12.5-9.1-20.7s12.5-12.3 20.7-9.1z"/></svg>