<svg xmlns="http://www.w3.org/2000/svg" viewBox="0 0 512 512"><!--!Font Awesome Pro 6.6.0 by @fontawesome - https://fontawesome.com License - https://fontawesome.com/license (Commercial License) Copyright 2024 Fonticons, Inc.--><path class="fa-secondary" opacity=".4" d="M69.3 320c0 6.2 3.6 12 9.6 14.7l106.7 46.7c8.1 3.5 17.5-.1 21.1-8.2s-.1-17.5-8.2-21.1L91.8 305.3c-8.1-3.5-17.5 .1-21.1 8.2c-.9 2.1-1.3 4.3-1.3 6.4zm1.3 155.8c3.5 8.1 13 11.8 21.1 8.2L433.1 334.7c8.1-3.5 11.8-13 8.2-21.1s-13-11.8-21.1-8.2L78.9 454.7c-8.1 3.5-11.8 13-8.2 21.1zm224-64.2c-3.5 8.1 .1 17.5 8.2 21.1L420.3 484c8.1 3.5 17.5-.1 21.1-8.2s-.1-17.5-8.2-21.1L315.8 403.3c-8.1-3.5-17.5 .1-21.1 8.2z"/><path class="fa-primary" d="M247.5 320C293 320 384 293.6 384 187.9c0-64.7-39.4-111.6-76.8-139.6c-19.2-14.4-43.7 .5-43.7 24c0 15.8-4.5 42.2-16.9 61.7c-14.5 22.8-38.6 3-42.4-23.5c-1.9-13.3-16.6-18.8-28-11.2c-22.5 15.1-48.2 43.9-48.2 88.6C128 293.6 207.6 320 247.5 320zm77.1-122c8.5 2.5 13.3 11.5 10.7 19.9C329.6 237.1 305.8 272 256 272c-8.8 0-16-7.2-16-16s7.2-16 16-16c32.1 0 45.9-21.9 48.7-31.3c2.5-8.5 11.5-13.3 19.9-10.7z"/></svg>