<svg xmlns="http://www.w3.org/2000/svg" viewBox="0 0 512 512"><!--!Font Awesome Pro 6.6.0 by @fontawesome - https://fontawesome.com License - https://fontawesome.com/license (Commercial License) Copyright 2024 Fonticons, Inc.--><path class="fa-secondary" opacity=".4" d="M64 275.8l0 5.6c0 103.8 82.3 187.9 183.7 187.9l16.6 0c101.5 0 183.7-84.1 183.7-187.9l0-5.6c0-98.4-58.2-187-147.3-224.2c-14.3-6-29.5-9-44.7-9s-30.4 3-44.7 9C122.2 88.8 64 177.4 64 275.8zm83.2-51.9c14.8-46.6 47.1-85.2 89-104.6c8-3.7 17.5-.2 21.2 7.8s.2 17.5-7.8 21.2c-33 15.2-59.6 46.3-71.9 85.2c-2.2 6.8-8.5 11.2-15.2 11.2c-1.6 0-3.2-.2-4.8-.8c-8.4-2.7-13.1-11.7-10.4-20.1z"/><path class="fa-primary" d="M257.4 127.2c3.7 8 .2 17.5-7.8 21.2c-33 15.2-59.6 46.3-71.9 85.2C175 242 166 246.7 157.6 244s-13.1-11.7-10.4-20.1c14.8-46.6 47.1-85.2 89-104.6c8-3.7 17.5-.2 21.2 7.8z"/></svg>