<svg xmlns="http://www.w3.org/2000/svg" viewBox="0 0 512 512"><!--!Font Awesome Pro 6.6.0 by @fontawesome - https://fontawesome.com License - https://fontawesome.com/license (Commercial License) Copyright 2024 Fonticons, Inc.--><path class="fa-secondary" opacity=".4" d="M133.3 469.3c0 3.5 1.1 7 3.5 10c3.2 3.9 7.8 6 12.5 6c3.5 0 7-1.1 10-3.5l10.9-8.7c30.4-24.3 51.2-58.5 58.8-96.7c1.7-8.7-3.9-17.1-12.6-18.8s-17.1 3.9-18.8 12.6c-6.2 30.8-23 58.4-47.4 78l-10.9 8.7c-4 3.2-6 7.8-6 12.5zM213.3 96A53.3 53.3 0 1 0 320 96 53.3 53.3 0 1 0 213.3 96z"/><path class="fa-primary" d="M233.2 197.7c4.3-.2 8.4-.4 12.2-.4c11.8 0 24.6 1.3 36.1 3c32.5 4.7 57 28.6 66.9 58.1c2.2 6.7 9 10.7 15.9 9.6l38.5-6.4c8.7-1.5 17 4.4 18.4 13.2s-4.4 17-13.2 18.4l-38.5 6.4c-22.5 3.7-44.3-9.4-51.5-31c-6.6-19.7-22.2-33.8-41.1-36.5c-5.7-.8-11.5-1.5-17.2-2L254 287.8c-1.8 17.9-2 22.6-.8 26.9s3.9 8.1 14.9 22.4l94.5 122.5c5.4 7 4.1 17-2.9 22.4s-17 4.1-22.4-2.9L242.7 356.6c-.5-.7-1-1.3-1.5-2c-8.8-11.3-15.7-20.3-18.8-31.2s-2-22.1-.5-36.4c.1-.8 .2-1.6 .2-2.5l5.4-54.2c-35.7 5.8-62.2 39.4-62.2 78.9c0 8.8-7.2 16-16 16s-16-7.2-16-16c0-56.3 40.8-108.4 99.8-111.6z"/></svg>