<svg xmlns="http://www.w3.org/2000/svg" viewBox="0 0 512 512"><!--!Font Awesome Pro 6.6.0 by @fontawesome - https://fontawesome.com License - https://fontawesome.com/license (Commercial License) Copyright 2024 Fonticons, Inc.--><path class="fa-secondary" opacity=".4" d="M128 293.3a48 48 0 1 0 96 0 48 48 0 1 0 -96 0zm10.7-208l.5 1.3 10.8 28.7c10 26.8 15.1 40.2 26 47.8s25.3 7.6 53.9 7.6l52.4 0c28.6 0 42.9 0 53.9-7.6s16-21 26-47.8c3.6-9.6 7.2-19.1 10.8-28.7c.2-.4 .3-.9 .5-1.3l-234.7 0zM288 293.3a47.9 47.9 0 1 0 95.8 0 47.9 47.9 0 1 0 -95.8 0z"/><path class="fa-primary" d="M67.7 110.3c-25 25-25 65.2-25 145.7s0 120.7 25 145.7s65.2 25 145.7 25l85.3 0c80.5 0 120.7 0 145.7-25s25-65.2 25-145.7s0-120.7-25-145.7c-15.7-15.7-37.5-21.6-71.5-23.7l-10.8 28.7c-10 26.8-15.1 40.2-26 47.8s-25.3 7.6-53.9 7.6l-52.4 0c-28.6 0-42.9 0-53.9-7.6s-16-21-26-47.8L139.1 86.6c-34 2.2-55.8 8-71.5 23.7zM336 341.3l-160 0c.2 0-.2 0 0 0c-26.5 0-48-21.5-48-48s21.5-48 48-48l160 0c26.5 0 48 21.5 48 48s-21.5 48-48 48c.2 0-.2 0 0 0z"/></svg>