<svg xmlns="http://www.w3.org/2000/svg" viewBox="0 0 512 512"><!--!Font Awesome Pro 6.6.0 by @fontawesome - https://fontawesome.com License - https://fontawesome.com/license (Commercial License) Copyright 2024 Fonticons, Inc.--><path class="fa-secondary" opacity=".4" d="M42.7 256c0-100.6 0-150.8 31.2-182.1S155.4 42.7 256 42.7c37.8 0 68.6 0 93.8 1.7c-47.1 8.6-82.7 49.7-82.7 99c0 25.8 11.8 44.5 11.8 44.5L156.6 309.6c-5.5 5.5-13.2 19.7 0 32.8l14.1 14.1c3.3 2.8 9.4 6.2 16.2 6.2c4.7 0 9.7-1.6 14.3-6.2l16.5-16.4c16.5 16.4 35.3 7 42.3-2.3c11.8-16.4-2.4-32.8-2.4-32.8l4.7-4.7c22.6 22.5 42.3 9.4 49.4 0c11.8-16.4 0-32.8 0-32.8c-1.4-2.8-3.2-4.7-4.7-6.4c-3.7-4-5.9-6.4 2.4-14.7l14.1-14.1c11.3 9.4 34.5 11.7 44.7 11.7c49.5 0 90.7-35.5 99.4-82.3c1.7 25.2 1.7 55.8 1.7 93.4l0 .8c0 100.6 0 150.9-31.2 182.1s-81.5 31.2-182.1 31.2s-150.8 0-182.1-31.2S42.7 356.6 42.7 256zM403.5 143.4a35.3 35.3 0 1 1 -70.5 0 35.3 35.3 0 1 1 70.5 0z"/><path class="fa-primary" d="M469.3 143.4c0 55.6-45.3 100.7-101.1 100.7c-10.2 0-33.4-2.3-44.7-11.7l-14.1 14.1c-8.3 8.3-6.1 10.7-2.4 14.7c1.5 1.7 3.3 3.6 4.7 6.4c0 0 11.8 16.4 0 32.8c-7.1 9.4-26.8 22.5-49.4 0l-4.7 4.7s14.1 16.4 2.4 32.8c-7.1 9.4-25.9 18.7-42.3 2.3l-16.5 16.4c-11.3 11.2-25.1 4.7-30.6 0l-14.1-14.1c-13.2-13.1-5.5-27.3 0-32.8L278.9 187.9s-11.8-18.7-11.8-44.5c0-55.6 45.3-100.7 101.1-100.7s101.1 45.1 101.1 100.7zm-65.8 0a35.3 35.3 0 1 0 -70.5 0 35.3 35.3 0 1 0 70.5 0z"/></svg>