<svg xmlns="http://www.w3.org/2000/svg" viewBox="0 0 512 512"><!--!Font Awesome Pro 6.6.0 by @fontawesome - https://fontawesome.com License - https://fontawesome.com/license (Commercial License) Copyright 2024 Fonticons, Inc.--><path class="fa-secondary" opacity=".4" d="M128 448a21.3 21.3 0 1 0 42.7 0A21.3 21.3 0 1 0 128 448zm5.3-117.3c0 8.8 7.2 16 16 16l8.1 0c33.2 0 65.1-13.2 88.6-36.7c6.2-6.2 6.2-16.4 0-22.6s-16.4-6.2-22.6 0c-17.5 17.5-41.2 27.3-65.9 27.3l-8.1 0c-8.8 0-16 7.2-16 16zM336.5 209.5c-2.1 8.6 3.1 17.3 11.6 19.4c30.6 7.6 62.5 7.6 93.1 0c7.3-1.8 12.1-8.3 12.1-15.5c0-1.3-.2-2.6-.5-3.9c-1.8-7.3-8.3-12.1-15.5-12.1c-1.3 0-2.6 .2-3.9 .5c-25.5 6.4-52.1 6.4-77.6 0c-1.3-.3-2.6-.5-3.9-.5c-7.2 0-13.7 4.9-15.5 12.1zM341.3 448a21.3 21.3 0 1 0 42.7 0 21.3 21.3 0 1 0 -42.7 0z"/><path class="fa-primary" d="M362.7 85.3a42.7 42.7 0 1 1 85.3 0 42.7 42.7 0 1 1 -85.3 0zM241.8 114c14.7-9.2 33.1-10.6 49-3.8c36.8 15.8 43.5 65.2 12.2 90.2l-9.5 7.6c-1.8 1.4-2.3 1.9-2.6 2.1c-13.3 11.5-12.1 32.4 2.5 42.2c.3 .2 1 .7 3.3 2.1l.2 .1c1.5 .9 2.5 1.6 3.4 2.1c21.8 14.4 35.1 38.5 35.8 64.6c0 1.1 0 2.1 0 3.7V352c0 8.8-7.2 16-16 16s-16-7.2-16-16V325.3c0-1.9 0-2.5 0-3.1c-.4-15.7-8.4-30.1-21.5-38.8l-2-1.3c-.3-.2-.5-.3-.9-.5l-.4-.2c-1.7-1.1-3-1.9-3.9-2.5c-31.9-21.7-34.6-67.7-5.4-92.9c.8-.7 1.9-1.6 3.3-2.7l9.8-7.8c12.4-9.9 9.8-29.5-4.9-35.8c-6.3-2.7-13.6-2.2-19.5 1.5l-68.9 43.1c-7.5 4.7-17.4 2.4-22-5.1s-2.4-17.4 5.1-22L241.8 114zM53.3 350.8c6.6-5.9 16.7-5.4 22.6 1.2l25.7 28.5c5.1 5.6 12.3 8.8 19.8 8.8H390.6c7.6 0 14.8-3.2 19.8-8.8L436.1 352c5.9-6.6 16-7.1 22.6-1.2s7.1 16 1.2 22.6l-25.7 28.5c-11.1 12.4-27 19.4-43.6 19.4H121.4c-16.6 0-32.5-7.1-43.6-19.4L52.1 373.4c-5.9-6.6-5.4-16.7 1.2-22.6z"/></svg>