<svg xmlns="http://www.w3.org/2000/svg" viewBox="0 0 512 512"><!--!Font Awesome Pro 6.6.0 by @fontawesome - https://fontawesome.com License - https://fontawesome.com/license (Commercial License) Copyright 2024 Fonticons, Inc.--><path class="fa-secondary" opacity=".4" d="M64 117.3l0 314.9c0 18.6 22.6 26.5 33.2 11.6c7.4-10.3 22.2-10.3 29.5 0l9.2 12.9c6 8.4 15 12.6 24 12.6s18-4.2 24-12.6c12-16.8 36-16.8 48 0c6 8.4 15 12.6 24 12.6s18-4.2 24-12.6c12-16.8 36-16.8 48 0c6 8.4 15 12.6 24 12.6s18-4.2 24-12.6l9.2-12.9c7.4-10.3 22.2-10.3 29.5 0c10.6 14.9 33.2 7 33.2-11.6l0-314.9c0-6.9 0-10.4-.2-13.3c-2.7-32.5-27.2-58.2-58.2-61c-2.8-.3-6.1-.3-12.7-.3l-241.8 0c-6.6 0-9.9 0-12.7 .3C91.5 45.8 67 71.5 64.2 104c-.2 2.9-.2 6.4-.2 13.3zm80 213.4c0-8.8 7.2-16 16-16l192 0c8.8 0 16 7.2 16 16s-7.2 16-16 16l-192 0c-8.8 0-16-7.2-16-16zm58-171.3c3.1-3.1 7.2-4.7 11.3-4.7s8.2 1.6 11.3 4.7L256 190.7l31.4-31.4c6.2-6.2 16.4-6.2 22.6 0s6.2 16.4 0 22.6l-31.4 31.4L310 244.7c6.2 6.2 6.2 16.4 0 22.6s-16.4 6.2-22.6 0L256 236l-31.4 31.4c-6.2 6.2-16.4 6.2-22.6 0s-6.2-16.4 0-22.6l31.4-31.4L202 182c-6.2-6.2-6.2-16.4 0-22.6z"/><path class="fa-primary" d="M224.6 159.4c-6.2-6.2-16.4-6.2-22.6 0s-6.2 16.4 0 22.6l31.4 31.4L202 244.7c-6.2 6.2-6.2 16.4 0 22.6s16.4 6.2 22.6 0L256 236l31.4 31.4c6.2 6.2 16.4 6.2 22.6 0s6.2-16.4 0-22.6l-31.4-31.4L310 182c6.2-6.2 6.2-16.4 0-22.6s-16.4-6.2-22.6 0L256 190.7l-31.4-31.4zM160 314.7c-8.8 0-16 7.2-16 16s7.2 16 16 16H352c8.8 0 16-7.2 16-16s-7.2-16-16-16H160z"/></svg>