<svg xmlns="http://www.w3.org/2000/svg" viewBox="0 0 512 512"><!--!Font Awesome Pro 6.6.0 by @fontawesome - https://fontawesome.com License - https://fontawesome.com/license (Commercial License) Copyright 2024 Fonticons, Inc.--><path class="fa-secondary" opacity=".4" d="M85.3 206.4c0-90.4 71.6-163.7 160-163.7s160 73.3 160 163.7c0 48.5-20.6 92-53.3 122c-10.9 10-19 17.4-24.7 22.7c-2.9 2.7-5 4.8-6.7 6.4c-.8 .8-1.4 1.4-1.9 1.9c-.2 .2-.4 .4-.5 .6c0 0-.1 .1-.2 .2c-5 6.4-6.1 8-6.8 9.5s-1.1 3.4-2.4 11.5c-.5 3.2-.6 8.7-.6 23.6l0 .6c0 8.7 0 16.3-.5 22.4c-.6 6.5-1.9 13-5.3 19.1c-3.8 6.8-9.3 12.4-16 16.3c-6 3.5-12.3 4.8-18.7 5.4c-6 .6-13.4 .6-21.9 .6l-1.3 0c-8.5 0-15.9 0-21.9-.6c-6.4-.6-12.7-1.9-18.7-5.4c-6.6-3.9-12.1-9.6-16-16.3c-3.4-6.1-4.7-12.6-5.3-19.1c-.5-6.2-.5-13.7-.5-22.4l0-.6c0-14.9-.1-20.4-.6-23.6c-1.3-8.1-1.7-10-2.4-11.5s-1.7-3.1-6.8-9.5c0 0 0-.1-.2-.2c-.1-.1-.3-.3-.5-.6c-.5-.5-1.1-1.1-1.9-1.9c-1.6-1.6-3.8-3.7-6.7-6.4c-5.7-5.4-13.8-12.8-24.7-22.7c-32.7-30-53.3-73.5-53.3-122zM192 306.7c7.5 13 20 22.9 34.8 27.1l0 28.9c0 8.8 7.2 16 16 16s16-7.2 16-16l0-28.9c14.8-4.2 27.3-14.1 34.8-27.1c4.4-7.7 1.8-17.4-5.8-21.9s-17.4-1.8-21.9 5.8c-4.6 8-13.3 13.3-23.1 13.3s-18.5-5.3-23.1-13.3c-4.4-7.7-14.2-10.3-21.9-5.8s-10.3 14.2-5.8 21.9zm19.5 113c.1 2.1 .2 3.9 .3 5.5c.4 4.5 1.1 6.1 1.5 6.9c1.3 2.3 3.1 4.1 5.3 5.4c.8 .5 2.4 1.2 6.7 1.6c4.6 .4 10.6 .4 19.9 .4s15.4 0 19.9-.4c4.4-.4 6-1.1 6.7-1.6c2.2-1.3 4-3.2 5.3-5.4c.5-.8 1.1-2.4 1.5-6.9c.1-1.6 .2-3.4 .3-5.5l-67.6 0z"/><path class="fa-primary" d="M219.7 290.7c-4.4-7.7-14.2-10.3-21.9-5.8s-10.3 14.2-5.8 21.9c7.5 13 20 22.9 34.8 27.1v28.9c0 8.8 7.2 16 16 16s16-7.2 16-16V333.8c14.8-4.2 27.3-14.1 34.8-27.1c4.4-7.7 1.8-17.4-5.8-21.9s-17.4-1.8-21.9 5.8c-4.6 8-13.3 13.3-23.1 13.3s-18.5-5.3-23.1-13.3zm-8.2 129.1h67.6c-.1 2.1-.2 3.9-.3 5.5c-.4 4.5-1.1 6.1-1.5 6.9c-1.3 2.3-3.1 4.1-5.3 5.4c-.8 .5-2.4 1.2-6.7 1.6c-4.6 .4-10.6 .4-19.9 .4s-15.4 0-19.9-.4c-4.4-.4-6-1.1-6.7-1.6c-2.2-1.3-4-3.2-5.3-5.4c-.5-.8-1.1-2.4-1.5-6.9c-.1-1.6-.2-3.4-.3-5.5z"/></svg>