<svg xmlns="http://www.w3.org/2000/svg" viewBox="0 0 512 512"><!--!Font Awesome Pro 6.6.0 by @fontawesome - https://fontawesome.com License - https://fontawesome.com/license (Commercial License) Copyright 2024 Fonticons, Inc.--><path class="fa-secondary" opacity=".4" d="M26.7 250.4c.2-8.8 7.5-15.8 16.4-15.6s15.8 7.5 15.6 16.4c0 1.6-.1 3.2-.1 4.9s0 3.2 .1 4.9c.2 8.8-6.8 16.2-15.6 16.4s-16.2-6.8-16.4-15.6c0-1.9-.1-3.8-.1-5.6s0-3.8 .1-5.6zM42 173.4c1.4-3.5 2.8-7 4.3-10.4c3.6-8.1 13-11.7 21.1-8.1s11.7 13 8.1 21.1c-1.3 2.9-2.5 5.9-3.7 8.9c-3.2 8.2-12.4 12.3-20.7 9.2s-12.3-12.4-9.2-20.7zm0 165.1c-3.2-8.2 .9-17.5 9.2-20.7s17.5 .9 20.7 9.2c1.2 3 2.4 6 3.7 8.9c3.6 8.1-.1 17.5-8.1 21.1s-17.5-.1-21.1-8.1c-1.5-3.4-3-6.9-4.3-10.4zM89.9 97.9c2.6-2.7 5.2-5.4 8-8c6.4-6.1 16.5-5.8 22.6 .6s5.8 16.5-.6 22.6c-2.3 2.2-4.6 4.5-6.9 6.9c-6.1 6.4-16.2 6.6-22.6 .6s-6.6-16.2-.6-22.6zm0 316.3c-6.1-6.4-5.8-16.5 .6-22.6s16.5-5.8 22.6 .6c2.2 2.3 4.5 4.6 6.9 6.9c6.4 6.1 6.6 16.2 .6 22.6s-16.2 6.6-22.6 .6c-2.7-2.6-5.4-5.2-8-8zm65-346.7c-3.6-8.1 .1-17.5 8.1-21.1c3.4-1.5 6.9-3 10.4-4.3c8.2-3.2 17.5 .9 20.7 9.2s-.9 17.5-9.2 20.7c-3 1.2-6 2.4-8.9 3.7c-8.1 3.6-17.5-.1-21.1-8.1zm0 377.2c3.6-8.1 13-11.7 21.1-8.1c2.9 1.3 5.9 2.5 8.9 3.7c8.2 3.2 12.3 12.4 9.2 20.7s-12.4 12.3-20.7 9.2c-3.5-1.4-7-2.8-10.4-4.3c-8.1-3.6-11.7-13-8.1-21.1zm79.9 24.3c.2-8.8 7.5-15.8 16.4-15.6c1.6 0 3.2 .1 4.9 .1s3.2 0 4.9-.1c8.8-.2 16.2 6.8 16.4 15.6s-6.8 16.2-15.6 16.4c-1.9 0-3.8 .1-5.6 .1s-3.8 0-5.6-.1c-8.8-.2-15.8-7.5-15.6-16.4zm83.1-8c-3.2-8.2 .9-17.5 9.2-20.7c3-1.2 6-2.4 8.9-3.7c8.1-3.6 17.5 .1 21.1 8.1s-.1 17.5-8.1 21.1c-3.4 1.5-6.9 3-10.4 4.3c-8.2 3.2-17.5-.9-20.7-9.2zm73.6-39.3c-6.1-6.4-5.8-16.5 .6-22.6c2.3-2.2 4.6-4.5 6.9-6.9c6.1-6.4 16.2-6.6 22.6-.6s6.6 16.2 .6 22.6c-2.6 2.7-5.2 5.4-8 8c-6.4 6.1-16.5 5.8-22.6-.6zM436.5 336c1.3-2.9 2.5-5.9 3.7-8.9c3.2-8.2 12.4-12.3 20.7-9.2s12.3 12.4 9.2 20.7c-1.4 3.5-2.8 7-4.3 10.4c-3.6 8.1-13 11.7-21.1 8.1s-11.7-13-8.1-21.1z"/><path class="fa-primary" d="M256 58.7C365 58.7 453.3 147 453.3 256c0 8.8 7.2 16 16 16s16-7.2 16-16C485.3 129.3 382.7 26.7 256 26.7c-8.8 0-16 7.2-16 16s7.2 16 16 16zM256 176c8.8 0 16 7.2 16 16l0 69.3 69.3 0c8.8 0 16 7.2 16 16s-7.2 16-16 16l-85.3 0c-8.8 0-16-7.2-16-16l0-85.3c0-8.8 7.2-16 16-16z"/></svg>