<svg xmlns="http://www.w3.org/2000/svg" viewBox="0 0 512 512"><!--!Font Awesome Pro 6.6.0 by @fontawesome - https://fontawesome.com License - https://fontawesome.com/license (Commercial License) Copyright 2024 Fonticons, Inc.--><path class="fa-secondary" opacity=".4" d="M69.2 284.3c0 102.2 83.6 185.1 186.8 185.1s186.8-82.9 186.8-185.1s-83.6-185.1-186.8-185.1s-186.8 82.9-186.8 185.1zM240.4 202c0-8.5 7-15.4 15.6-15.4s15.6 6.9 15.6 15.4l0 75.9 47.3 46.9c6.1 6 6.1 15.8 0 21.8s-15.9 6-22 0L245 295.2c-2.9-2.9-4.6-6.8-4.6-10.9l0-82.2z"/><path class="fa-primary" d="M256 186.6c8.6 0 15.6 6.9 15.6 15.4v75.9l47.3 46.9c6.1 6 6.1 15.8 0 21.8s-15.9 6-22 0L245 295.2c-2.9-2.9-4.6-6.8-4.6-10.9V202c0-8.5 7-15.4 15.6-15.4zM175.8 49.9c4.6 7.2 2.3 16.7-5 21.3l-83 51.4c-7.3 4.5-16.9 2.3-21.5-4.9s-2.3-16.7 5-21.3l83-51.4c7.3-4.5 16.9-2.3 21.5 4.9zm160.4 0c4.6-7.2 14.2-9.4 21.5-4.9l83 51.4c7.3 4.5 9.5 14 5 21.3s-14.2 9.4-21.5 4.9l-83-51.4c-7.3-4.5-9.5-14-5-21.3z"/></svg>