<svg xmlns="http://www.w3.org/2000/svg" viewBox="0 0 512 512"><!--!Font Awesome Pro 6.6.0 by @fontawesome - https://fontawesome.com License - https://fontawesome.com/license (Commercial License) Copyright 2024 Fonticons, Inc.--><path class="fa-secondary" opacity=".4" d="M42.7 255.6l0 .4c0 80 0 120 20.4 148c6.6 9.1 14.5 17 23.6 23.6c28 20.4 68 20.4 148 20.4l42.7 0c80 0 120 0 148-20.4c9.1-6.6 17-14.5 23.6-23.6c20.3-28 20.4-67.9 20.4-147.6l0-.5c0-80 0-120-20.4-148c-6.6-9.1-14.5-17-23.6-23.6C397.4 64 357.5 64 277.8 64l-.5 0-42.7 0c-80 0-120 0-148 20.4C77.6 91 69.6 98.9 63 108c-20.3 28-20.4 67.9-20.4 147.6zm192 53.8c0-23.2 0-34.8 3.7-43.9c4.9-12.2 14.4-21.9 26.4-26.9c8.9-3.8 20.3-3.8 43-3.8l24.4 0c22.7 0 34.1 0 43 3.8c11.9 5.1 21.4 14.7 26.4 26.9c3.7 9.1 3.7 20.7 3.7 43.9c0 23.2 0 34.8-3.7 43.9c-4.9 12.2-14.4 21.9-26.4 26.9c-9 3.8-20.3 3.8-43 3.8l-24.4 0c-22.7 0-34.1 0-43-3.8c-11.9-5.1-21.4-14.7-26.4-26.9c-3.7-9.1-3.7-20.7-3.7-43.9z"/><path class="fa-primary" d="M234.7 309.3c0-23.2 0-34.8 3.7-43.9c4.9-12.2 14.4-21.9 26.4-26.9c9-3.8 20.3-3.8 43-3.8h24.4c22.7 0 34.1 0 43 3.8c11.9 5.1 21.4 14.7 26.4 26.9c3.7 9.1 3.7 20.7 3.7 43.9s0 34.8-3.7 43.9c-4.9 12.2-14.4 21.9-26.4 26.9c-9 3.8-20.3 3.8-43 3.8H307.8c-22.7 0-34.1 0-43-3.8c-11.9-5.1-21.4-14.7-26.4-26.9c-3.7-9.1-3.7-20.7-3.7-43.9z"/></svg>