<svg xmlns="http://www.w3.org/2000/svg" viewBox="0 0 512 512"><!--!Font Awesome Pro 6.6.0 by @fontawesome - https://fontawesome.com License - https://fontawesome.com/license (Commercial License) Copyright 2024 Fonticons, Inc.--><path class="fa-secondary" opacity=".4" d="M42.7 255.9c0 100.7 0 151 31.2 182.2s81.5 31.2 182.1 31.2c29 0 53.8 0 75.1-.7c-18.9-1.2-31-4.5-39.7-13.3c-7-7-10.5-16.2-12.3-29.3c-.9-6.5-1.3-14-1.5-22.8c-.1-4.4-.2-9-.2-14s0-10.3 0-15.9c0-45.3 0-67.9 14.1-81.9s36.7-14.1 81.9-14.1s67.9 0 81.9 14.1c.5 .5 1.1 1.1 1.6 1.7s1 1.2 1.5 1.8c.9 1.2 1.8 2.5 2.6 3.8c1.6 2.7 2.8 5.6 3.9 8.8c2.1 6.5 3.2 14.2 3.8 23.7c.7-21.3 .7-46.1 .7-75c0-26.6 0-49.5-.6-69.5l-425.5 0c-.6 20-.6 42.9-.6 69.2z"/><path class="fa-primary" d="M256 42.7c39.4 0 71 0 96.9 1.9L279.4 154.7H179.2l74.7-112H256zM73.9 73.9c26.7-26.7 67.4-30.6 141.5-31.1L140.8 154.7H44.9C48 117 55.6 92.2 73.9 73.9zm393.2 80.8c-3.1-37.6-10.7-62.5-29-80.8c-12.7-12.7-28.7-20.3-49.9-24.8L317.9 154.7H467.1zM373.3 469.3c-45.3 0-67.9 0-81.9-14.1s-14.1-36.7-14.1-81.9s0-67.9 14.1-81.9s36.7-14.1 81.9-14.1s67.9 0 81.9 14.1s14.1 36.7 14.1 81.9s0 67.9-14.1 81.9s-36.7 14.1-81.9 14.1zm47.2-143.2c-8.2-8.2-21.5-8.2-29.7 0l-1.2 1.2c-1.2 1.2-1.7 2.9-1.4 4.5c.2 1 .5 2.6 1.2 4.4c1.3 3.6 3.6 8.4 8.1 12.9s9.3 6.9 12.9 8.1c1.8 .6 3.3 1 4.4 1.2c1.7 .3 3.3-.2 4.5-1.4l1.2-1.2c8.2-8.2 8.2-21.5 0-29.7zm-50.4 80.1l38.4-38.4c.9-.9 .5-2.5-.7-3c-4.5-1.6-10.4-4.5-15.9-10s-8.5-11.4-10-15.9c-.4-1.2-2-1.7-3-.7l-38.4 38.4c-3.1 3.1-4.6 4.6-5.9 6.3c-1.6 2-2.9 4.2-4 6.5c-.9 1.9-1.6 4-3 8.1l-7.3 21.8c-.7 2-.1 4.3 1.4 5.8s3.8 2 5.8 1.4l21.8-7.3c4.1-1.4 6.2-2.1 8.1-3c2.3-1.1 4.5-2.4 6.5-4c1.7-1.3 3.2-2.9 6.3-5.9z"/></svg>