<svg xmlns="http://www.w3.org/2000/svg" viewBox="0 0 512 512"><!--!Font Awesome Pro 6.6.0 by @fontawesome - https://fontawesome.com License - https://fontawesome.com/license (Commercial License) Copyright 2024 Fonticons, Inc.--><path class="fa-secondary" opacity=".4" d="M42.7 256c0-35 9.1-46.8 27.2-70.3c36.2-47 96.9-100.4 186.1-100.4s149.9 53.3 186.1 100.4c18.1 23.6 27.2 35.3 27.2 70.3s-9.1 46.8-27.2 70.3c-36.2 47-96.9 100.4-186.1 100.4s-149.9-53.3-186.1-100.4C51.7 302.8 42.7 291 42.7 256zM176 256a80 80 0 1 0 160 0 80 80 0 1 0 -160 0zm128 0a48 48 0 1 1 -96 0 48 48 0 1 1 96 0z"/><path class="fa-primary" d="M336 256a80 80 0 1 1 -160 0 80 80 0 1 1 160 0zm-128 0a48 48 0 1 0 96 0 48 48 0 1 0 -96 0z"/></svg>