<svg xmlns="http://www.w3.org/2000/svg" viewBox="0 0 512 512"><!--!Font Awesome Pro 6.5.2 by @fontawesome - https://fontawesome.com License - https://fontawesome.com/license (Commercial License) Copyright 2024 Fonticons, Inc.--><path class="fa-secondary" opacity=".4" d="M48.8 367.8c2.3 6.7 8.5 10.9 15.2 10.9c1.7 0 3.4-.3 5.1-.8l24.7-8.3c6.2-2.1 12.1-5 17.6-8.7l2.1-1.5c19.1-12.9 30.5-34.5 30.5-57.5c0-44.3 31.7-81.9 74.6-89.1l19-3.2c6.1-.8 12.2-1.2 18.4-1.1c6.1-.1 12.3 .3 18.3 1.1l19 3.2c42.9 7.2 74.6 44.8 74.6 89.1c0 23.1 11.4 44.6 30.5 57.5l2.2 1.5c5.4 3.7 11.3 6.6 17.5 8.6l24.7 8.3c8.2 2.4 17-2.1 19.7-10.2s-1.4-17-9.5-20.1l-24.7-8.3c-3.5-1.2-6.8-2.8-9.9-4.9l-2.2-1.5c-10.2-6.9-16.4-18.5-16.4-31c0-59.7-42.7-110.8-101.3-120.7l-19-3.2c-6.5-1.1-15.5-1.5-23.7-1.5c-.6 0-1.1 0-1.7 0c-7.4 0-14.7 .5-22 1.6l-19 3.2C154.7 191 112 242.2 112 301.9c0 12.4-6.1 24-16.4 31l-2.2 1.5c-3.1 2.1-6.4 3.7-9.9 4.9l-24.7 8.3c-8.4 2.8-12.9 11.9-10 20.3z"/><path class="fa-primary" d="M309.3 96a53.3 53.3 0 1 1 -106.7 0 53.3 53.3 0 0 1 106.7 0M189.9 331.7c5.3-7.1 15.3-8.5 22.4-3.2s8.5 15.3 3.2 22.4l-19.7 26.3-.4 .6c-2.2 3.1-4.7 6.1-7.3 9c-6 6.3-13.3 11.2-21.5 14.3c-3.3 1.2-6.7 2.1-11.1 3.2l-.8 .2-38.3 9.6c-9.7 2.5-16.1 11.8-14.9 21.8s9.7 17.5 19.7 17.5l14.6 0c33 0 65.1-10.7 91.5-30.5l40.4-30.3c7.1-5.3 17.1-3.9 22.4 3.2s3.9 17.1-3.2 22.4l-19.3 14.5 10.5 3.9c11.4 4.3 16.5 6.2 21.7 7.8c15.5 4.9 31.6 7.8 47.9 8.7c5.4 .3 10.9 .3 23 .3l20 0c10 0 18.5-7.5 19.7-17.5s-5.1-19.3-14.9-21.8l-31.4-7.9-1.7-.4c-10.2-2.5-18.2-4.5-25.3-8.7c-2.1-1.2-4.2-2.6-6.2-4.1c-6.6-5-11.5-11.6-17.8-20l-1.1-1.4-15.5-20.7c-3.4-4.6-4.2-10.6-1.9-15.9s7.1-8.9 12.8-9.6s11.3 1.7 14.7 6.3l15.5 20.7c7.9 10.5 10 13.2 12.6 15.1c.9 .7 1.8 1.3 2.8 1.9c2.8 1.6 6.1 2.6 18.8 5.8l31.4 7.9c25.4 6.4 42.1 30.7 38.9 56.7s-25.3 45.6-51.5 45.6l-20.6 0c-11.5 0-17.9 0-24.3-.4c-18.9-1.1-37.6-4.4-55.6-10.1c-6.1-1.9-12.1-4.2-22.9-8.2l-30.5-11.5c-30 19.6-65.1 30.1-101 30.1l-14.6 0c-26.2 0-48.3-19.6-51.5-45.6s13.5-50.4 38.9-56.7l38.3-9.6c5.4-1.4 6.9-1.7 8.2-2.2c3.7-1.4 7-3.6 9.7-6.5c1-1 1.9-2.2 5.2-6.7z"/></svg>