<svg xmlns="http://www.w3.org/2000/svg" viewBox="0 0 512 512"><!--!Font Awesome Pro 6.6.0 by @fontawesome - https://fontawesome.com License - https://fontawesome.com/license (Commercial License) Copyright 2024 Fonticons, Inc.--><path class="fa-secondary" opacity=".4" d="M74.7 256c0 19.9 13.6 36.6 32 41.3c0-27.5 0-55.1 0-82.6c-18.4 4.7-32 21.4-32 41.3zM192 240l0 32 128 0 0-32-128 0zm213.3-25.3c0 27.5 0 55.1 0 82.6c18.4-4.7 32-21.4 32-41.3s-13.6-36.6-32-41.3z"/><path class="fa-primary" d="M405.3 320V192c0-9.9 0-14.9-1.1-18.9c-3-11-11.6-19.7-22.6-22.6c-4.1-1.1-9-1.1-18.9-1.1s-14.9 0-18.9 1.1c-11 3-19.7 11.6-22.6 22.6c-1.1 4.1-1.1 9-1.1 18.9v48 32 48c0 9.9 0 14.9 1.1 18.9c3 11 11.6 19.7 22.6 22.6c4.1 1.1 9 1.1 18.9 1.1s14.9 0 18.9-1.1c11-3 19.7-11.6 22.6-22.6c1.1-4.1 1.1-9 1.1-18.9zM106.7 192V320c0 9.9 0 14.9 1.1 18.9c3 11 11.6 19.7 22.6 22.6c4.1 1.1 9 1.1 18.9 1.1s14.9 0 18.9-1.1c11-3 19.7-11.6 22.6-22.6c1.1-4.1 1.1-9 1.1-18.9V272 240 192c0-9.9 0-14.9-1.1-18.9c-3-11-11.6-19.7-22.6-22.6c-4.1-1.1-9-1.1-18.9-1.1s-14.9 0-18.9 1.1c-11 3-19.7 11.6-22.6 22.6c-1.1 4.1-1.1 9-1.1 18.9z"/></svg>