<svg xmlns="http://www.w3.org/2000/svg" viewBox="0 0 512 512"><!--!Font Awesome Pro 6.6.0 by @fontawesome - https://fontawesome.com License - https://fontawesome.com/license (Commercial License) Copyright 2024 Fonticons, Inc.--><path class="fa-secondary" opacity=".4" d="M234.7 389.6c0 20.4 7.8 40.8 23.4 56.4s36 23.4 56.4 23.4s40.8-7.8 56.4-23.4l26.3-26.3c-.6-.2-1.3-.4-2-.6c-4.1-1.3-9.8-3.4-16.6-6.7c-13.6-6.6-31.6-17.7-50.4-36.5s-30-36.8-36.5-50.4c-3.3-6.8-5.4-12.5-6.7-16.6c-.2-.7-.4-1.4-.6-2c-8.8 8.8-17.5 17.5-26.3 26.3c-15.6 15.6-23.4 36-23.4 56.4zM286.2 305c8.4-8.4 16.7-16.7 25.1-25.1l3 15.6c.2 .6 .6 2.2 1 3.6c.9 2.8 2.5 7.1 5 12.4c5.1 10.7 14.3 25.6 30.3 41.6s31 25.2 41.6 30.3c5.3 2.6 9.6 4.1 12.4 5c1.4 .4 2.4 .7 3 .9c.3 .1 .5 .1 .6 .1c5.2 1 10.4 2 15.6 3.1c7.3-7.3 14.6-14.6 21.9-21.9c15.6-15.6 23.4-36 23.4-56.4s-7.8-40.8-23.4-56.4c-31.1-31.1-81.6-31.1-112.8 0l-47 47zm9.9-198.3a64 64 0 1 0 128 0 64 64 0 1 0 -128 0z"/><path class="fa-primary" d="M424.1 392.7l0-.1-15.6-3c-.1 0-.3-.1-.6-.1c-.6-.2-1.6-.4-3-.9c-2.8-.9-7.1-2.5-12.4-5c-10.7-5.1-25.6-14.3-41.6-30.3s-25.2-31-30.3-41.6c-2.6-5.3-4.1-9.6-5-12.4c-.4-1.4-.9-3-1-3.6l-3-15.6-.1 0-27 27c.2 .6 .4 1.3 .6 2c1.3 4.1 3.4 9.8 6.7 16.6c6.6 13.6 17.8 31.6 36.5 50.4s36.8 30 50.4 36.5c6.8 3.3 12.5 5.4 16.6 6.7c.7 .2 1.4 .4 2 .6l27-27zM207.5 270.5c-38 37.5-99.7 37.5-137.7 0C55 255.9 45.9 237.7 42.7 218.7h192c-3.2 19-12.3 37.2-27.2 51.9zm27.2-83.9H42.7c3.2-19 12.3-37.2 27.2-51.9c38-37.5 99.7-37.5 137.7 0c14.9 14.7 23.9 32.9 27.2 51.9z"/></svg>