<svg xmlns="http://www.w3.org/2000/svg" viewBox="0 0 512 512"><!--!Font Awesome Pro 6.6.0 by @fontawesome - https://fontawesome.com License - https://fontawesome.com/license (Commercial License) Copyright 2024 Fonticons, Inc.--><path class="fa-secondary" opacity=".4" d="M26.7 189.9l0 2.1c0 8.8 7.2 16 16 16s16-7.2 16-16c0-40.9 .1-64 2.9-80.2C64.1 97.4 68.6 89.4 79 79c9-9 21.4-14.4 42.9-17.3c21.9-2.9 50.8-3 91.5-3c8.8 0 16-7.2 16-16s-7.2-16-16-16l-1.2 0-1.3 0c-38.6 0-69.2 0-93.2 3.3c-25 3.4-45.3 10.4-61.2 26.4C41.7 70.9 33.8 84.8 30 106.3c-3.4 19.3-3.4 45.3-3.4 83.7zm0 130.1l0 2.1c0 38.4 0 64.4 3.4 83.7c3.7 21.4 11.7 35.3 26.3 49.9c16 16 36.2 23 61.2 26.4c24.3 3.3 55.4 3.3 94.6 3.3l1.2 0c8.8 0 16-7.2 16-16s-7.2-16-16-16c-40.7 0-69.6 0-91.5-3C100.4 447.5 88 442.1 79 433c-10.4-10.4-14.9-18.4-17.4-32.8c-2.8-16.2-2.9-39.3-2.9-80.2c0-8.8-7.2-16-16-16s-16 7.2-16 16zm256-277.3c0 8.8 7.2 16 16 16c40.7 0 69.6 0 91.5 3C411.6 64.5 424 69.9 433 79c10.4 10.4 14.9 18.4 17.4 32.8c2.8 16.2 2.9 39.3 2.9 80.2c0 8.8 7.2 16 16 16s16-7.2 16-16l0-2.1c0-38.4 0-64.4-3.4-83.7c-3.7-21.4-11.7-35.3-26.3-49.9c-16-16-36.2-23.1-61.2-26.4c-24-3.2-54.6-3.3-93.2-3.3l-1.3 0-1.2 0c-8.8 0-16 7.2-16 16zm0 426.7c0 8.8 7.2 16 16 16l1.2 0 .3 0c39.1 0 70 0 94.3-3.3c25-3.4 45.3-10.4 61.2-26.4c14.6-14.6 22.6-28.5 26.3-49.9c3.4-19.3 3.4-45.3 3.4-83.7l0-2.1c0-8.8-7.2-16-16-16s-16 7.2-16 16c0 40.9-.1 64-2.9 80.2c-2.5 14.4-7 22.4-17.4 32.8c-9 9-21.4 14.4-42.9 17.3c-21.9 2.9-50.8 3-91.5 3c-8.8 0-16 7.2-16 16z"/><path class="fa-primary" d="M256 229.3a26.7 26.7 0 1 0 0 53.3 26.7 26.7 0 1 0 0-53.3zM125.7 299.9c-12.7-14.7-19-22.1-19-43.9s6.3-29.2 19-43.9c25.3-29.4 67.8-62.7 130.3-62.7s105 33.3 130.3 62.7c12.7 14.7 19 22.1 19 43.9s-6.3 29.2-19 43.9C361 329.3 318.4 362.7 256 362.7s-105-33.3-130.3-62.7zM197.3 256a58.7 58.7 0 1 0 117.3 0 58.7 58.7 0 1 0 -117.3 0z"/></svg>