<svg xmlns="http://www.w3.org/2000/svg" viewBox="0 0 512 512"><!--!Font Awesome Pro 6.6.0 by @fontawesome - https://fontawesome.com License - https://fontawesome.com/license (Commercial License) Copyright 2024 Fonticons, Inc.--><path class="fa-secondary" opacity=".4" d="M309.3 64l0 96 42.7 0c17.7 0 32-14.3 32-32l0-32c0-17.7-14.3-32-32-32l-42.7 0zm0 288l0 96 42.7 0c17.7 0 32-14.3 32-32l0-32c0-17.7-14.3-32-32-32l-42.7 0zm92.6-152.4l.1 .2c.1 .3 .4 .9 .8 1.9c.7 1.9 1.9 5 3 9.5c2.3 9 4.8 23.7 4.8 44.8s-2.5 35.8-4.8 44.8c-1.2 4.5-2.3 7.7-3 9.5c-.4 .9-.7 1.5-.8 1.8l-.1 .2c-4.1 7.7-1.3 17.3 6.3 21.6c7.7 4.3 17.5 1.5 21.8-6.2c.1-.2 .1-.2 .1-.3l.2-.4c.2-.3 .3-.7 .6-1.1c.4-.9 1-2.2 1.6-3.7c1.3-3.1 2.8-7.6 4.3-13.5c3-11.8 5.8-29.1 5.8-52.8s-2.8-41-5.8-52.8c-1.5-5.9-3.1-10.3-4.3-13.5c-.6-1.6-1.2-2.8-1.6-3.7c-.2-.5-.4-.8-.6-1.1l-.2-.4c-.1-.2-.1-.2-.1-.2c-4.3-7.8-14-10.5-21.8-6.2c-7.7 4.3-10.5 13.9-6.3 21.6zM416 192c14-7.8 14-7.7 14-7.7c-4.7 2.6-9.3 5.2-14 7.7zm30.3-53.9c.2 .2 .4 .5 .7 1c.6 .9 1.7 2.4 2.9 4.5c2.5 4.2 6.1 11 9.8 20.5c5.5 14.2 11.1 34.7 13.6 62.1c.8 9.1 1.3 19.1 1.3 29.8c0 2.7 0 5.3-.1 7.9c-.4 19.2-2.4 35.6-5.1 49.5c-2.8 14.1-6.3 25.5-9.7 34.5c-3.7 9.5-7.2 16.3-9.8 20.5c-1.3 2.1-2.3 3.6-2.9 4.5c-.3 .4-.5 .7-.7 .9c-5.6 6.9-4.7 16.9 2.1 22.5c6.8 5.7 16.9 4.7 22.5-2.1c.2-.2 .2-.3 .3-.3c.1-.2 .3-.3 .5-.6c.4-.5 .8-1.1 1.4-1.9c1.1-1.6 2.6-3.8 4.3-6.6c3.5-5.8 7.9-14.2 12.2-25.5c4.4-11.3 8.6-25.5 11.8-42.6s5.3-37.3 5.3-60.7c0-12.3-.6-23.6-1.6-34.2c-2.8-29.6-9.1-52.5-15.5-69.2c-4.3-11.3-8.8-19.7-12.2-25.5c-1.7-2.9-3.2-5.1-4.3-6.6c-.6-.8-1-1.4-1.4-1.9c-.2-.2-.3-.4-.5-.6l-.2-.2c-5.8-6.9-15.9-7.8-22.6-2.2c-6.8 5.6-7.7 15.6-2.1 22.4z"/><path class="fa-primary" d="M309.3 64H234.7c-106 0-192 86-192 192s86 192 192 192h74.7V352H233.5c-53 0-96-43-96-96s43-96 96-96h75.9V64z"/></svg>