<svg xmlns="http://www.w3.org/2000/svg" viewBox="0 0 640 512"><!--!Font Awesome Pro 6.6.0 by @fontawesome - https://fontawesome.com License - https://fontawesome.com/license (Commercial License) Copyright 2024 Fonticons, Inc.--><path class="fa-secondary" opacity=".4" d="M0 96c21.3 16.8 42.7 33.6 64 50.4L64 320l220.3 0 81.2 64-98.9 0 10.7 32 74.7 0c17.7 0 32 14.3 32 32s-14.3 32-32 32L96 480c-17.7 0-32-14.3-32-32s14.3-32 32-32l74.6 0 10.7-32L64 384c-35.3 0-64-28.7-64-64L0 96zM44 35.2C50.3 33.1 57 32 64 32l320 0c35.3 0 64 28.7 64 64l0 224c0 11.5-3.1 22.3-8.4 31.7L384 307.2 384 96 120 96 44 35.2zM480 80c0-26.5 21.5-48 48-48l64 0c26.5 0 48 21.5 48 48l0 352c0 24-17.7 43.9-40.7 47.4L480 384l0-304zm48 32c0 8.8 7.2 16 16 16l32 0c8.8 0 16-7.2 16-16s-7.2-16-16-16l-32 0c-8.8 0-16 7.2-16 16zm0 64c0 8.8 7.2 16 16 16l32 0c8.8 0 16-7.2 16-16s-7.2-16-16-16l-32 0c-8.8 0-16 7.2-16 16zm0 192c0 17.7 14.3 32 32 32s32-14.3 32-32s-14.3-32-32-32s-32 14.3-32 32z"/><path class="fa-primary" d="M5.1 9.2C13.3-1.2 28.4-3.1 38.8 5.1l592 464c10.4 8.2 12.3 23.3 4.1 33.7s-23.3 12.3-33.7 4.1L9.2 42.9C-1.2 34.7-3.1 19.6 5.1 9.2z"/></svg>