<svg xmlns="http://www.w3.org/2000/svg" viewBox="0 0 512 512"><!--!Font Awesome Pro 6.6.0 by @fontawesome - https://fontawesome.com License - https://fontawesome.com/license (Commercial License) Copyright 2024 Fonticons, Inc.--><path class="fa-secondary" opacity=".4" d="M42.7 197.6C42.7 71.5 160 14.1 256 117.3c96-103.2 213.3-45.9 213.3 80.2c0 79.9-85.7 164.5-148.5 215.7C292.4 436.4 278.2 448 256 448s-36.4-11.6-64.8-34.8C128.4 362.1 42.7 277.5 42.7 197.6zM112 256c0 8.8 7.2 16 16 16l16.4 0c7.6 0 14.4 0 20.1-.5c6.2-.6 12.2-1.8 18.1-4.9s10.4-7.3 14.4-12c3.7-4.4 7.6-9.9 11.9-16.1l6.4-9.2c1.9-2.7 3.5-5 4.9-6.9c1.2 2.1 2.5 4.5 4.1 7.4l36.5 66.3c3.5 6.4 7 12.8 10.5 17.4c3.7 4.9 10.3 11.6 20.8 11.8c.2 0 .3 0 .5 0c10.3 0 16.9-6.4 20.8-11c3.7-4.5 7.4-10.6 11.1-16.9l1.2-2c4.7-7.9 7.7-12.8 10.3-16.3c2.4-3.3 3.8-4.3 4.9-4.9s2.7-1.2 6.7-1.6c4.4-.4 10.1-.4 19.3-.4l17.1 0c8.8 0 16-7.2 16-16s-7.2-16-16-16l-17.8 0c-8.3 0-15.6 0-21.7 .6c-6.6 .6-13.1 2.1-19.4 5.6s-10.8 8.4-14.8 13.7c-3.7 4.9-7.4 11.2-11.7 18.3c-.3 .6-.7 1.1-1 1.7c-1.8 3.1-3.4 5.7-4.8 7.9c-1.3-2.3-2.7-4.9-4.5-8l-36.5-66.3c-3.3-6-6.6-11.9-9.9-16.3c-3.6-4.8-9.9-11.1-19.8-11.6c-.4 0-.9 0-1.3 0c-9.3 0-15.7 5.3-19.6 9.5c-3.8 4-7.7 9.6-11.6 15.2l-6.6 9.4c-4.8 6.9-7.9 11.2-10.5 14.3c-2.4 2.9-3.8 3.8-4.8 4.3s-2.5 1.1-6.3 1.4c-4.1 .4-9.3 .4-17.8 .4L128 240c-8.8 0-16 7.2-16 16z"/><path class="fa-primary" d="M215.3 229.3c1.9-2.7 3.5-5 4.9-6.9c1.2 2.1 2.5 4.5 4.1 7.4l36.5 66.3c3.5 6.4 7 12.8 10.5 17.4c3.7 4.9 10.3 11.6 20.8 11.8s17.3-6.3 21.2-11c3.7-4.5 7.4-10.6 11.1-16.9l1.2-2c4.7-7.9 7.7-12.8 10.3-16.3c2.4-3.3 3.8-4.3 4.9-4.9s2.7-1.2 6.7-1.6c4.4-.4 10.1-.4 19.3-.4H384c8.8 0 16-7.2 16-16s-7.2-16-16-16l-17.8 0c-8.3 0-15.6 0-21.7 .6c-6.6 .6-13.1 2.1-19.4 5.6s-10.8 8.4-14.8 13.7c-3.7 4.9-7.4 11.2-11.7 18.3l0 0-1 1.7c-1.8 3.1-3.4 5.7-4.8 7.9c-1.3-2.3-2.7-4.9-4.5-8l-36.5-66.3c-3.3-6-6.6-11.9-9.9-16.3c-3.6-4.8-9.9-11.1-19.8-11.6s-16.8 5.1-21 9.4c-3.8 4-7.7 9.6-11.6 15.2l-6.6 9.4c-4.8 6.9-7.9 11.2-10.5 14.3c-2.4 2.9-3.8 3.8-4.8 4.3s-2.5 1.1-6.3 1.4c-4.1 .4-9.3 .4-17.8 .4H128c-8.8 0-16 7.2-16 16s7.2 16 16 16l16.4 0h0c7.6 0 14.4 0 20.1-.5c6.2-.6 12.2-1.8 18.1-4.9s10.4-7.3 14.4-12c3.7-4.4 7.6-9.9 11.9-16.1l6.4-9.2z"/></svg>