<svg xmlns="http://www.w3.org/2000/svg" viewBox="0 0 512 512"><!--!Font Awesome Pro 6.6.0 by @fontawesome - https://fontawesome.com License - https://fontawesome.com/license (Commercial License) Copyright 2024 Fonticons, Inc.--><path class="fa-secondary" opacity=".4" d="M42.7 256c0 117.8 95.5 213.3 213.3 213.3s213.3-95.5 213.3-213.3c0-53.2-19.4-101.8-51.6-139.1L288.6 246c-3.1 3.1-7.2 4.7-11.3 4.7s-8.2-1.6-11.3-4.7s-4.7-7.2-4.7-11.3s1.6-8.2 4.7-11.3L395.1 94.3c-37.4-32.2-86-51.6-139.1-51.6C138.2 42.7 42.7 138.2 42.7 256z"/><path class="fa-primary" d="M266 246c-6.2-6.2-6.2-16.4 0-22.6L430.7 58.7l-75.4 0c-8.8 0-16-7.2-16-16s7.2-16 16-16l114 0c8.8 0 16 7.2 16 16l0 114c0 8.8-7.2 16-16 16s-16-7.2-16-16l0-75.4L288.6 246c-6.2 6.2-16.4 6.2-22.6 0z"/></svg>