<svg xmlns="http://www.w3.org/2000/svg" viewBox="0 0 512 512"><!--!Font Awesome Pro 6.6.0 by @fontawesome - https://fontawesome.com License - https://fontawesome.com/license (Commercial License) Copyright 2024 Fonticons, Inc.--><path class="fa-secondary" opacity=".4" d="M176.1 448c14.8 0 29.7 0 44.5 0c38.4-128 76.8-256 115.2-384c-14.8 0-29.7 0-44.5 0c-38.4 128-76.8 256-115.2 384z"/><path class="fa-primary" d="M192 21.3l127.5 0c.3 0 .6 0 1 0l127.5 0c11.8 0 21.3 9.6 21.3 21.3s-9.6 21.3-21.3 21.3L335.9 64l-44.5 0L192 64c-11.8 0-21.3-9.6-21.3-21.3s9.6-21.3 21.3-21.3zM176.1 448l44.5 0 99.3 0c11.8 0 21.3 9.6 21.3 21.3s-9.6 21.3-21.3 21.3l-127.5 0c-.3 0-.6 0-1 0L64 490.7c-11.8 0-21.3-9.6-21.3-21.3s9.6-21.3 21.3-21.3l112.1 0z"/></svg>