<svg xmlns="http://www.w3.org/2000/svg" viewBox="0 0 512 512"><!--!Font Awesome Pro 6.6.0 by @fontawesome - https://fontawesome.com License - https://fontawesome.com/license (Commercial License) Copyright 2024 Fonticons, Inc.--><path class="fa-secondary" opacity=".4" d="M71.7 440.3C77 445.6 84 448 93.2 448c15.1 0 36.3-6.3 66.2-16.2c-1-4.2-1.9-8.4-2.9-12.6l-.1-.6-.5-2c-.4-1.7-.9-4.2-1.6-7.3c-1.3-6.2-3.2-14.9-5-24.7c-3.8-19.6-8-44.7-9.3-64.9c-2.2-33.4 2.1-75.2 6.7-107.9c2.3-16.5 4.8-31 6.6-41.4c.9-5.2 1.7-9.4 2.3-12.2c.3-1.4 .5-2.6 .7-3.3l.1-.6c-13.2 9.6-21.1 33.4-34.6 73.9l-36 108.1c-19.7 59-29.5 88.5-13.9 104.1zM147.8 84.1a11.4 11.4 0 1 0 16.2 16.2A11.4 11.4 0 1 0 147.8 84.1zm8.7 335.1c5.2-1.1 10.4-2.3 15.6-3.5c-15.6 3.6-15.6 3.6-15.6 3.5zm15.4-101.6c1.2 18.1 5.1 41.6 8.8 60.9c1.8 9.6 3.6 18 4.9 24c.6 3 1.2 5.4 1.6 7l.4 1.9 .1 .5 2.3 9.8c19.3-6.4 38.6-12.9 57.9-19.3c-.7-2-1.3-4-2-6c-.1-.2-.1-.4-.2-.6c-.1-.4-.3-1-.5-1.7c-.5-1.5-1.1-3.6-1.9-6.2c-1.6-5.2-3.7-12.6-5.8-21c-4.1-16.4-8.6-38.2-8.6-56.4s4.5-40 8.6-56.4c2.1-8.4 4.2-15.7 5.8-21c.8-2.6 1.4-4.7 1.9-6.2c.2-.7 .4-1.3 .5-1.7c.1-.2 .1-.3 .2-.6l4.5-13.6c-3.6-3.6-7.2-7.2-10.7-10.7c-22.3-22.3-37.7-37.7-50.8-45.4l-1.1 5.2 0 .2-.2 .8c-.1 .7-.4 1.8-.6 3.1c-.5 2.7-1.3 6.8-2.2 11.8c-1.8 10.1-4.2 24.1-6.4 40.1c-4.5 32.3-8.4 71.4-6.4 101.4zm74 78.8c5.1-1.6 10.2-3.3 15.2-5c-15.2 5-15.2 5-15.2 5zm15-85.8c0 14 3.6 32.7 7.6 48.6c1.9 7.8 3.9 14.6 5.4 19.5c.7 2.4 1.3 4.4 1.8 5.7c.2 .7 .4 1.2 .5 1.5c0 .1 .1 .2 .1 .4l2 5.9c1.9-.6 3.8-1.3 5.7-1.9c49-16.3 73.5-24.5 78.1-43.8s-13.7-37.6-50.2-74.1l-36-36c-.1 .2-.1 .3-.1 .3c-.4 1.3-1 3.3-1.8 5.7c-1.5 4.9-3.4 11.7-5.4 19.5c-4 16-7.6 34.6-7.6 48.6zm21.2-207.8c-.7 2.1-.7 4.3 0 6.4c.8 2.5 2.9 4.6 7.2 8.9s6.4 6.4 8.9 7.2c2.1 .7 4.3 .7 6.4 0c2.5-.8 4.6-2.9 8.9-7.2s6.4-6.4 7.2-8.9c.7-2.1 .7-4.3 0-6.4c-.8-2.5-2.9-4.6-7.2-8.9s-6.4-6.4-8.9-7.2c-2.1-.7-4.3-.7-6.4 0c-2.5 .8-4.6 2.9-8.9 7.2s-6.4 6.4-7.2 8.9zm11.8 107.6c-1.7 8.7 3.9 17.1 12.6 18.8s17.1-3.9 18.8-12.6l3.1-15.4c2-9.9 9.1-17.9 18.6-21.1c20.4-6.8 35.7-24.1 39.9-45.2l3.1-15.4c1.7-8.7-3.9-17.1-12.6-18.8s-17.1 3.9-18.8 12.6l-3.1 15.4c-2 9.9-9.1 17.9-18.6 21.1c-20.5 6.8-35.7 24.1-39.9 45.2l-3.1 15.4zm79.5-2.5A11.4 11.4 0 1 0 389.5 224a11.4 11.4 0 1 0 -16.2-16.2zm33.2 118.9a11.4 11.4 0 1 0 16.2 16.2 11.4 11.4 0 1 0 -16.2-16.2z"/><path class="fa-primary" d="M233.1 50.4c7.5 4.6 9.9 14.5 5.3 22c-3.3 5.5-2.5 12.5 2 17.1l2.1 2.1c12.6 12.6 17.2 31 12 48c-2.6 8.5-11.5 13.2-19.9 10.7s-13.2-11.5-10.7-19.9c1.7-5.7 .2-11.9-4-16.1l-2.1-2.1c-15-15-17.8-38.3-6.7-56.4c4.6-7.5 14.5-9.9 22-5.3zm193 100c-3 1.1-5.6 3.8-10.8 9s-7.9 7.9-9 10.8c-1.3 3.5-1.3 7.3 0 10.7c1.1 3 3.8 5.6 9 10.8s7.9 7.9 10.8 9c3.5 1.3 7.3 1.3 10.7 0c3-1.1 5.6-3.8 10.8-9s7.9-7.9 9-10.8c1.3-3.5 1.3-7.3 0-10.7c-1.1-3-3.8-5.6-9-10.8s-7.9-7.9-10.8-9c-3.5-1.3-7.3-1.3-10.7 0zm30.6 117.6c-7.7-3.4-16.7-2-23 3.6c-17.3 15.3-42.4 17.9-62.4 6.3l-4.5-2.6c-7.7-4.4-10.3-14.2-5.9-21.9s14.2-10.3 21.9-5.9l4.5 2.6c8.1 4.7 18.2 3.6 25.1-2.5c15.6-13.9 37.9-17.4 57-9l6.2 2.7c8.1 3.5 11.8 13 8.2 21.1s-13 11.8-21.1 8.3l-6.2-2.7zm-269-107.8l1.1-5.2c-8.4-4.9-15.8-6.6-23.3-4.8c-3.1 .7-5.9 2-8.5 3.7l14.9 3.1c-10.2-2.1-13.7-2.8-14.9-3.1c-.2 .2-.5 .3-.7 .5l-.1 .6c-.2 .8-.4 1.9-.7 3.3c-.6 2.9-1.4 7-2.3 12.2c-1.9 10.4-4.3 24.9-6.6 41.4c-4.6 32.7-8.8 74.5-6.7 107.9c1.3 20.2 5.5 45.3 9.3 64.9c1.9 9.9 3.7 18.5 5 24.7c.7 3.1 1.2 5.6 1.6 7.3l.5 2 .1 .5 0 .2s0 0 15.6-3.6l-15.6 3.6 2.9 12.6c5.2-1.7 10.6-3.5 16.3-5.4l14.2-4.7-2.3-9.8-.1-.5-.4-1.9c-.4-1.6-.9-4-1.6-7c-1.3-6-3.1-14.4-4.9-24c-3.7-19.3-7.6-42.8-8.8-60.9c-2-29.9 1.9-69 6.4-101.4c2.2-16 4.6-30.1 6.4-40.1c.9-5 1.7-9 2.2-11.8c.3-1.4 .5-2.4 .6-3.1l.2-.8 0-.2 0-.1zm90.4 232.2l-30.4 10.1-2-5.9 15.2-5c-15.2 5-15.2 5-15.2 5l0-.1 0-.1-.2-.5c-.1-.4-.3-1-.5-1.7c-.5-1.5-1.1-3.6-1.9-6.2c-1.6-5.2-3.7-12.6-5.8-21c-4.1-16.4-8.6-38.2-8.6-56.4s4.5-40 8.6-56.4c2.1-8.4 4.2-15.7 5.8-21c.8-2.6 1.4-4.7 1.9-6.2c.2-.7 .4-1.3 .5-1.7l.2-.5 0-.1 0 0s0 0 15.2 5l-15.2-5 4.5-13.6 25.3 25.3c0 .1-.1 .2-.1 .3c-.4 1.3-1 3.3-1.8 5.7c-1.5 4.9-3.4 11.7-5.4 19.5c-4 16-7.6 34.6-7.6 48.6s3.6 32.7 7.6 48.6c1.9 7.8 3.9 14.6 5.4 19.5c.7 2.4 1.3 4.4 1.8 5.7c.2 .7 .4 1.2 .5 1.5l.1 .4 0 .1 2 5.9z"/></svg>