<svg xmlns="http://www.w3.org/2000/svg" viewBox="0 0 512 512"><!--!Font Awesome Pro 6.6.0 by @fontawesome - https://fontawesome.com License - https://fontawesome.com/license (Commercial License) Copyright 2024 Fonticons, Inc.--><path class="fa-secondary" opacity=".4" d="M106.7 170.7l0 170.7c0 60.3 0 90.5 18.7 109.3s48.9 18.7 109.3 18.7l42.7 0c60.3 0 90.5 0 109.3-18.7c18.7-18.7 18.7-48.8 18.7-108.9l0-.4 0-170.7c0-60.3 0-90.5-18.7-109.3c-18.7-18.7-48.8-18.7-108.9-18.7l-.4 0-42.7 0c-60.3 0-90.5 0-109.3 18.7s-18.7 48.9-18.7 109.3zm80 234.7c0-8.8 7.2-16 16-16l106.7 0c8.8 0 16 7.2 16 16s-7.2 16-16 16l-106.7 0c-8.8 0-16-7.2-16-16z"/><path class="fa-primary" d="M202.7 389.3c-8.8 0-16 7.2-16 16s7.2 16 16 16H309.3c8.8 0 16-7.2 16-16s-7.2-16-16-16H202.7zM35.5 113.7c7.9-4 17.5-.7 21.5 7.2L73.5 154c5.3 10.5 5.3 22.9 0 33.4L61.8 211c-.8 1.5-.8 3.3 0 4.8l11.8 23.6c5.3 10.5 5.3 22.9 0 33.4L61.8 296.3c-.8 1.5-.8 3.3 0 4.8l11.8 23.6c5.3 10.5 5.3 22.9 0 33.4L57 391.2c-4 7.9-13.6 11.1-21.5 7.2s-11.1-13.6-7.2-21.5l16.6-33.1c.8-1.5 .8-3.3 0-4.8L33.1 315.4c-5.3-10.5-5.3-22.9 0-33.4l11.8-23.6c.8-1.5 .8-3.3 0-4.8L33.1 230c-5.3-10.5-5.3-22.9 0-33.4l11.8-23.6c.8-1.5 .8-3.3 0-4.8L28.4 135.2c-4-7.9-.7-17.5 7.2-21.5zm441 0c7.9 4 11.1 13.6 7.2 21.5l-16.6 33.1c-.8 1.5-.8 3.3 0 4.8l11.8 23.6c5.3 10.5 5.3 22.9 0 33.4l-11.8 23.6c-.8 1.5-.8 3.3 0 4.8L478.9 282c5.3 10.5 5.3 22.9 0 33.4L467.1 339c-.8 1.5-.8 3.3 0 4.8l16.6 33.1c4 7.9 .7 17.5-7.2 21.5s-17.5 .7-21.5-7.2L438.5 358c-5.3-10.5-5.3-22.9 0-33.4l11.8-23.6c.8-1.5 .8-3.3 0-4.8l-11.8-23.6c-5.3-10.5-5.3-22.9 0-33.4l11.8-23.6c.8-1.5 .8-3.3 0-4.8l-11.8-23.6c-5.3-10.5-5.3-22.9 0-33.4L455 120.8c4-7.9 13.6-11.1 21.5-7.2z"/></svg>