<svg xmlns="http://www.w3.org/2000/svg" viewBox="0 0 512 512"><!--!Font Awesome Pro 6.6.0 by @fontawesome - https://fontawesome.com License - https://fontawesome.com/license (Commercial License) Copyright 2024 Fonticons, Inc.--><path class="fa-secondary" opacity=".4" d="M42.7 256c0 100.6 0 150.9 31.2 182.1s81.5 31.2 182.1 31.2s150.9 0 182.1-31.2c31.2-31.2 31.2-81.3 31.2-181.3l0-.8c0-100.6 0-150.8-31.2-182.1S356.6 42.7 256 42.7s-150.8 0-182.1 31.2S42.7 155.4 42.7 256zm106.7 14.2c0-39.6 22.7-64.7 41.7-77.4c8.7-5.8 19.5-2.1 20.1 8.4c1.2 22.8 18.8 41.2 32.5 22.8c12.5-16.8 18.6-39.6 18.6-53.4c0-20.2 20.4-33 36.4-20.7c31.1 24.1 64 64.5 64 120.2c0 91-75.9 113.8-113.8 113.8c-33.2 0-99.6-22.8-99.6-113.8z"/><path class="fa-primary" d="M362.7 270.2c0 91-75.9 113.8-113.8 113.8c-33.2 0-99.6-22.8-99.6-113.8c0-39.6 22.7-64.7 41.7-77.4c8.7-5.8 19.5-2.1 20.1 8.4c1.2 22.8 18.8 41.2 32.5 22.8c12.5-16.8 18.6-39.6 18.6-53.4c0-20.2 20.4-33 36.4-20.7c31.1 24.1 64 64.5 64 120.2z"/></svg>