<svg xmlns="http://www.w3.org/2000/svg" viewBox="0 0 512 512"><!--!Font Awesome Pro 6.6.0 by @fontawesome - https://fontawesome.com License - https://fontawesome.com/license (Commercial License) Copyright 2024 Fonticons, Inc.--><path class="fa-secondary" opacity=".4" d="M298.7 128c0-40.2 0-60.3 12.5-72.8c12.5-12.5 32.5-12.5 72.6-12.5l.2 0c40.2 0 60.3 0 72.8 12.5c12.5 12.5 12.5 32.5 12.5 72.6l0 .2 0 256c0 40.2 0 60.3-12.5 72.8c-12.5 12.5-32.5 12.5-72.6 12.5l-.2 0c-40.2 0-60.3 0-72.8-12.5c-12.5-12.5-12.5-32.5-12.5-72.6l0-.2 0-256z"/><path class="fa-primary" d="M42.7 128c0-40.2 0-60.3 12.5-72.8S87.8 42.7 128 42.7s60.3 0 72.8 12.5s12.5 32.6 12.5 72.8V384c0 40.2 0 60.3-12.5 72.8s-32.6 12.5-72.8 12.5s-60.3 0-72.8-12.5S42.7 424.2 42.7 384V128z"/></svg>