<svg xmlns="http://www.w3.org/2000/svg" viewBox="0 0 512 512"><!--!Font Awesome Pro 6.6.0 by @fontawesome - https://fontawesome.com License - https://fontawesome.com/license (Commercial License) Copyright 2024 Fonticons, Inc.--><path class="fa-secondary" opacity=".4" d="M52.2 243.4c-20.7-40.5-7.4-92.9 35.4-115.5c20.2-10.7 42.9-20.8 65.5-27.3c38.3-11 74-13.4 97.7-13.5c12.6-.1 18.9-.1 26.7 3.2c2.3 1 4.4 2.1 6.5 3.5c4.9 3.3 9.7 8.1 17.1 15.5c34.3 34.3 68.6 68.6 102.9 102.9c6.4 6.4 11 11 14.4 15.4c2.5 3.3 4.4 6.4 5.7 10c3.3 8.4 2.9 15.3 2.2 28.9c-1.1 22.9-4.8 56-15.2 92.4c-6.4 22.5-16.6 45.2-27.3 65.5c-22.6 42.8-75 56.1-115.5 35.4l-26-15.8C171.3 400.6 111.4 340.7 68 269.4l-15.8-26zM406.8 82.6L458 31.4c3.1-3.1 7.2-4.7 11.3-4.7s8.2 1.6 11.3 4.7s4.7 7.2 4.7 11.3s-1.6 8.2-4.7 11.3l-51.2 51.2c-1.5-2.1-3.1-4.2-4.9-6.3s-3.5-4-5.5-6c-3.9-3.9-8-7.3-12.3-10.4z"/><path class="fa-primary" d="M419 93c-37-37-97.1-37-134.1 0l-.8 .8c4.9 3.3 9.7 8.1 17.1 15.5L404.2 212.2c6.4 6.4 11 11 14.4 15.4l.5-.5c37-37 37-97.1 0-134.1z"/></svg>