<svg xmlns="http://www.w3.org/2000/svg" viewBox="0 0 512 512"><!--!Font Awesome Pro 6.6.0 by @fontawesome - https://fontawesome.com License - https://fontawesome.com/license (Commercial License) Copyright 2024 Fonticons, Inc.--><path class="fa-secondary" opacity=".4" d="M42.7 256c0 100.6 0 150.9 31.2 182.1s81.5 31.2 182.1 31.2s150.9 0 182.1-31.2s31.2-81.5 31.2-182.1l0-.8c0-100.1-.1-150.2-31.2-181.3C406.9 42.7 356.6 42.7 256 42.7s-150.8 0-182.1 31.2S42.7 155.4 42.7 256zm58.7-85.3c0-8.8 7.2-16 16-16s16 7.2 16 16l0 69.3 70.7 0 0-69.3c0-8.8 7.2-16 16-16s16 7.2 16 16l0 170.7c0 8.8-7.2 16-16 16s-16-7.2-16-16l0-69.3-70.7 0 0 69.3c0 8.8-7.2 16-16 16s-16-7.2-16-16l0-170.7zm154.1 17.1c0-20.9 19.3-33.1 36.5-33.1c62.7 0 118.7 42.7 118.7 101.3s-56.1 101.3-118.7 101.3c-17.3 0-36.5-12.2-36.5-33.1l0-136.5zm32 .5l0 135.6c.1 .1 .1 .1 .2 .2c.7 .6 2.2 1.3 4.3 1.3c50.8 0 86.7-33.7 86.7-69.3s-35.9-69.3-86.7-69.3c-2.1 0-3.6 .7-4.3 1.3c-.1 .1-.2 .2-.2 .2z"/><path class="fa-primary" d="M117.3 154.7c8.8 0 16 7.2 16 16V240H204V170.7c0-8.8 7.2-16 16-16s16 7.2 16 16V341.3c0 8.8-7.2 16-16 16s-16-7.2-16-16V272H133.3v69.3c0 8.8-7.2 16-16 16s-16-7.2-16-16V170.7c0-8.8 7.2-16 16-16zm174.6 0c-17.3 0-36.5 12.2-36.5 33.1l0 136.5c0 20.9 19.3 33.1 36.5 33.1c62.7 0 118.7-42.7 118.7-101.3s-56.1-101.3-118.7-101.3zM287.6 188c.7-.6 2.2-1.3 4.3-1.3c50.8 0 86.7 33.7 86.7 69.3s-35.9 69.3-86.7 69.3c-2.1 0-3.6-.7-4.3-1.3c-.1-.1-.2-.2-.2-.2l0-135.6c.1-.1 .1-.1 .2-.2z"/></svg>