<svg xmlns="http://www.w3.org/2000/svg" viewBox="0 0 512 512"><!--!Font Awesome Pro 6.6.0 by @fontawesome - https://fontawesome.com License - https://fontawesome.com/license (Commercial License) Copyright 2024 Fonticons, Inc.--><path class="fa-secondary" opacity=".4" d="M112 384c0 4.1 1.6 8.2 4.7 11.3s7.2 4.7 11.3 4.7s8.2-1.6 11.3-4.7L288 246.6 265.4 224 116.7 372.7c-3.1 3.1-4.7 7.2-4.7 11.3z"/><path class="fa-primary" d="M372.7 331.3c4.6 4.6 11.5 5.9 17.4 3.5s9.9-8.3 9.9-14.8l0-192c0-8.8-7.2-16-16-16l-192 0c-6.5 0-12.3 3.9-14.8 9.9s-1.1 12.9 3.5 17.4l192 192z"/></svg>