<svg xmlns="http://www.w3.org/2000/svg" viewBox="0 0 512 512"><!--!Font Awesome Pro 6.6.0 by @fontawesome - https://fontawesome.com License - https://fontawesome.com/license (Commercial License) Copyright 2024 Fonticons, Inc.--><path class="fa-secondary" opacity=".4" d="M197.3 469.3c0 8.8 7.2 16 16 16l85.3 0c8.8 0 16-7.2 16-16s-7.2-16-16-16l-26.7 0 0-37.3-32 0c0 12.4 0 24.9 0 37.3l-26.7 0c-8.8 0-16 7.2-16 16zM240 42.7c0 10.7 0 21.3 0 32l32 0 0-32c0-8.8-7.2-16-16-16s-16 7.2-16 16zM240 224c0 14.2 0 28.4 0 42.7l32 0 0-42.7-32 0z"/><path class="fa-primary" d="M240 74.7H143c-14 0-21 0-27.5 2.1c-2.8 .9-5.6 2.1-8.2 3.6c-5.9 3.4-10.5 8.6-19.9 19C69.3 119.7 60.2 129.8 58 141.6c-.9 5.1-.9 10.4 0 15.5c2.2 11.8 11.3 21.9 29.4 42.1c9.4 10.4 14.1 15.7 19.9 19c2.6 1.5 5.3 2.7 8.2 3.6C122 224 129 224 143 224h97 32H373.3c30 0 44.9 0 55.7-7.2c4.7-3.1 8.7-7.1 11.8-11.8c7.2-10.8 7.2-25.7 7.2-55.7s0-44.9-7.2-55.7C437.7 89 433.7 85 429 81.9c-10.8-7.2-25.7-7.2-55.7-7.2H272 240zm0 192H138.7c-30 0-44.9 0-55.7 7.2c-4.7 3.1-8.7 7.1-11.8 11.8C64 296.4 64 311.4 64 341.3s0 44.9 7.2 55.7c3.1 4.7 7.1 8.7 11.8 11.8c10.8 7.2 25.7 7.2 55.7 7.2H240h32 97c14 0 21 0 27.5-2.1c2.8-.9 5.6-2.1 8.2-3.6c5.9-3.4 10.5-8.6 19.9-19c18.1-20.2 27.2-30.3 29.4-42.1c.9-5.1 .9-10.4 0-15.5c-2.2-11.8-11.3-21.9-29.4-42.1c-9.4-10.4-14.1-15.7-19.9-19c-2.6-1.5-5.3-2.7-8.2-3.6c-6.4-2.1-13.5-2.1-27.5-2.1H272 240z"/></svg>