<svg xmlns="http://www.w3.org/2000/svg" viewBox="0 0 512 512"><!--!Font Awesome Pro 6.6.0 by @fontawesome - https://fontawesome.com License - https://fontawesome.com/license (Commercial License) Copyright 2024 Fonticons, Inc.--><path class="fa-secondary" opacity=".4" d="M26.7 469.3c0 4.1 1.6 8.2 4.7 11.3s7.2 4.7 11.3 4.7s8.2-1.6 11.3-4.7l122-122 0 86.3c0 8.8 7.2 16 16 16s16-7.2 16-16l0-125c0-8.8-7.2-16-16-16L67 304c-8.8 0-16 7.2-16 16s7.2 16 16 16l86.3 0L31.4 458c-3.1 3.1-4.7 7.2-4.7 11.3z"/><path class="fa-primary" d="M461 192c0 8.8-7.2 16-16 16l-125 0c-8.8 0-16-7.2-16-16l0-125c0-8.8 7.2-16 16-16s16 7.2 16 16l0 86.3 122-122c6.2-6.2 16.4-6.2 22.6 0s6.2 16.4 0 22.6l-122 122 86.3 0c8.8 0 16 7.2 16 16z"/></svg>