<svg xmlns="http://www.w3.org/2000/svg" viewBox="0 0 512 512"><!--!Font Awesome Pro 6.6.0 by @fontawesome - https://fontawesome.com License - https://fontawesome.com/license (Commercial License) Copyright 2024 Fonticons, Inc.--><path class="fa-secondary" opacity=".4" d="M26.7 330.7l0 42.7c0 8.8 7.1 16 16 16c0-3.2 0-6.6 0-10.2l0-37.3c0-10.8 0-19.7 .3-27.1c-.1 0-.2 0-.3 0c-8.8 0-16 7.2-16 16zM48 255l0 32.8c.5-1.1 1.1-2.2 1.7-3.2c3.6-5.9 8.4-11 14.1-14.9c4.5-3.1 9.6-5.2 16.2-6.8l0-6.9c0-40.4 0-69.3 2.5-91.8c2.4-22.1 7-36 14.9-46.9c5.6-7.7 12.4-14.5 20.1-20.1c10.8-7.9 24.7-12.5 46.9-14.9C186.7 80 215.6 80 256 80s69.3 0 91.8 2.5c22.1 2.4 36 7 46.9 14.9c7.7 5.6 14.5 12.4 20.1 20.1c7.9 10.8 12.5 24.7 14.9 46.9c2.4 22.4 2.5 51.4 2.5 91.8l0 6.9c6.5 1.6 11.7 3.7 16.2 6.8c5.7 4 10.5 9.1 14.1 14.9c.6 1 1.2 2.1 1.7 3.2l0-32.8c0-39.2 0-69.9-2.6-94.3c-2.7-24.9-8.3-45-20.8-62.2C433 88.2 423.8 79 413.4 71.4c-17.2-12.5-37.3-18.1-62.2-20.8C327.1 48 296.7 48 258 48l-1 0L255 48c-39.2 0-69.9 0-94.3 2.6c-24.9 2.7-45 8.3-62.2 20.8C88.2 79 79 88.2 71.4 98.6c-12.5 17.2-18.1 37.3-20.8 62.2C48 185.1 48 215.9 48 255zm421 59.6c.3 7.5 .3 16.5 .3 27.3l0 37.1c0 3.6 0 7 0 10.2c8.9 0 16-7.2 16-16l0-42.7c0-8.8-7.2-16-16-16c-.1 0-.2 0-.3 0z"/><path class="fa-primary" d="M170.7 299.7c0-18.1 0-27.2-4.5-33.5c-2.3-3.2-5.2-5.8-8.7-7.7c-6.9-3.7-16.3-2.8-35-1.1c-31.5 2.9-47.3 4.3-58.6 12.2c-5.7 4-10.5 9.1-14.1 14.9c-7.1 11.6-7.1 26.9-7.1 57.4v37.1c0 30.2 0 45.3 7.2 57c2.7 4.4 6.1 8.3 10 11.7c10.6 9 26 11.8 56.8 17.4c21.7 4 32.5 5.9 40.5 1.8c3-1.5 5.6-3.6 7.7-6.1c5.7-6.8 5.7-17.4 5.7-38.7V299.7zm170.7 0c0-18.1 0-27.2 4.5-33.5c2.3-3.2 5.2-5.8 8.7-7.7c6.9-3.7 16.3-2.8 35-1.1c31.5 2.9 47.3 4.3 58.6 12.2c5.7 4 10.5 9.1 14.1 14.9c7.1 11.6 7.1 26.9 7.1 57.4v37.1c0 30.2 0 45.3-7.2 57c-2.7 4.4-6.1 8.3-10 11.7c-10.6 9-26 11.8-56.8 17.4c-21.7 4-32.5 5.9-40.5 1.8c-3-1.5-5.6-3.6-7.7-6.1c-5.7-6.8-5.7-17.4-5.7-38.7V299.7z"/></svg>