<svg xmlns="http://www.w3.org/2000/svg" viewBox="0 0 512 512"><!--!Font Awesome Pro 6.5.2 by @fontawesome - https://fontawesome.com License - https://fontawesome.com/license (Commercial License) Copyright 2024 Fonticons, Inc.--><path class="fa-secondary" opacity=".4" d="M128 174c0-49.1 0-73.6 10.3-91.9c6.7-11.9 16.4-21.8 28.1-28.8c17.8-10.6 41.7-10.6 89.6-10.6l.3 0c47.6 0 71.5 0 89.3 10.6c11.7 7 21.4 16.9 28.1 28.8C384 100.3 384 124.9 384 174l0 45.1c-2.9 6.3-4.5 13.4-4.5 20.9l0 65.9c0 20.1 0 30.2-6.3 36.4c-6.3 6.3-16.3 6.3-36.4 6.3l-161.7 0c-20.1 0-30.2 0-36.4-6.3c-6.2-6.2-6.2-16.3-6.2-36.4l0-65.9c0-7.5-1.6-14.6-4.5-20.9l0-45z"/><path class="fa-primary" d="M366.5 448h-221c-15.9 0-25.8 0-33.5-.9v27.5a16 16 0 0 1 -32 0v-39.8a85.4 85.4 0 0 1 -35.3-53.2c-2-9.4-2-20.7-2-43.4v-98.4c0-26.5 20.1-47.9 44.9-47.9c24.8 0 44.9 21.4 44.9 47.9v65.9c0 20.1 0 30.2 6.2 36.4c6.3 6.3 16.3 6.3 36.4 6.3h161.7c20.1 0 30.2 0 36.4-6.3c6.3-6.2 6.3-16.3 6.3-36.4v-65.9c0-26.5 20.1-47.9 44.9-47.9c24.8 0 44.9 21.4 44.9 47.9v98.4c0 22.7 0 34-2 43.4A85.4 85.4 0 0 1 432 434.9v39.8a16 16 0 0 1 -32 0v-27.6c-7.7 .9-17.6 .9-33.5 .9"/></svg>