<svg xmlns="http://www.w3.org/2000/svg" viewBox="0 0 512 512"><!--!Font Awesome Pro 6.6.0 by @fontawesome - https://fontawesome.com License - https://fontawesome.com/license (Commercial License) Copyright 2024 Fonticons, Inc.--><path class="fa-secondary" opacity=".4" d="M42.7 256l0 153.7c0 27.4 28.8 45.2 53.3 33c19.8-9.9 43.4-8.4 61.8 3.8c10.4 6.9 22.3 10.4 34.2 10.4s23.9-3.5 34.2-10.4l7.5-5c13.5-9 31-9 44.5 0l7.5 5c10.4 6.9 22.3 10.4 34.2 10.4s23.9-3.5 34.2-10.4c18.4-12.3 42-13.7 61.8-3.8c24.5 12.2 53.3-5.6 53.3-33l0-153.7c0-117.8-95.5-213.3-213.3-213.3S42.7 138.2 42.7 256zm128-32c0-17.7 9.6-32 21.3-32s21.3 14.3 21.3 32s-9.6 32-21.3 32s-21.3-14.3-21.3-32zm128 0c0-17.7 9.6-32 21.3-32s21.3 14.3 21.3 32s-9.6 32-21.3 32s-21.3-14.3-21.3-32z"/><path class="fa-primary" d="M320 256c11.8 0 21.3-14.3 21.3-32s-9.6-32-21.3-32s-21.3 14.3-21.3 32s9.6 32 21.3 32zM213.3 224c0 17.7-9.6 32-21.3 32s-21.3-14.3-21.3-32s9.6-32 21.3-32s21.3 14.3 21.3 32z"/></svg>