<svg xmlns="http://www.w3.org/2000/svg" viewBox="0 0 512 512"><!--!Font Awesome Pro 6.6.0 by @fontawesome - https://fontawesome.com License - https://fontawesome.com/license (Commercial License) Copyright 2024 Fonticons, Inc.--><path class="fa-secondary" opacity=".4" d="M64 227.2l0 34.5c12.5-1.9 24.9-3.8 37.3-5.7c1.8 0 3.6 0 5.3 0l298.7 0 5.3 0c12.4 1.9 24.8 3.8 37.3 5.7c-.1-11.5-.1-23-.1-34.5c-.4-61.6-3.1-95-24.9-116.9c-25-25-65.2-25-145.7-25l-42.7 0c-80.5 0-120.7 0-145.7 25C67.1 132.1 64.4 165.6 64 227.2zm42.7-3.2c0-25.3 0-42.3 1.7-55c1.6-12.1 4.4-17.3 7.8-20.7s8.5-6.2 20.5-7.9c12.5-1.7 29.4-1.7 54.4-1.7l45.5 0 0 85.3-129.9 0zm168.8-85.3l45.5 0c25 0 41.9 0 54.4 1.7c12 1.6 17.1 4.4 20.5 7.9s6.2 8.6 7.8 20.7c1.7 12.7 1.7 29.7 1.7 55l-129.9 0 0-85.3z"/><path class="fa-primary" d="M64.1 261.7c-8.1 4.7-14.5 11.9-18.1 20.7c-3.2 7.8-3.2 17.8-3.2 37.7s0 29.8 3.2 37.7c4.3 10.5 12.6 18.8 23.1 23.1c5.4 2.2 11.8 2.9 21.7 3.1v42.8c0 8.8 7.2 16 16 16s16-7.2 16-16V384H389.3v42.7c0 8.8 7.2 16 16 16s16-7.2 16-16V383.9c9.9-.2 16.3-.9 21.7-3.1c10.5-4.3 18.8-12.6 23.1-23.1c3.2-7.8 3.2-17.8 3.2-37.7s0-29.8-3.2-37.7c-3.6-8.7-10-16-18.1-20.7L410.7 256l-5.3 0H106.7l-5.3 0-37.3 5.7zM405.3 224c0-25.3 0-42.3-1.7-55c-1.6-12.1-4.4-17.3-7.8-20.7s-8.5-6.2-20.5-7.9c-12.5-1.7-29.4-1.7-54.4-1.7H275.5V224l129.9 0zm-168.8 0V138.7H191.1c-25 0-41.9 0-54.4 1.7c-12 1.6-17.1 4.4-20.5 7.9s-6.2 8.6-7.8 20.7c-1.7 12.7-1.7 29.7-1.7 55l129.9 0z"/></svg>