<svg xmlns="http://www.w3.org/2000/svg" viewBox="0 0 512 512"><!--!Font Awesome Pro 6.6.0 by @fontawesome - https://fontawesome.com License - https://fontawesome.com/license (Commercial License) Copyright 2024 Fonticons, Inc.--><path class="fa-secondary" opacity=".4" d="M106.7 37.3l0 426.7c0 8.8 7.2 16 16 16s16-7.2 16-16l0-173.9 0-213.3 0-39.5c0-8.8-7.2-16-16-16s-16 7.2-16 16z"/><path class="fa-primary" d="M289.2 82.6l-8.8-3.5c-33.3-13.3-69.8-16.7-105.1-9.6l-36.7 7.3V290.1l36.7-7.3c35.2-7 71.7-3.7 105.1 9.6c36.1 14.5 75.9 17.1 113.6 7.7l2.1-.5c12.5-3.1 18.4-17.4 11.8-28.5l-33.3-55.5c-7.3-12.1-10.9-18.2-11.8-24.8c-.4-2.8-.4-5.5 0-8.3c.9-6.6 4.5-12.7 11.8-24.8L402 112.2c7.1-11.9-3.7-26.5-17.1-23.1c-31.8 7.9-65.2 5.7-95.6-6.5z"/></svg>