<svg xmlns="http://www.w3.org/2000/svg" viewBox="0 0 512 512"><!--!Font Awesome Pro 6.5.2 by @fontawesome - https://fontawesome.com License - https://fontawesome.com/license (Commercial License) Copyright 2024 Fonticons, Inc.--><path class="fa-secondary" opacity=".4" d="M48 272c0 114.9 93.1 208 208 208s208-93.1 208-208c0-83.6-50.1-159.1-127.1-191.7c-8.1-3.4-17.5 .4-21 8.5s.4 17.5 8.5 21c77.1 32.6 120.5 115 103.9 197.1s-88.7 141-172.4 141.1c-83.8 .1-156-59-172.6-141.1s27-164.6 104.2-197.1c8.1-3.4 12-12.8 8.5-21c-2.6-6.1-8.5-9.8-14.7-9.8c-2.1 0-4.2 .4-6.2 1.3C98.1 112.9 48 188.4 48 272z"/><path class="fa-primary" d="M272 58.7a16 16 0 0 0 -32 0V144a16 16 0 0 0 32 0z"/></svg>