<svg xmlns="http://www.w3.org/2000/svg" viewBox="0 0 512 512"><!--!Font Awesome Pro 6.6.0 by @fontawesome - https://fontawesome.com License - https://fontawesome.com/license (Commercial License) Copyright 2024 Fonticons, Inc.--><path class="fa-secondary" opacity=".4" d="M106.7 256c0-38.8 14.9-74.2 39.3-100.7c27.3-29.6 66.5-48.2 110-48.2c43.5 0 82.7 18.6 110 48.2c24.4 26.5 39.3 61.8 39.3 100.7s-14.9 74.2-39.3 100.7c-27.3 29.6-66.5 48.2-110 48.2s-82.7-18.6-110-48.2c-24.4-26.5-39.3-61.9-39.3-100.7zm134.4-61.1l0 61.1c0 4 1.7 7.9 4.6 10.7l39.8 38.2c5.9 5.7 15.4 5.5 21.1-.4s5.5-15.3-.4-21l-35.2-33.8 0-54.7c0-8.2-6.7-14.9-14.9-14.9s-14.9 6.7-14.9 14.9z"/><path class="fa-primary" d="M239.1 42.7h33.8c32.8 0 49.2 0 60.9 9.4s15.3 25.4 22.4 57.4l6.5 29.2 3.3 16.7c-27.3-29.6-66.5-48.2-110-48.2s-82.7 18.6-110 48.2l3.3-16.7 6.5-29.2c7.1-32 10.7-48.1 22.4-57.4s28.1-9.4 60.9-9.4zM366 356.7c-27.3 29.6-66.5 48.2-110 48.2s-82.7-18.6-110-48.2l3.3 16.7 6.5 29.2c7.1 32 10.7 48.1 22.4 57.4s28.1 9.4 60.9 9.4h33.8c32.8 0 49.2 0 60.9-9.4s15.3-25.4 22.4-57.4l6.5-29.2 3.3-16.7zM270.9 194.9c0-8.2-6.7-14.9-14.9-14.9s-14.9 6.7-14.9 14.9V256c0 4 1.7 7.9 4.6 10.7l39.8 38.2c5.9 5.7 15.4 5.5 21.1-.4s5.5-15.3-.4-21l-35.2-33.8V194.9z"/></svg>