<svg xmlns="http://www.w3.org/2000/svg" viewBox="0 0 512 512"><!--!Font Awesome Pro 6.6.0 by @fontawesome - https://fontawesome.com License - https://fontawesome.com/license (Commercial License) Copyright 2024 Fonticons, Inc.--><path class="fa-secondary" opacity=".4" d="M42.7 240c0-61.9 43-112 96-112l202.7 0 0 91.3c0 8.5 6.6 15.3 14.8 15.3s14.8-6.9 14.8-15.3l0-78.8 5.5-1.1c8.9-1.8 18-.9 26.5 2.4c7.8 3.1 16 4.9 24.2 5.3c25.5 20.1 42.3 54.2 42.3 92.9l0 131.7c0 30.3-21.1 54.9-47.1 54.9l-102.3 0-21.3 0-10.7 0-53.3 0-32 0-112.4 0c-26.3 0-47.6-24.9-47.6-55.6l0-131.1zm48 101.3c0 8.8 7.2 16 16 16l64 0c8.8 0 16-7.2 16-16s-7.2-16-16-16l-64 0c-8.8 0-16 7.2-16 16z"/><path class="fa-primary" d="M202.7 426.7v42.7c0 8.8 7.2 16 16 16s16-7.2 16-16V426.7h-32zm117.3 0H288v42.7c0 8.8 7.2 16 16 16s16-7.2 16-16V426.7zM90.7 341.3c0-8.8 7.2-16 16-16l64 0c8.8 0 16 7.2 16 16s-7.2 16-16 16l-64 0c-8.8 0-16-7.2-16-16zM370.9 140.5l5.5-1.1c8.9-1.8 18-.9 26.5 2.4c14.7 5.9 30.8 7 46.2 3.2l1.3-.3c11.2-2.8 19-13.2 19-25.1l0-45.5c0-15.7-14.2-27.3-28.9-23.7c-8.5 2.1-17.3 1.5-25.5-1.7l-1.6-.6c-13.6-5.4-28.4-6.8-42.7-3.9L361.2 46c-11.5 2.3-19.8 12.8-19.8 25l0 148.3c0 8.5 6.6 15.3 14.8 15.3s14.8-6.9 14.8-15.3l0-78.8z"/></svg>