<svg xmlns="http://www.w3.org/2000/svg" viewBox="0 0 512 512"><!--!Font Awesome Pro 6.6.0 by @fontawesome - https://fontawesome.com License - https://fontawesome.com/license (Commercial License) Copyright 2024 Fonticons, Inc.--><path class="fa-secondary" opacity=".4" d="M42.7 394.7c0-23.2 0-34.8 3.7-43.9c4.9-12.2 14.2-21.9 26-26.9c8.8-3.8 20-3.8 42.4-3.8l48 0c22.4 0 33.5 0 42.4 3.8c11.8 5.1 21.1 14.7 26 26.9c3.7 9.1 3.7 20.7 3.7 43.9s0 34.8-3.7 43.9c-4.9 12.2-14.2 21.9-26 26.9c-8.8 3.8-20 3.8-42.4 3.8l-48 0c-22.4 0-33.5 0-42.4-3.8c-11.8-5.1-21.1-14.7-26-26.9c-3.7-9.1-3.7-20.7-3.7-43.9zm234.7-66.1c0-44.2 0-66.4 14.1-80.1c14-13.7 36.6-13.7 81.6-13.7l.3 0c45.3 0 67.9 0 81.9 13.7c14 13.7 14.1 35.8 14.1 79.9l0 .2 0 46.9c0 44.2 0 66.4-14.1 80.1s-36.7 13.7-81.9 13.7s-67.9 0-81.9-13.7s-14.1-35.9-14.1-80.1l0-46.9z"/><path class="fa-primary" d="M42.7 183.5c0 44.2 0 66.4 14.1 80.1s36.7 13.7 81.9 13.7s67.9 0 81.9-13.7s14.1-35.9 14.1-80.1V136.5c0-44.2 0-66.4-14.1-80.1s-36.7-13.7-81.9-13.7s-67.9 0-81.9 13.7S42.7 92.3 42.7 136.5v46.9zm234.7-66.1c0-23.2 0-34.8 3.7-43.9c4.9-12.2 14.2-21.9 26-26.9c8.8-3.8 20-3.8 42.4-3.8h48c22.4 0 33.5 0 42.4 3.8c11.8 5.1 21.1 14.7 26 26.9c3.7 9.1 3.7 20.7 3.7 43.9s0 34.8-3.7 43.9c-4.9 12.2-14.2 21.9-26 26.9c-8.8 3.8-20 3.8-42.4 3.8h-48c-22.4 0-33.5 0-42.4-3.8c-11.8-5.1-21.1-14.7-26-26.9c-3.7-9.1-3.7-20.7-3.7-43.9z"/></svg>