<svg xmlns="http://www.w3.org/2000/svg" viewBox="0 0 512 512"><!--!Font Awesome Pro 6.6.0 by @fontawesome - https://fontawesome.com License - https://fontawesome.com/license (Commercial License) Copyright 2024 Fonticons, Inc.--><path class="fa-secondary" opacity=".4" d="M42.7 298.7c0 80.5 0 120.7 25 145.7c24.9 24.9 65.1 25 145.2 25l.5 0 85.3 0c80.5 0 120.7 0 145.7-25c24.9-24.9 25-65.1 25-145.2l0-.5c0-80.5 0-120.7-25-145.7c-13.9-13.9-32.6-20.1-60.4-22.8c0 5.9 0 12.3 0 19.2c0 14.7 0 29.3 0 44c0 9.8 0 14.7-2 19c-2 4.3-5.8 7.5-13.3 13.7c-10.2 8.5-20.5 17.1-30.7 25.6c-39.2 32.7-58.8 49-81.9 49s-42.8-16.3-81.9-49c-10.2-8.5-20.5-17.1-30.7-25.6c-7.5-6.3-11.3-9.4-13.3-13.7c-2-4.3-2-9.2-2-19c0-14.7 0-29.3 0-44c0-2.3 0-4.6 0-6.8c0-2.1 0-4.2 0-6.2c0-2.1 0-4.1 0-6.1c-27.7 2.7-46.4 8.9-60.3 22.8c-25 25-25 65.2-25 145.7z"/><path class="fa-primary" d="M143.4 226.1l30.7 25.6c39.2 32.7 58.8 49 81.9 49s42.8-16.3 81.9-49l30.7-25.6c7.5-6.3 11.3-9.4 13.3-13.7s2-9.2 2-19l0-44c0-6.8 0-13.2 0-19.2c-.2-37.8-2.1-58.4-15.6-71.9c-15.6-15.6-40.8-15.6-91-15.6l-42.7 0c-50.3 0-75.4 0-91 15.6c-13.5 13.5-15.4 34.1-15.6 71.9c0 5.9 0 12.3 0 19.2l0 44c0 9.8 0 14.7 2 19s5.8 7.4 13.3 13.7zm54-98.1c0-8.8 7.2-16 16-16l85.3 0c8.8 0 16 7.2 16 16s-7.2 16-16 16l-85.3 0c-8.8 0-16-7.2-16-16zm21.3 64c0-8.8 7.2-16 16-16l42.7 0c8.8 0 16 7.2 16 16s-7.2 16-16 16l-42.7 0c-8.8 0-16-7.2-16-16z"/></svg>