<svg xmlns="http://www.w3.org/2000/svg" viewBox="0 0 512 512"><!--!Font Awesome Pro 6.6.0 by @fontawesome - https://fontawesome.com License - https://fontawesome.com/license (Commercial License) Copyright 2024 Fonticons, Inc.--><path class="fa-secondary" opacity=".4" d="M42.7 333.1c0-16.1 11.5-29.4 34.5-52.6c.5 .6 1 1.2 1.6 1.8l30.2 30.2c3.1 3.1 7.2 4.7 11.3 4.7s8.2-1.6 11.3-4.7c6.2-6.2 6.2-16.4 0-22.6l-30.2-30.2c-.6-.6-1.2-1.1-1.8-1.6c7.6-7.6 15.3-15.3 22.9-22.9c.5 .6 1 1.3 1.6 1.8l45.3 45.3c6.2 6.2 16.4 6.2 22.6 0s6.2-16.4 0-22.6l-45.3-45.3c-.6-.6-1.2-1.1-1.8-1.6c7.6-7.6 15.3-15.3 22.9-22.9c.5 .6 1 1.3 1.6 1.8l30.2 30.2c6.2 6.2 16.4 6.2 22.6 0s6.2-16.4 0-22.6l-30.2-30.2c-.6-.6-1.2-1.1-1.8-1.6c7.6-7.6 15.3-15.3 22.9-22.9c.5 .6 1 1.3 1.6 1.8l45.3 45.3c6.2 6.2 16.4 6.2 22.6 0s6.2-16.4 0-22.6L237.1 124c-.6-.6-1.2-1.1-1.8-1.6c7.6-7.6 15.3-15.3 22.9-22.9c.5 .6 1 1.3 1.6 1.8l30.2 30.2c6.2 6.2 16.4 6.2 22.6 0c3.1-3.1 4.7-7.2 4.7-11.3s-1.6-8.2-4.7-11.3L282.4 78.7c-.6-.6-1.2-1.1-1.8-1.6c23.2-23 36.5-34.5 52.6-34.5c18.1 0 32.6 14.5 61.7 43.6l30.9 30.9c29.1 29.1 43.6 43.6 43.6 61.7s-14.5 32.6-43.6 61.7L240.6 425.7c-29.1 29.1-43.6 43.6-61.7 43.6s-32.6-14.5-61.7-43.6L86.3 394.8c-29.1-29.1-43.6-43.6-43.6-61.7z"/><path class="fa-primary" d="M282.4 78.7c-.6-.6-1.2-1.1-1.8-1.6L258.2 99.5c.5 .6 1 1.3 1.6 1.8l30.2 30.2c6.2 6.2 16.4 6.2 22.6 0s6.2-16.4 0-22.6L282.4 78.7zM237.1 124c-.6-.6-1.2-1.1-1.8-1.6l-22.4 22.4c.5 .6 1 1.3 1.6 1.8l45.3 45.3c6.2 6.2 16.4 6.2 22.6 0s6.2-16.4 0-22.6L237.1 124zm-45.3 45.3c-.6-.6-1.2-1.1-1.8-1.6L167.7 190c.5 .6 1 1.3 1.6 1.8l30.2 30.2c6.2 6.2 16.4 6.2 22.6 0s6.2-16.4 0-22.6l-30.2-30.2zm-45.3 45.3c-.6-.6-1.2-1.1-1.8-1.6l-22.4 22.4c.5 .6 1 1.3 1.6 1.8l45.3 45.3c6.2 6.2 16.4 6.2 22.6 0s6.2-16.4 0-22.6l-45.3-45.3zm-45.3 45.3c-.6-.6-1.2-1.1-1.8-1.6L77.2 280.6c.5 .6 1 1.2 1.6 1.8l30.2 30.2c6.2 6.2 16.4 6.2 22.6 0s6.2-16.4 0-22.6l-30.2-30.2z"/></svg>