<svg xmlns="http://www.w3.org/2000/svg" viewBox="0 0 512 512"><!--!Font Awesome Pro 6.6.0 by @fontawesome - https://fontawesome.com License - https://fontawesome.com/license (Commercial License) Copyright 2024 Fonticons, Inc.--><path class="fa-secondary" opacity=".4" d="M128 195.5c0-35.5 .8-53.9 12.5-65.7c12.5-12.5 32.5-12.5 72.6-12.5l.3 0 85.3 0c40.2 0 60.3 0 72.8 12.5C383.2 141.6 384 160 384 195.5c-39.1-16.6-145.1-39.9-256 0zm0 34.2c1.2-.5 2.4-.9 3.6-1.4c25.9-10 66.6-20.3 124.4-20.3s98.5 10.3 124.4 20.3c1.2 .5 2.4 1 3.6 1.4l0 26.7 0 53c0 40.2 0 60.3-12.5 72.8c-12.5 12.5-32.5 12.5-72.8 12.5l-85.3 0c-40.2 0-60.3 0-72.8-12.5C128 369.7 128 349.7 128 309.6l0-.3 0-53 0-26.7z"/><path class="fa-primary" d="M212.1 26.7l1.2 0c8.8 0 16 7.2 16 16s-7.2 16-16 16c-40.7 0-69.6 0-91.5 3C100.4 64.5 88 69.9 79 79s-14.4 21.4-17.3 42.9c-2.9 21.9-3 50.8-3 91.5c0 8.8-7.2 16-16 16s-16-7.2-16-16l0-1.2c0-39.2 0-70.3 3.3-94.6c3.4-25 10.4-45.3 26.4-61.2s36.2-23.1 61.2-26.4c24.3-3.3 55.4-3.3 94.6-3.3zm178 35c-21.9-2.9-50.8-3-91.5-3c-8.8 0-16-7.2-16-16s7.2-16 16-16l1.2 0c39.2 0 70.3 0 94.6 3.3c25 3.4 45.3 10.4 61.2 26.4s23 36.2 26.4 61.2c3.3 24.3 3.3 55.4 3.3 94.6l0 1.2c0 8.8-7.2 16-16 16s-16-7.2-16-16c0-40.7 0-69.6-3-91.5C447.5 100.4 442.1 88 433 79s-21.4-14.4-42.9-17.3zM42.7 282.7c8.8 0 16 7.2 16 16c0 40.7 0 69.6 3 91.5C64.5 411.6 69.9 424 79 433s21.4 14.4 42.9 17.3c21.9 2.9 50.8 3 91.5 3c8.8 0 16 7.2 16 16s-7.2 16-16 16l-1.2 0c-39.2 0-70.3 0-94.6-3.3c-25-3.4-45.3-10.4-61.2-26.4s-23.1-36.2-26.4-61.2c-3.3-24.3-3.3-55.4-3.3-94.6l0-1.2c0-8.8 7.2-16 16-16zm426.7 0c8.8 0 16 7.2 16 16l0 1.2c0 39.2 0 70.3-3.3 94.6c-3.4 25-10.4 45.3-26.4 61.2s-36.2 23-61.2 26.4c-24.3 3.3-55.4 3.3-94.6 3.3l-1.2 0c-8.8 0-16-7.2-16-16s7.2-16 16-16c40.7 0 69.6 0 91.5-3c21.5-2.9 33.8-8.3 42.9-17.3s14.4-21.4 17.3-42.9c2.9-21.9 3-50.8 3-91.5c0-8.8 7.2-16 16-16zm-77.5-84.3c-2.5-1-5.1-1.9-7.9-2.9c-39.1-16.6-145.1-39.9-256 0c-2.7 1-5.4 1.9-7.9 2.9c-14.8 5.7-25.7 11.4-33.2 15.9c-3.7 2.2-6.5 4.1-8.5 5.5c-1 .7-1.8 1.3-2.3 1.7c-.3 .2-.5 .4-.7 .5l-.2 .2-.1 .1 0 0 0 0c-6.8 5.7-7.7 15.7-2 22.5c5.6 6.8 15.7 7.7 22.5 2.1l.2-.2c.2-.2 .7-.5 1.3-1c1.3-.9 3.4-2.4 6.4-4.1c5.9-3.5 15.2-8.5 28.2-13.5c25.9-10 66.6-20.3 124.4-20.3s98.5 10.3 124.4 20.3c13 5 22.3 9.9 28.2 13.5c3 1.8 5.1 3.2 6.4 4.1c.7 .5 1.1 .8 1.3 1l.2 .2c6.8 5.6 16.8 4.7 22.5-2.1c5.7-6.8 4.7-16.9-2-22.5l-10.2 12.3c10.2-12.3 10.2-12.3 10.2-12.3l0 0-.1-.1-.2-.2c-.2-.1-.4-.3-.7-.5c-.6-.4-1.3-1-2.3-1.7c-2-1.4-4.8-3.3-8.5-5.5c-7.4-4.5-18.4-10.2-33.2-15.9z"/></svg>