<svg xmlns="http://www.w3.org/2000/svg" viewBox="0 0 512 512"><!--!Font Awesome Pro 6.6.0 by @fontawesome - https://fontawesome.com License - https://fontawesome.com/license (Commercial License) Copyright 2024 Fonticons, Inc.--><path class="fa-secondary" opacity=".4" d="M42.7 256c0 100.6 0 150.9 31.2 182.1s81.5 31.2 182.1 31.2s150.9 0 182.1-31.2c31.2-31.2 31.2-81.3 31.2-181.3l0-.8c0-100.6 0-150.8-31.2-182.1S356.6 42.7 256 42.7s-150.8 0-182.1 31.2S42.7 155.4 42.7 256zm112-64c0-3.3 1-6.7 3.2-9.6c3.1-4.2 7.9-6.4 12.8-6.4c3.3 0 6.7 1 9.6 3.2l42.7 32c4 3 6.4 7.8 6.4 12.8s-2.4 9.8-6.4 12.8l-42.7 32c-7.1 5.3-17.1 3.9-22.4-3.2c-2.2-2.9-3.2-6.2-3.2-9.6c0-4.9 2.2-9.7 6.4-12.8L186.7 224l-25.6-19.2c-4.2-3.1-6.4-7.9-6.4-12.8zm26 138l10.7-10.7c11.9-11.9 31.1-12.1 43.3-.6c12-11.3 30.7-11.3 42.7 0c12.2-11.5 31.4-11.3 43.3 .6L331.3 330c6.2 6.2 6.2 16.4 0 22.6c-3.1 3.1-7.2 4.7-11.3 4.7s-8.2-1.6-11.3-4.7l-10-10c-12 11.3-30.7 11.3-42.7 0c-12 11.3-30.7 11.3-42.7 0l-10 10c-3.1 3.1-7.2 4.7-11.3 4.7s-8.2-1.6-11.3-4.7c-6.2-6.2-6.2-16.4 0-22.6zm102-106c0-5 2.4-9.8 6.4-12.8l42.7-32c7.1-5.3 17.1-3.9 22.4 3.2s3.9 17.1-3.2 22.4L325.3 224l25.6 19.2c7.1 5.3 8.5 15.3 3.2 22.4s-15.3 8.5-22.4 3.2l-42.7-32c-4-3-6.4-7.8-6.4-12.8z"/><path class="fa-primary" d="M161.1 204.8c-7.1-5.3-8.5-15.3-3.2-22.4s15.3-8.5 22.4-3.2l42.7 32c4 3 6.4 7.8 6.4 12.8s-2.4 9.8-6.4 12.8l-42.7 32c-7.1 5.3-17.1 3.9-22.4-3.2s-3.9-17.1 3.2-22.4L186.7 224l-25.6-19.2zm193.1-22.4c5.3 7.1 3.9 17.1-3.2 22.4L325.3 224l25.6 19.2c7.1 5.3 8.5 15.3 3.2 22.4s-15.3 8.5-22.4 3.2l-42.7-32c-4-3-6.4-7.8-6.4-12.8s2.4-9.8 6.4-12.8l42.7-32c7.1-5.3 17.1-3.9 22.4 3.2zM331.3 352.6c-6.2 6.2-16.4 6.2-22.6 0l-10-10c-12 11.3-30.7 11.3-42.7 0c-12 11.3-30.7 11.3-42.7 0l-10 10c-6.2 6.2-16.4 6.2-22.6 0s-6.2-16.4 0-22.6l10.7-10.7c11.9-11.9 31.1-12.1 43.3-.6c12-11.3 30.7-11.3 42.7 0c12.2-11.5 31.4-11.3 43.3 .6L331.3 330c6.2 6.2 6.2 16.4 0 22.6z"/></svg>