<svg xmlns="http://www.w3.org/2000/svg" viewBox="0 0 512 512"><!--!Font Awesome Pro 6.6.0 by @fontawesome - https://fontawesome.com License - https://fontawesome.com/license (Commercial License) Copyright 2024 Fonticons, Inc.--><path class="fa-secondary" opacity=".4" d="M133.3 416c0 8.8 7.2 16 16 16c47.9 0 79.4-20.3 98.3-46.7c18.4-25.5 24.3-55.7 24.3-76l0-174.7-16-16c-5.3 5.3-10.7 10.7-16 16l0 174.7c0 15.2-4.7 38.4-18.3 57.3c-13 18.1-34.9 33.3-72.3 33.3c-8.8 0-16 7.2-16 16zM256 80c.7 0 1.4 0 2.1 .1c-.4 0-.7-.1-1.1-.1s-.7 0-1.1 0z"/><path class="fa-primary" d="M374 214c6.2-6.2 6.2-16.4 0-22.6L267.3 84.7c-6.2-6.2-16.4-6.2-22.6 0L138 191.4c-6.2 6.2-6.2 16.4 0 22.6s16.4 6.2 22.6 0L256 118.6 351.4 214c6.2 6.2 16.4 6.2 22.6 0z"/></svg>