<svg xmlns="http://www.w3.org/2000/svg" viewBox="0 0 512 512"><!--!Font Awesome Pro 6.6.0 by @fontawesome - https://fontawesome.com License - https://fontawesome.com/license (Commercial License) Copyright 2024 Fonticons, Inc.--><path class="fa-secondary" opacity=".4" d="M42.7 298.7c0-80.5 0-120.7 25-145.7c16.1-16.1 38.5-21.8 73.8-23.9c18-1 39.4-1.1 65-1.1c2.1 0 4.2 0 6.4 0l.5 0 85.3 0c80.5 0 120.7 0 145.7 25c24.9 24.9 25 65.1 25 145.2l0 .5c0 80.5 0 120.7-25 145.7c-24.9 24.9-65.1 25-145.2 25l-.5 0-85.3 0c-80.5 0-120.7 0-145.7-25s-25-65.2-25-145.7zm48 0a80 80 0 1 0 160 0 80 80 0 1 0 -160 0zm128 0a48 48 0 1 1 -96 0 48 48 0 1 1 96 0zm53.3-64c0 8.8 7.2 16 16 16l117.3 0c8.8 0 16-7.2 16-16s-7.2-16-16-16l-117.3 0c-8.8 0-16 7.2-16 16zm0 64c0 8.8 7.2 16 16 16l117.3 0c8.8 0 16-7.2 16-16s-7.2-16-16-16l-117.3 0c-8.8 0-16 7.2-16 16zm0 64c0 8.8 7.2 16 16 16l117.3 0c8.8 0 16-7.2 16-16s-7.2-16-16-16l-117.3 0c-8.8 0-16 7.2-16 16z"/><path class="fa-primary" d="M170.7 250.7a48 48 0 1 0 0 96 48 48 0 1 0 0-96zm80 48a80 80 0 1 1 -160 0 80 80 0 1 1 160 0zm21.3-64c0-8.8 7.2-16 16-16l117.3 0c8.8 0 16 7.2 16 16s-7.2 16-16 16l-117.3 0c-8.8 0-16-7.2-16-16zm0 64c0-8.8 7.2-16 16-16l117.3 0c8.8 0 16 7.2 16 16s-7.2 16-16 16l-117.3 0c-8.8 0-16-7.2-16-16zm0 64c0-8.8 7.2-16 16-16l117.3 0c8.8 0 16 7.2 16 16s-7.2 16-16 16l-117.3 0c-8.8 0-16-7.2-16-16zM328.1 56.5c7.6-4.5 10.2-14.3 5.7-21.9s-14.3-10.2-21.9-5.7L141.4 129.1c18-1 39.4-1.1 65-1.1L328.1 56.5z"/></svg>