<svg xmlns="http://www.w3.org/2000/svg" viewBox="0 0 512 512"><!--!Font Awesome Pro 6.6.0 by @fontawesome - https://fontawesome.com License - https://fontawesome.com/license (Commercial License) Copyright 2024 Fonticons, Inc.--><path class="fa-secondary" opacity=".4" d="M42.7 256c0 100.6 0 150.9 31.2 182.1s81.5 31.2 182.1 31.2s150.9 0 182.1-31.2s31.2-81.5 31.2-182.1l0-.8c0-100.1-.1-150.2-31.2-181.3C406.9 42.7 356.6 42.7 256 42.7s-150.8 0-182.1 31.2S42.7 155.4 42.7 256zM112 192c0-8.8 7.2-16 16-16l59.7 0 1.2 0c6.7 0 12 0 17.2 1c11.5 2.2 22 7.9 30 16.5c3.6 3.8 6.4 8.4 9.8 13.9l.6 1.1c4.6 7.5 2.3 17.4-5.2 22s-17.4 2.3-22-5.2c-4.4-7.1-5.5-8.8-6.7-10.1c-3.2-3.5-7.6-5.9-12.4-6.8c-1.8-.3-4-.4-12.5-.4L128 208c-8.8 0-16-7.2-16-16zm0 128c0-8.8 7.2-16 16-16l46.1 0c10.9 0 18 0 23.5-.5c5.2-.5 7.6-1.3 9.5-2.3c1.8-1 3.8-2.6 6.8-6.6c3.2-4.3 6.9-10.1 12.5-19.2l32.4-52.6c5.1-8.3 9.6-15.5 13.9-21.2c4.6-6.1 9.8-11.3 16.8-15.2c7-3.9 14.2-5.4 21.9-6.2c7.2-.7 15.8-.7 25.8-.7l7.9 0c-4.1-6.1-3.5-14.5 1.8-20c6.2-6.3 16.3-6.5 22.6-.3l25.6 24.9c3.1 3 4.8 7.2 4.8 11.5s-1.7 8.5-4.8 11.5l-25.6 24.9c-6.3 6.2-16.5 6-22.6-.3c-5.4-5.5-5.9-13.9-1.8-20l-7.2 0c-10.9 0-18 0-23.5 .5c-5.2 .5-7.7 1.3-9.5 2.3c-1.8 1-3.8 2.6-6.8 6.6c-3.2 4.3-6.9 10.1-12.5 19.2l-32.4 52.6c-5.1 8.3-9.6 15.5-13.9 21.2c-4.6 6.1-9.8 11.3-16.8 15.2c-7 3.9-14.2 5.4-21.9 6.2c-7.2 .7-15.8 .7-25.8 .7L128 336c-8.8 0-16-7.2-16-16zm153.4-20c-4.6-7.5-2.3-17.4 5.2-22s17.4-2.3 22 5.2c4.4 7.1 5.5 8.8 6.7 10.1c3.2 3.5 7.6 5.9 12.4 6.8c1.8 .3 4 .4 12.5 .4l20.8 0c-4.1-6.1-3.5-14.5 1.8-20c6.2-6.3 16.3-6.5 22.6-.3L395.2 305c3.1 3 4.8 7.2 4.8 11.5s-1.7 8.5-4.8 11.5l-25.6 24.9c-3.1 3-7.1 4.5-11.2 4.5c-4.2 0-8.3-1.6-11.5-4.8c-5.4-5.5-5.9-13.9-1.8-20l-20.8 0-1.2 0c-6.7 0-12 0-17.2-1c-11.5-2.2-22-7.9-30-16.5c-3.6-3.8-6.4-8.4-9.8-13.9l-.6-1z"/><path class="fa-primary" d="M346.9 159.5c6.2-6.3 16.3-6.5 22.6-.3l25.6 24.9c3.1 3 4.8 7.2 4.8 11.5s-1.7 8.5-4.8 11.5l-25.6 24.9c-6.3 6.2-16.5 6-22.6-.3c-5.4-5.5-5.9-13.9-1.8-20h-7.2c-10.9 0-18 0-23.5 .5c-5.2 .5-7.7 1.3-9.5 2.3c-1.8 1-3.8 2.6-6.8 6.6c-3.2 4.3-6.9 10.1-12.5 19.2l-32.4 52.6 0 0c-5.1 8.3-9.6 15.5-13.9 21.2c-4.6 6.1-9.8 11.3-16.8 15.2c-7 3.9-14.2 5.4-21.9 6.2c-7.2 .7-15.8 .7-25.8 .7L128 336c-8.8 0-16-7.2-16-16s7.2-16 16-16h46.1c10.9 0 18 0 23.5-.5c5.2-.5 7.6-1.3 9.5-2.3c1.8-1 3.8-2.6 6.8-6.6c3.2-4.3 6.9-10.1 12.5-19.2l32.4-52.6c5.1-8.3 9.6-15.5 13.9-21.2c4.6-6.1 9.8-11.3 16.8-15.2c7-3.9 14.2-5.4 21.9-6.2c7.2-.7 15.8-.7 25.8-.7l7.9 0c-4.1-6.1-3.5-14.5 1.8-20zM200.2 208.4c-1.8-.3-4-.4-12.5-.4H128c-8.8 0-16-7.2-16-16s7.2-16 16-16h59.7l1.2 0c6.7 0 12 0 17.2 1c11.5 2.2 22 7.9 30 16.5c3.6 3.8 6.4 8.4 9.8 13.9l0 0 .6 1.1c4.6 7.5 2.3 17.4-5.2 22s-17.4 2.3-22-5.2c-4.4-7.1-5.5-8.8-6.7-10.1c-3.2-3.5-7.6-5.9-12.4-6.8zm70.4 69.5c7.5-4.6 17.4-2.3 22 5.2c4.4 7.1 5.5 8.8 6.7 10.1c3.2 3.5 7.6 5.9 12.4 6.8c1.8 .3 4 .4 12.5 .4h20.8c-4.1-6.1-3.5-14.5 1.8-20c6.2-6.3 16.3-6.5 22.6-.3L395.2 305c3.1 3 4.8 7.2 4.8 11.5s-1.7 8.5-4.8 11.5l-25.6 24.9c-6.3 6.2-16.5 6-22.6-.3c-5.4-5.5-5.9-13.9-1.8-20H324.3l-1.2 0h0c-6.7 0-12 0-17.2-1c-11.5-2.2-22-7.9-30-16.5c-3.6-3.8-6.4-8.4-9.8-13.9l0 0-.6-1c-4.6-7.5-2.3-17.4 5.2-22z"/></svg>