<svg xmlns="http://www.w3.org/2000/svg" viewBox="0 0 512 512"><!--!Font Awesome Pro 6.6.0 by @fontawesome - https://fontawesome.com License - https://fontawesome.com/license (Commercial License) Copyright 2024 Fonticons, Inc.--><path class="fa-secondary" opacity=".4" d="M42.7 352a117.3 117.3 0 1 0 234.7 0A117.3 117.3 0 1 0 42.7 352zM112 298.7c0-8.8 7.2-16 16-16l32 0c23.7 0 48 16.5 48 42.7c0 16.8-10 29.6-23.4 36.6l21.1 35.2c4.5 7.6 2.1 17.4-5.5 22s-17.4 2.1-22-5.5L150.9 368l-6.9 0 0 37.3c0 8.8-7.2 16-16 16s-16-7.2-16-16l0-106.7zm2.4-109.9c-1.8 8.7 3.8 17.1 12.5 18.9s17.1-3.8 18.9-12.5c7.2-35.5 35.2-63.5 70.7-70.7c8.7-1.8 14.3-10.2 12.5-18.9s-10.2-14.3-18.9-12.5c-48.1 9.8-85.9 47.6-95.7 95.7zM144 314.7l0 21.3 16 0c11.7 0 16-7.4 16-10.7s-4.3-10.7-16-10.7l-16 0z"/><path class="fa-primary" d="M418.5 469.3c28.1 0 50.8-23.9 50.8-53.3H367.7c0 29.5 22.8 53.3 50.8 53.3zm-141.2-301l0-50.1c0-4.1 0-6.2 .1-7.9c1.7-36.5 29.5-65.7 64.4-67.5c1.7-.1 3.6-.1 7.6-.1c6.6 0 9.8 0 12.6 .1c58 3 104.4 51.7 107.3 112.6c.1 2.9 .1 6.3 .1 13.2l0 211.9-101.6 0 0-117.3c0-13.1-10.1-23.7-22.6-23.7c-37.4 0-67.8-31.8-67.8-71.1zm35.8-59l0 59.3c0 9.8 7.2 17.8 16 17.8s16-8 16-17.8l0-59.3c0-9.8-7.2-17.8-16-17.8s-16 8-16 17.8zM128 282.7c-8.8 0-16 7.2-16 16l0 106.7c0 8.8 7.2 16 16 16s16-7.2 16-16l0-37.3 6.9 0 27.3 45.6c4.5 7.6 14.4 10 22 5.5s10-14.4 5.5-22l-21.1-35.2c13.4-7 23.4-19.8 23.4-36.6c0-26.2-24.3-42.7-48-42.7l-32 0zm16 32l16 0c11.7 0 16 7.4 16 10.7s-4.3 10.7-16 10.7l-16 0 0-21.3z"/></svg>