<svg xmlns="http://www.w3.org/2000/svg" viewBox="0 0 512 512"><!--!Font Awesome Pro 6.6.0 by @fontawesome - https://fontawesome.com License - https://fontawesome.com/license (Commercial License) Copyright 2024 Fonticons, Inc.--><path class="fa-secondary" opacity=".4" d="M347.4 405.3c67.3 0 121.9-53.9 121.9-120.5c0-52.7-34.3-97.6-82-113.9c-6.8-60.2-58.4-107-121.1-107c-67.3 0-121.9 53.9-121.9 120.5c0 14.7 2.7 28.8 7.6 41.9c-5.7-1.1-11.7-1.7-17.7-1.7c-50.5 0-91.4 40.5-91.4 90.4s40.9 90.4 91.4 90.4H347.4z"/><path class="fa-primary" d="M234.7 384a21.3 21.3 0 1 1 42.7 0 21.3 21.3 0 1 1 -42.7 0zm0 64a21.3 21.3 0 1 1 42.7 0 21.3 21.3 0 1 1 -42.7 0zm64-32a21.3 21.3 0 1 1 42.7 0 21.3 21.3 0 1 1 -42.7 0zm0-64a21.3 21.3 0 1 1 42.7 0 21.3 21.3 0 1 1 -42.7 0zm-128 64a21.3 21.3 0 1 1 42.7 0 21.3 21.3 0 1 1 -42.7 0zm0-64a21.3 21.3 0 1 1 42.7 0 21.3 21.3 0 1 1 -42.7 0zM256 405.3a21.3 21.3 0 1 0 0-42.7 21.3 21.3 0 1 0 0 42.7zm64-74.7a21.3 21.3 0 1 1 0 42.7 21.3 21.3 0 1 1 0-42.7zM192 373.3a21.3 21.3 0 1 1 0-42.7 21.3 21.3 0 1 1 0 42.7z"/></svg>