<svg xmlns="http://www.w3.org/2000/svg" viewBox="0 0 512 512"><!--!Font Awesome Pro 6.6.0 by @fontawesome - https://fontawesome.com License - https://fontawesome.com/license (Commercial License) Copyright 2024 Fonticons, Inc.--><path class="fa-secondary" opacity=".4" d="M29.4 119.1c-4.9 7.4-2.9 17.3 4.4 22.2l73.5 49c.7-8.2 2.1-14.2 5.2-19.6c.3-.5 .5-.9 .8-1.3s.6-.9 .9-1.3c.6-.9 1.2-1.7 1.9-2.5c1.4-1.6 2.9-3.2 4.7-4.7L51.5 114.7c-7.4-4.9-17.3-2.9-22.2 4.4zm0 273.8c4.9 7.4 14.8 9.3 22.2 4.4l69.1-46.1c-3.5-3.1-6.2-6.2-8.2-9.9c-.4-.7-.7-1.4-1.1-2.1s-.6-1.4-.9-2.1c-.6-1.5-1.1-3-1.5-4.6c-.8-3.2-1.4-6.8-1.7-10.8l-73.5 49c-7.4 4.9-9.3 14.8-4.4 22.2zm362-232.1c3.5 3.1 6.2 6.2 8.2 9.9c.4 .7 .7 1.4 1.1 2.1s.6 1.4 .9 2.1c.6 1.5 1.1 3 1.5 4.6c.8 3.2 1.4 6.8 1.7 10.8l73.5-49c7.4-4.9 9.3-14.8 4.4-22.2s-14.8-9.3-22.2-4.4l-69.1 46.1z"/><path class="fa-primary" d="M256 85.3c-11.6 0-22.1 6.3-43.1 18.8l-63.1 37.5c-21 12.5-31.6 18.8-37.3 29.1s-5.8 22.8-5.8 47.8l0 75c0 25 0 37.5 5.8 47.8s16.3 16.6 37.3 29.1l63.1 37.5c21 12.5 31.6 18.8 43.1 18.8s22.1-6.3 43.1-18.8l63.1-37.5c21-12.5 31.6-18.8 37.3-29.1s5.8-22.8 5.8-47.8l0-75c0-25 0-37.5-5.8-47.8s-16.3-16.6-37.3-29.1l-63.1-37.5c-21-12.5-31.6-18.8-43.1-18.8zm93.5 237.7l-85.3 50.9c-7.6 4.5-17.4 2-21.9-5.6s-2-17.4 5.6-21.9l85.3-50.9c7.6-4.5 17.4-2 21.9 5.6s2 17.4-5.6 21.9z"/></svg>