<svg xmlns="http://www.w3.org/2000/svg" viewBox="0 0 512 512"><!--!Font Awesome Pro 6.6.0 by @fontawesome - https://fontawesome.com License - https://fontawesome.com/license (Commercial License) Copyright 2024 Fonticons, Inc.--><path class="fa-secondary" opacity=".4" d="M42.7 256a213.3 213.3 0 1 0 426.7 0A213.3 213.3 0 1 0 42.7 256zm112-106.7c0-8.8 7.2-16 16-16s16 7.2 16 16l0 64c0 38.3 31 69.3 69.3 69.3s69.3-31 69.3-69.3l0-64c0-8.8 7.2-16 16-16s16 7.2 16 16l0 64c0 56-45.4 101.3-101.3 101.3s-101.3-45.4-101.3-101.3l0-64zm0 213.3c0-8.8 7.2-16 16-16l170.7 0c8.8 0 16 7.2 16 16s-7.2 16-16 16l-170.7 0c-8.8 0-16-7.2-16-16z"/><path class="fa-primary" d="M154.7 362.7c0-8.8 7.2-16 16-16H341.3c8.8 0 16 7.2 16 16s-7.2 16-16 16H170.7c-8.8 0-16-7.2-16-16zm32-213.3c0-8.8-7.2-16-16-16s-16 7.2-16 16v64c0 56 45.4 101.3 101.3 101.3s101.3-45.4 101.3-101.3v-64c0-8.8-7.2-16-16-16s-16 7.2-16 16v64c0 38.3-31 69.3-69.3 69.3s-69.3-31-69.3-69.3v-64z"/></svg>