<svg xmlns="http://www.w3.org/2000/svg" viewBox="0 0 512 512"><!--!Font Awesome Pro 6.6.0 by @fontawesome - https://fontawesome.com License - https://fontawesome.com/license (Commercial License) Copyright 2024 Fonticons, Inc.--><path class="fa-secondary" opacity=".4" d="M222.5 245.6c-5.1 6-5.1 14.8 0 20.8l128 149.3c4.4 5.1 11.4 6.9 17.7 4.6s10.4-8.3 10.4-15l0-298.7c0-6.7-4.2-12.7-10.4-15s-13.3-.5-17.7 4.6l-128 149.3z"/><path class="fa-primary" d="M287.7 417.5c6.7-5.8 7.5-15.9 1.7-22.6L170.4 256 289.5 117.1c5.8-6.7 5-16.8-1.7-22.6s-16.8-5-22.6 1.7l-128 149.3c-5.1 6-5.1 14.8 0 20.8l128 149.3c5.7 6.7 15.9 7.5 22.6 1.7z"/></svg>