<svg xmlns="http://www.w3.org/2000/svg" viewBox="0 0 512 512"><!--!Font Awesome Pro 6.6.0 by @fontawesome - https://fontawesome.com License - https://fontawesome.com/license (Commercial License) Copyright 2024 Fonticons, Inc.--><path class="fa-secondary" opacity=".4" d="M42.7 256c0-100.6 0-150.8 31.2-182.1S155.4 42.7 256 42.7c54.7 0 94.5 0 124.4 5c-23 9.7-39.1 32.5-39.1 59c0 35.3 28.7 64 64 64c26.5 0 49.3-16.1 59-39.1c5 29.8 5 69.4 5 123.7l0 .8c0 100.6 0 150.9-31.2 182.1s-81.5 31.2-182.1 31.2s-150.8 0-182.1-31.2S42.7 356.6 42.7 256zM137 288.4c-5.7 6.8-4.7 16.9 2 22.5c3 2.5 6.6 3.7 10.2 3.7c4.6 0 9.1-2 12.3-5.8l38.3-46c7.9-9.5 12.8-15.3 16.8-18.9c1.9-1.7 3-2.3 3.5-2.6c.2-.1 .2-.1 .2-.1c0 0 .1 0 .2 .1c.5 .3 1.6 .9 3.5 2.6c4 3.6 8.9 9.4 16.8 18.9l6.2 7.5c7 8.4 13.3 16 19.2 21.3c6.4 5.8 14.5 11 25.2 11s18.7-5.2 25.2-11c5.9-5.3 12.2-12.9 19.2-21.3l39-46.8c5.7-6.8 4.7-16.9-2-22.5s-16.9-4.7-22.5 2l-38.3 46c-7.9 9.5-12.8 15.3-16.8 18.9c-1.9 1.7-3 2.3-3.5 2.6c-.1 .1-.2 .1-.2 .1c-.2-.1-.2-.1-.2-.1c-.5-.3-1.6-.9-3.5-2.6c-4-3.6-8.9-9.4-16.8-18.9l-6.2-7.5c-7-8.4-13.3-16-19.2-21.3c-6.4-5.8-14.5-11-25.2-11s-18.7 5.2-25.2 11c-5.9 5.3-12.2 12.9-19.2 21.3l-39 46.8z"/><path class="fa-primary" d="M375 223.6c5.7-6.8 4.7-16.9-2-22.5s-16.9-4.7-22.5 2l-38.3 46c-7.9 9.5-12.8 15.3-16.8 18.9c-1.9 1.7-3 2.3-3.5 2.6c-.1 .1-.2 .1-.2 .1c0 0-.1 0-.2-.1l-.1 0c-.5-.3-1.6-.9-3.5-2.6c-4-3.6-8.9-9.4-16.8-18.9l-6.2-7.5c-7-8.4-13.3-16-19.2-21.3c-6.4-5.8-14.5-11-25.2-11s-18.7 5.2-25.2 11c-5.9 5.3-12.2 12.9-19.2 21.3l-39 46.8c-5.7 6.8-4.7 16.9 2 22.5s16.9 4.7 22.5-2l38.3-46c7.9-9.5 12.8-15.3 16.8-18.9c1.9-1.7 3-2.3 3.5-2.6l.1-.1 .1 0c0 0 .1 0 .2 .1c.5 .3 1.6 .9 3.5 2.6c4 3.6 8.9 9.4 16.8 18.9l6.2 7.5 0 0c7 8.4 13.3 16 19.2 21.3c6.4 5.8 14.5 11 25.2 11s18.7-5.2 25.2-11c5.9-5.3 12.2-12.9 19.2-21.3l39-46.8zM341.3 106.7a64 64 0 1 1 128 0 64 64 0 1 1 -128 0z"/></svg>