<svg xmlns="http://www.w3.org/2000/svg" viewBox="0 0 512 512"><!--!Font Awesome Pro 6.6.0 by @fontawesome - https://fontawesome.com License - https://fontawesome.com/license (Commercial License) Copyright 2024 Fonticons, Inc.--><path class="fa-secondary" opacity=".4" d="M43.3 240C51 134.9 134.9 51 240 43.3l0 63.4c0 8.8 7.2 16 16 16s16-7.2 16-16l0-63.4C377.1 51 461 134.9 468.7 240l-63.4 0c-8.8 0-16 7.2-16 16s7.2 16 16 16l63.4 0C461 377.1 377.1 461 272 468.7l0-63.4c0-8.8-7.2-16-16-16s-16 7.2-16 16l0 63.4C134.9 461 51 377.1 43.3 272l63.4 0c8.8 0 16-7.2 16-16s-7.2-16-16-16l-63.4 0zm154.1 16c0 8.8 7.2 16 16 16l26.7 0 0 26.7c0 8.8 7.2 16 16 16s16-7.2 16-16l0-26.7 26.7 0c8.8 0 16-7.2 16-16s-7.2-16-16-16L272 240l0-26.7c0-8.8-7.2-16-16-16s-16 7.2-16 16l0 26.7-26.7 0c-8.8 0-16 7.2-16 16z"/><path class="fa-primary" d="M197.3 256c0-8.8 7.2-16 16-16H240V213.3c0-8.8 7.2-16 16-16s16 7.2 16 16V240h26.7c8.8 0 16 7.2 16 16s-7.2 16-16 16H272v26.7c0 8.8-7.2 16-16 16s-16-7.2-16-16V272H213.3c-8.8 0-16-7.2-16-16zM43.3 272c-.4-5.3-.6-10.6-.6-16s.2-10.7 .6-16h63.4c8.8 0 16 7.2 16 16s-7.2 16-16 16H43.3zM272 468.7c-5.3 .4-10.6 .6-16 .6s-10.7-.2-16-.6V405.3c0-8.8 7.2-16 16-16s16 7.2 16 16v63.4zM468.7 240c.4 5.3 .6 10.6 .6 16s-.2 10.7-.6 16H405.3c-8.8 0-16-7.2-16-16s7.2-16 16-16h63.4zM272 43.3v63.4c0 8.8-7.2 16-16 16s-16-7.2-16-16V43.3c5.3-.4 10.6-.6 16-.6s10.7 .2 16 .6z"/></svg>