<svg xmlns="http://www.w3.org/2000/svg" viewBox="0 0 512 512"><!--!Font Awesome Pro 6.6.0 by @fontawesome - https://fontawesome.com License - https://fontawesome.com/license (Commercial License) Copyright 2024 Fonticons, Inc.--><path class="fa-secondary" opacity=".4" d="M85.3 256c0 5.9 .3 11.8 .9 17.5c.1 0 .2 .1 .3 .1L91.6 302c6.7 23.9 18.5 45.8 34.2 64.3c1.8-1.4 4-2.3 6.4-2.8c21.3-4.2 45.6-11.3 71.7-21.1c8.3-3.1 17.5 1.1 20.6 9.4s-1.1 17.5-9.4 20.6c-22 8.3-43.1 14.8-62.6 19.4c28.7 21.9 64.6 34.9 103.5 34.9c94.3 0 170.7-76.4 170.7-170.7c0-2.6-.1-5.1-.2-7.7c-13 11.7-28 23.6-44.4 35.3c-7.2 5.1-17.2 3.4-22.3-3.7s-3.4-17.2 3.7-22.3c22.2-15.8 41-31.6 55.7-46.3c.4-.4 .8-.8 1.3-1.1c-6.5-23.4-17.9-44.8-33-63c-.4-.5-.8-1-1.2-1.4c-7.5-7.3-14.9-14.7-22.4-22c-29.4-24-66.9-38.4-107.8-38.4C161.7 85.3 85.3 161.7 85.3 256zm160.6 86.6c-3.8-8-.3-17.5 7.7-21.3c11.2-5.3 22.5-10.9 33.9-17c11.1-5.9 21.8-12 32.1-18.1c7.6-4.5 17.4-2.1 21.9 5.5s2.1 17.4-5.5 21.9c-10.7 6.4-21.9 12.7-33.4 18.9c-11.9 6.3-23.7 12.2-35.4 17.7c-8 3.8-17.5 .3-21.3-7.7z"/><path class="fa-primary" d="M405.5 144.7c8.8-.8 15.3-8.6 14.5-17.4s-8.6-15.3-17.4-14.5c-9 .8-18.6 2.3-28.7 4.2c-4.3 .8-7.8 3.3-10.1 6.6l23.8 23.4c6.3-1.1 12.3-1.9 17.9-2.4zm41.1-30c-8.6-2-17.2 3.3-19.3 11.9s3.3 17.2 11.9 19.3c8.4 2 11.6 5 12.8 6.9c1.4 2.2 2.8 7.8-3.3 20.2c-3.9 7.9-.7 17.5 7.2 21.5s17.5 .7 21.5-7.2c8.1-16.2 12-35.2 1.8-51.5c-7.3-11.7-19.7-18-32.6-21zm-4.8 119.1c6.2-6.3 6.2-16.4-.1-22.6s-16.4-6.2-22.6 .1c-14.6 14.7-33.4 30.5-55.7 46.3c-7.2 5.1-8.9 15.1-3.7 22.3s15.1 8.9 22.3 3.7c23.3-16.6 43.6-33.5 59.8-49.8zm-365.3 85c4.3-5.4 9.3-11 15.1-16.9l-5.1-28.4c-5.4-1.6-11.6-.3-15.9 4c-7.1 7.2-13.6 14.3-19.1 21.2c-5.5 6.9-4.4 17 2.5 22.5s17 4.4 22.5-2.5zM336 313.7c7.6-4.5 10.1-14.4 5.5-21.9s-14.4-10.1-21.9-5.5c-10.3 6.1-21 12.2-32.1 18.1c-11.4 6.1-22.7 11.7-33.9 17c-8 3.8-11.4 13.3-7.7 21.3s13.3 11.4 21.3 7.7c11.7-5.5 23.5-11.4 35.4-17.7c11.5-6.1 22.7-12.5 33.4-18.9zm-276 33c2.7-8.4-2-17.4-10.4-20.1s-17.4 2-20.1 10.4c-4.1 12.8-4.5 26.9 3.2 39.3c9.7 15.4 27.9 21.5 46 23.2c8.8 .8 16.6-5.6 17.5-14.4s-5.6-16.6-14.4-17.5c-14.8-1.4-20.2-5.7-21.9-8.3c-1.1-1.7-2.2-5.2 .2-12.6zm155.1 25.7c8.3-3.1 12.5-12.3 9.4-20.6s-12.3-12.5-20.6-9.4c-26.1 9.8-50.5 16.9-71.7 21.1c-8.7 1.7-14.3 10.1-12.6 18.8s10.1 14.3 18.8 12.6c23.3-4.6 49.3-12.2 76.8-22.5z"/></svg>