<svg xmlns="http://www.w3.org/2000/svg" viewBox="0 0 512 512"><!--!Font Awesome Pro 6.6.0 by @fontawesome - https://fontawesome.com License - https://fontawesome.com/license (Commercial License) Copyright 2024 Fonticons, Inc.--><path class="fa-secondary" opacity=".4" d="M42.7 256c0 2.8 .1 5.5 .2 8.2l106.2 38.6 61.4-24.6c29.2-11.7 61.9-11.7 91.1 0l61.1 24.4 106.6-42.6c0-1.4 0-2.7 0-4.1c0-117.8-95.5-213.3-213.3-213.3S42.7 138.2 42.7 256zm128-32c0-17.7 9.6-32 21.3-32s21.3 14.3 21.3 32s-9.6 32-21.3 32s-21.3-14.3-21.3-32zm128 0c0-17.7 9.6-32 21.3-32s21.3 14.3 21.3 32s-9.6 32-21.3 32s-21.3-14.3-21.3-32z"/><path class="fa-primary" d="M213.3 224c0 17.7-9.6 32-21.3 32s-21.3-14.3-21.3-32s9.6-32 21.3-32s21.3 14.3 21.3 32zm128 0c0 17.7-9.6 32-21.3 32s-21.3-14.3-21.3-32s9.6-32 21.3-32s21.3 14.3 21.3 32zm-5 229.7l9.5-123.2L289.7 308c-21.6-8.6-45.7-8.6-67.3 0l-56.1 22.5 9.5 123.2c24.8 10.1 51.9 15.6 80.3 15.6s55.5-5.6 80.3-15.6zM465.6 296.1l-87.7 35.1-8.1 105.4c49.1-31 84.6-81.4 95.8-140.4zM142.3 436.5l-8.1-105-87-31.6c12 57.4 47.1 106.3 95.1 136.6z"/></svg>