<svg xmlns="http://www.w3.org/2000/svg" viewBox="0 0 512 512"><!--!Font Awesome Pro 6.6.0 by @fontawesome - https://fontawesome.com License - https://fontawesome.com/license (Commercial License) Copyright 2024 Fonticons, Inc.--><path class="fa-secondary" opacity=".4" d="M42.7 256a213.3 213.3 0 1 0 426.7 0A213.3 213.3 0 1 0 42.7 256zM176 320c0-4.1 1.6-8.2 4.7-11.3L281.4 208 224 208c-8.8 0-16-7.2-16-16s7.2-16 16-16l96 0c8.8 0 16 7.2 16 16l0 96c0 8.8-7.2 16-16 16s-16-7.2-16-16l0-57.4L203.3 331.3c-3.1 3.1-7.2 4.7-11.3 4.7s-8.2-1.6-11.3-4.7s-4.7-7.2-4.7-11.3z"/><path class="fa-primary" d="M224 176c-8.8 0-16 7.2-16 16s7.2 16 16 16h57.4L180.7 308.7c-6.2 6.2-6.2 16.4 0 22.6s16.4 6.2 22.6 0L304 230.6V288c0 8.8 7.2 16 16 16s16-7.2 16-16V192c0-8.8-7.2-16-16-16H224z"/></svg>