<svg xmlns="http://www.w3.org/2000/svg" viewBox="0 0 512 512"><!--!Font Awesome Pro 6.6.0 by @fontawesome - https://fontawesome.com License - https://fontawesome.com/license (Commercial License) Copyright 2024 Fonticons, Inc.--><path class="fa-secondary" opacity=".4" d="M42.7 256c0 100.6 0 150.9 31.2 182.1s81.5 31.2 182.1 31.2s150.9 0 182.1-31.2c31.2-31.2 31.2-81.3 31.2-181.3l0-.8c0-100.6 0-150.8-31.2-182.1S356.6 42.7 256 42.7s-150.8 0-182.1 31.2S42.7 155.4 42.7 256zm26.7 64c0-8.8 7.2-16 16-16l21.8 0 0-21.3c2.5-15.1 15.7-26.7 31.6-26.7l234.7 0c15.9 0 29 11.5 31.6 26.7l0 21.3 21.8 0c8.8 0 16 7.2 16 16s-7.2 16-16 16l-50 0c-18.7 0-23.7 .3-27.9 2s-7.9 5-21.1 18.3l-4.9 4.9-1.6 1.6c-9.2 9.2-16.5 16.5-25.8 20.9c-1.7 .8-3.5 1.5-5.3 2.2c-9.1 3.3-18.8 3.4-30.9 3.4c-.7 0-1.4 0-2.1 0l-2.3 0-2.4 0c-13.8 0-24.7 0-34.8-3.8c-1.9-.7-3.7-1.5-5.5-2.4c-9.7-4.8-17-12.9-26.4-23l-1.6-1.8-.8-.8c-12.6-13.6-16.1-17-20.1-19c-.4-.2-.9-.4-1.3-.6c-4.2-1.7-9-2-27.6-2l-49.1 0c-8.8 0-16-7.2-16-16zm37.3-160c0-17.7 14.3-32 32-32l234.7 0c17.7 0 32 14.3 32 32l0 21.3c-8.9-6.7-20-10.7-32-10.7l-234.7 0c-12 0-23.1 4-32 10.7l0-21.3zm0 64c0-17.7 14.3-32 32-32l234.7 0c17.7 0 32 14.3 32 32l0 21.3c-8.9-6.7-20-10.7-32-10.7l-234.7 0c-12 0-23.1 4-32 10.7l0-21.3z"/><path class="fa-primary" d="M106.7 181.3V160c0-17.7 14.3-32 32-32H373.3c17.7 0 32 14.3 32 32v21.3c-8.9-6.7-20-10.7-32-10.7H138.7c-12 0-23.1 4-32 10.7zm0 64V224c0-17.7 14.3-32 32-32H373.3c17.7 0 32 14.3 32 32v21.3c-8.9-6.7-20-10.7-32-10.7H138.7c-12 0-23.1 4-32 10.7zm336 74.7c0-8.8-7.2-16-16-16H404.9V282.7c-2.5-15.1-15.7-26.7-31.6-26.7H138.7c-15.9 0-29 11.5-31.6 26.7V304H85.3c-8.8 0-16 7.2-16 16s7.2 16 16 16h49.1c18.5 0 23.4 .3 27.6 2c.4 .2 .9 .4 1.3 .6c4.1 1.9 7.6 5.3 20.1 19l.8 .8 1.6 1.8c9.3 10.2 16.7 18.2 26.4 23c1.8 .9 3.6 1.7 5.5 2.4c10.1 3.8 21 3.8 34.8 3.8l2.4 0 2.3 0c13 0 23.3 0 33-3.4c1.8-.6 3.6-1.4 5.3-2.2c9.3-4.4 16.5-11.7 25.8-20.9l1.6-1.6 4.9-4.9c13.3-13.3 16.9-16.5 21.1-18.3s9.1-2 27.9-2h50c8.8 0 16-7.2 16-16z"/></svg>