<svg xmlns="http://www.w3.org/2000/svg" viewBox="0 0 512 512"><!--!Font Awesome Pro 6.6.0 by @fontawesome - https://fontawesome.com License - https://fontawesome.com/license (Commercial License) Copyright 2024 Fonticons, Inc.--><path class="fa-secondary" opacity=".4" d="M146.4 339.4c-.1 .9-.2 1.9-.2 2.9c0 5.4 1.7 12.2 4.6 23.8l14.8 59c3.4 13.7 5.2 20.6 8.6 25.4c4.6 6.4 11.4 10.6 18.9 11.7c.9 .1 1.8 .2 2.7 .2c5.1 0 11.3-1.8 22.2-4.9c12.8-3.7 19.3-5.5 23.8-9.2c6-4.9 9.9-12.2 10.9-20.2c.7-6-2.8-20.3-6.3-34l127.4-36.6c3.4 13.7 7 28 10.5 32.8c4.6 6.4 11.4 10.6 18.9 11.7c5.6 .8 12-1 24.9-4.7s19.3-5.5 23.8-9.2c6-4.9 9.9-12.2 10.9-20.2c.7-6-1-12.9-4.4-26.6l-14.8-59c-3.4-13.7-5.2-20.6-8.6-25.4c-4.6-6.4-11.4-10.6-18.9-11.7c-.9-.1-1.8-.2-2.7-.2c-5.1 0-11.3 1.8-22.2 4.9c-12.8 3.7-19.3 5.5-23.8 9.2c-6 4.9-9.9 12.2-10.9 20.2c-.7 6 2.8 20.3 6.3 34L235.3 349.7c-3.4-13.7-7-28-10.5-32.8c-4.6-6.4-11.4-10.6-18.9-11.7c-5.6-.8-12 1-24.9 4.7s-19.3 5.5-23.8 9.2c-6 4.9-9.9 12.2-10.9 20.2z"/><path class="fa-primary" d="M348.7 190.5l7.3-60.6 0 0c1.7-14.1 2.6-21.2 1.1-27c-2-7.8-6.8-14.5-13.3-18.5c-4.9-3-11.5-3.9-24.7-5.8s-19.8-2.8-25.2-1.2c-7.3 2.1-13.5 7.2-17.3 14.3c-2.8 5.3-4.6 19.9-6.3 34L139.5 107.5c1.7-14.1 3.5-28.7 2-34.6c-2-7.8-6.8-14.5-13.3-18.5c-4.9-3-11.5-3.9-24.7-5.8s-19.8-2.8-25.2-1.2c-7.3 2.1-13.5 7.2-17.3 14.3c-2.8 5.3-3.7 12.3-5.4 26.4l-7.3 60.6c-1.7 14.1-2.6 21.2-1.1 27c2 7.8 6.8 14.5 13.3 18.5c4.9 3 11.5 3.9 24.7 5.8l0 0 0 0c13.2 1.8 19.8 2.8 25.2 1.2c7.3-2.1 13.5-7.2 17.3-14.3c2.8-5.3 4.6-19.9 6.3-34l130.8 18.2c-1.7 14.1-3.5 28.7-2 34.6c2 7.8 6.8 14.5 13.3 18.5c4.9 3 11.5 3.9 24.7 5.8l0 0 0 0c13.2 1.8 19.8 2.7 25.2 1.2c7.3-2.1 13.5-7.2 17.3-14.3c2.8-5.3 3.7-12.3 5.4-26.4l0 0z"/></svg>