<svg xmlns="http://www.w3.org/2000/svg" viewBox="0 0 512 512"><!--!Font Awesome Pro 6.6.0 by @fontawesome - https://fontawesome.com License - https://fontawesome.com/license (Commercial License) Copyright 2024 Fonticons, Inc.--><path class="fa-secondary" opacity=".4" d="M42.7 256l0 .4c0 60.1 0 90.2 18.7 108.9c11.7 11.7 27.8 16.1 52.8 17.7L92.9 418.4c-4.5 7.6-2.1 17.4 5.5 22c2.6 1.5 5.4 2.3 8.2 2.3c5.4 0 10.7-2.8 13.7-7.8L150.9 384c6.2 0 12.8 0 19.7 0l170.7 0c7 0 13.5 0 19.7 0l30.6 50.9c3 5 8.3 7.8 13.7 7.8c2.8 0 5.6-.7 8.2-2.3c7.6-4.5 10-14.4 5.5-22L397.8 383c25-1.7 41.1-6.1 52.8-17.7c18.7-18.7 18.7-48.9 18.7-109.3s0-90.5-18.7-109.3c-7-7-15.5-11.3-26.6-14.1c-10.6-2.6-23.6-3.8-39.7-4.3c13.2 17.8 21 39.8 21 63.6c0 58.9-47.8 106.7-106.7 106.7S192 250.9 192 192c0-.8 0-1.5 0-2.2s0-1.5 .1-2.2c.1-1.5 .2-3 .3-4.4c.2-2.9 .6-5.8 1.1-8.7c1-5.7 2.4-11.3 4.2-16.7c3.7-10.8 9-20.8 15.7-29.7l-42.7 0c-60.3 0-90.5 0-109.3 18.7S42.7 195.7 42.7 256zm58.7-53.3c0-8.8 7.2-16 16-16s16 7.2 16 16l0 32c0 8.8-7.2 16-16 16s-16-7.2-16-16l0-32z"/><path class="fa-primary" d="M133.3 202.7c0-8.8-7.2-16-16-16s-16 7.2-16 16l0 32c0 8.8 7.2 16 16 16s16-7.2 16-16l0-32zM192 192a106.7 106.7 0 1 1 213.3 0A106.7 106.7 0 1 1 192 192zm90.7-42.7c0 8.8 7.2 16 16 16c14.7 0 26.7 11.9 26.7 26.7s-11.9 26.7-26.7 26.7s-26.7-11.9-26.7-26.7c0-8.8-7.2-16-16-16s-16 7.2-16 16c0 32.4 26.3 58.7 58.7 58.7s58.7-26.3 58.7-58.7s-26.3-58.7-58.7-58.7c-8.8 0-16 7.2-16 16z"/></svg>