<svg xmlns="http://www.w3.org/2000/svg" viewBox="0 0 512 512"><!--!Font Awesome Pro 6.6.0 by @fontawesome - https://fontawesome.com License - https://fontawesome.com/license (Commercial License) Copyright 2024 Fonticons, Inc.--><path class="fa-secondary" opacity=".4" d="M42.7 277.3c0 80.5 0 120.7 25 145.7c24.9 24.9 65 25 145.1 25l.6 0 85.3 0c80.5 0 120.7 0 145.7-25c25-25 25-65.1 25-145.3l0-.4c0-41.6 0-72.5-3.5-96c-48.6 31.6-79.7 51.7-108.5 64.1l0 10.6c0 8.8-7.2 16-16 16c-8.7 0-15.8-7-16-15.7c-45.4 12-93.2 12-138.7 0c-.2 8.7-7.3 15.7-16 15.7c-8.8 0-16-7.2-16-16l0-10.6c-28.8-12.4-60-32.5-108.5-64.1c-3.5 23.5-3.5 54.4-3.5 96z"/><path class="fa-primary" d="M225.7 48l-.4 0c-2.4 0-4.3 0-6.1 .1c-22.6 1.4-42.4 15.6-50.9 36.7c-.7 1.7-1.8 5-2.6 7.3l-.1 .2c-2.2 6-6.2 11.1-10.8 14.8c-4.9 .2-9.5 .4-13.9 .6c-35.1 2.1-57.3 7.8-73.3 23.8c-5.2 5.2-9.3 11.1-12.6 17.9c1.2 .4 2.4 1 3.6 1.7c44.8 29.1 73 47.3 96.3 59c1.4-7.4 7.9-13 15.7-13c8.8 0 16 7.2 16 16l0 9.8c45.2 13.6 93.5 13.6 138.7 0l0-9.8c0-8.8 7.2-16 16-16c7.8 0 14.3 5.6 15.7 13c23.4-11.7 51.5-29.9 96.4-59c1.1-.7 2.3-1.3 3.6-1.7c-3.3-6.8-7.4-12.7-12.6-17.9c-16-16-38.3-21.8-73.3-23.8c-4.2-.2-8.6-.4-13.2-.6c-.3-.2-.6-.5-.9-.7c-5.1-4.4-9.1-10.3-11.2-15.8l-.1-.2c-.8-2.3-1.4-4.1-2-5.7c-8.5-21-28.3-35.3-50.9-36.7c-1.8-.1-3.7-.1-6.1-.1l-61 0zm90.4 54.7c.5 1.3 1.1 2.6 1.7 3.9c-6.1 0-12.5 0-19.1 0l-85.3 0c-6.6 0-12.9 0-18.9 0c.3-.8 .6-1.5 .9-2.3c0 0 0 0 0 0l.1-.2 .1-.3 .1-.3 .1-.2 0-.1 .1-.3 .1-.2 0-.1 .1-.2 0-.2 0-.1c.4-1.2 .8-2.4 1.1-3.4c.2-.6 .4-1.1 .5-1.5l.2-.5 .1-.1c3.8-9.6 12.8-16 23.1-16.7c.7 0 1.5 0 4.6 0l60.5 0c3.1 0 3.9 0 4.6 0c10.3 .6 19.3 7.1 23.1 16.7c.2 .6 .5 1.4 1.3 3.9l0 .1 0 .2 .1 .2 0 .1 .1 .2 .1 .3 0 .1 .1 .2 .1 .3 .1 .3 .1 .2z"/></svg>