<svg xmlns="http://www.w3.org/2000/svg" viewBox="0 0 512 512"><!--!Font Awesome Pro 6.5.2 by @fontawesome - https://fontawesome.com License - https://fontawesome.com/license (Commercial License) Copyright 2024 Fonticons, Inc.--><path class="fa-secondary" opacity=".4" d="M42.7 256c0 100.6 0 150.8 31.2 182.1c31.2 31.2 81.4 31.2 181.6 31.2l.5 0c100.6 0 150.8 0 182.1-31.3c31.2-31.2 31.3-81.3 31.3-181.6l0-.5c0-7.3 0-10.9-.3-14.6c-1.6-17.4-8.4-34-19.6-47.4c-3.3-3.7-6.7-7.3-10.3-10.8L328.8 72.9c-3.4-3.6-7-7-10.8-10.3c-13.5-11.2-30-18.1-47.4-19.6c-3.7-.3-7.3-.3-14.6-.3c-100.6 0-150.8 0-182.1 31.2C42.7 105.2 42.7 155.4 42.7 256zm90.7-128c0-8.8 7.2-16 16-16s16 7.2 16 16l0 64c0 8.8-7.2 16-16 16s-16-7.2-16-16l0-64zm64 0c0-8.8 7.2-16 16-16s16 7.2 16 16l0 64c0 8.8-7.2 16-16 16s-16-7.2-16-16l0-64zm64 0c0-8.8 7.2-16 16-16s16 7.2 16 16l0 64c0 8.8-7.2 16-16 16s-16-7.2-16-16l0-64z"/><path class="fa-primary" d="M293.3 128a16 16 0 0 0 -32 0v64a16 16 0 0 0 32 0zm-64 0a16 16 0 0 0 -32 0v64a16 16 0 0 0 32 0zm-64 0a16 16 0 0 0 -32 0v64a16 16 0 0 0 32 0z"/></svg>