<svg xmlns="http://www.w3.org/2000/svg" viewBox="0 0 512 512"><!--!Font Awesome Pro 6.6.0 by @fontawesome - https://fontawesome.com License - https://fontawesome.com/license (Commercial License) Copyright 2024 Fonticons, Inc.--><path class="fa-secondary" opacity=".4" d="M64 222.2c0-68.2 0-102.3 8.1-113.8S112.2 86 176.3 64l12.2-4.2C222 48.4 238.7 42.7 256 42.7s34 5.7 67.5 17.2L335.7 64c64.1 22 96.2 32.9 104.3 44.4c8 11.5 8.1 45.5 8.1 113.5l0 .3 0 33.6c0 120.3-90.4 178.6-147.2 203.4c-15.4 6.7-23.1 10.1-44.8 10.1s-29.4-3.4-44.8-10.1C154.4 434.5 64 376.1 64 255.8l0-33.6zM170.7 320c0 23.6 0 42.7 85.3 42.7s85.3-19.1 85.3-42.7s-38.2-42.7-85.3-42.7s-85.3 19.1-85.3 42.7zm42.7-128a42.7 42.7 0 1 0 85.3 0 42.7 42.7 0 1 0 -85.3 0z"/><path class="fa-primary" d="M213.3 192a42.7 42.7 0 1 1 85.3 0 42.7 42.7 0 1 1 -85.3 0zM256 362.7c85.3 0 85.3-19.1 85.3-42.7s-38.2-42.7-85.3-42.7s-85.3 19.1-85.3 42.7s0 42.7 85.3 42.7z"/></svg>