<svg xmlns="http://www.w3.org/2000/svg" viewBox="0 0 512 512"><!--!Font Awesome Pro 6.6.0 by @fontawesome - https://fontawesome.com License - https://fontawesome.com/license (Commercial License) Copyright 2024 Fonticons, Inc.--><path class="fa-secondary" opacity=".4" d="M49.7 369.9c2.8 5.6 8.4 8.8 14.3 8.8c2.4 0 4.9-.6 7.2-1.7L126.4 349c10.8-5.5 17.6-16.6 17.6-28.6c0-54.9 40-101.9 93.5-110.9c12.2-2.1 24.9-2.1 37.1 0c53.5 9 93.5 56 93.5 110.9c0 12 6.7 23.2 17.6 28.6l55.2 27.9c2.3 1.2 4.8 1.7 7.2 1.7c5.8 0 11.5-3.2 14.3-8.8c1.2-2.3 1.7-4.8 1.7-7.2c0-5.8-3.2-11.5-8.8-14.3L400 320.5c0-70.6-51.2-130.9-120.2-142.5c-7.8-1.3-15.8-2-23.8-2s-16 .7-23.8 2C163.2 189.6 112 249.9 112 320.4c-18.4 9.4-36.8 18.7-55.2 28c-7.9 4-11 13.6-7.1 21.5z"/><path class="fa-primary" d="M202.7 96a53.3 53.3 0 1 1 106.7 0A53.3 53.3 0 1 1 202.7 96zm9.6 232.5c7.1 5.3 8.5 15.3 3.2 22.4l-22.3 29.8c-.6 .8-1 1.4-1.5 2c-7.7 9.8-18.3 16.8-30.3 20.1c-.7 .2-1.5 .4-2.4 .6l-.2 0-31.7 7.9c-15.1 3.8-25.7 17.4-25.7 33c0 5 4 9 9 9l33.2 0c13.2 0 18.5 0 23.5-.6c12.3-1.4 24.2-5.4 35-11.7c4.4-2.6 8.7-5.7 19.2-13.6l46.5-34.9c7.1-5.3 17.1-3.9 22.4 3.2s3.9 17.1-3.2 22.4l-19.3 14.5 26.8 10.1c13.4 5 18.8 7 24.2 8.3c3 .7 5.9 1.2 9 1.6c5.6 .7 11.3 .8 25.6 .8l48.4 0c5 0 9-4 9-9c0-15.6-10.6-29.2-25.7-33l-31.8-8c-.9-.2-1.7-.4-2.4-.6c-12-3.3-22.6-10.4-30.3-20.1c-.5-.6-.9-1.2-1.5-2l-22.3-29.8c-5.3-7.1-3.9-17.1 3.2-22.4s17.1-3.9 22.4 3.2l22.2 29.6c.7 1 .9 1.2 1.1 1.5c3.5 4.4 8.3 7.6 13.8 9.1c.3 .1 .6 .2 1.8 .5l31.7 7.9c29.4 7.3 50 33.7 50 64c0 22.6-18.3 41-41 41l-49.5 0c-12.8 0-20.8 0-28.6-1c-4.1-.5-8.1-1.3-12.1-2.2c-7.7-1.8-15.1-4.6-27.2-9.1l-47-17.6c-8.1 6.1-13.5 10-19.2 13.3c-14.5 8.4-30.6 13.8-47.3 15.8c-7.1 .8-14.4 .8-26.2 .8l-34.2 0c-22.6 0-41-18.3-41-41c0-30.3 20.6-56.7 50-64l31.7-7.9c1.2-.3 1.5-.4 1.8-.5c5.4-1.5 10.3-4.7 13.8-9.1c.2-.2 .4-.5 1.1-1.5l22.2-29.6c5.3-7.1 15.3-8.5 22.4-3.2z"/></svg>