<svg xmlns="http://www.w3.org/2000/svg" viewBox="0 0 512 512"><!--!Font Awesome Pro 6.6.0 by @fontawesome - https://fontawesome.com License - https://fontawesome.com/license (Commercial License) Copyright 2024 Fonticons, Inc.--><path class="fa-secondary" opacity=".4" d="M64 221.8l0 .4 0 33.6c0 120.3 90.4 178.6 147.2 203.4c15.4 6.7 23.1 10.1 44.8 10.1s29.4-3.4 44.8-10.1C357.6 434.5 448 376.1 448 255.8l0-33.6c0-68.2 0-102.3-8.1-113.8S399.8 86 335.7 64l-12.2-4.2C290 48.4 273.3 42.7 256 42.7s-34 5.7-67.5 17.2L176.3 64C112.2 86 80.1 97 72.1 108.4C64 119.9 64 153.9 64 221.8zM378.7 256a122.7 122.7 0 1 1 -245.3 0 122.7 122.7 0 1 1 245.3 0zM166.8 240l31 0c.5-9.4 1.5-18.6 3-27.4c2.1-12.4 5-24.1 8.9-34.5c-6.5 3.8-12.4 8.5-17.8 13.8c-8.4 8.4-15.1 18.4-19.7 29.4c-2.5 6-4.3 12.3-5.5 18.7zm0 32c1.1 6.4 3 12.7 5.5 18.7c4.6 11 11.2 21 19.7 29.4c5.3 5.3 11.3 10 17.8 13.8c-3.8-10.4-6.8-22.1-8.9-34.5c-1.5-8.9-2.5-18.1-3-27.4l-31 0zm63.1-32l52.3 0c-.5-7.6-1.3-15.1-2.5-22.2c-2-12.1-4.9-22.7-8.3-31.3c-3.5-8.7-7.2-14.6-10.5-18c-1.6-1.6-2.8-2.5-3.6-2.9c-.7-.4-1.1-.4-1.2-.4s-.5 0-1.2 .4c-.8 .4-2 1.2-3.6 2.9c-3.3 3.4-7 9.2-10.5 18c-3.4 8.6-6.3 19.2-8.3 31.3c-1.2 7.1-2 14.6-2.5 22.2zm0 32c.5 7.6 1.3 15.1 2.5 22.2c2 12.1 4.9 22.7 8.3 31.3c3.5 8.7 7.2 14.6 10.5 17.9c1.6 1.6 2.8 2.5 3.6 2.9c.7 .4 1.1 .4 1.2 .4s.5 0 1.2-.4c.8-.4 2-1.2 3.6-2.9c3.3-3.4 7-9.2 10.5-17.9c3.4-8.6 6.3-19.2 8.3-31.3c1.2-7.1 2-14.6 2.5-22.2l-52.3 0zm72.5-93.9c3.8 10.4 6.8 22.1 8.9 34.5c1.5 8.9 2.5 18.1 3 27.4l31 0c-1.1-6.4-3-12.7-5.5-18.7c-4.6-11-11.2-21-19.7-29.4c-5.3-5.3-11.3-10-17.8-13.8zm0 155.8c6.5-3.8 12.4-8.5 17.8-13.8c8.4-8.4 15.1-18.4 19.7-29.4c2.5-6 4.3-12.3 5.5-18.7l-31 0c-.5 9.4-1.5 18.6-3 27.4c-2.1 12.4-5 24.1-8.9 34.5z"/><path class="fa-primary" d="M142.7 209.1a122.7 122.7 0 1 0 226.7 93.9A122.7 122.7 0 1 0 142.7 209.1zm112.1-43.3c.7-.4 1.1-.4 1.2-.4s.5 0 1.2 .4c.8 .4 2 1.2 3.6 2.9c3.3 3.4 7 9.2 10.5 18c3.4 8.6 6.3 19.2 8.3 31.3c1.2 7.1 2 14.6 2.5 22.2l-52.3 0c.5-7.6 1.3-15.1 2.5-22.2c2-12.1 4.9-22.7 8.3-31.3c3.5-8.7 7.2-14.6 10.5-18c1.6-1.6 2.8-2.5 3.6-2.9zm-54 46.9c-1.5 8.9-2.5 18.1-3 27.4l-31 0c1.1-6.4 3-12.7 5.5-18.7c4.6-11 11.2-21 19.7-29.4c5.3-5.3 11.3-10 17.8-13.8c-3.8 10.4-6.8 22.1-8.9 34.5zm-34 59.4l31 0c.5 9.4 1.5 18.6 3 27.4c2.1 12.4 5 24.1 8.9 34.5c-6.5-3.8-12.4-8.5-17.8-13.8c-8.4-8.4-15.1-18.4-19.7-29.4c-2.5-6-4.3-12.3-5.5-18.7zm178.5-32l-31 0c-.5-9.4-1.5-18.6-3-27.4c-2.1-12.4-5-24.1-8.9-34.5c6.5 3.8 12.4 8.5 17.8 13.8c8.4 8.4 15.1 18.4 19.7 29.4c2.5 6 4.3 12.3 5.5 18.7zm-31 32l31 0c-1.1 6.4-3 12.7-5.5 18.7c-4.6 11-11.2 21-19.7 29.4c-5.3 5.3-11.3 10-17.8 13.8c3.8-10.4 6.8-22.1 8.9-34.5c1.5-8.9 2.5-18.1 3-27.4zm-32.1 0c-.5 7.6-1.3 15.1-2.5 22.2c-2 12.1-4.9 22.7-8.3 31.3c-3.5 8.7-7.2 14.6-10.5 17.9c-1.6 1.6-2.8 2.5-3.6 2.9c-.7 .4-1.1 .4-1.2 .4s-.5 0-1.2-.4c-.8-.4-2-1.2-3.6-2.9c-3.3-3.4-7-9.2-10.5-17.9c-3.4-8.6-6.3-19.2-8.3-31.3c-1.2-7.1-2-14.6-2.5-22.2l52.3 0z"/></svg>