<svg xmlns="http://www.w3.org/2000/svg" viewBox="0 0 512 512"><!--!Font Awesome Pro 6.6.0 by @fontawesome - https://fontawesome.com License - https://fontawesome.com/license (Commercial License) Copyright 2024 Fonticons, Inc.--><path class="fa-secondary" opacity=".4" d="M256 85.3l0 105.4 54 54c3.1 3.1 4.7 7.2 4.7 11.3s-1.6 8.2-4.7 11.3l-54 54 0 105.4c94.3 0 170.7-76.4 170.7-170.7s-76.4-170.7-170.7-170.7zM256 236l0 4 4 0-4-4zm0 36l0 4 4-4-4 0z"/><path class="fa-primary" d="M223.4 180.7c-6.2 6.2-6.2 16.4 0 22.6L260 240 85.3 240c-8.8 0-16 7.2-16 16s7.2 16 16 16L260 272l-36.7 36.7c-6.2 6.2-6.2 16.4 0 22.6s16.4 6.2 22.6 0l64-64c6.2-6.2 6.2-16.4 0-22.6l-64-64c-6.2-6.2-16.4-6.2-22.6 0z"/></svg>