<svg xmlns="http://www.w3.org/2000/svg" viewBox="0 0 512 512"><!--!Font Awesome Pro 6.6.0 by @fontawesome - https://fontawesome.com License - https://fontawesome.com/license (Commercial License) Copyright 2024 Fonticons, Inc.--><path class="fa-secondary" opacity=".4" d="M64 221.8l0 .4 0 33.6c0 120.3 90.4 178.6 147.2 203.4c15.4 6.7 23.1 10.1 44.8 10.1s29.4-3.4 44.8-10.1C357.6 434.5 448 376.1 448 255.8l0-33.6c0-68.2 0-102.3-8.1-113.8S399.8 86 335.7 64l-12.2-4.2C290 48.4 273.3 42.7 256 42.7s-34 5.7-67.5 17.2L176.3 64C112.2 86 80.1 97 72.1 108.4C64 119.9 64 153.9 64 221.8zm107.2-8.1c2.5-8 13-10.4 34-15.2l5.4-1.2c6-1.3 8.9-2 11.3-3.8s3.9-4.6 7-10.1l2.8-5c10.8-19.4 16.2-29.1 24.3-29.1s13.5 9.7 24.3 29.1c.9 1.7 1.9 3.3 2.8 5c3.1 5.5 4.6 8.3 7 10.1s5.4 2.5 11.3 3.8l5.4 1.2c21 4.7 31.5 7.1 34 15.2c.3 1.1 .5 2.1 .5 3.2c0 7.2-7 15.4-19.5 29.9l-3.7 4.3c-4.1 4.8-6.1 7.1-7 10.1s-.6 6.1 0 12.5l.6 5.8c2.2 22.3 3.2 33.5-3.3 38.4c-1.8 1.4-4 2-6.5 2c-6.4 0-15.4-4.2-29.5-10.7l-5.1-2.3c-5.6-2.6-8.4-3.9-11.3-3.9s-5.8 1.3-11.3 3.9l-5.1 2.3C225.5 315.8 216.4 320 210 320c-2.5 0-4.6-.6-6.5-2c-6.5-5-5.5-16.1-3.3-38.4l.6-5.8c.6-6.3 .9-9.5 0-12.5s-2.9-5.3-7-10.1l-3.7-4.3c-14.3-16.7-21.5-25.1-19-33.1z"/><path class="fa-primary" d="M231.7 178.4l-2.8 5c-3.1 5.5-4.6 8.3-7 10.1s-5.4 2.5-11.3 3.8l-5.4 1.2c-21 4.7-31.5 7.1-34 15.2s4.7 16.4 19 33.1l3.7 4.3c4.1 4.8 6.1 7.1 7 10.1s.6 6.1 0 12.5l-.6 5.8c-2.2 22.3-3.2 33.5 3.3 38.4s16.4 .4 36-8.6l0 0 5.1-2.3 0 0c5.6-2.6 8.4-3.9 11.3-3.9s5.8 1.3 11.3 3.9l5.1 2.3 0 0c19.7 9 29.5 13.6 36 8.6s5.5-16.1 3.3-38.4l-.6-5.8 0 0c-.6-6.3-.9-9.5 0-12.5s2.9-5.3 7-10.1l3.7-4.3 0 0c14.3-16.7 21.5-25.1 19-33.1s-13-10.4-34-15.2l-5.4-1.2c-6-1.3-8.9-2-11.3-3.8s-3.9-4.6-7-10.1l0 0-2.8-5 0 0c-10.8-19.4-16.2-29.1-24.3-29.1s-13.5 9.7-24.3 29.1l0 0z"/></svg>