<svg xmlns="http://www.w3.org/2000/svg" viewBox="0 0 512 512"><!--!Font Awesome Pro 6.6.0 by @fontawesome - https://fontawesome.com License - https://fontawesome.com/license (Commercial License) Copyright 2024 Fonticons, Inc.--><path class="fa-secondary" opacity=".4" d="M65.2 54.2c-6 11.6 4.6 26.3 25.7 55.9L115 143.9c9.4 13.1 14.1 19.7 21 23.3s15 3.5 31.1 3.5l177.9 0c16.1 0 24.2 0 31.1-3.5s11.6-10.1 21-23.3l24.1-33.7c17.2-24 27.4-38.3 27.4-49c0-2.5-.5-4.7-1.6-6.9c-5.9-11.5-24-11.6-60.2-11.6l-.2 0-260.8 0c-36.3 0-54.5 0-60.4 11.6zm0 403.5c6 11.6 24.1 11.6 60.4 11.6l260.8 0c36.4 0 54.5 0 60.4-11.6c1.1-2.2 1.6-4.4 1.6-6.9c0-10.7-10.2-25-27.4-49L397 368.1c-9.4-13.1-14.1-19.7-21-23.3s-15-3.5-31.1-3.5l-177.9 0c-16.1 0-24.2 0-31.1 3.5s-11.6 10.1-21 23.3L90.9 401.9c-21.1 29.5-31.7 44.3-25.7 55.9z"/><path class="fa-primary" d="M26.7 256c0-8.8 7.2-16 16-16l85.3 0c8.8 0 16 7.2 16 16s-7.2 16-16 16l-85.3 0c-8.8 0-16-7.2-16-16zm170.7 0c0-8.8 7.2-16 16-16l85.3 0c8.8 0 16 7.2 16 16s-7.2 16-16 16l-85.3 0c-8.8 0-16-7.2-16-16zM368 256c0-8.8 7.2-16 16-16l85.3 0c8.8 0 16 7.2 16 16s-7.2 16-16 16L384 272c-8.8 0-16-7.2-16-16z"/></svg>