<svg xmlns="http://www.w3.org/2000/svg" viewBox="0 0 512 512"><!--!Font Awesome Pro 6.6.0 by @fontawesome - https://fontawesome.com License - https://fontawesome.com/license (Commercial License) Copyright 2024 Fonticons, Inc.--><path class="fa-secondary" opacity=".4" d="M42.7 266.3l0 41.4c0 31.4 24.4 56.9 54.6 56.9c1 0 2 0 3.1-.1c28.5 .1 51.5-24 51.5-53.6l0-85.9c0-60 46.6-108.6 104.2-108.6s104.2 48.6 104.2 108.6l0 85.9c0 29.7 23.1 53.7 51.5 53.7c1 0 2 0 3.1 0c30.1 0 54.6-25.5 54.6-56.9l0-41.4c0-31.4-24.4-56.9-54.6-56.9c-9 0-17.6 2.3-25.1 6.4C385.1 143 327 85.3 256 85.3s-129.1 57.6-133.7 130.5c-7.5-4.1-16-6.4-25.1-6.4c-30.1 0-54.6 25.5-54.6 56.9z"/><path class="fa-primary" d="M231.2 225c0-8.6-6.7-15.5-14.9-15.5H183.1C190 174 220 147.4 256 147.4s66 26.7 72.9 62.1H275.8c-8.2 0-14.9 6.9-14.9 15.5s6.7 15.5 14.9 15.5h54.6v31H275.8c-8.2 0-14.9 6.9-14.9 15.5s6.7 15.5 14.9 15.5h53.1c-5.9 30.4-28.9 54.3-58 60.5v48.1c0 8.6-6.7 15.5-14.9 15.5s-14.9-6.9-14.9-15.5V363.1c-29.2-6.2-52.1-30.1-58-60.5h33.2c8.2 0 14.9-6.9 14.9-15.5s-6.7-15.5-14.9-15.5H181.6v-31h34.7c8.2 0 14.9-6.9 14.9-15.5z"/></svg>