<svg xmlns="http://www.w3.org/2000/svg" viewBox="0 0 512 512"><!--!Font Awesome Pro 6.6.0 by @fontawesome - https://fontawesome.com License - https://fontawesome.com/license (Commercial License) Copyright 2024 Fonticons, Inc.--><path class="fa-secondary" opacity=".4" d="M42.7 128l0 48 64 0c8.8 0 16 7.2 16 16s-7.2 16-16 16l-64 0 0 32 42.7 0c8.8 0 16 7.2 16 16s-7.2 16-16 16l-42.7 0 0 32 64 0c8.8 0 16 7.2 16 16s-7.2 16-16 16l-64 0 0 32 42.7 0c8.8 0 16 7.2 16 16s-7.2 16-16 16l-42.7 0c0 26.4 .4 40.3 7.2 50.4C53 455 57 459 61.6 462.1c10.8 7.2 25.7 7.2 55.7 7.2c30 0 45 0 55.7-7.2c4.7-3.1 8.7-7.1 11.8-11.8c7.2-10.8 7.2-25.7 7.2-55.7l0-160c0-20.1 0-30.2 6.2-36.4s16.3-6.2 36.4-6.2l160 0c30 0 44.9 0 55.7-7.2c4.7-3.1 8.7-7.1 11.8-11.8c7.2-10.8 7.2-25.7 7.2-55.7c0-30 0-45-7.2-55.7C459 57 455 53 450.4 49.9c-10.1-6.8-23.9-7.2-50.4-7.2l0 42.7c0 8.8-7.2 16-16 16s-16-7.2-16-16l0-42.7-32 0 0 64c0 8.8-7.2 16-16 16s-16-7.2-16-16l0-64-32 0 0 42.7c0 8.8-7.2 16-16 16s-16-7.2-16-16l0-42.7-32 0 0 64c0 8.8-7.2 16-16 16s-16-7.2-16-16l0-64-48 0-.3 0c-40 0-60.1 0-72.6 12.5C42.7 67.7 42.7 87.8 42.7 128z"/><path class="fa-primary" d="M85.3 368H42.7l0 32H85.3c8.8 0 16-7.2 16-16s-7.2-16-16-16zm21.3-64l-64 0v32l64 0c8.8 0 16-7.2 16-16s-7.2-16-16-16zM85.3 240H42.7v32H85.3c8.8 0 16-7.2 16-16s-7.2-16-16-16zm21.3-64h-64v32h64c8.8 0 16-7.2 16-16s-7.2-16-16-16zM208 106.7l0-64H176l0 64c0 8.8 7.2 16 16 16s16-7.2 16-16zm64-21.3V42.7H240V85.3c0 8.8 7.2 16 16 16s16-7.2 16-16zm64 21.3v-64H304v64c0 8.8 7.2 16 16 16s16-7.2 16-16zm64-21.3V42.7l-32 0V85.3c0 8.8 7.2 16 16 16s16-7.2 16-16z"/></svg>