<svg xmlns="http://www.w3.org/2000/svg" viewBox="0 0 512 512"><!--!Font Awesome Pro 6.6.0 by @fontawesome - https://fontawesome.com License - https://fontawesome.com/license (Commercial License) Copyright 2024 Fonticons, Inc.--><path class="fa-secondary" opacity=".4" d="M48 250.9l0 1 0 2.4c0 44.9 0 80.2 3.7 107.8c3.7 28.3 11.6 50.8 29.1 68.6c17.5 17.8 39.8 25.8 67.8 29.6c27.2 3.7 62.1 3.7 106.3 3.7l2.5 0c44.2 0 79 0 106.3-3.7c28-3.8 50.3-11.8 67.8-29.6c17.5-17.7 25.3-40.3 29.1-68.6c3.7-27.6 3.7-62.9 3.7-107.8l0-2.4 0-.4c0-44.8 0-80-3.7-107.5c-3.7-28.3-11.6-50.8-29.1-68.6c-17.5-17.8-39.8-25.8-67.8-29.6c-27.2-3.7-62.1-3.7-106.3-3.7l-1.6 0c-8 0-15.7 0-23.1 0l0-20.9c0-6.5-3.9-12.3-9.9-14.8c-2-.8-4-1.2-6.1-1.2c-4.2 0-8.3 1.7-11.4 4.8L167.8 48c-6.1 6.2-6.1 16.2 0 22.5l37.3 37.9c4.6 4.6 11.5 6 17.5 3.6s9.9-8.3 9.9-14.8l0-23c7.4 0 15.2 0 23.5 0c45.7 0 78.4 0 103.2 3.4c24.3 3.3 38.7 9.6 49.3 20.4c10.6 10.8 16.9 25.5 20.1 50.3c3.3 25.2 3.4 58.4 3.4 104.8s0 79.6-3.4 104.8c-3.3 24.8-9.5 39.5-20.1 50.3c-10.6 10.8-25 17-49.3 20.4C334.4 432 301.7 432 256 432s-78.4 0-103.2-3.4c-24.3-3.3-38.7-9.6-49.3-20.4c-10.6-10.8-16.9-25.5-20.1-50.3C80 332.7 80 299.5 80 253.1s0-79.6 3.4-104.8c3.3-24.8 9.5-39.5 20.1-50.3c6.2-6.3 6.1-16.4-.2-22.6s-16.4-6.1-22.6 .2C63.2 93.2 55.4 115.8 51.7 144C48 171.4 48 206.4 48 250.9z"/><path class="fa-primary" d="M342 214c6.2-6.2 6.2-16.4 0-22.6s-16.4-6.2-22.6 0L224 286.7l-31.4-31.4c-6.2-6.2-16.4-6.2-22.6 0s-6.2 16.4 0 22.6l42.7 42.7c6.2 6.2 16.4 6.2 22.6 0L342 214z"/></svg>