<svg xmlns="http://www.w3.org/2000/svg" viewBox="0 0 512 512"><!--!Font Awesome Pro 6.6.0 by @fontawesome - https://fontawesome.com License - https://fontawesome.com/license (Commercial License) Copyright 2024 Fonticons, Inc.--><path class="fa-secondary" opacity=".4" d="M42.7 256c0-100.6 0-150.8 31.2-182.1S155.4 42.7 256 42.7s150.9 0 182.1 31.2c31.2 31.2 31.2 81.3 31.2 181.3l0 .8c0 100.6 0 150.9-31.2 182.1s-81.5 31.2-182.1 31.2s-150.8 0-182.1-31.2S42.7 356.6 42.7 256zM137 203.1c-5.7 6.8-4.7 16.9 2 22.5l5 4.2c14 11.7 23.2 19.4 29.1 25.9c5.6 6.2 6.1 9.1 6.1 10.9s-.5 4.7-6.1 10.9c-5.9 6.5-15.1 14.2-29.1 25.9l-5 4.2c-6.8 5.7-7.7 15.7-2 22.5c3.2 3.8 7.7 5.8 12.3 5.8c3.6 0 7.2-1.2 10.2-3.7l5.9-4.9c12.9-10.8 23.9-19.9 31.5-28.3c8.1-8.9 14.4-19.2 14.4-32.4s-6.3-23.4-14.4-32.4c-7.6-8.4-18.6-17.6-31.5-28.3c-2-1.6-3.9-3.3-5.9-4.9c-3-2.5-6.6-3.7-10.2-3.7c-4.6 0-9.1 2-12.3 5.8zM240 320c0 8.8 7.2 16 16 16l106.7 0c8.8 0 16-7.2 16-16s-7.2-16-16-16L256 304c-8.8 0-16 7.2-16 16z"/><path class="fa-primary" d="M137 203.1c5.7-6.8 15.7-7.7 22.5-2l5.9 4.9 0 0c12.9 10.8 23.9 19.9 31.5 28.3c8.1 8.9 14.4 19.2 14.4 32.4s-6.3 23.4-14.4 32.4c-7.6 8.4-18.6 17.6-31.5 28.3l-5.9 4.9c-6.8 5.7-16.9 4.7-22.5-2s-4.7-16.9 2-22.5l5-4.2c14-11.7 23.2-19.4 29.1-25.9c5.6-6.2 6.1-9.1 6.1-10.9s-.5-4.7-6.1-10.9c-5.9-6.5-15.1-14.2-29.1-25.9l-5-4.2c-6.8-5.7-7.7-15.7-2-22.5zM378.7 320c0 8.8-7.2 16-16 16H256c-8.8 0-16-7.2-16-16s7.2-16 16-16H362.7c8.8 0 16 7.2 16 16z"/></svg>