<svg xmlns="http://www.w3.org/2000/svg" viewBox="0 0 512 512"><!--!Font Awesome Pro 6.6.0 by @fontawesome - https://fontawesome.com License - https://fontawesome.com/license (Commercial License) Copyright 2024 Fonticons, Inc.--><path class="fa-secondary" opacity=".4" d="M42.7 256c0-100.6 0-150.8 31.2-182.1S155.4 42.7 256 42.7s150.9 0 182.1 31.2c31.2 31.2 31.2 81.3 31.2 181.3l0 .8c0 100.6 0 150.9-31.2 182.1s-81.5 31.2-182.1 31.2s-150.8 0-182.1-31.2S42.7 356.6 42.7 256zM128 355.1c0 4 1.5 8.5 5.8 12.7L145.1 379c4.4 3.7 15.4 9 24.5 0l13.2-13.1c13.2 13.1 28.2 5.6 33.9-1.9c9.4-13.1-1.9-26.2-1.9-26.2l3.8-3.7c18.1 18 33.9 7.5 39.5 0c9.4-13.1 0-26.2 0-26.2c-1.1-2.2-2.5-3.8-3.8-5.1c-3-3.2-4.7-5.1 1.9-11.8l11.3-11.2c9 7.5 27.6 9.4 35.7 9.4c44.7 0 80.9-36.1 80.9-80.6s-36.2-80.6-80.9-80.6s-80.9 36.1-80.9 80.6c0 20.6 9.4 35.6 9.4 35.6l-97.8 97.4c-2.6 2.6-5.8 7.6-5.8 13.5zM331.3 208.6a28.2 28.2 0 1 1 -56.4 0 28.2 28.2 0 1 1 56.4 0z"/><path class="fa-primary" d="M384 208.6c0 44.5-36.2 80.6-80.9 80.6c-8.1 0-26.7-1.9-35.7-9.4L256.1 291c-6.6 6.6-4.8 8.6-1.9 11.8c1.2 1.3 2.7 2.9 3.8 5.1c0 0 9.4 13.1 0 26.2c-5.6 7.5-21.4 18-39.5 0l-3.8 3.7s11.3 13.1 1.9 26.2c-5.6 7.5-20.7 15-33.9 1.9L169.6 379c-9 9-20.1 3.7-24.5 0l-11.3-11.2c-10.5-10.5-4.4-21.9 0-26.2l97.8-97.4s-9.4-15-9.4-35.6c0-44.5 36.2-80.6 80.9-80.6s80.9 36.1 80.9 80.6zm-80.9 28.1a28.1 28.1 0 1 0 0-56.2 28.1 28.1 0 1 0 0 56.2z"/></svg>