<svg xmlns="http://www.w3.org/2000/svg" viewBox="0 0 512 512"><!--!Font Awesome Pro 6.6.0 by @fontawesome - https://fontawesome.com License - https://fontawesome.com/license (Commercial License) Copyright 2024 Fonticons, Inc.--><path class="fa-secondary" opacity=".4" d="M45 287.1C105 347.1 165 407 224.9 467c61.5-5.9 126.9-24.4 172.3-69.8s63.9-110.8 69.8-172.3L287.1 45c-61.5 5.9-126.9 24.4-172.3 69.8S50.9 225.6 45 287.1zm129.1-32.3c6.2-6.2 16.4-6.2 22.6 0l18.9 18.9L233.4 256l-18.9-18.9c-6.2-6.2-6.2-16.4 0-22.6s16.4-6.2 22.6 0L256 233.4l17.7-17.7-18.9-18.9c-6.2-6.2-6.2-16.4 0-22.6s16.4-6.2 22.6 0L296.3 193l18.9-18.9c6.2-6.2 16.4-6.2 22.6 0s6.2 16.4 0 22.6L319 215.7l18.9 18.9c6.2 6.2 6.2 16.4 0 22.6s-16.4 6.2-22.6 0l-18.9-18.9L278.6 256l18.9 18.9c6.2 6.2 6.2 16.4 0 22.6s-16.4 6.2-22.6 0L256 278.6l-17.7 17.7 18.9 18.9c6.2 6.2 6.2 16.4 0 22.6s-16.4 6.2-22.6 0L215.7 319l-18.9 18.9c-6.2 6.2-16.4 6.2-22.6 0s-6.2-16.4 0-22.6L193 296.3l-18.9-18.9c-6.2-6.2-6.2-16.4 0-22.6z"/><path class="fa-primary" d="M385.5 44.5c-28.4-2.2-62.7-2.9-98.4 .5L467 224.9c3.4-35.6 2.7-70 .5-98.4c-3.4-44.4-37.6-78.6-82-82zM126.5 467.5c28.4 2.2 62.7 2.9 98.4-.5L45 287.1c-3.4 35.6-2.7 70-.5 98.4c3.4 44.4 37.6 78.6 82 82zM254.8 174.1c6.2-6.2 16.4-6.2 22.6 0L296.3 193l18.9-18.9c6.2-6.2 16.4-6.2 22.6 0s6.2 16.4 0 22.6L319 215.7l18.9 18.9c6.2 6.2 6.2 16.4 0 22.6s-16.4 6.2-22.6 0l-18.9-18.9L278.6 256l18.9 18.9c6.2 6.2 6.2 16.4 0 22.6s-16.4 6.2-22.6 0L256 278.6l-17.7 17.7 18.9 18.9c6.2 6.2 6.2 16.4 0 22.6s-16.4 6.2-22.6 0L215.7 319l-18.9 18.9c-6.2 6.2-16.4 6.2-22.6 0s-6.2-16.4 0-22.6L193 296.3l-18.9-18.9c-6.2-6.2-6.2-16.4 0-22.6s16.4-6.2 22.6 0l18.9 18.9L233.4 256l-18.9-18.9c-6.2-6.2-6.2-16.4 0-22.6s16.4-6.2 22.6 0L256 233.4l17.7-17.7-18.9-18.9c-6.2-6.2-6.2-16.4 0-22.6z"/></svg>