<svg xmlns="http://www.w3.org/2000/svg" viewBox="0 0 512 512"><!--!Font Awesome Pro 6.6.0 by @fontawesome - https://fontawesome.com License - https://fontawesome.com/license (Commercial License) Copyright 2024 Fonticons, Inc.--><path class="fa-secondary" opacity=".4" d="M42.7 256c0 59.9 0 89.9 14.4 111.4c6.2 9.3 14.2 17.3 23.5 23.5c21.5 14.4 51.4 14.4 111.1 14.4l.3 0 128 0c59.9 0 89.9 0 111.4-14.4c9.3-6.2 17.3-14.2 23.5-23.5c14.4-21.5 14.4-51.4 14.4-111l0-.4c0-59.9 0-89.9-14.4-111.4c-6.2-9.3-14.2-17.3-23.5-23.5c-21.5-14.4-51.5-14.4-111.4-14.4l-128 0c-59.9 0-89.9 0-111.4 14.4c-9.3 6.2-17.3 14.2-23.5 23.5C42.7 166.1 42.7 196.1 42.7 256zm58.7-64c0-8.8 7.2-16 16-16s16 7.2 16 16l0 128c0 8.8-7.2 16-16 16s-16-7.2-16-16l0-128zM336 256a80 80 0 1 1 -160 0 80 80 0 1 1 160 0zm-128 0a48 48 0 1 0 96 0 48 48 0 1 0 -96 0zm170.7-64c0-8.8 7.2-16 16-16s16 7.2 16 16l0 128c0 8.8-7.2 16-16 16s-16-7.2-16-16l0-128z"/><path class="fa-primary" d="M117.3 336c-8.8 0-16-7.2-16-16l0-128c0-8.8 7.2-16 16-16s16 7.2 16 16l0 128c0 8.8-7.2 16-16 16zm261.3-16c0 8.8 7.2 16 16 16s16-7.2 16-16V192c0-8.8-7.2-16-16-16s-16 7.2-16 16V320zM176 256a80 80 0 1 0 160 0 80 80 0 1 0 -160 0zm128 0a48 48 0 1 1 -96 0 48 48 0 1 1 96 0z"/></svg>