<svg xmlns="http://www.w3.org/2000/svg" viewBox="0 0 512 512"><!--!Font Awesome Pro 6.6.0 by @fontawesome - https://fontawesome.com License - https://fontawesome.com/license (Commercial License) Copyright 2024 Fonticons, Inc.--><path class="fa-secondary" opacity=".4" d="M48 128c0 8.8 7.2 16 16 16l256 0c8.8 0 16-7.2 16-16s-7.2-16-16-16L64 112c-8.8 0-16 7.2-16 16zm0 85.3c0 8.8 7.2 16 16 16l213.3 0c8.8 0 16-7.2 16-16s-7.2-16-16-16L64 197.3c-8.8 0-16 7.2-16 16zm0 85.3c0 8.8 7.2 16 16 16l128 0c8.8 0 16-7.2 16-16s-7.2-16-16-16l-128 0c-8.8 0-16 7.2-16 16zM48 384c0 8.8 7.2 16 16 16l106.7 0c8.8 0 16-7.2 16-16s-7.2-16-16-16L64 368c-8.8 0-16 7.2-16 16z"/><path class="fa-primary" d="M362.7 154.7c8.8 0 16 7.2 16 16c0 38.3 31 69.3 69.3 69.3c8.8 0 16 7.2 16 16s-7.2 16-16 16c-26.8 0-51.2-10.4-69.3-27.4V352c0 38.3-31 69.3-69.3 69.3s-69.3-31-69.3-69.3s31-69.3 69.3-69.3c13.7 0 26.6 4 37.3 10.9V170.7c0-8.8 7.2-16 16-16z"/></svg>