<svg xmlns="http://www.w3.org/2000/svg" viewBox="0 0 512 512"><!--!Font Awesome Pro 6.6.0 by @fontawesome - https://fontawesome.com License - https://fontawesome.com/license (Commercial License) Copyright 2024 Fonticons, Inc.--><path class="fa-secondary" opacity=".4" d="M114.1 50.5c-4.3-7.7-1.6-17.5 6.1-21.8c2.5-1.4 5.2-2.1 7.8-2.1c5.6 0 11 2.9 14 8.2L256 237.7l-18.4 32.6L114.1 50.5zM256 303l18.4-32.6 57.8 102.7c12.4-28.1 40.5-47.7 73.2-47.7c44.2 0 80 35.8 80 80s-35.8 80-80 80c-30.4 0-56.8-16.9-70.3-41.8L256 303z"/><path class="fa-primary" d="M370 34.8c4.3-7.7 14.1-10.4 21.8-6.1s10.4 14.1 6.1 21.8l-221 393c-13.6 24.9-40 41.8-70.3 41.8c-44.2 0-80-35.8-80-80s35.8-80 80-80c32.7 0 60.8 19.6 73.2 47.7L370 34.8z"/></svg>