<svg xmlns="http://www.w3.org/2000/svg" viewBox="0 0 512 512"><!--!Font Awesome Pro 6.6.0 by @fontawesome - https://fontawesome.com License - https://fontawesome.com/license (Commercial License) Copyright 2024 Fonticons, Inc.--><path class="fa-secondary" opacity=".4" d="M42.7 238a195.3 195.3 0 1 0 390.6 0A195.3 195.3 0 1 0 42.7 238zm128.5 0c0-8.5 6.9-15.4 15.4-15.4l36 0 0-36c0-8.5 6.9-15.4 15.4-15.4s15.4 6.9 15.4 15.4l0 36 36 0c8.5 0 15.4 6.9 15.4 15.4s-6.9 15.4-15.4 15.4l-36 0 0 36c0 8.5-6.9 15.4-15.4 15.4s-15.4-6.9-15.4-15.4l0-36-36 0c-8.5 0-15.4-6.9-15.4-15.4z"/><path class="fa-primary" d="M238 171.2c8.5 0 15.4 6.9 15.4 15.4l0 36 36 0c8.5 0 15.4 6.9 15.4 15.4s-6.9 15.4-15.4 15.4l-36 0 0 36c0 8.5-6.9 15.4-15.4 15.4s-15.4-6.9-15.4-15.4l0-36-36 0c-8.5 0-15.4-6.9-15.4-15.4s6.9-15.4 15.4-15.4l36 0 0-36c0-8.5 6.9-15.4 15.4-15.4zM364.8 386.6L443 464.8c6 6 15.8 6 21.8 0s6-15.8 0-21.8l-78.2-78.2c-6.7 7.8-14 15.1-21.8 21.8z"/></svg>