<svg xmlns="http://www.w3.org/2000/svg" viewBox="0 0 512 512"><!--!Font Awesome Pro 6.6.0 by @fontawesome - https://fontawesome.com License - https://fontawesome.com/license (Commercial License) Copyright 2024 Fonticons, Inc.--><path class="fa-secondary" opacity=".4" d="M89.9 98.9c0 9.8 3.1 19.7 9.3 28c4.4 5.9 3.8 14.1-1.4 19.3l-2.5 2.5c-6.2 6.2-6.2 16.4 0 22.6s16.4 6.2 22.6 0l2.5-2.5c16.4-16.4 18.3-42.5 4.3-61.1c-4.4-5.9-3.8-14.1 1.4-19.3l2.5-2.5c6.2-6.2 6.2-16.4 0-22.6s-16.4-6.2-22.6 0l-2.5 2.5c-9.1 9.1-13.7 21-13.7 33.1zM202 31.4c-18 18-18 47.3 0 65.3c5.5 5.5 5.5 14.5 0 20c-6.2 6.2-6.2 16.4 0 22.6s16.4 6.2 22.6 0c18-18 18-47.3 0-65.3c-5.5-5.5-5.5-14.5 0-20c6.2-6.2 6.2-16.4 0-22.6s-16.4-6.2-22.6 0zm96 117.3c-6.2 6.2-6.2 16.4 0 22.6s16.4 6.2 22.6 0l2.5-2.5c16.5-16.4 18.3-42.5 4.3-61.1c-4.4-5.9-3.8-14.1 1.4-19.3l2.5-2.5c6.2-6.2 6.2-16.4 0-22.6s-16.4-6.2-22.6 0l-2.5 2.5c-16.4 16.4-18.3 42.5-4.3 61.1c4.4 5.9 3.8 14.1-1.4 19.3l-2.5 2.5z"/><path class="fa-primary" d="M48 253.5c-.2 3.8 .3 8.3 1.4 17.4L57.9 344c3.9 33 21.5 62.8 48.6 82.1c19.9 14.2 43.8 21.9 68.3 21.9l77.1 0c24.5 0 48.4-7.6 68.3-21.9c17.1-12.2 30.5-28.7 39-47.5l46.2 0c44.2 0 80-35.8 80-80s-35.8-80-80-80l-48.6 0c-4-2.2-8.5-3.8-13.2-4.7c-3.7-.7-8.3-.7-17.5-.7l-225.4 0c-9.2 0-13.8 0-17.5 .7c-19.4 3.5-33.9 19.8-35.1 39.5zm330.4-2.8l26.9 0c26.5 0 48 21.5 48 48s-21.5 48-48 48l-36.9 0c.1-.9 .2-1.8 .3-2.6l8.5-73.1c1.1-9.1 1.6-13.7 1.4-17.4c-.1-.9-.1-1.9-.3-2.8z"/></svg>