<svg xmlns="http://www.w3.org/2000/svg" viewBox="0 0 512 512"><!--!Font Awesome Pro 6.6.0 by @fontawesome - https://fontawesome.com License - https://fontawesome.com/license (Commercial License) Copyright 2024 Fonticons, Inc.--><path class="fa-secondary" opacity=".4" d="M42.7 255.5l0 .5c0 100.6 0 150.9 25 182.1s65.2 31.2 145.7 31.2l72 0c-5.2-11.4-8-24-8-37.3c0-48.3 37.7-87.8 85.3-90.5l0-80.2c0-26.5 21.5-48 48-48s48 21.5 48 48c0 7 4.4 12.9 10.7 15.1c0-6.6 0-13.4 0-20.4c0-100.6 0-150.8-25-182.1s-65.2-31.2-145.7-31.2l-85.3 0c-80.5 0-120.7 0-145.7 31.2c-24.9 31.2-25 81.3-25 181.5zM336 256a80 80 0 1 1 -160 0 80 80 0 1 1 160 0zm-128 0a48 48 0 1 0 96 0 48 48 0 1 0 -96 0z"/><path class="fa-primary" d="M336 256a80 80 0 1 1 -160 0 80 80 0 1 1 160 0zm-80-48a48 48 0 1 0 0 96 48 48 0 1 0 0-96zm154.7 37.3c8.8 0 16 7.2 16 16c0 26.5 21.5 48 48 48c8.8 0 16 7.2 16 16s-7.2 16-16 16c-18 0-34.6-6-48-16l0 106.7c0 32.4-26.3 58.7-58.7 58.7s-58.7-26.3-58.7-58.7s26.3-58.7 58.7-58.7c9.6 0 18.7 2.3 26.7 6.4l0-118.4c0-8.8 7.2-16 16-16zM394.7 432a26.7 26.7 0 1 0 -53.3 0 26.7 26.7 0 1 0 53.3 0z"/></svg>