<svg xmlns="http://www.w3.org/2000/svg" viewBox="0 0 512 512"><!--!Font Awesome Pro 6.6.0 by @fontawesome - https://fontawesome.com License - https://fontawesome.com/license (Commercial License) Copyright 2024 Fonticons, Inc.--><path class="fa-secondary" opacity=".4" d="M150.5 170.8c7.4-48.4 49.2-85.4 99.7-85.4l11.6 0c50.5 0 92.3 37.1 99.7 85.4c-.7 1.5-1.7 2.8-3.1 3.7C349.6 180.7 324.1 192 256 192s-93.6-11.3-102.4-17.5c-1.4-1-2.4-2.3-3.1-3.7z"/><path class="fa-primary" d="M121.1 183.3c-47.8 16.3-78.4 41.2-78.4 69c0 25.8 26.2 49 68.2 65.2L82.3 365.1c-4.5 7.6-2.1 17.4 5.5 22s17.4 2.1 22-5.5l32-53.3c.1-.2 .3-.4 .4-.6c28.7 7.6 62.1 12.4 97.9 13.5l0 64.3c0 8.8 7.2 16 16 16s16-7.2 16-16l0-64.3c35.8-1.1 69.2-5.9 97.9-13.5c.1 .2 .2 .4 .4 .6l32 53.3c4.5 7.6 14.4 10 22 5.5s10-14.4 5.5-22l-28.5-47.6c41.9-16.3 68.2-39.5 68.2-65.2c0-27.8-30.5-52.6-78.4-69c-2.7 6.2-7.1 12.5-14.3 17.5C359.9 212.5 326.4 224 256 224s-103.9-11.5-120.7-23.2c-7.2-5-11.6-11.3-14.3-17.5zm113.6 94a21.3 21.3 0 1 1 42.7 0 21.3 21.3 0 1 1 -42.7 0zm-85.3-42.7a21.3 21.3 0 1 1 0 42.7 21.3 21.3 0 1 1 0-42.7zm192 21.3a21.3 21.3 0 1 1 42.7 0 21.3 21.3 0 1 1 -42.7 0z"/></svg>