<svg xmlns="http://www.w3.org/2000/svg" viewBox="0 0 512 512"><!--!Font Awesome Pro 6.6.0 by @fontawesome - https://fontawesome.com License - https://fontawesome.com/license (Commercial License) Copyright 2024 Fonticons, Inc.--><path class="fa-secondary" opacity=".4" d="M44.5 58.7c2.9-8.3 12.1-12.7 20.4-9.8l6.4 2.3c13.2 4.6 24.3 8.6 33.1 12.9c9.4 4.6 17.5 10.3 23.5 19.2c6 8.8 8.5 18.5 9.6 29.1c.5 4.7 .8 10 .9 15.8l226.9 0c35.9 0 68.3 0 77.8 12.3s5.8 30.9-1.6 68L430.9 260c-6.7 32.6-10.1 48.9-21.9 58.5s-28.4 9.6-61.7 9.6l-113.1 0c-59.5 0-89.2 0-107.7-19.5s-19.8-40.2-19.8-103l0-55.5c0-15.8 0-26.4-.9-34.5c-.8-7.8-2.3-11.6-4.3-14.4c-1.9-2.7-4.7-5.3-11.2-8.5c-6.9-3.4-16.2-6.7-30.5-11.7l-5.6-2C45.9 76.2 41.5 67 44.5 58.7zm174.2 176c0 8.8 7.2 16 16 16l26.7 0 0 26.7c0 8.8 7.2 16 16 16s16-7.2 16-16l0-26.7 26.7 0c8.8 0 16-7.2 16-16s-7.2-16-16-16l-26.7 0 0-26.7c0-8.8-7.2-16-16-16s-16 7.2-16 16l0 26.7-26.7 0c-8.8 0-16 7.2-16 16z"/><path class="fa-primary" d="M160 448a32 32 0 1 1 0-64 32 32 0 1 1 0 64zm192 0a32 32 0 1 1 0-64 32 32 0 1 1 0 64zM293.3 192c0-8.8-7.2-16-16-16s-16 7.2-16 16v26.7H234.7c-8.8 0-16 7.2-16 16s7.2 16 16 16h26.7v26.7c0 8.8 7.2 16 16 16s16-7.2 16-16V250.7H320c8.8 0 16-7.2 16-16s-7.2-16-16-16H293.3V192z"/></svg>