<svg xmlns="http://www.w3.org/2000/svg" viewBox="0 0 512 512"><!--!Font Awesome Pro 6.6.0 by @fontawesome - https://fontawesome.com License - https://fontawesome.com/license (Commercial License) Copyright 2024 Fonticons, Inc.--><path class="fa-secondary" opacity=".4" d="M64 247.3l0 17.3 0 .3c0 51.1 0 76.7 11.9 97.7c11.9 21.1 33.5 33.9 76.8 59.6l14.6 8.7c43.3 25.6 64.9 38.4 88.7 38.4s45.4-12.8 88.7-38.4l14.6-8.7c43.3-25.6 64.9-38.4 76.8-59.6s11.9-46.7 11.9-98l0-17.3 0-.4c0-51 0-76.6-11.9-97.6c-11.9-21.1-33.5-33.9-76.8-59.6l-14.6-8.7C301.4 55.5 279.8 42.7 256 42.7s-45.4 12.8-88.7 38.4l-14.6 8.7c-43.3 25.6-64.9 38.4-76.8 59.6S64 196.1 64 247.3zm213.3 94a21.3 21.3 0 1 1 -42.7 0 21.3 21.3 0 1 1 42.7 0zM240 149.3c0-8.8 7.2-16 16-16s16 7.2 16 16l0 128c0 8.8-7.2 16-16 16s-16-7.2-16-16l0-128z"/><path class="fa-primary" d="M256 133.3c8.8 0 16 7.2 16 16v128c0 8.8-7.2 16-16 16s-16-7.2-16-16v-128c0-8.8 7.2-16 16-16zm0 229.3a21.3 21.3 0 1 0 0-42.7 21.3 21.3 0 1 0 0 42.7z"/></svg>