<svg xmlns="http://www.w3.org/2000/svg" viewBox="0 0 512 512"><!--!Font Awesome Pro 6.6.0 by @fontawesome - https://fontawesome.com License - https://fontawesome.com/license (Commercial License) Copyright 2024 Fonticons, Inc.--><path class="fa-secondary" opacity=".4" d="M26.7 256c0 126.7 102.7 229.3 229.3 229.3s229.3-102.7 229.3-229.3c0-111-78.8-203.5-183.5-224.7c-14.8-3-30.2-4.6-45.8-4.6c-6.2 0-11.8 3.5-14.4 9.1s-1.9 12.1 1.9 16.9L286.2 106c4.2 5.3 11.4 7.4 17.8 5.1s10.7-8.3 10.7-15.1l0-28.5C395 92.5 453.3 167.5 453.3 256c0 109-88.3 197.3-197.3 197.3S58.7 365 58.7 256c0-80.9 48.7-150.5 118.4-180.9c8.1-3.5 11.8-13 8.3-21.1s-13-11.8-21.1-8.3C83.3 81.1 26.7 161.9 26.7 256z"/><path class="fa-primary" d="M220.3 166.9c5.5 2.7 9.1 8.3 9.1 14.4V330.7c0 8.8-7.2 16-16 16s-16-7.2-16-16v-116L170 236.5c-6.9 5.5-17 4.4-22.5-2.5s-4.4-17 2.5-22.5l53.3-42.7c4.8-3.8 11.4-4.6 16.9-1.9zm50.1 16.7c3.6-10.9 13.8-18.2 25.3-18.2H352c8.8 0 16 7.2 16 16s-7.2 16-16 16H299.5l-10.7 32h20.5c32.4 0 58.7 26.3 58.7 58.7s-26.3 58.7-58.7 58.7H266.7c-8.8 0-16-7.2-16-16s7.2-16 16-16h42.7c14.7 0 26.7-11.9 26.7-26.7s-11.9-26.7-26.7-26.7H281.5c-18.2 0-31.1-17.8-25.3-35.1l14.2-42.7z"/></svg>