<svg xmlns="http://www.w3.org/2000/svg" viewBox="0 0 512 512"><!--!Font Awesome Pro 6.6.0 by @fontawesome - https://fontawesome.com License - https://fontawesome.com/license (Commercial License) Copyright 2024 Fonticons, Inc.--><path class="fa-secondary" opacity=".4" d="M240 170.7l0 83.1c0 5.7 2.2 11.1 6.2 15.1L298 320.6c3.1 3.1 7.2 4.7 11.3 4.7s8.2-1.6 11.3-4.7s4.7-7.2 4.7-11.3s-1.6-8.2-4.7-11.3L272 249.4l0-78.7c0-8.8-7.2-16-16-16s-16 7.2-16 16z"/><path class="fa-primary" d="M108.3 108.1c81-80.9 212.6-80 294 1.5c81.5 81.5 82.3 213.2 1.4 294.2s-212.7 80.1-294.2-1.4C61.3 354.1 41.4 288.2 49.9 225.7c1.2-8.8 9.3-14.9 18-13.7s14.9 9.3 13.7 18c-7.3 52.9 9.6 108.7 50.6 149.7c69.2 69.2 180.7 69.6 248.9 1.4s67.9-179.7-1.4-248.9C310.6 63.1 199.2 62.6 131 130.8l16 .1c8.8 0 16 7.2 15.9 16.1s-7.2 16-16.1 15.9l-54.3-.3c-8.8 0-15.9-7.1-15.9-15.9l-.3-54.3c0-8.8 7.1-16 15.9-16.1s16 7.1 16.1 15.9l.1 16z"/></svg>