<svg xmlns="http://www.w3.org/2000/svg" viewBox="0 0 512 512"><!--!Font Awesome Pro 6.6.0 by @fontawesome - https://fontawesome.com License - https://fontawesome.com/license (Commercial License) Copyright 2024 Fonticons, Inc.--><path class="fa-secondary" opacity=".4" d="M42.7 234.7l26.7 0c8.8 0 16 7.2 16 16s-7.2 16-16 16l-26.7 0c0 93.5 1.1 141.3 31.2 171.4c31.2 31.2 81.5 31.2 182.1 31.2s150.9 0 182.1-31.2c30.1-30.1 31.2-77.9 31.2-171.4l-26.7 0c-8.8 0-16-7.2-16-16s7.2-16 16-16l26.7 0c-.2-86.5-2.3-131.8-31.2-160.8C406.9 42.7 356.6 42.7 256 42.7s-150.8 0-182.1 31.2c-29 28.9-31.1 74.2-31.2 160.8zm106.7-69.3c0-8.8 7.2-16 16-16l170.7 0c8.8 0 16 7.2 16 16s-7.2 16-16 16l-69.3 0 0 154.7c0 8.8-7.2 16-16 16s-16-7.2-16-16l0-154.7-69.3 0c-8.8 0-16-7.2-16-16z"/><path class="fa-primary" d="M165.3 149.3c-8.8 0-16 7.2-16 16s7.2 16 16 16h69.3V336c0 8.8 7.2 16 16 16s16-7.2 16-16V181.3H336c8.8 0 16-7.2 16-16s-7.2-16-16-16H165.3zM426.7 250.7c0-8.8 7.2-16 16-16l53.3 0c8.8 0 16 7.2 16 16s-7.2 16-16 16H442.7c-8.8 0-16-7.2-16-16zM16 234.7c-8.8 0-16 7.2-16 16s7.2 16 16 16H69.3c8.8 0 16-7.2 16-16s-7.2-16-16-16H16z"/></svg>