<svg xmlns="http://www.w3.org/2000/svg" viewBox="0 0 512 512"><!--!Font Awesome Pro 6.6.0 by @fontawesome - https://fontawesome.com License - https://fontawesome.com/license (Commercial License) Copyright 2024 Fonticons, Inc.--><path class="fa-secondary" opacity=".4" d="M26.7 469.3c0-4.1 1.6-8.2 4.7-11.3l67.9-67.9c7.2 7.8 15.1 15.1 23.4 21.8L54 480.6c-3.1 3.1-7.2 4.7-11.3 4.7s-8.2-1.6-11.3-4.7s-4.7-7.2-4.7-11.3zm362.6-57.4c8.3-6.7 16.2-14 23.4-21.8L480.6 458c3.1 3.1 4.7 7.2 4.7 11.3s-1.6 8.2-4.7 11.3s-7.2 4.7-11.3 4.7s-8.2-1.6-11.3-4.7l-68.7-68.7z"/><path class="fa-primary" d="M304 186.7a48 48 0 1 1 -96 0 48 48 0 1 1 96 0zm-48 272A213.3 213.3 0 1 0 256 32a213.3 213.3 0 1 0 0 426.7zm80-272a80 80 0 1 1 -160 0 80 80 0 1 1 160 0zM272 336l0 42.7c0 8.8-7.2 16-16 16s-16-7.2-16-16l0-42.7c0-8.8 7.2-16 16-16s16 7.2 16 16z"/></svg>