<svg xmlns="http://www.w3.org/2000/svg" viewBox="0 0 512 512"><!--!Font Awesome Pro 6.6.0 by @fontawesome - https://fontawesome.com License - https://fontawesome.com/license (Commercial License) Copyright 2024 Fonticons, Inc.--><path class="fa-secondary" opacity=".4" d="M42.7 204.4c0 18 3.3 40.7 7.8 72l5.9 41.3C66.8 390 72 426.2 97 447.7c25 21.5 61.7 21.6 134.9 21.6l.5 0 47.2 0c73.5 0 110.3 0 135.4-21.6s30.3-57.7 40.7-130l5.9-41.3c4.5-31.4 7.8-54 7.8-72c0-14.3-2.1-25.8-7.2-36.4c-11.5-24.1-36.1-38.7-85.2-67.9c-9.9-5.9-19.7-11.7-29.5-17.6C302.9 55.9 280.6 42.7 256 42.7s-46.9 13.3-91.5 39.8L135 100.1C85.9 129.3 61.4 143.9 49.8 168c-5.1 10.6-7.2 22.1-7.2 36.4zM176 341.3c0-3.3 1-6.7 3.1-9.5c5.3-7.1 15.3-8.6 22.4-3.3c15.5 11.5 34.3 18.2 54.5 18.2s38.9-6.7 54.5-18.2c7.1-5.3 17.1-3.8 22.4 3.3c2.1 2.9 3.1 6.2 3.1 9.5c0 4.9-2.2 9.7-6.5 12.9c-20.7 15.4-46.1 24.5-73.5 24.5s-52.8-9.1-73.5-24.5c-4.2-3.1-6.5-8-6.5-12.9z"/><path class="fa-primary" d="M201.5 328.5c-7.1-5.3-17.1-3.8-22.4 3.3s-3.8 17.1 3.3 22.4c20.7 15.4 46.1 24.5 73.5 24.5s52.8-9.1 73.5-24.5c7.1-5.3 8.6-15.3 3.3-22.4s-15.3-8.6-22.4-3.3c-15.5 11.5-34.3 18.2-54.5 18.2s-38.9-6.7-54.5-18.2z"/></svg>