<svg xmlns="http://www.w3.org/2000/svg" viewBox="0 0 512 512"><!--!Font Awesome Pro 6.5.2 by @fontawesome - https://fontawesome.com License - https://fontawesome.com/license (Commercial License) Copyright 2024 Fonticons, Inc.--><path class="fa-secondary" opacity=".4" d="M48.2 101.7c0 2.6 .6 5.2 1.9 7.6l80.8 141.4 36.8 0-4.5-7.9L77.9 93.4c-4.5-7.4-14.1-9.9-21.6-5.6c-5.2 2.9-8.1 8.3-8.1 13.9zM134.5 125c-3.4 8.2 .5 17.5 8.7 20.9s17.5-.5 20.9-8.7c15.7-37.9 52.7-62.6 93.7-62.6s78 24.7 93.7 62.6c3.4 8.2 12.7 12 20.9 8.7s12-12.7 8.7-20.9c-20.6-49.9-69.3-82.4-123.2-82.4s-102.6 32.5-123.2 82.4zM181 153.6c-2.5 8.5 2.4 17.4 10.9 19.8s17.4-2.4 19.8-10.9c6-20.5 24.8-34.5 46.1-34.5s40.1 14.1 46.1 34.5c2.5 8.5 11.4 13.3 19.8 10.9s13.4-11.3 10.9-19.8c-10-34.1-41.3-57.5-76.8-57.5s-66.8 23.4-76.8 57.5zm163.3 97.1l36.8 0 80.8-141.4c1.6-2.6 2.5-5.6 2.5-8.5c0-2.7-.7-5.4-2.1-7.9c-2.9-5.1-8.3-8.2-14.2-8.1s-11.2 3.4-13.9 8.6L348.8 242.7l-4.4 7.9z"/><path class="fa-primary" d="M55.2 263.2C42.7 275.7 42.7 295.8 42.7 336s0 60.3 12.5 72.8s32.6 12.5 72.8 12.5l256 0c40.2 0 60.3 0 72.8-12.5s12.5-32.6 12.5-72.8s0-60.3-12.5-72.8s-32.6-12.5-72.8-12.5l-256 0c-40.2 0-60.3 0-72.8 12.5zM128 314.7a21.3 21.3 0 1 1 0 42.7 21.3 21.3 0 1 1 0-42.7zM170.7 336a21.3 21.3 0 1 1 42.7 0 21.3 21.3 0 1 1 -42.7 0zM384 320c8.8 0 16 7.2 16 16s-7.2 16-16 16l-85.3 0c-8.8 0-16-7.2-16-16s7.2-16 16-16zM279.1 165.3a21.3 21.3 0 1 1 -42.7 0 21.3 21.3 0 0 1 42.7 0"/></svg>