<svg xmlns="http://www.w3.org/2000/svg" viewBox="0 0 512 512"><!--!Font Awesome Pro 6.6.0 by @fontawesome - https://fontawesome.com License - https://fontawesome.com/license (Commercial License) Copyright 2024 Fonticons, Inc.--><path class="fa-secondary" opacity=".4" d="M64 241.1c.9 .3 2 .6 3 .9c38.1 11.4 76.2 22.9 114.3 34.3l0 25.9c0 16.3 9.8 31.4 25.3 37.7c4 1.6 8 3.2 11.9 4.9c12 4.9 24.7 7.3 37.4 7.3s25.4-2.4 37.4-7.3c4-1.6 8-3.2 11.9-4.9c15.5-6.3 25.3-21.4 25.3-37.7l0-25.9c38.1-11.4 76.2-22.9 114.3-34.3c1.1-.3 2.1-.6 3-.9l0 21.3c0 78.4-.7 157.6-28.1 181.9c-28.1 24.9-73.2 25-163.4 25l-.5 0c-90.5 0-135.8 0-163.9-25C64.7 420 64 340.8 64 262.4l0-21.3zm88.7-134.4c.6-.4 1.3-.9 1.9-1.4c5.7-4.3 9.8-9.8 11.6-14.6c.8-2.4 1.4-4.2 2.1-5.9c8.5-21 28.3-35.3 50.9-36.7c1.8-.1 3.7-.1 6.1-.1l61.4 0c2.4 0 4.3 0 6.1 .1c22.6 1.4 42.4 15.6 50.9 36.7c.7 1.7 1.3 3.4 2.1 5.9c1.8 4.8 5.9 10.2 11.6 14.6c.6 .5 1.3 .9 1.9 1.4l-41.4 0c-.6-1.3-1.2-2.6-1.7-4l-.1-.2-.1-.3-.1-.3-.1-.3-.1-.3-.1-.2-.1-.3-.1-.3c-.8-2.5-1.1-3.3-1.3-3.9c-3.8-9.6-12.8-16-23.1-16.7c-.7 0-1.5 0-4.6 0l-60.5 0c-3.1 0-3.9 0-4.6 0c-10.3 .6-19.3 7.1-23.1 16.7c-.2 .6-.5 1.4-1.3 3.9c0 0 0 .1-.1 .3c0 .1 0 .1-.1 .3l-.1 .2c0 .1-.1 .2-.1 .4l-.1 .2-.1 .3-.1 .3c0 .1-.1 .1-.1 .3c-.5 1.3-1.1 2.6-1.7 3.9c-13.8 0-27.6 0-41.4 0z"/><path class="fa-primary" d="M366.8 106.7l-221.5 0c-36 0-54 0-67.7 7c-12 6.1-21.7 15.8-27.8 27.8c-7 13.7-7 31.7-7 67.7c0 9.2 0 13.7 1.6 17.6c1.4 3.4 3.6 6.3 6.4 8.6c3.2 2.6 7.6 3.9 16.4 6.6l114.3 34.3 0 25.9c0 16.3 9.8 31.4 25.3 37.7l11.9 4.9c24 9.8 50.8 9.8 74.8 0l11.9-4.9c15.5-6.3 25.3-21.4 25.3-37.7l0-25.9L445 242c8.8-2.6 13.1-3.9 16.4-6.6c2.8-2.3 5-5.2 6.4-8.6c1.6-3.9 1.6-8.4 1.6-17.6c0-36 0-54-7-67.7c-6.1-12-15.8-21.7-27.8-27.8c-13.7-7-31.7-7-67.7-7zM290.1 256c4.7 0 8.5 3.9 8.5 8.7l0 37.5c0 3.5-2.1 6.7-5.4 8L281.4 315c-16.3 6.6-34.4 6.6-50.7 0l-12-4.9c-3.2-1.3-5.4-4.5-5.4-8l0-37.5c0-4.8 3.8-8.7 8.5-8.7l68.3 0z"/></svg>