<svg xmlns="http://www.w3.org/2000/svg" viewBox="0 0 512 512"><!--!Font Awesome Pro 6.6.0 by @fontawesome - https://fontawesome.com License - https://fontawesome.com/license (Commercial License) Copyright 2024 Fonticons, Inc.--><path class="fa-secondary" opacity=".4" d="M58.5 406c0 17.2 3.4 29.9 12 40.2c19.2 23.1 54.9 23.1 126.4 23.1l118.2 0c71.4 0 107.2 0 126.4-23.1s12.6-58.2-.6-128.5l-16-85.3c-9.4-49.9-14-74.9-31.8-89.7c-12.8-10.6-29.6-13.6-57.1-14.4c-9.3-.3-19.9-.3-32-.3l-4.9 0-86.2 0c-1.7 0-3.3 0-4.9 0c-12.1 0-22.7 0-32 .3c-27.5 .8-44.3 3.8-57.1 14.4c-17.8 14.8-22.5 39.7-31.8 89.7l-16 85.3c-7.3 38.9-12.6 67-12.6 88.3zM192 281.5c0-35.7 35.2-49 64-21.4c28.8-27.6 64-14.2 64 21.4c0 21-24.8 43.2-43.6 56.9c-9 6.6-13.4 9.9-20.4 9.9s-11.5-3.3-20.4-9.9c-18.7-13.7-43.6-35.9-43.6-56.9z"/><path class="fa-primary" d="M208 106.7c0-26.5 21.5-48 48-48s48 21.5 48 48V128s0 0 0 0c12.1 0 22.7 0 32 .3c0-.1 0-.2 0-.3V106.7c0-44.2-35.8-80-80-80s-80 35.8-80 80V128c0 .1 0 .2 0 .3c9.3-.3 19.9-.3 32-.3c0 0 0 0 0 0V106.7zm27.6 231.8c-18.7-13.7-43.6-35.9-43.6-56.9c0-35.7 35.2-49 64-21.4c28.8-27.6 64-14.2 64 21.4c0 21-24.8 43.2-43.6 56.9c-9 6.6-13.4 9.9-20.4 9.9s-11.5-3.3-20.4-9.9z"/></svg>