<svg xmlns="http://www.w3.org/2000/svg" viewBox="0 0 512 512"><!--!Font Awesome Pro 6.6.0 by @fontawesome - https://fontawesome.com License - https://fontawesome.com/license (Commercial License) Copyright 2024 Fonticons, Inc.--><path class="fa-secondary" opacity=".4" d="M106.7 192l0 208.1c1.4 .6 2.9 1.2 4.3 1.8c25.8 10.2 59.2 17.8 97 21.3l0-9.8c0-6.3 3.7-12 9.4-14.6s12.4-1.6 17.1 2.5l32 28c3.5 3 5.5 7.4 5.5 12c0 2.1-.4 4.1-1.1 5.9c7.6-.7 15.4-2 23.3-3.5c-.4-1.1-.6-2.2-.7-3.4c-.9-8.8 5.5-16.6 14.3-17.5c38.7-3.9 72.3-12.1 97.6-22.7l0-208.1c0-59.9 0-89.9-14.4-111.4c-6.2-9.3-14.2-17.3-23.5-23.5C345.9 42.7 315.9 42.7 256 42.7s-89.9 0-111.4 14.4c-9.3 6.2-17.3 14.2-23.5 23.5c-14.4 21.5-14.4 51.5-14.4 111.4zM176 106.7c0-8.8 7.2-16 16-16l128 0c8.8 0 16 7.2 16 16s-7.2 16-16 16l-128 0c-8.8 0-16-7.2-16-16z"/><path class="fa-primary" d="M77.4 310.1c5.5 6.9 4.3 17-2.6 22.5c-12.2 9.7-16.1 18.2-16.1 24.8c0 5.7 2.9 12.8 11.7 21c8.8 8.2 22.5 16.4 40.7 23.5c25.8 10.2 59.2 17.8 97 21.3l0-9.8c0-6.3 3.7-12 9.4-14.6s12.4-1.6 17.1 2.5l32 28c3.5 3 5.5 7.4 5.5 12s-2 9-5.5 12l-32 28c-4.7 4.1-11.4 5.1-17.1 2.5s-9.4-8.3-9.4-14.6l0-14.1c-41.5-3.6-78.9-11.9-108.7-23.6c-20.4-8-38-18-50.8-29.9c-12.8-11.9-21.9-26.9-21.9-44.4c0-20.3 12.1-37.1 28.2-49.9c6.9-5.5 17-4.3 22.5 2.6zm357.2 0c5.5-6.9 15.5-8.1 22.5-2.6c16.1 12.8 28.2 29.6 28.2 49.9c0 29.4-24.9 51.4-54.3 66.2c-30.8 15.4-72.8 26.3-120.1 31.1c-8.8 .9-16.6-5.5-17.5-14.3s5.5-16.6 14.3-17.5c44.7-4.5 82.7-14.7 108.9-27.9c27.6-13.8 36.7-27.8 36.7-37.6c0-6.5-3.9-15.1-16.1-24.8c-6.9-5.5-8.1-15.6-2.6-22.5zM192 90.7c-8.8 0-16 7.2-16 16s7.2 16 16 16H320c8.8 0 16-7.2 16-16s-7.2-16-16-16H192z"/></svg>