<svg xmlns="http://www.w3.org/2000/svg" viewBox="0 0 512 512"><!--!Font Awesome Pro 6.6.0 by @fontawesome - https://fontawesome.com License - https://fontawesome.com/license (Commercial License) Copyright 2024 Fonticons, Inc.--><path class="fa-secondary" opacity=".4" d="M42.7 256a213.3 213.3 0 1 0 426.7 0A213.3 213.3 0 1 0 42.7 256zM176 181.3c0-4.1 1.6-8.2 4.7-11.3s7.2-4.7 11.3-4.7s8.2 1.6 11.3 4.7L256 222.7 308.7 170c3.1-3.1 7.2-4.7 11.3-4.7s8.2 1.6 11.3 4.7s4.7 7.2 4.7 11.3s-1.6 8.2-4.7 11.3l-64 64c-6.2 6.2-16.4 6.2-22.6 0l-64-64c-3.1-3.1-4.7-7.2-4.7-11.3zm0 85.3c0-4.1 1.6-8.2 4.7-11.3c6.2-6.2 16.4-6.2 22.6 0L256 308l52.7-52.7c6.2-6.2 16.4-6.2 22.6 0c3.1 3.1 4.7 7.2 4.7 11.3s-1.6 8.2-4.7 11.3l-64 64c-3.1 3.1-7.2 4.7-11.3 4.7s-8.2-1.6-11.3-4.7l-64-64c-3.1-3.1-4.7-7.2-4.7-11.3z"/><path class="fa-primary" d="M180.7 192.6c-6.2-6.2-6.2-16.4 0-22.6s16.4-6.2 22.6 0L256 222.7 308.7 170c6.2-6.2 16.4-6.2 22.6 0s6.2 16.4 0 22.6l-64 64c-6.2 6.2-16.4 6.2-22.6 0l-64-64zm0 85.3c-6.2-6.2-6.2-16.4 0-22.6s16.4-6.2 22.6 0L256 308l52.7-52.7c6.2-6.2 16.4-6.2 22.6 0s6.2 16.4 0 22.6l-64 64c-6.2 6.2-16.4 6.2-22.6 0l-64-64z"/></svg>