<svg xmlns="http://www.w3.org/2000/svg" viewBox="0 0 512 512"><!--!Font Awesome Pro 6.5.2 by @fontawesome - https://fontawesome.com License - https://fontawesome.com/license (Commercial License) Copyright 2024 Fonticons, Inc.--><path class="fa-secondary" opacity=".4" d="M42.7 197.5C42.7 71.4 160 14.1 256 117.3c96-103.2 213.3-45.9 213.3 80.2c0 80-85.7 164.5-148.5 215.7C292.4 436.4 278.2 448 256 448s-36.4-11.6-64.8-34.8C128.4 362 42.7 277.5 42.7 197.5zM112 256c0 8.8 7.2 16 16 16l16.4 0c7.6 0 14.4 0 20.1-.5c6.2-.6 12.2-1.8 18.1-4.9c6-3.1 10.4-7.3 14.4-12c3.7-4.4 7.6-9.9 11.9-16.1l6.4-9.1c1.9-2.7 3.5-5 4.9-6.9c1.2 2.1 2.5 4.5 4.1 7.4l36.5 66.3c3.5 6.4 7 12.8 10.5 17.3c3.7 4.9 10.3 11.6 20.8 11.8c10.5 .2 17.3-6.3 21.2-11.1c3.7-4.4 7.4-10.6 11.2-16.9l1.2-2c4.7-7.9 7.7-12.8 10.3-16.3c2.4-3.3 3.8-4.4 4.9-4.9c1-.6 2.7-1.2 6.7-1.6c4.4-.4 10.1-.4 19.3-.4l17.1 0c8.8 0 16-7.2 16-16s-7.2-16-16-16l-17.8 0c-8.3 0-15.6 0-21.7 .6c-6.8 .5-13.4 2.4-19.4 5.6c-5.9 3.5-10.9 8.1-14.8 13.7c-3.6 4.9-7.4 11.2-11.6 18.3l-1 1.7c-1.9 3.1-3.4 5.6-4.8 7.9l-4.5-8-36.5-66.3c-3.3-6-6.5-11.9-9.9-16.3c-3.6-4.8-9.9-11.1-19.8-11.6c-.4 0-.9 0-1.3 0c-9.3 0-15.7 5.3-19.6 9.5c-3.8 4-7.7 9.6-11.6 15.1l-6.6 9.4c-4.8 6.9-7.9 11.2-10.5 14.3c-1.3 1.7-2.9 3.2-4.8 4.3c-1 .5-2.5 1.1-6.3 1.4c-4.1 .4-9.3 .4-17.8 .4L128 240c-8.8 0-16 7.2-16 16z"/><path class="fa-primary" d="M215.3 229.3c1.9-2.7 3.5-5 4.9-6.9c1.2 2.1 2.5 4.5 4.1 7.4l36.5 66.3c3.5 6.4 7 12.8 10.5 17.3c3.7 4.9 10.3 11.6 20.8 11.8c10.5 .2 17.3-6.3 21.2-11.1c3.7-4.4 7.4-10.6 11.2-16.9l1.2-2c4.7-7.9 7.7-12.8 10.3-16.3c2.4-3.3 3.8-4.4 4.9-4.9c1-.6 2.7-1.2 6.7-1.6c4.4-.4 10.1-.4 19.3-.4H384a16 16 0 0 0 0-32h-17.8c-8.3 0-15.6 0-21.7 .6a47.6 47.6 0 0 0 -19.4 5.6A47.4 47.4 0 0 0 310.3 260c-3.6 4.9-7.4 11.2-11.6 18.3l-1 1.7c-1.9 3.1-3.4 5.6-4.8 7.9l-4.5-8-36.5-66.3c-3.3-6-6.5-11.9-9.9-16.3c-3.6-4.8-9.9-11.1-19.8-11.6c-10-.5-16.8 5.1-20.9 9.4c-3.8 4-7.7 9.6-11.6 15.1l-6.6 9.4c-4.8 6.9-7.9 11.2-10.5 14.3a16.4 16.4 0 0 1 -4.8 4.3c-1 .5-2.5 1.1-6.3 1.4c-4.1 .4-9.3 .4-17.8 .4H128a16 16 0 0 0 0 32h16.4c7.6 0 14.4 0 20.1-.5c6.2-.6 12.2-1.8 18.1-4.9c6-3.1 10.4-7.3 14.4-12c3.7-4.4 7.6-9.9 11.9-16.1z"/></svg>