<svg xmlns="http://www.w3.org/2000/svg" viewBox="0 0 512 512"><!--!Font Awesome Pro 6.6.0 by @fontawesome - https://fontawesome.com License - https://fontawesome.com/license (Commercial License) Copyright 2024 Fonticons, Inc.--><path class="fa-secondary" opacity=".4" d="M117.3 177.9c92.4 0 184.9 0 277.4 0c-3.8 26-7.6 52.1-11.4 78.1l-254.5 0c-3.8-26-7.6-52.1-11.5-78.1zm27.1 184.8l223.2 0c-1.6 11.2-3.3 22.5-4.9 33.7c-5.1 34.8-7.6 52.2-19.7 62.6s-29.6 10.4-64.8 10.4l-44.5 0c-35.2 0-52.8 0-64.8-10.4c-12-10.4-14.6-27.8-19.7-62.6c-1.6-11.2-3.3-22.5-4.9-33.7z"/><path class="fa-primary" d="M316.1 42.7H196c-39.2 0-58.8 0-74.2 9.5c-2.7 1.6-5.2 3.5-7.6 5.5C100.3 69.2 94.1 87.8 81.6 125l-.8 2.3c-6.8 20.4-10.2 30.6-6.6 38.3c1.1 2.4 2.7 4.6 4.7 6.5c6.2 5.8 16.9 5.8 38.4 5.8H394.7c21.5 0 32.2 0 38.4-5.8c1.9-1.8 3.5-4 4.7-6.5c3.6-7.7 .2-17.9-6.6-38.3l-.8-2.3 0 0c-12.4-37.2-18.6-55.8-32.5-67.4c-2.4-2-4.9-3.8-7.6-5.5c-15.4-9.5-35-9.5-74.2-9.5zm-171.6 320H367.6L383.3 256H128.8l15.6 106.7z"/></svg>