<svg xmlns="http://www.w3.org/2000/svg" viewBox="0 0 512 512"><!--!Font Awesome Pro 6.6.0 by @fontawesome - https://fontawesome.com License - https://fontawesome.com/license (Commercial License) Copyright 2024 Fonticons, Inc.--><path class="fa-secondary" opacity=".4" d="M85.3 213.3c0-80.5 0-120.7 25-145.7c24.9-24.9 65-25 145.1-25l.6 0c80.5 0 120.7 0 145.7 25c24.9 24.9 25 65.1 25 145.2l0 .5 0 85.3c0 80.5 0 120.7-25 145.7c-24.9 24.9-65.1 25-145.2 25l-.5 0c-80.5 0-120.7 0-145.7-25c-24.9-24.9-25-65.1-25-145.2l0-.5 0-85.3zM176 330.7a80 80 0 1 0 160 0 80 80 0 1 0 -160 0zM197.3 160a58.7 58.7 0 1 0 117.3 0 58.7 58.7 0 1 0 -117.3 0z"/><path class="fa-primary" d="M256 101.3a58.7 58.7 0 1 0 0 117.3 58.7 58.7 0 1 0 0-117.3zm80 229.3a80 80 0 1 1 -160 0 80 80 0 1 1 160 0z"/></svg>