<svg xmlns="http://www.w3.org/2000/svg" viewBox="0 0 512 512"><!--!Font Awesome Pro 6.6.0 by @fontawesome - https://fontawesome.com License - https://fontawesome.com/license (Commercial License) Copyright 2024 Fonticons, Inc.--><path class="fa-secondary" opacity=".4" d="M30.2 276.7l25.9 32c2.8 3.4 6.9 5.6 11.3 5.9s8.8-1.2 12-4.3L170.9 225c6.5-6 6.8-16.2 .8-22.6s-16.2-6.8-22.6-.8L70.2 275.3 55.1 256.6c-5.6-6.9-15.6-7.9-22.5-2.4s-7.9 15.6-2.4 22.5zM240 256c0 8.8 7.2 16 16 16l213.3 0c8.8 0 16-7.2 16-16s-7.2-16-16-16L256 240c-8.8 0-16 7.2-16 16z"/><path class="fa-primary" d="M171.7 53.1c6 6.5 5.7 16.6-.8 22.6L79.5 161c-3.2 3-7.6 4.6-12 4.3s-8.5-2.4-11.3-5.9l-25.9-32c-5.6-6.9-4.5-16.9 2.4-22.5s16.9-4.5 22.5 2.4l15.1 18.7 78.9-73.6c6.5-6 16.6-5.7 22.6 .8zM240 106.7c0-8.8 7.2-16 16-16l213.3 0c8.8 0 16 7.2 16 16s-7.2 16-16 16l-213.3 0c-8.8 0-16-7.2-16-16zM171.7 351.8c6 6.5 5.7 16.6-.8 22.6L79.5 459.7c-3.2 3-7.6 4.6-12 4.3s-8.5-2.4-11.3-5.9l-25.9-32c-5.6-6.9-4.5-16.9 2.4-22.5s16.9-4.5 22.5 2.4l15.1 18.7L149.1 351c6.5-6 16.6-5.7 22.6 .8zM240 405.3c0-8.8 7.2-16 16-16l213.3 0c8.8 0 16 7.2 16 16s-7.2 16-16 16l-213.3 0c-8.8 0-16-7.2-16-16z"/></svg>