<svg xmlns="http://www.w3.org/2000/svg" viewBox="0 0 512 512"><!--!Font Awesome Pro 6.6.0 by @fontawesome - https://fontawesome.com License - https://fontawesome.com/license (Commercial License) Copyright 2024 Fonticons, Inc.--><path class="fa-secondary" opacity=".4" d="M42.7 148.3l0 49.1 0 16 426.7 0-1-16c-1.5-22.4-5.5-37.1-15.4-48.1c-1.5-1.7-3.1-3.3-4.8-4.8C429.9 128 401.8 128 345.6 128l-8 0c-24.6 0-36.9 0-48.4-3.3c-6.3-1.8-12.4-4.3-18.1-7.5c-10.4-5.8-19.1-14.5-36.5-31.9L222.9 73.6c-5.8-5.8-8.7-8.7-11.8-11.3c-13.2-11-29.4-17.7-46.5-19.3c-4-.4-8.1-.4-16.3-.4c-18.8 0-28.2 0-36.1 1.5c-34.5 6.5-61.5 33.5-68 68c-1.5 7.8-1.5 17.3-1.5 36.1z"/><path class="fa-primary" d="M469.3 298.7v-47c0-8 0-22.4 0-22.4l0-16H42.7v16 69.3c0 80.5 0 120.7 25 145.7s65.2 25 145.7 25h85.3c80.5 0 120.7 0 145.7-25s25-65.2 25-145.7z"/></svg>