<svg xmlns="http://www.w3.org/2000/svg" viewBox="0 0 512 512"><!--!Font Awesome Pro 6.6.0 by @fontawesome - https://fontawesome.com License - https://fontawesome.com/license (Commercial License) Copyright 2024 Fonticons, Inc.--><path class="fa-secondary" opacity=".4" d="M70.5 446.2c19.2 23.1 54.9 23.1 126.4 23.1l118.2 0 .4 0c71.2 0 106.8 0 126-23.1c8.6-10.3 12-23 12-40.2c0-21.3-5.3-49.4-12.6-88.2l-16-85.3c-9.4-49.9-14-74.9-31.8-89.7c-12.8-10.6-29.6-13.6-57.1-14.4c-9.3-.3-19.9-.3-32-.3l-4.9 0-86.2 0-.2 0c-1.6 0-3.1 0-4.7 0c-12.1 0-22.7 0-32 .3c-27.5 .8-44.3 3.8-57.1 14.4c-17.8 14.8-22.5 39.7-31.8 89.7l-16 85.3C57.9 388 51.3 423.1 70.5 446.2zM176 341.3c0-32.4 26.3-58.7 58.7-58.7c9.6 0 18.7 2.3 26.7 6.4l0-75.7c0-8.8 7.2-16 16-16s16 7.2 16 16c0 14.7 11.9 26.7 26.7 26.7c8.8 0 16 7.2 16 16s-7.2 16-16 16c-9.6 0-18.7-2.3-26.7-6.4l0 75.7c0 32.4-26.3 58.7-58.7 58.7s-58.7-26.3-58.7-58.7zm32 0a26.7 26.7 0 1 0 53.3 0 26.7 26.7 0 1 0 -53.3 0z"/><path class="fa-primary" d="M208 106.7c0-26.5 21.5-48 48-48s48 21.5 48 48V128s0 0 0 0c12.1 0 22.7 0 32 .3c0-.1 0-.2 0-.3V106.7c0-44.2-35.8-80-80-80s-80 35.8-80 80V128c0 .1 0 .2 0 .3c9.3-.3 19.9-.3 32-.3c0 0 0 0 0 0V106.7zm85.3 106.7c0-8.8-7.2-16-16-16s-16 7.2-16 16l0 75.7c-8-4.1-17.1-6.4-26.7-6.4c-32.4 0-58.7 26.3-58.7 58.7s26.3 58.7 58.7 58.7s58.7-26.3 58.7-58.7l0-75.7c8 4.1 17.1 6.4 26.7 6.4c8.8 0 16-7.2 16-16s-7.2-16-16-16c-14.7 0-26.7-11.9-26.7-26.7zM234.7 368a26.7 26.7 0 1 1 0-53.3 26.7 26.7 0 1 1 0 53.3z"/></svg>