<svg xmlns="http://www.w3.org/2000/svg" viewBox="0 0 512 512"><!--!Font Awesome Pro 6.6.0 by @fontawesome - https://fontawesome.com License - https://fontawesome.com/license (Commercial License) Copyright 2024 Fonticons, Inc.--><path class="fa-secondary" opacity=".4" d="M42.7 256c0 100.6 0 150.9 31.2 182.1s81.5 31.2 182.1 31.2c2.4-2.4 4.9-4.9 7.3-7.3c9-9 14-21.1 14.2-33.8c.1-2.9 .1-5.7 .2-8.4c.1-2.7 .2-5.3 .3-7.8c.2-5 .5-9.6 1-13.8c1-9.9 2.5-18.1 4.9-25.7c-.3 1-.6 1.9-.9 3.1c-8.7 2-17.7 3-27 3c-27.4 0-52.8-9.1-73.5-24.5c-7.1-5.3-8.6-15.3-3.3-22.4s15.3-8.6 22.4-3.3c15.5 11.5 34.3 18.2 54.5 18.2c17.6 0 34.2-5.1 48.5-14.1c.8-1.1 1.6-2.1 2.4-3.1c16.6-21 39.1-36.9 65.2-45.4c14.2-4.6 30.7-6 56.1-6.5c12.7-.2 24.8-5.2 33.8-14.2l7.3-7.3c0-100.6 0-150.9-31.2-182.1S356.6 42.7 256 42.7s-150.8 0-182.1 31.2S42.7 155.4 42.7 256zm128-32c0-17.7 9.6-32 21.3-32s21.3 14.3 21.3 32s-9.6 32-21.3 32s-21.3-14.3-21.3-32zm128 0c0-17.7 9.6-32 21.3-32s21.3 14.3 21.3 32s-9.6 32-21.3 32s-21.3-14.3-21.3-32z"/><path class="fa-primary" d="M317.4 465.1l-.1 0-1.3 .3 0 0c-12.5 2.6-25.4 3.9-38.7 3.9H256l7.3-7.3c9-9 14-21.1 14.2-33.8v0c.5-25.4 1.9-41.9 6.5-56.1c13.6-41.8 46.3-74.5 88.1-88.1c14.2-4.6 30.7-6.1 56.1-6.5v0c12.7-.2 24.8-5.2 33.8-14.2l7.3-7.3v21.3c0 14.1-1.5 27.9-4.4 41.1C449 391.5 391.5 449 318.5 464.9l-1.1 .2zM320 256c11.8 0 21.3-14.3 21.3-32s-9.6-32-21.3-32s-21.3 14.3-21.3 32s9.6 32 21.3 32zm-128 0c11.8 0 21.3-14.3 21.3-32s-9.6-32-21.3-32s-21.3 14.3-21.3 32s9.6 32 21.3 32zm92 116.1c4.7-14.4 11.6-27.7 20.4-39.5c-14.3 9-30.8 14.1-48.5 14.1c-20.2 0-38.9-6.7-54.5-18.2c-7.1-5.3-17.1-3.8-22.4 3.3s-3.8 17.1 3.3 22.4c20.7 15.4 46.1 24.5 73.5 24.5c9.3 0 18.3-1 27-3l.1-.2c.3-1 .6-2 .9-2.9l.1-.4z"/></svg>