<svg xmlns="http://www.w3.org/2000/svg" viewBox="0 0 512 512"><!--!Font Awesome Pro 6.6.0 by @fontawesome - https://fontawesome.com License - https://fontawesome.com/license (Commercial License) Copyright 2024 Fonticons, Inc.--><path class="fa-secondary" opacity=".4" d="M42.7 256c0 100.6 0 150.9 31.2 182.1s81.5 31.2 182.1 31.2s150.9 0 182.1-31.2s31.2-81.5 31.2-182.1c0-7.3 0-10.9-.3-14.6c-1.5-17.3-8.5-34.2-19.7-47.4c-2.4-2.8-5-5.5-10.3-10.8L328.8 72.9c-5.3-5.3-7.9-7.9-10.8-10.3C304.8 51.5 287.9 44.5 270.6 43c-3.7-.3-7.3-.3-14.6-.3c-100.6 0-150.8 0-182.1 31.2S42.7 155.4 42.7 256zm106.7 74.7c0-9.9 0-14.9 .8-19c3.4-16.9 16.6-30.2 33.5-33.5c4.1-.8 9.1-.8 19-.8l106.7 0c9.9 0 14.8 0 18.9 .8c16.9 3.4 30.2 16.6 33.5 33.5c.8 4.1 .8 9.1 .8 19c0 9.9 0 14.8-.8 18.9c-3.4 16.9-16.6 30.2-33.5 33.5c-4.1 .8-9.1 .8-19 .8l-106.7 0c-9.9 0-14.8 0-18.9-.8c-16.9-3.4-30.2-16.6-33.5-33.5c-.8-4.1-.8-9.1-.8-19z"/><path class="fa-primary" d="M202.7 277.3c-9.9 0-14.9 0-19 .8c-16.9 3.4-30.2 16.6-33.5 33.5c-.8 4.1-.8 9.1-.8 19s0 14.9 .8 19c3.4 16.9 16.6 30.2 33.5 33.5c4.1 .8 9.1 .8 19 .8H309.3c9.9 0 14.9 0 19-.8c16.9-3.4 30.2-16.6 33.5-33.5c.8-4.1 .8-9.1 .8-19s0-14.9-.8-19c-3.4-16.9-16.6-30.2-33.5-33.5c-4.1-.8-9.1-.8-19-.8H202.7z"/></svg>