<svg xmlns="http://www.w3.org/2000/svg" viewBox="0 0 512 512"><!--!Font Awesome Pro 6.6.0 by @fontawesome - https://fontawesome.com License - https://fontawesome.com/license (Commercial License) Copyright 2024 Fonticons, Inc.--><path class="fa-secondary" opacity=".4" d="M42.7 256c0-100.6 0-150.8 31.2-182.1S155.4 42.7 256 42.7s150.9 0 182.1 31.2c31.2 31.2 31.2 81.3 31.2 181.3l0 .8c0 100.6 0 150.9-31.2 182.1s-81.5 31.2-182.1 31.2s-150.8 0-182.1-31.2S42.7 356.6 42.7 256zm48 64c0 8.8 7.2 16 16 16l29.7 0c8.7 0 14.1 0 18.3 .4c3.8 .4 5.4 .9 6.4 1.5s2.4 1.5 4.8 4.5c2.6 3.2 5.7 7.8 10.5 15l4 6c4 6 8 12 11.8 16.2c3.9 4.3 10.5 10 20.1 10c.5 0 1 0 1.5 0c10.4-.6 16.7-7.5 20.2-12.5c3.3-4.7 6.5-11 9.8-17.5L286.1 276c1.7-3.3 3.1-6 4.3-8.4c1.4 2.3 3.1 4.9 5 8l14 22.8c4.3 7 8 13.1 11.7 18c4 5.3 8.5 10 14.8 13.5s12.7 4.9 19.2 5.5c6.1 .6 13.3 .6 21.5 .6l28.8 0c8.8 0 16-7.2 16-16s-7.2-16-16-16l-28.1 0c-9.1 0-14.7 0-19.1-.4c-4-.4-5.6-1-6.7-1.6s-2.4-1.6-4.8-4.8c-2.6-3.5-5.6-8.3-10.3-16L322.1 258c-3.9-6.4-7.8-12.7-11.5-17.2c-3.9-4.6-10.6-10.9-20.7-10.9c-.3 0-.7 0-1 0c-10.7 .4-17.2 7.5-20.8 12.6c-3.4 4.8-6.7 11.3-10.1 18.1c-14.1 27.9-28.3 55.8-42.4 83.6c-1.6 3.2-2.9 5.8-4.1 8c-1.5-2.1-3.1-4.6-5.1-7.5l-3.8-5.7c-4.3-6.5-8.2-12.3-11.9-16.8c-4-4.9-8.5-9.3-14.6-12.6s-12.2-4.5-18.5-5.1c-5.8-.5-12.8-.5-20.6-.5l-30.4 0c-8.8 0-16 7.2-16 16z"/><path class="fa-primary" d="M322.1 258c-3.9-6.4-7.8-12.7-11.5-17.2c-4-4.8-11-11.3-21.7-10.9s-17.2 7.5-20.8 12.6c-3.4 4.8-6.7 11.3-10.1 18.1l0 0-42.4 83.6c-1.6 3.2-2.9 5.8-4.1 8c-1.5-2.1-3.1-4.6-5.1-7.5l-3.8-5.7c-4.3-6.5-8.2-12.3-11.9-16.8c-4-4.9-8.5-9.3-14.6-12.6s-12.2-4.5-18.5-5.1c-5.8-.5-12.8-.5-20.6-.5l-30.4 0c-8.8 0-16 7.2-16 16s7.2 16 16 16h29.7c8.7 0 14.1 0 18.3 .4c3.8 .4 5.4 .9 6.4 1.5s2.4 1.5 4.8 4.5c2.6 3.2 5.7 7.8 10.5 15l4 6c4 6 8 12 11.8 16.2c4.1 4.5 11.1 10.6 21.5 10s16.7-7.5 20.2-12.5c3.3-4.7 6.5-11 9.8-17.5L286.1 276c1.7-3.3 3.1-6 4.3-8.4c1.4 2.3 3.1 4.9 5 8l14 22.8c4.3 7 8 13.1 11.7 18c4 5.3 8.5 10 14.8 13.5s12.7 4.9 19.2 5.5c6.1 .6 13.3 .6 21.5 .6l28.8 0c8.8 0 16-7.2 16-16s-7.2-16-16-16H377.2c-9.1 0-14.7 0-19.1-.4c-4-.4-5.6-1-6.7-1.6s-2.4-1.6-4.8-4.8c-2.6-3.5-5.6-8.3-10.3-16L322.1 258z"/></svg>