<svg xmlns="http://www.w3.org/2000/svg" viewBox="0 0 512 512"><!--!Font Awesome Pro 6.6.0 by @fontawesome - https://fontawesome.com License - https://fontawesome.com/license (Commercial License) Copyright 2024 Fonticons, Inc.--><path class="fa-secondary" opacity=".4" d="M42.7 112.2c0 38.1 23.8 82.5 61 98.4c8.7 3.7 18.6 3.7 27.3 0c37.2-15.9 61-60.3 61-98.4c0-38.4-33.4-69.5-74.7-69.5s-74.7 31.1-74.7 69.5zm96 5.2a21.3 21.3 0 1 1 -42.7 0 21.3 21.3 0 1 1 42.7 0zM320 368.2c0 38.1 23.8 82.5 61 98.4c4.3 1.9 9 2.8 13.7 2.8s9.3-.9 13.7-2.8c37.2-15.9 61-60.3 61-98.4c0-38.4-33.4-69.5-74.7-69.5s-74.7 31.1-74.7 69.5zm96 5.2a21.3 21.3 0 1 1 -42.7 0 21.3 21.3 0 1 1 42.7 0z"/><path class="fa-primary" d="M373.3 373.3a21.3 21.3 0 1 1 42.7 0 21.3 21.3 0 1 1 -42.7 0zM96 117.3a21.3 21.3 0 1 1 42.7 0 21.3 21.3 0 1 1 -42.7 0zm144-10.7c0-8.8 7.2-16 16-16l88.1 0c58.7 0 81 76.7 31.5 108.2L153.5 340.2c-22.5 14.3-12.4 49.2 14.3 49.2l49.5 0-4.7-4.7c-6.2-6.2-6.2-16.4 0-22.6s16.4-6.2 22.6 0l32 32c6.2 6.2 6.2 16.4 0 22.6l-32 32c-6.2 6.2-16.4 6.2-22.6 0s-6.2-16.4 0-22.6l4.7-4.7-49.5 0c-58.7 0-81-76.7-31.5-108.2L358.5 171.8c22.5-14.3 12.4-49.2-14.3-49.2l-88.1 0c-8.8 0-16-7.2-16-16z"/></svg>