<svg xmlns="http://www.w3.org/2000/svg" viewBox="0 0 512 512"><!--!Font Awesome Pro 6.6.0 by @fontawesome - https://fontawesome.com License - https://fontawesome.com/license (Commercial License) Copyright 2024 Fonticons, Inc.--><path class="fa-secondary" opacity=".4" d="M43.9 260.3c0 29.1 12.8 56.7 34.9 75.5l108.6 92.4c6.7 5.7 16.8 4.9 22.6-1.8s4.9-16.8-1.8-22.6L99.5 311.4c-15-12.8-23.6-31.4-23.6-51.1c0-18.7 7.8-36.5 21.5-49.2L208.6 107.7c6.5-6 6.9-16.1 .8-22.6s-16.1-6.9-22.6-.8L75.5 187.6c-20.2 18.8-31.7 45.1-31.7 72.6z"/><path class="fa-primary" d="M266.1 110.6L159.9 205c-19.9 17.6-29.8 26.5-33.4 36.9c-3.2 9.1-3.2 19.1 0 28.3c3.7 10.4 13.6 19.2 33.4 36.9l106.2 94.4c9 8 13.5 12 17.3 12.2c3.3 .1 6.5-1.3 8.6-3.9c2.4-3 2.4-9 2.4-21V329.1c51.8 0 106.5 16.6 146.5 46.2c20.8 15.4 31.2 23.1 35.2 22.8c3.9-.3 6.3-1.8 8.3-5.1c2.1-3.4 .2-14-3.4-35.3C457.5 219.7 362.6 182.9 294.5 182.9V123.3c0-12.1 0-18.1-2.4-21c-2.1-2.6-5.3-4-8.6-3.9c-3.8 .1-8.3 4.1-17.3 12.2z"/></svg>