<svg xmlns="http://www.w3.org/2000/svg" viewBox="0 0 512 512"><!--!Font Awesome Pro 6.6.0 by @fontawesome - https://fontawesome.com License - https://fontawesome.com/license (Commercial License) Copyright 2024 Fonticons, Inc.--><path class="fa-secondary" opacity=".4" d="M83.7 381.8c13.6 18.6 30.1 34.8 48.9 48.2c89.1-9.7 176.6-54.6 238.2-119.4c-34-20.7-73.4-32.5-114.4-33.5l-5.6 7.1C209.3 337 149.4 371.6 83.7 381.8zm94.7 72.9c24 9.4 50.2 14.5 77.5 14.5c75.7 0 142.2-39.4 180.1-98.9c-11.3-15.4-24.4-29.2-38.9-41.1c-57 61.3-135.4 106.9-218.7 125.4zM231 145.3c0 34.6 9.1 69.1 26.7 99.9c75.9 2 146.8 36.6 194.7 94.2c10.9-25.6 16.9-53.8 16.9-83.4c0-1.9 0-3.8-.1-5.7c-2.6-2.6-5.3-5.3-7.9-8c-61.3-60.6-143.8-95.3-230.3-97zm2.5-32c84 2.1 164.5 32.5 228.2 86.1C437 109.4 354.8 43.1 257 42.7L246.8 67c-6.3 15-10.7 30.6-13.3 46.3z"/><path class="fa-primary" d="M225.6 264.5c-19.8 25.2-44.4 45.7-72 60.6c-33.7-81.2-35.9-170.1-6.8-252.4c22.4-13.4 47.6-22.8 74.3-27.2l-3.8 9.1c-28.1 66.8-23.5 142.5 12 205.3l-3.6 4.6zm-122-157.8c-37.7 38.5-61 91.2-61 149.3c0 34.5 8.2 67.1 22.7 95.9c20.3-2 40.2-6.6 59-13.6c-31-74.3-37.9-154.7-20.7-231.8l-.1 .1z"/></svg>