<svg xmlns="http://www.w3.org/2000/svg" viewBox="0 0 512 512"><!--!Font Awesome Pro 6.6.0 by @fontawesome - https://fontawesome.com License - https://fontawesome.com/license (Commercial License) Copyright 2024 Fonticons, Inc.--><path class="fa-secondary" opacity=".4" d="M192 330.7c0 36 11.9 69.3 32 96l123.4 0c67.3 0 121.9-53.9 121.9-120.5c0-52.7-34.3-97.6-82-113.9c-.7-6.3-1.9-12.5-3.6-18.5c-10.3-2.1-20.9-3.1-31.7-3.1c-88.4 0-160 71.6-160 160z"/><path class="fa-primary" d="M266.2 85.3c-67.3 0-121.9 53.9-121.9 120.5c0 14.7 2.7 28.8 7.6 41.9c-5.7-1.1-11.7-1.7-17.7-1.7c-50.5 0-91.4 40.5-91.4 90.4s40.9 90.4 91.4 90.4H224c-20.1-26.7-32-60-32-96c0-88.4 71.6-160 160-160c10.9 0 21.5 1.1 31.7 3.1c-.3-1.1-.6-2.3-1-3.4C367.4 121.2 321 85.3 266.2 85.3z"/></svg>