<svg xmlns="http://www.w3.org/2000/svg" viewBox="0 0 512 512"><!--!Font Awesome Pro 6.6.0 by @fontawesome - https://fontawesome.com License - https://fontawesome.com/license (Commercial License) Copyright 2024 Fonticons, Inc.--><path class="fa-secondary" opacity=".4" d="M52 166.1c14.9-19.1 42.4-22.4 61.3-7.3c-18 23.1-36 46.1-54 69.1c-18.9-15-22.2-42.7-7.3-61.8zm77.1 77.2c1.5-1.3 3-2.8 4.5-4.3c.7-.7 1.3-1.5 2.1-2.4c.6-.7 1.1-1.3 1.6-2c.1-.1 .2-.3 .3-.4c.5-.6 1-1.3 1.4-1.9c3.5-4.8 6.3-10 8.3-15.4l84.1 61.7 .2 .2c2.9 2.2 5.6 4.6 8.2 7.1l0-136.7c0-.7 0-1.3 .1-2c2.5 .6 5.1 1.1 7.8 1.5c1.3 .2 2.7 .3 4 .4c.7 0 1.3 .1 2 .1s1.4 0 2 0c5.5 0 10.8-.7 15.9-2c.1 .6 .1 1.3 .1 2L272 286c2.6-2.5 5.4-4.9 8.2-7.1l.2-.2L364.6 217c1 2.7 2.2 5.3 3.6 7.9c1.4 2.5 2.9 5 4.7 7.5c.5 .6 .9 1.3 1.4 1.9c2.6 3.3 5.5 6.4 8.5 9l-83.2 61.1C282.2 318 272 339 272 361.3l0 22.7 0 .3 0 69-32 0 0-92.7c-.2-22.1-10.4-42.8-27.6-56.2l-83.2-61.1zM213.3 85.3c0-23.6 19.1-42.7 42.7-42.7s42.7 19.1 42.7 42.7l-85.3 0zm185.4 73.4c18.9-15 46.4-11.8 61.3 7.3c6.3 8.1 9.4 17.7 9.4 27.2c0 13-5.7 25.9-16.6 34.6c-18-23-35.9-46-54-69.2z"/><path class="fa-primary" d="M256 149.3c28 0 51.8-18 60.5-43.1c3.9-11.1-6-20.9-17.8-20.9H213.3c-11.8 0-21.7 9.8-17.8 20.9c8.7 25.1 32.5 43.1 60.5 43.1zM137.7 234.2c.5-.6 1-1.3 1.4-1.9c16.3-22.5 16.5-52.2 2.3-74.6c-6.5-10.2-20.7-8.5-28.1 1.1l-54 69.2c-7.5 9.5-5.8 23.8 5.5 27.8c25.6 9 55.1 1.2 72.9-21.5zm236.6 0c-.5-.6-1-1.3-1.4-1.9c-16.3-22.5-16.5-52.2-2.3-74.6c6.5-10.2 20.7-8.5 28.1 1.1l54 69.2c7.5 9.5 5.8 23.8-5.5 27.8c-25.6 9-55.1 1.2-72.9-21.5zM176 469.3c0-8.8 7.2-16 16-16l128 0c8.8 0 16 7.2 16 16s-7.2 16-16 16l-128 0c-8.8 0-16-7.2-16-16z"/></svg>