<svg xmlns="http://www.w3.org/2000/svg" viewBox="0 0 512 512"><!--!Font Awesome Pro 6.6.0 by @fontawesome - https://fontawesome.com License - https://fontawesome.com/license (Commercial License) Copyright 2024 Fonticons, Inc.--><path class="fa-secondary" opacity=".4" d="M90.7 339.3l0 12.7c0 50.1 40.6 90.7 90.7 90.7c31 0 58.3-15.5 74.7-39.2c16.4 23.7 43.7 39.2 74.7 39.2c50.1 0 90.7-40.6 90.7-90.7l0-12.7-32 0 0 12.7c0 32.4-26.3 58.7-58.7 58.7s-58.7-26.3-58.7-58.7l0-250.7-32 0L240 352c0 32.4-26.3 58.7-58.7 58.7s-58.7-26.3-58.7-58.7l0-12.7-32 0z"/><path class="fa-primary" d="M192 69.3c-8.8 0-16 7.2-16 16s7.2 16 16 16h48 32 48c8.8 0 16-7.2 16-16s-7.2-16-16-16H192zm149.3 208c0 29.8 20.4 54.9 48 62h32c27.6-7.1 48-32.2 48-62V238.9c0-14.1-11.5-25.6-25.6-25.6H366.9c-14.1 0-25.6 11.5-25.6 25.6v38.4zm-298.7 0c0 29.8 20.4 54.9 48 62h32c27.6-7.1 48-32.2 48-62V231.6c0-10.1-8.2-18.3-18.3-18.3H61c-10.1 0-18.3 8.2-18.3 18.3v45.7z"/></svg>