<svg xmlns="http://www.w3.org/2000/svg" viewBox="0 0 512 512"><!--!Font Awesome Pro 6.6.0 by @fontawesome - https://fontawesome.com License - https://fontawesome.com/license (Commercial License) Copyright 2024 Fonticons, Inc.--><path class="fa-secondary" opacity=".4" d="M42.7 148.3c0-18.8 0-28.2 1.5-36.1c6.5-34.5 33.5-61.5 68-68c7.8-1.5 17.3-1.5 36.1-1.5c8.2 0 12.4 0 16.3 .4c17.1 1.6 33.3 8.3 46.5 19.3c3.1 2.5 6 5.5 11.8 11.3l11.7 11.7c17.4 17.4 26.1 26.1 36.5 31.9c5.7 3.2 11.8 5.7 18.1 7.5c11.5 3.3 23.8 3.3 48.4 3.3l-39 0 0 103.5c0 6.2 0 9.3 2 10.5c.5 .3 1.1 .5 1.7 .5c1.9 0 4.5-1.3 8.6-3.4l26.5-13.3c1.9-.9 2.8-1.4 3.8-1.4s1.9 .5 3.8 1.4l26.5 13.3c4.1 2.1 6.7 3.4 8.6 3.4c.6 0 1.2-.1 1.7-.5c2-1.2 2-4.3 2-10.5l0-103.2c31.7 .8 50.6 4 64.1 16.1c1.7 1.5 3.3 3.1 4.8 4.8c16.4 18.2 16.4 46.2 16.4 102.1l0 .4 0 47c0 80.5 0 120.7-25 145.7c-24.9 24.9-65.1 25-145.2 25l-.5 0-85.3 0c-80.5 0-120.7 0-145.7-25c-24.9-24.9-25-65.1-25-145.2l0-.4 0-150.4z"/><path class="fa-primary" d="M384 231.5V128H298.7V231.5c0 6.2 0 9.3 2 10.5s4.8-.1 10.3-2.9l26.5-13.3c1.9-.9 2.8-1.4 3.8-1.4s1.9 .5 3.8 1.4l26.5 13.3c5.5 2.8 8.3 4.1 10.3 2.9s2-4.3 2-10.5z"/></svg>