<svg xmlns="http://www.w3.org/2000/svg" viewBox="0 0 512 512"><!--!Font Awesome Pro 6.6.0 by @fontawesome - https://fontawesome.com License - https://fontawesome.com/license (Commercial License) Copyright 2024 Fonticons, Inc.--><path class="fa-secondary" opacity=".4" d="M108 149.3l16 16 196 0c20.2 0 34.3 0 45.3 1c10.7 1 16.8 2.8 21.4 5.4C394 176 400 182 404.2 189.3c2.6 4.6 4.5 10.7 5.4 21.4c1 10.9 1 25 1 45.3s0 34.3-1 45.3c-1 10.7-2.8 16.8-5.4 21.4C400 330 394 336 386.7 340.2c-4.6 2.6-10.7 4.5-21.4 5.4c-10.9 1-25 1-45.3 1l-149.3 0c-8.8 0-16 7.2-16 16s7.2 16 16 16l150.1 0c19.3 0 34.8 0 47.4-1.1c12.9-1.2 24.2-3.7 34.5-9.6c12.2-7 22.3-17.1 29.3-29.3c5.9-10.3 8.4-21.6 9.6-34.5c1.1-12.6 1.1-28.1 1.1-47.4l0-1.5c0-19.3 0-34.9-1.1-47.4c-1.2-12.9-3.7-24.2-9.6-34.5c-7-12.2-17.1-22.3-29.3-29.3c-10.3-5.9-21.6-8.4-34.5-9.6c-12.6-1.1-28.1-1.1-47.4-1.1l-196.8 0c-5.3 5.3-10.7 10.7-16 16z"/><path class="fa-primary" d="M160.6 74c6.2 6.2 6.2 16.4 0 22.6L108 149.3 160.6 202c6.2 6.2 6.2 16.4 0 22.6s-16.4 6.2-22.6 0l-64-64c-6.2-6.2-6.2-16.4 0-22.6l64-64c6.2-6.2 16.4-6.2 22.6 0z"/></svg>