<svg xmlns="http://www.w3.org/2000/svg" viewBox="0 0 512 512"><!--!Font Awesome Pro 6.6.0 by @fontawesome - https://fontawesome.com License - https://fontawesome.com/license (Commercial License) Copyright 2024 Fonticons, Inc.--><path class="fa-secondary" opacity=".4" d="M42.7 148.3l0 150.4c0 80.5 0 120.7 25 145.7c24.9 24.9 65.1 25 145.2 25l.5 0 85.3 0c80.5 0 120.7 0 145.7-25c24.9-24.9 25-65.1 25-145.2l0-.5 0-47c0-56.2 0-84.2-16.4-102.5c-1.5-1.7-3.1-3.3-4.8-4.8C429.9 128 401.8 128 345.6 128l-8 0c-24.6 0-36.9 0-48.4-3.3c-6.3-1.8-12.4-4.3-18.1-7.5c-10.4-5.8-19.1-14.5-36.5-31.9L222.9 73.6c-5.8-5.8-8.7-8.7-11.8-11.3c-13.2-11-29.4-17.7-46.5-19.3c-4-.4-8.1-.4-16.3-.4c-18.8 0-28.2 0-36.1 1.5c-34.5 6.5-61.5 33.5-68 68c-1.5 7.8-1.5 17.3-1.5 36.1zM208 256c0-4.1 1.6-8.2 4.7-11.3s7.2-4.7 11.3-4.7s8.2 1.6 11.3 4.7L256 265.4l20.7-20.7c3.1-3.1 7.2-4.7 11.3-4.7s8.2 1.6 11.3 4.7s4.7 7.2 4.7 11.3s-1.6 8.2-4.7 11.3L278.6 288l20.7 20.7c3.1 3.1 4.7 7.2 4.7 11.3s-1.6 8.2-4.7 11.3s-7.2 4.7-11.3 4.7s-8.2-1.6-11.3-4.7L256 310.6l-20.7 20.7c-3.1 3.1-7.2 4.7-11.3 4.7s-8.2-1.6-11.3-4.7s-4.7-7.2-4.7-11.3s1.6-8.2 4.7-11.3L233.4 288l-20.7-20.7c-3.1-3.1-4.7-7.2-4.7-11.3z"/><path class="fa-primary" d="M212.7 244.7c6.2-6.2 16.4-6.2 22.6 0L256 265.4l20.7-20.7c6.2-6.2 16.4-6.2 22.6 0s6.2 16.4 0 22.6L278.6 288l20.7 20.7c6.2 6.2 6.2 16.4 0 22.6s-16.4 6.2-22.6 0L256 310.6l-20.7 20.7c-6.2 6.2-16.4 6.2-22.6 0s-6.2-16.4 0-22.6L233.4 288l-20.7-20.7c-6.2-6.2-6.2-16.4 0-22.6z"/></svg>