<svg xmlns="http://www.w3.org/2000/svg" viewBox="0 0 512 512"><!--!Font Awesome Pro 6.6.0 by @fontawesome - https://fontawesome.com License - https://fontawesome.com/license (Commercial License) Copyright 2024 Fonticons, Inc.--><path class="fa-secondary" opacity=".4" d="M26.7 341.3c0 8.8 7.2 16 16 16l197.3 0L240 252l-15.4 15.4c-6.2 6.2-16.4 6.2-22.6 0s-6.2-16.4 0-22.6L244.7 202c6.2-6.2 16.4-6.2 22.6 0L310 244.7c6.2 6.2 6.2 16.4 0 22.6s-16.4 6.2-22.6 0L272 252l0 105.4 197.3 0c8.8 0 16-7.2 16-16s-7.2-16-16-16l-87.1 0C393.6 304.8 400 281.1 400 256c0-79.5-64.5-144-144-144s-144 64.5-144 144c0 25.1 6.4 48.8 17.8 69.3l-87.1 0c-8.8 0-16 7.2-16 16zM93.8 93.8c-6.2 6.2-6.2 16.4 0 22.6l8.4 8.4c6.2 6.2 16.4 6.2 22.6 0s6.2-16.4 0-22.6l-8.4-8.4c-3.1-3.1-7.2-4.7-11.3-4.7s-8.2 1.6-11.3 4.7zm293.3 8.4c-6.2 6.2-6.2 16.4 0 22.6s16.4 6.2 22.6 0l8.4-8.4c6.2-6.2 6.2-16.4 0-22.6s-16.4-6.2-22.6 0l-8.4 8.4z"/><path class="fa-primary" d="M154.7 469.3c0-8.8 7.2-16 16-16l170.7 0c8.8 0 16 7.2 16 16s-7.2 16-16 16l-170.7 0c-8.8 0-16-7.2-16-16zM256 26.7c8.8 0 16 7.2 16 16L272 64c0 8.8-7.2 16-16 16s-16-7.2-16-16l0-21.3c0-8.8 7.2-16 16-16zM26.7 256c0-8.8 7.2-16 16-16L64 240c8.8 0 16 7.2 16 16s-7.2 16-16 16l-21.3 0c-8.8 0-16-7.2-16-16zM432 256c0-8.8 7.2-16 16-16l21.3 0c8.8 0 16 7.2 16 16s-7.2 16-16 16L448 272c-8.8 0-16-7.2-16-16zM267.3 202c-6.2-6.2-16.4-6.2-22.6 0L202 244.7c-6.2 6.2-6.2 16.4 0 22.6s16.4 6.2 22.6 0L240 252V357.3h32V252l15.4 15.4c6.2 6.2 16.4 6.2 22.6 0s6.2-16.4 0-22.6L267.3 202zM90.7 405.3c0-8.8 7.2-16 16-16H405.3c8.8 0 16 7.2 16 16s-7.2 16-16 16H106.7c-8.8 0-16-7.2-16-16z"/></svg>