<svg xmlns="http://www.w3.org/2000/svg" viewBox="0 0 512 512"><!--!Font Awesome Pro 6.6.0 by @fontawesome - https://fontawesome.com License - https://fontawesome.com/license (Commercial License) Copyright 2024 Fonticons, Inc.--><path class="fa-secondary" opacity=".4" d="M108 149.3l16 16 196 0c50.1 0 90.7 40.6 90.7 90.7s-40.6 90.7-90.7 90.7l-149.3 0c-8.8 0-16 7.2-16 16s7.2 16 16 16l149.3 0c67.7 0 122.7-54.9 122.7-122.7s-54.9-122.7-122.7-122.7l-196 0-16 16z"/><path class="fa-primary" d="M160.6 74c-6.2-6.2-16.4-6.2-22.6 0L74 138c-6.2 6.2-6.2 16.4 0 22.6l64 64c6.2 6.2 16.4 6.2 22.6 0s6.2-16.4 0-22.6L108 149.3l52.7-52.7c6.2-6.2 6.2-16.4 0-22.6z"/></svg>