<svg xmlns="http://www.w3.org/2000/svg" viewBox="0 0 512 512"><!--!Font Awesome Pro 6.6.0 by @fontawesome - https://fontawesome.com License - https://fontawesome.com/license (Commercial License) Copyright 2024 Fonticons, Inc.--><path class="fa-secondary" opacity=".4" d="M154.7 149.3l0 213.3c0 8.8 7.2 16 16 16s16-7.2 16-16l0-213.3c0-8.8-7.2-16-16-16s-16 7.2-16 16zm170.7 0l0 213.3c0 8.8 7.2 16 16 16s16-7.2 16-16l0-213.3c0-8.8-7.2-16-16-16s-16 7.2-16 16z"/><path class="fa-primary" d="M256 69.3c8.8 0 16 7.2 16 16l0 341.3c0 8.8-7.2 16-16 16s-16-7.2-16-16l0-341.3c0-8.8 7.2-16 16-16zM85.3 218.7c8.8 0 16 7.2 16 16l0 42.7c0 8.8-7.2 16-16 16s-16-7.2-16-16l0-42.7c0-8.8 7.2-16 16-16zm341.3 0c8.8 0 16 7.2 16 16l0 42.7c0 8.8-7.2 16-16 16s-16-7.2-16-16l0-42.7c0-8.8 7.2-16 16-16z"/></svg>