<svg xmlns="http://www.w3.org/2000/svg" viewBox="0 0 512 512"><!--!Font Awesome Pro 6.6.0 by @fontawesome - https://fontawesome.com License - https://fontawesome.com/license (Commercial License) Copyright 2024 Fonticons, Inc.--><path class="fa-secondary" opacity=".4" d="M64 212.9l0 .5 0 85.3c0 80.5 0 120.7 25 145.7c24.9 24.9 65.1 25 145.2 25l.5 0 42.7 0c80.5 0 120.7 0 145.7-25c24.9-24.9 25-65.1 25-145.2l0-.5 0-85.3c0-80.5 0-120.7-25-145.7s-65.2-25-145.7-25l-21.3 0L256 64l0 21.3-32 0c-10.1 0-15.1 0-18.2-3.1s-3.1-8.2-3.1-18.2l0-21.3c-59.6 .4-92.2 3.5-113.7 24.9C64 92.6 64 132.7 64 212.9zm138.7-63.6c0-10 0-15 3.1-18.1s8.2-3.1 18.2-3.1l32 0 0 42.7-32 0c-10.1 0-15.1 0-18.2-3.1s-3.1-8.2-3.1-18.3zm0 125.4c0-10.3 8.4-18.7 18.7-18.7l69.3 0c10.3 0 18.7 8.4 18.7 18.7l0 2.7c0 29.5-23.9 53.3-53.3 53.3s-53.3-23.9-53.3-53.3l0-2.7zM256 85.3l32 0c10.1 0 15.1 0 18.2 3.1s3.1 8.2 3.1 18.3c0 10 0 15-3.1 18.1c-3.1 3.1-8.2 3.1-18.2 3.1l-32 0 0-42.7zm0 85.3l0 21.3c0 10.1 0 15.1 3.1 18.2s8.2 3.1 18.2 3.1l10.7 0c10.1 0 15.1 0 18.2-3.1c3.1-3.1 3.1-8.1 3.1-18.1c0-10.1 0-15.2-3.1-18.3s-8.2-3.1-18.2-3.1l-32 0z"/><path class="fa-primary" d="M288 170.7H256V192c0 10.1 0 15.1 3.1 18.2s8.2 3.1 18.2 3.1H288c10.1 0 15.1 0 18.2-3.1s3.1-8.2 3.1-18.2s0-15.1-3.1-18.2s-8.2-3.1-18.2-3.1zm-82.2-39.5c-3.1 3.1-3.1 8.2-3.1 18.2s0 15.1 3.1 18.2s8.2 3.1 18.2 3.1h32V128H224c-10.1 0-15.1 0-18.2 3.1zM288 85.3H256V128h32c10.1 0 15.1 0 18.2-3.1s3.1-8.2 3.1-18.2s0-15.1-3.1-18.2s-8.2-3.1-18.2-3.1zm-32 0V64 42.7l-53.3 .1V64c0 10.1 0 15.1 3.1 18.2s8.2 3.1 18.2 3.1h32zm-53.3 192v-2.7c0-10.3 8.4-18.7 18.7-18.7h69.3c10.3 0 18.7 8.4 18.7 18.7v2.7c0 29.5-23.9 53.3-53.3 53.3s-53.3-23.9-53.3-53.3z"/></svg>