<svg xmlns="http://www.w3.org/2000/svg" viewBox="0 0 512 512"><!--!Font Awesome Pro 6.6.0 by @fontawesome - https://fontawesome.com License - https://fontawesome.com/license (Commercial License) Copyright 2024 Fonticons, Inc.--><path class="fa-secondary" opacity=".4" d="M42.7 137.1c0-39.4 34.1-64.3 61.9-45.2c43.3 31.7 86.7 63.4 130.1 95.1c0 46 0 91.9 0 137.9c-43.4 31.7-86.7 63.4-130.1 95.1c-27.8 19.1-61.9-5.8-61.9-45.2l0-237.8z"/><path class="fa-primary" d="M234.7 152l0 35.1V324.9 360c0 34.5 31.3 56.3 56.8 39.5l158.2-104c26.2-17.2 26.2-61.8 0-79.1l-158.2-104c-25.5-16.7-56.8 5.1-56.8 39.5z"/></svg>