<svg xmlns="http://www.w3.org/2000/svg" viewBox="0 0 512 512"><!--!Font Awesome Pro 6.6.0 by @fontawesome - https://fontawesome.com License - https://fontawesome.com/license (Commercial License) Copyright 2024 Fonticons, Inc.--><path class="fa-secondary" opacity=".4" d="M112 167.6c2.5 1 5.1 1.8 7.7 2.3c1.3 .3 2.7 .5 4.1 .6s2.8 .2 4.2 .2c5.7 0 11.1-1.1 16-3.1l0 36.3c0 11.5 7.3 21.7 18.2 25.3l69.7 23.2c2.8 .9 5.5 2.1 8.1 3.4l0-160.3c5.3-8 10.7-16 16-24c5.3 8 10.7 16 16 24l0 224.3c2.6-1.3 5.3-2.5 8.1-3.4l69.7-23.2c10.9-3.6 18.2-13.8 18.2-25.3c0-18.2 0-36.4 0-54.8c2.2 .1 4.6 .1 7.2 .2s5.4 0 8.5 0c.1 0 .2 0 .3 0c6.2 0 11.5 0 16 0l0 54.6c0 25.3-16.2 47.7-40.1 55.7l-69.7 23.2c-10.9 3.6-18.2 13.8-18.2 25.3l0 15c-2.5-1-5-1.8-7.7-2.3c-1.3-.3-2.7-.5-4.1-.6c-.7-.1-1.4-.1-2.1-.2c-.6 0-1.2 0-2.1 0c-5.7 0-11.1 1.1-16 3.1l0-79c0-11.5-7.3-21.7-18.2-25.3l-69.7-23.2c-24-8-40.1-30.4-40.1-55.7l0-36.3zM256.2 26.7c.4 0 .8 0 1.2 .1c.5 0 .9 .1 1.3 .2c.9 .1 1.7 .3 2.4 .6c-1.6-.5-3.3-.8-4.9-.8zm4.9 .8c1.5 .5 3 1.3 4.3 2.2c-1.3-.9-2.7-1.7-4.3-2.2z"/><path class="fa-primary" d="M256 384a42.7 42.7 0 1 0 0 85.3 42.7 42.7 0 1 0 0-85.3zM128 85.3a42.7 42.7 0 1 0 0 85.3 42.7 42.7 0 1 0 0-85.3zM256 26.7c5.3 0 10.3 2.7 13.3 7.1l42.7 64c4.9 7.4 2.9 17.3-4.4 22.2s-17.3 2.9-22.2-4.4L256 71.5l-29.4 44c-4.9 7.4-14.8 9.3-22.2 4.4s-9.3-14.8-4.4-22.2l42.7-64c3-4.5 8-7.1 13.3-7.1zm85.3 144c0-20.1 0-30.2 6.2-36.4s16.3-6.2 36.4-6.2s30.2 0 36.4 6.2s6.2 16.3 6.2 36.4s0 30.2-6.2 36.4s-16.3 6.2-36.4 6.2s-30.2 0-36.4-6.2s-6.2-16.3-6.2-36.4z"/></svg>