<svg xmlns="http://www.w3.org/2000/svg" viewBox="0 0 512 512"><!--!Font Awesome Pro 6.6.0 by @fontawesome - https://fontawesome.com License - https://fontawesome.com/license (Commercial License) Copyright 2024 Fonticons, Inc.--><path class="fa-secondary" opacity=".4" d="M469.3 256A213.3 213.3 0 1 1 42.7 256a213.3 213.3 0 1 1 426.7 0zm-298.1-9.4l.1 .4c2 8 13.4 11 36.3 17.2c12.7 3.4 19.1 5.1 22 9.9l.2 .3c2.9 4.9 1.2 11-2 23.2l-.9 3.2c-9.1 33.8-13.6 50.8-4.9 56.2c1.5 .9 3.1 1.4 4.9 1.4c8.9 0 22.4-10.7 45.5-29.1c14.3-11.4 28.7-22.8 43-34.2C332 281.8 341 274.7 341 267.4c0-.7-.1-1.3-.2-2l-.1-.4c-2-8-13.4-11-36.3-17.2c-12.7-3.4-19.1-5.1-22-9.9l-.2-.3c-2.9-4.9-1.2-11 2-23.2l.9-3.2c9.1-33.8 13.6-50.8 4.9-56.2s-22.6 5.6-50.4 27.7l-43 34.2c-18 14.4-27.1 21.5-25.3 29.6z"/><path class="fa-primary" d="M239.5 182.8l-43 34.2c-18 14.4-27.1 21.5-25.3 29.6l.1 .4c2 8 13.4 11 36.3 17.2c12.7 3.4 19.1 5.1 22 9.9l.2 .3c2.9 4.9 1.2 11-2 23.2l-.9 3.2 0 0c-9.1 33.8-13.6 50.8-4.9 56.2s22.6-5.6 50.4-27.7l0 0 43-34.2c18-14.4 27.1-21.5 25.3-29.6l-.1-.4c-2-8-13.4-11-36.3-17.2c-12.7-3.4-19.1-5.1-22-9.9l-.2-.3c-2.9-4.9-1.2-11 2-23.2l.9-3.2c9.1-33.8 13.6-50.8 4.9-56.2s-22.6 5.6-50.4 27.7z"/></svg>