<svg xmlns="http://www.w3.org/2000/svg" viewBox="0 0 512 512"><!--!Font Awesome Pro 6.6.0 by @fontawesome - https://fontawesome.com License - https://fontawesome.com/license (Commercial License) Copyright 2024 Fonticons, Inc.--><path class="fa-secondary" opacity=".4" d="M210.7 89.4c0 12 4.6 23.9 13.7 33c23.8 23.8 47.5 47.5 71.3 71.3c6.5 6.5 13 13 19.5 19.5c1 1 2.1 2.1 3.1 3.1c23.8 23.8 47.5 47.5 71.3 71.3c3.7 3.7 7.8 6.6 12.2 8.8c-14.4-7.7-24.1-22.9-24.1-40.4c0-25.3 20.5-45.9 45.9-45.9c.8 0 1.6 0 2.3 .1s1.5 .1 2.3 .2c1.5 .2 3 .4 4.5 .7c3 .6 5.8 1.5 8.5 2.6c5.4 2.3 10.3 5.6 14.5 9.6c8.3 8.1 13.5 19.4 13.7 31.8l0-.2 0-.3c0-12-4.6-23.9-13.7-33L290.4 56.4c-9.1-9.1-21.1-13.7-33-13.7s-23.9 4.6-33 13.7s-13.7 21.1-13.7 33z"/><path class="fa-primary" d="M377.6 256a45.9 45.9 0 1 1 91.7 0 45.9 45.9 0 1 1 -91.7 0zM267.4 222l28.2-28.2 19.5 19.5 3.1 3.1L290 244.6c-2.4 2.4-2.9 6.2-1.1 9.1l13.8 22.4c15.7 25.6-14.8 54.4-39.4 37.2l-56-39-42.6-29.7 26.9 38.5 78.6 112.8c17.3 24.8-12 55.4-37.5 39.2L102.3 352.3l13.9 29.2c7.1 15 4 32.9-7.7 44.7L54 480.7c-6.2 6.2-16.4 6.2-22.6 0s-6.2-16.4 0-22.6l54.4-54.4c2.2-2.2 2.8-5.5 1.4-8.3L67 352.5c-11.9-25.1 16.4-50.1 39.9-35.2l11.6 7.4 0 0 113.3 71.9-68-97.6-39-55.9c-17.7-25.4 13.2-56.2 38.5-38.5l75 52.2 26.4 18.4-2.9-4.7c-4.5-7.3-6.4-15.6-5.7-23.7c.7-9.1 4.6-17.9 11.4-24.8z"/></svg>