<svg xmlns="http://www.w3.org/2000/svg" viewBox="0 0 512 512"><!--!Font Awesome Pro 6.6.0 by @fontawesome - https://fontawesome.com License - https://fontawesome.com/license (Commercial License) Copyright 2024 Fonticons, Inc.--><path class="fa-secondary" opacity=".4" d="M64 256l0 .6c0 100.2 .1 150.3 28.1 181.5c28.1 31.2 73.4 31.2 163.9 31.2l.5 0c90.2 0 135.3-.1 163.3-31.2C448 406.9 448 356.6 448 256s0-150.8-28.1-182.1S346.5 42.7 256 42.7s-135.8 0-163.9 31.2S64 155.4 64 256zm85.3-85.3c0-9.9 0-14.9 1.1-18.9c3-11 11.6-19.7 22.6-22.6c4.1-1.1 9-1.1 18.9-1.1l128 0c9.9 0 14.9 0 18.9 1.1c11 3 19.7 11.6 22.6 22.6c1.1 4.1 1.1 9 1.1 19c0 9.9 0 14.8-1.1 18.9c-3 11-11.6 19.7-22.6 22.6c-4.1 1.1-9 1.1-18.9 1.1l-128 0c-9.9 0-14.9 0-18.9-1.1c-11-3-19.7-11.6-22.6-22.6c-1.1-4.1-1.1-9-1.1-18.9zM192 277.3a21.3 21.3 0 1 1 -42.7 0 21.3 21.3 0 1 1 42.7 0zm0 85.3a21.3 21.3 0 1 1 -42.7 0 21.3 21.3 0 1 1 42.7 0zm85.3-85.3a21.3 21.3 0 1 1 -42.7 0 21.3 21.3 0 1 1 42.7 0zm0 85.3a21.3 21.3 0 1 1 -42.7 0 21.3 21.3 0 1 1 42.7 0zm85.3-85.3a21.3 21.3 0 1 1 -42.7 0 21.3 21.3 0 1 1 42.7 0zm0 85.3a21.3 21.3 0 1 1 -42.7 0 21.3 21.3 0 1 1 42.7 0z"/><path class="fa-primary" d="M320 128H192c-9.9 0-14.9 0-18.9 1.1c-11 3-19.7 11.6-22.6 22.6c-1.1 4.1-1.1 9-1.1 18.9s0 14.9 1.1 18.9c3 11 11.6 19.7 22.6 22.6c4.1 1.1 9 1.1 18.9 1.1H320c9.9 0 14.9 0 18.9-1.1c11-3 19.7-11.6 22.6-22.6c1.1-4.1 1.1-9 1.1-18.9s0-14.9-1.1-18.9c-3-11-11.6-19.7-22.6-22.6c-4.1-1.1-9-1.1-18.9-1.1zM170.7 298.7a21.3 21.3 0 1 0 0-42.7 21.3 21.3 0 1 0 0 42.7zm0 85.3a21.3 21.3 0 1 0 0-42.7 21.3 21.3 0 1 0 0 42.7zM256 298.7a21.3 21.3 0 1 0 0-42.7 21.3 21.3 0 1 0 0 42.7zm0 85.3a21.3 21.3 0 1 0 0-42.7 21.3 21.3 0 1 0 0 42.7zm85.3-85.3a21.3 21.3 0 1 0 0-42.7 21.3 21.3 0 1 0 0 42.7zm0 85.3a21.3 21.3 0 1 0 0-42.7 21.3 21.3 0 1 0 0 42.7z"/></svg>