<svg xmlns="http://www.w3.org/2000/svg" viewBox="0 0 512 512"><!--!Font Awesome Pro 6.6.0 by @fontawesome - https://fontawesome.com License - https://fontawesome.com/license (Commercial License) Copyright 2024 Fonticons, Inc.--><path class="fa-secondary" opacity=".4" d="M79.8 384c3 34.7 7.3 54.7 21.6 68.1c18.5 17.3 46.8 17.3 103.6 17.3l16.5 0c56.8 0 85.1 0 103.6-17.3c14.3-13.4 18.6-33.4 21.6-68.1l-267 0zM116.1 98.7c-5.1 7.2-3.5 17.2 3.7 22.3s17.2 3.5 22.3-3.7l8.8-12.3c9.8-13.7 6.8-32.7-6.5-42.8l8.2-11.5c5.1-7.2 3.5-17.2-3.7-22.3s-17.2-3.5-22.3 3.7l-8.8 12.3c-9.8 13.7-6.8 32.7 6.5 42.8l-8.2 11.5zm85.3 0c-5.1 7.2-3.5 17.2 3.7 22.3s17.2 3.5 22.3-3.7l8.8-12.3c9.8-13.7 6.8-32.7-6.5-42.8l8.2-11.5c5.1-7.2 3.5-17.2-3.7-22.3S217 24.8 211.9 32l-8.8 12.3c-9.8 13.7-6.8 32.7 6.5 42.8l-8.2 11.5zm85.3 0c-5.1 7.2-3.5 17.2 3.7 22.3s17.2 3.5 22.3-3.7l8.8-12.3c9.8-13.7 6.8-32.7-6.5-42.8l8.2-11.5c5.1-7.2 3.5-17.2-3.7-22.3s-17.2-3.5-22.3 3.7l-8.8 12.3c-9.8 13.7-6.8 32.7 6.5 42.8l-8.2 11.5z"/><path class="fa-primary" d="M70.1 240.3c-2.8-42.7-4.3-64 8.4-77.5s34-13.5 76.8-13.5l116.2 0c42.7 0 64.1 0 76.8 13.5c3.5 3.7 5.9 8 7.5 13.1l7 0c56 0 101.3 45.4 101.3 101.3s-45.4 101.3-101.3 101.3l-15.4 0c-.1 1.8-.3 3.6-.4 5.3l-267 0c-.9-10.1-1.6-21.4-2.5-34.2L70.1 240.3zM349.5 346.7l13.2 0c38.3 0 69.3-31 69.3-69.3s-31-69.3-69.3-69.3l-4.3 0c-.3 9.2-1 19.8-1.8 32.3l-7.1 106.3z"/></svg>