<svg xmlns="http://www.w3.org/2000/svg" viewBox="0 0 512 512"><!--!Font Awesome Pro 6.5.2 by @fontawesome - https://fontawesome.com License - https://fontawesome.com/license (Commercial License) Copyright 2024 Fonticons, Inc.--><path class="fa-secondary" opacity=".4" d="M42.7 341.4c0 48.6 27.6 93.5 72.1 115.1c17.8 8.6 36.9 12.9 55.9 12.9c33.2 0 66-12.9 90.5-37.5c17.3-17.2 29.2-39 34.5-62.8c-8.6-5.1-16.6-11.3-23.8-18.5c-.2-.2-.3-.3-.5-.5c-22.8-22.8-45.6-45.5-68.4-68.3c-13.7-13.7-27.3-27.3-41-41l-.2-.2c-3.7-3.7-7.1-7.6-10.2-11.7c-1.5-2-2.9-4-4.3-6s-2.6-4.1-3.8-6.2c-.1-.2-.1-.3-.8-.3c-53 11.9-92.7 55.9-99.1 109.8c-.6 5.1-.9 10.1-.9 15.1z"/><path class="fa-primary" d="M213.5 279.7l-10.6 2-41-41c-45.3-45.3-45.3-118.7 0-164s118.7-45.3 164 0l41 41-2 10.6 0 .2-.3 1.2c-.4 1.7-.9 3.5-1.5 5.2c-1.5 4.7-4.1 11.6-8.2 20.2c-8.3 17.2-23 41-48.3 66.3c-25.3 25.4-49.2 40-66.3 48.3c-8.6 4.1-15.6 6.7-20.2 8.2c-2.1 .7-4.2 1.3-6.4 1.8zM288.6 95.3c-4-4.2-10-5.8-15.6-4.4s-10 5.8-11.4 11.4s.2 11.5 4.4 15.6l32 32c4 4.3 10 6 15.7 4.6s10.1-5.9 11.5-11.5s-.3-11.7-4.6-15.7zM435.4 186l-41.7-41.6-.1 .2c-1.9 6-5 14.3-9.9 24.4c-9.7 20.1-26.4 47-54.5 75.1c-28.1 28.1-55 44.8-75.1 54.5a189.2 189.2 0 0 1 -24.4 9.8l-.1 .1 41.7 41.6a116 116 0 1 0 164-164"/></svg>