<svg xmlns="http://www.w3.org/2000/svg" viewBox="0 0 512 512"><!--!Font Awesome Pro 6.6.0 by @fontawesome - https://fontawesome.com License - https://fontawesome.com/license (Commercial License) Copyright 2024 Fonticons, Inc.--><path class="fa-secondary" opacity=".4" d="M58.5 406c0 17.2 3.4 29.9 12 40.2c19.2 23.1 54.9 23.1 126.4 23.1l118.2 0c71.4 0 107.2 0 126.4-23.1s12.6-58.2-.6-128.5l-16-85.3c-9.4-49.9-14-74.9-31.8-89.7c-12.8-10.6-29.6-13.6-57.1-14.4c-9.3-.3-19.9-.3-32-.3l-4.9 0-86.2 0c-1.7 0-3.3 0-4.9 0c-12.1 0-22.7 0-32 .3c-27.5 .8-44.3 3.8-57.1 14.4c-17.8 14.8-22.5 39.7-31.8 89.7l-16 85.3c-7.3 38.9-12.6 67-12.6 88.3zm96.1-43.3c0-.9 .1-1.8 .2-2.6l21.3-128c1.5-8.7 9.7-14.6 18.4-13.2s14.6 9.7 13.2 18.4l-21.3 128c-1.3 7.8-8.1 13.4-15.8 13.4c-.9 0-1.8-.1-2.6-.2c-7.8-1.3-13.4-8.1-13.4-15.8zM304.2 237.3c-1.5-8.7 4.4-17 13.2-18.4s17 4.4 18.4 13.2l21.3 128c.1 .9 .2 1.8 .2 2.6c0 7.7-5.5 14.5-13.4 15.8c-.9 .1-1.8 .2-2.6 .2c-7.7 0-14.5-5.5-15.8-13.4l-21.3-128z"/><path class="fa-primary" d="M208 106.7c0-26.5 21.5-48 48-48s48 21.5 48 48V128s0 0 0 0c12.1 0 22.7 0 32 .3c0-.1 0-.2 0-.3V106.7c0-44.2-35.8-80-80-80s-80 35.8-80 80V128c0 .1 0 .2 0 .3c9.3-.3 19.9-.3 32-.3c0 0 0 0 0 0V106.7zM176.2 232c1.5-8.7 9.7-14.6 18.4-13.2s14.6 9.7 13.2 18.4l-21.3 128c-1.5 8.7-9.7 14.6-18.4 13.2s-14.6-9.7-13.2-18.4l21.3-128zm141.2-13.2c8.7-1.5 17 4.4 18.4 13.2l21.3 128c1.5 8.7-4.4 17-13.2 18.4s-17-4.4-18.4-13.2l-21.3-128c-1.5-8.7 4.4-17 13.2-18.4z"/></svg>