<svg xmlns="http://www.w3.org/2000/svg" viewBox="0 0 512 512"><!--!Font Awesome Pro 6.6.0 by @fontawesome - https://fontawesome.com License - https://fontawesome.com/license (Commercial License) Copyright 2024 Fonticons, Inc.--><path class="fa-secondary" opacity=".4" d="M42.7 429.9c0 2.6 .3 4.7 .8 6.7c2.2 7.5 7.5 13.9 14.8 17.8c5.5 2.9 12.8 3.8 27.4 5.5l62.7 7.5c9.4 1.1 15.8 1.9 20.7 1.9c2.8 0 5.1-.2 7.3-.8c8.1-2 15-6.9 19.2-13.7c3.1-5.1 4.1-11.8 6-25.4s2.8-20.3 1.2-25.9c-2.2-7.5-7.5-13.9-14.8-17.8c-5.5-2.9-20.6-4.7-35.2-6.5L171.6 245c14.6 1.8 29.8 3.6 35.8 2.1c8.1-2 15-6.9 19.2-13.7c3.1-5.1 4.1-11.8 6-25.4c1.2-8.7 2-14.6 2-19.2c0-2.6-.3-4.7-.8-6.7c-2.2-7.5-7.5-13.9-14.8-17.8c-5.5-2.9-12.8-3.8-27.4-5.5l-62.7-7.5c-9.4-1.1-15.8-1.9-20.7-1.9c-2.8 0-5.1 .2-7.3 .8c-8.1 2-15 6.9-19.2 13.7c-3.1 5.1-4.1 11.8-6 25.4s-2.8 20.3-1.2 25.9c2.2 7.5 7.5 13.9 14.8 17.8c5.5 2.9 20.6 4.7 35.2 6.5L105.7 373.7c-14.6-1.8-29.8-3.6-35.8-2.1c-8.1 2-15 6.9-19.2 13.7c-3.1 5.1-4.1 11.8-6 25.4c-1.2 8.7-2 14.6-2 19.2z"/><path class="fa-primary" d="M432.8 343.1L374.9 358c-13.5 3.5-20.2 5.2-26.1 4.5c-7.9-1-15-5-19.8-11c-3.6-4.5-5.4-11-9-24s-5.4-19.5-4.6-25.1c1-7.6 5.2-14.5 11.5-19.1c4.7-3.5 18.7-7.1 32.2-10.6L323.1 143.9c-13.5 3.5-27.4 7.1-33.4 6.3c-7.9-1-15-5-19.8-11c-3.6-4.5-5.4-11-9-24s-5.4-19.5-4.6-25.1c1-7.6 5.2-14.5 11.5-19.1c4.7-3.5 11.5-5.2 24.9-8.7l57.8-14.9c13.5-3.5 20.2-5.2 26.1-4.5c7.9 1 15 5 19.8 11c3.6 4.5 5.4 11 9 24s5.4 19.5 4.6 25.1c-1 7.6-5.2 14.5-11.5 19.1c-4.7 3.5-18.7 7.1-32.2 10.6l35.8 128.8c13.5-3.5 27.4-7.1 33.4-6.3c7.9 1 15 5 19.8 11c3.6 4.5 5.4 11 9 24s5.4 19.5 4.6 25.1c-1 7.6-5.2 14.4-11.5 19.1c-4.7 3.5-11.5 5.2-24.9 8.7z"/></svg>