<svg xmlns="http://www.w3.org/2000/svg" viewBox="0 0 512 512"><!--!Font Awesome Pro 6.6.0 by @fontawesome - https://fontawesome.com License - https://fontawesome.com/license (Commercial License) Copyright 2024 Fonticons, Inc.--><path class="fa-secondary" opacity=".4" d="M42.7 256a213.3 213.3 0 1 0 426.7 0A213.3 213.3 0 1 0 42.7 256zm116.7 74l34.5-34.6-9.5-9.6c-13-13-19.5-19.5-19.5-26.2c0-2.9 .7-5.7 2.2-8.2c3.3-5.8 12.2-8.2 29.9-13.1c7.9-2.2 11.8-3.2 14.9-5.5c1.4-1 2.7-2.2 3.8-3.5c2.5-3 3.9-6.8 6.7-14.5l7.1-19.4c10.5-28.7 15.8-43.1 27.4-45.7c1.1-.2 2.2-.4 3.4-.4c10.4 0 21.2 10.7 40.7 30.3l31.6 31.7c19.4 19.4 30 30.1 30 40.5c0 1.1-.1 2.2-.4 3.3c-2.5 11.6-16.7 16.9-45.1 27.6L297.5 290c-7.6 2.9-11.4 4.3-14.4 6.8c-1.3 1.1-2.4 2.4-3.4 3.8c-2.3 3.2-3.3 7.1-5.5 14.9c-4.9 17.8-7.4 26.8-13.2 30.1c-2.5 1.4-5.3 2.1-8.1 2.1c-6.7 0-13.3-6.6-26.3-19.6l-10.1-10.1L182 352.6c-3.1 3.1-7.2 4.7-11.3 4.7s-8.2-1.6-11.3-4.7c-6.3-6.2-6.3-16.4 0-22.6z"/><path class="fa-primary" d="M332.6 211.3L301 179.6c-21.6-21.6-32.4-32.5-44-29.9s-16.9 16.9-27.4 45.7l-7.1 19.4c-2.8 7.7-4.2 11.5-6.7 14.5c-1.1 1.3-2.4 2.5-3.8 3.5c-3.2 2.3-7.1 3.4-14.9 5.5c-17.7 4.9-26.6 7.3-29.9 13.1c-1.4 2.5-2.2 5.4-2.2 8.2c0 6.7 6.5 13.2 19.5 26.2l9.5 9.6L159.3 330c-6.2 6.3-6.2 16.4 0 22.6s16.4 6.2 22.6 0l34.5-34.6 10.1 10.1c13.1 13.1 19.6 19.6 26.3 19.6c2.8 0 5.6-.7 8.1-2.1c5.8-3.3 8.3-12.3 13.2-30.1c2.2-7.8 3.2-11.8 5.5-14.9c1-1.4 2.1-2.6 3.4-3.8c2.9-2.5 6.7-4 14.4-6.8l19.7-7.4c28.4-10.7 42.6-16 45.1-27.6s-8.2-22.3-29.7-43.8z"/></svg>