<svg xmlns="http://www.w3.org/2000/svg" viewBox="0 0 512 512"><!--!Font Awesome Pro 6.6.0 by @fontawesome - https://fontawesome.com License - https://fontawesome.com/license (Commercial License) Copyright 2024 Fonticons, Inc.--><path class="fa-secondary" opacity=".4" d="M64 210.2c0 .5 0 1.1 0 1.6c.9 106 87.5 192.7 193.5 193.5c5.2 0 10.3-.1 15.4-.5c5.1-.4 10.1-1 15.1-1.7c90.9-13.8 160-91.8 160-186.7c0-.5 0-1.1 0-1.6c-.9-106-87.5-192.7-193.5-193.5C148.9 20.5 64 104.9 64 210.2zm133.3 3.1c0-4 1.5-8 4.4-11l61-64c6.1-6.4 16.2-6.6 22.6-.6s6.6 16.2 .6 22.6l-35.2 37 48 0c6.4 0 12.2 3.8 14.7 9.7s1.3 12.7-3.1 17.3l-61 64c-6.1 6.4-16.2 6.6-22.6 .6s-6.6-16.2-.6-22.6l35.2-37-48 0c-6.4 0-12.2-3.8-14.7-9.7c-.9-2-1.3-4.2-1.3-6.3z"/><path class="fa-primary" d="M237.2 446.4c.9 .4 1.8 .6 2.8 .9v22.1c0 8.8 7.2 16 16 16s16-7.2 16-16V447.2c1-.2 2-.5 2.8-.9c5.2-2.2 9.4-6.3 11.5-11.5c1.6-3.9 1.6-8.9 1.6-18.8V403.1c-10 1.5-20.3 2.3-30.8 2.2c-11.3-.1-22.4-1.2-33.2-3.1V416c0 9.9 0 14.9 1.6 18.8c2.2 5.2 6.3 9.4 11.5 11.5zm48.2-308.6c6.4 6.1 6.6 16.2 .6 22.6l-35.2 37h48c6.4 0 12.2 3.8 14.7 9.7s1.3 12.7-3.1 17.3l-61 64c-6.1 6.4-16.2 6.6-22.6 .6s-6.6-16.2-.6-22.6l35.2-37h-48c-6.4 0-12.2-3.8-14.7-9.7s-1.3-12.7 3.1-17.3l61-64c6.1-6.4 16.2-6.6 22.6-.6z"/></svg>