<svg xmlns="http://www.w3.org/2000/svg" viewBox="0 0 512 512"><!--!Font Awesome Pro 6.6.0 by @fontawesome - https://fontawesome.com License - https://fontawesome.com/license (Commercial License) Copyright 2024 Fonticons, Inc.--><path class="fa-secondary" opacity=".4" d="M42.7 158l0 1.5 0 .6c0 12.1 0 22.3 .8 30.5c.8 8.8 2.6 17 7.2 24.5c4.5 7.3 10.7 13.5 18 18c7.5 4.6 15.7 6.4 24.5 7.2c8.4 .8 18.7 .8 31.1 .8l23.6 0c17.8 0 32.7 0 44.5-1.6c12.5-1.7 23.7-5.4 32.7-14.4s12.7-20.3 14.4-32.7c1.6-11.8 1.6-26.7 1.6-44.5l0-23.6c0-12.4 0-22.7-.8-31.1c-.8-8.8-2.6-17-7.2-24.5c-4.5-7.3-10.7-13.5-18-18c-7.5-4.6-15.7-6.4-24.5-7.2c-8.4-.8-18.7-.8-31.1-.8l-1.5 0c-18.9 0-34.1 0-46.3 1.2C99.1 45 88.1 47.6 78.2 53.6c-10 6.1-18.4 14.6-24.6 24.6c-6.1 9.9-8.6 20.9-9.8 33.5c-1.2 12.2-1.2 27.4-1.2 46.3zm0 193.9l0 .6 0 1.5c0 18.9 0 34.1 1.2 46.3c1.2 12.6 3.7 23.6 9.8 33.5c6.1 10 14.6 18.4 24.6 24.6c9.9 6.1 20.9 8.6 33.5 9.8c12.2 1.2 27.4 1.2 46.3 1.2l1.5 0c12.4 0 22.7 0 31.1-.8c8.8-.8 17-2.6 24.5-7.2c7.3-4.5 13.5-10.7 18-18c4.6-7.5 6.4-15.7 7.2-24.5c.8-8.4 .8-18.7 .8-31.1l0-23.6c0-17.8 0-32.7-1.6-44.5c-1.7-12.5-5.4-23.7-14.4-32.7s-20.3-12.7-32.7-14.4c-11.8-1.6-26.7-1.6-44.5-1.6l-23.6 0c-12.4 0-22.7 0-31.1 .8c-8.8 .8-17 2.6-24.5 7.2c-7.3 4.5-13.5 10.7-18 18c-4.6 7.5-6.4 15.7-7.2 24.5c-.8 8.3-.8 18.4-.8 30.5zM110 142c0-13.2 0-19.8 3.3-24.4c1.2-1.6 2.6-3.1 4.2-4.2c4.7-3.3 11.2-3.3 24.4-3.3c13.2 0 19.8 0 24.4 3.3c1.6 1.2 3.1 2.6 4.2 4.2c3.3 4.7 3.3 11.3 3.3 24.4s0 19.8-3.3 24.4c-1.2 1.6-2.6 3.1-4.2 4.2c-4.7 3.3-11.3 3.3-24.4 3.3s-19.8 0-24.4-3.3c-1.6-1.2-3.1-2.6-4.2-4.2c-3.3-4.6-3.3-11.2-3.3-24.4zM110 370c0-13.2 0-19.8 3.3-24.5c1.2-1.6 2.6-3.1 4.2-4.2c4.7-3.3 11.3-3.3 24.4-3.3s19.8 0 24.5 3.3c1.6 1.2 3.1 2.6 4.2 4.2c3.3 4.7 3.3 11.3 3.3 24.5s0 19.8-3.3 24.5c-1.2 1.6-2.6 3.1-4.2 4.2c-4.7 3.3-11.3 3.3-24.4 3.3s-19.8 0-24.4-3.3c-1.6-1.2-3.1-2.6-4.2-4.2c-3.3-4.7-3.3-11.3-3.3-24.5zM270.9 124.3l0 23.6c0 17.8 0 32.7 1.6 44.5c1.7 12.5 5.4 23.7 14.4 32.7s20.3 12.7 32.7 14.4c11.8 1.6 26.7 1.6 44.5 1.6l23.6 0c12.4 0 22.7 0 31.1-.8c8.8-.8 17-2.6 24.5-7.2c7.3-4.5 13.5-10.7 18-18c4.6-7.5 6.4-15.7 7.2-24.5c.8-8.4 .8-18.7 .8-31.1l0-1.5c0-18.9 0-34.1-1.2-46.3c-1.2-12.6-3.7-23.6-9.8-33.5c-6.1-10-14.6-18.4-24.6-24.6c-9.9-6.1-20.9-8.6-33.5-9.8c-12.2-1.2-27.4-1.2-46.3-1.2l-1.5 0c-12.4 0-22.7 0-31.1 .8c-8.8 .8-17 2.6-24.5 7.2c-7.3 4.5-13.5 10.7-18 18c-4.6 7.5-6.4 15.7-7.2 24.5c-.8 8.4-.8 18.7-.8 31.1zm0 230.2l0 .8 29.8 0c0-14.2 0-23.8 .8-31.1c.7-7 2-10.3 3.4-12.4c1.8-2.7 4.1-5 6.8-6.8c2.2-1.4 5.4-2.7 12.4-3.4c7.3-.7 16.9-.8 31.1-.8l39.7 0 0-29.8-40.5 0c-13.3 0-24.4 0-33.4 .9c-9.4 1-18.1 3-26 8.3c-6 4-11.1 9.1-15.1 15.1c-5.3 7.9-7.3 16.6-8.3 26c-.9 9-.9 20.1-.9 33.4zm0 40.5l0 59.5c0 8.2 6.7 14.9 14.9 14.9s14.9-6.7 14.9-14.9l0-59.5-29.8 0zM338 142c0-13.2 0-19.8 3.3-24.5c1.2-1.6 2.6-3.1 4.2-4.2c4.7-3.3 11.3-3.3 24.5-3.3s19.8 0 24.4 3.3c1.6 1.2 3.1 2.6 4.2 4.2c3.3 4.7 3.3 11.3 3.3 24.4s0 19.8-3.3 24.4c-1.2 1.6-2.6 3.1-4.2 4.2c-4.7 3.3-11.3 3.3-24.4 3.3s-19.8 0-24.5-3.3c-1.6-1.2-3.1-2.6-4.2-4.2c-3.3-4.7-3.3-11.3-3.3-24.4zm17.2 297.6l0 29.8 40.2 0c8.8 0 16.2 0 22.2-.4c6.3-.4 12.2-1.4 18-3.7c13.4-5.5 24-16.2 29.5-29.5c2.4-5.8 3.3-11.7 3.7-18c.4-6 .4-13.4 .4-22.2l0-.5-29.8 0c0 9.5 0 15.8-.3 20.7c-.3 4.8-.9 7.1-1.5 8.6c-2.5 6.1-7.3 10.9-13.4 13.4c-1.5 .6-3.9 1.2-8.6 1.5c-4.9 .3-11.3 .3-20.7 .3l-39.7 0zm84.3-153.8l0 69.5 29.8 0 0-69.5c0-8.2-6.7-14.9-14.9-14.9s-14.9 6.7-14.9 14.9z"/><path class="fa-primary" d="M343 354.5c-1.6 3.9-1.6 8.9-1.6 18.8s0 14.9 1.6 18.8c2.2 5.2 6.3 9.4 11.5 11.5c3.9 1.6 8.9 1.6 18.8 1.6s14.9 0 18.8-1.6c5.2-2.2 9.4-6.3 11.5-11.5c1.6-3.9 1.6-8.9 1.6-18.8s0-14.9-1.6-18.8c-2.2-5.2-6.3-9.4-11.5-11.5c-3.9-1.6-8.9-1.6-18.8-1.6s-14.9 0-18.8 1.6c-5.2 2.2-9.4 6.3-11.5 11.5zM117.5 398.7c4.7 3.3 11.3 3.3 24.4 3.3s19.8 0 24.4-3.3c1.6-1.2 3.1-2.6 4.2-4.2c3.3-4.7 3.3-11.3 3.3-24.5s0-19.8-3.3-24.5c-1.2-1.6-2.6-3.1-4.2-4.2c-4.7-3.3-11.3-3.3-24.5-3.3s-19.8 0-24.4 3.3c-1.6 1.2-3.1 2.6-4.2 4.2c-3.3 4.7-3.3 11.3-3.3 24.5s0 19.8 3.3 24.5c1.2 1.6 2.6 3.1 4.2 4.2zM142 174c-13.2 0-19.8 0-24.4-3.3c-1.6-1.2-3.1-2.6-4.2-4.2c-3.3-4.7-3.3-11.3-3.3-24.4s0-19.8 3.3-24.4c1.2-1.6 2.6-3.1 4.2-4.2c4.7-3.3 11.3-3.3 24.4-3.3s19.8 0 24.4 3.3c1.6 1.2 3.1 2.6 4.2 4.2c3.3 4.7 3.3 11.3 3.3 24.4s0 19.8-3.3 24.4c-1.2 1.6-2.6 3.1-4.2 4.2c-4.7 3.3-11.3 3.3-24.4 3.3zm203.6-3.3c4.7 3.3 11.3 3.3 24.5 3.3s19.8 0 24.4-3.3c1.6-1.2 3.1-2.6 4.2-4.2c3.3-4.7 3.3-11.3 3.3-24.4s0-19.8-3.3-24.4c-1.2-1.6-2.6-3.1-4.2-4.2c-4.7-3.3-11.3-3.3-24.4-3.3s-19.8 0-24.5 3.3c-1.6 1.2-3.1 2.6-4.2 4.2c-3.3 4.7-3.3 11.3-3.3 24.5s0 19.8 3.3 24.4c1.2 1.6 2.6 3.1 4.2 4.2z"/></svg>