<svg xmlns="http://www.w3.org/2000/svg" viewBox="0 0 512 512"><!--!Font Awesome Pro 6.6.0 by @fontawesome - https://fontawesome.com License - https://fontawesome.com/license (Commercial License) Copyright 2024 Fonticons, Inc.--><path class="fa-secondary" opacity=".4" d="M244.4 154.5l86.9 173.9c1.9 3.7 5.6 5.9 9.5 5.9c1.5 0 2.9-.3 4.3-.9l102.9-45.9c14.1-6.3 21.2-18.9 21.2-31.4s-7.1-25.1-21.2-31.4L258.3 139.9c-1.5-.7-3-1-4.4-1c-7.4 0-13.2 8-9.5 15.5z"/><path class="fa-primary" d="M301.7 340.5c2.7 5.4 .4 12-5.2 14.5L95.9 444.5c-31.9 14.2-65-17.4-49.2-47L114 271.6c5.2-9.8 5.2-21.3 0-31.1L46.7 114.5C30.9 84.9 64 53.3 95.9 67.5L171.1 101c9 4 16.4 11.1 20.8 19.9L301.7 340.5z"/></svg>