<svg xmlns="http://www.w3.org/2000/svg" viewBox="0 0 512 512"><!--!Font Awesome Pro 6.6.0 by @fontawesome - https://fontawesome.com License - https://fontawesome.com/license (Commercial License) Copyright 2024 Fonticons, Inc.--><path class="fa-secondary" opacity=".4" d="M42.7 255.6l0 .4c0 60.3 0 90.5 18.7 109.3C71.9 375.8 86 380.4 107 382.4c-.3-11.9-.3-25.1-.3-39.6l0-64.6c-1.4 .6-2.8 1.2-4.1 1.8c-8.1 3.6-17.5 0-21.1-8s0-17.5 8-21.1c36.7-16.5 91.5-32.2 166.6-32.2s129.8 15.7 166.6 32.2c8.1 3.6 11.7 13.1 8 21.1s-13.1 11.7-21.1 8c-1.3-.6-2.7-1.2-4.1-1.8l0 64.6c0 14.5 0 27.6-.3 39.6c21-2 35.1-6.6 45.6-17.2c18.7-18.7 18.7-48.9 18.7-109.3s0-90.5-18.7-109.3S401.7 128 341.3 128l-170.7 0c-60.3 0-90.5 0-109.3 18.7c-18.7 18.7-18.7 48.8-18.7 108.9z"/><path class="fa-primary" d="M365.3 450.6C384 431.8 384 401.7 384 341.3l0-71.3c-31.5-10.7-73.8-19.4-128-19.4s-96.5 8.7-128 19.4v71.3c0 60.3 0 90.5 18.7 109.3s48.9 18.7 109.3 18.7s90.5 0 109.3-18.7zm0-389.2C346.5 42.7 316.3 42.7 256 42.7s-90.5 0-109.3 18.7C136.2 71.9 131.6 86 129.6 107c11.9-.3 25.1-.3 39.6-.3H342.8c14.5 0 27.6 0 39.6 .3c-2-21-6.6-35.1-17.2-45.6z"/></svg>