<svg xmlns="http://www.w3.org/2000/svg" viewBox="0 0 512 512"><!--!Font Awesome Pro 6.6.0 by @fontawesome - https://fontawesome.com License - https://fontawesome.com/license (Commercial License) Copyright 2024 Fonticons, Inc.--><path class="fa-secondary" opacity=".4" d="M42.7 256c0-80.5 0-120.7 25-145.7c24.9-24.9 65.1-25 145.2-25l.5 0 85.3 0c80.5 0 120.7 0 145.7 25c24.9 24.9 25 65.1 25 145.2l0 .5c0 80.5 0 120.7-25 145.7c-24.9 24.9-65.1 25-145.2 25l-.5 0-85.3 0c-80.5 0-120.7 0-145.7-25s-25-65.2-25-145.7zm48 21.3c0 2.7 .7 5.5 2.1 8c4.4 7.7 14.2 10.3 21.9 5.9l13-7.5 0 15c0 8.8 7.2 16 16 16s16-7.2 16-16l0-14.9 12.9 7.5c7.7 4.4 17.4 1.8 21.9-5.9s1.8-17.4-5.9-21.9l-13-7.5 12.9-7.5c7.7-4.4 10.3-14.2 5.9-21.9s-14.2-10.3-21.9-5.9l-12.9 7.5 0-14.9c0-8.8-7.2-16-16-16s-16 7.2-16 16l0 15-13-7.5c-7.7-4.4-17.4-1.8-21.9 5.9s-1.8 17.4 5.9 21.9l12.9 7.5-13 7.5c-5.1 3-8 8.3-8 13.9zm114.5-50.7c-4.4 7.7-1.8 17.4 5.9 21.9L224 256l-13 7.5c-7.7 4.4-10.3 14.2-5.9 21.9s14.2 10.3 21.9 5.9l13-7.5 0 15c0 8.8 7.2 16 16 16s16-7.2 16-16l0-14.9 12.9 7.5c7.7 4.4 17.4 1.8 21.9-5.9s1.8-17.4-5.9-21.9L288 256l12.9-7.5c7.7-4.4 10.3-14.2 5.9-21.9s-14.2-10.3-21.9-5.9L272 228.3l0-14.9c0-8.8-7.2-16-16-16s-16 7.2-16 16l0 15-13-7.5c-7.7-4.4-17.4-1.8-21.9 5.9zm112.4 0c-4.4 7.7-1.8 17.4 5.9 21.9l12.9 7.5-13 7.5c-7.7 4.4-10.3 14.2-5.9 21.9s14.2 10.3 21.9 5.9l13-7.5 0 15c0 8.8 7.2 16 16 16s16-7.2 16-16l0-14.9 12.9 7.5c7.7 4.4 17.4 1.8 21.9-5.9c1.5-2.5 2.1-5.3 2.1-8c0-5.5-2.9-10.9-8-13.9l-13-7.5 12.9-7.5c7.7-4.4 10.3-14.2 5.9-21.9s-14.2-10.3-21.9-5.9l-12.9 7.5 0-14.9c0-8.8-7.2-16-16-16s-16 7.2-16 16l0 15-13-7.5c-7.7-4.4-17.4-1.8-21.9 5.9z"/><path class="fa-primary" d="M272 213.3c0-8.8-7.2-16-16-16s-16 7.2-16 16v15l-13-7.5c-7.7-4.4-17.4-1.8-21.9 5.9s-1.8 17.4 5.9 21.9L224 256l-13 7.5c-7.7 4.4-10.3 14.2-5.9 21.9s14.2 10.3 21.9 5.9l13-7.5v15c0 8.8 7.2 16 16 16s16-7.2 16-16V283.7l12.9 7.5c7.7 4.4 17.4 1.8 21.9-5.9s1.8-17.4-5.9-21.9L288 256l12.9-7.5c7.7-4.4 10.3-14.2 5.9-21.9s-14.2-10.3-21.9-5.9L272 228.3V213.3zm-128.4-16c8.8 0 16 7.2 16 16v14.9l12.9-7.5c7.7-4.4 17.4-1.8 21.9 5.9s1.8 17.4-5.9 21.9L175.6 256l13 7.5c7.7 4.4 10.3 14.2 5.9 21.9s-14.2 10.3-21.9 5.9l-12.9-7.5v14.9c0 8.8-7.2 16-16 16s-16-7.2-16-16v-15l-13 7.5c-7.7 4.4-17.4 1.8-21.9-5.9s-1.8-17.4 5.9-21.9l13-7.5-12.9-7.5c-7.7-4.4-10.3-14.2-5.9-21.9s14.2-10.3 21.9-5.9l13 7.5v-15c0-8.8 7.2-16 16-16zm240.8 16c0-8.8-7.2-16-16-16s-16 7.2-16 16v15l-13-7.5c-7.7-4.4-17.4-1.8-21.9 5.9s-1.8 17.4 5.9 21.9l12.9 7.5-13 7.5c-7.7 4.4-10.3 14.2-5.9 21.9s14.2 10.3 21.9 5.9l13-7.5v15c0 8.8 7.2 16 16 16s16-7.2 16-16V283.7l12.9 7.5c7.7 4.4 17.4 1.8 21.9-5.9s1.8-17.4-5.9-21.9l-13-7.5 12.9-7.5c7.7-4.4 10.3-14.2 5.9-21.9s-14.2-10.3-21.9-5.9l-12.9 7.5V213.3z"/></svg>