<svg xmlns="http://www.w3.org/2000/svg" viewBox="0 0 512 512"><!--!Font Awesome Pro 6.5.2 by @fontawesome - https://fontawesome.com License - https://fontawesome.com/license (Commercial License) Copyright 2024 Fonticons, Inc.--><path class="fa-secondary" opacity=".4" d="M42.7 256c0-112.4 87-204.6 197.4-212.7c0 21.1 0 42.3 0 63.4c0 8.8 7.2 16 16 16s16-7.2 16-16l0-63.4C377 51 461 134.9 468.7 240l-63.4 0c-8.8 0-16 7.2-16 16s7.2 16 16 16l63.4 0c.4-5.3 .6-10.7 .6-16c0 112.4-87 204.6-197.4 212.7c0-42.5 0-21.6 0-63.4c0-8.8-7.2-16-16-16s-16 7.2-16 16l0 63.4C135 461 51 377.1 43.3 272l63.4 0c8.8 0 16-7.2 16-16s-7.2-16-16-16l-63.4 0c-.4 5.3-.6 10.7-.6 16zm154.7 0c0 8.8 7.2 16 16 16l26.7 0 0 26.7c0 8.8 7.2 16 16 16s16-7.2 16-16l0-26.7 26.7 0c8.8 0 16-7.2 16-16s-7.2-16-16-16L272 240l0-26.7c0-8.8-7.2-16-16-16s-16 7.2-16 16l0 26.7-26.7 0c-8.8 0-16 7.2-16 16zM256.2 42.7c-.3 0-.2 0 0 0z"/><path class="fa-primary" d="M197.3 256a16 16 0 0 1 16-16H240V213.3a16 16 0 0 1 32 0V240h26.7a16 16 0 0 1 0 32H272v26.7a16 16 0 0 1 -32 0V272H213.3a16 16 0 0 1 -16-16M43.3 272a216.3 216.3 0 0 1 0-32h63.4a16 16 0 0 1 0 32zM272 468.7a215.9 215.9 0 0 1 -32 0V405.3a16 16 0 0 1 32 0zM468.7 240a215.9 215.9 0 0 1 0 32H405.3a16 16 0 0 1 0-32zM272 43.3v63.4a16 16 0 0 1 -32 0V43.3a216.3 216.3 0 0 1 32 0"/></svg>