<svg xmlns="http://www.w3.org/2000/svg" viewBox="0 0 512 512"><!--!Font Awesome Pro 6.6.0 by @fontawesome - https://fontawesome.com License - https://fontawesome.com/license (Commercial License) Copyright 2024 Fonticons, Inc.--><path class="fa-secondary" opacity=".4" d="M42.7 234.7l0 42.7c0 6.6 0 12.9 0 18.9c0 1 0 2 0 3c0 2.3 0 4.8 .1 7.5c.3 57.1 2.8 89.9 20.8 111.7c1.3 1.6 2.6 3.1 4.1 4.5c22.4 22.4 57 24.7 121.9 25c7.5 0 15.4 0 23.8 0l85.3 0 .5 0c14.3 0 27.3 0 39.1-.1c-24.5-.5-38.8-2.7-48.4-12.4c-12.5-12.5-12.5-32.5-12.5-72.6l0-.2c0-40.2 0-60.3 12.5-72.8c12.5-12.5 32.5-12.5 72.6-12.5l.2 0 21.3 0c40.2 0 60.3 0 72.8 12.5c8.4 8.4 11.2 20.2 12.1 39.3c.4-15.1 .4-32.3 .4-51.8l0-42.7c0-6.6 0-12.9 0-18.9c0-1 0-2 0-3c0-2.3 0-4.8-.1-7.5c-.3-57.1-2.8-89.9-20.8-111.7c-1.3-1.6-2.6-3.1-4.1-4.5c-25-25-65.2-25-145.7-25l-85.3 0-.5 0C132.7 64 92.6 64 67.7 89c-25 25-25 65.2-25 145.7z"/><path class="fa-primary" d="M277.3 362.7c0-40.2 0-60.3 12.5-72.8s32.6-12.5 72.8-12.5H384c40.2 0 60.3 0 72.8 12.5s12.5 32.6 12.5 72.8s0 60.3-12.5 72.8S424.2 448 384 448H362.7c-40.2 0-60.3 0-72.8-12.5s-12.5-32.6-12.5-72.8z"/></svg>