<svg xmlns="http://www.w3.org/2000/svg" viewBox="0 0 512 512"><!--!Font Awesome Pro 6.6.0 by @fontawesome - https://fontawesome.com License - https://fontawesome.com/license (Commercial License) Copyright 2024 Fonticons, Inc.--><path class="fa-secondary" opacity=".4" d="M26.7 330.7c0-8.8 7.2-16 16-16c.1 0 .2 0 .3 0c-.3 7.5-.3 16.4-.3 27.1l0 37.3c0 3.6 0 7 0 10.2c-8.9 0-16-7.2-16-16l0-42.7zM48 256C48 141.1 141.1 48 256 48s208 93.1 208 208l0 31.8c-.5-1.1-1.1-2.2-1.7-3.2c-3.6-5.9-8.4-11-14.1-14.9c-4.5-3.1-9.6-5.2-16.2-6.8l0-6.9c0-97.2-78.8-176-176-176S80 158.8 80 256l0 6.9c-6.5 1.6-11.7 3.7-16.2 6.8c-5.7 4-10.5 9.1-14.1 14.9c-.6 1-1.2 2.1-1.7 3.2L48 256zm421 58.7c.1 0 .2 0 .3 0c8.8 0 16 7.2 16 16l0 42.7c0 8.8-7.1 16-16 16c0-3.2 0-6.6 0-10.2l0-37.1c0-10.9 0-19.8-.3-27.3z"/><path class="fa-primary" d="M170.7 299.7c0-18.1 0-27.2-4.5-33.5c-2.3-3.2-5.2-5.8-8.7-7.7c-6.9-3.7-16.3-2.8-35-1.1c-31.5 2.9-47.3 4.3-58.6 12.2c-5.7 4-10.5 9.1-14.1 14.9c-7.1 11.6-7.1 26.9-7.1 57.4v37.1c0 30.2 0 45.3 7.2 57c2.7 4.4 6.1 8.3 10 11.7c10.6 9 26 11.8 56.8 17.4c21.7 4 32.5 5.9 40.5 1.8c3-1.5 5.6-3.6 7.7-6.1c5.7-6.8 5.7-17.4 5.7-38.7V299.7zm170.7 0c0-18.1 0-27.2 4.5-33.5c2.3-3.2 5.2-5.8 8.7-7.7c6.9-3.7 16.3-2.8 35-1.1c31.5 2.9 47.3 4.3 58.6 12.2c5.7 4 10.5 9.1 14.1 14.9c7.1 11.6 7.1 26.9 7.1 57.4v37.1c0 30.2 0 45.3-7.2 57c-2.7 4.4-6.1 8.3-10 11.7c-10.6 9-26 11.8-56.8 17.4c-21.7 4-32.5 5.9-40.5 1.8c-3-1.5-5.6-3.6-7.7-6.1c-5.7-6.8-5.7-17.4-5.7-38.7V299.7z"/></svg>