<svg xmlns="http://www.w3.org/2000/svg" viewBox="0 0 512 512"><!--!Font Awesome Pro 6.6.0 by @fontawesome - https://fontawesome.com License - https://fontawesome.com/license (Commercial License) Copyright 2024 Fonticons, Inc.--><path class="fa-secondary" opacity=".4" d="M197.3 426.7c0 7.1 4.7 13.5 11.9 15.5c1.4 .4 2.8 .5 4.1 .5c7.1 0 13.5-4.7 15.5-11.9l85.1-320c.4-1.4 .5-2.8 .5-4.1c0-7.1-4.7-13.5-11.9-15.5c-1.4-.4-2.8-.5-4.1-.5c-7.1 0-13.5 4.7-15.5 11.9l-85.1 320c-.4 1.4-.5 2.8-.5 4.1z"/><path class="fa-primary" d="M181.4 114.9c6.6-5.9 7.1-16 1.2-22.6s-16-7.1-22.6-1.2l-37.1 33.4c-15.7 14.1-28.7 25.9-37.7 36.5c-9.4 11.2-16.1 23.2-16.1 38s6.7 26.9 16.1 38c8.9 10.6 22 22.4 37.7 36.5L160 306.9c6.6 5.9 16.7 5.4 22.6-1.2s5.4-16.7-1.2-22.6l-36.2-32.6c-16.8-15.1-28.1-25.4-35.5-34.1c-7-8.4-8.6-13.3-8.6-17.4s1.5-9.1 8.6-17.4c7.3-8.7 18.7-19 35.5-34.1l36.2-32.6zM329.4 224c5.9-6.6 16-7.1 22.6-1.2l37.1 33.4c15.7 14.1 28.7 25.9 37.7 36.5c9.4 11.2 16.1 23.2 16.1 38s-6.7 26.9-16.1 38c-8.9 10.6-22 22.4-37.7 36.5L352 438.6c-6.6 5.9-16.7 5.4-22.6-1.2s-5.4-16.7 1.2-22.6l36.2-32.6c16.8-15.1 28.1-25.4 35.5-34.1c7-8.4 8.6-13.3 8.6-17.4s-1.5-9.1-8.6-17.4c-7.3-8.7-18.7-19-35.5-34.1l-36.2-32.6c-6.6-5.9-7.1-16-1.2-22.6z"/></svg>