<svg xmlns="http://www.w3.org/2000/svg" viewBox="0 0 512 512"><!--!Font Awesome Pro 6.6.0 by @fontawesome - https://fontawesome.com License - https://fontawesome.com/license (Commercial License) Copyright 2024 Fonticons, Inc.--><path class="fa-secondary" opacity=".4" d="M42.7 256a213.3 213.3 0 1 0 426.7 0A213.3 213.3 0 1 0 42.7 256zM176 256c0-8.8 7.2-16 16-16l5.3 0 0-65.9c0-3.1 0-6.3 .5-9.3c2.5-16 15.1-28.5 31-31c3-.5 6.2-.5 9.3-.5l49.9 0c38.3 0 69.3 31 69.3 69.3s-31 69.3-69.3 69.3l-58.7 0 0 10.7 26.7 0c8.8 0 16 7.2 16 16s-7.2 16-16 16l-26.7 0 0 48c0 8.8-7.2 16-16 16s-16-7.2-16-16l0-48-5.3 0c-8.8 0-16-7.2-16-16s7.2-16 16-16l5.3 0 0-10.7-5.3 0c-8.8 0-16-7.2-16-16zm53.4-86.2c0 .1 0 .3 0 .9c0 .9 0 2.2 0 4.2l0 65.1 58.7 0c20.6 0 37.3-16.7 37.3-37.3s-16.7-37.3-37.3-37.3l-49.1 0c-2.1 0-3.3 0-4.2 0c-.6 0-.8 0-.9 0c-2.3 .4-4 2.1-4.4 4.4z"/><path class="fa-primary" d="M192 282.7c-8.8 0-16 7.2-16 16s7.2 16 16 16l5.3 0 0 48c0 8.8 7.2 16 16 16s16-7.2 16-16l0-48 26.7 0c8.8 0 16-7.2 16-16s-7.2-16-16-16l-26.7 0 0-10.7 58.7 0c38.3 0 69.3-31 69.3-69.3s-31-69.3-69.3-69.3l-49.9 0c-3.1 0-6.3 0-9.3 .5c-16 2.5-28.5 15.1-31 31c-.5 3-.5 6.2-.5 9.3l0 65.9-5.3 0c-8.8 0-16 7.2-16 16s7.2 16 16 16l5.3 0 0 10.7-5.3 0zM288 240l-58.7 0 0-65.1c0-2.1 0-3.3 0-4.2c0-.6 0-.8 0-.9c.4-2.3 2.1-4 4.4-4.4c.1 0 .3 0 .9 0c.9 0 2.2 0 4.2 0l49.1 0c20.6 0 37.3 16.7 37.3 37.3s-16.7 37.3-37.3 37.3z"/></svg>