<svg xmlns="http://www.w3.org/2000/svg" viewBox="0 0 512 512"><!--!Font Awesome Pro 6.6.0 by @fontawesome - https://fontawesome.com License - https://fontawesome.com/license (Commercial License) Copyright 2024 Fonticons, Inc.--><path class="fa-secondary" opacity=".4" d="M170.7 224l0 64 170.7 0 0-64-170.7 0z"/><path class="fa-primary" d="M469.3 213.3l0 85.3c0 19.9 0 29.8-3.2 37.7c-4.3 10.5-12.6 18.8-23.1 23.1c-7.8 3.2-17.8 3.2-37.7 3.2s-29.8 0-37.7-3.2c-10.5-4.3-18.8-12.6-23.1-23.1c-3.2-7.8-3.2-28.4-3.2-48.3l0-64c0-19.9 0-40.5 3.2-48.3c4.3-10.5 12.6-18.8 23.1-23.1c7.8-3.2 17.8-3.2 37.7-3.2s29.8 0 37.7 3.2c10.5 4.3 18.8 12.6 23.1 23.1c3.2 7.8 3.2 17.8 3.2 37.7zM170.7 224l0 64c0 19.9 0 40.5-3.2 48.3c-4.3 10.5-12.6 18.8-23.1 23.1c-7.8 3.2-17.8 3.2-37.7 3.2s-29.8 0-37.7-3.2c-10.5-4.3-18.8-12.6-23.1-23.1c-3.2-7.8-3.2-17.8-3.2-37.7l0-85.3c0-19.9 0-29.8 3.2-37.7c4.3-10.5 12.6-18.8 23.1-23.1c7.8-3.2 17.8-3.2 37.7-3.2s29.8 0 37.7 3.2c10.5 4.3 18.8 12.6 23.1 23.1c3.2 7.8 3.2 28.4 3.2 48.3z"/></svg>