<svg xmlns="http://www.w3.org/2000/svg" viewBox="0 0 512 512"><!--!Font Awesome Pro 6.6.0 by @fontawesome - https://fontawesome.com License - https://fontawesome.com/license (Commercial License) Copyright 2024 Fonticons, Inc.--><path class="fa-secondary" opacity=".4" d="M26.7 272.8c0 117.4 95.1 212.5 212.5 212.5c95.2 0 175.7-62.6 202.8-148.8c2.6-8.4-2-17.4-10.5-20.1s-17.4 2-20.1 10.5c-23 73.2-91.4 126.3-172.2 126.3c-99.7 0-180.5-80.8-180.5-180.5c0-80.8 53.1-149.2 126.3-172.2c8.4-2.6 13.1-11.6 10.5-20.1c-2.1-6.8-8.5-11.2-15.3-11.2c-1.6 0-3.2 .2-4.8 .7C89.2 97.1 26.7 177.7 26.7 272.8z"/><path class="fa-primary" d="M467.5 212.2c-22.6-81.1-86.6-145-167.7-167.7c-35.1-9.8-65.1 20.6-65.1 57V244.4c0 18.2 14.8 33 33 33H410.4c36.4 0 66.8-30.1 57-65.1z"/></svg>