<svg xmlns="http://www.w3.org/2000/svg" viewBox="0 0 512 512"><!--!Font Awesome Pro 6.6.0 by @fontawesome - https://fontawesome.com License - https://fontawesome.com/license (Commercial License) Copyright 2024 Fonticons, Inc.--><path class="fa-secondary" opacity=".4" d="M42.8 343.5c.5 30.1 7.6 63.4 34.7 76.4c8.5 4.1 18.4 6.7 29.7 6.7c13.6 0 24.3-3.9 32.7-9.3c8.7-5.7 16.4-13.1 24.1-20.6c9.5-9.2 19-18.3 30.4-24.3c12.5-6.5 26.3-9.8 40.3-9.8l42.6 0c14 0 27.9 3.4 40.3 9.8c11.4 5.9 20.9 15.1 30.4 24.3c7.7 7.4 15.4 14.9 24.1 20.6c8.3 5.5 19.1 9.3 32.7 9.3c11.3 0 21.2-2.7 29.7-6.7c27.2-13 34.2-46.3 34.7-76.4c2.5-149.5-32.4-215.4-83.3-233.4c-8.1-2.9-16.8-3.4-25.5-3.4l-13.1 0c-18.7 0-37 5.8-52.3 16.6l-10.7 7.6c-8.3 5.9-18.3 9-28.4 9s-20.1-3.2-28.4-9l-10.7-7.6c-15.3-10.8-33.5-16.6-52.3-16.6l-13.1 0c-8.6 0-17.3 .5-25.5 3.4c-50.8 18-85.8 83.9-83.3 233.4zM112 245.3c0-8.8 7.2-16 16-16l16 0 0-16c0-8.8 7.2-16 16-16s16 7.2 16 16l0 16 16 0c8.8 0 16 7.2 16 16s-7.2 16-16 16l-16 0 0 16c0 8.8-7.2 16-16 16s-16-7.2-16-16l0-16-16 0c-8.8 0-16-7.2-16-16zM341.3 240a16 16 0 1 1 -32 0 16 16 0 1 1 32 0zm32-32a16 16 0 1 1 -32 0 16 16 0 1 1 32 0zm0 64a16 16 0 1 1 -32 0 16 16 0 1 1 32 0zm32-32a16 16 0 1 1 -32 0 16 16 0 1 1 32 0z"/><path class="fa-primary" d="M357.3 224a16 16 0 1 1 0-32 16 16 0 1 1 0 32zM160 197.3c8.8 0 16 7.2 16 16v16h16c8.8 0 16 7.2 16 16s-7.2 16-16 16H176v16c0 8.8-7.2 16-16 16s-16-7.2-16-16v-16H128c-8.8 0-16-7.2-16-16s7.2-16 16-16h16v-16c0-8.8 7.2-16 16-16zM373.3 240a16 16 0 1 1 32 0 16 16 0 1 1 -32 0zm-48 16a16 16 0 1 0 0-32 16 16 0 1 0 0 32zm48 16a16 16 0 1 0 -32 0 16 16 0 1 0 32 0z"/></svg>