<svg xmlns="http://www.w3.org/2000/svg" viewBox="0 0 512 512"><!--!Font Awesome Pro 6.6.0 by @fontawesome - https://fontawesome.com License - https://fontawesome.com/license (Commercial License) Copyright 2024 Fonticons, Inc.--><path class="fa-secondary" opacity=".4" d="M64 185.6c0-31.3 0-46.9 8.4-56.1c3-3.3 6.6-5.9 10.6-7.7c11.3-5 26.3-.1 56.1 9.9c22.8 7.6 34.2 11.4 45.7 11c2.4-.1 4.9-.3 7.3-.7l0 298.7c-.3 .1-.6 .1-1 .1c-2.2 .3-4.3 .4-6.5 .4c-12.8 0-27-4.8-51.9-13l-24.8-8.3c-21.1-7-31.7-10.6-37.7-18.9s-6-19.5-6-41.8l0-173.4 0-.2zM320 71.3c.2 0 .3 0 .5-.1s.3 0 .5-.1c14.7-2 29.3 2.9 58.4 12.6l24.8 8.3c21.1 7 31.7 10.6 37.7 18.9s6 19.5 6 41.8l0 173.4c0 31.5 0 47.2-8.4 56.3c-3 3.3-6.6 5.9-10.6 7.7c-11.3 5-26.3 .1-56.1-9.9c-22.8-7.6-34.2-11.4-45.7-11c-2.4 .1-4.9 .3-7.3 .7l0-298.7z"/><path class="fa-primary" d="M197.3 141c-1.7 .4-3.5 .7-5.3 1V440.7c14.3-2.2 27.1-10.7 52.1-27.4l29.5-19.7c20-13.3 30-20 41.2-22.6c1.7-.4 3.5-.8 5.3-1V71.3c-14.3 2.2-27.1 10.7-52.1 27.4l-29.5 19.7c-20 13.3-30 20-41.2 22.6zM372.9 380.3c1.9 .6 3.7 1.2 5.4 1.8z"/></svg>