<svg xmlns="http://www.w3.org/2000/svg" viewBox="0 0 512 512"><!--!Font Awesome Pro 6.6.0 by @fontawesome - https://fontawesome.com License - https://fontawesome.com/license (Commercial License) Copyright 2024 Fonticons, Inc.--><path class="fa-secondary" opacity=".4" d="M42.7 278.9l0 .2 0 59.7c0 61.5 0 92.3 18.7 111.4s48.9 19.1 109.3 19.1l170.7 0c60.3 0 90.5 0 109.3-19.1s18.7-49.9 18.7-111.4l0-120.6c0-83.8 0-125.7-27-145.2s-65.7-5.7-143.3 22c-21.3 7.6-42.7 15.2-64 22.8L128.4 156c-8 2.8-15.2 5.4-21.7 7.8C79.3 174 64 181.5 54.5 195.1c-11.8 16.9-11.8 39.2-11.8 83.8zM159.4 202c6.2-6.2 16.4-6.2 22.6 0l32 32c.8 .8 1.5 1.7 2.1 2.6c9.3-2 21.9-2 39.9-2c17.7 0 30.3 0 39.5 1.9L330 202c6.2-6.2 16.4-6.2 22.6 0c3.1 3.1 4.7 7.2 4.7 11.3s-1.6 8.2-4.7 11.3l-34.5 34.6c1.9 9.2 1.9 21.7 1.9 39.5s0 30.3-1.9 39.5l34.5 34.6c3.1 3.1 4.7 7.2 4.7 11.3s-1.6 8.2-4.7 11.3s-7.2 4.7-11.3 4.7s-8.2-1.6-11.3-4.7l-34.6-34.5c-9.2 1.9-21.7 1.9-39.5 1.9s-30.3 0-39.5-1.9L182 395.3c-3.1 3.1-7.2 4.7-11.3 4.7s-8.2-1.6-11.3-4.7c-6.2-6.2-6.2-16.4 0-22.6l34.6-34.6c-1.9-9.2-1.9-21.7-1.9-39.5c0-18 0-30.6 2-39.9c-.9-.6-1.8-1.3-2.6-2.1l-32-32c-6.2-6.2-6.2-16.4 0-22.6z"/><path class="fa-primary" d="M235 118l-1.5-6.3c-3.2-12.3-12.6-21.9-24.7-25.2c-4.4-1.2-9.9-1.2-20.7-1.2H170.7c-27.3 0-40.9 0-50.3 7.4c-2.4 1.9-4.6 4.1-6.4 6.6c-7.2 9.6-7.2 23.5-7.2 51.4v13.2c6.5-2.4 13.7-5 21.7-7.8L235 118zm-75.7 84c-6.2 6.2-6.2 16.4 0 22.6l32 32c.8 .8 1.7 1.5 2.6 2.1c-2 9.3-2 21.9-2 39.9c0 17.7 0 30.3 1.9 39.5l-34.6 34.6c-6.2 6.2-6.2 16.4 0 22.6s16.4 6.2 22.6 0l34.6-34.5c9.2 1.9 21.7 1.9 39.5 1.9s30.3 0 39.5-1.9L330 395.3c6.2 6.2 16.4 6.2 22.6 0s6.2-16.4 0-22.6l-34.5-34.6c1.9-9.2 1.9-21.7 1.9-39.5s0-30.3-1.9-39.5l34.5-34.6c6.2-6.2 6.2-16.4 0-22.6s-16.4-6.2-22.6 0l-34.6 34.5c-9.2-1.9-21.7-1.9-39.5-1.9c-18 0-30.6 0-39.9 2c-.6-.9-1.3-1.8-2.1-2.6l-32-32c-6.2-6.2-16.4-6.2-22.6 0z"/></svg>