<svg xmlns="http://www.w3.org/2000/svg" viewBox="0 0 512 512"><!--!Font Awesome Pro 6.6.0 by @fontawesome - https://fontawesome.com License - https://fontawesome.com/license (Commercial License) Copyright 2024 Fonticons, Inc.--><path class="fa-secondary" opacity=".4" d="M85.3 216.4c0 95.2 54.5 206.3 139.5 246c9.9 4.6 20.6 6.9 31.2 6.9s21.3-2.3 31.2-6.9c85-39.7 139.5-150.8 139.5-246c0-95.9-76.4-173.7-170.7-173.7s-170.7 77.8-170.7 173.7zm80-45.7c0-11.4 7.1-21.7 18.7-25.9l50-18.3c7.1-2.6 14.6-3.9 22-3.9s15 1.3 22 3.9l50 18.3c11.5 4.2 18.7 14.5 18.7 25.9s-7.1 21.7-18.7 25.9l-2.7 1 0 52.1c0 14.4-8.4 28.3-23.1 33.7c-11.2 4.1-29.7 10-46.3 10s-35.1-5.8-46.3-10c-14.7-5.4-23.1-19.4-23.1-33.7l0-52.1-2.7-1c-11.5-4.2-18.7-14.5-18.7-25.9zm41.1 0l38.5 14.1c7.1 2.6 15.1 2.6 22.1 0l38.5-14.1-38.5-14.1c-7.1-2.6-15.1-2.6-22.1 0l-38.5 14.1zm12.2 38.5l0 40.4c0 2.2 1.2 3.4 2.1 3.7c10.7 3.9 24.6 8 35.2 8s24.5-4.1 35.2-8c.9-.3 2.1-1.5 2.1-3.7l0-40.4L278 214.8c-14.2 5.2-29.9 5.2-44.1 0l-15.3-5.6z"/><path class="fa-primary" d="M278 126.5c-14.2-5.2-29.9-5.2-44.1 0l-50 18.3c-11.5 4.2-18.7 14.5-18.7 25.9s7.1 21.7 18.7 25.9l2.7 1 0 52.1c0 14.4 8.4 28.3 23.1 33.7c11.2 4.1 29.7 10 46.3 10s35.1-5.8 46.3-10c14.6-5.4 23.1-19.4 23.1-33.7l0-52.1 2.7-1c11.5-4.2 18.7-14.5 18.7-25.9s-7.1-21.7-18.7-25.9l-50-18.3zm-59.4 82.7l15.3 5.6c14.2 5.2 29.9 5.2 44.1 0l15.3-5.6 0 40.4c0 2.2-1.2 3.4-2.1 3.7c-10.7 3.9-24.6 8-35.2 8s-24.5-4.1-35.2-8c-.9-.3-2.1-1.5-2.1-3.7l0-40.4zm48.4-52.6l38.5 14.1-38.5 14.1c-7.1 2.6-15.1 2.6-22.1 0l-38.5-14.1 38.5-14.1c7.1-2.6 15.1-2.6 22.1 0z"/></svg>