<svg xmlns="http://www.w3.org/2000/svg" viewBox="0 0 512 512"><!--!Font Awesome Pro 6.6.0 by @fontawesome - https://fontawesome.com License - https://fontawesome.com/license (Commercial License) Copyright 2024 Fonticons, Inc.--><path class="fa-secondary" opacity=".4" d="M85.3 277.3c14.2 0 28.4 0 42.7 0l0 148.1c0 12.5 10.1 22.6 22.6 22.6l148.1 0c47.1 0 85.3-38.2 85.3-85.3s-38.2-85.3-85.3-85.3l-41.6 0c33.4-.3 63.8-13.4 86.5-34.6c48.6 18.2 83.2 65 83.2 119.9c0 70.7-57.3 128-128 128l-148.1 0c-36 0-65.3-29.2-65.3-65.3l0-148.1z"/><path class="fa-primary" d="M85.3 98.3c0-42.5 34.5-77 77-77l93.7 0c70.7 0 128 57.3 128 128s-57.3 128-128 128l-170.7 0 0-179zm77-34.3c-19 0-34.3 15.4-34.3 34.3l0 136.3 128 0c47.1 0 85.3-38.2 85.3-85.3s-38.2-85.3-85.3-85.3l-93.7 0z"/></svg>