<svg xmlns="http://www.w3.org/2000/svg" viewBox="0 0 512 512"><!--!Font Awesome Pro 6.6.0 by @fontawesome - https://fontawesome.com License - https://fontawesome.com/license (Commercial License) Copyright 2024 Fonticons, Inc.--><path class="fa-secondary" opacity=".4" d="M191.5 236.2l0 39.7c0 14.5 0 23.8 1 30.7c.9 6.5 2.3 8.5 3.4 9.6s3.2 2.5 9.6 3.4c6.9 .9 16.2 1 30.7 1l39.7 0c14.5 0 23.8 0 30.7-1c6.5-.9 8.5-2.3 9.6-3.4s2.5-3.2 3.4-9.6c.9-6.9 1-16.2 1-30.7l0-39.7c0-14.5 0-23.8-1-30.7c-.9-6.5-2.3-8.5-3.4-9.6s-3.2-2.5-9.6-3.4c-6.9-.9-16.2-1-30.7-1l-39.7 0c-14.5 0-23.8 0-30.7 1c-6.5 .9-8.5 2.3-9.6 3.4s-2.5 3.2-3.4 9.6c-.9 6.9-1 16.2-1 30.7zm31.4 26.6c-2.6-5-2.1-10.9 1.1-15.5l28.3-39.7c4.8-6.7 14.1-8.2 20.8-3.5s8.2 14.1 3.5 20.8l-11.5 16.2 10.8 0c5.6 0 10.7 3.1 13.2 8.1s2.1 10.9-1.1 15.5l-28.3 39.7c-4.8 6.7-14.1 8.2-20.8 3.5s-8.2-14.1-3.5-20.8l11.5-16.2-10.8 0c-5.6 0-10.7-3.1-13.2-8.1z"/><path class="fa-primary" d="M270.9 57.6c0-8.2-6.7-14.9-14.9-14.9s-14.9 6.7-14.9 14.9l0 59.5c-10.9 0-20.8 .1-29.8 .4l0-.4 0-59.5c0-8.2-6.7-14.9-14.9-14.9s-14.9 6.7-14.9 14.9l0 59.5c0 .8 .1 1.5 .2 2.3c-20 2.5-33.8 7.5-44.3 18.1s-15.6 24.4-18.1 44.3c-.7-.1-1.5-.2-2.3-.2l-59.5 0c-8.2 0-14.9 6.7-14.9 14.9s6.7 14.9 14.9 14.9l59.5 0 .4 0c-.2 9-.3 18.9-.3 29.8l-59.5 0c-8.2 0-14.9 6.7-14.9 14.9s6.7 14.9 14.9 14.9l59.5 0c0 10.9 .1 20.8 .4 29.8l-.4 0-59.5 0c-8.2 0-14.9 6.7-14.9 14.9s6.7 14.9 14.9 14.9l59.5 0c.8 0 1.5-.1 2.3-.2c2.5 20 7.5 33.8 18.1 44.3s24.4 15.6 44.3 18.1c-.1 .7-.2 1.5-.2 2.3l0 59.5c0 8.2 6.7 14.9 14.9 14.9s14.9-6.7 14.9-14.9l0-59.5 0-.4c9 .2 18.9 .3 29.8 .3l0 59.5c0 8.2 6.7 14.9 14.9 14.9s14.9-6.7 14.9-14.9l0-59.5c10.9 0 20.8-.1 29.8-.4l0 .4 0 59.5c0 8.2 6.7 14.9 14.9 14.9s14.9-6.7 14.9-14.9l0-59.5c0-.8-.1-1.5-.2-2.3c20-2.5 33.8-7.5 44.3-18.1s15.6-24.4 18.1-44.3c.7 .1 1.5 .2 2.3 .2l59.5 0c8.2 0 14.9-6.7 14.9-14.9s-6.7-14.9-14.9-14.9l-59.5 0-.4 0c.2-9 .3-18.9 .3-29.8l59.5 0c8.2 0 14.9-6.7 14.9-14.9s-6.7-14.9-14.9-14.9l-59.5 0c0-10.9-.1-20.8-.4-29.8l.4 0 59.5 0c8.2 0 14.9-6.7 14.9-14.9s-6.7-14.9-14.9-14.9l-59.5 0c-.8 0-1.5 .1-2.3 .2c-2.5-20-7.5-33.8-18.1-44.3s-24.4-15.6-44.3-18.1c.1-.7 .2-1.5 .2-2.3l0-59.5c0-8.2-6.7-14.9-14.9-14.9s-14.9 6.7-14.9 14.9l0 59.5 0 .4c-9-.2-18.9-.3-29.8-.3l0-59.5zM201.5 163c9.1-1.2 20.5-1.2 33.7-1.2l41.7 0c13.2 0 24.6 0 33.7 1.2c9.8 1.3 19.1 4.3 26.7 11.9s10.5 16.9 11.9 26.7c1.2 9.1 1.2 20.5 1.2 33.7l0 41.7c0 13.2 0 24.6-1.2 33.7c-1.3 9.8-4.3 19.1-11.9 26.7s-16.9 10.5-26.7 11.9c-9.1 1.2-20.5 1.2-33.7 1.2l-41.7 0c-13.2 0-24.6 0-33.7-1.2c-9.8-1.3-19.1-4.3-26.7-11.9s-10.5-16.9-11.9-26.7c-1.2-9.1-1.2-20.5-1.2-33.7l0-41.7c0-13.2 0-24.6 1.2-33.7c1.3-9.8 4.3-19.1 11.9-26.7s16.9-10.5 26.7-11.9zm75.1 62c4.8-6.7 3.2-16-3.5-20.8s-16-3.2-20.8 3.5L224 247.3c-3.2 4.5-3.7 10.5-1.1 15.5s7.7 8.1 13.2 8.1h10.8L235.4 287c-4.8 6.7-3.2 16 3.5 20.8s16 3.2 20.8-3.5L288 264.6c3.2-4.5 3.7-10.5 1.1-15.5s-7.7-8.1-13.2-8.1H265.1L276.6 225z"/></svg>