<svg xmlns="http://www.w3.org/2000/svg" viewBox="0 0 512 512"><!--!Font Awesome Pro 6.5.2 by @fontawesome - https://fontawesome.com License - https://fontawesome.com/license (Commercial License) Copyright 2024 Fonticons, Inc.--><path class="fa-secondary" opacity=".4" d="M42.7 240l0 131.1c0 30.7 21.3 55.6 47.6 55.6l112.4 0 32 0 53.3 0 32 0 102.3 0c26 0 47.1-24.6 47.1-54.9l0-131.7c0-38.7-16.8-72.7-42.3-92.9c-8.3-.4-16.4-2.2-24.2-5.3c-8.4-3.4-17.6-4.2-26.5-2.5l-5.5 1.1 0 78.8c.1 4-1.4 7.9-4.2 10.7s-6.6 4.5-10.6 4.6c-8.1 0-14.8-6.9-14.8-15.3l0-91.3-202.7 0c-53 0-96 50.1-96 112zm48 101.3c0-8.8 7.2-16 16-16l64 0c8.8 0 16 7.2 16 16s-7.2 16-16 16l-64 0c-8.8 0-16-7.2-16-16z"/><path class="fa-primary" d="M202.7 426.7v42.7a16 16 0 0 0 32 0v-42.7zm117.3 0h-32v42.7a16 16 0 0 0 32 0zM90.7 341.3c0 8.8 7.2 16 16 16l64 0c8.8 0 16-7.2 16-16s-7.2-16-16-16l-64 0c-8.8 0-16 7.2-16 16zM370.9 140.5l5.5-1.1c8.9-1.8 18.1-.9 26.5 2.5c14.7 5.9 30.8 7 46.2 3.2l1.3-.3c11.2-2.8 19.1-13.2 19.1-25.1l0-45.4c0-15.7-14.2-27.3-28.9-23.7c-8.4 2.1-17.3 1.5-25.5-1.7l-1.6-.6c-13.5-5.4-28.4-6.8-42.7-3.9L361.2 46c-11.5 2.3-19.8 12.8-19.8 25l0 148.3c0 8.5 6.6 15.3 14.8 15.3c4-.1 7.8-1.7 10.6-4.6s4.3-6.7 4.2-10.7z"/></svg>