<svg xmlns="http://www.w3.org/2000/svg" viewBox="0 0 512 512"><!--!Font Awesome Pro 6.6.0 by @fontawesome - https://fontawesome.com License - https://fontawesome.com/license (Commercial License) Copyright 2024 Fonticons, Inc.--><path class="fa-secondary" opacity=".4" d="M441.7 207.9c3 8.3-1.3 17.5-9.7 20.5l-5.4-15.1 5.4 15.1s0 0 0 0s0 0 0 0l-.1 0-.2 .1-.7 .2c-.6 .2-1.4 .5-2.4 .8c-2.1 .6-5.1 1.5-9 2.6c-7.8 2.1-19.4 4.9-34.6 7.6c-30.4 5.5-75.5 10.9-135 10.9s-101.7-5.4-129.4-11c-13.8-2.8-24-5.6-30.9-7.8c-3.4-1.1-6-2-7.9-2.7c-.9-.3-1.6-.6-2.1-.8l-.6-.3-.2-.1-.1 0c0 0 0 0 0 0c0 0 0 0 6.5-14.6l-6.5 14.6c-8.1-3.6-11.7-13.1-8.1-21.1c3.6-8 13-11.7 21.1-8.1zM91.8 198.7l.2 .1c.2 .1 .7 .3 1.3 .5c1.3 .5 3.3 1.2 6.2 2.1c5.7 1.8 14.8 4.3 27.5 6.9c25.5 5.1 65.6 10.4 123.1 10.4s100.7-5.2 129.3-10.4c14.3-2.6 25-5.2 31.9-7c3.5-.9 6.1-1.7 7.7-2.2c.8-.3 1.4-.5 1.8-.6l.4-.1 5 13.9c-5-13.9-5-13.9-5-13.9c8.3-3 17.5 1.3 20.5 9.7zm84.7 127.7c-8.2-3.2-17.4 .8-20.7 9c-3.3 8.2 .7 17.5 9 20.8l5.9-14.9c-5.9 14.9-5.9 14.9-5.9 14.9s0 0 0 0s0 0 0 0c0 0 0 0 .1 0l.1 .1 .4 .2c.3 .1 .8 .3 1.3 .5c1.1 .4 2.6 .9 4.6 1.4c3.9 1.1 9.6 2.6 17.1 4c15 2.9 37.4 5.6 67.6 5.6s52.6-2.8 67.6-5.6c7.5-1.4 13.2-2.9 17.1-4c2-.6 3.5-1.1 4.6-1.4c.5-.2 1-.3 1.3-.5l.4-.2 .1-.1 .1 0s0 0 0 0s0 0 0 0l-5.9-14.9 5.9 14.9c8.2-3.3 12.2-12.6 9-20.8c-3.3-8.2-12.5-12.2-20.7-9c0 0 0 0 0 0s0 0 0 0s0 0 0 0zm159 0c-.1 0-.3 .1-.6 .2c-.6 .2-1.6 .5-3.1 1c-2.9 .9-7.6 2.1-14.1 3.3c-13 2.5-33.3 5.1-61.6 5.1s-48.6-2.6-61.6-5.1c-6.5-1.2-11.2-2.5-14.1-3.3c-1.5-.4-2.5-.8-3.1-1c-.3-.1-.5-.2-.6-.2zm0 0s0 0 0 0s0 0 0 0z"/><path class="fa-primary" d="M92 138.7c7.8-2.4 18.2-4.7 30.9-6.8c33.6-5.6 80.7-9.2 133.1-9.2c8.8 0 16-7.2 16-16s-7.2-16-16-16c-53.6 0-102.5 3.6-138.4 9.6c-17.8 3-33.1 6.6-44.4 11.1c-5.5 2.2-11 4.9-15.4 8.5c-4.2 3.4-9.8 9.7-9.8 18.9s5.6 15.4 9.8 18.9c4.4 3.6 9.9 6.3 15.4 8.5c11.2 4.4 26.6 8.1 44.4 11.1c35.9 6 84.8 9.6 138.4 9.6s102.5-3.6 138.4-9.6c17.8-3 33.1-6.6 44.4-11.1c5.5-2.2 11-4.9 15.4-8.5c4.2-3.4 9.8-9.7 9.8-18.9c0-11.4-8.5-18.3-13.4-21.5c-5.8-3.7-13.3-6.7-21.3-9.1c-16.3-5-38.7-9-64.9-11.9c-8.8-1-16.7 5.3-17.7 14.1s5.3 16.7 14.1 17.7c25.3 2.8 45.5 6.6 59.1 10.7c0 0 0 0 0 0c-7.8 2.4-18.2 4.7-30.9 6.8c-33.6 5.6-80.7 9.2-133.1 9.2s-99.5-3.5-133.1-9.2c-12.7-2.1-23-4.5-30.9-6.8zm-14.2 6.1s0 0 .1-.1c0 0-.1 .1-.1 .1zm356.5 .1c0 0-.1-.1-.3-.2c.2 .2 .3 .2 .3 .2zm-.2-12.3c0 0 .1-.1 .1-.1s0 0-.1 .1zm-356.2 0c0 0-.1-.1-.1-.1s0 0 .1 .1zM356.5 389.5c2.9 8.4-1.6 17.5-10 20.3c-17.1 5.8-38.1 11.5-69.2 11.5c-29.8 0-51.9-2.7-66.9-5.5c-8.7-1.6-14.4-10-12.8-18.7s10-14.4 18.7-12.8c13 2.4 33.2 4.9 61.1 4.9c26.6 0 44-4.7 58.8-9.8c8.4-2.9 17.5 1.6 20.3 10zm-215.9-122c.3 .2 .9 .6 1.8 1.1c3.6 2 11.9 5.4 28.7 8.4c8.7 1.5 14.5 9.8 13 18.5s-9.8 14.5-18.5 13c-18.9-3.3-30.8-7.6-38.4-11.8c-3.9-2.1-6.7-4.2-8.9-6.3c-1.1-1-2-2-2.7-3c-.4-.5-.7-1-1-1.4c-.1-.2-.3-.5-.4-.7l-.2-.3-.1-.2 0-.1c0 0 0 0 0 0s0 0 14.2-7.4l-14.2 7.3c-4-7.9-1-17.5 6.9-21.6c6.9-3.6 15.3-1.6 19.9 4.4zm250.7-4.4c7.9 4 10.9 13.7 6.9 21.6L384 277.3c14.2 7.3 14.2 7.4 14.2 7.4l0 .1-.1 .1-.1 .2c-.1 .2-.2 .3-.3 .5c-.2 .3-.4 .7-.7 1.1c-.5 .7-1.1 1.5-1.8 2.3c-1.4 1.6-3.2 3.2-5.5 4.8c-4.6 3.2-11.2 6.5-21.1 9.5c-19.5 6-53.3 11.4-112.6 11.4c-8.8 0-16-7.2-16-16s7.2-16 16-16c57.8 0 88-5.3 103.2-10c7.5-2.3 11-4.3 12.1-5.1l.1-.1c4.6-5.9 13-8 19.9-4.4z"/></svg>