<svg xmlns="http://www.w3.org/2000/svg" viewBox="0 0 512 512"><!--!Font Awesome Pro 6.6.0 by @fontawesome - https://fontawesome.com License - https://fontawesome.com/license (Commercial License) Copyright 2024 Fonticons, Inc.--><path class="fa-secondary" opacity=".4" d="M256 42.7L256 192l0 117.3L256 416l0 53.3c94.3 0 170.7-77.8 170.7-173.7c0-15.1-1.4-30.7-4-46.2c-4.7-27.5-13.4-55.2-25.5-81.1c-12.2-26-27.9-50.3-46.6-70.8c-18.4-20.2-39.7-36.8-63.3-47.8c-9.9-4.6-20.6-6.9-31.2-6.9z"/><path class="fa-primary" d="M256 469.3c-94.3 0-170.7-77.8-170.7-173.7c0-95.2 54.5-206.3 139.5-246c9.9-4.6 20.6-6.9 31.2-6.9l0 426.7z"/></svg>