<svg xmlns="http://www.w3.org/2000/svg" viewBox="0 0 512 512"><!--!Font Awesome Pro 6.6.0 by @fontawesome - https://fontawesome.com License - https://fontawesome.com/license (Commercial License) Copyright 2024 Fonticons, Inc.--><path class="fa-secondary" opacity=".4" d="M74.7 130.9l0 189.1L240 320l0 128 32 0 0-128 165.3 0 0-189.1c0-8.3 0-12.4-.4-15.2c-2.6-19.5-13.6-31.5-32.8-35.9c-2.8-.6-8.6-1.2-20.2-2.2c-21.4-1.9-46.6-9.4-68.9-17.5C283.2 48.5 267.3 42.7 256 42.7s-27.2 5.8-59.1 17.4c-22.4 8.1-47.6 15.6-68.9 17.5c-11.6 1.1-17.4 1.6-20.2 2.2C88.6 84.2 77.7 96.1 75 115.7c-.4 2.8-.4 7-.4 15.2zm116.7 28.4L212.7 138c3.1-3.1 7.2-4.7 11.3-4.7s8.2 1.6 11.3 4.7c6.2 6.2 6.2 16.4 0 22.6L214 182c-6.2 6.2-16.4 6.2-22.6 0s-6.2-16.4 0-22.6zm21.3 64l64-64c6.2-6.2 16.4-6.2 22.6 0s6.2 16.4 0 22.6l-64 64c-6.2 6.2-16.4 6.2-22.6 0s-6.2-16.4 0-22.6zm64 21.3L298 223.4c6.2-6.2 16.4-6.2 22.6 0s6.2 16.4 0 22.6l-21.3 21.3c-6.2 6.2-16.4 6.2-22.6 0s-6.2-16.4 0-22.6z"/><path class="fa-primary" d="M299.3 182c6.2-6.2 6.2-16.4 0-22.6s-16.4-6.2-22.6 0l-64 64c-6.2 6.2-6.2 16.4 0 22.6s16.4 6.2 22.6 0l64-64zm-64-21.3c6.2-6.2 6.2-16.4 0-22.6s-16.4-6.2-22.6 0l-21.3 21.3c-6.2 6.2-6.2 16.4 0 22.6s16.4 6.2 22.6 0l21.3-21.3zM320.6 246c6.2-6.2 6.2-16.4 0-22.6s-16.4-6.2-22.6 0l-21.3 21.3c-6.2 6.2-6.2 16.4 0 22.6s16.4 6.2 22.6 0L320.6 246zM64 320l176 0 0 128-69.3 0c-18.7 0-34.5 0-48-.6l0 21.9c0 8.8-7.2 16-16 16s-16-7.2-16-16l0-25.4c-12.4-2.7-21.7-7.2-29.2-14.7C45 412.9 43 387.7 42.7 341.3C42.6 329.6 52.2 320 64 320zm69.3 64c0 8.8 7.2 16 16 16l42.7 0c8.8 0 16-7.2 16-16s-7.2-16-16-16l-42.7 0c-8.8 0-16 7.2-16 16zm208 64L272 448l0-128 176 0c11.8 0 21.4 9.6 21.3 21.3c-.3 46.4-2.3 71.5-18.7 87.9c-7.5 7.5-16.9 12-29.3 14.7l0 25.4c0 8.8-7.2 16-16 16s-16-7.2-16-16l0-21.9c-13.5 .6-29.3 .6-48 .6zM320 368c-8.8 0-16 7.2-16 16s7.2 16 16 16l42.7 0c8.8 0 16-7.2 16-16s-7.2-16-16-16L320 368z"/></svg>