<svg xmlns="http://www.w3.org/2000/svg" viewBox="0 0 512 512"><!--!Font Awesome Pro 6.6.0 by @fontawesome - https://fontawesome.com License - https://fontawesome.com/license (Commercial License) Copyright 2024 Fonticons, Inc.--><path class="fa-secondary" opacity=".4" d="M106.7 256c0 59.9 0 89.9 14.4 111.4c6.2 9.3 14.2 17.3 23.5 23.5c3.1 2.1 6.3 3.8 9.8 5.3c10.4 4.5 22.9 6.8 39.2 7.9s36.4 1.1 61.9 1.1l.4 0c51.3 0 80.7 0 101.6-9c3.5-1.5 6.8-3.3 9.8-5.3c9.3-6.2 17.3-14.2 23.5-23.5c14.4-21.5 14.4-51.4 14.4-111l0-.4c0-59.9 0-89.9-14.4-111.4c-6.2-9.3-14.2-17.3-23.5-23.5c-3.1-2.1-6.3-3.8-9.8-5.3c-20.8-9-50.1-9-101.2-9c-51.7 0-81.1 0-102 9c-3.5 1.5-6.8 3.3-9.8 5.3c-9.3 6.2-17.3 14.2-23.5 23.5c-14.4 21.5-14.4 51.5-14.4 111.4zM240 192c0-8.8 7.2-16 16-16s16 7.2 16 16l0 58.8 37.8 36.3c6.4 6.1 6.6 16.3 .4 22.6s-16.3 6.6-22.6 .4l-42.7-41c-3.1-3-4.9-7.2-4.9-11.5l0-65.6z"/><path class="fa-primary" d="M272.9 42.7H239.1c-32.8 0-49.2 0-60.9 9.4s-15.3 25.4-22.4 57.4l-1.4 6.2c20.9-9 50.2-9 101.6-9s80.7 0 101.6 9l-1.4-6.2c-7.1-32-10.7-48.1-22.4-57.4s-28.1-9.4-60.9-9.4zM154.4 396.3c20.9 9 50.2 9 101.6 9s80.7 0 101.6-9l-1.4 6.2c-7.1 32-10.7 48.1-22.4 57.4s-28.1 9.4-60.9 9.4H239.1c-32.8 0-49.2 0-60.9-9.4s-15.3-25.4-22.4-57.4l-1.4-6.2zM256 176c8.8 0 16 7.2 16 16l0 58.8 37.8 36.3c6.4 6.1 6.6 16.3 .4 22.6s-16.3 6.6-22.6 .4l-42.7-41c-3.1-3-4.9-7.2-4.9-11.5l0-65.6c0-8.8 7.2-16 16-16z"/></svg>