<svg xmlns="http://www.w3.org/2000/svg" viewBox="0 0 512 512"><!--!Font Awesome Pro 6.6.0 by @fontawesome - https://fontawesome.com License - https://fontawesome.com/license (Commercial License) Copyright 2024 Fonticons, Inc.--><path class="fa-secondary" opacity=".4" d="M26.7 256c0 4.4 1.8 8.8 5.3 11.9c.3 .2 .4 .3 .5 .4c.2 .2 .6 .5 1 .8c.8 .7 2 1.6 3.4 2.8c3 2.3 7.3 5.5 13 9.1c11.4 7.4 28.2 16.9 50.4 25.8l59.9 24 2.5 1c40 16 63.9 25.6 93.3 25.6s53.3-9.6 93.3-25.6l2.5-1 59.9-24c22.2-8.9 39.1-18.4 50.4-25.8c5.7-3.7 10-6.9 13-9.1c1.5-1.1 2.6-2.1 3.4-2.8c.4-.3 .7-.6 1-.8l.3-.3 .2-.1c3.5-3.2 5.3-7.5 5.3-11.9c0-3.8-1.3-7.6-4.1-10.7c-5.9-6.6-16-7.1-22.6-1.3c-.2 .2-.3 .3-.6 .5c-.5 .4-1.3 1.1-2.5 2c-2.3 1.8-5.9 4.4-10.8 7.6c-9.8 6.4-24.8 14.9-44.9 22.9l-59.9 24c-43.2 17.3-61.3 24.3-83.9 24.3s-40.7-7-83.9-24.3l-59.9-24c-20.1-8-35.1-16.5-44.9-22.9c-4.9-3.2-8.5-5.8-10.8-7.6c-1.2-.9-2-1.6-2.5-2c-.3-.2-.4-.4-.5-.4c-6.7-5.9-16.7-5.4-22.6 1.2c-2.7 3.1-4.1 6.9-4.1 10.7zm0 86.6c0 4.4 1.8 8.8 5.3 11.9c.3 .2 .4 .3 .5 .4c.2 .2 .6 .5 1 .8c.8 .7 2 1.6 3.4 2.8c3 2.3 7.3 5.5 13 9.1c11.4 7.4 28.2 16.9 50.4 25.8l59.9 24 2.5 1c40 16 63.9 25.6 93.3 25.6s53.3-9.6 93.3-25.6l2.5-1 59.9-24c22.2-8.9 39.1-18.4 50.4-25.8c5.7-3.7 10-6.9 13-9.1c1.5-1.1 2.6-2.1 3.4-2.8c.4-.3 .7-.6 1-.8l.3-.3 .2-.1c3.5-3.2 5.3-7.5 5.3-11.9c0-3.8-1.3-7.6-4.1-10.7c-5.9-6.6-16-7.1-22.6-1.3c-.2 .1-.3 .3-.6 .5c-.5 .4-1.3 1.1-2.5 2c-2.3 1.8-5.9 4.4-10.8 7.6c-9.8 6.4-24.8 14.8-44.9 22.9l-59.9 24c-43.2 17.3-61.3 24.3-83.9 24.3s-40.7-7-83.9-24.3l-59.9-24c-20.1-8-35.1-16.5-44.9-22.9c-4.9-3.2-8.5-5.8-10.8-7.6c-1.2-.9-2-1.6-2.5-2c-.3-.2-.4-.4-.6-.5c-6.6-5.9-16.7-5.3-22.6 1.3c-2.7 3.1-4.1 6.9-4.1 10.7z"/><path class="fa-primary" d="M162.7 94.9c40-16 63.9-25.6 93.3-25.6s53.3 9.6 93.3 25.6l63.3 25.3c20.4 8.1 36.9 14.7 48.2 20.7c5.7 3 11.3 6.4 15.6 10.5c4.4 4.2 8.9 10.6 8.9 19.2s-4.5 15-8.9 19.2c-4.3 4.1-9.8 7.5-15.6 10.5c-11.3 5.9-27.8 12.5-48.2 20.7l-63.3 25.3c-40 16-63.9 25.6-93.3 25.6s-53.3-9.6-93.3-25.6L99.3 221.1c-20.4-8.1-36.9-14.7-48.2-20.7c-5.7-3-11.3-6.4-15.6-10.5c-4.4-4.2-8.9-10.6-8.9-19.2s4.5-15 8.9-19.2c4.3-4.1 9.8-7.5 15.6-10.5c11.3-5.9 27.8-12.5 48.2-20.7l63.3-25.3z"/></svg>