<svg xmlns="http://www.w3.org/2000/svg" viewBox="0 0 512 512"><!--!Font Awesome Pro 6.6.0 by @fontawesome - https://fontawesome.com License - https://fontawesome.com/license (Commercial License) Copyright 2024 Fonticons, Inc.--><path class="fa-secondary" opacity=".4" d="M21.3 106.7l0 298.7c0 8.8 7.2 16 16 16s16-7.2 16-16l0-298.7c0-8.8-7.2-16-16-16s-16 7.2-16 16zm426.7 0l0 298.7c0 8.8 7.2 16 16 16s16-7.2 16-16l0-298.7c0-8.8-7.2-16-16-16s-16 7.2-16 16z"/><path class="fa-primary" d="M229.3 42.7l42.7 0c60.3 0 90.5 0 109.3 18.7S400 110.3 400 170.7l0 170.7c0 60.3 0 90.5-18.7 109.3s-48.9 18.7-109.3 18.7l-42.7 0c-60.3 0-90.5 0-109.3-18.7s-18.7-48.9-18.7-109.3l0-170.7c0-60.3 0-90.5 18.7-109.3S169 42.7 229.3 42.7zM170.7 277.3c0 8.8 7.2 16 16 16l128 0c8.8 0 16-7.2 16-16s-7.2-16-16-16l-128 0c-8.8 0-16 7.2-16 16zm0-85.3c0 8.8 7.2 16 16 16l128 0c8.8 0 16-7.2 16-16s-7.2-16-16-16l-128 0c-8.8 0-16 7.2-16 16zm0 170.7c0 8.8 7.2 16 16 16l64 0c8.8 0 16-7.2 16-16s-7.2-16-16-16l-64 0c-8.8 0-16 7.2-16 16z"/></svg>