<svg xmlns="http://www.w3.org/2000/svg" viewBox="0 0 512 512"><!--!Font Awesome Pro 6.6.0 by @fontawesome - https://fontawesome.com License - https://fontawesome.com/license (Commercial License) Copyright 2024 Fonticons, Inc.--><path class="fa-secondary" opacity=".4" d="M42.7 234.4l0 .3 0 42.7c0 60.3 0 90.5 18.7 109.3c18.7 18.7 48.8 18.7 108.9 18.7l.3 0 170.7 0c60.3 0 90.5 0 109.3-18.7s18.7-48.9 18.7-109.3l0-42.7c0-60.3 0-90.5-18.7-109.3s-48.9-18.7-109.3-18.7l-170.7 0c-60.3 0-90.5 0-109.3 18.7c-18.7 18.7-18.7 48.8-18.7 109zM149.3 192a21.3 21.3 0 1 1 -42.7 0 21.3 21.3 0 1 1 42.7 0zm0 64a21.3 21.3 0 1 1 -42.7 0 21.3 21.3 0 1 1 42.7 0zm-16 85.3c0-8.8 7.2-16 16-16l213.3 0c8.8 0 16 7.2 16 16s-7.2 16-16 16l-213.3 0c-8.8 0-16-7.2-16-16zm80-149.3a21.3 21.3 0 1 1 -42.7 0 21.3 21.3 0 1 1 42.7 0zm0 64a21.3 21.3 0 1 1 -42.7 0 21.3 21.3 0 1 1 42.7 0zm64-64a21.3 21.3 0 1 1 -42.7 0 21.3 21.3 0 1 1 42.7 0zm0 64a21.3 21.3 0 1 1 -42.7 0 21.3 21.3 0 1 1 42.7 0zm64-64a21.3 21.3 0 1 1 -42.7 0 21.3 21.3 0 1 1 42.7 0zm0 64a21.3 21.3 0 1 1 -42.7 0 21.3 21.3 0 1 1 42.7 0zm64-64a21.3 21.3 0 1 1 -42.7 0 21.3 21.3 0 1 1 42.7 0zm0 64a21.3 21.3 0 1 1 -42.7 0 21.3 21.3 0 1 1 42.7 0z"/><path class="fa-primary" d="M128 213.3a21.3 21.3 0 1 0 0-42.7 21.3 21.3 0 1 0 0 42.7zm0 64a21.3 21.3 0 1 0 0-42.7 21.3 21.3 0 1 0 0 42.7zm64 0a21.3 21.3 0 1 0 0-42.7 21.3 21.3 0 1 0 0 42.7zm0-64a21.3 21.3 0 1 0 0-42.7 21.3 21.3 0 1 0 0 42.7zm64 0a21.3 21.3 0 1 0 0-42.7 21.3 21.3 0 1 0 0 42.7zm0 64a21.3 21.3 0 1 0 0-42.7 21.3 21.3 0 1 0 0 42.7zm64-64a21.3 21.3 0 1 0 0-42.7 21.3 21.3 0 1 0 0 42.7zm0 64a21.3 21.3 0 1 0 0-42.7 21.3 21.3 0 1 0 0 42.7zm64-64a21.3 21.3 0 1 0 0-42.7 21.3 21.3 0 1 0 0 42.7zm0 64a21.3 21.3 0 1 0 0-42.7 21.3 21.3 0 1 0 0 42.7zm-5.3 64c0 8.8-7.2 16-16 16H149.3c-8.8 0-16-7.2-16-16s7.2-16 16-16H362.7c8.8 0 16 7.2 16 16z"/></svg>