<svg xmlns="http://www.w3.org/2000/svg" viewBox="0 0 640 512"><!--!Font Awesome Pro 6.6.0 by @fontawesome - https://fontawesome.com License - https://fontawesome.com/license (Commercial License) Copyright 2024 Fonticons, Inc.--><path class="fa-secondary" opacity=".4" d="M0 64L0 352c0 35.3 28.7 64 64 64l176 0-10.7 32L160 448c-17.7 0-32 14.3-32 32s14.3 32 32 32l232.6 0c-5.5-9.5-8.6-20.4-8.6-32.1l0-31.9-37.3 0L336 416l48 0 0-64L64 352 64 64l448 0 0 97.1c5.2-.7 10.6-1.1 16-1.1c17.2 0 33.5 3.9 48 10.8L576 64c0-35.3-28.7-64-64-64L64 0C28.7 0 0 28.7 0 64z"/><path class="fa-primary" d="M496 272l0 48 64 0 0-48c0-17.7-14.3-32-32-32s-32 14.3-32 32zm-48 48l0-48c0-44.2 35.8-80 80-80s80 35.8 80 80l0 48c17.7 0 32 14.3 32 32l0 128c0 17.7-14.3 32-32 32l-160 0c-17.7 0-32-14.3-32-32l0-128c0-17.7 14.3-32 32-32z"/></svg>