<svg xmlns="http://www.w3.org/2000/svg" viewBox="0 0 512 512"><!--!Font Awesome Pro 6.6.0 by @fontawesome - https://fontawesome.com License - https://fontawesome.com/license (Commercial License) Copyright 2024 Fonticons, Inc.--><path class="fa-secondary" opacity=".4" d="M85.3 98.6l0 1.5c0 11.8 9.6 21.3 21.3 21.3l256 0c.9 0 1.9 0 2.8 .1s1.8 .1 2.8 .2c1.8 .2 3.6 .4 5.4 .7c3.6 .6 7 1.5 10.4 2.7l0-39.8c0-23.9-19.5-42.7-42.6-42.7c-2 0-4.1 .1-6.1 .4L105 76C93.7 77.6 85.3 87.3 85.3 98.6z"/><path class="fa-primary" d="M256 229.3a48 48 0 1 0 0 96 48 48 0 1 0 0-96zM85.3 100.1l0 298.7c0 35.3 28.7 64 64 64l213.3 0c35.3 0 64-28.7 64-64l0-213.3c0-35.3-28.7-64-64-64l-256 0c-11.8 0-21.3-9.6-21.3-21.3zM256 357.3a80 80 0 1 1 0-160 80 80 0 1 1 0 160z"/></svg>