<svg xmlns="http://www.w3.org/2000/svg" viewBox="0 0 512 512"><!--!Font Awesome Pro 6.5.2 by @fontawesome - https://fontawesome.com License - https://fontawesome.com/license (Commercial License) Copyright 2024 Fonticons, Inc.--><path class="fa-secondary" opacity=".4" d="M42.7 223.6l0 .4 0 21.3c0 49.7 0 74.6 8.1 94.1c10.8 26.1 31.6 46.9 57.7 57.7c14.1 5.8 30.9 7.5 57.7 7.9c18.1 .3 27.2 .5 34.4 4.7c7.2 4.2 11.7 11.8 20.7 26.9l11.6 19.5C238 465 247 469.3 256 469.3s18-4.4 23.2-13.1l11.6-19.5c9-15.1 13.4-22.7 20.7-26.9c7.2-4.2 16.3-4.4 34.4-4.7c26.8-.4 43.6-2.1 57.7-7.9c26.1-10.8 46.9-31.6 57.7-57.7c8.1-19.5 8.1-44.3 8.1-93.9l0-.3 0-21.3c0-17.2 0-32.2-.2-45.6c-38 33.8-95.7 32.1-131.7-3.9s-37.6-93.7-3.9-131.7c-13.3-.2-28.3-.2-45.5-.2l-64.1 0c-69.8 0-104.7 0-130.4 15.7C79.3 67.2 67.2 79.2 58.4 93.6c-15.7 25.6-15.7 60.5-15.7 130z"/><path class="fa-primary" d="M469.3 106.7a64 64 0 1 1 -128 0 64 64 0 0 1 128 0"/></svg>