<svg xmlns="http://www.w3.org/2000/svg" viewBox="0 0 512 512"><!--!Font Awesome Pro 6.6.0 by @fontawesome - https://fontawesome.com License - https://fontawesome.com/license (Commercial License) Copyright 2024 Fonticons, Inc.--><path class="fa-secondary" opacity=".4" d="M469.3 256A213.3 213.3 0 1 1 42.7 256a213.3 213.3 0 1 1 426.7 0zM112 256c0 79.5 64.5 144 144 144c8.8 0 16-7.2 16-16s-7.2-16-16-16c-61.9 0-112-50.1-112-112s50.1-112 112-112s112 50.1 112 112c0 13.5-2.4 26.4-6.7 38.3c-.8 2.1-2.2 4.3-4.6 6.5l-1.7 1.6c-6.4 5.9-16.1 6.7-23.3 1.8c-5.3-3.5-8.4-9.4-8.4-15.7l0-32.5c0-37.1-30.1-67.2-67.2-67.2s-67.2 30.1-67.2 67.2s30.1 67.2 67.2 67.2c15 0 28.8-4.9 40-13.2c3.9 8.3 10 15.6 17.9 20.9c19.6 13 45.5 11 62.8-4.9l1.7-1.6c5.3-4.9 10.1-11.3 13-19.1c5.6-15.4 8.7-32 8.7-49.3c0-79.5-64.5-144-144-144s-144 64.5-144 144zm179.2 0a35.2 35.2 0 1 1 -70.4 0 35.2 35.2 0 1 1 70.4 0z"/><path class="fa-primary" d="M256 144c-61.9 0-112 50.1-112 112s50.1 112 112 112c8.8 0 16 7.2 16 16s-7.2 16-16 16c-79.5 0-144-64.5-144-144s64.5-144 144-144s144 64.5 144 144c0 17.3-3.1 33.9-8.7 49.3c-2.8 7.8-7.6 14.1-13 19.1l-1.7 1.6c-17.3 15.9-43.2 18-62.8 4.9c-7.9-5.3-14-12.5-17.9-20.9c-11.2 8.3-25 13.2-40 13.2c-37.1 0-67.2-30.1-67.2-67.2s30.1-67.2 67.2-67.2s67.2 30.1 67.2 67.2l0 32.5c0 6.3 3.2 12.2 8.4 15.7c7.3 4.8 16.9 4.1 23.3-1.8l1.7-1.6c2.4-2.2 3.9-4.4 4.6-6.5c4.3-11.9 6.7-24.8 6.7-38.3c0-61.9-50.1-112-112-112zm0 76.8a35.2 35.2 0 1 0 0 70.4 35.2 35.2 0 1 0 0-70.4z"/></svg>