<svg xmlns="http://www.w3.org/2000/svg" viewBox="0 0 512 512"><!--!Font Awesome Pro 6.6.0 by @fontawesome - https://fontawesome.com License - https://fontawesome.com/license (Commercial License) Copyright 2024 Fonticons, Inc.--><path class="fa-secondary" opacity=".4" d="M165.3 44.1l0 195.9 181.3 0 0-195.9c-24.7-1.5-54.4-1.5-90.7-1.5s-66 0-90.7 1.5zm0 227.9l0 195.9c24.7 1.5 54.4 1.5 90.7 1.5s66 0 90.7-1.5l0-195.9-181.3 0z"/><path class="fa-primary" d="M133.3 47.4c-26.1 4.1-44.8 11.9-59.4 26.5s-22.4 33.3-26.5 59.4h85.9V47.4zM44.1 165.3c-1.2 20.9-1.4 45.5-1.5 74.7h90.7V165.3H44.1zM42.7 272c0 29.1 .2 53.7 1.5 74.7h89.2V272H42.7zm4.7 106.7c4.1 26.1 11.9 44.8 26.5 59.4s33.3 22.4 59.4 26.5V378.7H47.4zm331.3 85.9c26.1-4.1 44.8-11.9 59.4-26.5s22.4-33.3 26.5-59.4H378.7v85.9zm89.2-117.9c1.2-20.9 1.4-45.5 1.5-74.7H378.7v74.7h89.2zM469.3 240c0-29.1-.2-53.7-1.5-74.7H378.7V240h90.7zm-4.7-106.7c-4.1-26.1-11.9-44.8-26.5-59.4s-33.3-22.4-59.4-26.5v85.9h85.9z"/></svg>