<svg xmlns="http://www.w3.org/2000/svg" viewBox="0 0 512 512"><!--!Font Awesome Pro 6.6.0 by @fontawesome - https://fontawesome.com License - https://fontawesome.com/license (Commercial License) Copyright 2024 Fonticons, Inc.--><path class="fa-secondary" opacity=".4" d="M42.7 469.2c0-30.1 0-45.1 9.4-54.5c9.4-9.4 24.5-9.4 54.6-9.4s45.3 0 54.6 9.4s9.4 24.5 9.4 54.6c-42.7 0-85.3 0-128-.2zm298.7-63.8c0-30.2 0-45.3 9.4-54.6c9.4-9.4 24.5-9.4 54.8-9.4c30 0 45.1 0 54.4 9.4c9.4 9.4 9.4 24.5 9.4 54.6l0 64-128 0 0-64z"/><path class="fa-primary" d="M237.8 64.5c8.1-14.5 12.2-21.8 18.2-21.8s10.1 7.3 18.2 21.8l2.1 3.8c2.3 4.1 3.5 6.2 5.3 7.6s4 1.9 8.5 2.9l4.1 .9c15.7 3.6 23.6 5.3 25.5 11.4s-3.5 12.3-14.2 24.8l-2.8 3.2c-3 3.6-4.6 5.3-5.3 7.6s-.5 4.6 0 9.3l.4 4.3c1.6 16.7 2.4 25.1-2.5 28.8s-12.3 .3-27-6.5l-3.8-1.8c-4.2-1.9-6.3-2.9-8.5-2.9s-4.3 1-8.5 2.9l-3.8 1.8c-14.7 6.8-22.1 10.2-27 6.5s-4.1-12.1-2.5-28.8l.4-4.3c.5-4.8 .7-7.1 0-9.3s-2.2-4-5.3-7.6l-2.8-3.2C195.9 103.3 190.5 97 192.4 91s9.7-7.8 25.5-11.4l4.1-.9c4.5-1 6.7-1.5 8.5-2.9s2.9-3.4 5.3-7.6l2.1-3.8zm39.6 148.9H234.7c-30.2 0-45.3 0-54.6 9.4s-9.4 24.5-9.4 54.6v192H341.3v-64-128c0-30.2 0-45.3-9.4-54.6s-24.5-9.4-54.6-9.4z"/></svg>