<svg xmlns="http://www.w3.org/2000/svg" viewBox="0 0 512 512"><!--!Font Awesome Pro 6.6.0 by @fontawesome - https://fontawesome.com License - https://fontawesome.com/license (Commercial License) Copyright 2024 Fonticons, Inc.--><path class="fa-secondary" opacity=".4" d="M192 155.6c19.1-3.9 40.4-6.2 64-6.2s44.9 2.3 64 6.2l0 135c0-.2-.2-35.3-64-35.3c-64 0-64 35.3-64 35.3l0-135z"/><path class="fa-primary" d="M148.2 352.4l-28.6 8.1c-38.9 11-77-21.1-77-65c0-26.4 5.9-52.8 23.1-71.4C88.1 200 128 168.7 192 155.6l0 135c0 29.1-18 54.5-43.8 61.8zM320 290.5l0-135c64 13.1 103.9 44.5 126.2 68.5c17.2 18.6 23.1 45 23.1 71.4c0 43.9-38 76-77 65l-28.6-8.1C338 345.1 320 319.6 320 290.5z"/></svg>