<svg xmlns="http://www.w3.org/2000/svg" viewBox="0 0 512 512"><!--!Font Awesome Pro 6.6.0 by @fontawesome - https://fontawesome.com License - https://fontawesome.com/license (Commercial License) Copyright 2024 Fonticons, Inc.--><path class="fa-secondary" opacity=".4" d="M42.7 238a195.3 195.3 0 1 0 390.7 0A195.3 195.3 0 1 0 42.7 238zm128.5 0c0-8.5 6.9-15.4 15.4-15.4l36 0 0-36c0-8.5 6.9-15.4 15.4-15.4s15.4 6.9 15.4 15.4l0 36 36 0c8.5 0 15.4 6.9 15.4 15.4s-6.9 15.4-15.4 15.4l-36 0 0 36c0 8.5-6.9 15.4-15.4 15.4s-15.4-6.9-15.4-15.4l0-36-36 0c-8.5 0-15.4-6.9-15.4-15.4z"/><path class="fa-primary" d="M380.2 420.3c-1.9-23.3 17.4-42.8 40.6-40.9c4 .3 8.8 1.8 13.7 3.3l1.4 .4c.4 .1 .9 .3 1.3 .4c4.5 1.4 9 2.7 12.4 4.5c19.5 10.5 25.8 35.7 13.6 54.4c-2.1 3.2-5.4 6.6-8.8 9.9c-.3 .3-.6 .6-.9 1s-.6 .6-.9 1c-3.3 3.4-6.6 6.7-9.8 8.8c-18.5 12.3-43.4 6-53.9-13.7c-1.8-3.4-3.2-7.9-4.5-12.5l-.4-1.3c-.1-.5-.3-1-.4-1.4c-1.5-4.9-2.9-9.8-3.3-13.8zM238 171.2c8.5 0 15.4 6.9 15.4 15.4l0 36 36 0c8.5 0 15.4 6.9 15.4 15.4s-6.9 15.4-15.4 15.4l-36 0 0 36c0 8.5-6.9 15.4-15.4 15.4s-15.4-6.9-15.4-15.4l0-36-36 0c-8.5 0-15.4-6.9-15.4-15.4s6.9-15.4 15.4-15.4l36 0 0-36c0-8.5 6.9-15.4 15.4-15.4z"/></svg>