<svg xmlns="http://www.w3.org/2000/svg" viewBox="0 0 512 512"><!--!Font Awesome Pro 6.6.0 by @fontawesome - https://fontawesome.com License - https://fontawesome.com/license (Commercial License) Copyright 2024 Fonticons, Inc.--><path class="fa-secondary" opacity=".4" d="M42.7 256a213.3 213.3 0 1 0 426.7 0A213.3 213.3 0 1 0 42.7 256zm90.7 33.3c0-4.5 1.9-8.9 5.5-12.1c6.7-5.8 16.8-5.1 22.6 1.5L197.3 320l0-170.7c0-8.8 7.2-16 16-16s16 7.2 16 16l0 213.3c0 6.7-4.1 12.6-10.4 15s-13.3 .6-17.7-4.5l-64-73.3c-2.6-3-3.9-6.8-3.9-10.5zm149.3-140c0-6.7 4.1-12.6 10.4-15c1.8-.7 3.7-1 5.6-1c4.5 0 9 1.9 12.1 5.5l64 73.3c5.8 6.7 5.1 16.8-1.5 22.6s-16.8 5.1-22.6-1.5L314.7 192l0 170.7c0 8.8-7.2 16-16 16s-16-7.2-16-16l0-106.7 0-106.7z"/><path class="fa-primary" d="M161.4 278.8c-5.8-6.7-15.9-7.3-22.6-1.5s-7.3 15.9-1.5 22.6l64 73.3c4.4 5 11.4 6.8 17.7 4.5s10.4-8.3 10.4-15l0-213.3c0-8.8-7.2-16-16-16s-16 7.2-16 16l0 170.7-35.9-41.2zm153.3 83.9l0-170.7 35.9 41.2c5.8 6.7 15.9 7.3 22.6 1.5s7.3-15.9 1.5-22.6l-64-73.3c-4.4-5-11.4-6.8-17.7-4.5s-10.4 8.3-10.4 15l0 106.7 0 106.7c0 8.8 7.2 16 16 16s16-7.2 16-16z"/></svg>