<svg xmlns="http://www.w3.org/2000/svg" viewBox="0 0 512 512"><!--!Font Awesome Pro 6.5.2 by @fontawesome - https://fontawesome.com License - https://fontawesome.com/license (Commercial License) Copyright 2024 Fonticons, Inc.--><path class="fa-secondary" opacity=".4" d="M85.3 192l0 85.3c.2 66.4 2.3 101.7 25 124.3c5.1 5.1 11.1 9.4 17.7 12.5c17.6 8.5 41.1 11.2 74.7 12.1c15.5 .4 33.2 .4 53.3 .4s37.8 0 53.3-.4c33.6-.9 57.1-3.6 74.7-12.1c6.6-3.1 12.5-7.4 17.7-12.5c22.7-22.7 24.8-57.9 25-124.3l0-85.3c-.2-66.4-2.3-101.7-25-124.3c-25-25-65.2-25-145.7-25l-.5 0c-80.1 0-120.2 .1-145.1 25C87.6 90.3 85.5 125.6 85.3 192zm32-42.7c0-30.2 0-45.3 9.4-54.6c9.4-9.4 24.4-9.4 54.6-9.4l149.3 0c30.2 0 45.3 0 54.6 9.4c9.4 9.4 9.4 24.4 9.4 54.6l0 53.3c0 30.2 0 45.2-9.4 54.6c-9.4 9.4-24.4 9.4-54.6 9.4l-149.3 0c-30.2 0-45.2 0-54.6-9.4c-9.4-9.4-9.4-24.4-9.4-54.6l0-53.3zm16 192c0-8.8 7.2-16 16-16l32 0c8.8 0 16 7.2 16 16s-7.2 16-16 16l-32 0c-8.8 0-16-7.2-16-16zm181.3 0c0-8.8 7.2-16 16-16l32 0c8.8 0 16 7.2 16 16s-7.2 16-16 16l-32 0c-8.8 0-16-7.2-16-16z"/><path class="fa-primary" d="M309.3 426.3c33.6-.9 57.1-3.6 74.7-12.1V448a21.3 21.3 0 0 1 -21.3 21.3h-32A21.3 21.3 0 0 1 309.3 448zM128 414.2c17.6 8.5 41.1 11.2 74.7 12.1V448a21.3 21.3 0 0 1 -21.3 21.3h-32A21.3 21.3 0 0 1 128 448zm250.7-72.9a16 16 0 0 0 -16-16h-32a16 16 0 0 0 0 32h32a16 16 0 0 0 16-16m-245.3 0a16 16 0 0 1 16-16h32a16 16 0 0 1 0 32h-32a16 16 0 0 1 -16-16m-16-138.7c0 30.2 0 45.2 9.4 54.6c9.4 9.4 24.4 9.4 54.6 9.4h149.3c30.2 0 45.2 0 54.6-9.4c9.4-9.4 9.4-24.4 9.4-54.6V149.3c0-30.2 0-45.2-9.4-54.6c-9.3-9.4-24.4-9.4-54.6-9.4H181.3c-30.2 0-45.2 0-54.6 9.4c-9.4 9.3-9.4 24.4-9.4 54.6zm-66.1 49.1l34.1 25.6V192H64a21.3 21.3 0 0 0 -21.3 21.3v21.3a21.3 21.3 0 0 0 8.5 17.1M448 192h-21.4l0 85.3 34.1-25.6a21.3 21.3 0 0 0 8.5-17.1v-21.3A21.3 21.3 0 0 0 448 192"/></svg>