<svg xmlns="http://www.w3.org/2000/svg" viewBox="0 0 512 512"><!--!Font Awesome Pro 6.6.0 by @fontawesome - https://fontawesome.com License - https://fontawesome.com/license (Commercial License) Copyright 2024 Fonticons, Inc.--><path class="fa-secondary" opacity=".4" d="M48 128c0-8.8 7.2-16 16-16l384 0c8.8 0 16 7.2 16 16s-7.2 16-16 16L64 144c-8.8 0-16-7.2-16-16zm0 85.3c0-8.8 7.2-16 16-16l384 0c8.8 0 16 7.2 16 16s-7.2 16-16 16l-384 0c-8.8 0-16-7.2-16-16zm0 85.3c0-8.8 7.2-16 16-16l149.3 0c8.8 0 16 7.2 16 16s-7.2 16-16 16L64 314.7c-8.8 0-16-7.2-16-16zM48 384c0-8.8 7.2-16 16-16l149.3 0c8.8 0 16 7.2 16 16s-7.2 16-16 16L64 400c-8.8 0-16-7.2-16-16z"/><path class="fa-primary" d="M298.7 320.8c0 26.3 31.7 54.2 53.8 70.5c9.3 6.8 13.9 10.2 20.9 10.2s11.6-3.4 20.9-10.2C416.3 375 448 347.1 448 320.8c0-42.8-41.1-58.8-74.7-25.7c-33.6-33.1-74.7-17.1-74.7 25.7z"/></svg>