<svg xmlns="http://www.w3.org/2000/svg" viewBox="0 0 512 512"><!--!Font Awesome Pro 6.6.0 by @fontawesome - https://fontawesome.com License - https://fontawesome.com/license (Commercial License) Copyright 2024 Fonticons, Inc.--><path class="fa-secondary" opacity=".4" d="M42.7 256c0 100.6 0 150.9 31.2 182.1s81.5 31.2 182.1 31.2s150.9 0 182.1-31.2c31.2-31.2 31.2-81.3 31.2-181.3l0-.8c0-100.6 0-150.8-31.2-182.1S356.6 42.7 256 42.7s-150.8 0-182.1 31.2S42.7 155.4 42.7 256zM112 281.6c0-4.6 2-9.2 5.9-12.4c6.8-5.6 16.9-4.6 22.5 2.3L176.8 316 286.3 181.9c5.6-6.8 15.7-7.9 22.5-2.3s7.9 15.7 2.3 22.5L189.2 351.5c-3 3.7-7.6 5.9-12.4 5.9s-9.4-2.2-12.4-5.9l-48.8-59.7c-2.4-3-3.6-6.6-3.6-10.1zm130.6 59.1c-4.8-7.4-2.7-17.3 4.7-22.1c4.3-2.8 9.6-3.3 14.1-1.7l110.2-135c5.6-6.8 15.7-7.9 22.5-2.3c3.9 3.2 5.9 7.8 5.9 12.4c0 3.6-1.2 7.1-3.6 10.1L274.5 351.5c-3 3.7-7.6 5.9-12.4 5.9c-.3 0-.6 0-.9 0c-5.1-.3-9.8-3-12.5-7.2l-6.1-9.3z"/><path class="fa-primary" d="M396.4 202.1c5.6-6.8 4.6-16.9-2.3-22.5s-16.9-4.6-22.5 2.3l-110.2 135c-4.5-1.6-9.8-1.2-14.1 1.7c-7.4 4.8-9.5 14.7-4.7 22.1l6.1 9.3c2.8 4.3 7.5 7 12.5 7.2s10-1.9 13.2-5.9L396.4 202.1zm-85.3 0c5.6-6.8 4.6-16.9-2.3-22.5s-16.9-4.6-22.5 2.3L176.8 316l-36.4-44.6c-5.6-6.8-15.7-7.9-22.5-2.3s-7.9 15.7-2.3 22.5l48.8 59.7c3 3.7 7.6 5.9 12.4 5.9s9.4-2.2 12.4-5.9L311.1 202.1z"/></svg>