<svg xmlns="http://www.w3.org/2000/svg" viewBox="0 0 512 512"><!--!Font Awesome Pro 6.6.0 by @fontawesome - https://fontawesome.com License - https://fontawesome.com/license (Commercial License) Copyright 2024 Fonticons, Inc.--><path class="fa-secondary" opacity=".4" d="M42.7 201.2c0 10.1 2.6 20.1 7.9 29.1c11 18.9 49.7 31.8 127.2 57.7c12.4 4.1 18.7 6.2 23.9 9.7c5 3.4 9.4 7.7 12.7 12.7c3.5 5.2 5.6 11.4 9.7 23.9c25.8 77.5 38.7 116.2 57.7 127.2c9 5.2 19.1 7.9 29.1 7.9s20.1-2.6 29.1-7.9c18.9-11 31.8-49.7 57.7-127.2l36.6-109.9c32-96 48-143.9 22.7-169.3c-8.7-8.7-20-12.5-35-12.5c-28.8 0-71.2 14.1-134.3 35.2L177.7 114.4c-77.5 25.8-116.2 38.7-127.2 57.7c-5.2 9-7.9 19.1-7.9 29.1zM278.4 210l89.8-88.8c3.1-3.1 7.2-4.6 11.3-4.6c4.1 0 8.2 1.6 11.4 4.7c3.1 3.1 4.6 7.2 4.6 11.3c0 4.1-1.6 8.2-4.7 11.4l-89.8 88.8c-6.3 6.2-16.4 6.2-22.6-.1s-6.2-16.4 .1-22.6z"/><path class="fa-primary" d="M278.3 232.6c-6.2-6.3-6.2-16.4 .1-22.6l89.8-88.8c6.3-6.2 16.4-6.2 22.6 .1s6.2 16.4-.1 22.6l-89.8 88.8c-6.3 6.2-16.4 6.2-22.6-.1z"/></svg>