<svg xmlns="http://www.w3.org/2000/svg" viewBox="0 0 512 512"><!--!Font Awesome Pro 6.6.0 by @fontawesome - https://fontawesome.com License - https://fontawesome.com/license (Commercial License) Copyright 2024 Fonticons, Inc.--><path class="fa-secondary" opacity=".4" d="M42.7 256a213.3 213.3 0 1 0 426.7 0A213.3 213.3 0 1 0 42.7 256zm99.9 110.1C158.1 337.7 190.1 320 256 320s97.9 17.7 113.4 46.1c2.3 4.2 3.4 8.8 3.4 13.3c0 10.1-5.4 20-14.3 26.1c-29.2 20-64.5 31.8-102.5 31.8s-73.4-11.7-102.5-31.8c-12.9-8.8-18.4-25.7-10.9-39.4zM320 192a64 64 0 1 1 -128 0 64 64 0 1 1 128 0z"/><path class="fa-primary" d="M358.5 405.6c-29.2 20-64.5 31.8-102.5 31.8s-73.4-11.7-102.5-31.8c-12.9-8.8-18.4-25.7-10.9-39.4C158.1 337.7 190.1 320 256 320s97.9 17.7 113.4 46.1c7.5 13.7 2 30.6-10.9 39.4zM256 256a64 64 0 1 0 0-128 64 64 0 1 0 0 128z"/></svg>