<svg xmlns="http://www.w3.org/2000/svg" viewBox="0 0 512 512"><!--!Font Awesome Pro 6.6.0 by @fontawesome - https://fontawesome.com License - https://fontawesome.com/license (Commercial License) Copyright 2024 Fonticons, Inc.--><path class="fa-secondary" opacity=".4" d="M21.3 220.8l0 23.5 0 .4c0 54.4 0 81.7 8.9 103.2c11.9 28.7 34.8 51.6 63.5 63.5c15.5 6.4 34 8.2 63.4 8.7c20 .3 29.9 .5 37.9 5.1s12.9 12.9 22.7 29.6l12.7 21.5c5.7 9.6 15.6 14.4 25.5 14.4s19.8-4.8 25.5-14.4l12.7-21.5c9.9-16.7 14.8-25 22.7-29.6s17.9-4.8 37.9-5.1c29.5-.5 47.9-2.3 63.4-8.7c28.7-11.9 51.6-34.7 63.5-63.5c8.9-21.6 8.9-48.9 8.9-103.6l0-23.5c0-76.8 0-115.2-17.3-143.4c-9.7-15.8-22.9-29.1-38.7-38.7C406.4 21.3 368 21.3 291.2 21.3l-70.4 0-.4 0c-76.5 0-114.9 0-143 17.3C61.6 48.3 48.3 61.6 38.6 77.4C21.3 105.6 21.3 144 21.3 220.8zm84 7.7c0-15.1 6.3-27.6 15.3-39.4c8.5-11.2 21-23.6 35.9-38.5c.3-.3 .6-.6 .9-.9l4-4c6.9-6.9 18-6.9 24.9 0s6.9 18 0 24.9l-4 4c-16 16-26.7 26.8-33.7 35.9c-6.6 8.7-8.1 13.7-8.1 18.1s1.5 9.4 8.1 18.1c6.9 9.1 17.7 19.9 33.7 35.9l4 4c6.9 6.9 6.9 18 0 24.9s-18 6.9-24.9 0l-4.9-4.9c-14.9-14.9-27.3-27.3-35.9-38.5c-9-11.8-15.3-24.3-15.3-39.4zM208.6 337.3l60.7-226.7c2.1-7.9 9.2-13 17-13c1.5 0 3 .2 4.6 .6c9.4 2.5 15 12.2 12.4 21.6L242.6 346.4c-2.5 9.4-12.2 15-21.6 12.4s-15-12.2-12.4-21.6zM325.7 145.7c6.9-6.9 18-6.9 24.9 0l4 4c.3 .3 .6 .6 .9 .9c14.9 14.9 27.3 27.3 35.9 38.5c9 11.8 15.3 24.3 15.3 39.4s-6.3 27.6-15.3 39.4c-8.5 11.2-21 23.6-35.9 38.5l-4.9 4.9c-6.9 6.9-18 6.9-24.9 0s-6.9-18 0-24.9l4-4c16-16 26.7-26.8 33.7-35.9c6.6-8.7 8.1-13.7 8.1-18.1s-1.5-9.4-8.1-18.1c-6.9-9.1-17.7-19.9-33.7-35.9l-4-4c-6.9-6.9-6.9-18 0-24.9z"/><path class="fa-primary" d="M325.7 145.7c6.9-6.9 18-6.9 24.9 0l4 4c.3 .3 .6 .6 .9 .9c14.9 14.9 27.3 27.3 35.9 38.5c9 11.8 15.3 24.3 15.3 39.4s-6.3 27.6-15.3 39.4c-8.5 11.2-21 23.6-35.9 38.5l-4.9 4.9c-6.9 6.9-18 6.9-24.9 0s-6.9-18 0-24.9l4-4c16-16 26.7-26.8 33.7-35.9c6.6-8.7 8.1-13.7 8.1-18.1s-1.5-9.4-8.1-18.1c-6.9-9.1-17.7-19.9-33.7-35.9l-4-4c-6.9-6.9-6.9-18 0-24.9zM290.9 98.2c9.4 2.5 15 12.2 12.4 21.6L242.6 346.4c-2.5 9.4-12.2 15-21.6 12.4s-15-12.2-12.4-21.6l60.7-226.7c2.5-9.4 12.2-15 21.6-12.4zM186.3 145.7c-6.9-6.9-18-6.9-24.9 0l-4 4c-.3 .3-.6 .6-.9 .9c-14.9 14.9-27.3 27.3-35.9 38.5c-9 11.8-15.3 24.3-15.3 39.4s6.3 27.6 15.3 39.4c8.5 11.2 21 23.6 35.9 38.5l4.9 4.9c6.9 6.9 18 6.9 24.9 0s6.9-18 0-24.9l-4-4c-16-16-26.7-26.8-33.7-35.9c-6.6-8.7-8.1-13.7-8.1-18.1s1.5-9.4 8.1-18.1c6.9-9.1 17.7-19.9 33.7-35.9l4-4c6.9-6.9 6.9-18 0-24.9z"/></svg>