<svg xmlns="http://www.w3.org/2000/svg" viewBox="0 0 512 512"><!--!Font Awesome Pro 6.6.0 by @fontawesome - https://fontawesome.com License - https://fontawesome.com/license (Commercial License) Copyright 2024 Fonticons, Inc.--><path class="fa-secondary" opacity=".4" d="M106.7 170.5l0 168.4c0 16.2 6.8 31.7 18.8 42.7c32.7 30 73.2 46.7 114.6 50.2c2.7 .2 5.3 .4 8 .5s5.3 .2 8 .2c5.3 0 10.7-.2 16-.7c41.4-3.4 81.8-20.1 114.6-50.2c12-11 18.8-26.5 18.8-42.7l0-24.2-42.7 0c-8.8 0-16-7.2-16-16s7.2-16 16-16l42.7 0 0-32-42.7 0c-8.8 0-16-7.2-16-16s7.2-16 16-16l42.7 0 0-32-42.7 0c-8.8 0-16-7.2-16-16s7.2-16 16-16l42.6 0c-.2-29.8-1.7-46.1-12.5-56.8c-12.5-12.5-32.5-12.5-72.7-12.5l-21.5 0-85.3 0-21.3 0c-40.2 0-60.3 0-72.8 12.5c-12.5 12.5-12.5 32.5-12.5 72.6zm106.7 83.7c0-15.4 16.7-35.9 29.2-49c7.4-7.8 19.5-7.8 26.9 0c12.5 13.2 29.2 33.7 29.2 49c0 24.5-19.1 44.4-42.7 44.4s-42.7-19.9-42.7-44.4z"/><path class="fa-primary" d="M298.7 254.2c0 24.5-19.1 44.4-42.7 44.4s-42.7-19.9-42.7-44.4c0-15.4 16.7-35.9 29.2-49c7.4-7.8 19.5-7.8 26.9 0c12.5 13.2 29.2 33.7 29.2 49zm106.6-99.6H362.7c-8.8 0-16 7.2-16 16s7.2 16 16 16h42.7v-16c0-5.7 0-11.1 0-16zm0 64H362.7c-8.8 0-16 7.2-16 16s7.2 16 16 16h42.7v-32zm0 64H362.7c-8.8 0-16 7.2-16 16s7.2 16 16 16h42.7v-32zM298.7 85.3c0-23.6-19.1-42.7-42.7-42.7s-42.7 19.1-42.7 42.7h85.3zM240 431.7c10.6 .9 21.4 .9 32 0v21.6c0 8.8-7.2 16-16 16s-16-7.2-16-16V431.7z"/></svg>