<svg xmlns="http://www.w3.org/2000/svg" viewBox="0 0 512 512"><!--!Font Awesome Pro 6.6.0 by @fontawesome - https://fontawesome.com License - https://fontawesome.com/license (Commercial License) Copyright 2024 Fonticons, Inc.--><path class="fa-secondary" opacity=".4" d="M42.7 298.7c0 80.5 0 120.7 25 145.7s65.2 25 145.7 25l85.3 0 .5 0c80.1 0 120.3 0 145.2-25c25-25 25-65.2 25-145.7l0-.5c0-80.2 0-120.3-25-145.2c-25-25-65.2-25-145.7-25L272 128l-32 0-26.7 0-.5 0c-80.1 0-120.3 0-145.2 25c-25 25-25 65.2-25 145.7zm69.3 0c0-8.8 7.2-16 16-16l22.4 0c2.4 0 4.3-1.9 4.3-4.3l0-22.4c0-8.8 7.2-16 16-16s16 7.2 16 16l0 22.4c0 2.4 1.9 4.3 4.3 4.3l22.4 0c8.8 0 16 7.2 16 16s-7.2 16-16 16l-22.4 0c-2.4 0-4.3 1.9-4.3 4.3l0 22.4c0 8.8-7.2 16-16 16s-16-7.2-16-16l0-22.4c0-2.4-1.9-4.3-4.3-4.3l-22.4 0c-8.8 0-16-7.2-16-16zm229.3-32a21.3 21.3 0 1 1 -42.7 0 21.3 21.3 0 1 1 42.7 0zm42.7 64a21.3 21.3 0 1 1 -42.7 0 21.3 21.3 0 1 1 42.7 0z"/><path class="fa-primary" d="M186.7 256c0-8.8-7.2-16-16-16s-16 7.2-16 16v22.4c0 2.4-1.9 4.3-4.3 4.3H128c-8.8 0-16 7.2-16 16s7.2 16 16 16h22.4c2.4 0 4.3 1.9 4.3 4.3v22.4c0 8.8 7.2 16 16 16s16-7.2 16-16V318.9c0-2.4 1.9-4.3 4.3-4.3h22.4c8.8 0 16-7.2 16-16s-7.2-16-16-16H190.9c-2.4 0-4.3-1.9-4.3-4.3V256zM320 288a21.3 21.3 0 1 0 0-42.7 21.3 21.3 0 1 0 0 42.7zm21.3 42.7a21.3 21.3 0 1 1 42.7 0 21.3 21.3 0 1 1 -42.7 0zM336 42.7c0-8.8-7.2-16-16-16s-16 7.2-16 16V64c0 2.9-2.4 5.3-5.3 5.3H277.3C256.7 69.3 240 86 240 106.7V128h32V106.7c0-2.9 2.4-5.3 5.3-5.3h21.3c20.6 0 37.3-16.7 37.3-37.3V42.7z"/></svg>