<svg xmlns="http://www.w3.org/2000/svg" viewBox="0 0 512 512"><!--!Font Awesome Pro 6.5.2 by @fontawesome - https://fontawesome.com License - https://fontawesome.com/license (Commercial License) Copyright 2024 Fonticons, Inc.--><path class="fa-secondary" opacity=".4" d="M26.7 234.7c0 8.8 7.2 16 16 16l352 0c50.1 0 90.7-40.6 90.7-90.7s-40.6-90.7-90.7-90.7s-90.7 40.6-90.7 90.7l0 10.7c0 8.8 7.2 16 16 16s16-7.2 16-16l0-10.7c0-32.4 26.3-58.7 58.7-58.7s58.7 26.3 58.7 58.7s-26.3 58.7-58.7 58.7l-352 0c-8.8 0-16 7.2-16 16zm42.7 64c0 8.8 7.2 16 16 16l309.3 0c32.4 0 58.7 26.3 58.7 58.7s-26.3 58.7-58.7 58.7s-58.7-26.3-58.7-58.7l0-10.7c0-8.8-7.2-16-16-16s-16 7.2-16 16l0 10.7c0 50.1 40.6 90.7 90.7 90.7s90.7-40.6 90.7-90.7s-40.6-90.7-90.7-90.7l-309.3 0c-8.8 0-16 7.2-16 16z"/><path class="fa-primary" d="M133.3 117.3c0-38.3 31-69.3 69.3-69.3S272 79 272 117.3s-31 69.3-69.3 69.3L64 186.7c-8.8 0-16-7.2-16-16s7.2-16 16-16l138.7 0c20.6 0 37.3-16.7 37.3-37.3S223.3 80 202.7 80s-37.3 16.7-37.3 37.3l0 7.6c0 8.8-7.2 16-16 16s-16-7.2-16-16z"/></svg>