<svg xmlns="http://www.w3.org/2000/svg" viewBox="0 0 512 512"><!--!Font Awesome Pro 6.6.0 by @fontawesome - https://fontawesome.com License - https://fontawesome.com/license (Commercial License) Copyright 2024 Fonticons, Inc.--><path class="fa-secondary" opacity=".4" d="M307.2 86.2c.3-.3 .6-.6 .8-.8c6-6.1 12.1-12.1 18.1-18.1c16.4-16.4 37.9-24.6 59.3-24.6s42.9 8.2 59.3 24.6s24.6 37.9 24.6 59.3s-8.2 42.9-24.6 59.3c-6.3 6.3-12.6 12.6-18.9 18.9c-.8-.3-1.6-.5-2.4-.8c-20-6.9-46.2-20-70.8-44.6S314.9 108.5 308 88.5c-.3-.8-.5-1.6-.8-2.4z"/><path class="fa-primary" d="M308 85.4l-.8 .8c.3 .8 .5 1.6 .8 2.4c6.9 20 20 46.2 44.6 70.8s50.8 37.7 70.8 44.6c.8 .3 1.6 .5 2.3 .8L243.2 387.4c-12.3 12.3-18.5 18.5-25.3 23.8c-8 6.2-16.7 11.6-25.8 16c-7.8 3.7-16 6.5-32.6 12l-87.1 29c-8.1 2.7-17.1 .6-23.2-5.5s-8.2-15-5.5-23.2l29-87.1c5.5-16.5 8.3-24.8 12-32.6c4.4-9.2 9.7-17.8 16-25.8c5.3-6.8 11.5-12.9 23.8-25.3L308 85.4z"/></svg>