<svg xmlns="http://www.w3.org/2000/svg" viewBox="0 0 512 512"><!--!Font Awesome Pro 6.6.0 by @fontawesome - https://fontawesome.com License - https://fontawesome.com/license (Commercial License) Copyright 2024 Fonticons, Inc.--><path class="fa-secondary" opacity=".4" d="M42.7 106.6l0 237.8c0 23.7 19.3 42.9 43 44.4c20.7 1.3 45 3.8 63.7 8.8c10.4 2.7 25.9 9.2 40 15.5c21.4 9.6 43.8 17 66.7 22c0-108 0-215.9 0-323.8c-7.1-1.4-22.6-3.4-36.6-7.2c-28.7-7.7-47.6-23.7-70-29.6c-18.9-5-43.5-7.5-64.4-8.8c-.8-.1-1.7-.1-2.5-.1c-22.2 0-39.8 18.5-39.8 41.1zm48 85.4c0-1.3 .2-2.6 .5-3.9c2.1-8.6 10.8-13.8 19.4-11.6l85.3 21.3c8.6 2.1 13.8 10.8 11.6 19.4s-10.8 13.8-19.4 11.6l-85.3-21.3c-7.3-1.8-12.1-8.3-12.1-15.5zm0 85.3c0-1.3 .2-2.6 .5-3.9c2.1-8.6 10.8-13.8 19.4-11.6l85.3 21.3c8.6 2.1 13.8 10.8 11.6 19.4s-10.8 13.8-19.4 11.6l-85.3-21.3c-7.3-1.8-12.1-8.3-12.1-15.5z"/><path class="fa-primary" d="M304 95.6l0 65.2c0 2.4 0 5.8 .4 8.7c.6 3.6 2.4 10.4 9.5 14.6c6.8 4 13.5 2.5 16.7 1.5c2.8-.9 5.8-2.3 8.1-3.4l24-11.4 24 11.4c2.3 1.1 5.3 2.5 8.1 3.4c3.2 1 9.9 2.5 16.7-1.5c7.1-4.2 8.9-11 9.5-14.6c.5-2.9 .4-6.3 .4-8.7l0-96.1c2.4-.1 4.8-.2 7.1-.3c22.9-.8 40.9 18 40.9 40.9l0 239.2c0 23.7-19.3 42.9-43 44.4c-20.7 1.3-45 3.8-63.7 8.8c-23.1 6.1-42.4 22.8-71.9 30.6c-13.4 3.6-28.3 5.5-34.7 6.9l0-324.7c6.8-1.7 29.5-4.3 35.7-7.9c3.9-2.3 8.1-4.6 12.3-6.9zM420.9 273.5c-2.1-8.6-10.8-13.8-19.4-11.6l-85.3 21.3c-8.6 2.1-13.8 10.8-11.6 19.4s10.8 13.8 19.4 11.6l85.3-21.3c8.6-2.1 13.8-10.8 11.6-19.4zM389.3 67.2c-13.2 1.6-26.2 3.9-37.3 7.2c-5.2 1.5-10.5 3.5-16 5.7v4.1V148l16-7.6 .2-.1c1-.5 5.5-2.8 10.5-2.8c1 0 2 .1 2.9 .2c3.7 .6 6.7 2.1 7.5 2.5l.2 .1 16 7.6V77.8 67.2zM91.1 273.5c2.1-8.6 10.8-13.8 19.4-11.6l85.3 21.3c8.6 2.1 13.8 10.8 11.6 19.4s-10.8 13.8-19.4 11.6l-85.3-21.3C94.2 290.7 89 282 91.1 273.5zm19.4-97c-8.6-2.1-17.3 3.1-19.4 11.6s3.1 17.3 11.6 19.4l85.3 21.3c8.6 2.1 17.3-3.1 19.4-11.6s-3.1-17.3-11.6-19.4l-85.3-21.3z"/></svg>