<svg xmlns="http://www.w3.org/2000/svg" viewBox="0 0 512 512"><!--!Font Awesome Pro 6.6.0 by @fontawesome - https://fontawesome.com License - https://fontawesome.com/license (Commercial License) Copyright 2024 Fonticons, Inc.--><path class="fa-secondary" opacity=".4" d="M89.1 105.1c0-4.1 1.6-8.2 4.7-11.3s7.2-4.7 11.3-4.7s8.2 1.6 11.3 4.7l8.4 8.4c6.2 6.2 6.2 16.4 0 22.6s-16.4 6.2-22.6 0l-8.4-8.4c-3.1-3.1-4.7-7.2-4.7-11.3zm1.5 300.2c0-8.8 7.2-16 16-16l298.7 0c8.8 0 16 7.2 16 16s-7.2 16-16 16l-298.7 0c-8.8 0-16-7.2-16-16zM112 256c0-74.1 56-135.2 128-143.1L240 224l-15.4-15.4c-6.2-6.2-16.4-6.2-22.6 0s-6.2 16.4 0 22.6l42.7 42.7c6.2 6.2 16.4 6.2 22.6 0L310 231.3c6.2-6.2 6.2-16.4 0-22.6s-16.4-6.2-22.6 0L272 224l0-111.1c72 8 128 69 128 143.1c0 25.1-6.4 48.8-17.8 69.3c-84.2 0-168.3 0-252.5 0C118.4 304.8 112 281.1 112 256zM387.1 102.2l8.4-8.4c6.2-6.2 16.4-6.2 22.6 0c3.1 3.1 4.7 7.2 4.7 11.3s-1.6 8.2-4.7 11.3l-8.4 8.4c-6.2 6.2-16.4 6.2-22.6 0s-6.2-16.4 0-22.6z"/><path class="fa-primary" d="M154.7 469.3c0-8.8 7.2-16 16-16l170.7 0c8.8 0 16 7.2 16 16s-7.2 16-16 16l-170.7 0c-8.8 0-16-7.2-16-16zM256 26.7c8.8 0 16 7.2 16 16L272 64c0 8.8-7.2 16-16 16s-16-7.2-16-16l0-21.3c0-8.8 7.2-16 16-16zM26.7 256c0-8.8 7.2-16 16-16L64 240c8.8 0 16 7.2 16 16s-7.2 16-16 16l-21.3 0c-8.8 0-16-7.2-16-16zM432 256c0-8.8 7.2-16 16-16l21.3 0c8.8 0 16 7.2 16 16s-7.2 16-16 16L448 272c-8.8 0-16-7.2-16-16zm-49.8 69.3l-252.5 0-87.1 0c-8.8 0-16 7.2-16 16s7.2 16 16 16l426.7 0c8.8 0 16-7.2 16-16s-7.2-16-16-16l-87.1 0zM244.7 273.9c6.2 6.2 16.4 6.2 22.6 0L310 231.3c6.2-6.2 6.2-16.4 0-22.6s-16.4-6.2-22.6 0L272 224V112.9c-9.5-1.5-25.3-.6-32 0V224l-15.4-15.4c-6.2-6.2-16.4-6.2-22.6 0s-6.2 16.4 0 22.6l42.7 42.7z"/></svg>