<svg xmlns="http://www.w3.org/2000/svg" viewBox="0 0 512 512"><!--!Font Awesome Pro 6.6.0 by @fontawesome - https://fontawesome.com License - https://fontawesome.com/license (Commercial License) Copyright 2024 Fonticons, Inc.--><path class="fa-secondary" opacity=".4" d="M26.7 170.7c0-4.1 1.6-8.2 4.7-11.3c6.2-6.2 16.4-6.2 22.6 0L64.6 170c6.2 6.2 6.2 16.4 0 22.6s-16.4 6.2-22.6 0L31.4 182c-3.1-3.1-4.7-7.2-4.7-11.3zM74 74c6.2-6.2 16.4-6.2 22.6 0L150 127.4c6.2 6.2 6.2 16.4 0 22.6s-16.4 6.2-22.6 0L74 96.6c-6.2-6.2-6.2-16.4 0-22.6zM84.7 212.7c6.2-6.2 16.4-6.2 22.6 0l32 32c6.2 6.2 6.2 16.4 0 22.6c-3.1 3.1-7.2 4.7-11.3 4.7s-8.2-1.6-11.3-4.7l-32-32c-6.2-6.2-6.2-16.4 0-22.6zM191.4 42c3.1-3.1 7.2-4.7 11.3-4.7s8.2 1.6 11.3 4.7l42.7 42.7c6.2 6.2 6.2 16.4 0 22.6s-16.4 6.2-22.6 0L191.4 64.6c-6.2-6.2-6.2-16.4 0-22.6zM266 116.7c6.2-6.2 16.4-6.2 22.6 0l10.7 10.7c3.1 3.1 4.7 7.2 4.7 11.3s-1.6 8.2-4.7 11.3c-6.2 6.2-16.4 6.2-22.6 0L266 139.3c-6.2-6.2-6.2-16.4 0-22.6z"/><path class="fa-primary" d="M314.1 174c33.1-19.6 49.6-29.4 61.8-22.4s11.9 26 11.3 64.2l-.1 9.9c-.2 10.9-.2 16.3 1.8 21s5.9 8.3 13.7 15.5l7.1 6.5c27.4 25.1 41.1 37.7 37.9 51.8s-21.2 20.4-57.3 33l-9.3 3.3c-10.2 3.6-15.4 5.4-19.3 9s-6.2 8.6-10.8 18.6l-4.2 9.1c-16.1 35.1-24.2 52.7-38.3 54.4s-25-13.4-46.7-43.8l-5.6-7.9c-6.2-8.6-9.2-12.9-13.7-15.5s-9.8-3-20.4-4l-9.7-.9c-37.4-3.4-56.1-5.1-61.6-18.1s5.8-28.7 28.4-60.1l5.9-8.1c6.4-8.9 9.6-13.4 10.8-18.6s.2-10.5-1.8-21l-1.8-9.6c-7-37.2-10.5-55.9 .2-65.7s28.6-4.3 64.2 6.7l9.2 2.8c10.1 3.1 15.2 4.7 20.4 4s9.9-3.4 19.3-9l8.6-5.1z"/></svg>