<svg xmlns="http://www.w3.org/2000/svg" viewBox="0 0 512 512"><!--!Font Awesome Pro 6.6.0 by @fontawesome - https://fontawesome.com License - https://fontawesome.com/license (Commercial License) Copyright 2024 Fonticons, Inc.--><path class="fa-secondary" opacity=".4" d="M70.4 303.5c-2.4 6.2-.8 13.1 4.1 17.6l128 117.3c4.7 4.3 11.4 5.4 17.3 2.9s9.6-8.3 9.6-14.6l0-341.3c0-8.8-7.2-16-16-16s-16 7.2-16 16l0 208-112 0c-6.6 0-12.5 4.1-14.9 10.2z"/><path class="fa-primary" d="M426.7 218.7c6.6 0 12.5-4 14.9-10.2s.8-13.1-4.1-17.6L309.5 73.5c-4.7-4.3-11.4-5.4-17.3-2.9s-9.6 8.3-9.6 14.6l0 341.3c0 8.8 7.2 16 16 16s16-7.2 16-16l0-208 112 0z"/></svg>