<svg xmlns="http://www.w3.org/2000/svg" viewBox="0 0 512 512"><!--!Font Awesome Pro 6.6.0 by @fontawesome - https://fontawesome.com License - https://fontawesome.com/license (Commercial License) Copyright 2024 Fonticons, Inc.--><path class="fa-secondary" opacity=".4" d="M42.7 123.8c0 3.9 1.4 7.8 4.2 10.9l15.8 17.3c3.1 3.4 7.4 5.3 12 5.3s8.9-1.9 12-5.3l15.8-17.3c6-6.6 5.6-16.8-1-22.9c-2.6-2.3-5.7-3.7-8.9-4.1c6.6-31.8 32.4-54 61.1-54c18.2 0 34.9 8.7 46.7 23.3c5.6 7 15.8 8.1 22.8 2.5s8.1-15.8 2.5-22.7c-17.2-21.4-42.9-35.4-72-35.4c-48.6 0-86.8 38.4-93.9 86.3c-4.2-.2-8.4 1.2-11.7 4.2c-3.5 3.2-5.3 7.6-5.3 12zm59.5 178.7l0 37c0 81.3 0 122 25.3 147.3S193.5 512 275.1 512l.5 0c81.2 0 121.8-.1 147.1-25.3C448 461.5 448 420.8 448 339.5l0-86.3 0-.6c0-80.9-.1-121.4-25.3-146.6c-19.6-19.5-48.4-24-98.1-25c-5.5-.1-8.3-.2-10.7 .3c-8.1 1.7-14.8 8.2-16.6 16.3c-.6 2.4-.6 5.2-.6 10.9c0 34.3 0 51.5-3.2 65.6c-11.1 48.5-49 86.4-97.7 97.4c-14.2 3.2-31.4 3.2-65.9 3.2c-5.7 0-8.6 0-11 .5c-8.1 1.8-14.4 8.2-16.3 16.2c-.5 2.4-.5 5.2-.5 11zM194 447.3c0-8.9 7.3-16.2 16.2-16.2l129.7 0c9 0 16.2 7.2 16.2 16.2s-7.3 16.2-16.2 16.2l-129.7 0c-9 0-16.2-7.2-16.2-16.2z"/><path class="fa-primary" d="M237.7 90.4c4.6 0 8.9 1.9 12 5.3l15.8 17.3c6 6.6 5.6 16.8-1 22.9c-3.3 3-7.5 4.4-11.7 4.2c-7.1 47.9-45.4 86.3-93.9 86.3c-27 0-51.2-12.1-68.3-31.1c-6-6.6-5.4-16.9 1.2-22.8s16.9-5.4 22.9 1.2c11.5 12.8 27.2 20.4 44.2 20.4c28.7 0 54.5-22.2 61.1-54c-3.2-.4-6.3-1.8-8.9-4.1c-6.6-6-7.1-16.3-1-22.9l15.8-17.3c3.1-3.4 7.4-5.3 12-5.3zM194 447.3c0-8.9 7.3-16.2 16.2-16.2H339.9c9 0 16.2 7.2 16.2 16.2s-7.3 16.2-16.2 16.2H210.2c-9 0-16.2-7.2-16.2-16.2z"/></svg>