<svg xmlns="http://www.w3.org/2000/svg" viewBox="0 0 512 512"><!--!Font Awesome Pro 6.6.0 by @fontawesome - https://fontawesome.com License - https://fontawesome.com/license (Commercial License) Copyright 2024 Fonticons, Inc.--><path class="fa-secondary" opacity=".4" d="M42.7 148.3l0 150.4 0 5.3 185.5 0-48.2-35.1c-7.1-5.2-8.7-15.2-3.5-22.4c3.1-4.3 8-6.6 13-6.6c3.3 0 6.6 1 9.4 3.1l88 64c4.1 3 6.6 7.8 6.6 12.9s-2.4 9.9-6.6 12.9l-88 64c-7.1 5.2-17.2 3.6-22.4-3.5s-3.6-17.2 3.5-22.4L228.1 336 42.8 336c.6 56.2 4.1 87.6 24.9 108.3c24.9 24.9 65.1 25 145.2 25l.5 0 85.3 0c80.5 0 120.7 0 145.7-25c24.9-24.9 25-65.1 25-145.2l0-.5 0-47c0-56.2 0-84.2-16.4-102.5c-1.5-1.7-3.1-3.3-4.8-4.8C429.9 128 401.8 128 345.6 128l-8 0c-24.6 0-36.9 0-48.4-3.3c-6.3-1.8-12.4-4.3-18.1-7.5c-10.4-5.8-19.1-14.5-36.5-31.9L222.9 73.6c-5.8-5.8-8.8-8.7-11.8-11.3c-13.2-11-29.4-17.7-46.5-19.3c-4-.4-8.1-.4-16.3-.4c-18.8 0-28.2 0-36.1 1.5c-34.5 6.5-61.5 33.5-68 68c-1.5 7.8-1.5 17.3-1.5 36.1z"/><path class="fa-primary" d="M198.7 243.1c-7.1-5.2-17.2-3.6-22.4 3.5s-3.6 17.2 3.5 22.4L228.1 304H42.7l.1 32H228.1l-48.2 35.1c-7.1 5.2-8.7 15.2-3.5 22.4s15.2 8.7 22.4 3.5l88-64c4.1-3 6.6-7.8 6.6-12.9s-2.4-9.9-6.6-12.9l-88-64z"/></svg>