<svg xmlns="http://www.w3.org/2000/svg" viewBox="0 0 512 512"><!--!Font Awesome Pro 6.6.0 by @fontawesome - https://fontawesome.com License - https://fontawesome.com/license (Commercial License) Copyright 2024 Fonticons, Inc.--><path class="fa-secondary" opacity=".4" d="M85.3 256L240 256l0 42.7c0 8.8 7.2 16 16 16s16-7.2 16-16l0-42.7 154.7 0c0 94.3-76.4 170.7-170.7 170.7s-170.7-76.4-170.7-170.7z"/><path class="fa-primary" d="M331.3 160.6c-6.2 6.2-16.4 6.2-22.6 0L272 124l0 174.7c0 8.8-7.2 16-16 16s-16-7.2-16-16L240 124l-36.7 36.7c-6.2 6.2-16.4 6.2-22.6 0s-6.2-16.4 0-22.6l64-64c6.2-6.2 16.4-6.2 22.6 0l64 64c6.2 6.2 6.2 16.4 0 22.6z"/></svg>