<svg xmlns="http://www.w3.org/2000/svg" viewBox="0 0 512 512"><!--!Font Awesome Pro 6.6.0 by @fontawesome - https://fontawesome.com License - https://fontawesome.com/license (Commercial License) Copyright 2024 Fonticons, Inc.--><path class="fa-secondary" opacity=".4" d="M227.5 152.5c0 6.3 3.7 12.2 9.9 14.8c8.2 3.4 17.5-.5 20.9-8.7C273.6 121.8 309.8 96 352 96s78.4 25.8 93.7 62.6c3.4 8.2 12.7 12 20.9 8.7s12-12.7 8.7-20.9C455.2 98 407.6 64 352 64s-103.2 34-123.2 82.3c-.8 2-1.2 4.1-1.2 6.1zm47.7 22.4c-2.5 8.5 2.4 17.4 10.9 19.8s17.4-2.4 19.8-10.9c5.8-20 24.3-34.5 46.1-34.5s40.3 14.6 46.1 34.5c2.5 8.5 11.4 13.4 19.8 10.9s13.4-11.4 10.9-19.8c-9.7-33.2-40.4-57.6-76.8-57.6s-67.1 24.3-76.8 57.6z"/><path class="fa-primary" d="M42.7 336c0-40.2 0-60.3 12.5-72.8s32.6-12.5 72.8-12.5l256 0c40.2 0 60.3 0 72.8 12.5s12.5 32.6 12.5 72.8s0 60.3-12.5 72.8s-32.6 12.5-72.8 12.5l-256 0c-40.2 0-60.3 0-72.8-12.5S42.7 376.2 42.7 336zM128 357.3a21.3 21.3 0 1 0 0-42.7 21.3 21.3 0 1 0 0 42.7zm64 0a21.3 21.3 0 1 0 0-42.7 21.3 21.3 0 1 0 0 42.7zM368 186.7c0-8.8-7.2-16-16-16s-16 7.2-16 16v64h32v-64z"/></svg>