<svg xmlns="http://www.w3.org/2000/svg" viewBox="0 0 512 512"><!--!Font Awesome Pro 6.6.0 by @fontawesome - https://fontawesome.com License - https://fontawesome.com/license (Commercial License) Copyright 2024 Fonticons, Inc.--><path class="fa-secondary" opacity=".4" d="M42.7 256a213.3 213.3 0 1 0 426.7 0A213.3 213.3 0 1 0 42.7 256zM112 213.3c0-2.1 .4-4.2 1.3-6.2c3.4-8.1 12.8-11.9 21-8.5c.4 .1 .5 .2 .7 .3c.5 .2 1.3 .5 2.4 1c2.1 .8 5.1 2 9 3.5c7.7 2.9 18.5 6.8 30.8 10.7c25.1 7.9 55.2 15.3 78.9 15.3s53.8-7.4 78.9-15.3c12.4-3.9 23.1-7.8 30.8-10.7c3.8-1.5 6.9-2.7 9-3.5c1-.4 1.8-.7 2.4-1c.2-.1 .4-.2 .7-.3c8.1-3.4 17.5 .3 21 8.5s-.4 17.5-8.5 21l-.2 .1-.7 .3c-.6 .3-1.5 .6-2.6 1.1c-2.3 .9-5.5 2.2-9.6 3.7c-8.1 3.1-19.5 7.2-32.6 11.3c-21.1 6.6-47.7 13.6-72.5 16l0 26.4c0 9.2 2.6 18.2 7.6 26l53.8 83.7c4.8 7.4 2.6 17.3-4.8 22.1s-17.3 2.6-22.1-4.8L256 335.4 205.5 414c-4.8 7.4-14.7 9.6-22.1 4.8s-9.6-14.7-4.8-22.1l53.8-83.7c5-7.7 7.6-16.8 7.6-26l0-26.4c-24.8-2.3-51.4-9.3-72.5-16c-13.1-4.1-24.5-8.2-32.6-11.3c-4.1-1.5-7.3-2.8-9.6-3.7c-1.1-.5-2-.8-2.6-1.1l-.7-.3c-.1 0-.1-.1-.3-.1c-6.1-2.6-9.8-8.5-9.8-14.7zm186.7-64a42.7 42.7 0 1 1 -85.3 0 42.7 42.7 0 1 1 85.3 0z"/><path class="fa-primary" d="M256 192a42.7 42.7 0 1 0 0-85.3 42.7 42.7 0 1 0 0 85.3zm-121.8 6.6c-8.1-3.4-17.5 .4-21 8.5s.3 17.5 8.5 21l0 0 .1 0 .2 .1 .7 .3c.6 .3 1.5 .6 2.6 1.1c2.3 .9 5.5 2.2 9.6 3.7c8.1 3.1 19.5 7.2 32.6 11.3c21.1 6.6 47.7 13.6 72.5 16V287c0 9.2-2.6 18.2-7.6 26l-53.8 83.7c-4.8 7.4-2.6 17.3 4.8 22.1s17.3 2.6 22.1-4.8L256 335.4 306.5 414c4.8 7.4 14.7 9.6 22.1 4.8s9.6-14.7 4.8-22.1l-53.8-83.7c-5-7.7-7.6-16.8-7.6-26V260.5c24.8-2.3 51.4-9.3 72.5-16c13.1-4.1 24.5-8.2 32.6-11.3c4.1-1.5 7.3-2.8 9.6-3.7c1.1-.5 2-.8 2.6-1.1l.7-.3 .2-.1 .1 0 0 0c8.1-3.4 11.9-12.8 8.5-21s-12.8-11.9-21-8.5l-.2 .1-.6 .2c-.5 .2-1.3 .5-2.4 1c-2.1 .8-5.1 2-9 3.5c-7.7 2.9-18.5 6.8-30.8 10.7c-25.1 7.9-55.2 15.3-78.9 15.3s-53.8-7.4-78.9-15.3c-12.4-3.9-23.1-7.8-30.8-10.7c-3.8-1.5-6.9-2.7-9-3.5c-1-.4-1.8-.7-2.4-1l-.6-.2-.1-.1 0 0z"/></svg>