<svg xmlns="http://www.w3.org/2000/svg" viewBox="0 0 512 512"><!--!Font Awesome Pro 6.6.0 by @fontawesome - https://fontawesome.com License - https://fontawesome.com/license (Commercial License) Copyright 2024 Fonticons, Inc.--><path class="fa-secondary" opacity=".4" d="M58.5 427.3c0 17.2 3.4 29.9 12 40.2c19.2 23.1 54.9 23.1 126.4 23.1l118.2 0 .4 0c71.2 0 106.8 0 125.9-23.1c19.2-23.1 12.6-58.2-.6-128.5l-16-85.3c-9.4-49.9-14-74.9-31.8-89.7s-43.2-14.8-94-14.8l-86.2 0c-50.8 0-76.2 0-94 14.8s-22.5 39.7-31.8 89.7l-16 85.3c-7.3 38.9-12.6 67-12.6 88.3zm122-80.7c-2.9-8.3 1.4-17.5 9.8-20.4s17.5 1.4 20.4 9.8c6.6 18.7 24.4 32 45.3 32s38.7-13.3 45.3-32c2.9-8.3 12.1-12.7 20.4-9.8s12.7 12.1 9.8 20.4c-11 31.1-40.6 53.3-75.4 53.3s-64.5-22.3-75.4-53.3z"/><path class="fa-primary" d="M208 127.7c0-26.5 21.5-48 48-48s48 21.5 48 48V149c12.1 0 22.7 0 32 .3c0-.1 0-.2 0-.3V127.7c0-44.2-35.8-80-80-80s-80 35.8-80 80V149c0 .1 0 .2 0 .3c9.3-.3 19.9-.3 32-.3V127.7zM210.7 336c6.6 18.7 24.4 32 45.3 32s38.7-13.3 45.3-32c2.9-8.3 12.1-12.7 20.4-9.8s12.7 12.1 9.8 20.4c-11 31.1-40.6 53.3-75.4 53.3s-64.5-22.3-75.4-53.3c-2.9-8.3 1.4-17.5 9.8-20.4s17.5 1.4 20.4 9.8z"/></svg>