<svg xmlns="http://www.w3.org/2000/svg" viewBox="0 0 512 512"><!--!Font Awesome Pro 6.6.0 by @fontawesome - https://fontawesome.com License - https://fontawesome.com/license (Commercial License) Copyright 2024 Fonticons, Inc.--><path class="fa-secondary" opacity=".4" d="M42.7 256c0 100.6 0 150.9 31.2 182.1s81.5 31.2 182.1 31.2s150.9 0 182.1-31.2s31.2-81.5 31.2-182.1l0-.8c0-100.1-.1-150.2-31.2-181.3C406.9 42.7 356.6 42.7 256 42.7s-150.8 0-182.1 31.2S42.7 155.4 42.7 256zm69.3 0c0-18.8 3.7-37.6 11-55.1c10.9-26.3 29.4-48.8 53-64.6s51.5-24.3 80-24.3c8.8 0 16 7.2 16 16s-7.2 16-16 16c-22.2 0-43.8 6.6-62.2 18.9s-32.8 29.8-41.3 50.3s-10.7 43-6.4 64.7s15 41.7 30.7 57.3s35.6 26.3 57.3 30.7s44.2 2.1 64.7-6.4s38-22.8 50.3-41.3S368 278.2 368 256c0-8.8 7.2-16 16-16s16 7.2 16 16c0 28.5-8.4 56.3-24.3 80s-38.3 42.1-64.6 53s-55.3 13.8-83.2 8.2s-53.6-19.3-73.7-39.4s-33.9-45.8-39.4-73.7c-1.8-9.3-2.8-18.7-2.8-28.1zm96 0c0-8.8 7.2-16 16-16l16 0 0-16c0-8.8 7.2-16 16-16s16 7.2 16 16l0 16 16 0c8.8 0 16 7.2 16 16s-7.2 16-16 16l-16 0 0 16c0 8.8-7.2 16-16 16s-16-7.2-16-16l0-16-16 0c-8.8 0-16-7.2-16-16zm76-127c3.5-8.1 12.9-11.9 21-8.4c38.8 16.6 69.8 47.7 86.5 86.5c3.5 8.1-.3 17.5-8.4 21s-17.5-.3-21-8.4c-13.4-31.2-38.4-56.3-69.7-69.7c-8.1-3.5-11.9-12.9-8.4-21z"/><path class="fa-primary" d="M227.9 397.2c27.9 5.6 56.9 2.7 83.2-8.2s48.8-29.4 64.6-53s24.3-51.5 24.3-80c0-8.8-7.2-16-16-16s-16 7.2-16 16c0 22.2-6.6 43.8-18.9 62.2s-29.8 32.8-50.3 41.3s-43 10.7-64.7 6.4s-41.7-15-57.3-30.7s-26.3-35.6-30.7-57.3s-2.1-44.2 6.4-64.7s22.8-38 41.3-50.3S233.8 144 256 144c8.8 0 16-7.2 16-16s-7.2-16-16-16c-28.5 0-56.3 8.4-80 24.3s-42.1 38.3-53 64.6s-13.8 55.3-8.2 83.2s19.3 53.6 39.4 73.7s45.8 33.9 73.7 39.4zM284 129c3.5-8.1 12.9-11.9 21-8.4c38.8 16.6 69.8 47.7 86.5 86.5c3.5 8.1-.3 17.5-8.4 21s-17.5-.3-21-8.4c-13.4-31.2-38.4-56.3-69.7-69.7c-8.1-3.5-11.9-12.9-8.4-21zm-28 79c8.8 0 16 7.2 16 16v16h16c8.8 0 16 7.2 16 16s-7.2 16-16 16H272v16c0 8.8-7.2 16-16 16s-16-7.2-16-16V272H224c-8.8 0-16-7.2-16-16s7.2-16 16-16h16V224c0-8.8 7.2-16 16-16z"/></svg>