<svg xmlns="http://www.w3.org/2000/svg" viewBox="0 0 512 512"><!--!Font Awesome Pro 6.6.0 by @fontawesome - https://fontawesome.com License - https://fontawesome.com/license (Commercial License) Copyright 2024 Fonticons, Inc.--><path class="fa-secondary" opacity=".4" d="M106.7 192l0 128c0 59.9 0 89.9 14.4 111.4c6.2 9.3 14.2 17.3 23.5 23.5c21.5 14.4 51.4 14.4 111 14.4l.4 0c59.9 0 89.9 0 111.4-14.4c9.3-6.2 17.3-14.2 23.5-23.5c14.4-21.5 14.4-51.4 14.4-111.1l0-.3 0-128c0-59.9 0-89.9-14.4-111.4c-6.2-9.3-14.2-17.3-23.5-23.5C345.9 42.7 315.9 42.7 256 42.7s-89.9 0-111.4 14.4c-9.3 6.2-17.3 14.2-23.5 23.5c-14.4 21.5-14.4 51.5-14.4 111.4zm106.7 0a21.3 21.3 0 1 1 -42.7 0 21.3 21.3 0 1 1 42.7 0zM176 117.3c0-8.8 7.2-16 16-16l128 0c8.8 0 16 7.2 16 16s-7.2 16-16 16l-128 0c-8.8 0-16-7.2-16-16zM336 330.7a80 80 0 1 1 -160 0 80 80 0 1 1 160 0zm-128 0a48 48 0 1 0 96 0 48 48 0 1 0 -96 0zM277.3 192a21.3 21.3 0 1 1 -42.7 0 21.3 21.3 0 1 1 42.7 0zm64 0a21.3 21.3 0 1 1 -42.7 0 21.3 21.3 0 1 1 42.7 0z"/><path class="fa-primary" d="M336 330.7a80 80 0 1 1 -160 0 80 80 0 1 1 160 0zm-128 0a48 48 0 1 0 96 0 48 48 0 1 0 -96 0zM298.7 192a21.3 21.3 0 1 1 42.7 0 21.3 21.3 0 1 1 -42.7 0zM256 213.3a21.3 21.3 0 1 0 0-42.7 21.3 21.3 0 1 0 0 42.7zM170.7 192a21.3 21.3 0 1 1 42.7 0 21.3 21.3 0 1 1 -42.7 0zM192 101.3c-8.8 0-16 7.2-16 16s7.2 16 16 16H320c8.8 0 16-7.2 16-16s-7.2-16-16-16H192z"/></svg>