<svg xmlns="http://www.w3.org/2000/svg" viewBox="0 0 512 512"><!--!Font Awesome Pro 6.6.0 by @fontawesome - https://fontawesome.com License - https://fontawesome.com/license (Commercial License) Copyright 2024 Fonticons, Inc.--><path class="fa-secondary" opacity=".4" d="M90.7 264.5c0 13.9 7.9 26.6 20.3 32.8l52.5 26.3c7.9 4 17.5 .7 21.5-7.2s.7-17.5-7.2-21.5l-52.5-26.3c-1.6-.8-2.6-2.4-2.6-4.2c0-10.9 7-20.7 17.4-24.1l35.7-11.9c8.4-2.8 12.9-11.9 10.1-20.2c-2.2-6.7-8.5-10.9-15.2-10.9c-1.7 0-3.4 .3-5.1 .8L129.9 210c-23.5 7.8-39.3 29.8-39.3 54.5zm24 195.9c-4.9 7.4-2.9 17.3 4.4 22.2c2.7 1.8 5.8 2.7 8.9 2.7c5.2 0 10.2-2.5 13.3-7.1l64-96c4.9-7.4 2.9-17.3-4.4-22.2s-17.3-2.9-22.2 4.4l-64 96z"/><path class="fa-primary" d="M192 96a53.3 53.3 0 1 1 106.7 0A53.3 53.3 0 1 1 192 96zm213.3 58.7c8.8 0 16 7.2 16 16l0 53.2 0 .2 0 245.2c0 8.8-7.2 16-16 16s-16-7.2-16-16l0-211.2c-10.3 8.6-18.6 15.3-27.9 18.7c-13 4.7-27.2 4.7-40.2 0c-9.7-3.5-18.1-10.6-29-19.7c-.7-.5-1.3-1.1-2-1.7l-1.7-1.4c-4.9-4.1-6.9-5.7-10-7.9c-5.5-3.8-16.1-9.2-22.5-11.4c-1.2-.4-2.1-.7-2.7-1c-.1 0-.3-.1-.4-.2c-3.8-.9-6.3-1.5-8.2-1.9c-1.1-.2-1.7-.3-2-.3c-.1 0-.2 .1-.4 .2c-.6 .2-1.3 .6-2 1.1s-1.3 1.1-1.7 1.5c-.2 .2-.3 .4-.3 .4c-.1 .2-.1 .4-.2 1c-.2 1.1-.4 2.6-.7 5.8l-3.5 34.6c-2 19.9-2.2 25.3-.8 29.7c.8 2.6 2 5.1 3.6 7.3c2.7 3.8 7 6.9 24 17.5c.8 .5 1.5 .9 2.2 1.4c17 10.6 28.7 17.9 37.2 28.5c4.3 5.3 7.8 11.1 10.6 17.3c5.6 12.4 6.8 26.2 8.6 46.1c.1 .9 .2 1.7 .2 2.6l3.7 41.3c.8 8.8-5.7 16.6-14.5 17.4s-16.6-5.7-17.4-14.5l-3.7-41.3c-2.1-23.6-3-31.6-6.1-38.4c-1.7-3.7-3.8-7.2-6.4-10.4c-4.7-5.8-11.4-10.3-31.5-22.8c-.8-.5-1.6-1-2.4-1.5c-13.4-8.4-24-15-30.9-24.9c-3.4-4.9-6.1-10.3-7.9-16.1c-3.6-11.5-2.3-23.9-.8-39.7c.1-.9 .2-1.9 .3-2.8l3.5-34.6c0-.3 .1-.7 .1-1c.5-4.9 1-10.3 3.6-16c2.9-6.4 8-11.3 12.7-14.6s11.1-6.4 18.1-7c3.9-.3 7.6 .2 10.8 .8c3.1 .6 6.7 1.5 10.8 2.5l.5 .1c0 0 .2 .1 .4 .1c.1 0 .3 .1 .6 .2c.2 .1 .9 .3 1.8 .7c.1 0 .3 .1 .4 .2c.3 .1 .7 .2 1.1 .4c9.1 3.1 22.5 9.9 30.4 15.4c4.4 3 7.3 5.5 12 9.4l.3 .2 1.7 1.4c13.8 11.5 17.8 14.5 21.5 15.9c5.9 2.2 12.4 2.2 18.3 0c3.7-1.4 7.6-4.3 21.5-15.9l17.4-14.5 0-45.8c0-8.8 7.2-16 16-16zM263.9 233.5l.1 0c-.2 .1-.2 .1-.1 0zm-11.5-29.9c0 0 0 0 0 0c.1 0 .3-.1 .1-.1c0 0-.1 0-.2 .1z"/></svg>