<svg xmlns="http://www.w3.org/2000/svg" viewBox="0 0 512 512"><!--!Font Awesome Pro 6.6.0 by @fontawesome - https://fontawesome.com License - https://fontawesome.com/license (Commercial License) Copyright 2024 Fonticons, Inc.--><path class="fa-secondary" opacity=".4" d="M21.3 256c0-110.6 0-165.9 34.4-200.3C90 21.4 145.1 21.3 255.2 21.3l.8 0c63.3 0 108.4 0 141.9 6.4c-6.3 3.1-12.3 7.2-17.5 12.5l-3.8 3.8c-3.7 3.7-5.3 8.8-4.4 13.9c.6 3.2 1.6 7.9 3.6 13.5c3.9 11.2 11.2 25.9 25 39.7s28.5 21.2 39.7 25c5.6 1.9 10.3 3 13.5 3.6c5.1 .9 10.2-.7 13.9-4.4l3.8-3.8c5.3-5.3 9.4-11.2 12.5-17.6c6.4 33.4 6.4 78.4 6.4 141.3l0 .7c0 110.6 0 165.9-34.4 200.3c-34.3 34.3-89.4 34.4-199.6 34.4l-.7 0c-110.6 0-165.9 0-200.3-34.4C21.4 422 21.3 366.9 21.3 256.8l0-.8zm140.8 76.4c0 4.5 1.8 9 5.1 12.3s7.8 5.1 12.3 5.1c1.8 0 3.7-.3 5.5-.9l24.5-8.2 26.1-8.7 16.4-5.5c12.7-4.2 19.1-6.4 25.1-9.2c7.1-3.4 13.7-7.5 19.9-12.3c5.2-4.1 10-8.8 19.4-18.3L434.7 168.6c2.9-2.9 1.6-7.8-2.3-9.1c-14-4.8-32.1-13.9-49.1-30.9s-26.1-35.1-30.9-49.1c-1.3-3.8-6.2-5.1-9.1-2.3L225.2 195.5c-9.5 9.5-14.2 14.2-18.3 19.4c-4.8 6.2-8.9 12.8-12.3 19.9c-2.9 6-5 12.3-9.2 25.1l-5.5 16.4-8.7 26.1L163 326.9c-.6 1.8-.9 3.7-.9 5.5z"/><path class="fa-primary" d="M297.1 305.1c5.2-4.1 10-8.8 19.4-18.3L434.7 168.6c2.9-2.9 1.6-7.8-2.3-9.1c-14-4.8-32.1-13.9-49.1-30.9s-26.1-35.1-30.9-49.1c-1.3-3.8-6.2-5.1-9.1-2.3L225.2 195.5c-9.5 9.5-14.2 14.2-18.3 19.4c-4.8 6.2-8.9 12.8-12.3 19.9c-2.9 6-5 12.3-9.2 25.1l-5.5 16.4-8.7 26.1L163 326.9c-2.1 6.3-.5 13.2 4.2 17.8s11.6 6.3 17.8 4.2l24.5-8.2 26.1-8.7 16.4-5.5 0 0c12.7-4.2 19.1-6.4 25.1-9.2c7.1-3.4 13.7-7.5 19.9-12.3zM471.7 131.6c25.2-25.2 25.2-66.1 0-91.4s-66.1-25.2-91.4 0l-3.8 3.8c-3.7 3.7-5.3 8.8-4.4 13.9c.6 3.2 1.6 7.9 3.6 13.5c3.9 11.2 11.2 25.9 25 39.7s28.5 21.2 39.7 25c5.6 1.9 10.3 3 13.5 3.6c5.1 .9 10.2-.7 13.9-4.4l3.8-3.8z"/></svg>