<svg xmlns="http://www.w3.org/2000/svg" viewBox="0 0 512 512"><!--!Font Awesome Pro 6.6.0 by @fontawesome - https://fontawesome.com License - https://fontawesome.com/license (Commercial License) Copyright 2024 Fonticons, Inc.--><path class="fa-secondary" opacity=".4" d="M42.7 128l0 256c0 47.1 38.2 85.3 85.3 85.3c23.5 0 44.9-9.5 60.3-25c3.3-3.3 6.3-6.8 9-10.5L282.1 349c16.1-16.8 32.2-33.6 48.3-50.4c25.4-26.5 50.8-53 76.2-79.5c16-16.7 24-38.2 24-59.7c0-22.1-8.4-44.2-25.3-61c-33.7-33.7-88.3-33.7-122 0l-70.1 70.1 0 215.5 0-256c0-47.1-38.2-85.3-85.3-85.3s-85.3 38.2-85.3 85.3zM149.3 384a21.3 21.3 0 1 1 -42.7 0 21.3 21.3 0 1 1 42.7 0z"/><path class="fa-primary" d="M106.7 384a21.3 21.3 0 1 1 42.7 0 21.3 21.3 0 1 1 -42.7 0zm175.4-35l-84.8 84.8c10.1-14 16-31.2 16.1-49.7c-.1 47.1-38.2 85.2-85.3 85.2H381.9c47.1 0 85.3-38.2 85.3-85.3s-38.2-85.3-85.3-85.3H330.4L282.1 349z"/></svg>