<svg xmlns="http://www.w3.org/2000/svg" viewBox="0 0 512 512"><!--!Font Awesome Pro 6.6.0 by @fontawesome - https://fontawesome.com License - https://fontawesome.com/license (Commercial License) Copyright 2024 Fonticons, Inc.--><path class="fa-secondary" opacity=".4" d="M42.7 256c0 100.6 0 150.9 31.2 182.1s81.5 31.2 182.1 31.2s150.9 0 182.1-31.2c31.2-31.2 31.2-81.3 31.2-181.3l0-.8c0-100.6 0-150.8-31.2-182.1S356.6 42.7 256 42.7s-150.8 0-182.1 31.2S42.7 155.4 42.7 256zm112-53.3c0-4.5 1.9-8.8 5.2-11.8l58.7-53.3c3.1-2.8 6.9-4.2 10.8-4.2c4.4 0 8.7 1.8 11.8 5.2c5.9 6.5 5.5 16.7-1.1 22.6l-28 25.5 129.3 0c8.8 0 16 7.2 16 16s-7.2 16-16 16l-129.3 0 28 25.5c6.5 5.9 7 16.1 1.1 22.6s-16.1 7-22.6 1.1l-58.7-53.3c-3.3-3-5.2-7.3-5.2-11.8zm0 106.7c0-8.8 7.2-16 16-16l129.3 0-28-25.5c-6.5-5.9-7-16.1-1.1-22.6s16.1-7 22.6-1.1l58.7 53.3c3.3 3 5.2 7.3 5.2 11.8s-1.9 8.8-5.2 11.8l-58.7 53.3c-3.1 2.8-6.9 4.2-10.8 4.2c-4.4 0-8.7-1.8-11.8-5.2c-5.9-6.5-5.5-16.7 1.1-22.6l28-25.5-129.3 0c-8.8 0-16-7.2-16-16z"/><path class="fa-primary" d="M240.1 244.2c6.5 5.9 7 16.1 1.1 22.6s-16.1 7-22.6 1.1l-58.7-53.3c-3.3-3-5.2-7.3-5.2-11.8s1.9-8.8 5.2-11.8l58.7-53.3c6.5-5.9 16.7-5.5 22.6 1.1s5.5 16.7-1.1 22.6l-28 25.5 129.3 0c8.8 0 16 7.2 16 16s-7.2 16-16 16l-129.3 0 28 25.5zm31.8 106.7c-6.5 5.9-7 16.1-1.1 22.6s16.1 7 22.6 1.1l58.7-53.3c3.3-3 5.2-7.3 5.2-11.8s-1.9-8.8-5.2-11.8l-58.7-53.3c-6.5-5.9-16.7-5.5-22.6 1.1s-5.5 16.7 1.1 22.6l28 25.5H170.7c-8.8 0-16 7.2-16 16s7.2 16 16 16l129.3 0-28 25.5z"/></svg>