<svg xmlns="http://www.w3.org/2000/svg" viewBox="0 0 512 512"><!--!Font Awesome Pro 6.6.0 by @fontawesome - https://fontawesome.com License - https://fontawesome.com/license (Commercial License) Copyright 2024 Fonticons, Inc.--><path class="fa-secondary" opacity=".4" d="M42.7 256c0 100.6 0 150.9 31.2 182.1s81.5 31.2 182.1 31.2s150.9 0 182.1-31.2s31.2-81.5 31.2-182.1l0-.8c0-100.1-.1-150.2-31.2-181.3C406.9 42.7 356.6 42.7 256 42.7s-150.8 0-182.1 31.2S42.7 155.4 42.7 256zM96 254.9c0-19.2 0-35.1 1.7-47.8c1.8-13.4 5.8-25.5 15.5-35.2s21.8-13.7 35.2-15.5c12.7-1.7 28.7-1.7 47.8-1.7l2.2 0c19.2 0 35.1 0 47.8 1.7c13.4 1.8 25.5 5.8 35.2 15.5s13.7 21.8 15.5 35.2c1.7 12.7 1.7 28.7 1.7 47.8l0 1.1c0 8.8-7.2 16-16 16s-16-7.2-16-16c0-20.6 0-34.4-1.4-44.7c-1.3-9.8-3.6-14.1-6.4-16.8s-7-5.1-16.8-6.4c-10.3-1.4-24.1-1.4-44.7-1.4s-34.4 0-44.7 1.4c-9.8 1.3-14.1 3.6-16.8 6.4s-5.1 7-6.4 16.8C128 221.6 128 235.4 128 256s0 34.4 1.4 44.7c1.3 9.8 3.6 14.1 6.4 16.8s7 5.1 16.8 6.4c10.3 1.4 24.1 1.4 44.7 1.4c8.8 0 16 7.2 16 16s-7.2 16-16 16l-1.1 0c-19.2 0-35.2 0-47.8-1.7c-13.4-1.8-25.5-5.8-35.2-15.5s-13.7-21.8-15.5-35.2C96 292.3 96 276.3 96 257.1l0-2.2zM213.3 256c0-8.8 7.2-16 16-16s16 7.2 16 16c0 20.6 0 34.4 1.4 44.7c1.3 9.8 3.6 14.1 6.4 16.8s7 5.1 16.8 6.4c10.3 1.4 24.1 1.4 44.7 1.4s34.4 0 44.7-1.4c9.8-1.3 14.1-3.6 16.8-6.4s5.1-7 6.4-16.8c1.4-10.3 1.4-24.1 1.4-44.7s0-34.4-1.4-44.7c-1.3-9.8-3.6-14.1-6.4-16.8s-7-5.1-16.8-6.4c-10.3-1.4-24.1-1.4-44.7-1.4c-8.8 0-16-7.2-16-16s7.2-16 16-16l1.1 0c19.2 0 35.1 0 47.8 1.7c13.4 1.8 25.5 5.8 35.2 15.5s13.7 21.8 15.5 35.2c1.7 12.7 1.7 28.7 1.7 47.8l0 2.2c0 19.2 0 35.1-1.7 47.8c-1.8 13.4-5.8 25.5-15.5 35.2s-21.8 13.7-35.2 15.5c-12.7 1.7-28.7 1.7-47.8 1.7l-2.2 0c-19.2 0-35.2 0-47.8-1.7c-13.4-1.8-25.5-5.8-35.2-15.5s-13.7-21.8-15.5-35.2c-1.7-12.7-1.7-28.7-1.7-47.8l0-1.1z"/><path class="fa-primary" d="M196.2 154.7h2.2 0c19.2 0 35.1 0 47.8 1.7c13.4 1.8 25.5 5.8 35.2 15.5s13.7 21.8 15.5 35.2c1.7 12.7 1.7 28.7 1.7 47.8l0 1.1c0 8.8-7.2 16-16 16s-16-7.2-16-16c0-20.6 0-34.4-1.4-44.7c-1.3-9.8-3.6-14.1-6.4-16.8s-7-5.1-16.8-6.4c-10.3-1.4-24.1-1.4-44.7-1.4s-34.4 0-44.7 1.4c-9.8 1.3-14.1 3.6-16.8 6.4s-5.1 7-6.4 16.8C128 221.6 128 235.4 128 256s0 34.4 1.4 44.7c1.3 9.8 3.6 14.1 6.4 16.8s7 5.1 16.8 6.4c10.3 1.4 24.1 1.4 44.7 1.4c8.8 0 16 7.2 16 16s-7.2 16-16 16l-1.1 0c-19.2 0-35.2 0-47.8-1.7c-13.4-1.8-25.5-5.8-35.2-15.5s-13.7-21.8-15.5-35.2C96 292.3 96 276.3 96 257.1v0-2.2 0c0-19.2 0-35.1 1.7-47.8c1.8-13.4 5.8-25.5 15.5-35.2s21.8-13.7 35.2-15.5c12.7-1.7 28.7-1.7 47.8-1.7h0zm163.1 33.4c-10.3-1.4-24.1-1.4-44.7-1.4c-8.8 0-16-7.2-16-16s7.2-16 16-16l1.1 0h0c19.2 0 35.1 0 47.8 1.7c13.4 1.8 25.5 5.8 35.2 15.5s13.7 21.8 15.5 35.2c1.7 12.7 1.7 28.7 1.7 47.8v0 2.2 0c0 19.2 0 35.1-1.7 47.8c-1.8 13.4-5.8 25.5-15.5 35.2s-21.8 13.7-35.2 15.5c-12.7 1.7-28.7 1.7-47.8 1.7h-2.2c-19.2 0-35.2 0-47.8-1.7c-13.4-1.8-25.5-5.8-35.2-15.5s-13.7-21.8-15.5-35.2c-1.7-12.7-1.7-28.7-1.7-47.8l0-1.1c0-8.8 7.2-16 16-16s16 7.2 16 16c0 20.6 0 34.4 1.4 44.7c1.3 9.8 3.6 14.1 6.4 16.8s7 5.1 16.8 6.4c10.3 1.4 24.1 1.4 44.7 1.4s34.4 0 44.7-1.4c9.8-1.3 14.1-3.6 16.8-6.4s5.1-7 6.4-16.8c1.4-10.3 1.4-24.1 1.4-44.7s0-34.4-1.4-44.7c-1.3-9.8-3.6-14.1-6.4-16.8s-7-5.1-16.8-6.4z"/></svg>