<svg xmlns="http://www.w3.org/2000/svg" viewBox="0 0 512 512"><!--!Font Awesome Pro 6.5.2 by @fontawesome - https://fontawesome.com License - https://fontawesome.com/license (Commercial License) Copyright 2024 Fonticons, Inc.--><path class="fa-secondary" opacity=".4" d="M64 227.2l0 34.5c12.5-1.9 24.9-3.8 37.3-5.7l309.3 0c12.4 1.9 24.8 3.8 37.3 5.7c0-11.5 0-23 0-34.5c-.4-61.6-3.1-95-25-116.8c-25-25-65.2-25-145.7-25l-42.7 0-.4 0c-80.2 0-120.3 0-145.3 25c-21.8 21.8-24.6 55.2-25 116.8zm42.7-3.2c0-25.3 0-42.3 1.7-55c1.6-12.1 4.4-17.3 7.8-20.7c3.4-3.4 8.5-6.3 20.5-7.9c12.5-1.7 29.4-1.7 54.4-1.7l45.4 0 0 85.3-129.9 0zm168.8-85.3l45.5 0c25 0 41.8 0 54.4 1.7c12 1.6 17.1 4.5 20.5 7.9c3.4 3.4 6.2 8.6 7.8 20.7c1.7 12.7 1.7 29.7 1.7 55l-129.9 0 0-85.3z"/><path class="fa-primary" d="M64 261.7a42.7 42.7 0 0 0 -18.1 20.7c-3.2 7.8-3.2 17.8-3.2 37.7s0 29.8 3.2 37.7A42.7 42.7 0 0 0 69 380.8c5.4 2.2 11.7 2.9 21.7 3.1v42.8a16 16 0 0 0 32 0V384h266.7v42.7a16 16 0 0 0 32 0v-42.8c9.9-.2 16.3-.9 21.7-3.1a42.7 42.7 0 0 0 23.1-23.1c3.2-7.8 3.2-17.8 3.2-37.7s0-29.8-3.2-37.7A42.7 42.7 0 0 0 448 261.7L410.7 256H101.3zM405.3 224c0-25.3 0-42.3-1.7-55c-1.6-12.1-4.4-17.3-7.8-20.7c-3.4-3.4-8.5-6.3-20.5-7.9c-12.6-1.7-29.4-1.7-54.4-1.7h-45.5V224zm-168.8 0v-85.3h-45.4c-25 0-41.9 0-54.4 1.7c-12 1.6-17.1 4.4-20.5 7.9c-3.4 3.4-6.2 8.6-7.8 20.7c-1.7 12.7-1.7 29.7-1.7 55z"/></svg>