<svg xmlns="http://www.w3.org/2000/svg" viewBox="0 0 512 512"><!--!Font Awesome Pro 6.6.0 by @fontawesome - https://fontawesome.com License - https://fontawesome.com/license (Commercial License) Copyright 2024 Fonticons, Inc.--><path class="fa-secondary" opacity=".4" d="M42.7 194.9C42.7 91.2 160 17.6 256 117.4l0 320c-21.3 0-42.7-16.4-64.8-33.9c-5.9-4.7-12-9.4-18.2-14.2C113 343.1 42.7 288.9 42.7 194.9z"/><path class="fa-primary" d="M298.7 160L256 117.4v320c21.3 0 42.7-16.4 64.8-33.9c5.9-4.7 12-9.4 18.2-14.2C399 343.1 469.3 288.9 469.3 194.9c0-95.2-98.8-165-189.3-98.8l41.2 41.2c6.2 6.2 6.3 16.4 0 22.6s-16.4 6.3-22.6 0z"/></svg>