<svg xmlns="http://www.w3.org/2000/svg" viewBox="0 0 512 512"><!--!Font Awesome Pro 6.6.0 by @fontawesome - https://fontawesome.com License - https://fontawesome.com/license (Commercial License) Copyright 2024 Fonticons, Inc.--><path class="fa-secondary" opacity=".4" d="M69.3 339.1c0 30.4 12.3 62.3 34.5 86.6c39.8 43.5 103.9 53.4 142 11.8l86.1-94.2c6-6.5 5.5-16.6-1-22.6s-16.6-5.5-22.6 1l-86.1 94.2c-21.4 23.4-63.2 22.7-94.7-11.8C95.6 369.4 94 320.9 116.6 296.2l26.9-29.4c6-6.5 5.5-16.6-1-22.6s-16.6-5.5-22.6 1L93 274.6c-16.2 17.7-23.7 40.6-23.7 64.5zM223.2 151.2c6.2 6.3 16.3 6.4 22.6 .2l78.9-77.3c23.1-22.6 68.5-21.4 101.6 11c33.1 32.4 34.1 76.3 11.3 98.7l-62 60.8c-6.3 6.2-6.4 16.3-.2 22.6s16.3 6.4 22.6 .2l62-60.8c39.5-38.7 30.4-103.6-11.3-144.4c-23.4-22.9-54.3-35.7-83.9-35.7c-23.1 0-45.4 7.8-62.5 24.6l-78.9 77.3c-6.3 6.2-6.4 16.3-.2 22.6z"/><path class="fa-primary" d="M141.3 76.5c-4.9-7.4-14.8-9.3-22.2-4.4s-9.3 14.8-4.4 22.2l42.7 64c4.9 7.4 14.8 9.3 22.2 4.4s9.3-14.8 4.4-22.2l-42.7-64zm-93.6 79c-8.4-2.8-17.4 1.7-20.2 10.1s1.7 17.4 10.1 20.2l128 42.7c8.4 2.8 17.4-1.7 20.2-10.1s-1.7-17.4-10.1-20.2l-128-42.7z"/></svg>