<svg xmlns="http://www.w3.org/2000/svg" viewBox="0 0 512 512"><!--!Font Awesome Pro 6.5.2 by @fontawesome - https://fontawesome.com License - https://fontawesome.com/license (Commercial License) Copyright 2024 Fonticons, Inc.--><path class="fa-secondary" opacity=".4" d="M276.9 457.7l13.7 8.2zm10.4-17.4l-13.7-8.2zm-62.5 0l-13.7 8.2zm10.4 17.4l13.7-8.2zM71.3 353.9l14.8-6.2zm103.9 58.4l-.3 16zm-51.9-7l-6.1 14.8zm317.4-51.3l14.7 6.2zm-103.9 58.4l-.3-16zm51.9-7l6.1 14.8zM109.9 104l-8.3-13.7zM78.1 135.3l-13.6-8.4zm128 281.1l8-13.9zm-7.7-310.3a16 16 0 1 0 -.1-32zm265.2 202.5a16 16 0 0 0 -32-.9zM290.6 465.9l10.4-17.4-27.4-16.4-10.4 17.4zM211 448.6l10.4 17.4 27.4-16.4-10.4-17.4zm52.1 .9a8.1 8.1 0 0 1 -7.1 3.8 8.1 8.1 0 0 1 -7.1-3.8l-27.4 16.4c15.5 25.9 53.7 25.9 69.2 0zM80 270.2v-19H48v19zm-32 0c0 21.9 0 39.1 1 53c1 14 3 25.9 7.6 36.9l29.5-12.4c-2.7-6.4-4.3-14.4-5.2-26.8c-.9-12.5-.9-28.5-.9-50.8zm127.4 126.1c-24.1-.4-36.5-1.9-46.1-5.9L117.2 420c15.7 6.4 33.6 7.8 57.7 8.2zM56.6 360.1a111.4 111.4 0 0 0 60.7 59.9l12.1-29.6a79.4 79.4 0 0 1 -43.3-42.7zm280.6 68.2c24.1-.4 41.9-1.8 57.7-8.2l-12.1-29.6c-9.6 3.9-22 5.5-46.1 5.9zm88.8-80.6a79.4 79.4 0 0 1 -43.3 42.7l12.1 29.6a111.4 111.4 0 0 0 60.7-59.9zM80 251.2c0-31.4 0-53.7 1.7-71.1c1.6-17.2 4.8-27.9 10-36.3l-27.2-16.9c-8.9 14.3-12.8 30.6-14.7 50.1C48 196.4 48 220.5 48 251.2zm21.5-160.9a111.4 111.4 0 0 0 -37 36.6l27.2 16.9a79.4 79.4 0 0 1 26.4-26zm136.9 341.8c-3.9-6.5-7.3-12.3-10.7-16.9a44.2 44.2 0 0 0 -13.6-12.7l-15.9 27.7c.6 .4 1.7 1.2 3.8 3.9c2.3 3.1 4.8 7.4 9 14.4zm-63.6-3.8c8.5 .1 13.7 .3 17.7 .7c3.7 .4 4.9 1 5.5 1.3l16-27.7a44.9 44.9 0 0 0 -18-5.4c-5.8-.6-12.8-.7-20.7-.9zM301 448.6a198.8 198.8 0 0 1 9-14.4c2.1-2.8 3.1-3.6 3.8-3.9l-15.9-27.7a43.7 43.7 0 0 0 -13.6 12.7c-3.4 4.6-6.9 10.4-10.7 16.9zm35.6-52.3c-7.9 .1-14.9 .2-20.7 .9a45.2 45.2 0 0 0 -18 5.4l15.9 27.7c.6-.3 1.9-.9 5.5-1.3a226.1 226.1 0 0 1 17.7-.7zM198.3 74.1c-47.7 .1-71.8 1.2-96.8 16.3l16.6 27.4c16.2-9.8 31.1-11.5 80.3-11.6zm233.4 233.6c-.6 20.4-2.2 31.4-5.8 40l29.5 12.4c6.1-14.4 7.7-30.6 8.3-51.5z"/><path class="fa-primary" d="M256 90.1l-11.2-11.4a16 16 0 0 0 0 22.8zm176 161.2a16 16 0 0 0 32 0zm-29.8-147.2l-8.3 13.7zm31.7 31.3l13.6-8.4zM315.2 54.1a16 16 0 1 0 -22.5-22.8zm-22.5 94.8a16 16 0 1 0 22.5-22.8zM256 106.1c31.6 0 61.8 0 86.9 1.7c12.5 .9 23.5 2.1 32.4 3.9c9.2 1.8 15.1 4 18.6 6.1l16.6-27.4c-8.1-4.9-18.3-8-28.9-10.1a291.6 291.6 0 0 0 -36.5-4.4c-26.5-1.8-57.8-1.8-89.1-1.8zm208 145.2c0-30.7 0-54.9-1.8-74.2c-1.9-19.5-5.8-35.8-14.7-50.1l-27.2 16.9c5.2 8.5 8.4 19.2 10 36.4c1.7 17.4 1.7 39.8 1.7 71.1zm-70.1-133.5c10.8 6.5 19.8 15.5 26.4 26.1l27.2-16.9a111.4 111.4 0 0 0 -37-36.6zm-126.6-16.3l48-47.4-22.5-22.8-48 47.4zm-22.5 0l48 47.4 22.5-22.8-48-47.4z"/></svg>