<svg xmlns="http://www.w3.org/2000/svg" viewBox="0 0 512 512"><!--!Font Awesome Pro 6.6.0 by @fontawesome - https://fontawesome.com License - https://fontawesome.com/license (Commercial License) Copyright 2024 Fonticons, Inc.--><path class="fa-secondary" opacity=".4" d="M170.7 170.7c0 56.9 0 113.8 0 170.7c56.9 0 113.8 0 170.7 0l0-170.7-170.7 0z"/><path class="fa-primary" d="M341.3 341.3l64 0c35.3 0 64 28.6 64 64s-28.6 64-64 64s-64-28.6-64-64l0-64zm-234.7 0l64 0 0 64c0 35.3-28.7 64-64 64s-64-28.7-64-64s28.7-64 64-64zM405.3 170.7c35.3 0 64-28.6 64-64s-28.6-64-64-64s-64 28.6-64 64l0 64 64 0zm-234.7 0l0-64c0-35.3-28.7-64-64-64s-64 28.7-64 64s28.7 64 64 64l64 0z"/></svg>