<svg xmlns="http://www.w3.org/2000/svg" viewBox="0 0 512 512"><!--!Font Awesome Pro 6.6.0 by @fontawesome - https://fontawesome.com License - https://fontawesome.com/license (Commercial License) Copyright 2024 Fonticons, Inc.--><path class="fa-secondary" opacity=".4" d="M21.3 256c0 37.5 8.8 73 24.5 104.5c4.2 8.4 5.6 17.9 3.1 26.9L35 439.7c-6.1 22.7 14.7 43.4 37.4 37.4l52.2-14c9-2.4 18.6-1 26.9 3.1c31.5 15.7 66.9 24.5 104.5 24.5c129.6 0 234.7-105.1 234.7-234.7S385.6 21.3 256 21.3S21.3 126.4 21.3 256zm164.3 0a23.5 23.5 0 1 1 -46.9 0 23.5 23.5 0 1 1 46.9 0zm93.9 0a23.5 23.5 0 1 1 -46.9 0 23.5 23.5 0 1 1 46.9 0zm93.9 0a23.5 23.5 0 1 1 -46.9 0 23.5 23.5 0 1 1 46.9 0z"/><path class="fa-primary" d="M232.5 256a23.5 23.5 0 1 0 46.9 0 23.5 23.5 0 1 0 -46.9 0zm-93.9 0a23.5 23.5 0 1 0 46.9 0 23.5 23.5 0 1 0 -46.9 0zm187.7 0a23.5 23.5 0 1 0 46.9 0 23.5 23.5 0 1 0 -46.9 0z"/></svg>