<svg xmlns="http://www.w3.org/2000/svg" viewBox="0 0 512 512"><!--!Font Awesome Pro 6.6.0 by @fontawesome - https://fontawesome.com License - https://fontawesome.com/license (Commercial License) Copyright 2024 Fonticons, Inc.--><path class="fa-secondary" opacity=".4" d="M42.7 256c0 100.6 0 150.9 31.2 182.1s81.5 31.2 182.1 31.2s150.9 0 182.1-31.2c31.2-31.2 31.2-81.3 31.2-181.3l0-.8c0-100.6 0-150.8-31.2-182.1S356.6 42.7 256 42.7s-150.8 0-182.1 31.2S42.7 155.4 42.7 256zM176 320c0-4.1 1.6-8.2 4.7-11.3l128-128c3.1-3.1 7.2-4.7 11.3-4.7s8.2 1.6 11.3 4.7s4.7 7.2 4.7 11.3s-1.6 8.2-4.7 11.3l-128 128c-3.1 3.1-7.2 4.7-11.3 4.7s-8.2-1.6-11.3-4.7s-4.7-7.2-4.7-11.3zm48-117.3a21.3 21.3 0 1 1 -42.7 0 21.3 21.3 0 1 1 42.7 0zM330.7 309.3a21.3 21.3 0 1 1 -42.7 0 21.3 21.3 0 1 1 42.7 0z"/><path class="fa-primary" d="M331.3 180.7c6.2 6.2 6.2 16.4 0 22.6l-128 128c-6.2 6.2-16.4 6.2-22.6 0s-6.2-16.4 0-22.6l128-128c6.2-6.2 16.4-6.2 22.6 0zm-22 150a21.3 21.3 0 1 0 0-42.7 21.3 21.3 0 1 0 0 42.7zM202.7 224a21.3 21.3 0 1 0 0-42.7 21.3 21.3 0 1 0 0 42.7z"/></svg>