<svg xmlns="http://www.w3.org/2000/svg" viewBox="0 0 512 512"><!--!Font Awesome Pro 6.6.0 by @fontawesome - https://fontawesome.com License - https://fontawesome.com/license (Commercial License) Copyright 2024 Fonticons, Inc.--><path class="fa-secondary" opacity=".4" d="M85.3 216.4c0 95.2 54.5 206.3 139.5 246c9.9 4.6 20.6 6.9 31.2 6.9s21.3-2.3 31.2-6.9c85-39.7 139.5-150.8 139.5-246c0-95.9-76.4-173.7-170.7-173.7s-170.7 77.8-170.7 173.7zm90.7-3.1c0-8.8 7.2-16 16-16l128 0c8.8 0 16 7.2 16 16s-7.2 16-16 16l-128 0c-8.8 0-16-7.2-16-16z"/><path class="fa-primary" d="M192 197.3c-8.8 0-16 7.2-16 16s7.2 16 16 16H320c8.8 0 16-7.2 16-16s-7.2-16-16-16H192z"/></svg>