<svg xmlns="http://www.w3.org/2000/svg" viewBox="0 0 512 512"><!--!Font Awesome Pro 6.6.0 by @fontawesome - https://fontawesome.com License - https://fontawesome.com/license (Commercial License) Copyright 2024 Fonticons, Inc.--><path class="fa-secondary" opacity=".4" d="M42.7 255.4l0 .6c0 100.6 0 150.8 31.2 182.1c31.2 31.2 81.3 31.2 181.5 31.2l.6 0c100.6 0 150.9 0 182.1-31.2s31.2-81.5 31.2-182.1s0-150.8-31.2-182.1c-20-20-47.7-27.2-91.4-29.8l0 186.4c0 10.6 0 17.8-.3 23.3c-.3 5.6-.9 7.3-1.1 7.7c-3.1 7.1-10.9 10.9-18.4 9.1c-.3-.1-2.1-.7-6.7-3.8c-4.5-3.1-10.2-7.5-18.6-13.9l-1.4-1.1c-7.9-6.1-14.1-10.8-20.8-13.7c-14.9-6.5-31.8-6.5-46.8 0c-6.7 2.9-12.9 7.7-20.8 13.7l-1.4 1.1c-8.4 6.5-14.1 10.9-18.6 13.9c-4.6 3.2-6.4 3.7-6.7 3.8c-7.5 1.8-15.3-2-18.4-9.1c-.1-.3-.7-2.1-1.1-7.7c-.3-5.4-.3-12.7-.3-23.3l0-186.4c-43.7 2.6-71.5 9.8-91.4 29.8c-31.2 31.2-31.2 81.3-31.2 181.5zM133.3 384c0-8.8 7.2-16 16-16l213.3 0c8.8 0 16 7.2 16 16s-7.2 16-16 16l-213.3 0c-8.8 0-16-7.2-16-16z"/><path class="fa-primary" d="M149.3 368c-8.8 0-16 7.2-16 16s7.2 16 16 16H362.7c8.8 0 16-7.2 16-16s-7.2-16-16-16H149.3zm16.3-114.2c-.3-5.4-.3-12.7-.3-23.3V44.1c24.7-1.5 54.4-1.5 90.7-1.5s66 0 90.7 1.5V230.6c0 10.6 0 17.8-.3 23.3c-.3 5.6-.9 7.3-1.1 7.7c-3.1 7.1-10.9 10.9-18.4 9.1c-.3-.1-2.1-.7-6.7-3.8c-4.5-3.1-10.2-7.5-18.6-13.9l-1.4-1.1c-7.9-6.1-14.1-10.8-20.8-13.7c-14.9-6.5-31.8-6.5-46.8 0c-6.7 2.9-12.9 7.7-20.8 13.7l-1.4 1.1c-8.4 6.5-14.1 10.9-18.6 13.9c-4.6 3.2-6.4 3.7-6.7 3.8c-7.5 1.8-15.3-2-18.4-9.1c-.1-.3-.7-2.1-1.1-7.7z"/></svg>