<svg xmlns="http://www.w3.org/2000/svg" viewBox="0 0 512 512"><!--!Font Awesome Pro 6.6.0 by @fontawesome - https://fontawesome.com License - https://fontawesome.com/license (Commercial License) Copyright 2024 Fonticons, Inc.--><path class="fa-secondary" opacity=".4" d="M42.7 213.3c0 8.4 0 33.2 0 42.7c0 80.5 0 120.7 25 145.7c24.9 24.9 65 25 145.1 25l.5 0 85.3 0c80.5 0 120.7 0 145.7-25c24.9-24.9 25-65.1 25-145.2l0-.5c0-9.4 0-34.3 0-42.7l-426.6 0zM112 288c0-8.8 7.2-16 16-16l42.7 0c8.8 0 16 7.2 16 16s-7.2 16-16 16L128 304c-8.8 0-16-7.2-16-16zm0 64c0-8.8 7.2-16 16-16l85.3 0c8.8 0 16 7.2 16 16s-7.2 16-16 16L128 368c-8.8 0-16-7.2-16-16zm170.7-33c0-9.2 0-17.7 .9-24.6c1-7.6 3.4-15.6 10-22.2s14.6-9 22.2-10c6.9-.9 15.4-.9 24.6-.9l1.9 0c9.2 0 17.7 0 24.6 .9c7.6 1 15.6 3.4 22.2 10s9 14.6 10 22.2c.9 6.9 .9 15.4 .9 24.6l0 1.9c0 9.2 0 17.7-.9 24.6c-1 7.6-3.4 15.6-10 22.2s-14.6 9-22.2 10c-6.9 .9-15.4 .9-24.6 .9l-1 0-1 0-1.3 0c-8.7 0-16.8 0-23.3-.9c-7.6-1-15.6-3.4-22.2-10s-9-14.6-10-22.2c-.9-6.9-.9-15.4-.9-24.6l0-1 0-1zm32 1c0 10.5 0 16.8 .6 21.3c.3 2.1 .6 3.1 .8 3.6c.1 .2 .1 .2 .1 .2c.1 .1 .2 .1 .3 .2c.5 .2 1.5 .5 3.6 .8c4.5 .6 10.8 .6 21.3 .6s16.8 0 21.3-.6c2.1-.3 3.1-.6 3.6-.8c.1 0 .2-.1 .2-.1c.1-.1 .1-.2 .2-.3c.2-.5 .5-1.5 .8-3.6c.6-4.5 .6-10.8 .6-21.3s0-16.8-.6-21.3c-.3-2.1-.6-3.1-.8-3.6c0-.1-.1-.2-.1-.2c-.1-.1-.2-.1-.3-.2c-.5-.2-1.5-.5-3.6-.8c-4.5-.6-10.8-.6-21.3-.6s-16.8 0-21.3 .6c-2.1 .3-3.1 .6-3.6 .8c-.1 0-.2 .1-.2 .1c-.1 .1-.1 .2-.2 .3c-.2 .5-.5 1.5-.8 3.6c-.6 4.5-.6 10.8-.6 21.3z"/><path class="fa-primary" d="M112 288c0-8.8 7.2-16 16-16h42.7c8.8 0 16 7.2 16 16s-7.2 16-16 16H128c-8.8 0-16-7.2-16-16zm0 64c0-8.8 7.2-16 16-16h85.3c8.8 0 16 7.2 16 16s-7.2 16-16 16H128c-8.8 0-16-7.2-16-16zm254.9-89.7c-6.9-.9-15.4-.9-24.6-.9l-1.9 0c-9.2 0-17.7 0-24.6 .9c-7.6 1-15.6 3.4-22.2 10s-9 14.6-10 22.2c-.9 6.9-.9 15.4-.9 24.6l0 1 0 1c0 9.2 0 17.7 .9 24.6c1 7.6 3.4 15.6 10 22.2s14.6 9 22.2 10c6.9 .9 15.4 .9 24.6 .9l1 0 1 0c9.2 0 17.7 0 24.6-.9c7.6-1 15.6-3.4 22.2-10s9-14.6 10-22.2c.9-6.9 .9-15.4 .9-24.6l0-1.9c0-9.2 0-17.7-.9-24.6c-1-7.6-3.4-15.6-10-22.2s-14.6-9-22.2-10zm-50.6 32.6c0 0 .1-.1 .2-.1c.5-.2 1.5-.5 3.6-.8c4.5-.6 10.8-.6 21.3-.6s16.8 0 21.3 .6c2.1 .3 3.1 .6 3.6 .8c.1 0 .2 .1 .2 .1c0 0 0 0 .1 0c0 0 0 0 0 .1c0 0 .1 .1 .1 .2c.2 .5 .5 1.5 .8 3.6c.6 4.5 .6 10.8 .6 21.3s0 16.8-.6 21.3c-.3 2.1-.6 3.1-.8 3.6c0 .1-.1 .2-.1 .2c0 0 0 0 0 .1c0 0 0 0-.1 0c0 0-.1 .1-.2 .1c-.5 .2-1.5 .5-3.6 .8c-4.5 .6-10.8 .6-21.3 .6s-16.8 0-21.3-.6c-2.1-.3-3.1-.6-3.6-.8c-.1 0-.2-.1-.2-.1c0 0 0 0-.1 0c0 0 0 0 0-.1l0-.1c0 0 0-.1-.1-.2c-.2-.5-.5-1.5-.8-3.6c-.6-4.5-.6-10.8-.6-21.3s0-16.8 .6-21.3c.3-2.1 .6-3.1 .8-3.6c0-.1 .1-.2 .1-.2c0 0 0 0 0-.1c0 0 0 0 .1 0zM213.2 85.3h85.6c80.7 0 121 0 146 23.8c18 17.1 23.1 41.8 24.5 82.9v21.3H42.7V192c1.4-41.1 6.5-65.7 24.5-82.9c25.1-23.8 65.4-23.8 146-23.8z"/></svg>