<svg xmlns="http://www.w3.org/2000/svg" viewBox="0 0 512 512"><!--!Font Awesome Pro 6.6.0 by @fontawesome - https://fontawesome.com License - https://fontawesome.com/license (Commercial License) Copyright 2024 Fonticons, Inc.--><path class="fa-secondary" opacity=".4" d="M64 256c0 39.5 11.9 76.2 32.3 106.7l56.7 0c11.3 0 22.2 4.5 30.2 12.5l17.7 17.7c8 8 18.9 12.5 30.2 12.5l50 0c11.3 0 22.2-4.5 30.2-12.5l17.7-17.7c8-8 18.9-12.5 30.2-12.5l56.7 0C436.1 332.2 448 295.5 448 256c0-106-86-192-192-192S64 150 64 256z"/><path class="fa-primary" d="M120.2 469.3H391.8c42.8 0 77.6-34.7 77.6-77.6c0-16.1-13-29.1-29.1-29.1H359c-11.3 0-22.2 4.5-30.2 12.5l-17.7 17.7c-8 8-18.9 12.5-30.2 12.5H231c-11.3 0-22.2-4.5-30.2-12.5l-17.7-17.7c-8-8-18.9-12.5-30.2-12.5H71.8c-16.1 0-29.1 13-29.1 29.1c0 42.8 34.7 77.6 77.6 77.6z"/></svg>