<svg xmlns="http://www.w3.org/2000/svg" viewBox="0 0 512 512"><!--!Font Awesome Pro 6.6.0 by @fontawesome - https://fontawesome.com License - https://fontawesome.com/license (Commercial License) Copyright 2024 Fonticons, Inc.--><path class="fa-secondary" opacity=".4" d="M55.6 112c0 2.3 .1 4.8 .3 7.3c-1.4-24.9 1.6-41.6 12.6-54.4C87.6 42.7 122 42.7 190.8 42.7l.5 0 129.4 0c69.1 0 103.7 0 122.8 22.2c9.4 10.9 12.9 24.6 12.9 43.7c0 1.1 0 2.2 0 3.4L55.6 112zm2.6 32l20.5 0 29.5 29.5L68.9 217.2c-1.4-9.2-2.8-18.4-4.1-27.6c-2.6-17.3-4.9-32.4-6.5-45.7zM75 258.5l34.1 36.4L84.2 319.8c-3.1-20.4-6.1-40.9-9.2-61.3zM90.1 359.2l40.9-40.9 40 42.7-28.4 28.4-47.9 0c-1.4-8.6-2.9-18.3-4.5-29c-.1-.4-.1-.8-.2-1.2zm6.2-124.7l34.5-38.3 38.5 38.5-37.6 37.6L96.4 234.4zm5.1 186.9l309 0c-4.2 14.6-9.6 24.8-18.5 32.5c-18 15.5-44.3 15.5-96.9 15.5l-78.2 0c-52.6 0-78.9 0-96.9-15.5c-8.9-7.7-14.3-17.9-18.5-32.5zM124 144l10.8 0-5.1 5.7L124 144zm28.3 28.3L177.8 144l28.9 0 26.7 26.7L192 212l-39.7-39.7zm1.4 123.3L192 257.3l41.4 41.4-39.6 39.6-40-42.7zM188 389.3l5-5 4.7 5-9.8 0zm26.7-154.7L256 193.3l41.4 41.4L256 276l-41.4-41.4zm1 127L256 321.3l40.4 40.4-26 27.7-28.8 0-26-27.7zM252 144l8.1 0-4 4-4-4zm26.7 26.7L305.3 144l28.9 0 25.5 28.3L320 212l-41.4-41.4zm0 128L320 257.3l38.3 38.3-40 42.7-39.6-39.6zm35.6 90.7l4.7-5 5 5-9.8 0zm26.6-28.4l40-42.7 40.9 40.9-.2 1.2c-1.6 10.7-3.1 20.4-4.5 29l-47.9 0-28.4-28.4zm1.7-126.3l38.5-38.5 34.5 38.3-35.4 37.8-37.6-37.6zM377.3 144l10.8 0-5.7 5.7-5.1-5.7zm25.6 150.9L437 258.5c-3.1 20.5-6.1 40.9-9.2 61.4l-24.9-24.9zm1-121.4L433.3 144l20.5 0c-1.6 13.3-3.9 28.4-6.5 45.7c-1.4 9.2-2.8 18.4-4.1 27.6l-39.4-43.7z"/><path class="fa-primary" d="M75 258.5l-6.2-41.2 39.3-43.7L78.7 144l-20.5 0c-1.5-12.1-2.4-22.7-2.6-32l400.8 0c-.2 9.3-1.1 19.9-2.6 32l-20.5 0-29.5 29.5 39.4 43.7L437 258.4l-34.1 36.4 24.9 24.9-5.9 39.4-40.9-40.9-40 42.7 28.4 28.4 47.9 0c-2.1 12.6-4.2 23.1-6.7 32l-309 0c-2.5-8.9-4.6-19.4-6.7-32l47.9 0 28.4-28.4-40-42.7L90.1 359.2l-5.9-39.4 24.9-24.9L75 258.5zm54.6-108.8l5.1-5.7L124 144l5.7 5.7zm22.7 22.7L192 212l41.4-41.4L206.7 144l-28.9 0-25.5 28.3zM256 148l4-4-8.1 0 4 4zm22.6 22.6L320 212l39.7-39.7L334.2 144l-28.9 0-26.7 26.7zm103.7-21L388 144l-10.8 0 5.1 5.7zm-39.7 85l37.6 37.6 35.4-37.8-34.5-38.3-38.5 38.5zM320 257.3l-41.4 41.4 39.6 39.6 40-42.7L320 257.3zm-64 64l-40.4 40.4 26 27.7 28.8 0 26-27.7L256 321.3zm68 68l-5-5-4.7 5 9.8 0zm-131-5l-5 5 9.8 0-4.7-5zm40.4-85.6L192 257.3l-38.3 38.3 40 42.7 39.6-39.6zm-64-64l-38.5-38.5L96.4 234.4l35.4 37.8 37.6-37.6zM256 276l41.4-41.4L256 193.3l-41.4 41.4L256 276z"/></svg>