<svg xmlns="http://www.w3.org/2000/svg" viewBox="0 0 512 512"><!--!Font Awesome Pro 6.6.0 by @fontawesome - https://fontawesome.com License - https://fontawesome.com/license (Commercial License) Copyright 2024 Fonticons, Inc.--><path class="fa-secondary" opacity=".4" d="M42.7 192c0-80.5 0-120.7 25-145.7c24.9-24.9 65.1-25 145.2-25l.4 0 85.3 0c80.5 0 120.7 0 145.7 25c24.9 24.9 25 65.1 25 145.2l0 .5 0 85.3c0 80.5 0 120.7-25 145.7c-24.9 24.9-65.1 25-145.2 25l-.5 0-85.3 0c-80.5 0-120.7 0-145.7-25c-24.9-24.9-25-65.1-25-145.2l0-.4 0-85.3zM128 159.9l0 115.5c0 17.8 14.5 32.1 32.2 33.4c10.8 .8 22.5 2.2 31.8 4.4c17.8 4.4 40.2 15.3 53.2 22.1c.2-59.8 .2-119.6 .2-179.4c-.3-.1-.5-.2-.8-.4c-13.1-6.9-35-17.5-52.6-21.8c-9.5-2.3-21.3-3.7-32.3-4.5c-17.5-1.3-31.7 13-31.7 30.6zm138.7-4.6l0 180.1c13.2-6.9 35.5-17.8 53.3-22.2c9.3-2.3 21-3.6 31.8-4.4c17.7-1.3 32.2-15.6 32.2-33.4L384 159c0-17.2-13.6-31.3-30.8-30.5c-13.1 .6-28.1 2.1-39.6 5.3c-15.6 4.3-34.7 14.5-46.5 21.3c-.2 .1-.3 .2-.5 .3z"/><path class="fa-primary" d="M128 275.4V159.9c0-17.6 14.2-31.9 31.7-30.6c10.9 .8 22.8 2.2 32.3 4.5c17.6 4.3 39.5 14.9 52.6 21.8c.2 .1 .5 .3 .8 .4V335.5c-.1 0-.1-.1-.2-.1c-13-6.9-35.3-17.8-53.2-22.1c-9.3-2.3-21-3.6-31.8-4.4c-17.7-1.3-32.2-15.6-32.2-33.4zm138.7 60.1c.1 0 .1-.1 .2-.1c13-6.9 35.3-17.8 53.2-22.1c9.3-2.3 21-3.6 31.8-4.4c17.7-1.3 32.2-15.6 32.2-33.4V159c0-17.2-13.6-31.3-30.8-30.5c-13.1 .6-28.1 2.1-39.6 5.3c-15.6 4.3-34.7 14.5-46.5 21.3c-.2 .1-.3 .2-.5 .3V335.5z"/></svg>