<svg xmlns="http://www.w3.org/2000/svg" viewBox="0 0 512 512"><!--!Font Awesome Pro 6.6.0 by @fontawesome - https://fontawesome.com License - https://fontawesome.com/license (Commercial License) Copyright 2024 Fonticons, Inc.--><path class="fa-secondary" opacity=".4" d="M42.7 408.6c0 15.5 5.9 31.1 17.8 42.9s27.4 17.8 42.9 17.8s31.1-5.9 42.9-17.8l116-116c-21.9-3-42.6-11.4-58.6-27.3c-.5-.5-1-1-1.5-1.5s-1-1-1.4-1.5c-.9-1-1.8-2.1-2.7-3.1c-1.8-2.1-3.4-4.3-4.9-6.6c-3.1-4.5-5.7-9.3-7.9-14.2c-4.5-9.9-7.3-20.6-8.8-31.5L60.5 365.7c-11.9 11.9-17.8 27.4-17.8 42.9z"/><path class="fa-primary" d="M383 61.3c-5.7 2.7-11.4 5.8-17 9.1C338.1 87 309.1 111.5 289.6 131c-19.5 19.5-48.2 52.5-68.9 84.4c-4.9 7.5-9.4 15.1-13.4 22.7c-.1-1.2-.1-2.5-.2-3.7c-1.6-44.7 21.4-100.1 55.1-133.8c35-35 82.1-47.9 120.7-39.3zm66.7 1c-55.5-55.5-151.2-43.2-210 15.6c-39.4 39.4-66.4 103.2-64.5 157.6c1 27.1 9.2 53.4 28.5 72.7s45.7 27.6 72.8 28.5c54.4 1.9 118.1-25 157.5-64.5c58.8-58.8 71.1-154.6 15.6-210zM427.1 84.9c1 1 2.9 3.8 1.1 12.5c-1.8 8.6-6.6 19.7-14.1 32.2c-14.8 24.9-37.5 51.8-55.7 70.1c-18.3 18.3-49.6 45.4-79.2 64.7c-14.9 9.7-28.4 16.7-39 20c-5.3 1.6-9 2-11.4 1.8c-1.1-.1-1.7-.3-2-.4c-.2-.1-.3-.2-.4-.2s-.1-.1-.2-.4c-.1-.3-.3-.9-.4-2c-.2-2.4 .2-6.1 1.8-11.4c3.2-10.6 10.3-24.1 20-39c19.2-29.6 46.4-60.9 64.7-79.2c18.3-18.3 45.1-40.9 70.1-55.7c12.6-7.5 23.6-12.3 32.2-14.1c8.7-1.8 11.5 .1 12.5 1.1zM273.9 304.6c7.5-3.9 15.2-8.5 22.7-13.4c31.8-20.7 64.9-49.4 84.4-68.9c19.5-19.5 44.1-48.5 60.6-76.4c3.3-5.6 6.4-11.3 9.1-17c8.7 38.6-4.3 85.7-39.3 120.7c-33.7 33.7-89 56.7-133.8 55.1c-1.3 0-2.5-.1-3.7-.2z"/></svg>