<svg xmlns="http://www.w3.org/2000/svg" viewBox="0 0 512 512"><!--!Font Awesome Pro 6.6.0 by @fontawesome - https://fontawesome.com License - https://fontawesome.com/license (Commercial License) Copyright 2024 Fonticons, Inc.--><path class="fa-secondary" opacity=".4" d="M26.7 210.8l0 1.3 0 1.2c0 8.8 7.2 16 16 16s16-7.2 16-16c0-40.7 0-69.6 3-91.5C64.5 100.4 69.9 88 79 79s21.4-14.4 42.9-17.3c21.9-2.9 50.8-3 91.5-3c8.8 0 16-7.2 16-16s-7.2-16-16-16l-1.2 0c-39.2 0-70.3 0-94.6 3.3c-25 3.4-45.3 10.4-61.2 26.4s-23.1 36.2-26.4 61.2c-3.2 24-3.3 54.7-3.3 93.2zm256 258.5c0 8.8 7.2 16 16 16l1.2 0c39.2 0 70.3 0 94.6-3.3c25-3.4 45.3-10.4 61.2-26.4s23-36.2 26.4-61.2c3.3-24.3 3.3-55.4 3.3-94.6l0-1.2c0-8.8-7.2-16-16-16s-16 7.2-16 16c0 40.7 0 69.6-3 91.5c-2.9 21.5-8.3 33.8-17.3 42.9s-21.4 14.4-42.9 17.3c-21.9 2.9-50.8 3-91.5 3c-8.8 0-16 7.2-16 16z"/><path class="fa-primary" d="M390.2 61.6c-21.9-2.9-50.8-3-91.5-3c-8.8 0-16-7.2-16-16s7.2-16 16-16l1.2 0c39.2 0 70.3 0 94.6 3.3c25 3.4 45.3 10.4 61.2 26.4s23 36.2 26.4 61.2c3.3 24.3 3.3 55.4 3.3 94.6l0 1.2c0 8.8-7.2 16-16 16s-16-7.2-16-16c0-40.7 0-69.6-3-91.5C447.5 100.4 442.1 88 433 79s-21.4-14.4-42.9-17.3zM42.7 282.7c8.8 0 16 7.2 16 16c0 40.7 0 69.6 3 91.5C64.5 411.6 69.9 424 79 433s21.4 14.4 42.9 17.3c21.9 2.9 50.8 3 91.5 3c8.8 0 16 7.2 16 16s-7.2 16-16 16l-1.2 0c-39.2 0-70.3 0-94.6-3.3c-25-3.4-45.3-10.4-61.2-26.4s-23.1-36.2-26.4-61.2c-3.3-24.3-3.3-55.4-3.3-94.6l0-1.2c0-8.8 7.2-16 16-16z"/></svg>