<svg xmlns="http://www.w3.org/2000/svg" viewBox="0 0 512 512"><!--!Font Awesome Pro 6.6.0 by @fontawesome - https://fontawesome.com License - https://fontawesome.com/license (Commercial License) Copyright 2024 Fonticons, Inc.--><path class="fa-secondary" opacity=".4" d="M42.7 260.3l0 32.5 0 .5c0 82.9 0 124.4 25 150.2c25 25.9 65.2 25.9 145.7 25.9l85.3 0c80.5 0 120.7 0 145.7-25.9s25-67.5 25-150.7l0-32.5c0-48.8 0-73.2-11.1-93.5s-31.3-32.8-71.8-57.9L343.8 82.5C301 55.9 279.6 42.7 256 42.7s-45 13.3-87.8 39.8L125.5 109c-40.5 25.1-60.7 37.7-71.8 57.9s-11.1 44.6-11.1 93.5zM112 249.2c0-3.9 1.4-7.8 4.3-10.9c77-83.1 202.4-83.1 279.5 0c6 6.5 5.6 16.6-.9 22.6s-16.6 5.6-22.6-.9c-64.4-69.5-168.2-69.5-232.5 0c-6 6.5-16.1 6.9-22.6 .9c-3.4-3.2-5.1-7.4-5.1-11.7zm46.9 35.2c53.5-57.7 140.7-57.7 194.1 0c6 6.5 5.6 16.6-.9 22.6s-16.6 5.6-22.6-.9c-40.8-44-106.4-44-147.2 0c-6 6.5-16.1 6.9-22.6 .9s-6.9-16.1-.9-22.6zm42.7 46.1c29.9-32.3 78.9-32.3 108.8 0c6 6.5 5.6 16.6-.9 22.6s-16.6 5.6-22.6-.9c-17.2-18.6-44.6-18.6-61.9 0c-6 6.5-16.1 6.9-22.6 .9s-6.9-16.1-.9-22.6z"/><path class="fa-primary" d="M372.3 260.1c-64.4-69.5-168.2-69.5-232.5 0c-6 6.5-16.1 6.9-22.6 .9s-6.9-16.1-.9-22.6c77-83.1 202.4-83.1 279.5 0c6 6.5 5.6 16.6-.9 22.6s-16.6 5.6-22.6-.9zm-42.7 46c-40.8-44-106.4-44-147.2 0c-6 6.5-16.1 6.9-22.6 .9s-6.9-16.1-.9-22.6c53.5-57.7 140.7-57.7 194.1 0c6 6.5 5.6 16.6-.9 22.6s-16.6 5.6-22.6-.9zm-42.7 46.1c-17.2-18.6-44.6-18.6-61.9 0c-6 6.5-16.1 6.9-22.6 .9s-6.9-16.1-.9-22.6c29.9-32.3 78.9-32.3 108.8 0c6 6.5 5.6 16.6-.9 22.6s-16.6 5.6-22.6-.9z"/></svg>