<svg xmlns="http://www.w3.org/2000/svg" viewBox="0 0 512 512"><!--!Font Awesome Pro 6.6.0 by @fontawesome - https://fontawesome.com License - https://fontawesome.com/license (Commercial License) Copyright 2024 Fonticons, Inc.--><path class="fa-secondary" opacity=".4" d="M42.7 315c0 49.9 40.9 90.4 91.4 90.4l58 0c1.2-19.2 21-43.6 38.3-61.3c7.1-7.3 16.4-11 25.7-11s18.6 3.7 25.7 11c17.3 17.8 37.1 42.1 38.3 61.3l27.5 0c67.3 0 121.9-53.9 121.9-120.5c0-52.7-34.3-97.6-82-113.9c-6.8-60.2-58.4-107-121.1-107c-67.3 0-121.9 53.9-121.9 120.5c0 14.7 2.7 28.8 7.6 41.9c-5.7-1.1-11.7-1.7-17.7-1.7c-50.5 0-91.4 40.5-91.4 90.4z"/><path class="fa-primary" d="M320 407.1c0 34.4-28.7 62.2-64 62.2s-64-27.9-64-62.2c0-19.5 20.5-44.8 38.3-63.1c14.2-14.7 37.2-14.7 51.4 0c17.8 18.3 38.3 43.7 38.3 63.1z"/></svg>