<svg xmlns="http://www.w3.org/2000/svg" viewBox="0 0 512 512"><!--!Font Awesome Pro 6.6.0 by @fontawesome - https://fontawesome.com License - https://fontawesome.com/license (Commercial License) Copyright 2024 Fonticons, Inc.--><path class="fa-secondary" opacity=".4" d="M42.7 256c0 100.6 0 150.9 31.2 182.1s81.5 31.2 182.1 31.2s150.9 0 182.1-31.2s31.2-81.5 31.2-182.1c0-7.3 0-10.9-.3-14.6c-1.5-17.3-8.5-34.2-19.7-47.4c-2.4-2.8-5-5.5-10.3-10.8L328.8 72.9c-5.3-5.3-7.9-7.9-10.8-10.3C304.8 51.5 287.9 44.5 270.6 43c-3.7-.3-7.3-.3-14.6-.3c-100.6 0-150.8 0-182.1 31.2S42.7 155.4 42.7 256zm128 74.7c0-30 0-44.9 7.2-55.7c3.1-4.7 7.1-8.7 11.8-11.8c10.8-7.2 25.7-7.2 55.7-7.2c0 49.8 0 99.5-.1 149.3c-29.9 0-44.8 0-55.6-7.2c-4.7-3.1-8.7-7.1-11.8-11.8c-7.2-10.8-7.2-25.7-7.2-55.7zm96-74.7c30 0 44.9 0 55.7 7.2c4.7 3.1 8.7 7.1 11.8 11.8c6.3 9.4 7.1 22 7.2 45l-74.7 0 0-64zm0 85.3l74.7 0c-.1 23-.9 35.6-7.2 45c-3.1 4.7-7.1 8.7-11.8 11.8c-10.7 7.2-25.7 7.2-55.7 7.2l0-64z"/><path class="fa-primary" d="M189.6 398.1c10.8 7.2 25.7 7.2 55.7 7.2V256c-30 0-44.9 0-55.7 7.2c-4.7 3.1-8.7 7.1-11.8 11.8c-7.2 10.8-7.2 25.7-7.2 55.7s0 44.9 7.2 55.7c3.1 4.7 7.1 8.7 11.8 11.8zm132.7 0c-10.8 7.2-25.7 7.2-55.7 7.2v-64h74.7c-.1 23-.9 35.6-7.2 45c-3.1 4.7-7.1 8.7-11.8 11.8zM266.7 256c30 0 44.9 0 55.7 7.2c4.7 3.1 8.7 7.1 11.8 11.8c6.3 9.4 7.1 22 7.2 45H266.7V256z"/></svg>