<svg xmlns="http://www.w3.org/2000/svg" viewBox="0 0 512 512"><!--!Font Awesome Pro 6.6.0 by @fontawesome - https://fontawesome.com License - https://fontawesome.com/license (Commercial License) Copyright 2024 Fonticons, Inc.--><path class="fa-secondary" opacity=".4" d="M64 259c0 38.1 2.2 76.1 6.5 114c5.3 46 41.5 82.5 87.6 88.2l21.7 2.7c10.6 1.3 15.8 2 21.1 2.5c36.7 3.8 73.6 3.8 110.3 0c5.3-.6 10.5-1.2 21.1-2.5c6.5-.8 12.9-1.6 19.3-2.4c47.4-5.9 84.6-43.5 89.9-90.9l.4-3.3c8.4-75.7 8.2-152.1-.7-227.7C436 96.2 403.1 61 359.9 52.9L353 51.7c-32-6-64.5-9-97-9s-64.9 3-97 9l-4.6 .9C109.9 60.8 76 97.1 70.8 142l-.3 2.9c-4.3 37.9-6.5 76-6.5 114zm69.3-131c0-3.6 1.2-7.3 3.7-10.3c3.2-3.8 7.7-5.7 12.3-5.7c3.6 0 7.3 1.2 10.3 3.7C171.9 126 206.4 144 256 144s84.1-18 96.4-28.3c3-2.5 6.6-3.7 10.3-3.7c4.6 0 9.1 1.9 12.3 5.7c5.7 6.8 4.8 16.9-2 22.5C354.6 155.7 312.7 176 256 176s-98.6-20.3-116.9-35.7c-3.8-3.2-5.7-7.7-5.7-12.3z"/><path class="fa-primary" d="M159.6 115.7c-6.8-5.7-16.9-4.8-22.5 2s-4.8 16.9 2 22.5C157.4 155.7 199.3 176 256 176s98.6-20.3 116.9-35.7c6.8-5.7 7.7-15.8 2-22.5s-15.8-7.7-22.5-2C340.1 126 305.6 144 256 144s-84.1-18-96.4-28.3z"/></svg>