<svg xmlns="http://www.w3.org/2000/svg" viewBox="0 0 512 512"><!--!Font Awesome Pro 6.6.0 by @fontawesome - https://fontawesome.com License - https://fontawesome.com/license (Commercial License) Copyright 2024 Fonticons, Inc.--><path class="fa-secondary" opacity=".4" d="M64 234.7c0-80 0-120 20.4-148C91 77.6 98.9 69.6 108 63c28-20.3 67.9-20.4 147.6-20.4l.4 0c80 0 120 0 148 20.4c9.1 6.6 17 14.5 23.6 23.6c20.3 28 20.4 67.9 20.4 147.5l0 .5 0 42.7c0 80 0 120-20.4 148c-6.6 9.1-14.5 17-23.6 23.6c-28 20.3-67.9 20.4-147.6 20.4l-.5 0c-80 0-120 0-148-20.4c-9.1-6.6-17-14.5-23.6-23.6C64 397.4 64 357.5 64 277.8l0-.5 0-42.7zM133.3 192c0 8.8 7.2 16 16 16l213.3 0c8.8 0 16-7.2 16-16s-7.2-16-16-16l-213.3 0c-8.8 0-16 7.2-16 16z"/><path class="fa-primary" d="M149.3 176c-8.8 0-16 7.2-16 16s7.2 16 16 16H362.7c8.8 0 16-7.2 16-16s-7.2-16-16-16H149.3z"/></svg>