<svg xmlns="http://www.w3.org/2000/svg" viewBox="0 0 512 512"><!--!Font Awesome Pro 6.6.0 by @fontawesome - https://fontawesome.com License - https://fontawesome.com/license (Commercial License) Copyright 2024 Fonticons, Inc.--><path class="fa-secondary" opacity=".4" d="M42.7 256c0-26.4 0-49.3 .6-69.3l425.5 0c.6 20 .6 42.9 .6 69.3c0 100.6 0 150.8-31.2 182.1s-81.5 31.2-182.1 31.2s-150.8 0-182.1-31.2S42.7 356.6 42.7 256zm170.7 53.3c0 36.7 0 55 10.7 61.8c2.4 1.5 4.9 2.2 7.8 2.2c10 0 23.6-8.8 45.9-23.2C305.9 332 320 322.8 320 309.3s-14.1-22.6-42.4-40.8C249 250 234.7 240.8 224 247.6s-10.7 25.1-10.7 61.8z"/><path class="fa-primary" d="M320 309.3c0-13.5-14.1-22.6-42.4-40.8C249 250 234.7 240.8 224 247.6s-10.7 25.1-10.7 61.8s0 55 10.7 61.8s25-2.5 53.6-20.9C305.9 332 320 322.8 320 309.3zM256 42.7c39.4 0 71 0 96.9 1.9L279.4 154.7H179.2l74.7-112H256zM73.9 73.9c26.7-26.7 67.4-30.6 141.5-31.1L140.8 154.7H44.9C48 117 55.6 92.2 73.9 73.9zm393.2 80.8c-3.1-37.6-10.7-62.5-29-80.8c-12.7-12.7-28.7-20.3-49.9-24.8L317.9 154.7H467.1z"/></svg>