<svg xmlns="http://www.w3.org/2000/svg" viewBox="0 0 512 512"><!--!Font Awesome Pro 6.6.0 by @fontawesome - https://fontawesome.com License - https://fontawesome.com/license (Commercial License) Copyright 2024 Fonticons, Inc.--><path class="fa-secondary" opacity=".4" d="M42.7 256c0 117.8 95.5 213.3 213.3 213.3c28.3 0 55.3-5.5 80-15.5l0-32.8c-14 1.6-28.5-3-39.3-13.8c-18.7-18.7-18.7-49.1 0-67.9l53.3-53.3c18.7-18.7 49.1-18.7 67.9 0l39.7 39.7c7.6-21.9 11.7-45.3 11.7-69.8c0-117.8-95.5-213.3-213.3-213.3S42.7 138.2 42.7 256zm112 64c0-32.4 26.3-58.7 58.7-58.7c9.6 0 18.7 2.3 26.7 6.4l0-69.4c0-.6 0-1.2 0-1.8l0-4.5c0-3.5 0-6.6 .2-9.3c.2-3.5 .6-7.6 2.1-11.6c5.9-16.3 22.2-26.4 39.4-24.4c4.2 .5 8 1.9 11.3 3.3c3.2 1.4 7 3.3 11.3 5.4l29.2 14.6c3.1 1.5 6.4 3.2 9.2 5.4c7.3 5.6 12.3 13.6 14 22.6c.7 3.5 .7 7.2 .7 10.7l0 1.3c0 4.8 0 9.1-.2 12.5c-.2 3.5-.6 7.6-2.1 11.6c-5.9 16.3-22.2 26.4-39.4 24.4c-4.2-.5-8-1.9-11.3-3.3c-3.2-1.4-7-3.3-11.3-5.4L272 239.2l0 80.8c0 32.4-26.3 58.7-58.7 58.7s-58.7-26.3-58.7-58.7z"/><path class="fa-primary" d="M372.7 308.7c6.2-6.2 16.4-6.2 22.6 0L448.6 362c6.2 6.2 6.2 16.4 0 22.6s-16.4 6.2-22.6 0l-26-26 0 110.7c0 8.8-7.2 16-16 16s-16-7.2-16-16l0-110.7-26 26c-6.2 6.2-16.4 6.2-22.6 0s-6.2-16.4 0-22.6l53.3-53.3zM272 239.2l21.1 10.6c4.3 2.2 8.1 4.1 11.3 5.4c3.2 1.4 7 2.8 11.3 3.3c17.2 2 33.5-8.1 39.4-24.4c1.5-4 1.9-8.1 2.1-11.6c.2-3.5 .2-7.7 .2-12.5l0-1.3c0-3.5 0-7.1-.7-10.7c-1.7-9-6.7-17.1-14-22.6c-2.9-2.2-6.1-3.8-9.2-5.4l-29.2-14.6c-4.3-2.2-8.1-4.1-11.3-5.4c-3.2-1.4-7-2.8-11.3-3.3c-17.2-2-33.5 8.1-39.4 24.4c-1.5 4-1.9 8.1-2.1 11.6c-.1 2.7-.2 5.8-.2 9.3l0 4.5c0 .6 0 1.2 0 1.8v69.4c-8-4.1-17.1-6.4-26.7-6.4c-32.4 0-58.7 26.3-58.7 58.7s26.3 58.7 58.7 58.7s58.7-26.3 58.7-58.7V239.2z"/></svg>