<svg xmlns="http://www.w3.org/2000/svg" viewBox="0 0 512 512"><!--!Font Awesome Pro 6.6.0 by @fontawesome - https://fontawesome.com License - https://fontawesome.com/license (Commercial License) Copyright 2024 Fonticons, Inc.--><path class="fa-secondary" opacity=".4" d="M256 319.9l0 32c7.9 0 15.8 1.3 23.3 4l4.7 1.7c7.8 48.2 49.6 85 100 85c55.9 0 101.2-45.6 101.3-101.5c0-6-.5-11.9-1.5-17.6L468.9 160c-1.2-12.8-2.1-23.6-3.9-32.5c-1.9-9.4-4.9-18-11-25.6s-13.7-12.6-22.4-16.5c-8.2-3.7-18.5-7.2-30.7-11.2l-11.8-3.9c-1.7-.6-3.4-.8-5.1-.8c-6.7 0-12.9 4.2-15.2 10.9c-2.8 8.4 1.7 17.4 10.1 20.2l11.1 3.7c13.2 4.4 21.8 7.3 28.3 10.3c6.1 2.8 8.8 5 10.6 7.3s3.4 5.5 4.7 12c1.4 7 2.2 16.1 3.5 29.9l8.9 97.5c-17.1-13.3-38.6-21.2-62-21.2c-50 0-91.6 36.3-99.8 83.9c-9.2-2.7-18.7-4-28.2-4z"/><path class="fa-primary" d="M143.2 80.3c2.8 8.4-1.7 17.4-10.1 20.2L122 104.2c-13.2 4.4-21.8 7.3-28.3 10.3c-6.1 2.8-8.8 5-10.6 7.3s-3.4 5.5-4.7 12c-1.4 7-2.2 16.1-3.5 29.9l-7.8 86.1-1 11.3c17.1-13.3 38.6-21.2 62-21.2c50 0 91.6 36.3 99.8 83.9c9.2-2.7 18.7-4 28.2-4l0 32c-7.9 0-15.8 1.3-23.3 4l-4.7 1.7c-7.8 48.2-49.6 85-100 85C72.1 442.7 26.8 397 26.7 341.2c0-6 .5-11.9 1.5-17.6L43.1 160c1.2-12.8 2.1-23.6 3.9-32.5c1.9-9.4 4.9-18 11-25.6s13.7-12.6 22.4-16.5c8.2-3.7 18.5-7.2 30.7-11.2l11.8-3.9c8.4-2.8 17.4 1.7 20.2 10.1z"/></svg>