<svg xmlns="http://www.w3.org/2000/svg" viewBox="0 0 512 512"><!--!Font Awesome Pro 6.6.0 by @fontawesome - https://fontawesome.com License - https://fontawesome.com/license (Commercial License) Copyright 2024 Fonticons, Inc.--><path class="fa-secondary" opacity=".4" d="M42.7 138.7c0-53 43-96 96-96s96 43 96 96l0 64c0 7.4 0 11.2-.8 14.2c-2.2 8.3-8.7 14.7-17 17c-3.1 .8-6.8 .8-14.2 .8l-64 0c-53 0-96-43-96-96zM277.3 309.3c0-7.4 0-11.2 .8-14.2c2.2-8.3 8.7-14.7 17-17c3.1-.8 6.8-.8 14.2-.8l64 0c53 0 96 43 96 96s-43 96-96 96s-96-43-96-96l0-64z"/><path class="fa-primary" d="M42.7 373.3c0-53 43-96 96-96h57.6c13.4 0 20.2 0 25.3 2.6c4.5 2.3 8.2 6 10.5 10.5c2.6 5.1 2.6 11.9 2.6 25.3v57.6c0 53-43 96-96 96s-96-43-96-96zM277.3 138.7c0-53 43-96 96-96s96 43 96 96s-43 96-96 96H304.8c-3.2 0-4.8 0-6.1-.2c-11.1-1.3-19.9-10-21.2-21.2c-.2-1.3-.2-2.9-.2-6.1V138.7z"/></svg>