<svg xmlns="http://www.w3.org/2000/svg" viewBox="0 0 512 512"><!--!Font Awesome Pro 6.6.0 by @fontawesome - https://fontawesome.com License - https://fontawesome.com/license (Commercial License) Copyright 2024 Fonticons, Inc.--><path class="fa-secondary" opacity=".4" d="M48 128c0-8.8 7.2-16 16-16l362.7 0c8.8 0 16 7.2 16 16s-7.2 16-16 16L64 144c-8.8 0-16-7.2-16-16zm0 106.7c0-8.8 7.2-16 16-16l128 0c8.8 0 16 7.2 16 16s-7.2 16-16 16l-128 0c-8.8 0-16-7.2-16-16zm0 106.7c0-8.8 7.2-16 16-16l149.3 0c8.8 0 16 7.2 16 16s-7.2 16-16 16L64 357.3c-8.8 0-16-7.2-16-16z"/><path class="fa-primary" d="M277.3 249.9c0 37.4 46.2 77.1 74.5 98c9.7 7.1 14.5 10.7 21.5 10.7s11.9-3.6 21.5-10.7c28.3-20.9 74.5-60.6 74.5-98c0-57.1-52.8-78.4-96-34.3c-43.2-44.1-96-22.8-96 34.3z"/></svg>