<svg xmlns="http://www.w3.org/2000/svg" viewBox="0 0 512 512"><!--!Font Awesome Pro 6.6.0 by @fontawesome - https://fontawesome.com License - https://fontawesome.com/license (Commercial License) Copyright 2024 Fonticons, Inc.--><path class="fa-secondary" opacity=".4" d="M42.7 293.6c0 49.9 40.9 90.4 91.4 90.4l4.6 0 0-1.9c0-18.5 0-35.4 1.8-49.2c2-15.2 6.8-31.2 20-44.4s29.2-18 44.4-20c13.8-1.9 30.7-1.8 49.2-1.8l1.9 0 1.9 0c18.5 0 35.4 0 49.2 1.8c15.2 2 31.2 6.8 44.4 20s18 29.2 20 44.4c1.8 13.6 1.8 30.2 1.8 48.4c54.9-11.7 96-60 96-117.7c0-52.7-34.3-97.6-82-113.9c-6.8-60.2-58.4-107-121.1-107c-67.3 0-121.9 53.9-121.9 120.5c0 14.7 2.7 28.8 7.6 41.9c-5.7-1.1-11.7-1.7-17.7-1.7c-50.5 0-91.4 40.5-91.4 90.4z"/><path class="fa-primary" d="M256 469.3c-40.2 0-60.3 0-72.8-12.5s-12.5-32.6-12.5-72.8s0-60.3 12.5-72.8s32.6-12.5 72.8-12.5s60.3 0 72.8 12.5s12.5 32.6 12.5 72.8s0 60.3-12.5 72.8s-32.6 12.5-72.8 12.5zm19.5-122.7c5.6-5.6 5.6-14.6 0-20.1s-14.6-5.6-20.1 0L208 373.9c-4.1 4.1-5.3 10.2-3.1 15.5s7.4 8.8 13.1 8.8l41.5 0-23.1 23.1c-5.6 5.6-5.6 14.6 0 20.1s14.6 5.6 20.1 0L304 394.1c4.1-4.1 5.3-10.2 3.1-15.5s-7.4-8.8-13.1-8.8l-41.5 0 23.1-23.1z"/></svg>