<svg xmlns="http://www.w3.org/2000/svg" viewBox="0 0 512 512"><!--!Font Awesome Pro 6.6.0 by @fontawesome - https://fontawesome.com License - https://fontawesome.com/license (Commercial License) Copyright 2024 Fonticons, Inc.--><path class="fa-secondary" opacity=".4" d="M119.3 135.3c0 4.1 1.6 8.2 4.7 11.3l36.2 36.2c6.2 6.2 16.4 6.2 22.6 0s6.2-16.4 0-22.6L146.6 124c-6.2-6.2-16.4-6.2-22.6 0c-3.1 3.1-4.7 7.2-4.7 11.3zm4.7 230c-6.2 6.2-6.2 16.4 0 22.6s16.4 6.2 22.6 0l36.2-36.2c6.2-6.2 6.2-16.4 0-22.6s-16.4-6.2-22.6 0L124 365.4zM329.2 160.2c-6.2 6.2-6.2 16.4 0 22.6s16.4 6.2 22.6 0L388 146.6c3.1-3.1 4.7-7.2 4.7-11.3s-1.6-8.2-4.7-11.3s-7.2-4.7-11.3-4.7s-8.2 1.6-11.3 4.7l-36.2 36.2zm0 169c-6.2 6.2-6.2 16.4 0 22.6L365.4 388c3.1 3.1 7.2 4.7 11.3 4.7s8.2-1.6 11.3-4.7c6.2-6.2 6.2-16.4 0-22.6l-36.2-36.2c-6.2-6.2-16.4-6.2-22.6 0z"/><path class="fa-primary" d="M256 69.3c8.8 0 16 7.2 16 16l0 51.2c0 8.8-7.2 16-16 16s-16-7.2-16-16l0-51.2c0-8.8 7.2-16 16-16zM69.3 256c0-8.8 7.2-16 16-16l51.2 0c8.8 0 16 7.2 16 16s-7.2 16-16 16l-51.2 0c-8.8 0-16-7.2-16-16zm290.1 0c0-8.8 7.2-16 16-16l51.2 0c8.8 0 16 7.2 16 16s-7.2 16-16 16l-51.2 0c-8.8 0-16-7.2-16-16zM256 359.5c8.8 0 16 7.2 16 16l0 51.2c0 8.8-7.2 16-16 16s-16-7.2-16-16l0-51.2c0-8.8 7.2-16 16-16z"/></svg>