<svg xmlns="http://www.w3.org/2000/svg" viewBox="0 0 512 512"><!--!Font Awesome Pro 6.6.0 by @fontawesome - https://fontawesome.com License - https://fontawesome.com/license (Commercial License) Copyright 2024 Fonticons, Inc.--><path class="fa-secondary" opacity=".4" d="M64 308.8l0 33c0 44.9 31.4 83.7 75.5 93.5C177.9 443.8 216.9 448 256 448s78.1-4.2 116.5-12.7c44.1-9.7 75.5-48.6 75.5-93.5l0-33c-19.2 8.1-38.8 15-58.7 20.6l0 25.6c0 8.8-7.2 15.9-16 15.9s-16-7.1-16-15.9l0-17.8C259.7 357.9 157.2 348.4 64 308.8zm91.5-208c0 .4 0 .9 0 1.3c5-1.6 23.5-5.3 32.1-6.9c.2-4.1 .7-7.3 1.6-10c6.5-18.7 24.4-32 45.4-32l42.7 0c21 0 38.8 13.4 45.4 32c1 2.8 1.4 6 1.6 10c8.3 1.5 26.2 5 32.1 6.9c0-.4 0-.9 0-1.3c0-7.2-.2-16.7-3.5-26.1c-10.9-31.1-40.6-53.4-75.6-53.4l-42.7 0c-35 0-64.7 22.3-75.6 53.4c-3.3 9.4-3.5 18.8-3.5 26.1z"/><path class="fa-primary" d="M155.6 102.1C102.1 117.8 64.8 166.3 64 222.2c0 .9 0 1.9 0 3.8l0 49.6c2.2 0 4.4 .4 6.5 1.4c118.1 52.1 252.9 52.1 371 0c2.1-.9 4.3-1.4 6.5-1.4l0-49.6c0-2 0-3 0-3.8c-.8-55.9-38.1-104.4-91.5-120.1c-5.9-1.9-23.9-5.4-32.1-6.9c-45.2-7.7-91.4-7.7-136.7 0c-8.6 1.6-27.1 5.3-32.1 6.9zm57.8 152.3l85.3 0c8.8 0 16 7.1 16 15.9s-7.2 15.9-16 15.9l-85.3 0c-8.8 0-16-7.1-16-15.9s7.2-15.9 16-15.9z"/></svg>