<svg xmlns="http://www.w3.org/2000/svg" viewBox="0 0 512 512"><!--!Font Awesome Pro 6.6.0 by @fontawesome - https://fontawesome.com License - https://fontawesome.com/license (Commercial License) Copyright 2024 Fonticons, Inc.--><path class="fa-secondary" opacity=".4" d="M58.5 406c0 17.2 3.4 29.9 12 40.2c19.2 23.1 54.9 23.1 126.4 23.1l118.2 0c71.4 0 107.2 0 126.4-23.1s12.6-58.2-.6-128.5l-16-85.3c-9.4-49.9-14-74.9-31.8-89.7c-12.8-10.6-29.6-13.6-57.1-14.4c-9.3-.3-19.9-.3-32-.3l-4.9 0-86.2 0c-1.7 0-3.3 0-4.9 0c-12.1 0-22.7 0-32 .3c-27.5 .8-44.3 3.8-57.1 14.4c-17.8 14.8-22.5 39.7-31.8 89.7l-16 85.3c-7.3 38.9-12.6 67-12.6 88.3zM180.7 298c6.2-6.2 16.4-6.2 22.6 0l30 30 74.2-92.7c5.5-6.9 15.6-8 22.5-2.5c4 3.2 6 7.8 6 12.5c0 3.5-1.1 7-3.5 10L247.2 362c-2.8 3.6-7.1 5.7-11.6 6c-.3 0-.6 0-.9 0c-4.2 0-8.3-1.7-11.3-4.7l-42.7-42.7c-6.2-6.2-6.2-16.4 0-22.6z"/><path class="fa-primary" d="M208 106.7c0-26.5 21.5-48 48-48s48 21.5 48 48V128s0 0 0 0c12.1 0 22.7 0 32 .3c0-.1 0-.2 0-.3V106.7c0-44.2-35.8-80-80-80s-80 35.8-80 80V128c0 .1 0 .2 0 .3c9.3-.3 19.9-.3 32-.3c0 0 0 0 0 0V106.7zM332.5 255.3c5.5-6.9 4.4-17-2.5-22.5s-17-4.4-22.5 2.5L233.3 328l-30-30c-6.2-6.2-16.4-6.2-22.6 0s-6.2 16.4 0 22.6l42.7 42.7c3.2 3.2 7.7 4.9 12.2 4.7s8.8-2.4 11.6-6l85.3-106.7z"/></svg>