<svg xmlns="http://www.w3.org/2000/svg" viewBox="0 0 512 512"><!--!Font Awesome Pro 6.6.0 by @fontawesome - https://fontawesome.com License - https://fontawesome.com/license (Commercial License) Copyright 2024 Fonticons, Inc.--><path class="fa-secondary" opacity=".4" d="M42.7 192l19.7 0L469 192c.3 14.2 .3 46.1 .3 64l0 42.7 0 .6c0 80-.1 120.1-25 145c-25 25-65.2 25-145.7 25l-85.3 0-.5 0c-80.1 0-120.2-.1-145.2-25c-25-25-25-65.2-25-145.7l0-42.7c0-6 0-13.6 0-21.6c0-15.8 0-33 0-42.4z"/><path class="fa-primary" d="M148.1 42.7c8.9 0 16.1 6.9 16.1 15.4V89.3c14.2-.3 30.2-.3 48.2-.3H298c18 0 33.9 0 48.2 .3V58.1c0-8.5 7.2-15.4 16.1-15.4s16.1 6.9 16.1 15.4V90.6c30.8 2.4 51.1 8.2 65.9 22.5s20.9 33.8 23.4 63.4l1.7 15.4H62.4 42.7V176.6c2.5-29.6 8.5-49.1 23.4-63.4S101.2 93 132 90.6V58.1c0-8.5 7.2-15.4 16.1-15.4z"/></svg>