<svg xmlns="http://www.w3.org/2000/svg" viewBox="0 0 512 512"><!--!Font Awesome Pro 6.6.0 by @fontawesome - https://fontawesome.com License - https://fontawesome.com/license (Commercial License) Copyright 2024 Fonticons, Inc.--><path class="fa-secondary" opacity=".4" d="M44.6 227.2l7.3 1.4c52 10.2 115.2-8.1 170.4-42c6.3-3.9 12.4-7.9 18.4-12.1c-14-15-28.8-29.3-42.9-41.9c-15.6-14-29.8-25.6-40.2-33.8c-5.2-4.1-9.4-7.3-12.2-9.5c-1.4-1.1-2.6-1.9-3.3-2.5l-.8-.6-.2-.1c-2.4-1.7-4.7-3.4-7-5.1c-50.4 35-81.5 88.7-89.4 146.2zM164.2 63.4l.5 .4c3.1 2.3 7.4 5.7 12.8 9.9c10.7 8.5 25.5 20.6 41.7 35.1c15 13.4 31.4 29.1 47 46.1c33.7-28.6 58.7-61.3 68.9-91.5l1.6-4.9c-17.7-7.2-36.2-12-55.1-14.3c-39.1-4.7-79.7 1.3-117.3 19.2zm11.2 390.1c53.8 21.9 115.9 21.7 171.5-4.5l-1.1-7.9c0-.2 0-.3-.1-.4l-.2-1.1c-.1-1-.4-2.5-.7-4.5c-.6-3.9-1.6-9.6-2.8-16.6c-2.5-14.1-6.3-33.7-11.4-55.6c-3.9-16.9-8.6-34.8-14-52.5c-8.7 4.4-17.3 9.1-25.7 14.2c-56.1 34.1-99.9 81.8-114.1 124.5l-1.5 4.4zM346.2 297.4c6.2 20 11.4 40 15.6 58.2c5.3 22.6 9.2 42.7 11.7 57.3c1.3 7.3 2.3 13.2 2.9 17.2l.3 1.7c34.4-23.6 60-55.8 75.5-92.1c7.5-17.5 12.6-36 15.2-54.8l-4.4-1c-35.5-7.8-76.6-1.9-116.8 13.4z"/><path class="fa-primary" d="M287 179.1c36.9-31.3 65.9-68.5 78.3-105.6l.2-.7c30.2 18 56.4 43.8 75.2 76.4c18.8 32.6 28.1 68.1 28.6 103.3c-42.6-9.2-89.3-2.2-133.5 14.5c-6.8-18.4-14.6-36-23.3-51.1c-7.2-12.4-15.9-24.8-25.5-36.9zM71.2 362.7c18.8 32.6 45 58.4 75.2 76.4c0 0 0 0 0 0c17.5-52.7 68.3-105.5 127.8-141.8c10.4-6.3 21.1-12.2 32.2-17.5c-6.4-17.5-13.7-34-21.6-47.8c-6.4-11-14.3-22.2-23.1-33.2c-7.4 5.3-15 10.3-22.7 15.1C180.2 250 108.6 272.4 45.7 260l-3.1-.6c.5 35.2 9.8 70.7 28.6 103.3z"/></svg>