<svg xmlns="http://www.w3.org/2000/svg" viewBox="0 0 512 512"><!--!Font Awesome Pro 6.6.0 by @fontawesome - https://fontawesome.com License - https://fontawesome.com/license (Commercial License) Copyright 2024 Fonticons, Inc.--><path class="fa-secondary" opacity=".4" d="M42.7 148.3c0-18.8 0-28.2 1.5-36.1c6.5-34.5 33.5-61.5 68-68c7.8-1.5 17.3-1.5 36.1-1.5c8.2 0 12.4 0 16.3 .4c17.1 1.6 33.3 8.3 46.5 19.3c.7 .5 1.3 1.1 2 1.7c2.5 2.2 5.3 5 9.9 9.6c3.9 3.9 7.8 7.8 11.7 11.7c17.4 17.4 26.1 26.1 36.5 31.9c5.7 3.2 11.8 5.7 18.1 7.5c11.5 3.3 23.8 3.3 48.4 3.3l8 0c38 0 63.1 0 81 5.1c8.6 2.4 15.6 6 21.5 11.3c1.7 1.5 3.3 3.1 4.8 4.8c16.4 18.2 16.4 46.2 16.4 102.1l0 .4 0 47c0 80.5 0 120.7-25 145.7c-24.9 24.9-65.1 25-145.2 25l-.5 0-85.3 0c-80.5 0-120.7 0-145.7-25c-24.9-24.9-25-65.1-25-145.2l0-.4 0-150.4zm218.7 65.1c0 8.8 7.2 16 16 16l106.7 0c8.8 0 16-7.2 16-16s-7.2-16-16-16l-106.7 0c-8.8 0-16 7.2-16 16z"/><path class="fa-primary" d="M426.7 133.1c0-6.3-.1-10.1-.5-13.4c-3.8-28.7-26.4-51.3-55.1-55.1c-4.2-.5-9.1-.5-19-.5H213.1c2.5 2.2 5.3 5 9.9 9.6l11.7 11.7c17.4 17.4 26.1 26.1 36.5 31.9c5.7 3.2 11.8 5.7 18.1 7.5c11.5 3.3 23.8 3.3 48.4 3.3h8c38 0 63.1 0 81 5.1zM261.3 213.3c0-8.8 7.2-16 16-16l106.7 0c8.8 0 16 7.2 16 16s-7.2 16-16 16l-106.7 0c-8.8 0-16-7.2-16-16z"/></svg>