<svg xmlns="http://www.w3.org/2000/svg" viewBox="0 0 512 512"><!--!Font Awesome Pro 6.6.0 by @fontawesome - https://fontawesome.com License - https://fontawesome.com/license (Commercial License) Copyright 2024 Fonticons, Inc.--><path class="fa-secondary" opacity=".4" d="M375 94.5L332.3 72.1C294.9 52.5 276.1 42.7 256 42.7s-38.9 9.8-76.3 29.5L137 94.5c-44.9 23.6-67.8 35.6-80.7 56.3L256 256 455.7 150.9c-12.9-20.8-35.9-32.8-80.7-56.3zm81.6 57.8c-.3-.5-.6-1-.9-1.4L256 256V469.3c20.1 0 38.9-9.8 76.3-29.5L375 417.5c45.9-24.1 68.9-36.1 81.6-57.8s12.7-48.6 12.7-102.4v-2.5c0-53.9 0-80.8-12.7-102.4z"/><path class="fa-primary" d="M179.7 439.9c37.5 19.7 56.2 29.5 76.3 29.5V256L56.3 150.9c-.3 .5-.6 .9-.9 1.4C42.7 174 42.7 200.9 42.7 254.8v2.5c0 53.9 0 80.8 12.7 102.4s35.7 33.7 81.6 57.8l42.7 22.4zM134.9 95.7c.7-.4 1.4-.7 2.1-1.1l31.9-16.7L363 184.6l85.8-42.9c2.9 3.3 5.5 6.8 7.7 10.6c3.2 5.4 5.6 11.2 7.4 17.6l-85.3 42.6v64.8c0 8.8-7.2 16-16 16s-16-7.2-16-16V228.6L272 265.9V467.3c-5.5 1.4-10.7 2-16 2s-10.5-.7-16-2V265.9l-192-96c1.8-6.4 4.2-12.2 7.4-17.6c2.2-3.8 4.8-7.3 7.7-10.6L256 238.1 328.2 202 134.9 95.7z"/></svg>