<svg xmlns="http://www.w3.org/2000/svg" viewBox="0 0 512 512"><!--!Font Awesome Pro 6.6.0 by @fontawesome - https://fontawesome.com License - https://fontawesome.com/license (Commercial License) Copyright 2024 Fonticons, Inc.--><path class="fa-secondary" opacity=".4" d="M42.7 256a213.3 213.3 0 1 0 426.7 0A213.3 213.3 0 1 0 42.7 256zm58.7 0c0-38.3 31-69.3 69.3-69.3s69.3 31 69.3 69.3c0 13.7-4 26.6-10.9 37.3l53.8 0C276 282.6 272 269.7 272 256c0-38.3 31-69.3 69.3-69.3s69.3 31 69.3 69.3s-31 69.3-69.3 69.3l-170.7 0c-38.3 0-69.3-31-69.3-69.3zm32 0a37.3 37.3 0 1 0 74.7 0 37.3 37.3 0 1 0 -74.7 0zM304 256a37.3 37.3 0 1 0 74.7 0A37.3 37.3 0 1 0 304 256z"/><path class="fa-primary" d="M272 256c0 13.7 4 26.6 10.9 37.3l-53.8 0C236 282.6 240 269.7 240 256c0-38.3-31-69.3-69.3-69.3s-69.3 31-69.3 69.3s31 69.3 69.3 69.3l170.7 0c38.3 0 69.3-31 69.3-69.3s-31-69.3-69.3-69.3s-69.3 31-69.3 69.3zm106.7 0A37.3 37.3 0 1 1 304 256a37.3 37.3 0 1 1 74.7 0zm-245.3 0a37.3 37.3 0 1 1 74.7 0 37.3 37.3 0 1 1 -74.7 0z"/></svg>