<svg xmlns="http://www.w3.org/2000/svg" viewBox="0 0 512 512"><!--!Font Awesome Pro 6.6.0 by @fontawesome - https://fontawesome.com License - https://fontawesome.com/license (Commercial License) Copyright 2024 Fonticons, Inc.--><path class="fa-secondary" opacity=".4" d="M42.7 298.7c0 9.2 .7 18.2 2.1 27l7.9-.3c.4 0 .5 0 .7 0c.4 0 1 0 1.7 0c1.4 0 3.5-.1 6.1 0c5.2 0 12.6 .2 21.4 .8c17.6 1.2 41.5 4 65.8 10.6c7.6 2.1 15.1 5.5 22.1 8.8c1.6 .8 3.3 1.6 4.9 2.3c5.7 2.7 11.3 5.4 17.6 8c15.8 6.6 34.5 12.2 59.1 12.2c45.7 0 92.4-18.4 113.5-30l14-7.7 1.1 1.9c2.2-10.8 3.3-22.1 3.3-33.5c0-16.3-2.3-32-6.5-47l-15.7-1c-.3 0-.6 0-1 0c-.8 0-2 0-3.6 0c-3.3 0-8.2 .1-14.4 .7c-12.4 1-30 3.5-50.2 9.4c-4.1 1.2-8.9 3.4-15.5 6.7c-1.3 .7-2.7 1.4-4.1 2.1c-5.4 2.7-11.5 5.9-18.2 8.9c-17.3 7.8-39.1 14.8-67.3 14.8c-40.4 0-73.7-11.5-96.8-22.9c-11.6-5.7-20.7-11.5-27-15.8c-3.1-2.2-5.6-4-7.3-5.4c-.9-.7-1.5-1.2-2-1.6l-.6-.5c-.1-.1-.1-.1-.2-.2c-.8-.7-1.5-1.3-2.2-1.9c-5.6 16.9-8.6 35-8.6 53.7zm10.9-51.8c0 0-.1 0 10.3-11.9c-3.5 4-6.9 7.9-10.3 11.9zM352 128.4c1.2 2.1 6 2 12.9 .1c-1.3-1.7-2.6-3.5-3.7-5.4s-2.1-3.9-2.8-5.9c-5.2 5.1-7.6 9.1-6.4 11.2zm6.4-11.2c7.2-7.1 19.6-16.1 34.5-24.7s28.9-14.8 38.6-17.5C423.2 64.7 410.8 59 398.1 59c-7.2 0-14.6 1.8-21.3 5.7c-18.5 10.7-26 33.1-18.5 52.4zm6.5 11.3c13 16.2 36.1 20.9 54.6 10.2s26-33.1 18.5-52.4c-7.2 7.1-19.6 16.1-34.5 24.7s-28.9 14.8-38.6 17.5zM431.4 75c1.3 1.7 2.6 3.5 3.7 5.4s2.1 3.9 2.8 5.9c4.3-4.2 6.7-7.7 6.7-10c0-.5-.1-.9-.3-1.2c-1.2-2.1-6-2-12.9-.1z"/><path class="fa-primary" d="M367 373c-27.2 12.5-70.8 27-114.8 27c-30 0-53-7-71.4-14.7c-7.1-3-13.7-6.1-19.4-8.9c-1.5-.7-3-1.4-4.4-2.1c-7-3.3-12.3-5.6-16.9-6.9c-21.6-5.9-43.2-8.5-59.5-9.6c-8.1-.5-14.8-.7-19.5-.7c-2.3 0-4.1 0-5.3 0c-.6 0-1 0-1.3 0l-.3 0 0 0-1 0c23.9 65.3 86.7 112 160.3 112c67.6 0 126-39.3 153.7-96.3zM64.9 214.3l9.6 8.4 0 0 .3 .2c.3 .2 .7 .6 1.3 1.1c1.2 1 3.2 2.5 5.8 4.3c5.2 3.6 12.9 8.5 22.9 13.4c19.9 9.8 48.3 19.6 82.6 19.6c22.5 0 39.7-5.5 54.3-12c5.8-2.6 11-5.3 16.3-8c1.5-.8 3.1-1.6 4.6-2.4c6.5-3.3 13.7-6.8 20.9-8.9c22.7-6.7 42.4-9.5 56.6-10.6c7.1-.6 12.8-.7 16.9-.8c2 0 3.6 0 4.7 .1c.6 0 1 0 1.3 .1l.4 0 .1 0 0 0 0 0 .6 0c-28.6-54-85.5-90.8-150.9-90.8c-63.6 0-119 34.8-148.4 86.3z"/></svg>