<svg xmlns="http://www.w3.org/2000/svg" viewBox="0 0 512 512"><!--!Font Awesome Pro 6.6.0 by @fontawesome - https://fontawesome.com License - https://fontawesome.com/license (Commercial License) Copyright 2024 Fonticons, Inc.--><path class="fa-secondary" opacity=".4" d="M221.3 222.5c0 14.4-7.8 26-17.4 26s-17.4-11.7-17.4-26s7.8-26 17.4-26s17.4 11.7 17.4 26zm104.2 0c0 14.4-7.8 26-17.4 26s-17.4-11.7-17.4-26s7.8-26 17.4-26s17.4 11.7 17.4 26zm-113.8 85c-5.8-4.3-13.9-3.1-18.2 2.7s-3.1 13.9 2.7 18.2C213 341 233.7 348.4 256 348.4s43-7.4 59.8-19.9c5.8-4.3 7-12.4 2.7-18.2s-12.4-7-18.2-2.7c-12.6 9.4-27.9 14.8-44.3 14.8s-31.7-5.4-44.3-14.8zm4.6-210.3l79.4 0c56.1 0 84.2 0 101.6 17.4s17.4 45.5 17.4 101.6l0 79.4c0 56.1 0 84.2-17.4 101.6s-45.5 17.4-101.6 17.4l-79.4 0c-56.1 0-84.2 0-101.6-17.4s-17.4-45.5-17.4-101.6l0-79.4c0-56.1 0-84.2 17.4-101.6s45.5-17.4 101.6-17.4zm-22.9 213c-4.3 5.8-3.1 13.9 2.7 18.2C213 341 233.7 348.4 256 348.4s43-7.4 59.8-19.9c5.8-4.3 7-12.4 2.7-18.2s-12.4-7-18.2-2.7c-12.6 9.4-27.9 14.8-44.3 14.8s-31.7-5.4-44.3-14.8c-5.8-4.3-13.9-3.1-18.2 2.7zm114.6-61.7c9.6 0 17.4-11.7 17.4-26s-7.8-26-17.4-26s-17.4 11.7-17.4 26s7.8 26 17.4 26zm-104.2 0c9.6 0 17.4-11.7 17.4-26s-7.8-26-17.4-26s-17.4 11.7-17.4 26s7.8 26 17.4 26z"/><path class="fa-primary" d="M454.4 280.8c8.2 0 14.9 6.7 14.9 14.9l0 1.1c0 36.5 0 65.4-3 88c-3.1 23.3-9.7 42.1-24.6 56.9s-33.7 21.4-56.9 24.6c-22.6 3-51.5 3-88 3l-1.1 0c-8.2 0-14.9-6.7-14.9-14.9s6.7-14.9 14.9-14.9c37.8 0 64.7 0 85.1-2.8c20-2.7 31.5-7.7 39.9-16.1s13.4-19.9 16.1-39.9c2.7-20.4 2.8-47.3 2.8-85.1c0-8.2 6.7-14.9 14.9-14.9zm-396.9 0c8.2 0 14.9 6.7 14.9 14.9c0 37.8 0 64.7 2.8 85.1c2.7 20 7.7 31.5 16.1 39.9s19.9 13.4 39.9 16.1c20.4 2.7 47.3 2.8 85.1 2.8c8.2 0 14.9 6.7 14.9 14.9s-6.7 14.9-14.9 14.9l-1.1 0c-36.5 0-65.4 0-88-3c-23.3-3.1-42.1-9.7-56.9-24.6S48.8 408 45.7 384.8c-3-22.6-3-51.5-3-88l0-1.1c0-8.2 6.7-14.9 14.9-14.9zM215.2 42.7l1.1 0c8.2 0 14.9 6.7 14.9 14.9s-6.7 14.9-14.9 14.9c-37.8 0-64.7 0-85.1 2.8c-20 2.7-31.5 7.7-39.9 16.1s-13.4 19.9-16.1 39.9c-2.7 20.4-2.8 47.3-2.8 85.1c0 8.2-6.7 14.9-14.9 14.9s-14.9-6.7-14.9-14.9l0-1.1c0-36.5 0-65.4 3-88c3.1-23.3 9.7-42.1 24.6-56.9S104 48.8 127.2 45.7c22.6-3 51.5-3 88-3zM380.8 75.2c-20.4-2.7-47.3-2.8-85.1-2.8c-8.2 0-14.9-6.7-14.9-14.9s6.7-14.9 14.9-14.9l1.1 0c36.5 0 65.4 0 88 3c23.3 3.1 42.1 9.7 56.9 24.6s21.4 33.7 24.6 56.9c3 22.6 3 51.5 3 88l0 1.1c0 8.2-6.7 14.9-14.9 14.9s-14.9-6.7-14.9-14.9c0-37.8 0-64.7-2.8-85.1c-2.7-20-7.7-31.5-16.1-39.9s-19.9-13.4-39.9-16.1zM221.3 222.5c0 14.4-7.8 26-17.4 26s-17.4-11.7-17.4-26s7.8-26 17.4-26s17.4 11.7 17.4 26zm104.2 0c0 14.4-7.8 26-17.4 26s-17.4-11.7-17.4-26s7.8-26 17.4-26s17.4 11.7 17.4 26zm-113.8 85c-5.8-4.3-13.9-3.1-18.2 2.7s-3.1 13.9 2.7 18.2C213 341 233.7 348.4 256 348.4s43-7.4 59.8-19.9c5.8-4.3 7-12.4 2.7-18.2s-12.4-7-18.2-2.7c-12.6 9.4-27.9 14.8-44.3 14.8s-31.7-5.4-44.3-14.8z"/></svg>