<svg xmlns="http://www.w3.org/2000/svg" viewBox="0 0 512 512"><!--!Font Awesome Pro 6.6.0 by @fontawesome - https://fontawesome.com License - https://fontawesome.com/license (Commercial License) Copyright 2024 Fonticons, Inc.--><path class="fa-secondary" opacity=".4" d="M51.6 106.8c0 1.2 .6 2.3 1.7 2.7c10.3 2.9 25.5 8.4 33.9 16.7s13.9 23.5 16.9 33.8c.7 2.3 4.7 2.2 5.3 0c2.9-10.3 8.4-25.5 16.7-33.9s23.5-13.9 33.8-16.9c2.3-.7 2.2-4.7 0-5.3c-10.3-2.9-25.5-8.4-33.9-16.7s-13.9-23.5-16.9-33.8c-.7-2.3-4.7-2.2-5.3 0c-2.9 10.3-8.4 25.5-16.7 33.9s-23.5 13.9-33.8 16.9c-1.1 .3-1.7 1.5-1.7 2.6zm316.4-.2c0 8.8 7.2 16 16 16l5.3 0 0 5.3c0 8.8 7.2 16 16 16s16-7.2 16-16l0-5.3 5.3 0c8.8 0 16-7.2 16-16s-7.2-16-16-16l-5.3 0 0-5.3c0-8.8-7.2-16-16-16s-16 7.2-16 16l0 5.3-5.3 0c-8.8 0-16 7.2-16 16z"/><path class="fa-primary" d="M215 168.5c23-41.2 34.5-61.8 51.6-61.8s28.7 20.6 51.6 61.8l5.9 10.7c6.5 11.7 9.8 17.6 14.9 21.4s11.4 5.3 24.1 8.2l11.5 2.6c44.6 10.1 66.9 15.1 72.2 32.2s-9.9 34.8-40.3 70.4l-7.9 9.2c-8.6 10.1-13 15.2-14.9 21.4s-1.3 13 0 26.5l1.2 12.3c4.6 47.4 6.9 71.2-7 81.7s-34.8 .9-76.5-18.3l-10.8-5c-11.9-5.5-17.8-8.2-24.1-8.2s-12.2 2.7-24.1 8.2l-10.8 5c-41.8 19.2-62.6 28.8-76.5 18.3s-11.6-34.3-7-81.7l1.2-12.3c1.3-13.5 2-20.2 0-26.5s-6.3-11.3-14.9-21.4l-7.9-9.2c-30.4-35.6-45.6-53.3-40.3-70.4s27.6-22.1 72.2-32.2l11.5-2.6c12.7-2.9 19-4.3 24.1-8.2s8.4-9.7 14.9-21.4l5.9-10.7z"/></svg>