<svg xmlns="http://www.w3.org/2000/svg" viewBox="0 0 512 512"><!--!Font Awesome Pro 6.6.0 by @fontawesome - https://fontawesome.com License - https://fontawesome.com/license (Commercial License) Copyright 2024 Fonticons, Inc.--><path class="fa-secondary" opacity=".4" d="M42.7 256c0 117.8 95.5 213.3 213.3 213.3c0-11.8 0-22.4 .1-32c.3-39.1 1.6-62.1 8.3-81.3c15-42.9 48.7-76.6 91.6-91.6c19.2-6.7 42.2-8.1 81.3-8.3c9.6-.1 20.2-.1 32-.1c0-117.8-95.5-213.3-213.3-213.3S42.7 138.2 42.7 256zm128-32c0-17.7 9.6-32 21.3-32s21.3 14.3 21.3 32s-9.6 32-21.3 32s-21.3-14.3-21.3-32zm8.5 107.8c5.3-7.1 15.3-8.6 22.4-3.3c15.5 11.5 34.3 18.2 54.5 18.2c4.2 0 8.3-.3 12.4-.8c-1.4 3.3-2.8 6.7-4 10.2c-2.4 6.9-4.1 14.2-5.3 22.6c-1 0-2 0-3 0c-27.4 0-52.8-9.1-73.5-24.5c-7.1-5.3-8.6-15.3-3.3-22.4zm76.9 105.5c.2-25.1 .8-43.6 3-58.7c1.2-8.4 2.9-15.7 5.3-22.6c-6.7 19.2-8.1 42.2-8.3 81.3zM298.7 224c0-17.7 9.6-32 21.3-32s21.3 14.3 21.3 32s-9.6 32-21.3 32s-21.3-14.3-21.3-32z"/><path class="fa-primary" d="M453.2 292.4L292.4 453.2c-1.4 1.4-2.9 2.8-4.4 4c-1.1 .9-2.3 1.8-3.4 2.6c-8.4 5.9-18.2 9.5-28.6 9.5c0-11.8 0-22.4 .1-32c.3-39.1 1.6-62.1 8.3-81.3c15-42.9 48.7-76.6 91.6-91.6c19.2-6.7 42.2-8.1 81.3-8.3c9.6-.1 20.2-.1 32-.1c0 10.4-3.6 20.2-9.5 28.6c-.8 1.2-1.7 2.3-2.6 3.4c-1.3 1.5-2.6 3-4 4.4zM213.3 224c0 17.7-9.6 32-21.3 32s-21.3-14.3-21.3-32s9.6-32 21.3-32s21.3 14.3 21.3 32zM320 256c11.8 0 21.3-14.3 21.3-32s-9.6-32-21.3-32s-21.3 14.3-21.3 32s9.6 32 21.3 32zM179.1 331.8c5.3-7.1 15.3-8.6 22.4-3.3c15.5 11.5 34.3 18.2 54.5 18.2c4.2 0 8.3-.3 12.4-.8c-1.4 3.3-2.8 6.7-4 10.2c-2.4 6.9-4.1 14.2-5.3 22.6c-1 0-2 0-3 0c-27.4 0-52.8-9.1-73.5-24.5c-7.1-5.3-8.6-15.3-3.3-22.4z"/></svg>