<svg xmlns="http://www.w3.org/2000/svg" viewBox="0 0 512 512"><!--!Font Awesome Pro 6.6.0 by @fontawesome - https://fontawesome.com License - https://fontawesome.com/license (Commercial License) Copyright 2024 Fonticons, Inc.--><path class="fa-secondary" opacity=".4" d="M106.7 37.3l0 426.7c0 8.8 7.2 16 16 16s16-7.2 16-16l0-173.9 0-213.3 0-39.5c0-8.8-7.2-16-16-16s-16 7.2-16 16z"/><path class="fa-primary" d="M284.8 80.8l-4.3-1.7c-33.3-13.3-69.8-16.7-105.1-9.6l-36.7 7.3V290.1l36.7-7.3c35.2-7 71.7-3.7 105.1 9.6c36.1 14.5 75.9 17.1 113.6 7.7l4.6-1.1c13.3-3.3 22.7-15.3 22.7-29.1V112.8c0-16.7-15.6-28.9-31.8-24.8c-34.8 8.7-71.5 6.2-104.8-7.1z"/></svg>