<svg xmlns="http://www.w3.org/2000/svg" viewBox="0 0 512 512"><!--!Font Awesome Pro 6.6.0 by @fontawesome - https://fontawesome.com License - https://fontawesome.com/license (Commercial License) Copyright 2024 Fonticons, Inc.--><path class="fa-secondary" opacity=".4" d="M42.7 159.9l0 192.1c0 9.9 0 14.9 .7 19c3.6 22.8 21.5 40.7 44.3 44.3c4.1 .7 9.1 .7 19 .7l.3 0c-1.1-4.2-1.9-8.7-2.5-13.3c-.1-.4-.1-.9-.2-1.3l-.1-.5c-.5-3.9-.8-8-1.1-12.4c-.1-2-.2-4.1-.3-6.3c0-.3 0-.7-.1-1.2c-.1-2-.2-4.1-.2-6.2c0-.6 0-1.5-.1-2.5c0-1.9-.1-3.8-.1-5.8c0-.9 0-1.8 0-2.7c0-1.6 0-3.2 0-4.8c0-1.3 0-2.5 0-3.8c0-4.6 0-9.4 0-14.4c0-1.1 0-2.2 0-3.3c0-.4 0-.7 0-1.1c0-53.7 0-107.3 0-160.9c0-1.2 0-2.4 0-3.6c0-4.9 0-9.7 0-14.3c0-1.3 0-2.7 0-4c0-1.6 0-3.2 0-4.8c0-.9 0-1.8 0-2.7c0-2 .1-4 .1-5.9c0-.9 0-1.8 .1-2.5c.1-2.1 .1-4.2 .2-6.3c0-.5 0-.9 .1-1.2c.1-2.2 .2-4.3 .3-6.4c.3-4.5 .7-8.6 1.1-12.5c0-.2 .1-.5 .1-.7c.1-.4 .1-.8 .2-1.2c.1-.4 .1-.8 .2-1.1c.1-.5 .1-1 .2-1.5c.1-.7 .2-1.3 .3-1.9c.1-.6 .2-1.1 .3-1.7c.1-.4 .1-.8 .2-1.2c.1-.6 .2-1.2 .4-1.8c.1-.5 .2-1 .3-1.5c.1-.6 .3-1.3 .4-1.9c.1-.2 .1-.4 .2-.7l-.3 0c-9.9 0-14.9 0-19 .7c-22.8 3.6-40.7 21.5-44.3 44.3c-.7 4.1-.7 9.1-.7 19zM405 96c.5 2.2 1 4.4 1.4 6.7c.2 1.2 .4 2.4 .6 3.6c.1 .8 .2 1.6 .3 2.4c0 .3 .1 .5 .1 .7c2.3 17.2 2.3 39.1 2.3 66.2c0 53.6 0 107.3 0 160.9c0 27.1 0 49-2.3 66.2c0 .2-.1 .5-.1 .7c-.1 .8-.2 1.6-.3 2.4l-.1 .4c-.2 1-.4 2.1-.5 3.2c-.4 2.3-.9 4.5-1.4 6.7l.3 0c9.9 0 14.9 0 19-.7c22.8-3.6 40.7-21.5 44.3-44.3c.7-4.1 .7-9.1 .7-19l0-192c0-9.9 0-14.9-.7-19c-3.6-22.8-21.5-40.7-44.3-44.3c-4.1-.7-9.1-.7-19-.7c-.3 0-.3 0-.3 0z"/><path class="fa-primary" d="M256 156.8a39.7 39.7 0 1 1 79.4 0 39.7 39.7 0 1 1 -79.4 0zM343.2 45c-17.2-2.3-39.1-2.3-66.2-2.3l-41.9 0c-27.1 0-49 0-66.2 2.3C151 47.4 135.9 52.5 124 64.5s-17.1 27-19.5 44.8c-2.3 17.2-2.3 39.1-2.3 66.2l0 160.9c0 27.1 0 49 2.3 66.2c2.4 17.9 7.5 32.9 19.5 44.8s27 17.1 44.8 19.5c17.2 2.3 39.1 2.3 66.2 2.3l41.9 0c27.1 0 49 0 66.2-2.3c17.9-2.4 32.9-7.5 44.8-19.5s17.1-27 19.5-44.8c2.3-17.2 2.3-39.1 2.3-66.2l0-160.9c0-27.1 0-49-2.3-66.2c-2.4-17.9-7.5-32.9-19.5-44.8S361 47.4 343.2 45zm15.4 309.8c-20.4-21.5-51.9-24-74.8-5.1l-4.4 3.6c-5.1 4.2-11.7 3.9-16.7-2L200 277.7c-18.1-21.2-48.4-22.6-67.9-2.5l-.1 .1 0-98.7c0-28.5 0-48.4 2-63.3c2-14.6 5.5-22.3 11-27.8s13.2-9.1 27.8-11c15-2 34.9-2 63.3-2l39.7 0c28.5 0 48.4 0 63.3 2c14.6 2 22.3 5.5 27.8 11s9.1 13.2 11 27.8c2 15 2 34.9 2 63.3l0 158.8c0 16.5 0 30.1-.4 41.6l-21-22.2z"/></svg>