<svg xmlns="http://www.w3.org/2000/svg" viewBox="0 0 512 512"><!--!Font Awesome Pro 6.6.0 by @fontawesome - https://fontawesome.com License - https://fontawesome.com/license (Commercial License) Copyright 2024 Fonticons, Inc.--><path class="fa-secondary" opacity=".4" d="M117.1 256c0-43.5 35.5-78.8 79.4-78.8l119.1 0c43.8 0 79.4 35.3 79.4 78.8s-35.5 78.8-79.4 78.8l-119.1 0c-43.8 0-79.4-35.3-79.4-78.8z"/><path class="fa-primary" d="M185.9 68.3c5.8-5.8 15.2-5.8 21 0l39.7 39.4c4.3 4.2 5.5 10.6 3.2 16.1s-7.7 9.1-13.7 9.1l-39.7 0c-68.5 0-124 55.1-124 123.1s55.5 123.1 124 123.1l9.9 0c8.2 0 14.9 6.6 14.9 14.8s-6.7 14.8-14.9 14.8l-9.9 0c-84.9 0-153.8-68.3-153.8-152.6s68.9-152.6 153.8-152.6l3.8 0L185.9 89.2c-5.8-5.8-5.8-15.1 0-20.9zm104.8 49.8c0-8.2 6.7-14.8 14.9-14.8l9.9 0c84.9 0 153.8 68.3 153.8 152.6s-68.9 152.6-153.8 152.6l-3.8 0 14.3 14.2c5.8 5.8 5.8 15.1 0 20.9s-15.2 5.8-21 0l-39.7-39.4c-4.3-4.2-5.5-10.6-3.2-16.1s7.7-9.1 13.7-9.1l39.7 0c68.5 0 124-55.1 124-123.1s-55.5-123.1-124-123.1l-9.9 0c-8.2 0-14.9-6.6-14.9-14.8z"/></svg>