<svg xmlns="http://www.w3.org/2000/svg" viewBox="0 0 512 512"><!--!Font Awesome Pro 6.6.0 by @fontawesome - https://fontawesome.com License - https://fontawesome.com/license (Commercial License) Copyright 2024 Fonticons, Inc.--><path class="fa-secondary" opacity=".4" d="M37.3 389.3c0 44.2 35.8 80 80 80c20.5 0 39.2-7.7 53.3-20.4l2-1.8c-50.8-21.6-91.6-62.3-113.2-113.2L57.7 336C45 350.1 37.3 368.9 37.3 389.3zm302 57.8l2 1.8c14.1 12.7 32.9 20.4 53.3 20.4c44.2 0 80-35.8 80-80c0-20.5-7.7-39.2-20.4-53.3l-1.8-2c-21.6 50.8-62.3 91.6-113.2 113.2z"/><path class="fa-primary" d="M256 138.7a48 48 0 1 0 0 96 48 48 0 1 0 0-96zM42.7 250.7a213.3 213.3 0 1 1 426.7 0 213.3 213.3 0 1 1 -426.7 0zm133.3-64a80 80 0 1 0 160 0 80 80 0 1 0 -160 0zM272 336c0-8.8-7.2-16-16-16s-16 7.2-16 16l0 42.7c0 8.8 7.2 16 16 16s16-7.2 16-16l0-42.7z"/></svg>