<svg xmlns="http://www.w3.org/2000/svg" viewBox="0 0 512 512"><!--!Font Awesome Pro 6.5.2 by @fontawesome - https://fontawesome.com License - https://fontawesome.com/license (Commercial License) Copyright 2024 Fonticons, Inc.--><path class="fa-secondary" opacity=".4" d="M106.7 362.7c0 47.1 66.9 85.3 149.3 85.3c25 0 48.6-3.5 69.2-9.7c-1-1.1-1.8-2-2.5-2.9s-1.5-1.9-2.3-2.8l-.2-.3c-.7-.9-1.3-1.7-1.9-2.7c-.3-.4-.5-.7-.8-1.1c-.2-.3-.4-.5-.5-.8c-7.3-11.3-11.7-24.1-12.7-37.4c0-.4-.1-.9-.1-1.3c0-.6-.1-1.4-.1-2.1c0-.7 0-1.3 0-2c0-.3 0-.6 0-.9c0-.4 0-.7 0-1.1c0-.3 0-.6 0-.8c.4-15.2 5-29.4 12.7-41.4c3.8-5.9 8.3-11.2 13.5-15.9s10.9-8.7 17.1-11.9s12.9-5.6 19.8-7.3c-27.3-17.4-67-28.3-111.1-28.3c-82.5 0-149.3 38.2-149.3 85.3z"/><path class="fa-primary" d="M256 42.7a85.3 85.3 0 1 0 0 170.7 85.3 85.3 0 1 0 0-170.7zM384 336c-16.5 0-31.8 8.5-40.6 22.4s-9.8 31.4-2.7 46.3l64-64c-6.5-3.1-13.5-4.7-20.7-4.7zm43.3 27.3l-64 64c18.4 8.8 40.2 5 54.6-9.4s18.1-36.3 9.4-54.6zM464 384a80 80 0 1 1 -160 0 80 80 0 1 1 160 0z"/></svg>