<svg xmlns="http://www.w3.org/2000/svg" viewBox="0 0 512 512"><!--!Font Awesome Pro 6.6.0 by @fontawesome - https://fontawesome.com License - https://fontawesome.com/license (Commercial License) Copyright 2024 Fonticons, Inc.--><path class="fa-secondary" opacity=".4" d="M42.7 181.5c0-58.2 0-87.2 18.1-105.3S107.9 58.1 166 58.1l20.6 0c58.2 0 87.2 0 105.3 18.1S310 123.3 310 181.5L310 346c0 58.2 0 87.2-18.1 105.3c-18 18-47 18.1-105 18.1l-.3 0-20.6 0c-58.2 0-87.2 0-105.3-18.1c-18-18-18.1-47-18.1-105l0-.3 0-164.5zm66.8-61.7c0 8.5 6.9 15.4 15.4 15.4l102.8 0c8.5 0 15.4-6.9 15.4-15.4s-6.9-15.4-15.4-15.4l-102.8 0c-8.5 0-15.4 6.9-15.4 15.4zm36 257a30.8 30.8 0 1 0 61.7 0 30.8 30.8 0 1 0 -61.7 0zM330.5 264.6c0-20 0-30 6.6-36.1s16.1-5.4 35.1-4c27.7 2.1 54 6.5 63.6 16.1c18.1 18.1 18.1 47.1 18.1 105.3s0 87.2-18.1 105.3c-9.6 9.6-35.9 14.2-63.6 16.3c-19 1.5-28.5 2.2-35.1-3.9s-6.6-16.1-6.6-36.1l0-163zm46.3 40.3l0 82.2c0 8.5 6.9 15.4 15.4 15.4s15.4-6.9 15.4-15.4l0-82.2c0-8.5-6.9-15.4-15.4-15.4s-15.4 6.9-15.4 15.4z"/><path class="fa-primary" d="M407.7 304.8c0-8.5-6.9-15.4-15.4-15.4s-15.4 6.9-15.4 15.4v82.2c0 8.5 6.9 15.4 15.4 15.4s15.4-6.9 15.4-15.4V304.8zM124.9 104.4c-8.5 0-15.4 6.9-15.4 15.4s6.9 15.4 15.4 15.4H227.7c8.5 0 15.4-6.9 15.4-15.4s-6.9-15.4-15.4-15.4H124.9zm51.4 303.3a30.8 30.8 0 1 0 0-61.7 30.8 30.8 0 1 0 0 61.7zM335.9 55.5c1.4-8.4 9.4-14 17.8-12.6C419.5 54.1 469.3 112 469.3 181.5c0 5.7-3.2 10.9-8.2 13.6s-11.1 2.4-15.9-.8l-30.8-20.9c-7.1-4.8-8.9-14.4-4.1-21.4s14.4-8.9 21.4-4.1l2 1.4c-11.9-39.3-44.8-69.1-85.2-75.9c-8.4-1.4-14-9.4-12.6-17.8z"/></svg>