<svg xmlns="http://www.w3.org/2000/svg" viewBox="0 0 512 512"><!--!Font Awesome Pro 6.6.0 by @fontawesome - https://fontawesome.com License - https://fontawesome.com/license (Commercial License) Copyright 2024 Fonticons, Inc.--><path class="fa-secondary" opacity=".4" d="M80 149.3c0 47.9 20.3 79.4 46.7 98.3c25.5 18.4 55.7 24.3 76 24.3l174.7 0 16-16-16-16-174.7 0c-15.2 0-38.4-4.7-57.3-18.3c-18.1-13-33.3-34.9-33.3-72.3c0-8.8-7.2-16-16-16s-16 7.2-16 16zM430.8 262.1c.2-.5 .4-1 .5-1.4c.1-.5 .3-1 .4-1.5c-.2 .9-.5 1.9-.9 2.9zM432 256c0 .6 0 1.1-.1 1.5c0-.5 .1-1 .1-1.5z"/><path class="fa-primary" d="M298 374c6.2 6.2 16.4 6.2 22.6 0L427.3 267.3c6.2-6.2 6.2-16.4 0-22.6L320.6 138c-6.2-6.2-16.4-6.2-22.6 0s-6.2 16.4 0 22.6L393.4 256 298 351.4c-6.2 6.2-6.2 16.4 0 22.6z"/></svg>