<svg xmlns="http://www.w3.org/2000/svg" viewBox="0 0 512 512"><!--!Font Awesome Pro 6.6.0 by @fontawesome - https://fontawesome.com License - https://fontawesome.com/license (Commercial License) Copyright 2024 Fonticons, Inc.--><path class="fa-secondary" opacity=".4" d="M42.7 213.3l0 42.7c0 80.5 0 120.7 25 145.7c24.9 24.9 65.1 25 145.2 25l.5 0 77.4 0c-15.1-19.1-24-43.2-24-69.3c0-61.9 50.1-112 112-112c37.2 0 70.2 18.2 90.6 46.1c.1-10.9 .1-22.6 .1-35.4c0-9.4 0-34.3 0-42.7l-426.6 0zm69.3 128c0-8.8 7.2-16 16-16l85.3 0c8.8 0 16 7.2 16 16s-7.2 16-16 16l-85.3 0c-8.8 0-16-7.2-16-16z"/><path class="fa-primary" d="M112 341.3c0-8.8 7.2-16 16-16h85.3c8.8 0 16 7.2 16 16s-7.2 16-16 16H128c-8.8 0-16-7.2-16-16zm266.7-32a48 48 0 1 0 0 96 48 48 0 1 0 0-96zm-80 48c0-44.2 35.8-80 80-80s80 35.8 80 80c0 16.3-4.9 31.5-13.3 44.1l19.2 19.2c6.2 6.2 6.2 16.4 0 22.6s-16.4 6.2-22.6 0l-19.2-19.2c-12.6 8.4-27.8 13.3-44.1 13.3c-44.2 0-80-35.8-80-80zm-85.4-272h85.6c80.7 0 121 0 146 23.8c18 17.1 23.1 41.8 24.5 82.9v21.3H42.7V192c1.4-41.1 6.5-65.7 24.5-82.9c25.1-23.8 65.4-23.8 146-23.8z"/></svg>