<svg xmlns="http://www.w3.org/2000/svg" viewBox="0 0 512 512"><!--!Font Awesome Pro 6.6.0 by @fontawesome - https://fontawesome.com License - https://fontawesome.com/license (Commercial License) Copyright 2024 Fonticons, Inc.--><path class="fa-secondary" opacity=".4" d="M361.8 64.4c-17.1-.4-36.6-.4-58.8-.4H209.1C120.6 64 76.3 64 48.8 92.1S21.3 165.5 21.3 256s0 135.8 27.5 163.9S120.6 448 209.1 448h93.9c88.5 0 132.7 0 160.2-28.1s27.5-73.4 27.5-163.9c0-22.8 0-42.7-.4-60.2c-12.7 6.4-27.1 10-42.2 10c-53 0-96-44-96-98.2c0-15.5 3.5-30.2 9.8-43.2z"/><path class="fa-primary" d="M384 106.7a64 64 0 1 1 128 0 64 64 0 1 1 -128 0zm-16.3 52.6l-32.8 27.3c-21.9 18.2-37.1 30.9-49.9 39.1c-12.4 8-20.8 10.7-28.9 10.7s-16.5-2.7-28.9-10.7c-12.8-8.3-28-20.9-49.9-39.1l-50.7-42.2c-7.5-6.2-18.6-5.2-24.8 2.3s-5.2 18.6 2.3 24.8l51.5 43c20.8 17.3 37.7 31.4 52.5 41c15.5 10 30.6 16.3 48 16.3s32.5-6.3 48-16.3c14.9-9.6 31.7-23.6 52.5-41l35.5-29.6c-9.6-6.9-17.9-15.6-24.4-25.5zm26-18.7c6-1.1 12.4 1 16.6 6.1c3.5 4.2 4.7 9.4 3.8 14.4c-8.3-5.2-15.3-12.2-20.4-20.5z"/></svg>