<svg xmlns="http://www.w3.org/2000/svg" viewBox="0 0 512 512"><!--!Font Awesome Pro 6.6.0 by @fontawesome - https://fontawesome.com License - https://fontawesome.com/license (Commercial License) Copyright 2024 Fonticons, Inc.--><path class="fa-secondary" opacity=".4" d="M42.7 256c0-100.6 0-150.8 31.2-182.1S155.4 42.7 256 42.7s150.9 0 182.1 31.2c31.2 31.2 31.2 81.3 31.2 181.3l0 .8c0 100.6 0 150.9-31.2 182.1s-81.5 31.2-182.1 31.2s-150.8 0-182.1-31.2S42.7 356.6 42.7 256zm90.7-74.7c0 8.8 7.2 16 16 16l105.1 0-30.1 25c-6.8 5.7-7.7 15.7-2.1 22.5s15.7 7.7 22.5 2l64-53.3c3.6-3 5.8-7.5 5.8-12.3s-2.1-9.3-5.8-12.3l-64-53.3c-6.8-5.7-16.9-4.7-22.5 2s-4.7 16.9 2.1 22.5l30.1 25-105.1 0c-8.8 0-16 7.2-16 16zm0 149.3c0 8.8 7.2 16 16 16l105.1 0-30.1 25c-6.8 5.7-7.7 15.7-2.1 22.5c3.2 3.8 7.7 5.8 12.3 5.8c3.6 0 7.2-1.2 10.2-3.7l64-53.3c3.6-3 5.8-7.5 5.8-12.3s-2.1-9.3-5.8-12.3l-64-53.3c-6.8-5.7-16.9-4.7-22.5 2s-4.7 16.9 2.1 22.5l30.1 25-105.1 0c-8.8 0-16 7.2-16 16zM346.7 128l0 256c0 8.8 7.2 16 16 16s16-7.2 16-16l0-256c0-8.8-7.2-16-16-16s-16 7.2-16 16z"/><path class="fa-primary" d="M133.3 181.3c0-8.8 7.2-16 16-16l105.1 0-30.1-25c-6.8-5.7-7.7-15.7-2.1-22.5s15.7-7.7 22.5-2l64 53.3c3.6 3 5.8 7.5 5.8 12.3s-2.1 9.3-5.8 12.3l-64 53.3c-6.8 5.7-16.9 4.7-22.5-2s-4.7-16.9 2.1-22.5l30.1-25-105.1 0c-8.8 0-16-7.2-16-16zm0 149.3c0-8.8 7.2-16 16-16H254.5l-30.1-25c-6.8-5.7-7.7-15.7-2.1-22.5s15.7-7.7 22.5-2l64 53.3c3.6 3 5.8 7.5 5.8 12.3s-2.1 9.3-5.8 12.3l-64 53.3c-6.8 5.7-16.9 4.7-22.5-2s-4.7-16.9 2.1-22.5l30.1-25H149.3c-8.8 0-16-7.2-16-16zM346.7 384c0 8.8 7.2 16 16 16s16-7.2 16-16V128c0-8.8-7.2-16-16-16s-16 7.2-16 16V384z"/></svg>