<svg xmlns="http://www.w3.org/2000/svg" viewBox="0 0 512 512"><!--!Font Awesome Pro 6.6.0 by @fontawesome - https://fontawesome.com License - https://fontawesome.com/license (Commercial License) Copyright 2024 Fonticons, Inc.--><path class="fa-secondary" opacity=".4" d="M69.3 192c0 8.8 7.2 16 16 16l21.3 0c8.8 0 16-7.2 16-16s-7.2-16-16-16l-21.3 0c-8.8 0-16 7.2-16 16zM93.8 93.8c-6.2 6.2-6.2 16.4 0 22.6L124 146.6c6.2 6.2 16.4 6.2 22.6 0s6.2-16.4 0-22.6L116.5 93.8c-6.2-6.2-16.4-6.2-22.6 0zM176 85.3l0 21.3c0 8.8 7.2 16 16 16s16-7.2 16-16l0-21.3c0-8.8-7.2-16-16-16s-16 7.2-16 16zm128 320l0 21.3c0 8.8 7.2 16 16 16s16-7.2 16-16l0-21.3c0-8.8-7.2-16-16-16s-16 7.2-16 16zm61.4-40c-6.2 6.2-6.2 16.4 0 22.6l30.2 30.2c6.2 6.2 16.4 6.2 22.6 0s6.2-16.4 0-22.6L388 365.4c-6.2-6.2-16.4-6.2-22.6 0zm24-45.4c0 8.8 7.2 16 16 16l21.3 0c8.8 0 16-7.2 16-16s-7.2-16-16-16l-21.3 0c-8.8 0-16 7.2-16 16z"/><path class="fa-primary" d="M301.6 58.4c-15.9 15.9-24.1 43.5-18.1 65.1c3.2 11.4 3.7 25.3-4.7 33.7l-27.3 27.3c-1.5 1.5-1 4 .9 4.8c31.6 13.5 56.7 38.7 70.2 70.2c.8 1.9 3.3 2.4 4.8 .9l27.3-27.3c8.4-8.4 22.2-7.9 33.7-4.7c21.6 6 49.3-2.2 65.1-18.1c21-21 21-55 0-76s-55-21-76 0c21-21 21-55 0-76s-55-21-76 0zM58.4 377.6c21 21 55 21 76 0c-21 21-21 55 0 76s55 21 76 0c15.9-15.9 24.1-43.5 18.1-65.1c-3.2-11.4-3.7-25.3 4.7-33.7l27.3-27.3c1.5-1.5 1-4-.9-4.8c-31.6-13.5-56.7-38.7-70.2-70.2c-.8-1.9-3.3-2.4-4.8-.9l-27.3 27.3c-8.4 8.4-22.2 7.9-33.7 4.7c-21.6-6-49.3 2.2-65.1 18.1c-21 21-21 55 0 76z"/></svg>