<svg xmlns="http://www.w3.org/2000/svg" viewBox="0 0 512 512"><!--!Font Awesome Pro 6.6.0 by @fontawesome - https://fontawesome.com License - https://fontawesome.com/license (Commercial License) Copyright 2024 Fonticons, Inc.--><path class="fa-secondary" opacity=".4" d="M46.1 318.3c.9-3 2.2-5.8 3.8-8.3c3.1-4.9 7.1-9.2 11.8-12.5c10.8-7.6 25.7-7.6 55.7-7.6c92.5 0 184.9 0 277.3 0c30 0 44.9 0 55.7 7.6c4.7 3.3 8.7 7.5 11.8 12.5c1.7 2.6 3 5.5 3.9 8.8L405.3 109.2C394.7 75.3 375.6 64 352 64L160 64c-23.6 0-42.7 11.3-53.3 45.2L46.1 318.3z"/><path class="fa-primary" d="M117.3 289.9l277.3 0c30 0 44.9 0 55.7 7.6c4.7 3.3 8.7 7.5 11.8 12.5c1.7 2.7 3 5.7 4 9.1c3.2 10.8 3.2 25.7 3.2 49.9c0 31.7 0 47.6-7.2 59c-3.1 4.9-7.1 9.2-11.8 12.5c-10.8 7.6-25.7 7.6-55.7 7.6l-277.3 0c-30 0-44.9 0-55.7-7.6c-4.7-3.3-8.7-7.5-11.8-12.5c-7.2-11.4-7.2-27.3-7.2-59c0-23.4 0-38.2 2.9-48.9c.1-.5 .3-1.1 .5-1.6c1-3.1 2.2-5.9 3.8-8.5c3.1-4.9 7.1-9.2 11.8-12.5c10.8-7.6 25.7-7.6 55.7-7.6zm288 56.8c-8.8 0-16 7.2-16 16l0 21.3c0 8.8 7.2 16 16 16s16-7.2 16-16l0-21.3c0-8.8-7.2-16-16-16zm-37.3 16c0-8.8-7.2-16-16-16s-16 7.2-16 16l0 21.3c0 8.8 7.2 16 16 16s16-7.2 16-16l0-21.3zm-69.3-16c-8.8 0-16 7.2-16 16l0 21.3c0 8.8 7.2 16 16 16s16-7.2 16-16l0-21.3c0-8.8-7.2-16-16-16zm-37.3 16c0-8.8-7.2-16-16-16s-16 7.2-16 16l0 21.3c0 8.8 7.2 16 16 16s16-7.2 16-16l0-21.3z"/></svg>