<svg xmlns="http://www.w3.org/2000/svg" viewBox="0 0 512 512"><!--!Font Awesome Pro 6.6.0 by @fontawesome - https://fontawesome.com License - https://fontawesome.com/license (Commercial License) Copyright 2024 Fonticons, Inc.--><path class="fa-secondary" opacity=".4" d="M42.7 256a213.3 213.3 0 1 0 426.7 0A213.3 213.3 0 1 0 42.7 256zm160-53.3a32 32 0 1 1 -64 0 32 32 0 1 1 64 0zM288 149.3a32 32 0 1 1 -64 0 32 32 0 1 1 64 0zM288 256a32 32 0 1 1 -64 0 32 32 0 1 1 64 0z"/><path class="fa-primary" d="M256 288a32 32 0 1 1 0-64 32 32 0 1 1 0 64zm-85.3-53.3a32 32 0 1 1 0-64 32 32 0 1 1 0 64zM256 181.3a32 32 0 1 1 0-64 32 32 0 1 1 0 64z"/></svg>