<svg xmlns="http://www.w3.org/2000/svg" viewBox="0 0 512 512"><!--!Font Awesome Pro 6.6.0 by @fontawesome - https://fontawesome.com License - https://fontawesome.com/license (Commercial License) Copyright 2024 Fonticons, Inc.--><path class="fa-secondary" opacity=".4" d="M42.7 240l90.7 0 0-74.7-89.2 0c.7-11.8 1.7-22.4 3.3-32l85.9 0 0-85.9c29.8-4.7 69.1-4.7 122.7-4.7s92.9 0 122.7 4.7l0 85.9 85.9 0c1.5 9.6 2.6 20.2 3.3 32c1.5 24.7 1.5 54.4 1.5 90.7l0 .8c0 5.2 0 10.3 0 15.2c0 45.5-.5 79.9-4.7 106.7l-85.9 0 0 85.9c-29.8 4.7-69.1 4.7-122.7 4.7s-92.9 0-122.7-4.7l0-85.9-85.9 0c-1.5-9.6-2.6-20.2-3.3-32l89.2 0 0-74.7-90.7 0c0-5.2 0-10.5 0-16l0-16zm170.7 16c0 30.6 0 45.8 8.5 51.5s20-2 42.9-17.4c22.6-15.2 33.9-22.8 33.9-34s-11.3-18.9-33.9-34c-22.9-15.4-34.4-23.1-42.9-17.4s-8.5 20.9-8.5 51.5zm165.3-90.7l0 74.7 90.7 0c0-29.1-.2-53.7-1.5-74.7l-89.2 0zm0 106.7l0 74.7 89.2 0c1.2-20.9 1.4-45.5 1.5-74.7l-90.7 0zm0 192.6c25.8-4.1 44.5-11.8 59-26.1l.4-.4c-14.6 14.6-33.3 22.4-59.4 26.5zm59-26.1c15-15 22.8-33.7 26.9-59.8c-4.1 26.1-11.9 44.8-26.5 59.4l-.4 .4z"/><path class="fa-primary" d="M298.7 256c0-11.3-11.3-18.9-33.9-34c-22.9-15.4-34.4-23.1-42.9-17.4s-8.5 20.9-8.5 51.5s0 45.8 8.5 51.5s20-2 42.9-17.4c22.6-15.2 33.9-22.8 33.9-34zM133.3 133.3l-85.9 0c4.1-26.1 11.9-44.8 26.5-59.4s33.3-22.4 59.4-26.5v85.9zm331.3 0c-4.1-26.1-11.9-44.8-26.5-59.4s-33.3-22.4-59.4-26.5v85.9h85.9zM469.3 240c0-29.1-.2-53.7-1.5-74.7H378.7V240h90.7zM438.1 438.1c-14.6 14.6-33.3 22.4-59.4 26.5V378.7h85.9c-4.1 26.1-11.9 44.8-26.5 59.4zM469.3 272c0 29.1-.2 53.7-1.5 74.7H378.7V272h90.7zm-336 106.7l0 85.9c-26.1-4.1-44.8-11.9-59.4-26.5s-22.4-33.3-26.5-59.4h85.9zm0-32H44.1c-1.2-20.9-1.4-45.5-1.5-74.7h90.7v74.7zm0-106.7H42.7c0-29.1 .2-53.7 1.5-74.7l89.2 0V240z"/></svg>