<svg xmlns="http://www.w3.org/2000/svg" viewBox="0 0 512 512"><!--!Font Awesome Pro 6.5.2 by @fontawesome - https://fontawesome.com License - https://fontawesome.com/license (Commercial License) Copyright 2024 Fonticons, Inc.--><path class="fa-secondary" opacity=".4" d="M170.7 293.3l170.7 0 0 90.9c0 40.1 0 60.1-12.5 72.6c-12.5 12.5-32.6 12.5-72.8 12.5s-60.3 0-72.8-12.5s-12.5-32.6-12.5-72.8l0-90.7z"/><path class="fa-primary" d="M38.8 112.5c4.1-1 8.5-.4 12.1 1.8s6.3 5.7 7.3 9.8l8.1 32.6c13 52 54 92.4 106.1 104.6l168.9 0c44.6 0 82.2 33.4 87.4 77.7l13.8 117.8c1 8.8-5.2 16.7-14 17.8s-16.7-5.2-17.8-14L396.9 342.8c-3.3-28.2-27.2-49.4-55.6-49.5l-172.4 0-1.7-.4C102.5 278.6 51.4 228.8 35.3 164.5l-8.1-32.6c-1-4.1-.4-8.5 1.8-12.1s5.7-6.3 9.8-7.3zM256 42.7a85.3 85.3 0 1 0 0 170.7 85.3 85.3 0 1 0 0-170.7z"/></svg>