<svg xmlns="http://www.w3.org/2000/svg" viewBox="0 0 512 512"><!--!Font Awesome Pro 6.6.0 by @fontawesome - https://fontawesome.com License - https://fontawesome.com/license (Commercial License) Copyright 2024 Fonticons, Inc.--><path class="fa-secondary" opacity=".4" d="M21.3 256c0-80 0-120 20.4-148c6.6-9.1 14.5-17 23.6-23.6C93.3 64 133.2 64 212.8 64l.5 0L240 64l0 42.7c0 8.8 7.2 16 16 16s16-7.2 16-16L272 64l26.7 0c80 0 120 0 148 20.4c9.1 6.6 17 14.5 23.6 23.6c20.3 28 20.4 67.9 20.4 147.6l0 .5c0 80 0 120-20.4 148c-6.6 9.1-14.5 17-23.6 23.6C418.7 448 378.8 448 299.1 448l-.4 0-85.3 0c-80 0-120 0-148-20.4c-9.1-6.6-17-14.5-23.6-23.6c-20.3-28-20.4-67.9-20.4-147.6l0-.4zm133.3-32c0 8.8 7.2 16 16 16l170.7 0c8.8 0 16-7.2 16-16s-7.2-16-16-16l-170.7 0c-8.8 0-16 7.2-16 16zm0 74.7c0 8.8 7.2 16 16 16l117.3 0c8.8 0 16-7.2 16-16s-7.2-16-16-16l-117.3 0c-8.8 0-16 7.2-16 16z"/><path class="fa-primary" d="M272 64c0-8.8-7.2-16-16-16s-16 7.2-16 16v42.7c0 8.8 7.2 16 16 16s16-7.2 16-16V64zM170.7 208c-8.8 0-16 7.2-16 16s7.2 16 16 16H341.3c8.8 0 16-7.2 16-16s-7.2-16-16-16H170.7zm0 74.7c-8.8 0-16 7.2-16 16s7.2 16 16 16H288c8.8 0 16-7.2 16-16s-7.2-16-16-16H170.7z"/></svg>