<svg xmlns="http://www.w3.org/2000/svg" viewBox="0 0 512 512"><!--!Font Awesome Pro 6.6.0 by @fontawesome - https://fontawesome.com License - https://fontawesome.com/license (Commercial License) Copyright 2024 Fonticons, Inc.--><path class="fa-secondary" opacity=".4" d="M202.7 373.3c0-19.9 0-29.9 4.3-37.3c2.8-4.9 6.8-8.9 11.7-11.7C226.1 320 236 320 256 320c19.9 0 29.9 0 37.3 4.3c4.9 2.8 8.9 6.8 11.7 11.7c4.3 7.4 4.3 17.4 4.3 37.3s0 29.9-4.3 37.3c-2.8 4.9-6.8 8.9-11.7 11.7c-7.4 4.3-17.4 4.3-37.3 4.3c-19.9 0-29.9 0-37.3-4.3c-4.9-2.8-8.9-6.8-11.7-11.7c-4.3-7.4-4.3-17.4-4.3-37.3zm160 0c0-19.9 0-29.9 4.3-37.3c2.8-4.9 6.8-8.9 11.7-11.7C386.1 320 396 320 416 320c19.9 0 29.9 0 37.3 4.3c4.9 2.8 8.9 6.8 11.7 11.7c4.3 7.4 4.3 17.4 4.3 37.3c0 19.9 0 29.9-4.3 37.3c-2.8 4.9-6.8 8.9-11.7 11.7c-7.4 4.3-17.4 4.3-37.3 4.3c-19.9 0-29.9 0-37.3-4.3c-4.9-2.8-8.9-6.8-11.7-11.7c-4.3-7.4-4.3-17.4-4.3-37.3z"/><path class="fa-primary" d="M201.5 69.3c-24.2 0-43.9 0-59.5 2.1c-16.3 2.2-30.4 6.9-41.7 18.2S84.3 115 82.1 131.3C80 146.9 80 166.7 80 190.9L80 320c0 0 0 .1 0 .1c-9.9 .3-16.2 1.2-21.3 4.2c-4.9 2.8-8.9 6.8-11.7 11.7c-4.3 7.4-4.3 17.4-4.3 37.3s0 29.9 4.3 37.3c2.8 4.9 6.8 8.9 11.7 11.7c7.4 4.3 17.4 4.3 37.3 4.3s29.9 0 37.3-4.3c4.9-2.8 8.9-6.8 11.7-11.7c4.3-7.4 4.3-17.4 4.3-37.3s0-29.9-4.3-37.3c-2.8-4.9-6.8-8.9-11.7-11.7c-5.1-2.9-11.4-3.9-21.3-4.2c0 0 0-.1 0-.1V192c0-25.6 0-43.2 1.8-56.4c1.7-12.7 4.8-19 9.1-23.3s10.6-7.4 23.3-9.1c13.2-1.8 30.8-1.8 56.4-1.8H309.3c25.6 0 43.2 0 56.4 1.8c12.8 1.7 19 4.8 23.3 9.1s7.4 10.6 9.1 23.3c1.8 13.2 1.8 30.8 1.8 56.4v25.4L384.6 202c-6.2-6.2-16.4-6.2-22.6 0s-6.2 16.4 0 22.6l42.7 42.7c6.2 6.2 16.4 6.2 22.6 0L470 224.6c6.2-6.2 6.2-16.4 0-22.6s-16.4-6.2-22.6 0L432 217.4V190.9c0-24.2 0-43.9-2.1-59.5c-2.2-16.3-6.9-30.4-18.2-41.7s-25.4-16-41.7-18.2c-15.6-2.1-35.3-2.1-59.5-2.1h-109z"/></svg>