<svg xmlns="http://www.w3.org/2000/svg" viewBox="0 0 512 512"><!--!Font Awesome Pro 6.6.0 by @fontawesome - https://fontawesome.com License - https://fontawesome.com/license (Commercial License) Copyright 2024 Fonticons, Inc.--><path class="fa-secondary" opacity=".4" d="M85.3 58.7l341.3 0 0 165.3c0 65.4 0 98.1-21.4 118.4c-21.4 20.3-55.8 20.3-124.4 20.3l-.4 0-8.4 0-32 0-8.4 0c-69 0-103.4 0-124.9-20.3c-21.4-20.3-21.4-52.9-21.4-118l0-.3 0-165.3zm95.4 154c-6.2 6.2-6.2 16.4 0 22.6s16.4 6.2 22.6 0l27.6-27.6c1.5-1.5 2.7-2.7 3.8-3.7c1.1 1 2.3 2.2 3.8 3.7l13 13c3.1 3.1 6.4 6.4 9.6 8.9c3.8 2.9 9.1 5.9 16.2 5.9s12.5-3.1 16.2-5.9c3.2-2.4 6.5-5.8 9.6-8.9l28.1-28.1c6.2-6.2 6.2-16.4 0-22.6s-16.4-6.2-22.6 0l-27.6 27.6c-1.5 1.5-2.7 2.7-3.8 3.7c-1.1-1-2.3-2.2-3.8-3.7l-13-13c-3.1-3.1-6.4-6.4-9.6-8.9c-3.8-2.9-9.1-5.9-16.2-5.9s-12.5 3.1-16.2 5.9c-3.2 2.4-6.5 5.8-9.6 8.9l-28.1 28.1z"/><path class="fa-primary" d="M331.3 192.6c6.2-6.2 6.2-16.4 0-22.6s-16.4-6.2-22.6 0l-27.6 27.6c-1.5 1.5-2.7 2.7-3.8 3.7c-1.1-1-2.3-2.2-3.8-3.7l-13-13c-3.1-3.1-6.4-6.4-9.6-8.9c-3.8-2.9-9.1-5.9-16.2-5.9s-12.5 3.1-16.2 5.9c-3.2 2.4-6.5 5.8-9.6 8.9l-28.1 28.1c-6.2 6.2-6.2 16.4 0 22.6s16.4 6.2 22.6 0l27.6-27.6c1.5-1.5 2.7-2.7 3.8-3.7c1.1 1 2.3 2.2 3.8 3.7l13 13c3.1 3.1 6.4 6.4 9.6 8.9c3.8 2.9 9.1 5.9 16.2 5.9s12.5-3.1 16.2-5.9c3.2-2.4 6.5-5.8 9.6-8.9l28.1-28.1zM42.7 26.7c-8.8 0-16 7.2-16 16s7.2 16 16 16H85.3 426.7h42.7c8.8 0 16-7.2 16-16s-7.2-16-16-16H42.7zM240 362.7v75.4L206.2 455c-7.9 4-11.1 13.6-7.2 21.5s13.6 11.1 21.5 7.2L256 465.9l35.5 17.8c7.9 4 17.5 .7 21.5-7.2s.7-17.5-7.2-21.5L272 438.1V362.7H240z"/></svg>