<svg xmlns="http://www.w3.org/2000/svg" viewBox="0 0 512 512"><!--!Font Awesome Pro 6.6.0 by @fontawesome - https://fontawesome.com License - https://fontawesome.com/license (Commercial License) Copyright 2024 Fonticons, Inc.--><path class="fa-secondary" opacity=".4" d="M469.3 256A213.3 213.3 0 1 1 42.7 256a213.3 213.3 0 1 1 426.7 0zM154.7 195l0 .8 0 12.2c0 8.8 7.2 16 16 16s16-7.2 16-16l0-11.3c0-11.6 0-18.8 .7-24.1c.3-2.5 .7-3.9 1-4.7c.3-.7 .4-.9 .5-1c0-.1 .1-.1 .3-.2c.4-.2 1.3-.5 3.2-.8c4.4-.7 10.5-.7 21-.7l26.7 0 0 181.3-37.3 0c-8.8 0-16 7.2-16 16s7.2 16 16 16l117.3 0c8.8 0 16-7.2 16-16s-7.2-16-16-16l-48 0 0-181.3 26.7 0c10.6 0 16.7 0 21 .7c2 .3 2.9 .6 3.2 .8c.2 .1 .2 .1 .2 .1c.1 .1 .3 .3 .5 1c.3 .8 .7 2.2 1 4.7c.6 5.3 .7 12.5 .7 24.1l0 11.3c0 8.8 7.2 16 16 16s16-7.2 16-16l0-12.2c0-10.4 0-19.6-.9-27c-1-7.9-3.2-16.3-9.5-23.2c-6.5-7.2-14.6-10-22.5-11.2c-6.7-1-14.9-1-23.7-1l-1 0-87.4 0c-9.2 0-17.7 0-24.7 1c-7.9 1.2-16 4-22.5 11.2c-6.3 7-8.5 15.3-9.5 23.2c-.9 7.2-.9 16.1-.9 26.2z"/><path class="fa-primary" d="M212.3 133.3c-9.2 0-17.7 0-24.7 1c-7.9 1.2-16 4-22.5 11.2c-6.3 7-8.5 15.3-9.5 23.2c-.9 7.4-.9 16.6-.9 27l0 12.2c0 8.8 7.2 16 16 16s16-7.2 16-16V196.7c0-11.6 0-18.8 .7-24.1c.3-2.5 .7-3.9 1-4.7c.3-.7 .4-.9 .5-1l0 0c0 0 .1-.1 .2-.1c.4-.2 1.3-.5 3.2-.8c4.4-.7 10.5-.7 21-.7H240V346.7H202.7c-8.8 0-16 7.2-16 16s7.2 16 16 16H320c8.8 0 16-7.2 16-16s-7.2-16-16-16H272V165.3h26.7c10.6 0 16.7 0 21 .7c2 .3 2.9 .6 3.2 .8c.2 .1 .2 .1 .2 .1l0 0c.1 .1 .2 .3 .5 1c.3 .8 .7 2.2 1 4.7c.6 5.3 .7 12.5 .7 24.1V208c0 8.8 7.2 16 16 16s16-7.2 16-16l0-12.2v0c0-10.4 0-19.6-.9-27c-1-7.9-3.2-16.3-9.5-23.2c-6.5-7.2-14.6-10-22.5-11.2c-7-1-15.6-1-24.7-1H212.3z"/></svg>