<svg xmlns="http://www.w3.org/2000/svg" viewBox="0 0 512 512"><!--!Font Awesome Pro 6.6.0 by @fontawesome - https://fontawesome.com License - https://fontawesome.com/license (Commercial License) Copyright 2024 Fonticons, Inc.--><path class="fa-secondary" opacity=".4" d="M42.7 249.5l0 2.4c0 39.2 0 70.3 3.3 94.6c3.4 25 10.4 45.3 26.4 61.2s36.2 23 61.2 26.4c24.3 3.3 55.2 3.3 94.4 3.3l45.3 0c39.2 0 70.3 0 94.6-3.3c25-3.4 45.3-10.4 61.2-26.4c4.4-4.4 8.1-9.1 11.2-14.1c9.6-15.3 10.8-34.2 10.8-52.3c-1 0-2.1 0-3.2 0l-.4 0-58.8 0c-48.5 0-89.9-37-89.9-85.3s41.5-85.3 89.9-85.3l58.8 0 .4 0c1.1 0 2.2 0 3.2 0c0-25.2-.9-52.2-17-71.6c-1.6-1.9-3.2-3.7-5-5.4c-16-16-36.2-23.1-61.2-26.4C343.7 64 312.9 64 274.2 64l-1 0-45.1 0c-39.2 0-70.3 0-94.6 3.3c-25 3.4-45.3 10.4-61.2 26.4s-23.1 36.2-26.4 61.2c-3.3 24.3-3.3 55.4-3.3 94.6zm64-84.1c0-8.8 7.2-16 16-16l85.3 0c8.8 0 16 7.2 16 16s-7.2 16-16 16l-85.3 0c-8.8 0-16-7.2-16-16z"/><path class="fa-primary" d="M122.7 149.3c-8.8 0-16 7.2-16 16s7.2 16 16 16H208c8.8 0 16-7.2 16-16s-7.2-16-16-16H122.7zM452 170.7c-1.3-.1-2.8-.1-4.3-.1l-.4 0-58.8 0c-48.5 0-89.9 37-89.9 85.3s41.5 85.3 89.9 85.3l58.8 0 .4 0c1.5 0 2.9 0 4.3-.1c19.7-1.2 37.1-16.2 38.6-37.1c.1-1.4 .1-2.8 .1-4.2l0-.4 0-87.2 0-.4c0-1.4 0-2.8-.1-4.2c-1.5-20.9-18.9-35.8-38.6-37.1zm-68.6 62.5a22.8 22.8 0 1 1 0 45.5 22.8 22.8 0 1 1 0-45.5z"/></svg>