<svg xmlns="http://www.w3.org/2000/svg" viewBox="0 0 512 512"><!--!Font Awesome Pro 6.6.0 by @fontawesome - https://fontawesome.com License - https://fontawesome.com/license (Commercial License) Copyright 2024 Fonticons, Inc.--><path class="fa-secondary" opacity=".4" d="M53.3 256A21.3 21.3 0 1 0 96 256a21.3 21.3 0 1 0 -42.7 0zm59.4-143.3a21.3 21.3 0 1 0 30.2 30.2 21.3 21.3 0 1 0 -30.2-30.2zm0 256.4a21.3 21.3 0 1 0 30.2 30.2 21.3 21.3 0 1 0 -30.2-30.2zM369.1 112.7a21.3 21.3 0 1 0 30.2 30.2 21.3 21.3 0 1 0 -30.2-30.2zm0 256.4a21.3 21.3 0 1 0 30.2 30.2 21.3 21.3 0 1 0 -30.2-30.2zM416 256a21.3 21.3 0 1 0 42.7 0A21.3 21.3 0 1 0 416 256z"/><path class="fa-primary" d="M240 150.5c-51.3 7.7-90.7 52-90.7 105.5c0 58.9 47.8 106.7 106.7 106.7s106.7-47.8 106.7-106.7c0-53.5-39.3-97.8-90.7-105.5v84.1c0 8.8-7.2 16-16 16s-16-7.2-16-16V150.5zm-5.3-75.9a21.3 21.3 0 1 1 42.7 0 21.3 21.3 0 1 1 -42.7 0z"/></svg>