<svg xmlns="http://www.w3.org/2000/svg" viewBox="0 0 512 512"><!--!Font Awesome Pro 6.6.0 by @fontawesome - https://fontawesome.com License - https://fontawesome.com/license (Commercial License) Copyright 2024 Fonticons, Inc.--><path class="fa-secondary" opacity=".4" d="M85.3 224c0 95.2 54.5 198.7 139.5 238.4c9.9 4.6 20.6 6.9 31.2 6.9s21.3-2.3 31.2-6.9c85-39.7 139.5-143.2 139.5-238.4c0-95.9-76.4-181.3-170.7-181.3S85.3 128.1 85.3 224zm224-10.7a53.3 53.3 0 1 1 -106.7 0 53.3 53.3 0 1 1 106.7 0z"/><path class="fa-primary" d="M256 266.7A53.3 53.3 0 1 0 256 160a53.3 53.3 0 1 0 0 106.7z"/></svg>