<svg xmlns="http://www.w3.org/2000/svg" viewBox="0 0 512 512"><!--!Font Awesome Pro 6.6.0 by @fontawesome - https://fontawesome.com License - https://fontawesome.com/license (Commercial License) Copyright 2024 Fonticons, Inc.--><path class="fa-secondary" opacity=".4" d="M209.6 368.2c1.3 40.8 5.6 79.9 9.2 103.5c1.2 7.9 8 13.6 15.8 13.6c.8 0 1.6-.1 2.5-.2c8.7-1.3 14.7-9.5 13.4-18.2c-3.5-22.5-7.7-60.3-8.9-99.7c-1.2-39.8 .6-79.5 8.5-106.8c2.4-8.5-2.5-17.4-11-19.8s-17.4 2.5-19.8 11c-9.2 32.4-10.9 76.2-9.7 116.6zm83.7 101.1c0 8.8 7.2 16 16 16s16-7.2 16-16c0-67 30.2-181.8 152.1-252.8c7.6-4.5 10.2-14.3 5.8-21.9c-3-5.1-8.3-7.9-13.8-7.9c-2.7 0-5.5 .7-8 2.2C327.1 267.1 293.3 394.1 293.3 469.3z"/><path class="fa-primary" d="M267.7 73.4c-9.2-19.8-13.8-29.8-21.9-30.6s-14.4 8-26.9 25.6l-3.2 4.6c-3.6 5-5.3 7.5-7.9 9s-5.6 1.8-11.7 2.5l-5.6 .6c-21.5 2.4-32.3 3.6-35.5 11.1s3.3 16.3 16.2 34l3.4 4.6c3.7 5 5.5 7.5 6.2 10.5s.1 6-1.1 12l-1.1 5.5c-4.1 21.3-6.1 32 0 37.5s16.4 2.1 37-4.6l5.3-1.7c5.8-1.9 8.8-2.9 11.7-2.5s5.7 1.8 11.1 4.9l4.9 2.8c19 10.8 28.5 16.2 35.5 12.1s6.9-15 6.6-36.8l-.1-5.6c-.1-6.2-.1-9.3 1.1-12s3.4-4.8 7.9-9l4.1-3.8c15.8-14.7 23.7-22 21.9-30s-12.2-11.4-32.9-18.2l-5.4-1.8c-5.9-1.9-8.8-2.9-11.1-4.9s-3.6-4.8-6.2-10.5l-2.4-5.1zM109.5 293.7c-.5-2.3 3.2-4.4 4.9-2.8c5.1 4.6 11.9 9.7 18.3 11.5s14.9 .6 21.6-.8c2.3-.5 4.4 3.2 2.8 4.9c-4.6 5.1-9.7 11.9-11.5 18.3s-.6 14.9 .8 21.6c.5 2.3-3.2 4.4-4.9 2.8c-5.1-4.6-11.9-9.7-18.3-11.5s-14.9-.6-21.6 .8c-2.3 .5-4.4-3.2-2.8-4.9c4.6-5.1 9.7-11.9 11.5-18.3s.6-14.9-.8-21.6z"/></svg>