<svg xmlns="http://www.w3.org/2000/svg" viewBox="0 0 512 512"><!--!Font Awesome Pro 6.6.0 by @fontawesome - https://fontawesome.com License - https://fontawesome.com/license (Commercial License) Copyright 2024 Fonticons, Inc.--><path class="fa-secondary" opacity=".4" d="M469.3 370.5a98.9 98.9 0 1 1 -197.7 0 98.9 98.9 0 1 1 197.7 0zm-192-231.8c0-45.3 0-67.9 14.1-81.9s36.7-14.1 81.9-14.1s67.9 0 81.9 14.1s14.1 36.7 14.1 81.9s0 67.9-14.1 81.9s-36.7 14.1-81.9 14.1s-67.9 0-81.9-14.1s-14.1-36.7-14.1-81.9z"/><path class="fa-primary" d="M240.4 141.5a98.9 98.9 0 1 1 -197.7 0 98.9 98.9 0 1 1 197.7 0zM42.7 373.3c0-45.3 0-67.9 14.1-81.9s36.7-14.1 81.9-14.1s67.9 0 81.9 14.1s14.1 36.7 14.1 81.9s0 67.9-14.1 81.9s-36.7 14.1-81.9 14.1s-67.9 0-81.9-14.1s-14.1-36.7-14.1-81.9z"/></svg>