<svg xmlns="http://www.w3.org/2000/svg" viewBox="0 0 512 512"><!--!Font Awesome Pro 6.6.0 by @fontawesome - https://fontawesome.com License - https://fontawesome.com/license (Commercial License) Copyright 2024 Fonticons, Inc.--><path class="fa-secondary" opacity=".4" d="M90.6 344.9c0-4.1 1.6-8.3 4.7-11.4l45.7-45.7c6.3-6.3 16.6-6.3 22.9 0s6.3 16.6 0 22.9l-45.7 45.7c-6.3 6.3-16.6 6.3-22.9 0c-3.2-3.2-4.7-7.3-4.7-11.4zm15.8-191.7c20.6-20.5 45.2-45.1 57.2-50c7.7-3.2 15.9-4.8 24-4.8c2.9 0 5.9 .2 8.8 .6c10 1.5 19.5 6.6 35 16.4l-46.7 46.5c-8.6 8.6-16.4 16.4-22.7 23.5c-4 4.6-8 9.5-11.4 15l-.5-.5c-.9-.9-1.3-1.3-1.7-1.7c-8.1-7.9-17.7-14.1-28.1-18.4c-.6-.2-1.1-.5-2.3-.9l-6.9-2.8c-9.4-3.7-11.9-15.8-4.8-23zM155.6 393L201 347.6c6.3-6.3 16.6-6.3 22.9 0s6.3 16.6 0 22.9l-45.4 45.4c-6.3 6.3-16.6 6.3-22.9 0s-6.3-16.6 0-22.9zm155.5-32.6c5.3-3.2 10-7 14.4-10.8c7.3-6.3 15.3-14.3 24.1-23.1l46.8-46.7c9.8 15.4 15 24.9 16.5 34.9c.4 2.9 .6 5.8 .6 8.8c0 8.1-1.6 16.3-4.8 23.9c-5 11.9-29.6 36.5-50.2 57l-1.5 1.5c-6.4 6.4-17.4 4.2-20.7-4.1c-4.1-10.2-6.1-15.3-8.7-20c-2.3-4.2-5-8.3-8-12.1c-2.3-2.9-4.8-5.6-8.5-9.4z"/><path class="fa-primary" d="M330.7 306.5L438 199.5c15.5-15.4 23.2-23.1 27.2-32.9s4.1-20.7 4.1-42.5l0-10.4c0-33.5 0-50.3-10.4-60.7S431.7 42.7 398 42.7l-10.4 0c-21.9 0-32.8 0-42.6 4.1s-17.6 11.8-33 27.2l-107.3 107c-18.1 18-29.3 29.2-33.6 39.9c-1.4 3.4-2.1 6.8-2.1 10.3c0 14.7 11.9 26.6 35.6 50.3l3.2 3.2 37.4-38c5.3-5.4 14.1-5.5 19.5-.1s5.5 14.1 .1 19.5L227.4 304l2.5 2.5c23.8 23.7 35.6 35.5 50.4 35.5c3.3 0 6.4-.6 9.5-1.7c11.1-4.1 22.4-15.3 40.9-33.8zm0-175.9a35.6 35.6 0 1 1 50.4 50.3 35.6 35.6 0 1 1 -50.4-50.3zM59.2 266.3c6.3 6.3 6.3 16.6 0 22.9l-3.3 3.3c-2.8 2.8-2.8 7.4 0 10.3c2.8 2.8 7.5 2.8 10.3 0l36.5-36.5c6.3-6.3 16.6-6.3 22.9 0s6.3 16.6 0 22.9L89.1 325.6c-15.5 15.5-40.6 15.5-56.1 0c-15.5-15.5-15.5-40.6 0-56.1l3.3-3.3c6.3-6.3 16.6-6.3 22.9 0zm96.5 89.9c6.3 6.4 6.1 16.6-.3 22.9l-36.9 36.1c-6.4 6.3-16.6 6.1-22.9-.3s-6.1-16.6 .3-22.9l36.9-36.1c6.4-6.3 16.6-6.1 22.9 .3zm89.3 30.3c6.3 6.3 6.3 16.6 0 22.9l-36.5 36.5c-2.8 2.8-2.8 7.4 0 10.3c2.8 2.8 7.5 2.8 10.3 0l3.3-3.3c6.3-6.3 16.6-6.3 22.9 0s6.3 16.6 0 22.9l-3.3 3.3c-15.5 15.5-40.6 15.5-56.1 0c-15.5-15.5-15.5-40.6 0-56.1L222 386.5c6.3-6.3 16.6-6.3 22.9 0z"/></svg>