<svg xmlns="http://www.w3.org/2000/svg" viewBox="0 0 512 512"><!--!Font Awesome Pro 6.6.0 by @fontawesome - https://fontawesome.com License - https://fontawesome.com/license (Commercial License) Copyright 2024 Fonticons, Inc.--><path class="fa-secondary" opacity=".4" d="M131.2 245.8l86.1-86.1c-1.5 1.7-20.6 25.3 40 85.5c63 62.7 86.1 39.7 86.1 39.7c-28.2 28.2-56.4 56.4-84.6 84.6c-22.6-13.3-46.6-31.2-70.9-55.4c-24.1-24-42.6-47-56.8-68.4z"/><path class="fa-primary" d="M343.5 285l-84.6 84.6c61.7 36.1 114.1 37.4 139.5 35c11-1 20.6-6.6 28.3-14.3L457 360.2c20.5-20.3 14.7-55.2-11.5-69.4l-40.8-22.2c-17.2-9.3-38.1-6.6-51.6 6.8l-9.7 9.7zM217.4 159.6l6.1-6.1c15.1-15 16.5-39.1 3.3-56.6L200 61c-16.3-21.7-47.7-24.6-66.4-6.1L100.1 88.2c-9.3 9.2-15.4 21.1-14.7 34.3c1.4 24.3 9.7 68.7 45.8 123.2l86.2-86.2z"/></svg>