<svg xmlns="http://www.w3.org/2000/svg" viewBox="0 0 512 512"><!--!Font Awesome Pro 6.6.0 by @fontawesome - https://fontawesome.com License - https://fontawesome.com/license (Commercial License) Copyright 2024 Fonticons, Inc.--><path class="fa-secondary" opacity=".4" d="M112 469.3c0 5.2 2.5 10.2 7.1 13.3c7.4 4.9 17.3 2.9 22.2-4.4l64-96c4.9-7.4 2.9-17.3-4.4-22.2s-17.3-2.9-22.2 4.4l-64 96c-1.8 2.7-2.7 5.8-2.7 8.9zM192 96a53.3 53.3 0 1 0 106.7 0A53.3 53.3 0 1 0 192 96z"/><path class="fa-primary" d="M267.3 229.4c-.8-.1-1.8-.1-5.5-.1l-23.3 0-1.9 19.4c-3.7 37.1-5 52-1.7 66.2s11.1 26.9 31 58.5l54.9 87.4c4.7 7.5 2.4 17.4-5 22.1s-17.4 2.4-22.1-5l-54.9-87.4c-.5-.8-1-1.7-1.6-2.5c-17.8-28.3-28.8-45.8-33.5-65.7s-2.6-40.5 .7-73.8c.1-1 .2-1.9 .3-2.9l1.6-16.2c-10.7 .1-18.6 .3-25 1c-8 1-11.8 2.7-14.5 4.8s-5.1 5.4-7.8 13.1c-2.8 8.1-5.3 19-8.9 35.4l-6.5 29.2c-1.9 8.6-10.5 14.1-19.1 12.1s-14.1-10.5-12.1-19.1l6.7-30.1c3.4-15.2 6.2-28 9.8-38.1c3.8-10.7 8.9-20.1 18-27.4s19.3-10.2 30.6-11.6c10.6-1.3 23.8-1.3 39.3-1.3l44.9 0 .5 0c2.9 0 5.2 0 7.3 .2c23.8 1.7 44.1 17.6 51.6 40.3c.7 2 1.2 4.2 1.9 7l.1 .5c1.2 4.8 1.6 6.1 1.9 7.1c4.5 12.9 18 20.4 31.3 17.2c1-.2 2.3-.7 7-2.2l15.6-5.2c8.4-2.8 17.4 1.7 20.2 10.1s-1.7 17.4-10.1 20.2l-15.6 5.2c-.2 .1-.5 .2-.7 .2c-3.7 1.2-6.5 2.2-9 2.8c-29.3 6.9-59.1-9.4-69-37.9c-.9-2.5-1.6-5.4-2.5-9.1c-.1-.2-.1-.5-.2-.7c-.9-3.6-1.1-4.5-1.4-5.3c-3.4-10.3-12.6-17.5-23.4-18.3z"/></svg>