<svg xmlns="http://www.w3.org/2000/svg" viewBox="0 0 512 512"><!--!Font Awesome Pro 6.6.0 by @fontawesome - https://fontawesome.com License - https://fontawesome.com/license (Commercial License) Copyright 2024 Fonticons, Inc.--><path class="fa-secondary" opacity=".4" d="M42.7 256c0 53.2 19.4 101.8 51.6 139.1L202 287.4c3.1-3.1 7.2-4.7 11.3-4.7s8.2 1.6 11.3 4.7s4.7 7.2 4.7 11.3s-1.6 8.2-4.7 11.3L116.9 417.7c37.4 32.2 86 51.6 139.1 51.6c117.8 0 213.3-95.5 213.3-213.3s-95.5-213.3-213.3-213.3S42.7 138.2 42.7 256z"/><path class="fa-primary" d="M186.7 469.3c0 8.8-7.2 16-16 16l-128 0c-8.8 0-16-7.2-16-16l0-128c0-8.8 7.2-16 16-16s16 7.2 16 16l0 89.4L202 287.4c6.2-6.2 16.4-6.2 22.6 0s6.2 16.4 0 22.6L81.3 453.3l89.4 0c8.8 0 16 7.2 16 16z"/></svg>