<svg xmlns="http://www.w3.org/2000/svg" viewBox="0 0 512 512"><!--!Font Awesome Pro 6.6.0 by @fontawesome - https://fontawesome.com License - https://fontawesome.com/license (Commercial License) Copyright 2024 Fonticons, Inc.--><path class="fa-secondary" opacity=".4" d="M42.7 255.5l0 .5c0 100.6 0 150.9 25 182.1s65.2 31.2 145.7 31.2l85.3 0c80.5 0 120.7 0 145.7-31.2c24.9-31.2 25-81.3 25-181.5l0-.6c0-100.6 0-150.8-25-182.1s-65.2-31.2-145.7-31.2l-85.3 0c-80.5 0-120.7 0-145.7 31.2c-24.9 31.2-25 81.3-25 181.5zm272 .5A101.3 101.3 0 1 1 112 256a101.3 101.3 0 1 1 202.7 0zM144 256a69.3 69.3 0 1 0 138.7 0A69.3 69.3 0 1 0 144 256zM305.7 369.8c-4-7.9-.7-17.5 7.2-21.5l19.1-9.5c9-4.5 14.7-13.8 14.7-23.9l0-77.7c-18.6-6.6-32-24.4-32-45.3c0-26.5 21.5-48 48-48s48 21.5 48 48c0 20.9-13.4 38.7-32 45.3l0 77.7c0 22.2-12.6 42.5-32.4 52.5L327.2 377c-7.9 4-17.5 .7-21.5-7.2zm41-177.8a16 16 0 1 0 32 0 16 16 0 1 0 -32 0z"/><path class="fa-primary" d="M314.7 256A101.3 101.3 0 1 1 112 256a101.3 101.3 0 1 1 202.7 0zM144 256a69.3 69.3 0 1 0 138.7 0A69.3 69.3 0 1 0 144 256zm170.7-64c0-26.5 21.5-48 48-48s48 21.5 48 48c0 20.9-13.4 38.7-32 45.3l0 77.7c0 22.2-12.6 42.5-32.4 52.5L327.2 377c-7.9 4-17.5 .7-21.5-7.2s-.7-17.5 7.2-21.5l19.1-9.5c9-4.5 14.7-13.8 14.7-23.9l0-77.7c-18.6-6.6-32-24.4-32-45.3zm32 0a16 16 0 1 0 32 0 16 16 0 1 0 -32 0z"/></svg>