<svg xmlns="http://www.w3.org/2000/svg" viewBox="0 0 512 512"><!--!Font Awesome Pro 6.6.0 by @fontawesome - https://fontawesome.com License - https://fontawesome.com/license (Commercial License) Copyright 2024 Fonticons, Inc.--><path class="fa-secondary" opacity=".4" d="M65.4 352c10.2 20.1 23.4 38.4 39.1 54.2l17.7 0c65.9 0 133-23.6 188.5-62.8c7.2-5.1 17.2-3.4 22.3 3.8s3.4 17.2-3.8 22.3C275 408 209.9 433 143.8 437.5c32.6 20.2 71 31.8 112.2 31.8c80.2 0 150-44.2 186.5-109.6c15.3-27.5 24.7-58.7 26.5-91.9c-9.1-9-18.1-18.2-27.1-27.3c-40.5-40.4-91.4-67.8-146.5-79.5c-8.6-1.8-14.2-10.3-12.3-19s10.3-14.2 19-12.3c61.1 12.9 117.7 43.3 162.5 88.2c.6 .7 1.2 1.2 1.8 1.8C449 119.1 361.4 42.7 256 42.7c-4.9 11.7-9.8 23.4-14.6 35.1C217.1 136 222.5 202.5 256 256c-3.1 3.9-6.1 7.9-9.2 11.8C205.5 320.9 142 352 74.7 352l-9.2 0z"/><path class="fa-primary" d="M137.9 78.3C80.5 116.5 42.7 181.8 42.7 256c0 34.5 8.2 67.1 22.8 96h9.2c67.3 0 130.8-31.1 172.2-84.2L256 256c-33.5-53.5-38.9-120-14.6-178.2L256 42.7c-25.8 0-50.6 4.6-73.5 13L174.6 72c-24.1 58-30.2 120.6-18.3 180.9c1.7 8.7-3.9 17.1-12.6 18.8s-17.1-3.9-18.8-12.6C113 199 117.4 136.8 137.9 78.3z"/></svg>