<svg xmlns="http://www.w3.org/2000/svg" viewBox="0 0 512 512"><!--!Font Awesome Pro 6.5.2 by @fontawesome - https://fontawesome.com License - https://fontawesome.com/license (Commercial License) Copyright 2024 Fonticons, Inc.--><path class="fa-secondary" opacity=".4" d="M211.2 275.3c-5.5 14.9-4.8 31.3 2 45.7c3.6 7.5 9 13.4 15.4 19.1c7.8 6.6 15.7 12.9 24 18.9l.5 .4c14.2 10.7 18.9 14.5 22.4 18.9c4.2 5.3 7.2 11.4 8.9 17.9c1.4 5.4 1.5 11.5 1.5 29.2l0 43.9c0 8.8 7.2 16 16 16s16-7.2 16-16l0-46c0-1.3 0-2.5 0-3.7c0-13-.2-22.5-2.5-31.5c-2.8-10.9-7.9-21.1-14.8-29.9c-6.3-7.9-14.6-14.2-26.6-23.3l-1.6-1.2c-10.4-7.9-17.5-13.2-22.5-17.7c-5-4.4-6.8-7-7.7-8.9c-3.1-6.5-3.4-14-.9-20.8c.9-1.4 1.9-2.7 3.1-4c3.2-3.6 6.6-7 10.1-10.2c5.2-5 11-10.1 17-15.4c3.7-3.3 7.6-6.7 11.4-10.2c6.5-5.9 7-16.1 1.1-22.6c-2.9-3.1-6.8-5-11.1-5.2s-8.4 1.3-11.5 4.2c-3.3 3-6.9 6.2-10.5 9.4c-6.3 5.6-12.8 11.4-18.4 16.7c-4.5 4.2-8.7 8.5-12.2 12.5c-3.2 3.7-7 8.5-9 13.8z"/><path class="fa-primary" d="M442.7 96A53.3 53.3 0 1 1 336 96a53.3 53.3 0 0 1 106.7 0m-156 46.1l.1 .1c25.4 10.4 46.3 29.6 58.6 54.1c13.4 26.8 40.8 43.7 70.7 43.7l26.6 0c8.8 0 16 7.2 16 16s-7.2 16-16 16l-26.6 0c-42.1 0-80.5-23.8-99.4-61.4c-8.9-17.6-23.9-31.4-42.2-38.8c-29.1-12-38.3-15.4-55.9-14.1c-24.4 1.8-46.8 14.1-100.2 44.4L87.9 219.5c-7.7 4.4-17.5 1.7-21.8-6s-1.7-17.5 6-21.8l30.6-17.4 3.7-2.1c48.5-27.6 77.5-44.1 110-46.4c26-1.9 41.7 4.6 70.3 16.3zM196.9 350.4c6.8 5.7 7.7 15.7 2 22.5l-21.3 25.6-2.1 2.5c-13.7 16.4-23.7 28.5-37.8 35.1s-29.8 6.6-51.2 6.5l-27.9 0c-8.8 0-16-7.2-16-16s7.2-16 16-16l24.7 0c26.1 0 34-.4 40.8-3.5c6.8-3.2 12.2-9.1 28.8-29.1l21.3-25.6c2.7-3.3 6.6-5.3 10.9-5.7s8.4 .9 11.7 3.7z"/></svg>