<svg xmlns="http://www.w3.org/2000/svg" viewBox="0 0 512 512"><!--!Font Awesome Pro 6.6.0 by @fontawesome - https://fontawesome.com License - https://fontawesome.com/license (Commercial License) Copyright 2024 Fonticons, Inc.--><path class="fa-secondary" opacity=".4" d="M48 317.5c0 37.5 14.3 75 42.9 103.6S157 464 194.5 464s75-14.3 103.6-42.9l15.4-15.4c6.2-6.2 6.2-16.4 0-22.6s-16.4-6.2-22.6 0l-15.4 15.4c-44.7 44.7-117.2 44.7-161.9 0s-44.7-117.2 0-161.9l15.4-15.4c6.2-6.2 6.2-16.4 0-22.6s-16.4-6.2-22.6 0L90.9 213.9C62.3 242.5 48 280 48 317.5zM198.6 106.3c-6.2 6.2-6.2 16.4 0 22.6s16.4 6.2 22.6 0l15.4-15.4c44.7-44.7 117.2-44.7 161.9 0s44.7 117.2 0 161.9l-15.4 15.4c-6.2 6.2-6.2 16.4 0 22.6s16.4 6.2 22.6 0l15.4-15.4C449.7 269.5 464 232 464 194.5s-14.3-75-42.9-103.6S355 48 317.5 48s-75 14.3-103.6 42.9l-15.4 15.4z"/><path class="fa-primary" d="M313.5 198.6c6.2 6.2 6.2 16.4 0 22.6l-92.3 92.3c-6.2 6.2-16.4 6.2-22.6 0s-6.2-16.4 0-22.6l92.3-92.3c6.2-6.2 16.4-6.2 22.6 0z"/></svg>