<svg xmlns="http://www.w3.org/2000/svg" viewBox="0 0 512 512"><!--!Font Awesome Pro 6.5.2 by @fontawesome - https://fontawesome.com License - https://fontawesome.com/license (Commercial License) Copyright 2024 Fonticons, Inc.--><path class="fa-secondary" opacity=".4" d="M187.4 147.4c0 8.8 7.2 16 16 16s16-7.2 16-16c0-12.1 11.5-24.7 29.3-24.7s29.3 12.6 29.3 24.7c0 6.6-2.4 12.4-6.3 16.6c-2.4 2.6-5.1 5.2-8.1 8.2L262 174c-3.9 3.8-7.7 7.8-11.3 11.9c-5.6 6.6-11.8 15.4-14 26.2c4.9-.8 9.9-1.3 14.9-1.3c.1 0 .3 0 .4 0c.8 0 1.7 0 2.5 0c5.4 .1 10.8 .6 16.1 1.7c1.3-2.1 2.8-4 4.4-5.8c3-3.4 6.1-6.7 9.4-9.9l1.6-1.5c3-3 6.3-6.2 9.3-9.5c9.4-10.2 14.7-23.8 14.7-38.3c0-32.9-29.1-56.7-61.3-56.7s-61.3 23.8-61.3 56.7z"/><path class="fa-primary" d="M251.6 210.8c19-.3 37.7 5.2 53.5 15.8L463.7 333.4c20.3 13.7 25.7 36.2 18.7 55.2c-6.9 18.7-25.4 32.7-49.4 32.7l-354 0c-23.7 0-42.1-13.8-49.2-32.2c-7.2-18.8-2.1-41.2 17.7-55.1L198.8 227.5c15.5-10.8 33.9-16.6 52.8-16.8zm35.6 42.3c-10.5-6.9-22.8-10.5-35.3-10.3c-12.4 .1-24.5 3.9-34.7 10.9L65.8 360.2c-7.4 5.2-8.3 11.9-6.2 17.5c2.2 5.9 8.6 11.7 19.3 11.7l354 0c10.9 0 17.2-5.9 19.4-11.8c2.1-5.6 1-12.4-6.6-17.5z"/></svg>