<svg xmlns="http://www.w3.org/2000/svg" viewBox="0 0 512 512"><!--!Font Awesome Pro 6.6.0 by @fontawesome - https://fontawesome.com License - https://fontawesome.com/license (Commercial License) Copyright 2024 Fonticons, Inc.--><path class="fa-secondary" opacity=".4" d="M42.7 125.3l0 .2 0 260.8c0 36.3 0 54.5 11.6 60.4s26.3-4.6 55.9-25.7l33.7-24.1c13.1-9.4 19.7-14.1 23.3-21s3.5-15 3.5-31.1l0-177.9c0-16.1 0-24.2-3.5-31.1s-10.1-11.6-23.3-21L110.1 90.9C80.6 69.8 65.8 59.2 54.2 65.2c-11.5 5.9-11.6 24-11.6 60.2zM341.3 167l0 177.9c0 16.1 0 24.2 3.5 31.1s10.1 11.6 23.3 21l33.7 24.1c29.5 21.1 44.3 31.7 55.9 25.7s11.6-24.1 11.6-60.4l0-260.8 0-.2c0-36.1 0-54.2-11.6-60.2c-2.2-1.1-4.4-1.6-6.9-1.6c-10.7 0-25 10.2-49 27.4L368.1 115c-13.1 9.4-19.7 14.1-23.3 21s-3.5 15-3.5 31.1z"/><path class="fa-primary" d="M256 485.3c-8.8 0-16-7.2-16-16l0-85.3c0-8.8 7.2-16 16-16s16 7.2 16 16l0 85.3c0 8.8-7.2 16-16 16zm0-170.7c-8.8 0-16-7.2-16-16l0-85.3c0-8.8 7.2-16 16-16s16 7.2 16 16l0 85.3c0 8.8-7.2 16-16 16zM256 144c-8.8 0-16-7.2-16-16l0-85.3c0-8.8 7.2-16 16-16s16 7.2 16 16l0 85.3c0 8.8-7.2 16-16 16z"/></svg>