<svg xmlns="http://www.w3.org/2000/svg" viewBox="0 0 512 512"><!--!Font Awesome Pro 6.6.0 by @fontawesome - https://fontawesome.com License - https://fontawesome.com/license (Commercial License) Copyright 2024 Fonticons, Inc.--><path class="fa-secondary" opacity=".4" d="M95.5 342.6C129.8 290.4 188.9 256 256 256s126.2 34.4 160.5 86.6C392.7 404.1 329.8 448 256 448s-136.7-43.9-160.5-105.4z"/><path class="fa-primary" d="M95.5 342.6C129.8 290.4 188.9 256 256 256s126.2 34.4 160.5 86.6c6.6-17 10.2-35.4 10.2-54.5c0-79.8-43.4-142.2-73.3-171.9c-5.6-5.5-14.8-3.1-17.9 4c-15.9 36.1-49.1 88-91.6 88c-26.3 3.5-66.4-18.9-34-130.3c2.9-10-7.8-18.1-16-11.4C147.3 104.6 85.3 181.6 85.3 288.1c0 19.1 3.6 37.5 10.2 54.5z"/></svg>