<svg xmlns="http://www.w3.org/2000/svg" viewBox="0 0 512 512"><!--!Font Awesome Pro 6.6.0 by @fontawesome - https://fontawesome.com License - https://fontawesome.com/license (Commercial License) Copyright 2024 Fonticons, Inc.--><path class="fa-secondary" opacity=".4" d="M64 154.7l21.3 0c8.8 0 16 7.2 16 16s-7.2 16-16 16l-21.3 0L64 240l21.3 0c8.8 0 16 7.2 16 16s-7.2 16-16 16L64 272l0 53.3 21.3 0c8.8 0 16 7.2 16 16s-7.2 16-16 16l-21.3 0c.1 49.8 1.7 76.2 18.7 93.3c14.4 14.4 35.5 17.7 71.9 18.5l0-426.2 32 0 0-.3c-56.8 0-85.7 .6-103.9 18.7c-17 17-18.6 43.4-18.7 93.3zm122.7-112l0 426.7c1.8 0 3.5 0 5.3 0l128 0 .4 0c60.1 0 90.2 0 108.9-18.7C448 431.8 448 401.7 448 341.3l0-170.7 0-.3c0-60.1 0-90.2-18.7-108.9C410.5 42.7 380.3 42.7 320 42.7l-128 0-.4 0c-1.7 0-3.3 0-4.9 0zm42.7 96c0-8.8 7.2-16 16-16l106.7 0c8.8 0 16 7.2 16 16s-7.2 16-16 16l-106.7 0c-8.8 0-16-7.2-16-16zm0 74.7c0-8.8 7.2-16 16-16l106.7 0c8.8 0 16 7.2 16 16s-7.2 16-16 16l-106.7 0c-8.8 0-16-7.2-16-16z"/><path class="fa-primary" d="M186.7 42.9l0 426.6-32 0 0-426.6 32 0zM26.7 170.7c0-8.8 7.2-16 16-16l42.7 0c8.8 0 16 7.2 16 16s-7.2 16-16 16l-42.7 0c-8.8 0-16-7.2-16-16zm0 85.3c0-8.8 7.2-16 16-16l42.7 0c8.8 0 16 7.2 16 16s-7.2 16-16 16l-42.7 0c-8.8 0-16-7.2-16-16zm0 85.3c0-8.8 7.2-16 16-16l42.7 0c8.8 0 16 7.2 16 16s-7.2 16-16 16l-42.7 0c-8.8 0-16-7.2-16-16zM229.3 138.7c0-8.8 7.2-16 16-16H352c8.8 0 16 7.2 16 16s-7.2 16-16 16H245.3c-8.8 0-16-7.2-16-16zm0 74.7c0-8.8 7.2-16 16-16H352c8.8 0 16 7.2 16 16s-7.2 16-16 16H245.3c-8.8 0-16-7.2-16-16z"/></svg>