<svg xmlns="http://www.w3.org/2000/svg" viewBox="0 0 512 512"><!--!Font Awesome Pro 6.6.0 by @fontawesome - https://fontawesome.com License - https://fontawesome.com/license (Commercial License) Copyright 2024 Fonticons, Inc.--><path class="fa-secondary" opacity=".4" d="M26.7 256c0 126.7 102.7 229.3 229.3 229.3s229.3-102.7 229.3-229.3c0-94.1-56.6-174.9-137.6-210.2c-8.1-3.5-17.5 .2-21.1 8.3s.2 17.5 8.3 21.1c69.7 30.5 118.4 100 118.4 180.9c0 109-88.3 197.3-197.3 197.3S58.7 365 58.7 256c0-88.5 58.3-163.5 138.7-188.5l0 28.5c0 6.8 4.3 12.8 10.7 15.1s13.5 .2 17.8-5.1l42.7-53.3c3.8-4.8 4.6-11.4 1.9-16.9s-8.3-9.1-14.4-9.1c-15.7 0-31 1.6-45.8 4.6C105.5 52.5 26.7 145 26.7 256z"/><path class="fa-primary" d="M220.3 166.9c5.5 2.7 9.1 8.3 9.1 14.4V330.7c0 8.8-7.2 16-16 16s-16-7.2-16-16v-116L170 236.5c-6.9 5.5-17 4.4-22.5-2.5s-4.4-17 2.5-22.5l53.3-42.7c4.8-3.8 11.4-4.6 16.9-1.9zm83.7-1.6c-29.5 0-53.3 23.9-53.3 53.3l0 74.7c0 29.5 23.9 53.3 53.3 53.3s53.3-23.9 53.3-53.3l0-74.7c0-29.5-23.9-53.3-53.3-53.3zm0 32c11.8 0 21.3 9.6 21.3 21.3l0 74.7c0 11.8-9.6 21.3-21.3 21.3s-21.3-9.6-21.3-21.3l0-74.7c0-11.8 9.6-21.3 21.3-21.3z"/></svg>