<svg xmlns="http://www.w3.org/2000/svg" viewBox="0 0 512 512"><!--!Font Awesome Pro 6.5.2 by @fontawesome - https://fontawesome.com License - https://fontawesome.com/license (Commercial License) Copyright 2024 Fonticons, Inc.--><path class="fa-secondary" opacity=".4" d="M48 426.7c0 8.8 7.2 16 16 16c52.1 0 101.4-23.2 134.7-63.2l5.5-6.6c5.7-6.8 4.7-16.9-2-22.5c-6.8-5.7-16.9-4.7-22.5 2l-5.5 6.6c-27.2 32.7-67.6 51.6-110.2 51.6c-8.8 0-16 7.2-16 16zM325.8 252.1c-1 4.1-.4 8.5 1.8 12.1s5.7 6.3 9.8 7.3c30.6 7.6 62.5 7.6 93.1 0c5.6-1.3 10.1-5.6 11.7-11.1s.1-11.5-3.9-15.7c-3.1-3.1-7.2-4.8-11.4-4.8c-1.4 0-2.7 .2-4.1 .5c-25.5 6.4-52.1 6.4-77.6 0c-4.1-1-8.5-.4-12.1 1.8s-6.3 5.7-7.3 9.8z"/><path class="fa-primary" d="M448 96a53.3 53.3 0 1 1 -106.7 0A53.3 53.3 0 0 1 448 96M191.4 123.9c19.3-8.5 41.1-9 60.7-1.3c54.8 21.3 68 92.8 24.5 132.4l-22.2 20.2-1.3 1.2c-5.9 5.5-8.9 13.4-8.3 21.4s4.8 15.3 11.4 19.9l.1 0c1.3 1 2 1.5 2.7 2c40 30.9 63.6 78.4 64.1 129l0 20.6c0 8.8-7.2 16-16 16s-16-7.2-16-16l0-20.3c-.4-41.8-20.5-81.1-54.2-105.9l-.1-.1c-14.4-10.5-23.2-27-24-44.7s6.5-35 19.9-46.7l22.3-20.3c17.1-15.6 20.4-41.2 7.8-60.6s-37.4-26.8-58.6-17.5l-11.1 4.9c-11.6 5.1-17 7.5-22.2 10.1c-8.8 4.4-17.3 9.2-25.6 14.6c-4.9 3.2-9.7 6.6-20.1 14L94.6 218.6c-7.2 5.1-17.2 3.4-22.3-3.8s-3.4-17.2 3.8-22.3l31.1-22.1c9.9-7.1 15.3-10.9 20.9-14.5c9.3-6 18.9-11.5 28.7-16.4c6-2.9 12-5.6 23.1-10.5z"/></svg>