<svg xmlns="http://www.w3.org/2000/svg" viewBox="0 0 512 512"><!--!Font Awesome Pro 6.6.0 by @fontawesome - https://fontawesome.com License - https://fontawesome.com/license (Commercial License) Copyright 2024 Fonticons, Inc.--><path class="fa-secondary" opacity=".4" d="M107.2 380.8c3.3 4.5 7.1 8.8 11.1 12.9s8.4 7.8 12.9 11.1c39.5 29.4 93.4 30.6 134 3.4l-35.7-35.7c-6.6-6.6-6.6-17.4 0-24s17.4-6.6 24 0l37.2 37.2c4.3-4.3 8.7-8.7 13-13l-65.3-65.3c-6.6-6.6-6.6-17.4 0-24s17.4-6.6 24 0l65.3 65.3c8.8-8.8 17.6-17.6 26.4-26.4L189.6 157.8c-23.8 23.8-47.5 47.5-71.3 71.3C77 270.5 73.3 335.2 107.2 380.8zm106.4-247L378.2 298.4c.5-.5 1.1-1.1 1.6-1.6c17.1-17.1 25.6-25.6 29.1-35.3c3.7-10.3 3.7-21.6 0-31.8c-3.5-9.7-12.1-18.2-29.1-35.3c-6.4-6.4-12.7-12.7-19.1-19.1c-8-8-16-16-24-24l-19.1-19.1c-17.1-17.1-25.6-25.6-35.3-29.1c-10.3-3.7-21.6-3.7-31.8 0c-9.7 3.5-18.2 12.1-35.3 29.1l-1.6 1.6zM353.2 69c-6.6 6.6-6.6 17.4 0 24c7 7 13.9 13.9 20.9 20.9c8 8 16 16 24 24c7 7 13.9 13.9 20.9 20.9c6.6 6.6 17.4 6.6 24 0s6.6-17.4 0-24L377.2 69c-6.6-6.6-17.4-6.6-24 0z"/><path class="fa-primary" d="M378.2 298.4L213.6 133.8l-24 24L354.2 322.4l24-24zm-271 82.4c3.3 4.5 7.1 8.8 11.1 12.9s8.4 7.8 12.9 11.1L93 443c-6.6 6.6-17.4 6.6-24 0s-6.6-17.4 0-24l38.2-38.2zM360.7 175.3l-24-24 37.4-37.4 24 24-37.4 37.4zM327.8 348.8s0 0 0 0l-65.3-65.3c-6.6-6.6-17.4-6.6-24 0s-6.6 17.4 0 24l65.3 65.3s0 0 0 0l24-24zm-37 37s0 0 0 0l-37.2-37.2c-6.6-6.6-17.4-6.6-24 0s-6.6 17.4 0 24l35.7 35.7c6.2-4.2 12.2-9 17.7-14.5l7.9-7.9z"/></svg>