<svg xmlns="http://www.w3.org/2000/svg" viewBox="0 0 512 512"><!--!Font Awesome Pro 6.6.0 by @fontawesome - https://fontawesome.com License - https://fontawesome.com/license (Commercial License) Copyright 2024 Fonticons, Inc.--><path class="fa-secondary" opacity=".4" d="M35.5 128c0 19.9 0 29.8 3.2 37.7c4.3 10.5 12.6 18.8 23.1 23.1c7.8 3.2 17.8 3.2 37.7 3.2c-19.9 0-29.8 0-37.7 3.2c-10.5 4.3-18.8 12.6-23.1 23.1c-3.2 7.8-3.2 17.8-3.2 37.7c0 19.9 0 29.8 3.2 37.7c4.3 10.5 12.6 18.8 23.1 23.1c7.8 3.2 17.8 3.2 37.7 3.2c-19.9 0-29.8 0-37.7 3.2c-10.5 4.3-18.8 12.6-23.1 23.1c-3.2 7.8-3.2 17.8-3.2 37.7c0 19.9 0 29.8 3.2 37.7c4.3 10.5 12.6 18.8 23.1 23.1c7.8 3.2 17.8 3.2 37.7 3.2l155.1 0c-.9-1.6-1.8-3.3-2.5-5c-3.2-7.8-3.2-17.8-3.2-37.7l0-85.3 0-128 0-85.3c0-19.9 0-29.8 3.2-37.7c.7-1.7 1.5-3.4 2.5-5L99.5 64c-19.9 0-29.8 0-37.7 3.2C51.4 71.6 43.1 79.9 38.8 90.3c-3.2 7.8-3.2 17.8-3.2 37.7zM371.2 64c.9 1.6 1.8 3.3 2.5 5c3.2 7.8 3.2 17.7 3.2 37.7l0 85.3 0 128 0 85.3c0 19.9 0 29.8-3.2 37.7c-.7 1.7-1.5 3.4-2.5 5l27 0c19.9 0 29.8 0 37.7-3.2c10.5-4.3 18.8-12.6 23.1-23.1c3.2-7.8 3.2-17.8 3.2-37.7c0-19.9 0-29.8-3.2-37.7c-4.3-10.5-12.6-18.8-23.1-23.1c-7.8-3.2-17.8-3.2-37.7-3.2c19.9 0 29.8 0 37.7-3.2c10.5-4.3 18.8-12.6 23.1-23.1c3.2-7.8 3.2-17.8 3.2-37.7c0-19.9 0-29.8-3.2-37.7c-4.3-10.5-12.6-18.8-23.1-23.1c-7.8-3.2-17.8-3.2-37.7-3.2c19.9 0 29.8 0 37.7-3.2c10.5-4.3 18.8-12.6 23.1-23.1c3.2-7.8 3.2-17.8 3.2-37.7c0-19.9 0-29.8-3.2-37.7c-4.3-10.5-12.6-18.8-23.1-23.1C428 64 418.1 64 398.2 64l-27 0z"/><path class="fa-primary" d="M373.6 69c3.2 7.8 3.2 17.8 3.2 37.7l0 298.7c0 19.9 0 29.8-3.2 37.7c-.7 1.7-1.5 3.4-2.5 5c-4.7 8.1-11.9 14.5-20.6 18.1c-7.8 3.2-17.8 3.2-37.7 3.2s-29.8 0-37.7-3.2c-8.7-3.6-16-10-20.6-18.1c-.9-1.6-1.8-3.3-2.5-5c-3.2-7.8-3.2-17.8-3.2-37.7l0-298.7c0-19.9 0-29.8 3.2-37.7c.7-1.7 1.5-3.4 2.5-5c4.7-8.1 11.9-14.5 20.6-18.1c7.8-3.2 17.8-3.2 37.7-3.2s29.8 0 37.7 3.2c8.7 3.6 16 10 20.6 18.1c.9 1.6 1.8 3.3 2.5 5zM328.9 234.7c0-8.8-7.2-16-16-16s-16 7.2-16 16l0 42.7c0 8.8 7.2 16 16 16s16-7.2 16-16l0-42.7z"/></svg>