<svg xmlns="http://www.w3.org/2000/svg" viewBox="0 0 512 512"><!--!Font Awesome Pro 6.5.2 by @fontawesome - https://fontawesome.com License - https://fontawesome.com/license (Commercial License) Copyright 2024 Fonticons, Inc.--><path class="fa-secondary" opacity=".4" d="M42.7 256c0 117.8 95.5 213.3 213.3 213.3s213.3-95.5 213.3-213.3c0-9.9-14.8-11.5-19.9-3.1c-29.8 49.3-87 75.1-143.7 64.7s-101.1-54.7-111.4-111.4s15.4-113.9 64.7-143.7c8.5-5.1 6.8-19.9-3.1-19.9C138.2 42.7 42.7 138.2 42.7 256z"/><path class="fa-primary" d="M424.5 49.2a10.3 10.3 0 0 0 -19.2 0l-9.2 23.4a10.3 10.3 0 0 1 -5.8 5.8l-23.3 9.2a10.4 10.4 0 0 0 0 19.3l23.3 9.2a10.2 10.2 0 0 1 5.8 5.8l9.2 23.3c3.5 8.7 15.8 8.7 19.2 0l9.2-23.4a10.3 10.3 0 0 1 5.8-5.8l23.3-9.2a10.4 10.4 0 0 0 0-19.3l-23.3-9.2a10.3 10.3 0 0 1 -5.8-5.8zM342 173.4a10.3 10.3 0 0 0 -19.2 0l-3.3 8.5a10.3 10.3 0 0 1 -5.8 5.8l-8.5 3.4a10.4 10.4 0 0 0 0 19.3l8.5 3.3c2.7 1.1 4.8 3.2 5.8 5.8l3.3 8.5c3.4 8.7 15.8 8.7 19.2 0l3.3-8.5a10.3 10.3 0 0 1 5.8-5.8l8.5-3.3a10.4 10.4 0 0 0 0-19.3l-8.5-3.4a10.3 10.3 0 0 1 -5.8-5.8z"/></svg>