<svg xmlns="http://www.w3.org/2000/svg" viewBox="0 0 512 512"><!--!Font Awesome Pro 6.6.0 by @fontawesome - https://fontawesome.com License - https://fontawesome.com/license (Commercial License) Copyright 2024 Fonticons, Inc.--><path class="fa-secondary" opacity=".4" d="M90.7 149.3c0 4.6 2 9.1 5.6 12.2l149.3 128c3 2.6 6.7 3.9 10.4 3.9s7.4-1.3 10.4-3.9l149.3-128c3.6-3.1 5.6-7.6 5.6-12.2c0-1.9-.3-3.7-1-5.5c-2.3-6.3-8.3-10.4-15-10.4l-298.7 0c-6.7 0-12.7 4.2-15 10.4c-.7 1.8-1 3.7-1 5.5z"/><path class="fa-primary" d="M94.5 224.3c5.8-6.7 15.9-7.5 22.6-1.7L256 341.6 394.9 222.5c6.7-5.8 16.8-5 22.6 1.7s5 16.8-1.7 22.6l-149.3 128c-6 5.1-14.8 5.1-20.8 0L96.3 246.8c-6.7-5.8-7.5-15.9-1.7-22.6z"/></svg>