<svg xmlns="http://www.w3.org/2000/svg" viewBox="0 0 512 512"><!--!Font Awesome Pro 6.6.0 by @fontawesome - https://fontawesome.com License - https://fontawesome.com/license (Commercial License) Copyright 2024 Fonticons, Inc.--><path class="fa-secondary" opacity=".4" d="M96 128l0 3c18-3 41.9-3 74.7-3l170.7 0c4.1 0 8.1 0 11.9 0s7.5 0 11.1 0c7.1 0 13.8 .1 19.9 .3c12.3 .4 22.8 1.1 31.8 2.6l0-3c0-29.9 0-44.8-5.8-56.2c-5.1-10-13.3-18.2-23.3-23.3c-11.4-5.8-26.3-5.8-56.1-5.8l-149.5 0c-29.9 0-44.8 0-56.2 5.8c-10 5.1-18.2 13.3-23.3 23.3C96 83.2 96 98.1 96 128zm0 253l0 3c0 29.9 0 44.8 5.8 56.2c5.1 10 13.3 18.2 23.3 23.3c11.4 5.8 26.3 5.8 56.2 5.8l149.3 0c29.9 0 44.8 0 56.2-5.8c10-5.1 18.2-13.3 23.3-23.3c5.8-11.4 5.8-26.3 5.8-56.2l0-3c-17.9 3-41.7 3-74.3 3l-.3 0-170.7 0c-4.1 0-8.1 0-11.9 0s-7.5 0-11.1 0c-7.1 0-13.8-.1-19.9-.3c-12.3-.4-22.8-1.1-31.8-2.6z"/><path class="fa-primary" d="M170.7 384c-60.3 0-90.5 0-109.3-18.7S42.7 316.3 42.7 256s0-90.5 18.7-109.3S110.3 128 170.7 128l170.7 0c60.3 0 90.5 0 109.3 18.7s18.7 48.9 18.7 109.3s0 90.5-18.7 109.3S401.7 384 341.3 384H170.7z"/></svg>