<svg xmlns="http://www.w3.org/2000/svg" viewBox="0 0 512 512"><!--!Font Awesome Pro 6.6.0 by @fontawesome - https://fontawesome.com License - https://fontawesome.com/license (Commercial License) Copyright 2024 Fonticons, Inc.--><path class="fa-secondary" opacity=".4" d="M130 130c2.6-28.8 8.8-48.1 23-62.3c25-25 65.2-25 145.7-25c21.9 0 42.8 8.8 58.3 24.2l88.2 88.2c15.5 15.5 24.2 36.4 24.2 58.3c0 80.5 0 120.7-25 145.7c-14.2 14.2-33.4 20.4-62 23c-.3-.1-.3-.2-.2-.3c.1-1.3 .2-2.6 .3-3.9l0-.4c.1-1 .1-2.1 .2-3.1c.2-3.2 .4-6.5 .5-9.8c.1-2.9 .2-5.8 .3-8.7l0-.7c.1-3 .2-6 .2-9c0-.5 0-.9 0-1.4c.1-3.1 .1-6.1 .1-9c0-.5 0-1.1 0-1.6c0-3 0-6 .1-9.1c0-.7 0-1.4 0-2.1c0-6.9 0-14.2 0-21.8c0-.7 0-1.4 0-2c0-.2 0-.3 0-.5c0-.1 0-.2 0-.4c0-.5 0-1 0-1.6l0-.4c0-.4 0-.9-.1-1.5c-.1-1.4-.2-2.8-.3-4.4c-.1-1.3-.3-2.6-.5-4s-.4-2.6-.7-4c-.5-2.6-1.2-5.2-2-7.8c-.4-1.3-.8-2.5-1.3-3.8s-.9-2.5-1.5-3.8c-2.1-4.9-4.6-9.7-7.6-14.2c-1.5-2.2-3.1-4.4-4.8-6.5s-3.5-4.1-5.5-6.1c-29.4-29.4-58.8-58.8-88.2-88.2c-15.5-15.5-36.4-24.2-58.3-24.2c-34.5 0-61.7 0-83.4 2z"/><path class="fa-primary" d="M67.7 444.3c25 25 65.2 25 145.7 25s120.7 0 145.7-25s25-65.2 25-145.7c0-21.9-8.8-42.8-24.2-58.3l-88.2-88.2c-15.5-15.5-36.4-24.2-58.3-24.2c-80.5 0-120.7 0-145.7 25s-25 65.2-25 145.7s0 120.7 25 145.7zm167-145.7c20.1 0 30.2 0 36.4 6.2s6.2 16.3 6.2 36.4l-53.3 0 0-42.7 10.7 0zm-32 106.7l-10.7 0c-20.1 0-30.2 0-36.4-6.2s-6.2-16.3-6.2-36.4l0-21.3c0-20.1 0-30.2 6.2-36.4s16.3-6.2 36.4-6.2l10.7 0 0 106.7zm32 0l-10.7 0 0-42.7 53.3 0c0 20.1 0 30.2-6.2 36.4s-16.3 6.2-36.4 6.2z"/></svg>