<svg xmlns="http://www.w3.org/2000/svg" viewBox="0 0 512 512"><!--!Font Awesome Pro 6.6.0 by @fontawesome - https://fontawesome.com License - https://fontawesome.com/license (Commercial License) Copyright 2024 Fonticons, Inc.--><path class="fa-secondary" opacity=".4" d="M122.3 256c-19 0-35.8-8-47.6-20.6l0 63.3c0 80.5 0 120.7 25 145.7c20.1 20.1 50.1 24 103 24.8l106.7 0c52.9-.8 82.9-4.7 103-24.8c25-25 25-65.2 25-145.7l0-63.3C425.5 248 408.7 256 389.7 256c-33.5 0-61.6-25.4-64.9-58.8l-1.6-15.5c4 39.8-27.3 74.3-67.2 74.3c-39.7 0-70.8-34.1-67.3-73.5l-1.5 14.7c-3.3 33.4-31.4 58.8-64.9 58.8zm187 138.7l0 74.5-106.7 0 0-74.5c0-19.9 0-29.9 4.3-37.3c2.8-4.9 6.8-8.9 11.7-11.7c7.4-4.3 17.4-4.3 37.3-4.3s29.9 0 37.3 4.3c4.9 2.8 8.9 6.8 11.7 11.7c4.3 7.4 4.3 17.4 4.3 37.3zM71 114.2c3.8-19 5.7-28.5 9.6-36.2c8.1-16.2 22.8-28.2 40.3-33c8.3-2.3 18-2.3 37.4-2.3h44.4L187.2 197.2c-3.3 33.4-31.4 58.8-64.9 58.8c-41.2 0-72.1-37.7-64-78.1L71 114.2zm369.9 0c-3.8-19-5.7-28.5-9.6-36.2c-8.1-16.2-22.8-28.2-40.3-33c-8.3-2.3-18-2.3-37.4-2.3H309.3l15.5 154.6c3.3 33.4 31.4 58.8 64.9 58.8c41.2 0 72.1-37.7 64-78.1L441 114.2z"/><path class="fa-primary" d="M309.3 469.1V394.7c0-19.9 0-29.9-4.3-37.3c-2.8-4.9-6.8-8.9-11.7-11.7c-7.4-4.3-17.4-4.3-37.3-4.3s-29.9 0-37.3 4.3c-4.9 2.8-8.9 6.8-11.7 11.7c-4.3 7.4-4.3 17.4-4.3 37.3v74.5H309.3zM202.7 42.7H309.3l13.9 139c4 39.8-27.3 74.3-67.2 74.3s-71.2-34.5-67.2-74.3l13.9-139z"/></svg>