<svg xmlns="http://www.w3.org/2000/svg" viewBox="0 0 512 512"><!--!Font Awesome Pro 6.6.0 by @fontawesome - https://fontawesome.com License - https://fontawesome.com/license (Commercial License) Copyright 2024 Fonticons, Inc.--><path class="fa-secondary" opacity=".4" d="M42.7 256c0 100.6 0 150.9 31.2 182.1s81.5 31.2 182.1 31.2s150.9 0 182.1-31.2c31.2-31.2 31.2-81.3 31.2-181.3l0-.8c0-100.6 0-150.8-31.2-182.1S356.6 42.7 256 42.7s-150.8 0-182.1 31.2S42.7 155.4 42.7 256zm49.2-9.7c2.5-6 8.3-9.9 14.8-9.9l9.8 0c8-70 67.5-124.4 139.7-124.4c42.3 0 80.2 18.7 106 48.1c5.8 6.7 5.1 16.8-1.5 22.6s-16.8 5.1-22.6-1.5c-19.9-22.8-49.2-37.2-81.9-37.2c-54.6 0-99.7 40.2-107.4 92.4l7.7 0c6.5 0 12.3 3.9 14.8 9.9s1.1 12.9-3.5 17.4l-24.9 24.9c-6.2 6.2-16.4 6.2-22.6 0L95.4 263.8c-4.6-4.6-6-11.5-3.5-17.4zm57.9 105.5c-5.8-6.7-5.1-16.8 1.5-22.6s16.8-5.1 22.6 1.5c19.9 22.8 49.2 37.2 81.9 37.2c54.6 0 99.7-40.2 107.4-92.4l-7.7 0c-6.5 0-12.3-3.9-14.8-9.9s-1.1-12.9 3.5-17.4l24.9-24.9c6.2-6.2 16.4-6.2 22.6 0l24.9 24.9c3.1 3.1 4.7 7.2 4.7 11.3c0 2.1-.4 4.1-1.2 6.1c-2.5 6-8.3 9.9-14.8 9.9l-9.8 0c-8 70-67.5 124.4-139.7 124.4c-42.3 0-80.2-18.7-106-48.1z"/><path class="fa-primary" d="M256.2 112c-72.2 0-131.8 54.4-139.7 124.4h-9.8c-6.5 0-12.3 3.9-14.8 9.9s-1.1 12.9 3.5 17.4l24.9 24.9c6.2 6.2 16.4 6.2 22.6 0l24.9-24.9c4.6-4.6 6-11.5 3.5-17.4s-8.3-9.9-14.8-9.9h-7.7c7.7-52.3 52.9-92.4 107.4-92.4c32.7 0 62 14.4 81.9 37.2c5.8 6.7 15.9 7.3 22.6 1.5s7.3-15.9 1.5-22.6c-25.8-29.5-63.7-48.1-106-48.1zM391.7 223.3c-6.2-6.2-16.4-6.2-22.6 0l-24.9 24.9c-4.6 4.6-6 11.5-3.5 17.4s8.3 9.9 14.8 9.9h7.7c-7.7 52.3-52.9 92.4-107.4 92.4c-32.7 0-62-14.4-81.9-37.2c-5.8-6.7-15.9-7.3-22.6-1.5s-7.3 15.9-1.5 22.6c25.8 29.5 63.7 48.1 106 48.1c72.2 0 131.8-54.4 139.7-124.4h9.8c6.5 0 12.3-3.9 14.8-9.9s1.1-12.9-3.5-17.4l-24.9-24.9z"/></svg>