<svg xmlns="http://www.w3.org/2000/svg" viewBox="0 0 512 512"><!--!Font Awesome Pro 6.6.0 by @fontawesome - https://fontawesome.com License - https://fontawesome.com/license (Commercial License) Copyright 2024 Fonticons, Inc.--><path class="fa-secondary" opacity=".4" d="M42.7 180.7l0 150.7c0 14.4 0 26.1 .7 35.7c.8 9.9 2.4 18.8 6.3 27.1c6.2 13 16 23.7 28.2 30.3c7.8 4.2 16.1 6 25.3 6.8c2.9 .3 5.9 .4 9.2 .5l31.1 0c-6.5-19.1-6.5-46.8-6.5-90.1c0-.1 0-.2 0-.4c0-56.9 0-113.8 0-170.7c0-1.7 0-3.3 0-5c0-4.2 0-8.3 0-12.3c0-.6 0-1.2 0-1.9c0-2.9 0-5.8 .1-8.5c.1-6.2 .2-12 .3-17.4c0-.3 0-.6 0-.8c.1-1.7 .1-3.3 .2-4.6c0-.6 .1-1.3 .1-1.9c.2-4.6 .5-9 .9-13.1c.1-1.2 .2-2.3 .4-3.4c.1-.5 .1-1 .2-1.5c.1-1.1 .3-2.3 .5-3.4c.5-3.2 1-6.2 1.7-9c.6-2.7 1.3-5.2 2.2-7.6l-31.1 0c-3.3 .1-6.4 .3-9.2 .5c-9.2 .8-17.5 2.5-25.3 6.8c-12.1 6.6-22 17.3-28.2 30.3c-4 8.3-5.6 17.3-6.3 27.1c-.7 9.5-.7 21.3-.7 35.7zM368.6 80.3c6.5 19.1 6.5 46.8 6.5 90.1c0 .1 0 .2 0 .3c0 56.9 0 113.8 0 170.7c0 2.7 0 5.4 0 8c0 1.8 0 3.6 0 5.3c0 1.6 0 3.2 0 4.8c0 3.5 0 7-.1 10.3c-.1 5.6-.2 10.8-.3 15.9c0 1.1-.1 2.3-.1 3.6c0 .6 0 1.1-.1 1.7c-.1 1.2-.1 2.4-.2 3.7c0 .7-.1 1.4-.1 2.1c-.1 1.3-.2 2.6-.3 4c0 .3 0 .7-.1 1c-.1 1.3-.2 2.6-.3 4c0 .4-.1 .8-.1 1.2c-.1 1.3-.3 2.6-.4 3.9c0 .2-.1 .5-.1 .7c-.2 1.2-.3 2.5-.5 3.8l-.1 .4c-.9 6-2.1 11.3-3.8 16.1l31.1 0c3.3-.1 6.4-.3 9.2-.5c9.2-.8 17.5-2.5 25.3-6.8c12.1-6.6 22-17.3 28.2-30.3c4-8.3 5.6-17.3 6.3-27.1c.7-9.5 .7-21.3 .7-35.7l0-150.7c0-14.4 0-26.1-.7-35.7c-.8-9.9-2.4-18.8-6.3-27.1c-6.2-13-16.1-23.7-28.2-30.3c-7.8-4.2-16.1-6-25.3-6.8c-2.9-.3-5.9-.4-9.2-.5l-31.1 0z"/><path class="fa-primary" d="M234.7 325.3a26.7 26.7 0 1 1 0-53.3 26.7 26.7 0 1 1 0 53.3zM136.9 170.7c0-60.3 0-90.5 17.4-109.3S199.9 42.7 256 42.7s84.2 0 101.6 18.7s17.4 48.9 17.4 109.3l0 170.7c0 60.3 0 90.5-17.4 109.3s-45.5 18.7-101.6 18.7s-84.2 0-101.6-18.7s-17.4-48.9-17.4-109.3l0-170.7zm156.4 0c0-8.8-7.2-16-16-16s-16 7.2-16 16l0 75.7c-8-4.1-17.1-6.4-26.7-6.4c-32.4 0-58.7 26.3-58.7 58.7s26.3 58.7 58.7 58.7s58.7-26.3 58.7-58.7l0-75.7c8 4.1 17.1 6.4 26.7 6.4c8.8 0 16-7.2 16-16s-7.2-16-16-16c-14.7 0-26.7-11.9-26.7-26.7z"/></svg>