<svg xmlns="http://www.w3.org/2000/svg" viewBox="0 0 512 512"><!--!Font Awesome Pro 6.6.0 by @fontawesome - https://fontawesome.com License - https://fontawesome.com/license (Commercial License) Copyright 2024 Fonticons, Inc.--><path class="fa-secondary" opacity=".4" d="M62.5 166.2c-28.2 60.9-27.3 134 8.8 196.5c3.3 5.7 6.8 11.1 10.5 16.4l.9 1.3c4.5 6.2 9.2 12.2 14.2 17.8c6 6.8 12.5 13.1 19.2 19c1.8 1.6 3.6 3.1 5.5 4.6c31.5 25.5 69.4 41.3 108.9 46.1c0-.3 .1-1.1 .1-2.2c0-.1 0-.3 0-.5c0-.7 0-1.4 0-2.2l0-.2c0-1 0-2.1 0-3.3c0-.2 0-.4 0-.6c0-1.2-.1-2.6-.1-4.1l0-.2c-.1-1.5-.2-3.2-.3-5c-.3-3.9-.6-8.2-1.2-13c-2.2-19.3-7.2-46.2-18.6-77.3c-1.6-4.4-3.4-8.9-5.2-13.5c-1.9-4.7-4-9.4-6.2-14.2c-2.3-5.1-4.9-10.3-7.5-15.5c-2.9-5.6-6-11.4-9.3-17.1C140 225.8 84.2 181.6 62.5 166.2zm219-122s0 .4-.1 1.1c0 .5 0 1.2-.1 2.1c0 .1 0 .3 0 .6c0 1 0 2.3 0 3.8c0 .3 0 .3 0 .3c0 1.5 .1 3.3 .1 5.3c0 .2 0 .3 0 .4c.2 4.3 .5 9.6 1.2 15.7c.6 6.1 1.6 13.1 2.9 20.8c5.4 30.7 17.5 73 44.2 119.2c.2 .3 .3 .5 .5 .8c.6 1.1 1.3 2.2 1.9 3.3l.2 .4c.8 1.3 1.6 2.7 2.4 4c1.8 2.9 3.5 5.6 5.2 8.2c3.4 5.3 6.9 10.4 10.4 15.2c7 9.8 14.1 18.7 21 26.8c14 16.2 27.6 29.1 39.5 39.2l.3 .3c2.9 2.4 5.7 4.7 8.4 6.8l.3 .2c1.3 1 2.5 1.9 3.7 2.8s2.4 1.8 3.5 2.6c.2 .1 .3 .2 .5 .4c2.4 1.8 4.7 3.3 6.8 4.8c2.1 1.4 4.1 2.7 5.8 3.8c.3 .2 .7 .4 1 .6c1.6 1 3.1 1.9 4.4 2.7c1.3 .7 2.3 1.4 3.3 1.9l.2 .1c1.9 1 2.9 1.6 3 1.6c11.3-26.5 17.2-55.1 17.2-84c0-36.2-9.2-72.9-28.6-106.5C405.9 88.9 345.8 52 281.5 44.2z"/><path class="fa-primary" d="M281.5 44.2c-44.3-5.4-90.6 3.1-132.2 27.1c-39.5 22.8-69 56.4-86.9 94.9c21.7 15.4 77.5 59.6 119.6 132.5c3.3 5.8 6.4 11.5 9.3 17.1c2.7 5.3 5.2 10.4 7.5 15.5c2.2 4.8 4.3 9.6 6.2 14.2c1.9 4.6 3.6 9.1 5.2 13.5c22.8 62.5 20.2 107.8 20.1 108.7c30.6 3.7 62.2 .8 92.5-9.2c1.9-.6 3.8-1.3 5.6-2c4.5-1.6 8.9-3.4 13.3-5.3c1.8-.8 3.5-1.6 5.3-2.4c5.2-2.5 10.4-5.2 15.5-8.1c41.6-24 72-59.9 89.5-100.9c0 0-69-34.1-122.3-126.5S281.5 44.2 281.5 44.2z"/></svg>