<svg xmlns="http://www.w3.org/2000/svg" viewBox="0 0 512 512"><!--!Font Awesome Pro 6.5.2 by @fontawesome - https://fontawesome.com License - https://fontawesome.com/license (Commercial License) Copyright 2024 Fonticons, Inc.--><path class="fa-secondary" opacity=".4" d="M69.3 330.7c0 50.1 40.6 90.7 90.7 90.7l228.1 0 16-16-16-16-228.1 0c-32.4 0-58.7-26.3-58.7-58.7s26.3-58.7 58.7-58.7l192 0c50.1 0 90.7-40.6 90.7-90.7s-40.6-90.7-90.7-90.7l-184.4 0c3.7 9.1 4.1 19 1.3 28.2c-.4 1.2-.8 2.5-1.3 3.8l184.4 0c32.4 0 58.7 26.3 58.7 58.7s-26.3 58.7-58.7 58.7l-192 0c-50.1 0-90.7 40.6-90.7 90.7z"/><path class="fa-primary" d="M372.7 351.4c6.2-6.2 16.4-6.2 22.6 0L438 394c6.2 6.2 6.2 16.4 0 22.6l-42.7 42.7c-4 4.3-10 6-15.7 4.6s-10.1-5.9-11.5-11.5s.3-11.7 4.6-15.7l31.4-31.4L372.7 374c-6.2-6.2-6.2-16.4 0-22.6zm-202-244.7a42.7 42.7 0 1 1 -85.3 0 42.7 42.7 0 0 1 85.3 0"/></svg>