<svg xmlns="http://www.w3.org/2000/svg" viewBox="0 0 512 512"><!--!Font Awesome Pro 6.6.0 by @fontawesome - https://fontawesome.com License - https://fontawesome.com/license (Commercial License) Copyright 2024 Fonticons, Inc.--><path class="fa-secondary" opacity=".4" d="M42.7 256c0-65.6 29.6-124.2 76.1-163.4l9.2 7.9c16.6 15.2 50.9 56.6 54.9 101.1c3.7 41.6 31.2 75.3 73.1 75.8c16.1 .2 32.4-11.5 32.3-27.6c0-5-.8-10.1-2.1-14.8c-1.8-6.5-1.9-14 1.8-21.7c13-26.8 38.6-34 58.9-48.6c9-6.5 17.2-13.3 20.8-18.8c10-15.2 19.5-46.8 14.5-62c52.8 38.8 87.1 101.4 87.1 172c0 107.8-79.9 196.9-183.7 211.3c-9.7 1.3-19.6 2-29.6 2C138.2 469.3 42.7 373.8 42.7 256zm243 211.3c95.2-13.2 170.3-89.2 182.1-184.8c-6.6 22.5-16.5 66.9-89.7 67.7c0 0-70.3 0-91.3 39.7c-16.1 30.3-7.9 62.9-1 77.4z"/><path class="fa-primary" d="M182.9 201.5c-4-44.5-38.3-85.9-54.9-101.1l-9.2-7.9c37.1-31.2 84.9-50 137.2-50c47.2 0 90.9 15.3 126.2 41.3c5 15.2-4.5 46.8-14.5 62c-3.6 5.5-11.8 12.3-20.8 18.8c-20.3 14.6-45.9 21.8-58.9 48.6c-3.7 7.7-3.6 15.2-1.8 21.7c1.3 4.7 2.1 9.8 2.1 14.8c0 16.1-16.2 27.7-32.3 27.6c-41.9-.5-69.3-34.2-73.1-75.8zM286.6 389.9c21.1-39.7 91.3-39.7 91.3-39.7c73.2-.8 83.1-45.2 89.7-67.7c-11.8 95.6-86.9 171.6-182.1 184.8c-6.9-14.5-15-47.1 1-77.4z"/></svg>