<svg xmlns="http://www.w3.org/2000/svg" viewBox="0 0 512 512"><!--!Font Awesome Pro 6.6.0 by @fontawesome - https://fontawesome.com License - https://fontawesome.com/license (Commercial License) Copyright 2024 Fonticons, Inc.--><path class="fa-secondary" opacity=".4" d="M42.7 256c0 36.6 29.5 66.1 88.4 125s88.4 88.4 125 88.4s66.1-29.5 125-88.4s88.4-88.4 88.4-125s-29.5-66.1-88.4-125s-88.4-88.4-125-88.4s-66.1 29.5-125 88.4s-88.4 88.4-88.4 125zm112 42.7c0-27 12.4-45.2 28.4-55.9c15.1-10.2 32.7-13.4 44.5-13.4l73.3 0-27.4-25.7c-6.4-6-6.8-16.2-.7-22.6s16.2-6.8 22.6-.7l56.9 53.3c3.2 3 5.1 7.3 5.1 11.7s-1.8 8.6-5.1 11.7l-56.9 53.3c-6.4 6-16.6 5.7-22.6-.7s-5.7-16.6 .7-22.6l27.4-25.7-73.3 0c-7.1 0-18 2.1-26.6 7.9c-7.7 5.2-14.3 13.7-14.3 29.4c0 8.8-7.2 16-16 16s-16-7.2-16-16z"/><path class="fa-primary" d="M272.8 181.1c6-6.4 16.2-6.8 22.6-.7l56.9 53.3c3.2 3 5.1 7.3 5.1 11.7s-1.8 8.6-5.1 11.7l-56.9 53.3c-6.4 6-16.6 5.7-22.6-.7s-5.7-16.6 .7-22.6l27.4-25.7-73.3 0c-7.1 0-18 2.1-26.6 7.9c-7.7 5.2-14.3 13.7-14.3 29.4c0 8.8-7.2 16-16 16s-16-7.2-16-16c0-27 12.4-45.2 28.4-55.9c15.1-10.2 32.7-13.4 44.5-13.4l73.3 0-27.4-25.7c-6.4-6-6.8-16.2-.7-22.6z"/></svg>