<svg xmlns="http://www.w3.org/2000/svg" viewBox="0 0 512 512"><!--!Font Awesome Pro 6.5.2 by @fontawesome - https://fontawesome.com License - https://fontawesome.com/license (Commercial License) Copyright 2024 Fonticons, Inc.--><path class="fa-secondary" opacity=".4" d="M64 247c0 23 7.8 54 18.9 98.7c11.6 46.6 17.5 69.8 34.8 83.4c17.4 13.5 41.4 13.5 89.4 13.5l98.8 0 .3 0c47.8 0 71.7 0 89.1-13.5c17.4-13.6 23.2-36.8 34.8-83.4C441.2 301.1 449 270 449 247c0-14.7-3.2-26.2-10.7-35.8c-9.6-12.3-23.7-18.4-44.9-21.5c-21.3-3.1-49.7-3.1-87.5-3.1l-98.8 0c-37.8 0-66.2 0-87.5 3.1c-7.3 1-13.7 2.5-19.4 4.4c-5.7 1.9-10.7 4.3-15.1 7.3c-4 2.7-7.4 6-10.4 9.8C67.2 220.9 64 232.3 64 247zM176.5 80c0 2.4 .2 4.7 .6 6.9c.1 .4 .1 .7 .2 1.1c0 .1 0 .1 0 .2c.1 .7 .3 1.3 .5 2s.4 1.3 .6 2c.2 .6 .4 1.2 .7 1.8c.2 .6 .5 1.2 .8 1.7c.1 .1 .1 .2 .2 .4c6 12.6 18.8 21.3 33.7 21.3l85.3 0c17.9 0 32.8-12.5 36.5-29.3c.6-2.6 .9-5.3 .9-8.1c0-20.6-16.7-37.3-37.3-37.3l-85.3 0c-14.9 0-27.8 8.7-33.7 21.4c-.6 1.3-1.1 2.6-1.6 3.9s-.8 2.6-1.1 3.9c-.6 2.6-.9 5.3-.9 8.1z"/><path class="fa-primary" d="M332.9 96a37.2 37.2 0 0 0 0-32c14.6 .1 25.9 .8 36.1 4.7A69.3 69.3 0 0 1 399.4 92c7.8 10.5 11.5 24 16.6 42.6l1 3.6 10.9 63.2c-8.7-6-20-9.6-34.5-11.7l-7.7-44.5c-6.1-22.2-8.3-29.2-12-34.2a37.3 37.3 0 0 0 -16.4-12.5c-4.7-1.8-10.3-2.3-24.5-2.5M180.1 64a37.2 37.2 0 0 0 0 32c-14.1 .1-19.8 .7-24.5 2.5a37.3 37.3 0 0 0 -16.4 12.5c-3.7 5-5.9 12-12 34.1l-7.7 44.6c-14.5 2.1-25.8 5.7-34.5 11.7L96 138.3l1-3.6c5.1-18.6 8.7-32.1 16.6-42.7A69.3 69.3 0 0 1 144 68.8c10.1-4 21.5-4.6 36.1-4.7"/></svg>