<svg xmlns="http://www.w3.org/2000/svg" viewBox="0 0 512 512"><!--!Font Awesome Pro 6.6.0 by @fontawesome - https://fontawesome.com License - https://fontawesome.com/license (Commercial License) Copyright 2024 Fonticons, Inc.--><path class="fa-secondary" opacity=".4" d="M42.7 186.7l197.3 0L240 336 43.2 336c0-8.4-.5-49.2-.5-58.7l0-64.1c0-9.4 0-18.3 0-26.6zm.5-32c1.4-43.1 6.4-69 24.4-87c25-25 65.2-25 145.7-25l26.7 0 0 112-196.8 0z"/><path class="fa-primary" d="M43.2 336c1.4 43.1 6.4 69 24.4 87c6.5 6.5 14 11.3 23 14.9l0 31.5c0 8.8 7.2 16 16 16s16-7.2 16-16l0-24.1c22.8 2.7 52.1 2.7 90.7 2.7l42.7 0 42.7 0c38.5 0 67.8 0 90.7-2.7l0 24.1c0 8.8 7.2 16 16 16s16-7.2 16-16l0-31.5c9-3.6 16.5-8.4 23-14.9c17.2-17.2 22.6-41.7 24.2-81.7l.2-5.3c0-8.4 .5-49.2 .5-58.7l0-64c0-80.5 0-120.7-25-145.7s-65.2-25-145.7-25l-26.7 0L272 336l-16 0L43.2 336zm90.1 48c0-8.8 7.2-16 16-16l42.7 0c8.8 0 16 7.2 16 16s-7.2 16-16 16l-42.7 0c-8.8 0-16-7.2-16-16zM320 368l42.7 0c8.8 0 16 7.2 16 16s-7.2 16-16 16L320 400c-8.8 0-16-7.2-16-16s7.2-16 16-16zm0-213.3c8.8 0 16 7.2 16 16l0 42.7c0 8.8-7.2 16-16 16s-16-7.2-16-16l0-42.7c0-8.8 7.2-16 16-16z"/></svg>