<svg xmlns="http://www.w3.org/2000/svg" viewBox="0 0 512 512"><!--!Font Awesome Pro 6.5.2 by @fontawesome - https://fontawesome.com License - https://fontawesome.com/license (Commercial License) Copyright 2024 Fonticons, Inc.--><path class="fa-secondary" opacity=".4" d="M42.8 124.9c-.1 1.6-.1 3.4-.1 7.1c0 15 0 30 0 45.1c0 35.3 30.3 64 67.8 64c12.5 0 22.6 9.6 22.6 21.3L133 368l101.7 0c0-63.5 0-127.1 0-190.7c0-6.2 0-9.3-.1-11.9c-2.9-54.8-49.3-98.6-107.3-101.3c-2.8-.1-6-.1-12.6-.1c-3.9 0-5.9 0-7.6 .1C72.3 65.7 44.5 92 42.8 124.9zM80 128c0-8.8 7.2-16 16-16s16 7.2 16 16l0 53.3c0 8.8-7.2 16-16 16s-16-7.2-16-16L80 128zm53 272c0 26.5 22.8 48 50.8 48c28.1 0 50.8-21.5 50.8-48L133 400zM277.5 165.4c-.1 2.6-.1 5.7-.1 11.9l0 190.7L379 368l0 32c0-45.9 0-91.7 0-137.6c0-11.8 10.1-21.3 22.6-21.3c37.4 0 67.8-28.7 67.8-64l0-45.1c0-3.7 0-5.5-.1-7.1c-1.7-32.9-29.5-59.2-64.4-60.8c-1.7-.1-3.6-.1-7.6-.1c-6.5 0-9.8 0-12.6 .1c-58 2.7-104.4 46.5-107.3 101.3zM277.3 400c0 26.5 22.8 48 50.8 48c28.1 0 50.8-21.5 50.8-48l-101.7 0zM400 128c0-8.8 7.2-16 16-16s16 7.2 16 16l0 53.3c0 8.8-7.2 16-16 16s-16-7.2-16-16l0-53.3z"/><path class="fa-primary" d="M277.3 368H379v32H277.3zm-42.7 0H133v32H234.7zM416 112a16 16 0 0 1 16 16v53.3a16 16 0 0 1 -32 0V128a16 16 0 0 1 16-16m-320 0a16 16 0 0 0 -16 16v53.3a16 16 0 0 0 32 0V128a16 16 0 0 0 -16-16"/></svg>