<svg xmlns="http://www.w3.org/2000/svg" viewBox="0 0 512 512"><!--!Font Awesome Pro 6.6.0 by @fontawesome - https://fontawesome.com License - https://fontawesome.com/license (Commercial License) Copyright 2024 Fonticons, Inc.--><path class="fa-secondary" opacity=".4" d="M42.7 256c0 34.1 8 66.4 22.3 95c3.8 7.6 5 16.3 2.9 24.5L55.1 423c-5.5 20.6 13.3 39.5 34 34l47.5-12.7c8.2-2.2 16.9-.9 24.5 2.9c28.6 14.2 60.9 22.3 95 22.3c117.8 0 213.3-95.5 213.3-213.3s-95.5-213.3-213.3-213.3S42.7 138.2 42.7 256zM176 257.7c0-4 1.5-8 4.5-11.1c6.1-6.4 16.2-6.6 22.6-.5l31.4 30.1L308.7 202c6.2-6.2 16.4-6.2 22.6 0c3.1 3.1 4.7 7.2 4.7 11.3s-1.6 8.2-4.7 11.3L246 310c-6.2 6.2-16.1 6.3-22.4 .2l-42.7-41c-3.3-3.1-4.9-7.3-4.9-11.5z"/><path class="fa-primary" d="M331.3 202c6.2 6.2 6.2 16.4 0 22.6L246 310c-6.2 6.2-16.1 6.3-22.4 .2l-42.7-41c-6.4-6.1-6.6-16.2-.5-22.6s16.2-6.6 22.6-.5l31.4 30.1L308.7 202c6.2-6.2 16.4-6.2 22.6 0z"/></svg>