<svg xmlns="http://www.w3.org/2000/svg" viewBox="0 0 512 512"><!--!Font Awesome Pro 6.6.0 by @fontawesome - https://fontawesome.com License - https://fontawesome.com/license (Commercial License) Copyright 2024 Fonticons, Inc.--><path class="fa-secondary" opacity=".4" d="M26.7 341.3c0-8.8 7.2-16 16-16l81.5 0-8.9 32-72.6 0c-8.8 0-16-7.2-16-16zM69.3 192c0-8.8 7.2-16 16-16l80.3 0-8.9 32-71.4 0c-8.8 0-16-7.2-16-16zm79.1 165.3l8.9-32 158.8 0-8.9 32-158.8 0zM189.9 208l8.9-32 158.8 0-8.9 32-158.8 0zM340.5 357.3l8.9-32 77.3 0c8.8 0 16 7.2 16 16s-7.2 16-16 16l-86.2 0zM381.9 208l8.9-32 78.5 0c8.8 0 16 7.2 16 16s-7.2 16-16 16l-87.4 0z"/><path class="fa-primary" d="M217.6 48.6c8.5 2.4 13.5 11.2 11.1 19.7l-106.7 384c-2.4 8.5-11.2 13.5-19.7 11.1s-13.5-11.2-11.1-19.7l106.7-384c2.4-8.5 11.2-13.5 19.7-11.1zm192 0c8.5 2.4 13.5 11.2 11.1 19.7l-106.7 384c-2.4 8.5-11.2 13.5-19.7 11.1s-13.5-11.2-11.1-19.7l106.7-384c2.4-8.5 11.2-13.5 19.7-11.1z"/></svg>