<svg xmlns="http://www.w3.org/2000/svg" viewBox="0 0 512 512"><!--!Font Awesome Pro 6.6.0 by @fontawesome - https://fontawesome.com License - https://fontawesome.com/license (Commercial License) Copyright 2024 Fonticons, Inc.--><path class="fa-secondary" opacity=".4" d="M64 213.3c0-80.5 0-120.7 25-145.7s65.2-25 145.7-25l42.7 0c80.5 0 120.7 0 145.7 25c17.3 17.3 22.6 41.8 24.3 81.8c-.9-.1-1.8-.1-2.7-.1c-11.8 0-23.6 4.5-32.6 13.5l-2.7 2.7c-2.6 2.6-3.8 6.3-3.2 9.9c.4 2.3 1.2 5.6 2.6 9.6c2.8 8 8 18.5 17.9 28.4c7.2 7.2 14.8 12 21.5 15.1l0 19c-9.8-3.5-22.3-10-34-21.7c-12.1-12.1-18.6-25.1-22.1-35.1c-.9-2.7-4.5-3.7-6.5-1.6L301 273.7c-6.8 6.8-10.2 10.2-13.1 13.9c-3.4 4.4-6.4 9.2-8.8 14.2c-2 4.3-3.6 8.8-6.6 17.9l-3.9 11.7-6.2 18.7-5.8 17.5c-1.5 4.5-.3 9.4 3 12.7c2.4 2.4 5.6 3.6 8.8 3.6c1.3 0 2.6-.2 3.9-.6l17.5-5.8 18.7-6.2 11.7-3.9c9.1-3 13.6-4.5 17.9-6.6c5-2.4 9.8-5.3 14.2-8.8c3.7-2.9 7.1-6.3 13.9-13.1L448 257.3l0 41.4c0 80.5 0 120.7-25 145.7c-24.9 24.9-65.1 25-145.2 25l-.5 0-42.7 0c-80.5 0-120.7 0-145.7-25C64 419.4 64 379.3 64 299.1l0-.5 0-85.3zM154.7 192c0 8.8 7.2 16 16 16l138.7 0c8.8 0 16-7.2 16-16s-7.2-16-16-16l-138.7 0c-8.8 0-16 7.2-16 16zm0 85.3c0 8.8 7.2 16 16 16l64 0c8.8 0 16-7.2 16-16s-7.2-16-16-16l-64 0c-8.8 0-16 7.2-16 16zm0 85.3c0 8.8 7.2 16 16 16l32 0c8.8 0 16-7.2 16-16s-7.2-16-16-16l-32 0c-8.8 0-16 7.2-16 16z"/><path class="fa-primary" d="M352.4 352c3.7-2.9 7.1-6.3 13.9-13.1l84.4-84.4c2-2 1.1-5.6-1.6-6.5c-10-3.5-22.9-9.9-35.1-22.1s-18.6-25.1-22.1-35.1c-.9-2.7-4.5-3.7-6.5-1.6L301 273.7c-6.8 6.8-10.2 10.2-13.1 13.9c-3.4 4.4-6.4 9.2-8.8 14.2c-2 4.3-3.6 8.8-6.6 17.9l-3.9 11.7-6.2 18.7-5.8 17.5c-1.5 4.5-.3 9.4 3 12.7s8.3 4.5 12.7 3l17.5-5.8 18.7-6.2 11.7-3.9 0 0c9.1-3 13.6-4.5 17.9-6.6c5-2.4 9.8-5.3 14.2-8.8zM477.2 228.1c18-18 18-47.2 0-65.3s-47.2-18-65.3 0l-2.7 2.7c-2.6 2.6-3.8 6.3-3.2 9.9c.4 2.3 1.2 5.6 2.6 9.6c2.8 8 8 18.5 17.9 28.4s20.4 15.1 28.4 17.9c4 1.4 7.4 2.2 9.6 2.6c3.6 .7 7.3-.5 9.9-3.2l2.7-2.7zM154.7 192c0-8.8 7.2-16 16-16l138.7 0c8.8 0 16 7.2 16 16s-7.2 16-16 16l-138.7 0c-8.8 0-16-7.2-16-16zm0 85.3c0-8.8 7.2-16 16-16l64 0c8.8 0 16 7.2 16 16s-7.2 16-16 16l-64 0c-8.8 0-16-7.2-16-16zm0 85.3c0-8.8 7.2-16 16-16l32 0c8.8 0 16 7.2 16 16s-7.2 16-16 16l-32 0c-8.8 0-16-7.2-16-16z"/></svg>