<svg xmlns="http://www.w3.org/2000/svg" viewBox="0 0 576 512"><!--!Font Awesome Pro 6.6.0 by @fontawesome - https://fontawesome.com License - https://fontawesome.com/license (Commercial License) Copyright 2024 Fonticons, Inc.--><path class="fa-secondary" opacity=".4" d="M16 64l0 384c0 35.3 28.7 64 64 64l224 0c7.6 0 14.9-1.3 21.7-3.8C283.4 476 256 425.2 256 368c0-74.6 46.4-138.4 112-164l0-140c0-35.3-28.7-64-64-64L80 0C44.7 0 16 28.7 16 64zM144 448c0-8.8 7.2-16 16-16l64 0c8.8 0 16 7.2 16 16s-7.2 16-16 16l-64 0c-8.8 0-16-7.2-16-16z"/><path class="fa-primary" d="M576 368c0 79.5-64.5 144-144 144s-144-64.5-144-144s64.5-144 144-144s144 64.5 144 144zM468.7 308.7L432 345.4l-36.7-36.7c-6.2-6.2-16.4-6.2-22.6 0s-6.2 16.4 0 22.6L409.4 368l-36.7 36.7c-6.2 6.2-6.2 16.4 0 22.6s16.4 6.2 22.6 0L432 390.6l36.7 36.7c6.2 6.2 16.4 6.2 22.6 0s6.2-16.4 0-22.6L454.6 368l36.7-36.7c6.2-6.2 6.2-16.4 0-22.6s-16.4-6.2-22.6 0c0 0 0 0 0 0z"/></svg>