<svg xmlns="http://www.w3.org/2000/svg" viewBox="0 0 512 512"><!--!Font Awesome Pro 6.6.0 by @fontawesome - https://fontawesome.com License - https://fontawesome.com/license (Commercial License) Copyright 2024 Fonticons, Inc.--><path class="fa-secondary" opacity=".4" d="M112.3 376.5c-.1 3.7-.2 7.6-.2 11.7c0 4.1 0 8.3 0 12.8l288 0c0-17.7-.1-32.7-1.7-44.6c-1.8-13.4-5.8-25.5-15.5-35.2s-21.8-13.7-35.2-15.5c-12.7-1.7-28.7-1.7-47.8-1.7l-87.6 0c-4.8 0-9.4 0-13.8 0s-8.6 .1-12.6 .2c-8 .2-15.1 .6-21.4 1.5c-13.4 1.8-25.5 5.8-35.2 15.5s-13.7 21.8-15.5 35.2c-.2 1.5-.4 3-.5 4.6c-.2 1.6-.3 3.2-.4 4.9c-.2 3.4-.4 6.9-.5 10.6z"/><path class="fa-primary" d="M61.4 125.4c-18.7 18.7-18.7 48.9-18.7 109.3c0 80.5 0 120.7 25 145.7C78.7 391.4 92.8 397.6 112 401c0-17.7 .1-32.7 1.7-44.6c1.8-13.4 5.8-25.5 15.5-35.2s21.8-13.7 35.2-15.5c12.7-1.7 28.7-1.7 47.8-1.7l87.6 0c19.2 0 35.2 0 47.8 1.7c13.4 1.8 25.5 5.8 35.2 15.5s13.7 21.8 15.5 35.2c1.6 12 1.7 26.9 1.7 44.6c19.2-3.4 33.3-9.6 44.3-20.7c25-25 25-65.2 25-145.7c0-60.3 0-90.5-18.7-109.3s-48.9-18.7-109.3-18.7l-170.7 0c-60.3 0-90.5 0-109.3 18.7zM112 245.3c0-8.8 7.2-16 16-16l256 0c8.8 0 16 7.2 16 16s-7.2 16-16 16l-256 0c-8.8 0-16-7.2-16-16zM128 176l256 0c8.8 0 16 7.2 16 16s-7.2 16-16 16l-256 0c-8.8 0-16-7.2-16-16s7.2-16 16-16z"/></svg>