<svg xmlns="http://www.w3.org/2000/svg" viewBox="0 0 512 512"><!--!Font Awesome Pro 6.5.2 by @fontawesome - https://fontawesome.com License - https://fontawesome.com/license (Commercial License) Copyright 2024 Fonticons, Inc.--><path class="fa-secondary" opacity=".4" d="M92.9 149.3l0 149.3 326.3 0 0-149.3c0-40.2 0-60.3-12.5-72.8S374 64 333.8 64L178.2 64c-40.2 0-60.4 0-72.9 12.5C92.9 89 92.9 109.1 92.9 149.3zM272 122.7a16 16 0 1 1 -32 0 16 16 0 1 1 32 0z"/><path class="fa-primary" d="M456.3 348.5l1.9 2c6.8 7.5 10.8 17.2 11.1 27.4l0 2.7c0 3.2 0 4.8-.1 6.1c-1.4 21.4-18.4 38.5-39.9 39.9c-2 .1-4.1 .1-6.1 .1l-334.5 0c-3.2 0-4.8 0-6.1-.1c-21.4-1.4-38.5-18.4-39.9-39.9c-.1-1.3-.1-2.9-.1-6.1l0-2.7c.3-10.2 4.3-19.9 11.1-27.4l1.9-2L83.3 320l345.5 0zM186.7 384c0 8.8 7.2 16 16 16l106.7 0c8.8 0 16-7.2 16-16s-7.2-16-16-16l-106.7 0c-8.8 0-16 7.2-16 16zM272 122.7a16 16 0 1 1 -32 0 16 16 0 0 1 32 0"/></svg>