<svg xmlns="http://www.w3.org/2000/svg" viewBox="0 0 512 512"><!--!Font Awesome Pro 6.6.0 by @fontawesome - https://fontawesome.com License - https://fontawesome.com/license (Commercial License) Copyright 2024 Fonticons, Inc.--><path class="fa-secondary" opacity=".4" d="M42.7 256c0-100.6 0-150.8 31.2-182.1S155.4 42.7 256 42.7s150.9 0 182.1 31.2c31.2 31.2 31.2 81.3 31.2 181.3l0 .8c0 100.6 0 150.9-31.2 182.1s-81.5 31.2-182.1 31.2s-150.8 0-182.1-31.2S42.7 356.6 42.7 256zm73.7-57.2l24.4 25.6c3 3.2 7.2 5 11.6 5s8.6-1.8 11.6-5l61-64c6.1-6.4 5.8-16.5-.6-22.6s-16.5-5.8-22.6 .6l-49.4 51.8-12.8-13.4c-6.1-6.4-16.2-6.6-22.6-.6s-6.6 16.2-.6 22.6zm0 149.3l24.4 25.6c3 3.2 7.2 5 11.6 5s8.6-1.8 11.6-5l61-64c6.1-6.4 5.8-16.5-.6-22.6s-16.5-5.8-22.6 .6l-49.4 51.8L139.6 326c-6.1-6.4-16.2-6.6-22.6-.6s-6.6 16.2-.6 22.6zM261.3 192c0 8.8 7.2 16 16 16L384 208c8.8 0 16-7.2 16-16s-7.2-16-16-16l-106.7 0c-8.8 0-16 7.2-16 16zm0 149.3c0 8.8 7.2 16 16 16l106.7 0c8.8 0 16-7.2 16-16s-7.2-16-16-16l-106.7 0c-8.8 0-16 7.2-16 16z"/><path class="fa-primary" d="M224.9 160.4c6.1-6.4 5.8-16.5-.6-22.6s-16.5-5.8-22.6 .6l-49.4 51.8-12.8-13.4c-6.1-6.4-16.2-6.6-22.6-.6s-6.6 16.2-.6 22.6l24.4 25.6c3 3.2 7.2 5 11.6 5s8.6-1.8 11.6-5l61-64zM277.3 176c-8.8 0-16 7.2-16 16s7.2 16 16 16H384c8.8 0 16-7.2 16-16s-7.2-16-16-16H277.3zM224.9 309.7c6.1-6.4 5.8-16.5-.6-22.6s-16.5-5.8-22.6 .6l-49.4 51.8L139.6 326c-6.1-6.4-16.2-6.6-22.6-.6s-6.6 16.2-.6 22.6l24.4 25.6c3 3.2 7.2 5 11.6 5s8.6-1.8 11.6-5l61-64zm52.4 15.6c-8.8 0-16 7.2-16 16s7.2 16 16 16H384c8.8 0 16-7.2 16-16s-7.2-16-16-16H277.3z"/></svg>