<svg xmlns="http://www.w3.org/2000/svg" viewBox="0 0 512 512"><!--!Font Awesome Pro 6.6.0 by @fontawesome - https://fontawesome.com License - https://fontawesome.com/license (Commercial License) Copyright 2024 Fonticons, Inc.--><path class="fa-secondary" opacity=".4" d="M112 341.3c0 8.8 7.2 16 16 16l152 0 0 69.3c0 6.4 3.8 12.2 9.8 14.7c2 .9 4.1 1.3 6.2 1.3c4.1 0 8.1-1.6 11.1-4.5l88-85.3c3.1-3 4.9-7.2 4.9-11.5s-1.8-8.5-4.9-11.5l-88-85.3c-3-3-7.1-4.5-11.1-4.5c-2.1 0-4.2 .4-6.2 1.3c-5.9 2.5-9.8 8.3-9.8 14.7l0 69.3-152 0c-8.8 0-16 7.2-16 16z"/><path class="fa-primary" d="M232 85.3c0-6.4-3.8-12.2-9.8-14.7s-12.8-1.2-17.4 3.2l-88 85.3c-3.1 3-4.9 7.2-4.9 11.5s1.8 8.5 4.9 11.5l88 85.3c4.6 4.5 11.5 5.8 17.4 3.2s9.8-8.3 9.8-14.7V186.7l152 0c8.8 0 16-7.2 16-16s-7.2-16-16-16l-152 0V85.3z"/></svg>