<svg xmlns="http://www.w3.org/2000/svg" viewBox="0 0 512 512"><!--!Font Awesome Pro 6.6.0 by @fontawesome - https://fontawesome.com License - https://fontawesome.com/license (Commercial License) Copyright 2024 Fonticons, Inc.--><path class="fa-secondary" opacity=".4" d="M52.7 436.2c6.2 9.1 14 16.9 23.1 23.1c10.1 6.9 22.2 10.1 37 10.1c41.4 0 103.8-25 202.7-64.5c28.6-11.5 43-17.2 54.2-27c2.9-2.5 5.6-5.2 8.1-8.1c9.8-11.2 15.6-25.5 27-54.2c53.7-134.2 80.5-201.4 54.5-239.7c-6.2-9.1-14-16.9-23.1-23.1c-10.1-6.9-22.2-10.1-37-10.1c-41.4 0-103.8 25-202.7 64.5c-28.6 11.5-42.9 17.2-54.2 27c-2.9 2.5-5.6 5.2-8.1 8.1c-9.8 11.2-15.6 25.5-27 54.2C53.5 330.7 26.7 397.8 52.7 436.2zM336 256a80 80 0 1 1 -160 0 80 80 0 1 1 160 0z"/><path class="fa-primary" d="M256 176a80 80 0 1 0 0 160 80 80 0 1 0 0-160z"/></svg>