<svg xmlns="http://www.w3.org/2000/svg" viewBox="0 0 512 512"><!--!Font Awesome Pro 6.6.0 by @fontawesome - https://fontawesome.com License - https://fontawesome.com/license (Commercial License) Copyright 2024 Fonticons, Inc.--><path class="fa-secondary" opacity=".4" d="M112.1 254.8l5.5 87.1c3.8 60.4 5.8 90.6 24.5 109s47.7 18.4 105.4 18.4l16.8 0c57.8 0 86.6 0 105.4-18.4s20.7-48.6 24.5-109l5.5-87.1c2.1-32.8 3.1-49.2-6.3-59.6s-25.3-10.4-57.1-10.4l-160.9 0c-31.8 0-47.7 0-57.1 10.4s-8.4 26.8-6.3 59.6z"/><path class="fa-primary" d="M58.7 131.6c0-9.8 7.4-17.8 16.5-17.8l56.8 0c11.3-.3 21.3-8.1 25.1-19.5c.1-.3 .2-.7 .6-2l2.4-7.9c1.5-4.9 2.8-9.1 4.6-12.9c7.2-15 20.6-25.4 36-28c3.9-.7 8-.7 12.8-.7h74.2c4.7 0 8.9 0 12.8 .7c15.4 2.7 28.8 13.1 36 28c1.8 3.8 3.1 8 4.6 12.9l2.4 7.9c.4 1.4 .5 1.7 .6 2c3.8 11.5 15.8 19.2 27.1 19.6h54.9c9.1 0 16.5 8 16.5 17.8s-7.4 17.8-16.5 17.8H75.1c-9.1 0-16.5-8-16.5-17.8z"/></svg>