<svg xmlns="http://www.w3.org/2000/svg" viewBox="0 0 512 512"><!--!Font Awesome Pro 6.6.0 by @fontawesome - https://fontawesome.com License - https://fontawesome.com/license (Commercial License) Copyright 2024 Fonticons, Inc.--><path class="fa-secondary" opacity=".4" d="M42.7 208.5l0 82.9c0 5.2 0 10.2 0 15c9.4 6.8 22.9 10.3 31.1 6.2c1.1-.5 2.5-1.5 5.4-3.4c16.6-10.8 38.3-10.8 54.9 0c11.1 7.2 23.8 10.8 36.6 10.8s25.5-3.6 36.6-10.8c16.6-10.8 38.3-10.8 54.9 0c11.1 7.2 23.8 10.8 36.6 10.8s25.5-3.6 36.6-10.8c16.6-10.8 38.3-10.8 54.9 0c11.1 7.2 23.8 10.8 36.6 10.8s25.5-3.6 36.6-10.8c.9-.6 3-1.7 5.7-3.1l.3-.1c0-4.7 0-9.5 0-14.5l0-9.1c0-10.1 0-18.8-.2-26.4c-.2-3.8-.4-7.3-.7-10.7l-86.4 0c-23.4 0-44.1 0-60.8-2.2c-18.1-2.4-36.1-8-50.9-22.8s-20.3-32.8-22.8-50.9c-.1-1-.3-2-.4-3.1s-.2-2.1-.3-3.2c-.2-2.1-.4-4.3-.5-6.6c-.3-4.5-.5-9.2-.7-14.1c-.3-9.8-.3-20.5-.3-31.8l0-2c0-.6 0-1.2 0-1.8l.2-58.6c0-.8-.1-1.7-.1-2.5l-.1-2.9c-8.6-.1-18.7-.1-31.4-.1l-.5 0c-80.5 0-120.8 .1-145.8 24.3c-25 24.3-25 63.4-25 141.6z"/><path class="fa-primary" d="M245.5 48.2l-.2 60.5c0 23.4 0 44.1 2.2 60.8c2.4 18.1 8 36.1 22.8 50.9s32.8 20.3 50.9 22.8c16.7 2.2 37.4 2.2 60.8 2.2l86.4 0c.3 3.3 .5 6.9 .6 10.7h.3c0-5.7 0-8.6-.2-11.9c-1.2-19.1-9.1-41-20.5-56.4c-2-2.7-3.4-4.3-6.1-7.6c-16.9-20.2-39.2-45.4-58.6-62.8c-17.3-15.4-41-32.3-61.7-46.1C304.6 59.4 295.7 53.4 283.6 49c-3.2-1.2-7.5-2.5-10.8-3.3c-8.2-2-16.2-2.7-27.4-3l.2 5.4zM213.3 469.3h85.3c80.5 0 120.7 0 145.7-19.9c23.4-18.6 24.9-47.9 25-104.1l-.3 .1c-2.7 1.1-4.8 2.1-5.7 2.5c-22.2 11.8-51 11.8-73.2 0c-16.6-8.8-38.3-8.8-54.9 0c-22.2 11.8-51 11.8-73.2 0c-16.6-8.8-38.3-8.8-54.9 0c-22.2 11.8-51 11.8-73.2 0c-16.6-8.8-38.3-8.8-54.9 0c-2.9 1.6-4.4 2.3-5.4 2.8c-8.2 3.4-21.7 .5-31.1-5.1c.1 56 1.6 85.2 25 103.8c25 19.9 65.2 19.9 145.7 19.9z"/></svg>