<svg xmlns="http://www.w3.org/2000/svg" viewBox="0 0 576 512"><!--!Font Awesome Pro 6.6.0 by @fontawesome - https://fontawesome.com License - https://fontawesome.com/license (Commercial License) Copyright 2024 Fonticons, Inc.--><path class="fa-secondary" opacity=".4" d="M16 64l0 384c0 35.3 28.7 64 64 64l224 0c7.6 0 14.9-1.3 21.7-3.8C283.4 476 256 425.2 256 368c0-74.6 46.4-138.4 112-164l0-140c0-35.3-28.7-64-64-64L80 0C44.7 0 16 28.7 16 64zM144 448c0-8.8 7.2-16 16-16l64 0c8.8 0 16 7.2 16 16s-7.2 16-16 16l-64 0c-8.8 0-16-7.2-16-16z"/><path class="fa-primary" d="M576 368c0 79.5-64.5 144-144 144s-144-64.5-144-144s64.5-144 144-144s144 64.5 144 144zM432 416c-13.3 0-24 10.7-24 24s10.7 24 24 24s24-10.7 24-24s-10.7-24-24-24zM409.6 280c-23 0-41.6 18.6-41.6 41.6l0 6.4c0 8.8 7.2 16 16 16s16-7.2 16-16l0-6.4c0-5.3 4.3-9.6 9.6-9.6l40.5 0c7.7 0 13.9 6.2 13.9 13.9c0 5.2-2.9 9.9-7.4 12.3l-32 16.8c-5.3 2.8-8.6 8.2-8.6 14.2l0 14.8c0 8.8 7.2 16 16 16s16-7.2 16-16l0-5.1 23.5-12.3c15.1-7.9 24.5-23.6 24.5-40.6c0-25.4-20.6-45.9-45.9-45.9l-40.5 0z"/></svg>