<svg xmlns="http://www.w3.org/2000/svg" viewBox="0 0 576 512"><!--!Font Awesome Pro 6.6.0 by @fontawesome - https://fontawesome.com License - https://fontawesome.com/license (Commercial License) Copyright 2024 Fonticons, Inc.--><path class="fa-secondary" opacity=".4" d="M16 64l0 384c0 35.3 28.7 64 64 64l224 0c2 0 4-.1 5.9-.3C257.7 476.6 224 416.4 224 350.1c0-35.2 16.3-73.6 37.2-107.4c21.7-35.2 51.9-71.2 87.3-102.8c5.7-5.1 12.4-8.6 19.5-10.4L368 64c0-35.3-28.7-64-64-64L80 0C44.7 0 16 28.7 16 64zM144 448c0-8.8 7.2-16 16-16l64 0c8.8 0 16 7.2 16 16s-7.2 16-16 16l-64 0c-8.8 0-16-7.2-16-16z"/><path class="fa-primary" d="M576 352c0 88.4-71.6 160-160 160s-160-71.6-160-160c0-76.7 62.5-144.7 107.2-179.4c5-3.9 10.9-5.8 16.8-5.8c7.9-.1 16 3.1 22 9.2l46 46 11.3-11.3c11.7-11.7 30.6-12.7 42.3-1C560.5 268 576 320.1 576 352zM416 464.1c35.3 0 64-28.7 64-64c0-36.5-37-73-54.8-88.4c-5.4-4.7-13.1-4.7-18.5 0C389 327.1 352 363.6 352 400.1c0 35.3 28.7 64 64 64z"/></svg>