<svg xmlns="http://www.w3.org/2000/svg" viewBox="0 0 512 512"><!--!Font Awesome Pro 6.6.0 by @fontawesome - https://fontawesome.com License - https://fontawesome.com/license (Commercial License) Copyright 2024 Fonticons, Inc.--><path class="fa-secondary" opacity=".4" d="M42.7 256c0 34.1 8 66.4 22.3 95c3.8 7.6 5 16.3 2.9 24.5L55.1 423c-5.5 20.6 13.3 39.5 34 34l47.5-12.7c8.2-2.2 16.9-.9 24.5 2.9c28.6 14.2 60.9 22.3 95 22.3c117.8 0 213.3-95.5 213.3-213.3s-95.5-213.3-213.3-213.3S42.7 138.2 42.7 256zm154.7-35.6c0-25.4 19.4-43.7 42.7-49.6l0-.2c0-8.8 7.2-16 16-16s16 7.2 16 16l0 .2c23.2 5.9 42.7 24.2 42.7 49.6c0 8.8-7.2 16-16 16s-16-7.2-16-16c0-8.2-9.1-19.6-26.7-19.6s-26.7 11.4-26.7 19.6s9.1 19.6 26.7 19.6c29.5 0 58.7 20.5 58.7 51.6c0 25.4-19.4 43.7-42.7 49.6l0 .2c0 8.8-7.2 16-16 16s-16-7.2-16-16l0-.2c-23.2-5.9-42.7-24.2-42.7-49.6c0-8.8 7.2-16 16-16s16 7.2 16 16c0 8.2 9.1 19.6 26.7 19.6s26.7-11.4 26.7-19.6s-9.1-19.6-26.7-19.6c-29.5 0-58.7-20.5-58.7-51.6z"/><path class="fa-primary" d="M272 170.7c0-8.8-7.2-16-16-16s-16 7.2-16 16v.2c-23.2 5.9-42.7 24.2-42.7 49.6c0 31.1 29.1 51.6 58.7 51.6c17.6 0 26.7 11.4 26.7 19.6s-9.1 19.6-26.7 19.6s-26.7-11.4-26.7-19.6c0-8.8-7.2-16-16-16s-16 7.2-16 16c0 25.4 19.4 43.7 42.7 49.6v.2c0 8.8 7.2 16 16 16s16-7.2 16-16v-.2c23.2-5.9 42.7-24.2 42.7-49.6c0-31.1-29.1-51.6-58.7-51.6c-17.6 0-26.7-11.4-26.7-19.6s9.1-19.6 26.7-19.6s26.7 11.4 26.7 19.6c0 8.8 7.2 16 16 16s16-7.2 16-16c0-25.4-19.4-43.7-42.7-49.6v-.2z"/></svg>