<svg xmlns="http://www.w3.org/2000/svg" viewBox="0 0 512 512"><!--!Font Awesome Pro 6.5.2 by @fontawesome - https://fontawesome.com License - https://fontawesome.com/license (Commercial License) Copyright 2024 Fonticons, Inc.--><path class="fa-secondary" opacity=".4" d="M69.3 64c0-8.8 7.2-16 16-16l341.3 0c8.8 0 16 7.2 16 16s-7.2 16-16 16L85.3 80c-8.8 0-16-7.2-16-16zm0 384c0-8.8 7.2-16 16-16l341.3 0c8.8 0 16 7.2 16 16s-7.2 16-16 16L85.3 464c-8.8 0-16-7.2-16-16z"/><path class="fa-primary" d="M267.3 106a16 16 0 0 0 -22.6 0l-64 64a16 16 0 0 0 22.6 22.6l36.7-36.7v200.1l-36.7-36.7A16 16 0 0 0 180.7 342l64 64a16 16 0 0 0 22.6 0l64-64a16 16 0 1 0 -22.6-22.6L272 356.1V155.9l36.7 36.7a16 16 0 1 0 22.6-22.6z"/></svg>