<svg xmlns="http://www.w3.org/2000/svg" viewBox="0 0 512 512"><!--!Font Awesome Pro 6.6.0 by @fontawesome - https://fontawesome.com License - https://fontawesome.com/license (Commercial License) Copyright 2024 Fonticons, Inc.--><path class="fa-secondary" opacity=".4" d="M53.6 458.2c18.3 18.4 42.2 27.1 66.6 27.1c28.2 0 57.1-11.7 78.9-33.6L302.5 347.9C324.4 326 336 297 336 268.8c0-24.5-8.7-48.4-27-66.7c-6.2-6.3-16.4-6.3-22.6 0s-6.3 16.4 0 22.6c24.8 24.9 24.2 70-6.5 100.7L176.5 429.1c-30.6 30.7-75.4 31.4-100.1 6.5c-24.8-24.9-24.2-70 6.5-100.7L134.5 283c6.2-6.3 6.2-16.4 0-22.6s-16.4-6.2-22.6 0L60.1 312.3c-40.8 40.9-45.9 106.3-6.5 145.9z"/><path class="fa-primary" d="M335.5 82.9c30.6-30.7 75.4-31.4 100.1-6.5c24.8 24.9 24.2 70-6.5 100.7L377.5 229c-6.2 6.3-6.2 16.4 0 22.6s16.4 6.2 22.6 0l51.7-51.9c40.8-40.9 45.9-106.3 6.5-145.9c-39.5-39.6-104.7-34.5-145.5 6.5L209.4 164.1C168.7 205 163.6 270.4 203 310c6.2 6.3 16.4 6.3 22.6 0s6.3-16.4 0-22.6c-24.8-24.9-24.2-70 6.5-100.7L335.5 82.9z"/></svg>