<svg xmlns="http://www.w3.org/2000/svg" viewBox="0 0 512 512"><!--!Font Awesome Pro 6.6.0 by @fontawesome - https://fontawesome.com License - https://fontawesome.com/license (Commercial License) Copyright 2024 Fonticons, Inc.--><path class="fa-secondary" opacity=".4" d="M42.7 170.7l426.7 0c0 2.8 0 7.4 0 12.7c0 10.5 0 23.7 0 30l0 42.7c0 9.4 0 34.3 0 42.7l-.5 0-426.1 0c0-8.4 0-33.2 0-42.7l0-42.7c0-9.4 0-34.3 0-42.7zm192 64a21.3 21.3 0 1 0 42.7 0 21.3 21.3 0 1 0 -42.7 0z"/><path class="fa-primary" d="M234.7 234.7a21.3 21.3 0 1 1 42.7 0 21.3 21.3 0 1 1 -42.7 0zm-191.4-80c1.4-43.1 6.4-69 24.4-87c25-25 65.2-25 145.7-25l85.3 0c80.5 0 120.7 0 145.7 25c18 18 23 43.9 24.4 87l.5 16-426.7 0 .6-16zM256 128a21.3 21.3 0 1 0 0-42.7 21.3 21.3 0 1 0 0 42.7zM43.2 314.7c1.4 43.1 6.4 69 24.4 87c6.5 6.5 14 11.3 23 14.9l0 52.8c0 8.8 7.2 16 16 16s16-7.2 16-16l0-45.4c22.8 2.7 52.1 2.7 90.7 2.7l85.3 0c38.5 0 67.8 0 90.7-2.7l0 45.4c0 8.8 7.2 16 16 16s16-7.2 16-16l0-52.8c9-3.6 16.5-8.4 23-14.9c18-18 23-43.9 24.4-87l0-16-426.1 0 .6 16zM256 341.3a21.3 21.3 0 1 1 0 42.7 21.3 21.3 0 1 1 0-42.7z"/></svg>