<svg xmlns="http://www.w3.org/2000/svg" viewBox="0 0 512 512"><!--!Font Awesome Pro 6.6.0 by @fontawesome - https://fontawesome.com License - https://fontawesome.com/license (Commercial License) Copyright 2024 Fonticons, Inc.--><path class="fa-secondary" opacity=".4" d="M42.7 256c0 100.6 0 150.9 31.2 182.1s81.5 31.2 182.1 31.2s150.9 0 182.1-31.2s31.2-81.5 31.2-182.1l0-.8c0-100.1-.1-150.2-31.2-181.3C406.9 42.7 356.6 42.7 256 42.7s-150.8 0-182.1 31.2S42.7 155.4 42.7 256zM112 170.7c0-8.8 7.2-16 16-16s16 7.2 16 16l0 69.3 70.7 0 0-69.3c0-8.8 7.2-16 16-16s16 7.2 16 16l0 162.5c0 8.8-7.2 16-16 16s-16-7.2-16-16l0-61.2L144 272l0 61.2c0 8.8-7.2 16-16 16s-16-7.2-16-16l0-162.5zm164.3 39.2c0-6.1 0-11.8 1.3-16.9c5.2-20.8 24.6-34.2 45.3-37.4c5-.8 10.6-.8 18.1-.8c.4 0 .8 0 1.3 0l1.4 0 1.4 0c.4 0 .9 0 1.3 0c7.6 0 13.2 0 18.1 .8c20.7 3.3 40.1 16.7 45.3 37.4c1.3 5.1 1.3 10.8 1.3 16.9l0 1.5 0 81.3 0 1.5c0 6.1 0 11.8-1.3 16.9c-.9 3.7-2.3 7.1-4 10.3l9.5 7.5c4 3.2 6.1 7.8 6.1 12.6c0 3.5-1.1 7-3.5 9.9c-3.2 4-7.8 6.1-12.6 6.1c-3.5 0-7-1.1-9.9-3.5l-13.6-10.8c-5.4 2.6-11.3 4.3-17.3 5.3c-5.2 .8-11.2 .8-19.4 .8l-1.4 0-1.4 0c-8.2 0-14.2 0-19.4-.8c-20.7-3.3-40.1-16.7-45.3-37.4c-1.3-5.1-1.3-10.9-1.3-16.9l0-1.5 0-81.3 0-1.5zm32 1.5l0 81.3c0 8.5 .1 9.8 .3 10.6c1.3 5 7.4 11.8 19.3 13.6c2.4 .4 5.6 .4 15.8 .4c2.8 0 5 0 6.9 0c-3.4-5.6-3.2-12.9 1.1-18.3c5.5-6.9 15.5-8.1 22.5-2.6l4.8 3.8c0-1.5 .1-3.9 .1-7.5l0-81.3c0-8.5-.1-9.8-.3-10.6c-1.3-5-7.4-11.8-19.3-13.6c-2.4-.4-5.6-.4-15.8-.4s-13.4 0-15.8 .4c-11.8 1.9-18 8.6-19.3 13.6c-.2 .7-.3 2.1-.3 10.6z"/><path class="fa-primary" d="M128 154.7c8.8 0 16 7.2 16 16V240h70.7V170.7c0-8.8 7.2-16 16-16s16 7.2 16 16V333.2c0 8.8-7.2 16-16 16s-16-7.2-16-16V272H144v61.2c0 8.8-7.2 16-16 16s-16-7.2-16-16V170.7c0-8.8 7.2-16 16-16zm215.7 0l-1.4 0c-8.2 0-14.2 0-19.4 .8c-20.7 3.3-40.1 16.7-45.3 37.4c-1.3 5.1-1.3 10.8-1.3 16.9l0 1.5 0 81.3 0 1.5c0 6.1 0 11.8 1.3 16.9c5.2 20.8 24.6 34.2 45.3 37.4c5.2 .8 11.2 .8 19.4 .8l1.4 0 1.4 0c8.2 0 14.2 0 19.4-.8c6-.9 11.9-2.7 17.3-5.3l13.6 10.8c6.9 5.5 17 4.3 22.5-2.6s4.3-17-2.6-22.5l-9.5-7.5c1.7-3.2 3.1-6.6 4-10.3c1.3-5.1 1.3-10.9 1.3-16.9l0-1.5 0-81.3 0-1.5c0-6.1 0-11.8-1.3-16.9c-5.2-20.8-24.6-34.2-45.3-37.4c-5.2-.8-11.2-.8-19.4-.8l-1.4 0zm30.5 141.6c-6.9-5.5-17-4.3-22.5 2.6c-4.3 5.4-4.5 12.7-1.1 18.3c-1.9 0-4.1 0-6.9 0c-10.2 0-13.4 0-15.8-.4c-11.8-1.9-18-8.6-19.3-13.6c-.2-.7-.3-2.1-.3-10.6l0-81.3c0-8.5 .1-9.8 .3-10.6c1.3-5 7.4-11.8 19.3-13.6c2.4-.4 5.6-.4 15.8-.4s13.4 0 15.8 .4c11.8 1.9 18 8.6 19.3 13.6c.2 .7 .3 2.1 .3 10.6l0 81.3c0 3.7 0 6-.1 7.5l-4.8-3.8z"/></svg>