<svg xmlns="http://www.w3.org/2000/svg" viewBox="0 0 512 512"><!--!Font Awesome Pro 6.6.0 by @fontawesome - https://fontawesome.com License - https://fontawesome.com/license (Commercial License) Copyright 2024 Fonticons, Inc.--><path class="fa-secondary" opacity=".4" d="M64 415.8c0 8.2 3.1 16.5 9.4 22.8s14.5 9.4 22.8 9.4s16.5-3.1 22.8-9.4l8.2-8.2c9.2-9.2 22.2-13.8 35.1-12.3l17 1.9c19.5 2.2 38.8-4.6 52.7-18.5c4.1-4.1 8.2-8.2 12.4-12.4l-27.7-27.7c-6.2-6.2-6.2-16.4 0-22.6s16.4-6.2 22.6 0L267 366.5c15.3-15.3 30.6-30.6 45.8-45.8l-27.7-27.7c-6.2-6.2-6.2-16.4 0-22.6s16.4-6.2 22.6 0L335.5 298c15.2-15.2 30.4-30.4 45.6-45.6l-27.7-27.7c-6.2-6.2-6.2-16.4 0-22.6s16.4-6.2 22.6 0l27.7 27.7c6.4-6.4 12.7-12.7 19.1-19.1c16.8-16.8 25.2-38.8 25.2-60.8s-8.4-44-25.2-60.8S384.1 64 362.1 64s-44 8.4-60.8 25.2L110.5 279.9c-13.8 13.8-20.6 33.2-18.5 52.7l1.9 17c1.4 13-3.1 25.9-12.3 35.1L73.4 393c-6.3 6.3-9.4 14.5-9.4 22.8zM176 320c0-4.1 1.6-8.2 4.7-11.3L319.4 170c6.2-6.2 16.4-6.2 22.6 0s6.2 16.4 0 22.6L203.3 331.3c-6.2 6.2-16.4 6.2-22.6 0c-3.1-3.1-4.7-7.2-4.7-11.3z"/><path class="fa-primary" d="M267 366.5l-22.6 22.6s0 0 0 0l-27.7-27.7c-6.2-6.2-6.2-16.4 0-22.6s16.4-6.2 22.6 0L267 366.5s0 0 0 0zM335.5 298l-22.6 22.6s0 0 0 0l-27.7-27.7c-6.2-6.2-6.2-16.4 0-22.6s16.4-6.2 22.6 0L335.5 298s0 0 0 0zm68.3-68.3l-22.6 22.6s0 0 0 0l-27.7-27.7c-6.2-6.2-6.2-16.4 0-22.6s16.4-6.2 22.6 0l27.7 27.7s0 0 0 0zM342 170c6.2 6.2 6.2 16.4 0 22.6L203.3 331.3c-6.2 6.2-16.4 6.2-22.6 0s-6.2-16.4 0-22.6L319.4 170c6.2-6.2 16.4-6.2 22.6 0z"/></svg>