<svg xmlns="http://www.w3.org/2000/svg" viewBox="0 0 512 512"><!--!Font Awesome Pro 6.6.0 by @fontawesome - https://fontawesome.com License - https://fontawesome.com/license (Commercial License) Copyright 2024 Fonticons, Inc.--><path class="fa-secondary" opacity=".4" d="M42.7 256a213.3 213.3 0 1 0 426.7 0A213.3 213.3 0 1 0 42.7 256zm112 106.7c0-8.8 7.2-16 16-16l44.6 0 48.4-181.3-36.1 0c-8.8 0-16-7.2-16-16s7.2-16 16-16l56.5 0c.1 0 .2 0 .4 0s.2 0 .4 0l56.5 0c8.8 0 16 7.2 16 16s-7.2 16-16 16l-44.6 0L248.4 346.7l36.1 0c8.8 0 16 7.2 16 16s-7.2 16-16 16l-56.5 0c-.1 0-.2 0-.4 0s-.2 0-.4 0l-56.5 0c-8.8 0-16-7.2-16-16z"/><path class="fa-primary" d="M227.6 133.3h56.5c.2 0 .5 0 .7 0h56.5c8.8 0 16 7.2 16 16s-7.2 16-16 16H296.7L248.4 346.7h36.1c8.8 0 16 7.2 16 16s-7.2 16-16 16H227.9c-.2 0-.5 0-.7 0H170.7c-8.8 0-16-7.2-16-16s7.2-16 16-16h44.6l48.4-181.3H227.6c-8.8 0-16-7.2-16-16s7.2-16 16-16z"/></svg>