<svg xmlns="http://www.w3.org/2000/svg" viewBox="0 0 512 512"><!--!Font Awesome Pro 6.6.0 by @fontawesome - https://fontawesome.com License - https://fontawesome.com/license (Commercial License) Copyright 2024 Fonticons, Inc.--><path class="fa-secondary" opacity=".4" d="M106.7 240.2c34 15.9 68 31.9 102 47.8c30.3 14.2 64.3 14.2 94.6 0c34-15.9 68-31.9 102-47.8l0 114.5c0 21.5-10.7 41.6-29.6 52.1C344.5 424.1 294.3 448 256 448s-88.5-23.9-119.8-41.3c-18.8-10.4-29.6-30.6-29.6-52.1l0-114.5z"/><path class="fa-primary" d="M303.3 74.7c-30.3-14.2-64.3-14.2-94.6 0L66 141.6C43 152.3 37 182.7 48 203.7l0 105.7c0 8.8 7.2 16 16 16s16-7.2 16-16V227.7L208.7 288c30.3 14.2 64.3 14.2 94.6 0L446 221.1c31.1-14.6 31.1-64.9 0-79.5L303.3 74.7z"/></svg>