<svg xmlns="http://www.w3.org/2000/svg" viewBox="0 0 512 512"><!--!Font Awesome Pro 6.6.0 by @fontawesome - https://fontawesome.com License - https://fontawesome.com/license (Commercial License) Copyright 2024 Fonticons, Inc.--><path class="fa-secondary" opacity=".4" d="M42.7 373.3c0 24.6 20.5 47 54.3 64c39.1 19.6 95.8 32 159 32c66.3 0 125.5-13.6 164.6-34.9c30.4-16.6 48.7-37.9 48.7-61.1c0-24.6-20.5-47-54.3-64c-25.5-12.8-58.4-22.5-95.8-27.7c.1 .4 .3 .8 .5 1.2L346.2 352c7.9 20.6-7.3 42.7-29.3 42.7c-11.3 0-21.7-6-27.3-15.8L256 320l-33.6 58.8c-5.6 9.8-16 15.8-27.3 15.8c-22.1 0-37.3-22.1-29.3-42.7l26.6-69.2c.2-.4 .3-.8 .5-1.2c-37.4 5.2-70.4 14.9-95.8 27.7c-33.8 17-54.3 39.4-54.3 64z"/><path class="fa-primary" d="M314.7 85.3a58.7 58.7 0 1 1 -117.3 0 58.7 58.7 0 1 1 117.3 0zM175.4 246.9L129 231.4c-13.3-4.5-22.4-16.9-22.4-31c0-20.8 19.2-36.3 39.5-32l40.5 8.7c2.3 .5 3.4 .7 4.5 1c42.8 8.8 86.9 8.8 129.6 0c1.1-.2 2.2-.5 4.5-1l40.5-8.7c20.4-4.4 39.5 11.2 39.5 32c0 14.1-9 26.6-22.4 31l-46.4 15.5c-5.6 1.9-8.4 2.8-10.5 4.1c-7.2 4.4-11.1 12.7-9.9 21c.3 2.5 1.4 5.2 3.5 10.7L346.2 352c7.9 20.6-7.3 42.7-29.3 42.7c-11.3 0-21.7-6-27.3-15.8L256 320l-33.6 58.8c-5.6 9.8-16 15.8-27.3 15.8c-22.1 0-37.3-22.1-29.3-42.7l26.6-69.2c2.1-5.5 3.2-8.3 3.5-10.7c1.1-8.4-2.7-16.6-9.9-21c-2.1-1.3-4.9-2.2-10.5-4.1z"/></svg>