<svg xmlns="http://www.w3.org/2000/svg" viewBox="0 0 512 512"><!--!Font Awesome Pro 6.6.0 by @fontawesome - https://fontawesome.com License - https://fontawesome.com/license (Commercial License) Copyright 2024 Fonticons, Inc.--><path class="fa-secondary" opacity=".4" d="M64 213.3c0-80.5 0-120.7 25-145.7s65.2-25 145.7-25l42.7 0c80.5 0 120.7 0 145.7 25c24.9 24.9 25 65.1 25 145.2l0 .5 0 85.3c0 80.5 0 120.7-25 145.7c-24.9 24.9-65.1 25-145.2 25l-.5 0-42.7 0c-80.5 0-120.7 0-145.7-25C64 419.4 64 379.3 64 299.1l0-.5 0-85.3zm69.3 85.3c0 67.7 54.9 122.7 122.7 122.7c59.6 0 109.4-42.6 120.4-99l1.9-9.5-.4-.3c.5-4.5 .8-9.2 .8-13.8C378.7 230.9 323.7 176 256 176s-122.7 54.9-122.7 122.7zM154.7 128c0 8.8 7.2 16 16 16l170.7 0c8.8 0 16-7.2 16-16s-7.2-16-16-16l-170.7 0c-8.8 0-16 7.2-16 16zm11.1 161.6C170.3 243.8 209 208 256 208c50.1 0 90.7 40.6 90.7 90.8c-2.8-.5-5.8-1-8.6-1.4l-.3-.1c-3.4-.5-6.9-1.1-10.4-1.7c-15-2.7-27-1.6-37.5 2.3c-9.7 3.6-17.1 9.3-22.5 13.5l-.5 .4c-5.9 4.6-9.7 7.4-14.5 9.2c-4.3 1.6-10.5 2.6-20.8 .8c-15-2.7-28.4-9.1-40.8-16.4c-5.3-3.1-10.2-6.3-15.1-9.4l-2.6-1.6c-2.4-1.6-4.9-3.1-7.3-4.6z"/><path class="fa-primary" d="M154.7 128c0-8.8 7.2-16 16-16H341.3c8.8 0 16 7.2 16 16s-7.2 16-16 16H170.7c-8.8 0-16-7.2-16-16zM377.9 312.5c.5-4.5 .8-9.2 .8-13.8C378.7 230.9 323.7 176 256 176s-122.7 54.9-122.7 122.7s54.9 122.7 122.7 122.7c59.6 0 109.4-42.6 120.4-99l1.9-9.5-.4-.3zM173.1 294.2c-2.4-1.6-4.9-3.1-7.3-4.6C170.3 243.8 209 208 256 208c50.1 0 90.7 40.6 90.7 90.7l0 .1c-2.8-.5-5.8-1-8.6-1.4l-.3-.1c-3.4-.5-6.9-1.1-10.4-1.7c-15-2.7-27-1.6-37.5 2.3c-9.7 3.6-17.1 9.3-22.5 13.5l-.5 .4c-5.9 4.6-9.7 7.4-14.5 9.2c-4.3 1.6-10.5 2.6-20.8 .8c-15-2.7-28.4-9.1-40.8-16.4c-5.3-3.1-10.2-6.3-15.1-9.4l-2.6-1.6z"/></svg>