<svg xmlns="http://www.w3.org/2000/svg" viewBox="0 0 512 512"><!--!Font Awesome Pro 6.6.0 by @fontawesome - https://fontawesome.com License - https://fontawesome.com/license (Commercial License) Copyright 2024 Fonticons, Inc.--><path class="fa-secondary" opacity=".4" d="M272 85.3l0 63.9 0 .2 0 26.5 74.7 0 0-90.5c-6.2-.1-12.7-.1-19.6-.1l-55.1 0zM272 208l0 133.2 0 .2 0 26.5 196.9 0 .3 0c.1-8.2 .1-17 .1-26.7l0-133.3L272 208zm0 192l0 68.7c1.7 .4 3.5 .7 5.3 .7l49.8 0c6.9 0 13.4 0 19.6 0l0-69.3L272 400zM378.7 85.8l0 90.2 90.4 0c-.9-36.4-4.6-57.5-20.6-71.9C433.9 90.9 413 87 378.7 85.8zm0 314.2l0 68.8c34.3-1.2 55.2-5.1 69.8-18.3c12.6-11.3 17.6-26.8 19.5-50.6l-89.4 0z"/><path class="fa-primary" d="M240 43.3c-1.7-.4-3.5-.7-5.3-.7H184.9c-6.9 0-13.4 0-19.6 0l0 .1v90.5l74.7 0 0-90zm0 122l-197.3 0 0 0 0 133.3c0 9.6 0 18.5 .1 26.7l.3 0H240v-160zm0 192l-74.7 0 0 69.2 0 .1c6.2 0 12.7 0 19.6 0H240l0-69.3zM133.3 43.2C99 44.3 78.1 48.3 63.5 61.4C47.5 75.8 43.8 97 42.9 133.3l90.4 0V43.2zm0 314.2l0 68.8C99 425 78.1 421.1 63.5 407.9C50.9 396.6 45.9 381.1 44 357.3l89.4 0z"/></svg>