<svg xmlns="http://www.w3.org/2000/svg" viewBox="0 0 512 512"><!--!Font Awesome Pro 6.6.0 by @fontawesome - https://fontawesome.com License - https://fontawesome.com/license (Commercial License) Copyright 2024 Fonticons, Inc.--><path class="fa-secondary" opacity=".4" d="M157.2 278.8c40.5-40.5 81.1-81.1 121.6-121.6c25.3 25.3 50.7 50.7 76 76c-40.5 40.5-81.1 81.1-121.6 121.6c-25.3-25.3-50.7-50.7-76-76z"/><path class="fa-primary" d="M283.5 123.5c-6-21.6 2.2-49.3 18.1-65.1c21-21 55-21 76 0s21 55 0 76c21-21 55-21 76 0s21 55 0 76c-15.9 15.9-43.5 24.1-65.1 18.1c-11.4-3.2-25.3-3.7-33.7 4.7l-76-76c8.4-8.4 7.9-22.2 4.7-33.7zM157.2 278.8l76 76c-8.4 8.4-7.9 22.2-4.7 33.7c6 21.6-2.2 49.3-18.1 65.1c-21 21-55 21-76 0s-21-55 0-76c-21 21-55 21-76 0s-21-55 0-76c15.9-15.9 43.5-24.1 65.1-18.1c11.4 3.2 25.3 3.7 33.7-4.7z"/></svg>