<svg xmlns="http://www.w3.org/2000/svg" viewBox="0 0 512 512"><!--!Font Awesome Pro 6.5.2 by @fontawesome - https://fontawesome.com License - https://fontawesome.com/license (Commercial License) Copyright 2024 Fonticons, Inc.--><path class="fa-secondary" opacity=".4" d="M90.7 253c0 14.8 6.2 29.2 17.6 39.3l44.5 39.6c4.2 4 10.3 5.3 15.8 3.6s9.7-6.4 10.8-12.1s-.9-11.6-5.4-15.3l-44.5-39.6c-6.2-5.6-8.5-14.3-5.8-22.2s9.9-13.4 18.2-13.9l51-3.1c4.2-.3 8.2-2.2 11-5.4c2.6-2.9 4-6.7 4-10.6c0-.3 0-.6 0-1c-.3-4.2-2.2-8.2-5.4-11s-7.3-4.3-11.6-4l-51 3.1c-21.2 1.4-39.5 15.3-46.5 35.4c-1.9 5.6-2.9 11.4-2.9 17.2zm24.6 226.1c5.4 7 15.4 8.3 22.4 2.9c.2-.2 .3-.2 .4-.3l1.1-.8c5.5-4.4 10.8-8.9 16-13.6c9.2-8.4 21.2-20.2 28.8-31.9c7.3-11.1 13.1-26 17-37.2c2.2-6.3 4.2-12.6 6-19.1l.3-1.2 .1-.3c1.1-4.3 .5-8.6-1.6-12.3s-5.6-6.3-9.7-7.4c-4.1-1.1-8.5-.5-12.1 1.6s-6.3 5.6-7.4 9.8c0 .1 0 .2-.1 .3l-.3 1c-1.6 5.8-3.4 11.5-5.3 17.1c-3.7 10.8-8.6 22.5-13.5 30.2c-5.2 8-14.6 17.6-23.5 25.6c-4.3 3.9-8.2 7.2-11.1 9.5l-3.3 2.7-.9 .7-.2 .2c-7.1 5.4-8.4 15.5-3 22.5z"/><path class="fa-primary" d="M298.7 96A53.3 53.3 0 1 1 192 96a53.3 53.3 0 0 1 106.7 0m106.7 58.7c8.8 0 16 7.2 16 16l0 298.7c0 8.8-7.2 16-16 16s-16-7.2-16-16l0-213.5c-36.9 21.5-82.2 22.7-120.2 3.2c-6.9-4.1-15.4-4.5-22.6-.9s-12 10.6-12.8 18.6l-1.5 14.6c-1.2 12.4 4.7 24.4 15.2 31l7.1 4.4c37.3 23.3 61.6 62.8 65.5 106.7l3 34.3c.5 5.7-2 11.2-6.7 14.5s-10.8 3.8-16 1.4s-8.7-7.4-9.2-13.1l-3.1-34.3c-3-33.9-21.7-64.4-50.6-82.4l-7.1-4.4c-20.9-13.1-32.6-36.8-30.1-61.4l1.5-14.7c4-40.2 48.3-62.7 83.1-42.4c33.1 16.3 72.7 11.6 101.1-12l3.3-2.7 0-45.8c0-8.8 7.2-16 16-16z"/></svg>