<svg xmlns="http://www.w3.org/2000/svg" viewBox="0 0 512 512"><!--!Font Awesome Pro 6.6.0 by @fontawesome - https://fontawesome.com License - https://fontawesome.com/license (Commercial License) Copyright 2024 Fonticons, Inc.--><path class="fa-secondary" opacity=".4" d="M153 467c26.9 2.4 60.5 2.4 103 2.4c88.2 0 137.7 0 169.6-21.1l-127-127L153 467zM321.3 298.7l127 127c21.1-31.9 21.1-81.4 21.1-169.6c0-42.5 0-76.1-2.4-103L321.3 298.7z"/><path class="fa-primary" d="M256 42.7c100.6 0 150.9 0 182.1 31.2c10.7 10.7 17.8 23.8 22.4 40.3L114.2 460.5c-16.5-4.6-29.5-11.7-40.3-22.4C42.7 406.9 42.7 356.6 42.7 256s0-150.8 31.2-182.1S155.4 42.7 256 42.7zM117.3 186.8c0 38.1 23.8 82.5 61 98.4c8.7 3.7 18.6 3.7 27.3 0c37.2-15.9 61-60.3 61-98.4c0-38.4-33.4-69.5-74.7-69.5s-74.7 31.1-74.7 69.5zM160 192a32 32 0 1 1 64 0 32 32 0 1 1 -64 0z"/></svg>