<svg xmlns="http://www.w3.org/2000/svg" viewBox="0 0 512 512"><!--!Font Awesome Pro 6.6.0 by @fontawesome - https://fontawesome.com License - https://fontawesome.com/license (Commercial License) Copyright 2024 Fonticons, Inc.--><path class="fa-secondary" opacity=".4" d="M26.7 384c0 4.1 1.6 8.2 4.7 11.3c3.1 3.1 7.2 4.7 11.3 4.7c4.1 0 8.2-1.6 11.3-4.7l83.6-83.2c11-10.9 18.1-17.9 24-22.4c5.5-4.2 8.1-4.7 9.9-4.7s4.3 .5 9.9 4.7c5.9 4.5 13 11.5 24 22.4l5.9 5.8c10 9.9 18.6 18.5 26.5 24.5c8.4 6.4 17.7 11.2 29.2 11.2s20.8-4.8 29.2-11.2c7.8-5.9 16.5-14.5 26.5-24.5l130.9-130 0-22.6-22.7 0-130 129.1c-11 10.9-18.1 17.9-24 22.4c-5.5 4.2-8.1 4.7-9.9 4.7s-4.3-.5-9.9-4.7c-5.9-4.5-13-11.5-24-22.4l-5.8-5.8c-10-10-18.6-18.5-26.5-24.5c-8.4-6.4-17.7-11.2-29.2-11.2s-20.8 4.8-29.2 11.2c-7.8 6-16.5 14.5-26.5 24.5l-84.3 84c-3.1 3.1-4.7 7.2-4.7 11.3z"/><path class="fa-primary" d="M334.3 149.3c0-8.8 7.2-16 16-16l119.1 0c8.8 0 16 7.2 16 16l0 118.3c0 8.8-7.2 16-16 16s-16-7.2-16-16l0-102.3-103.1 0c-8.8 0-16-7.2-16-16z"/></svg>