<svg xmlns="http://www.w3.org/2000/svg" viewBox="0 0 512 512"><!--!Font Awesome Pro 6.6.0 by @fontawesome - https://fontawesome.com License - https://fontawesome.com/license (Commercial License) Copyright 2024 Fonticons, Inc.--><path class="fa-secondary" opacity=".4" d="M42.7 256c0-100.6 0-150.8 31.2-182.1S155.4 42.7 256 42.7s150.9 0 182.1 31.2c31.2 31.2 31.2 81.3 31.2 181.3l0 .8c0 100.6 0 150.9-31.2 182.1s-81.5 31.2-182.1 31.2s-150.8 0-182.1-31.2S42.7 356.6 42.7 256zM112 345.6c0 30.7 25.7 54.4 56 54.4c21.2 0 40.1-11.6 49.6-29L256 305.4 294.4 371c9.5 17.4 28.4 29 49.6 29c30.3 0 56-23.7 56-54.4s-25.7-54.4-56-54.4c-18.6 0-35.5 9-45.7 23l-23.7-40.5 80.6-137.6c4.5-7.6 1.9-17.4-5.7-21.9s-17.4-1.9-21.9 5.7L256 242 184.5 119.9c-4.5-7.6-14.3-10.2-21.9-5.7s-10.2 14.3-5.7 21.9l80.6 137.6-23.7 40.5c-10.2-14-27.1-23-45.7-23c-30.3 0-56 23.7-56 54.4z"/><path class="fa-primary" d="M349.4 114.2c-7.6-4.5-17.4-1.9-21.9 5.7L256 242 184.5 119.9c-4.5-7.6-14.3-10.2-21.9-5.7s-10.2 14.3-5.7 21.9l80.6 137.6-23.7 40.5c-10.2-14-27.1-23-45.7-23c-30.3 0-56 23.7-56 54.4s25.7 54.4 56 54.4c21.2 0 40.1-11.6 49.6-29L256 305.4 294.4 371c9.5 17.4 28.4 29 49.6 29c30.3 0 56-23.7 56-54.4s-25.7-54.4-56-54.4c-18.6 0-35.5 9-45.7 23l-23.7-40.5 80.6-137.6c4.5-7.6 1.9-17.4-5.7-21.9z"/></svg>