<svg xmlns="http://www.w3.org/2000/svg" viewBox="0 0 512 512"><!--!Font Awesome Pro 6.6.0 by @fontawesome - https://fontawesome.com License - https://fontawesome.com/license (Commercial License) Copyright 2024 Fonticons, Inc.--><path class="fa-secondary" opacity=".4" d="M42.3 219.6c2.3 8.5 11.1 13.6 19.6 11.3l81-21.7L224 256l-81.1 46.8-81-21.7c-8.5-2.3-17.3 2.8-19.6 11.3S45 309.8 53.6 312l50.1 13.4L63.2 348.8c-7.7 4.4-10.3 14.2-5.9 21.9s14.2 10.3 21.9 5.9l40.4-23.4-13.4 50.1c-2.3 8.5 2.8 17.3 11.3 19.6s17.3-2.8 19.6-11.3l21.7-81L240 283.7l0-55.4-81.1-46.8-21.7-81c-1.9-7.1-8.4-11.9-15.4-11.9c-1.4 0-2.8 .2-4.2 .5c-8.5 2.3-13.6 11.1-11.3 19.6l13.4 50.1L79.2 135.5c-7.7-4.4-17.4-1.8-21.9 5.9s-1.8 17.4 5.9 21.9l40.4 23.4L53.6 200C45 202.3 40 211 42.3 219.6zM272 228.3l0 55.4 81.1 46.8 21.7 81c2.3 8.5 11.1 13.6 19.6 11.3s13.6-11.1 11.3-19.6l-13.4-50.1 40.4 23.4c7.7 4.4 17.4 1.8 21.9-5.9s1.8-17.4-5.9-21.9l-40.4-23.4L458.4 312c8.5-2.3 13.6-11.1 11.3-19.6s-11.1-13.6-19.6-11.3l-81 21.7L288 256l81.1-46.8 81 21.7c8.5 2.3 17.3-2.8 19.6-11.3s-2.8-17.3-11.3-19.6l-50.1-13.4 40.4-23.4c7.7-4.4 10.3-14.2 5.9-21.9s-14.2-10.3-21.9-5.9l-40.4 23.4 13.4-50.1c2.3-8.5-2.8-17.3-11.3-19.6c-1.4-.4-2.8-.5-4.2-.5c-7.1 0-13.5 4.7-15.4 11.9l-21.7 81L272 228.3z"/><path class="fa-primary" d="M256 26.7c8.8 0 16 7.2 16 16l0 46.7 36.7-36.7c6.2-6.2 16.4-6.2 22.6 0s6.2 16.4 0 22.6L272 134.6l0 242.7 59.3 59.3c6.2 6.2 6.2 16.4 0 22.6s-16.4 6.2-22.6 0L272 422.6l0 46.7c0 8.8-7.2 16-16 16s-16-7.2-16-16l0-46.7-36.7 36.7c-6.2 6.2-16.4 6.2-22.6 0s-6.2-16.4 0-22.6L240 377.4l0-242.7L180.7 75.3c-6.2-6.2-6.2-16.4 0-22.6s16.4-6.2 22.6 0L240 89.4l0-46.7c0-8.8 7.2-16 16-16z"/></svg>