<svg xmlns="http://www.w3.org/2000/svg" viewBox="0 0 640 512"><!--!Font Awesome Pro 6.6.0 by @fontawesome - https://fontawesome.com License - https://fontawesome.com/license (Commercial License) Copyright 2024 Fonticons, Inc.--><path d="M0 96C0 60.7 28.7 32 64 32l320 0c35.3 0 64 28.7 64 64l0 102.6c-23.8 6.7-45.5 18.3-64 33.6L384 96 64 96l0 224 262.6 0c-4.3 15.3-6.6 31.4-6.6 48c0 5.4 .2 10.7 .7 16l-54.1 0 10.7 32 49.3 0c6.6 23.4 18 44.8 32.9 63.1c-2.4 .6-4.9 .9-7.5 .9L96 480c-17.7 0-32-14.3-32-32s14.3-32 32-32l74.6 0 10.7-32L64 384c-35.3 0-64-28.7-64-64L0 96zM352 368c0-79.5 64.5-144 144-144s144 64.5 144 144s-64.5 144-144 144s-144-64.5-144-144zm76.6 3.8c1.6 4.9 6.2 8.2 11.4 8.2l35.6 0-30.1 54.2c-2.8 5-1.7 11.1 2.6 14.9s10.6 4 15.1 .6l96-72c4.1-3.1 5.8-8.5 4.2-13.4s-6.2-8.2-11.4-8.2l-35.6 0 30.1-54.2c2.8-5 1.7-11.1-2.6-14.9s-10.6-4-15.1-.6l-96 72c-4.1 3.1-5.8 8.5-4.2 13.4zM480 80c0-26.5 21.5-48 48-48l64 0c26.5 0 48 21.5 48 48l0 186.8C608.1 221.6 555.5 192 496 192c-5.4 0-10.7 .2-16 .7L480 80zm48 32c0 8.8 7.2 16 16 16l32 0c8.8 0 16-7.2 16-16s-7.2-16-16-16l-32 0c-8.8 0-16 7.2-16 16zm0 64c0 8.8 7.2 16 16 16l32 0c8.8 0 16-7.2 16-16s-7.2-16-16-16l-32 0c-8.8 0-16 7.2-16 16z"/></svg>