<svg xmlns="http://www.w3.org/2000/svg" xmlns:xlink="http://www.w3.org/1999/xlink" style="margin:auto;background:#f1f2f3;display:block;z-index:1;position:relative" width="2560" height="1291" preserveAspectRatio="xMidYMid" viewBox="0 0 2560 1291">
<g transform="translate(1280,645.5) scale(1,-1) translate(-1280,-645.5)"><defs>
  <linearGradient id="ldbk-photon-da025l1yzdg-lg" x1="0" x2="2560" y1="0" y2="0" gradientUnits="userSpaceOnUse">
    <stop stop-color="#1e2030" offset="0"></stop>
    <stop stop-color="#24273a" offset="1"></stop>
  </linearGradient>
  <mask id="ldbk-photon-da025l1yzdg-mask">
  <g><path d="M2860 -0.5 L-21.215967131518028 -0.5 A26 26 0 0 1 -21.215967131518028 52.5 L2860 52.5" fill="#fff">
  <animateTransform attributeName="transform" type="translate" dur="12.5s" repeatCount="indefinite" keyTimes="0;0.5;1" calcMode="spline" keySplines="0.5 0 0.5 1;0.5 0 0.5 1" values="0;0;0" begin="0s"></animateTransform>
</path><path d="M2650.1781890819093 -0.5 L2688.3563781638186 -0.5 A26 26 0 0 1 2688.3563781638186 52.5 L2650.1781890819093 52.5 A26 26 0 0 1 2650.1781890819093 -0.5" fill="#000">
  <animateTransform attributeName="transform" type="translate" dur="25s" repeatCount="indefinite" keyTimes="0;1" values="0;-2896.886636772773" begin="0s"></animateTransform>
  <animate attributeName="opacity" dur="25s" repeatCount="indefinite" keyTimes="0;0.3;1" values="1;1;0" begin="0s"></animate>
</path><path d="M2860 51.5 L-34.35903646954421 51.5 A26 26 0 0 0 -34.35903646954421 104.5 L2860 104.5" fill="#fff">
  <animateTransform attributeName="transform" type="translate" dur="8.333333333333334s" repeatCount="indefinite" keyTimes="0;0.5;1" calcMode="spline" keySplines="0.5 0 0.5 1;0.5 0 0.5 1" values="0;0;0" begin="-3s"></animateTransform>
</path><path d="M71.43764323965252 51.5 L103.50973010248222 51.5 A26 26 0 0 1 103.50973010248222 104.5 L71.43764323965252 104.5 A26 26 0 0 1 71.43764323965252 51.5" fill="#fff">
  <animateTransform attributeName="transform" type="translate" dur="25s" repeatCount="indefinite" keyTimes="0;1" values="0;0" begin="-3s"></animateTransform>
  <animate attributeName="opacity" dur="25s" repeatCount="indefinite" keyTimes="0;0.3;1" values="1;1;0" begin="-3s"></animate>
</path><path d="M2860 103.5 L-41.35095007764994 103.5 A26 26 0 0 1 -41.35095007764994 156.5 L2860 156.5" fill="#fff">
  <animateTransform attributeName="transform" type="translate" dur="25s" repeatCount="indefinite" keyTimes="0;0.5;1" calcMode="spline" keySplines="0.5 0 0.5 1;0.5 0 0.5 1" values="0;0;0" begin="-6s"></animateTransform>
</path><path d="M2636.1668992842133 103.5 L2660.3337985684266 103.5 A26 26 0 0 1 2660.3337985684266 156.5 L2636.1668992842133 156.5 A26 26 0 0 1 2636.1668992842133 103.5" fill="#000">
  <animateTransform attributeName="transform" type="translate" dur="25s" repeatCount="indefinite" keyTimes="0;1" values="0;-3516.6405126589416" begin="-6s"></animateTransform>
  <animate attributeName="opacity" dur="25s" repeatCount="indefinite" keyTimes="0;0.3;1" values="1;1;0" begin="-6s"></animate>
</path><path d="M2860 155.5 L-50.38165865933752 155.5 A26 26 0 0 0 -50.38165865933752 208.5 L2860 208.5" fill="#fff">
  <animateTransform attributeName="transform" type="translate" dur="12.5s" repeatCount="indefinite" keyTimes="0;0.5;1" calcMode="spline" keySplines="0.5 0 0.5 1;0.5 0 0.5 1" values="0;0;0" begin="-9s"></animateTransform>
</path><path d="M61.308832303616335 155.5 L73.7079896243745 155.5 A26 26 0 0 1 73.7079896243745 208.5 L61.308832303616335 208.5 A26 26 0 0 1 61.308832303616335 155.5" fill="#fff">
  <animateTransform attributeName="transform" type="translate" dur="8.333333333333334s" repeatCount="indefinite" keyTimes="0;1" values="0;0" begin="-9s"></animateTransform>
  <animate attributeName="opacity" dur="8.333333333333334s" repeatCount="indefinite" keyTimes="0;0.3;1" values="1;1;0" begin="-9s"></animate>
</path><path d="M2860 207.5 L-37.11263776517444 207.5 A26 26 0 0 1 -37.11263776517444 260.5 L2860 260.5" fill="#fff">
  <animateTransform attributeName="transform" type="translate" dur="25s" repeatCount="indefinite" keyTimes="0;0.5;1" calcMode="spline" keySplines="0.5 0 0.5 1;0.5 0 0.5 1" values="0;0;0" begin="-12s"></animateTransform>
</path><path d="M2625.0881883111892 207.5 L2638.1763766223785 207.5 A26 26 0 0 1 2638.1763766223785 260.5 L2625.0881883111892 260.5 A26 26 0 0 1 2625.0881883111892 207.5" fill="#000">
  <animateTransform attributeName="transform" type="translate" dur="25s" repeatCount="indefinite" keyTimes="0;1" values="0;-2606.7617155039916" begin="-12s"></animateTransform>
  <animate attributeName="opacity" dur="25s" repeatCount="indefinite" keyTimes="0;0.3;1" values="1;1;0" begin="-12s"></animate>
</path><path d="M2860 259.5 L-40.31449548896853 259.5 A26 26 0 0 0 -40.31449548896853 312.5 L2860 312.5" fill="#fff">
  <animateTransform attributeName="transform" type="translate" dur="25s" repeatCount="indefinite" keyTimes="0;0.5;1" calcMode="spline" keySplines="0.5 0 0.5 1;0.5 0 0.5 1" values="0;0;0" begin="-15.000000000000002s"></animateTransform>
</path><path d="M35.251104511259655 259.5 L71.83785729905136 259.5 A26 26 0 0 1 71.83785729905136 312.5 L35.251104511259655 312.5 A26 26 0 0 1 35.251104511259655 259.5" fill="#fff">
  <animateTransform attributeName="transform" type="translate" dur="25s" repeatCount="indefinite" keyTimes="0;1" values="0;0" begin="-15.000000000000002s"></animateTransform>
  <animate attributeName="opacity" dur="25s" repeatCount="indefinite" keyTimes="0;0.3;1" values="1;1;0" begin="-15.000000000000002s"></animate>
</path><path d="M2860 311.5 L-41.72360185296202 311.5 A26 26 0 0 1 -41.72360185296202 364.5 L2860 364.5" fill="#fff">
  <animateTransform attributeName="transform" type="translate" dur="8.333333333333334s" repeatCount="indefinite" keyTimes="0;0.5;1" calcMode="spline" keySplines="0.5 0 0.5 1;0.5 0 0.5 1" values="0;0;0" begin="-18s"></animateTransform>
</path><path d="M2638.8217587767763 311.5 L2665.6435175535526 311.5 A26 26 0 0 1 2665.6435175535526 364.5 L2638.8217587767763 364.5 A26 26 0 0 1 2638.8217587767763 311.5" fill="#000">
  <animateTransform attributeName="transform" type="translate" dur="25s" repeatCount="indefinite" keyTimes="0;1" values="0;-3139.9172653949367" begin="-18s"></animateTransform>
  <animate attributeName="opacity" dur="25s" repeatCount="indefinite" keyTimes="0;0.3;1" values="1;1;0" begin="-18s"></animate>
</path><path d="M2860 363.5 L-76.9808628091705 363.5 A26 26 0 0 0 -76.9808628091705 416.5 L2860 416.5" fill="#fff">
  <animateTransform attributeName="transform" type="translate" dur="12.5s" repeatCount="indefinite" keyTimes="0;0.5;1" calcMode="spline" keySplines="0.5 0 0.5 1;0.5 0 0.5 1" values="0;0;0" begin="-21.000000000000004s"></animateTransform>
</path><path d="M70.04362776544895 363.5 L95.53269380784094 363.5 A26 26 0 0 1 95.53269380784094 416.5 L70.04362776544895 416.5 A26 26 0 0 1 70.04362776544895 363.5" fill="#fff">
  <animateTransform attributeName="transform" type="translate" dur="25s" repeatCount="indefinite" keyTimes="0;1" values="0;0" begin="-21.000000000000004s"></animateTransform>
  <animate attributeName="opacity" dur="25s" repeatCount="indefinite" keyTimes="0;0.3;1" values="1;1;0" begin="-21.000000000000004s"></animate>
</path><path d="M2860 415.5 L-55.569740626865496 415.5 A26 26 0 0 1 -55.569740626865496 468.5 L2860 468.5" fill="#fff">
  <animateTransform attributeName="transform" type="translate" dur="12.5s" repeatCount="indefinite" keyTimes="0;0.5;1" calcMode="spline" keySplines="0.5 0 0.5 1;0.5 0 0.5 1" values="0;0;0" begin="-24s"></animateTransform>
</path><path d="M2649.2709856525908 415.5 L2686.5419713051815 415.5 A26 26 0 0 1 2686.5419713051815 468.5 L2649.2709856525908 468.5 A26 26 0 0 1 2649.2709856525908 415.5" fill="#000">
  <animateTransform attributeName="transform" type="translate" dur="25s" repeatCount="indefinite" keyTimes="0;1" values="0;-3716.8532793426634" begin="-24s"></animateTransform>
  <animate attributeName="opacity" dur="25s" repeatCount="indefinite" keyTimes="0;0.3;1" values="1;1;0" begin="-24s"></animate>
</path><path d="M2860 467.5 L-51.540326336158614 467.5 A26 26 0 0 0 -51.540326336158614 520.5 L2860 520.5" fill="#fff">
  <animateTransform attributeName="transform" type="translate" dur="8.333333333333334s" repeatCount="indefinite" keyTimes="0;0.5;1" calcMode="spline" keySplines="0.5 0 0.5 1;0.5 0 0.5 1" values="0;0;0" begin="-27s"></animateTransform>
</path><path d="M57.30953176961157 467.5 L86.22673906754636 467.5 A26 26 0 0 1 86.22673906754636 520.5 L57.30953176961157 520.5 A26 26 0 0 1 57.30953176961157 467.5" fill="#fff">
  <animateTransform attributeName="transform" type="translate" dur="25s" repeatCount="indefinite" keyTimes="0;1" values="0;0" begin="-27s"></animateTransform>
  <animate attributeName="opacity" dur="25s" repeatCount="indefinite" keyTimes="0;0.3;1" values="1;1;0" begin="-27s"></animate>
</path><path d="M2860 519.5 L-46.058486621659085 519.5 A26 26 0 0 1 -46.058486621659085 572.5 L2860 572.5" fill="#fff">
  <animateTransform attributeName="transform" type="translate" dur="25s" repeatCount="indefinite" keyTimes="0;0.5;1" calcMode="spline" keySplines="0.5 0 0.5 1;0.5 0 0.5 1" values="0;0;0" begin="-30.000000000000004s"></animateTransform>
</path><path d="M2635.0106761689653 519.5 L2658.0213523379307 519.5 A26 26 0 0 1 2658.0213523379307 572.5 L2635.0106761689653 572.5 A26 26 0 0 1 2635.0106761689653 519.5" fill="#000">
  <animateTransform attributeName="transform" type="translate" dur="25s" repeatCount="indefinite" keyTimes="0;1" values="0;-3344.33804566082" begin="-30.000000000000004s"></animateTransform>
  <animate attributeName="opacity" dur="25s" repeatCount="indefinite" keyTimes="0;0.3;1" values="1;1;0" begin="-30.000000000000004s"></animate>
</path><path d="M2860 571.5 L-58.962789899385825 571.5 A26 26 0 0 0 -58.962789899385825 624.5 L2860 624.5" fill="#fff">
  <animateTransform attributeName="transform" type="translate" dur="25s" repeatCount="indefinite" keyTimes="0;0.5;1" calcMode="spline" keySplines="0.5 0 0.5 1;0.5 0 0.5 1" values="0;0;0" begin="-33s"></animateTransform>
</path><path d="M88.87531673830472 571.5 L105.21775946954334 571.5 A26 26 0 0 1 105.21775946954334 624.5 L88.87531673830472 624.5 A26 26 0 0 1 88.87531673830472 571.5" fill="#fff">
  <animateTransform attributeName="transform" type="translate" dur="25s" repeatCount="indefinite" keyTimes="0;1" values="0;0" begin="-33s"></animateTransform>
  <animate attributeName="opacity" dur="25s" repeatCount="indefinite" keyTimes="0;0.3;1" values="1;1;0" begin="-33s"></animate>
</path><path d="M2860 623.5 L-32.85361940009989 623.5 A26 26 0 0 1 -32.85361940009989 676.5 L2860 676.5" fill="#fff">
  <animateTransform attributeName="transform" type="translate" dur="12.5s" repeatCount="indefinite" keyTimes="0;0.5;1" calcMode="spline" keySplines="0.5 0 0.5 1;0.5 0 0.5 1" values="0;0;0" begin="-36s"></animateTransform>
</path><path d="M2637.617491111155 623.5 L2663.2349822223096 623.5 A26 26 0 0 1 2663.2349822223096 676.5 L2637.617491111155 676.5 A26 26 0 0 1 2637.617491111155 623.5" fill="#000">
  <animateTransform attributeName="transform" type="translate" dur="25s" repeatCount="indefinite" keyTimes="0;1" values="0;-3203.3502209661547" begin="-36s"></animateTransform>
  <animate attributeName="opacity" dur="25s" repeatCount="indefinite" keyTimes="0;0.3;1" values="1;1;0" begin="-36s"></animate>
</path><path d="M2860 675.5 L-44.77138031389313 675.5 A26 26 0 0 0 -44.77138031389313 728.5 L2860 728.5" fill="#fff">
  <animateTransform attributeName="transform" type="translate" dur="12.5s" repeatCount="indefinite" keyTimes="0;0.5;1" calcMode="spline" keySplines="0.5 0 0.5 1;0.5 0 0.5 1" values="0;0;0" begin="-39s"></animateTransform>
</path><path d="M104.29137432775133 675.5 L133.0349617318947 675.5 A26 26 0 0 1 133.0349617318947 728.5 L104.29137432775133 728.5 A26 26 0 0 1 104.29137432775133 675.5" fill="#fff">
  <animateTransform attributeName="transform" type="translate" dur="25s" repeatCount="indefinite" keyTimes="0;1" values="0;0" begin="-39s"></animateTransform>
  <animate attributeName="opacity" dur="25s" repeatCount="indefinite" keyTimes="0;0.3;1" values="1;1;0" begin="-39s"></animate>
</path><path d="M2860 727.5 L-3.3709928703678997 727.5 A26 26 0 0 1 -3.3709928703678997 780.5 L2860 780.5" fill="#fff">
  <animateTransform attributeName="transform" type="translate" dur="12.5s" repeatCount="indefinite" keyTimes="0;0.5;1" calcMode="spline" keySplines="0.5 0 0.5 1;0.5 0 0.5 1" values="0;0;0" begin="-42.00000000000001s"></animateTransform>
</path><path d="M2646.9377407413967 727.5 L2681.8754814827935 727.5 A26 26 0 0 1 2681.8754814827935 780.5 L2646.9377407413967 780.5 A26 26 0 0 1 2646.9377407413967 727.5" fill="#000">
  <animateTransform attributeName="transform" type="translate" dur="8.333333333333334s" repeatCount="indefinite" keyTimes="0;1" values="0;-3567.3929234333054" begin="-42.00000000000001s"></animateTransform>
  <animate attributeName="opacity" dur="8.333333333333334s" repeatCount="indefinite" keyTimes="0;0.3;1" values="1;1;0" begin="-42.00000000000001s"></animate>
</path><path d="M2860 779.5 L-0.14208264117405633 779.5 A26 26 0 0 0 -0.14208264117405633 832.5 L2860 832.5" fill="#fff">
  <animateTransform attributeName="transform" type="translate" dur="12.5s" repeatCount="indefinite" keyTimes="0;0.5;1" calcMode="spline" keySplines="0.5 0 0.5 1;0.5 0 0.5 1" values="0;0;0" begin="-44.99999999999999s"></animateTransform>
</path><path d="M87.40919777872205 779.5 L107.93387633783851 779.5 A26 26 0 0 1 107.93387633783851 832.5 L87.40919777872205 832.5 A26 26 0 0 1 87.40919777872205 779.5" fill="#fff">
  <animateTransform attributeName="transform" type="translate" dur="25s" repeatCount="indefinite" keyTimes="0;1" values="0;0" begin="-44.99999999999999s"></animateTransform>
  <animate attributeName="opacity" dur="25s" repeatCount="indefinite" keyTimes="0;0.3;1" values="1;1;0" begin="-44.99999999999999s"></animate>
</path><path d="M2860 831.5 L5.3397570733254724 831.5 A26 26 0 0 1 5.3397570733254724 884.5 L2860 884.5" fill="#fff">
  <animateTransform attributeName="transform" type="translate" dur="12.5s" repeatCount="indefinite" keyTimes="0;0.5;1" calcMode="spline" keySplines="0.5 0 0.5 1;0.5 0 0.5 1" values="0;0;0" begin="-48s"></animateTransform>
</path><path d="M2636.7870260161762 831.5 L2661.5740520323525 831.5 A26 26 0 0 1 2661.5740520323525 884.5 L2636.7870260161762 884.5 A26 26 0 0 1 2636.7870260161762 831.5" fill="#000">
  <animateTransform attributeName="transform" type="translate" dur="12.5s" repeatCount="indefinite" keyTimes="0;1" values="0;-2740.2534185630034" begin="-48s"></animateTransform>
  <animate attributeName="opacity" dur="12.5s" repeatCount="indefinite" keyTimes="0;0.3;1" values="1;1;0" begin="-48s"></animate>
</path><path d="M2860 883.5 L-12.929468799663482 883.5 A26 26 0 0 0 -12.929468799663482 936.5 L2860 936.5" fill="#fff">
  <animateTransform attributeName="transform" type="translate" dur="25s" repeatCount="indefinite" keyTimes="0;0.5;1" calcMode="spline" keySplines="0.5 0 0.5 1;0.5 0 0.5 1" values="0;0;0" begin="-51s"></animateTransform>
</path><path d="M119.21909194762429 883.5 L153.47392419329802 883.5 A26 26 0 0 1 153.47392419329802 936.5 L119.21909194762429 936.5 A26 26 0 0 1 119.21909194762429 883.5" fill="#fff">
  <animateTransform attributeName="transform" type="translate" dur="25s" repeatCount="indefinite" keyTimes="0;1" values="0;0" begin="-51s"></animateTransform>
  <animate attributeName="opacity" dur="25s" repeatCount="indefinite" keyTimes="0;0.3;1" values="1;1;0" begin="-51s"></animate>
</path><path d="M2860 935.5 L-7.244392157783295 935.5 A26 26 0 0 1 -7.244392157783295 988.5 L2860 988.5" fill="#fff">
  <animateTransform attributeName="transform" type="translate" dur="8.333333333333334s" repeatCount="indefinite" keyTimes="0;0.5;1" calcMode="spline" keySplines="0.5 0 0.5 1;0.5 0 0.5 1" values="0;0;0" begin="-54s"></animateTransform>
</path><path d="M2626.9858689284997 935.5 L2641.9717378569994 935.5 A26 26 0 0 1 2641.9717378569994 988.5 L2626.9858689284997 988.5 A26 26 0 0 1 2626.9858689284997 935.5" fill="#000">
  <animateTransform attributeName="transform" type="translate" dur="12.5s" repeatCount="indefinite" keyTimes="0;1" values="0;-3373.7393847614167" begin="-54s"></animateTransform>
  <animate attributeName="opacity" dur="12.5s" repeatCount="indefinite" keyTimes="0;0.3;1" values="1;1;0" begin="-54s"></animate>
</path><path d="M2860 987.5 L-17.990919502932684 987.5 A26 26 0 0 0 -17.990919502932684 1040.5 L2860 1040.5" fill="#fff">
  <animateTransform attributeName="transform" type="translate" dur="8.333333333333334s" repeatCount="indefinite" keyTimes="0;0.5;1" calcMode="spline" keySplines="0.5 0 0.5 1;0.5 0 0.5 1" values="0;0;0" begin="-57.00000000000001s"></animateTransform>
</path><path d="M129.8725232086285 987.5 L159.2746329777624 987.5 A26 26 0 0 1 159.2746329777624 1040.5 L129.8725232086285 1040.5 A26 26 0 0 1 129.8725232086285 987.5" fill="#fff">
  <animateTransform attributeName="transform" type="translate" dur="8.333333333333334s" repeatCount="indefinite" keyTimes="0;1" values="0;0" begin="-57.00000000000001s"></animateTransform>
  <animate attributeName="opacity" dur="8.333333333333334s" repeatCount="indefinite" keyTimes="0;0.3;1" values="1;1;0" begin="-57.00000000000001s"></animate>
</path><path d="M2860 1039.5 L-16.00919602258955 1039.5 A26 26 0 0 1 -16.00919602258955 1092.5 L2860 1092.5" fill="#fff">
  <animateTransform attributeName="transform" type="translate" dur="25s" repeatCount="indefinite" keyTimes="0;0.5;1" calcMode="spline" keySplines="0.5 0 0.5 1;0.5 0 0.5 1" values="0;0;0" begin="-60.00000000000001s"></animateTransform>
</path><path d="M2630.2408921925658 1039.5 L2648.4817843851315 1039.5 A26 26 0 0 1 2648.4817843851315 1092.5 L2630.2408921925658 1092.5 A26 26 0 0 1 2630.2408921925658 1039.5" fill="#000">
  <animateTransform attributeName="transform" type="translate" dur="8.333333333333334s" repeatCount="indefinite" keyTimes="0;1" values="0;-3599.552546973926" begin="-60.00000000000001s"></animateTransform>
  <animate attributeName="opacity" dur="8.333333333333334s" repeatCount="indefinite" keyTimes="0;0.3;1" values="1;1;0" begin="-60.00000000000001s"></animate>
</path><path d="M2860 1091.5 L-32.54409752333322 1091.5 A26 26 0 0 0 -32.54409752333322 1144.5 L2860 1144.5" fill="#fff">
  <animateTransform attributeName="transform" type="translate" dur="12.5s" repeatCount="indefinite" keyTimes="0;0.5;1" calcMode="spline" keySplines="0.5 0 0.5 1;0.5 0 0.5 1" values="0;0;0" begin="-63s"></animateTransform>
</path><path d="M135.20377305345392 1091.5 L169.02238971740456 1091.5 A26 26 0 0 1 169.02238971740456 1144.5 L135.20377305345392 1144.5 A26 26 0 0 1 135.20377305345392 1091.5" fill="#fff">
  <animateTransform attributeName="transform" type="translate" dur="25s" repeatCount="indefinite" keyTimes="0;1" values="0;0" begin="-63s"></animateTransform>
  <animate attributeName="opacity" dur="25s" repeatCount="indefinite" keyTimes="0;0.3;1" values="1;1;0" begin="-63s"></animate>
</path><path d="M2860 1143.5 L3.620209672583769 1143.5 A26 26 0 0 1 3.620209672583769 1196.5 L2860 1196.5" fill="#fff">
  <animateTransform attributeName="transform" type="translate" dur="8.333333333333334s" repeatCount="indefinite" keyTimes="0;0.5;1" calcMode="spline" keySplines="0.5 0 0.5 1;0.5 0 0.5 1" values="0;0;0" begin="-66s"></animateTransform>
</path><path d="M2629.0424242794957 1143.5 L2646.0848485589913 1143.5 A26 26 0 0 1 2646.0848485589913 1196.5 L2629.0424242794957 1196.5 A26 26 0 0 1 2629.0424242794957 1143.5" fill="#000">
  <animateTransform attributeName="transform" type="translate" dur="8.333333333333334s" repeatCount="indefinite" keyTimes="0;1" values="0;-2708.2264316930928" begin="-66s"></animateTransform>
  <animate attributeName="opacity" dur="8.333333333333334s" repeatCount="indefinite" keyTimes="0;0.3;1" values="1;1;0" begin="-66s"></animate>
</path><path d="M2860 1195.5 L-25.44537946832088 1195.5 A26 26 0 0 0 -25.44537946832088 1248.5 L2860 1248.5" fill="#fff">
  <animateTransform attributeName="transform" type="translate" dur="25s" repeatCount="indefinite" keyTimes="0;0.5;1" calcMode="spline" keySplines="0.5 0 0.5 1;0.5 0 0.5 1" values="0;0;0" begin="-69s"></animateTransform>
</path><path d="M106.35059991442405 1195.5 L144.2153076512496 1195.5 A26 26 0 0 1 144.2153076512496 1248.5 L106.35059991442405 1248.5 A26 26 0 0 1 106.35059991442405 1195.5" fill="#fff">
  <animateTransform attributeName="transform" type="translate" dur="8.333333333333334s" repeatCount="indefinite" keyTimes="0;1" values="0;0" begin="-69s"></animateTransform>
  <animate attributeName="opacity" dur="8.333333333333334s" repeatCount="indefinite" keyTimes="0;0.3;1" values="1;1;0" begin="-69s"></animate>
</path><path d="M2860 1247.5 L-3.8352558104957097 1247.5 A26 26 0 0 1 -3.8352558104957097 1300.5 L2860 1300.5" fill="#fff">
  <animateTransform attributeName="transform" type="translate" dur="25s" repeatCount="indefinite" keyTimes="0;0.5;1" calcMode="spline" keySplines="0.5 0 0.5 1;0.5 0 0.5 1" values="0;0;0" begin="-72s"></animateTransform>
</path><path d="M2634.2898528285573 1247.5 L2656.5797056571146 1247.5 A26 26 0 0 1 2656.5797056571146 1300.5 L2634.2898528285573 1300.5 A26 26 0 0 1 2634.2898528285573 1247.5" fill="#000">
  <animateTransform attributeName="transform" type="translate" dur="25s" repeatCount="indefinite" keyTimes="0;1" values="0;-3325.7034448474974" begin="-72s"></animateTransform>
  <animate attributeName="opacity" dur="25s" repeatCount="indefinite" keyTimes="0;0.3;1" values="1;1;0" begin="-72s"></animate>
</path>    </g>
  </mask>
</defs>
<rect x="0" y="0" width="2560" height="1291" fill="url(#ldbk-photon-da025l1yzdg-lg)" mask="url(#ldbk-photon-da025l1yzdg-mask)"></rect></g>
</svg>